%FSLAX45Y45*%
G04 Gerber Fmt 4.5, Leading zero omitted, Abs format (unit mm)*
G04 Created by KiCad (PCBNEW 5.0.2-bee76a0~70~ubuntu16.04.1) date Tue 14 Jan 2020 10:26:22 AM MST*
%MOMM*%
%LPD*%
G01*
G04 APERTURE LIST*
%ADD10C,0.150000*%
%ADD11C,0.200000*%
%ADD12C,0.300000*%
G04 APERTURE END LIST*
D10*
X9271000Y-9626600D02*
X9271000Y-17602200D01*
X18542000Y-18161000D02*
X9842500Y-18161000D01*
X19075400Y-9626600D02*
X19075400Y-17589500D01*
X9271000Y-9626600D02*
G75*
G02X9842500Y-9055100I571500J0D01*
G01*
X9842500Y-18161000D02*
G75*
G02X9271000Y-17589500I0J571500D01*
G01*
X19075400Y-17589500D02*
G75*
G02X18503900Y-18161000I-571500J0D01*
G01*
X18503900Y-9055100D02*
G75*
G02X19075400Y-9626600I0J-571500D01*
G01*
X18542000Y-9055100D02*
X9842500Y-9055100D01*
D11*
X12667000Y-11460500D02*
X12987000Y-11780500D01*
X12987000Y-11460500D02*
X12667000Y-11780500D01*
X17747000Y-11460500D02*
X18067000Y-11780500D01*
X18067000Y-11460500D02*
X17747000Y-11780500D01*
X17747000Y-15334000D02*
X18067000Y-15654000D01*
X18067000Y-15334000D02*
X17747000Y-15654000D01*
X12667000Y-15334000D02*
X12987000Y-15654000D01*
X12987000Y-15334000D02*
X12667000Y-15654000D01*
D12*
X9549928Y-18634214D02*
X9549928Y-18334214D01*
X9621357Y-18334214D01*
X9664214Y-18348500D01*
X9692786Y-18377072D01*
X9707071Y-18405643D01*
X9721357Y-18462786D01*
X9721357Y-18505643D01*
X9707071Y-18562786D01*
X9692786Y-18591357D01*
X9664214Y-18619929D01*
X9621357Y-18634214D01*
X9549928Y-18634214D01*
X9849928Y-18634214D02*
X9849928Y-18434214D01*
X9849928Y-18491357D02*
X9864214Y-18462786D01*
X9878500Y-18448500D01*
X9907071Y-18434214D01*
X9935643Y-18434214D01*
X10035643Y-18634214D02*
X10035643Y-18434214D01*
X10035643Y-18334214D02*
X10021357Y-18348500D01*
X10035643Y-18362786D01*
X10049928Y-18348500D01*
X10035643Y-18334214D01*
X10035643Y-18362786D01*
X10221357Y-18634214D02*
X10192786Y-18619929D01*
X10178500Y-18591357D01*
X10178500Y-18334214D01*
X10378500Y-18634214D02*
X10349928Y-18619929D01*
X10335643Y-18591357D01*
X10335643Y-18334214D01*
X10721357Y-18634214D02*
X10721357Y-18334214D01*
X10821357Y-18548500D01*
X10921357Y-18334214D01*
X10921357Y-18634214D01*
X11192786Y-18634214D02*
X11192786Y-18477072D01*
X11178500Y-18448500D01*
X11149928Y-18434214D01*
X11092786Y-18434214D01*
X11064214Y-18448500D01*
X11192786Y-18619929D02*
X11164214Y-18634214D01*
X11092786Y-18634214D01*
X11064214Y-18619929D01*
X11049928Y-18591357D01*
X11049928Y-18562786D01*
X11064214Y-18534214D01*
X11092786Y-18519929D01*
X11164214Y-18519929D01*
X11192786Y-18505643D01*
X11335643Y-18434214D02*
X11335643Y-18734214D01*
X11335643Y-18448500D02*
X11364214Y-18434214D01*
X11421357Y-18434214D01*
X11449928Y-18448500D01*
X11464214Y-18462786D01*
X11478500Y-18491357D01*
X11478500Y-18577072D01*
X11464214Y-18605643D01*
X11449928Y-18619929D01*
X11421357Y-18634214D01*
X11364214Y-18634214D01*
X11335643Y-18619929D01*
X11607071Y-18605643D02*
X11621357Y-18619929D01*
X11607071Y-18634214D01*
X11592786Y-18619929D01*
X11607071Y-18605643D01*
X11607071Y-18634214D01*
X11607071Y-18448500D02*
X11621357Y-18462786D01*
X11607071Y-18477072D01*
X11592786Y-18462786D01*
X11607071Y-18448500D01*
X11607071Y-18477072D01*
X8943500Y-18968500D02*
X9263500Y-19288500D01*
X9263500Y-18968500D02*
X8943500Y-19288500D01*
X9521357Y-18964214D02*
X9707071Y-18964214D01*
X9607071Y-19078500D01*
X9649928Y-19078500D01*
X9678500Y-19092786D01*
X9692786Y-19107072D01*
X9707071Y-19135643D01*
X9707071Y-19207072D01*
X9692786Y-19235643D01*
X9678500Y-19249929D01*
X9649928Y-19264214D01*
X9564214Y-19264214D01*
X9535643Y-19249929D01*
X9521357Y-19235643D01*
X9835643Y-19235643D02*
X9849928Y-19249929D01*
X9835643Y-19264214D01*
X9821357Y-19249929D01*
X9835643Y-19235643D01*
X9835643Y-19264214D01*
X9964214Y-18992786D02*
X9978500Y-18978500D01*
X10007071Y-18964214D01*
X10078500Y-18964214D01*
X10107071Y-18978500D01*
X10121357Y-18992786D01*
X10135643Y-19021357D01*
X10135643Y-19049929D01*
X10121357Y-19092786D01*
X9949928Y-19264214D01*
X10135643Y-19264214D01*
X10321357Y-18964214D02*
X10349928Y-18964214D01*
X10378500Y-18978500D01*
X10392786Y-18992786D01*
X10407071Y-19021357D01*
X10421357Y-19078500D01*
X10421357Y-19149929D01*
X10407071Y-19207072D01*
X10392786Y-19235643D01*
X10378500Y-19249929D01*
X10349928Y-19264214D01*
X10321357Y-19264214D01*
X10292786Y-19249929D01*
X10278500Y-19235643D01*
X10264214Y-19207072D01*
X10249928Y-19149929D01*
X10249928Y-19078500D01*
X10264214Y-19021357D01*
X10278500Y-18992786D01*
X10292786Y-18978500D01*
X10321357Y-18964214D01*
X10549928Y-19264214D02*
X10549928Y-19064214D01*
X10549928Y-19092786D02*
X10564214Y-19078500D01*
X10592786Y-19064214D01*
X10635643Y-19064214D01*
X10664214Y-19078500D01*
X10678500Y-19107072D01*
X10678500Y-19264214D01*
X10678500Y-19107072D02*
X10692786Y-19078500D01*
X10721357Y-19064214D01*
X10764214Y-19064214D01*
X10792786Y-19078500D01*
X10807071Y-19107072D01*
X10807071Y-19264214D01*
X10949928Y-19264214D02*
X10949928Y-19064214D01*
X10949928Y-19092786D02*
X10964214Y-19078500D01*
X10992786Y-19064214D01*
X11035643Y-19064214D01*
X11064214Y-19078500D01*
X11078500Y-19107072D01*
X11078500Y-19264214D01*
X11078500Y-19107072D02*
X11092786Y-19078500D01*
X11121357Y-19064214D01*
X11164214Y-19064214D01*
X11192786Y-19078500D01*
X11207071Y-19107072D01*
X11207071Y-19264214D01*
X11792786Y-18949929D02*
X11535643Y-19335643D01*
X12178500Y-18964214D02*
X12207071Y-18964214D01*
X12235643Y-18978500D01*
X12249928Y-18992786D01*
X12264214Y-19021357D01*
X12278500Y-19078500D01*
X12278500Y-19149929D01*
X12264214Y-19207072D01*
X12249928Y-19235643D01*
X12235643Y-19249929D01*
X12207071Y-19264214D01*
X12178500Y-19264214D01*
X12149928Y-19249929D01*
X12135643Y-19235643D01*
X12121357Y-19207072D01*
X12107071Y-19149929D01*
X12107071Y-19078500D01*
X12121357Y-19021357D01*
X12135643Y-18992786D01*
X12149928Y-18978500D01*
X12178500Y-18964214D01*
X12407071Y-19235643D02*
X12421357Y-19249929D01*
X12407071Y-19264214D01*
X12392786Y-19249929D01*
X12407071Y-19235643D01*
X12407071Y-19264214D01*
X12707071Y-19264214D02*
X12535643Y-19264214D01*
X12621357Y-19264214D02*
X12621357Y-18964214D01*
X12592786Y-19007072D01*
X12564214Y-19035643D01*
X12535643Y-19049929D01*
X12821357Y-18992786D02*
X12835643Y-18978500D01*
X12864214Y-18964214D01*
X12935643Y-18964214D01*
X12964214Y-18978500D01*
X12978500Y-18992786D01*
X12992786Y-19021357D01*
X12992786Y-19049929D01*
X12978500Y-19092786D01*
X12807071Y-19264214D01*
X12992786Y-19264214D01*
X13249928Y-18964214D02*
X13192786Y-18964214D01*
X13164214Y-18978500D01*
X13149928Y-18992786D01*
X13121357Y-19035643D01*
X13107071Y-19092786D01*
X13107071Y-19207072D01*
X13121357Y-19235643D01*
X13135643Y-19249929D01*
X13164214Y-19264214D01*
X13221357Y-19264214D01*
X13249928Y-19249929D01*
X13264214Y-19235643D01*
X13278500Y-19207072D01*
X13278500Y-19135643D01*
X13264214Y-19107072D01*
X13249928Y-19092786D01*
X13221357Y-19078500D01*
X13164214Y-19078500D01*
X13135643Y-19092786D01*
X13121357Y-19107072D01*
X13107071Y-19135643D01*
X13392786Y-18964214D02*
X13392786Y-19021357D01*
X13507071Y-18964214D02*
X13507071Y-19021357D01*
X13949928Y-19378500D02*
X13935643Y-19364214D01*
X13907071Y-19321357D01*
X13892786Y-19292786D01*
X13878500Y-19249929D01*
X13864214Y-19178500D01*
X13864214Y-19121357D01*
X13878500Y-19049929D01*
X13892786Y-19007072D01*
X13907071Y-18978500D01*
X13935643Y-18935643D01*
X13949928Y-18921357D01*
X14192786Y-19064214D02*
X14192786Y-19264214D01*
X14121357Y-18949929D02*
X14049928Y-19164214D01*
X14235643Y-19164214D01*
X14578500Y-19264214D02*
X14578500Y-18964214D01*
X14707071Y-19264214D02*
X14707071Y-19107072D01*
X14692786Y-19078500D01*
X14664214Y-19064214D01*
X14621357Y-19064214D01*
X14592786Y-19078500D01*
X14578500Y-19092786D01*
X14892786Y-19264214D02*
X14864214Y-19249929D01*
X14849928Y-19235643D01*
X14835643Y-19207072D01*
X14835643Y-19121357D01*
X14849928Y-19092786D01*
X14864214Y-19078500D01*
X14892786Y-19064214D01*
X14935643Y-19064214D01*
X14964214Y-19078500D01*
X14978500Y-19092786D01*
X14992786Y-19121357D01*
X14992786Y-19207072D01*
X14978500Y-19235643D01*
X14964214Y-19249929D01*
X14935643Y-19264214D01*
X14892786Y-19264214D01*
X15164214Y-19264214D02*
X15135643Y-19249929D01*
X15121357Y-19221357D01*
X15121357Y-18964214D01*
X15392786Y-19249929D02*
X15364214Y-19264214D01*
X15307071Y-19264214D01*
X15278500Y-19249929D01*
X15264214Y-19221357D01*
X15264214Y-19107072D01*
X15278500Y-19078500D01*
X15307071Y-19064214D01*
X15364214Y-19064214D01*
X15392786Y-19078500D01*
X15407071Y-19107072D01*
X15407071Y-19135643D01*
X15264214Y-19164214D01*
X15521357Y-19249929D02*
X15549928Y-19264214D01*
X15607071Y-19264214D01*
X15635643Y-19249929D01*
X15649928Y-19221357D01*
X15649928Y-19207072D01*
X15635643Y-19178500D01*
X15607071Y-19164214D01*
X15564214Y-19164214D01*
X15535643Y-19149929D01*
X15521357Y-19121357D01*
X15521357Y-19107072D01*
X15535643Y-19078500D01*
X15564214Y-19064214D01*
X15607071Y-19064214D01*
X15635643Y-19078500D01*
X15749928Y-19378500D02*
X15764214Y-19364214D01*
X15792786Y-19321357D01*
X15807071Y-19292786D01*
X15821357Y-19249929D01*
X15835643Y-19178500D01*
X15835643Y-19121357D01*
X15821357Y-19049929D01*
X15807071Y-19007072D01*
X15792786Y-18978500D01*
X15764214Y-18935643D01*
X15749928Y-18921357D01*
X16292786Y-19378500D02*
X16278500Y-19364214D01*
X16249928Y-19321357D01*
X16235643Y-19292786D01*
X16221357Y-19249929D01*
X16207071Y-19178500D01*
X16207071Y-19121357D01*
X16221357Y-19049929D01*
X16235643Y-19007072D01*
X16249928Y-18978500D01*
X16278500Y-18935643D01*
X16292786Y-18921357D01*
X16407071Y-19064214D02*
X16407071Y-19264214D01*
X16407071Y-19092786D02*
X16421357Y-19078500D01*
X16449928Y-19064214D01*
X16492786Y-19064214D01*
X16521357Y-19078500D01*
X16535643Y-19107072D01*
X16535643Y-19264214D01*
X16721357Y-19264214D02*
X16692786Y-19249929D01*
X16678500Y-19235643D01*
X16664214Y-19207072D01*
X16664214Y-19121357D01*
X16678500Y-19092786D01*
X16692786Y-19078500D01*
X16721357Y-19064214D01*
X16764214Y-19064214D01*
X16792786Y-19078500D01*
X16807071Y-19092786D01*
X16821357Y-19121357D01*
X16821357Y-19207072D01*
X16807071Y-19235643D01*
X16792786Y-19249929D01*
X16764214Y-19264214D01*
X16721357Y-19264214D01*
X16907071Y-19064214D02*
X17021357Y-19064214D01*
X16949928Y-18964214D02*
X16949928Y-19221357D01*
X16964214Y-19249929D01*
X16992786Y-19264214D01*
X17021357Y-19264214D01*
X17349928Y-19064214D02*
X17349928Y-19364214D01*
X17349928Y-19078500D02*
X17378500Y-19064214D01*
X17435643Y-19064214D01*
X17464214Y-19078500D01*
X17478500Y-19092786D01*
X17492786Y-19121357D01*
X17492786Y-19207072D01*
X17478500Y-19235643D01*
X17464214Y-19249929D01*
X17435643Y-19264214D01*
X17378500Y-19264214D01*
X17349928Y-19249929D01*
X17664214Y-19264214D02*
X17635643Y-19249929D01*
X17621357Y-19221357D01*
X17621357Y-18964214D01*
X17907071Y-19264214D02*
X17907071Y-19107072D01*
X17892786Y-19078500D01*
X17864214Y-19064214D01*
X17807071Y-19064214D01*
X17778500Y-19078500D01*
X17907071Y-19249929D02*
X17878500Y-19264214D01*
X17807071Y-19264214D01*
X17778500Y-19249929D01*
X17764214Y-19221357D01*
X17764214Y-19192786D01*
X17778500Y-19164214D01*
X17807071Y-19149929D01*
X17878500Y-19149929D01*
X17907071Y-19135643D01*
X18007071Y-19064214D02*
X18121357Y-19064214D01*
X18049928Y-18964214D02*
X18049928Y-19221357D01*
X18064214Y-19249929D01*
X18092786Y-19264214D01*
X18121357Y-19264214D01*
X18335643Y-19249929D02*
X18307071Y-19264214D01*
X18249928Y-19264214D01*
X18221357Y-19249929D01*
X18207071Y-19221357D01*
X18207071Y-19107072D01*
X18221357Y-19078500D01*
X18249928Y-19064214D01*
X18307071Y-19064214D01*
X18335643Y-19078500D01*
X18349928Y-19107072D01*
X18349928Y-19135643D01*
X18207071Y-19164214D01*
X18607071Y-19264214D02*
X18607071Y-18964214D01*
X18607071Y-19249929D02*
X18578500Y-19264214D01*
X18521357Y-19264214D01*
X18492786Y-19249929D01*
X18478500Y-19235643D01*
X18464214Y-19207072D01*
X18464214Y-19121357D01*
X18478500Y-19092786D01*
X18492786Y-19078500D01*
X18521357Y-19064214D01*
X18578500Y-19064214D01*
X18607071Y-19078500D01*
X18721357Y-19378500D02*
X18735643Y-19364214D01*
X18764214Y-19321357D01*
X18778500Y-19292786D01*
X18792786Y-19249929D01*
X18807071Y-19178500D01*
X18807071Y-19121357D01*
X18792786Y-19049929D01*
X18778500Y-19007072D01*
X18764214Y-18978500D01*
X18735643Y-18935643D01*
X18721357Y-18921357D01*
M02*
