G04 #@! TF.GenerationSoftware,KiCad,Pcbnew,5.0.2-bee76a0~70~ubuntu16.04.1*
G04 #@! TF.CreationDate,2020-01-14T10:26:45-07:00*
G04 #@! TF.ProjectId,Soil_Sensor_Hub,536f696c-5f53-4656-9e73-6f725f487562,rev?*
G04 #@! TF.SameCoordinates,Original*
G04 #@! TF.FileFunction,Legend,Bot*
G04 #@! TF.FilePolarity,Positive*
%FSLAX46Y46*%
G04 Gerber Fmt 4.6, Leading zero omitted, Abs format (unit mm)*
G04 Created by KiCad (PCBNEW 5.0.2-bee76a0~70~ubuntu16.04.1) date Tue 14 Jan 2020 10:26:45 AM MST*
%MOMM*%
%LPD*%
G01*
G04 APERTURE LIST*
%ADD10C,0.500000*%
G04 APERTURE END LIST*
D10*
X97060000Y-135780000D02*
X97060000Y-137208571D01*
X97917142Y-135494285D02*
X94917142Y-136494285D01*
X97917142Y-137494285D01*
X97917142Y-138494285D02*
X95917142Y-138494285D01*
X96488571Y-138494285D02*
X96202857Y-138637142D01*
X96060000Y-138780000D01*
X95917142Y-139065714D01*
X95917142Y-139351428D01*
X95917142Y-139922857D02*
X95917142Y-141065714D01*
X94917142Y-140351428D02*
X97488571Y-140351428D01*
X97774285Y-140494285D01*
X97917142Y-140780000D01*
X97917142Y-141065714D01*
X97917142Y-142494285D02*
X97774285Y-142208571D01*
X97631428Y-142065714D01*
X97345714Y-141922857D01*
X96488571Y-141922857D01*
X96202857Y-142065714D01*
X96060000Y-142208571D01*
X95917142Y-142494285D01*
X95917142Y-142922857D01*
X96060000Y-143208571D01*
X96202857Y-143351428D01*
X96488571Y-143494285D01*
X97345714Y-143494285D01*
X97631428Y-143351428D01*
X97774285Y-143208571D01*
X97917142Y-142922857D01*
X97917142Y-142494285D01*
X97917142Y-146208571D02*
X97917142Y-144780000D01*
X94917142Y-144780000D01*
X97917142Y-148494285D02*
X96345714Y-148494285D01*
X96060000Y-148351428D01*
X95917142Y-148065714D01*
X95917142Y-147494285D01*
X96060000Y-147208571D01*
X97774285Y-148494285D02*
X97917142Y-148208571D01*
X97917142Y-147494285D01*
X97774285Y-147208571D01*
X97488571Y-147065714D01*
X97202857Y-147065714D01*
X96917142Y-147208571D01*
X96774285Y-147494285D01*
X96774285Y-148208571D01*
X96631428Y-148494285D01*
X97917142Y-149922857D02*
X94917142Y-149922857D01*
X96060000Y-149922857D02*
X95917142Y-150208571D01*
X95917142Y-150780000D01*
X96060000Y-151065714D01*
X96202857Y-151208571D01*
X96488571Y-151351428D01*
X97345714Y-151351428D01*
X97631428Y-151208571D01*
X97774285Y-151065714D01*
X97917142Y-150780000D01*
X97917142Y-150208571D01*
X97774285Y-149922857D01*
X97774285Y-152494285D02*
X97917142Y-152780000D01*
X97917142Y-153351428D01*
X97774285Y-153637142D01*
X97488571Y-153780000D01*
X97345714Y-153780000D01*
X97060000Y-153637142D01*
X96917142Y-153351428D01*
X96917142Y-152922857D01*
X96774285Y-152637142D01*
X96488571Y-152494285D01*
X96345714Y-152494285D01*
X96060000Y-152637142D01*
X95917142Y-152922857D01*
X95917142Y-153351428D01*
X96060000Y-153637142D01*
X102774285Y-128565714D02*
X102917142Y-128994285D01*
X102917142Y-129708571D01*
X102774285Y-129994285D01*
X102631428Y-130137142D01*
X102345714Y-130280000D01*
X102060000Y-130280000D01*
X101774285Y-130137142D01*
X101631428Y-129994285D01*
X101488571Y-129708571D01*
X101345714Y-129137142D01*
X101202857Y-128851428D01*
X101060000Y-128708571D01*
X100774285Y-128565714D01*
X100488571Y-128565714D01*
X100202857Y-128708571D01*
X100060000Y-128851428D01*
X99917142Y-129137142D01*
X99917142Y-129851428D01*
X100060000Y-130280000D01*
X102774285Y-132708571D02*
X102917142Y-132422857D01*
X102917142Y-131851428D01*
X102774285Y-131565714D01*
X102488571Y-131422857D01*
X101345714Y-131422857D01*
X101060000Y-131565714D01*
X100917142Y-131851428D01*
X100917142Y-132422857D01*
X101060000Y-132708571D01*
X101345714Y-132851428D01*
X101631428Y-132851428D01*
X101917142Y-131422857D01*
X100917142Y-134137142D02*
X102917142Y-134137142D01*
X101202857Y-134137142D02*
X101060000Y-134280000D01*
X100917142Y-134565714D01*
X100917142Y-134994285D01*
X101060000Y-135280000D01*
X101345714Y-135422857D01*
X102917142Y-135422857D01*
X102774285Y-136708571D02*
X102917142Y-136994285D01*
X102917142Y-137565714D01*
X102774285Y-137851428D01*
X102488571Y-137994285D01*
X102345714Y-137994285D01*
X102060000Y-137851428D01*
X101917142Y-137565714D01*
X101917142Y-137137142D01*
X101774285Y-136851428D01*
X101488571Y-136708571D01*
X101345714Y-136708571D01*
X101060000Y-136851428D01*
X100917142Y-137137142D01*
X100917142Y-137565714D01*
X101060000Y-137851428D01*
X102917142Y-139280000D02*
X100917142Y-139280000D01*
X99917142Y-139280000D02*
X100060000Y-139137142D01*
X100202857Y-139280000D01*
X100060000Y-139422857D01*
X99917142Y-139280000D01*
X100202857Y-139280000D01*
X101774285Y-140708571D02*
X101774285Y-142994285D01*
X100917142Y-144422857D02*
X103917142Y-144422857D01*
X101060000Y-144422857D02*
X100917142Y-144708571D01*
X100917142Y-145280000D01*
X101060000Y-145565714D01*
X101202857Y-145708571D01*
X101488571Y-145851428D01*
X102345714Y-145851428D01*
X102631428Y-145708571D01*
X102774285Y-145565714D01*
X102917142Y-145280000D01*
X102917142Y-144708571D01*
X102774285Y-144422857D01*
X102917142Y-147565714D02*
X102774285Y-147280000D01*
X102631428Y-147137142D01*
X102345714Y-146994285D01*
X101488571Y-146994285D01*
X101202857Y-147137142D01*
X101060000Y-147280000D01*
X100917142Y-147565714D01*
X100917142Y-147994285D01*
X101060000Y-148280000D01*
X101202857Y-148422857D01*
X101488571Y-148565714D01*
X102345714Y-148565714D01*
X102631428Y-148422857D01*
X102774285Y-148280000D01*
X102917142Y-147994285D01*
X102917142Y-147565714D01*
X100917142Y-149422857D02*
X100917142Y-150565714D01*
X99917142Y-149851428D02*
X102488571Y-149851428D01*
X102774285Y-149994285D01*
X102917142Y-150280000D01*
X102917142Y-150565714D01*
X102631428Y-151565714D02*
X102774285Y-151708571D01*
X102917142Y-151565714D01*
X102774285Y-151422857D01*
X102631428Y-151565714D01*
X102917142Y-151565714D01*
X102774285Y-154280000D02*
X102917142Y-153994285D01*
X102917142Y-153422857D01*
X102774285Y-153137142D01*
X102631428Y-152994285D01*
X102345714Y-152851428D01*
X101488571Y-152851428D01*
X101202857Y-152994285D01*
X101060000Y-153137142D01*
X100917142Y-153422857D01*
X100917142Y-153994285D01*
X101060000Y-154280000D01*
X102917142Y-155994285D02*
X102774285Y-155708571D01*
X102631428Y-155565714D01*
X102345714Y-155422857D01*
X101488571Y-155422857D01*
X101202857Y-155565714D01*
X101060000Y-155708571D01*
X100917142Y-155994285D01*
X100917142Y-156422857D01*
X101060000Y-156708571D01*
X101202857Y-156851428D01*
X101488571Y-156994285D01*
X102345714Y-156994285D01*
X102631428Y-156851428D01*
X102774285Y-156708571D01*
X102917142Y-156422857D01*
X102917142Y-155994285D01*
X102917142Y-158280000D02*
X100917142Y-158280000D01*
X101202857Y-158280000D02*
X101060000Y-158422857D01*
X100917142Y-158708571D01*
X100917142Y-159137142D01*
X101060000Y-159422857D01*
X101345714Y-159565714D01*
X102917142Y-159565714D01*
X101345714Y-159565714D02*
X101060000Y-159708571D01*
X100917142Y-159994285D01*
X100917142Y-160422857D01*
X101060000Y-160708571D01*
X101345714Y-160851428D01*
X102917142Y-160851428D01*
M02*
