M48
;DRILL file {KiCad 5.0.2-bee76a0~70~ubuntu16.04.1} date Tue 14 Jan 2020 10:26:22 AM MST
;FORMAT={3:3/ absolute / metric / suppress leading zeros}
FMAT,2
METRIC,TZ
T1C0.400
T2C0.600
T3C0.700
T4C0.800
T5C0.850
T6C0.900
T7C1.000
T8C1.100
%
G90
G05
T1
X106499Y-127000
X108585Y-136525
X115570Y-141605
X117221Y-150876
X118745Y-133985
X119470Y-133278
X121920Y-129540
X124460Y-120015
X124504Y-101288
X124714Y-105918
X126365Y-142240
X126365Y-143510
X129540Y-165100
X132080Y-159258
X132324Y-107007
X133350Y-121920
X133350Y-125095
X133350Y-127635
X133604Y-92964
X134620Y-113030
X135636Y-179324
X135890Y-164497
X139065Y-116840
X141605Y-118110
X141605Y-129540
X142875Y-118110
X142875Y-129540
X143764Y-92964
X144018Y-157734
X144145Y-115570
X144145Y-118745
X144145Y-129540
X144272Y-179324
X145415Y-118872
X145415Y-129540
X145542Y-159221
X146304Y-176784
X146683Y-126257
X146685Y-128270
X146698Y-127257
X147066Y-166370
X147066Y-170180
X148590Y-116840
X149860Y-115697
X151765Y-129445
X151765Y-130445
X151765Y-131445
X153416Y-92964
X153416Y-93980
X153416Y-178308
X153416Y-179324
X158750Y-165100
X159445Y-101135
X159512Y-105918
X160020Y-109275
X161544Y-92964
X161544Y-93980
X162052Y-178308
X162052Y-179324
X163830Y-158750
X163850Y-157500
X168148Y-178308
X168148Y-179324
X168656Y-139192
X169350Y-114517
X169418Y-107188
X170630Y-123080
X170630Y-125620
X170630Y-128160
X170630Y-134112
X170688Y-158242
X170688Y-174752
X171196Y-92964
X171196Y-93980
X171245Y-97585
X173355Y-121920
X175895Y-123190
X178816Y-92964
X178816Y-93980
X179324Y-96520
X179832Y-176784
X179832Y-178308
X179832Y-179324
X181864Y-175768
X187461Y-170044
X188186Y-169337
X188685Y-168275
X189320Y-167005
T3
X162250Y-172490
X123104Y-99887
X123604Y-98387
X125104Y-99887
X126104Y-98387
X127104Y-99887
X128104Y-98387
X129104Y-99887
X130604Y-98387
X131104Y-99887
X141105Y-172490
X141605Y-173990
X143105Y-172490
X144105Y-173990
X145105Y-172490
X146105Y-173990
X147105Y-172490
X148605Y-173990
X149105Y-172490
X154940Y-132842
X97028Y-117729
X99060Y-117729
X158250Y-172490
X158750Y-173990
X160250Y-172490
X161250Y-173990
X163250Y-173990
X164250Y-172490
X165750Y-173990
X166250Y-172490
X175395Y-172490
X175895Y-173990
X177395Y-172490
X178395Y-173990
X140604Y-99887
X141104Y-98387
X179395Y-172490
X180395Y-173990
X181395Y-172490
X182895Y-173990
X183395Y-172490
X123960Y-172490
X124460Y-173990
X125960Y-172490
X126960Y-173990
X127960Y-172490
X128960Y-173990
X129960Y-172490
X131460Y-173990
X131960Y-172490
X158235Y-99925
X158735Y-98425
X142604Y-99887
X143604Y-98387
X144604Y-99887
X145604Y-98387
X146604Y-99887
X148104Y-98387
X148604Y-99887
X154940Y-134874
X160235Y-99925
X161235Y-98425
X162235Y-99925
X163235Y-98425
X164235Y-99925
X165735Y-98425
X166235Y-99925
X175913Y-99900
X176413Y-98400
X177913Y-99900
X178913Y-98400
X179913Y-99900
X180913Y-98400
X181913Y-99900
X183413Y-98400
X183913Y-99900
T4
X101727Y-115761
X101727Y-118261
X159145Y-120540
X159145Y-123080
X159145Y-125620
X166765Y-148480
X139270Y-141609
X166765Y-151020
X166765Y-153560
X153924Y-137414
X156424Y-137414
X145288Y-166370
X145288Y-168870
X139270Y-131449
X139270Y-133989
X139270Y-136529
X139270Y-139069
X159145Y-128160
X159145Y-130700
X159145Y-133240
X159145Y-143400
X159145Y-145940
X159145Y-148480
X139270Y-149229
X159145Y-135780
X159145Y-138320
X159145Y-140860
X146890Y-133989
X166765Y-120540
X146890Y-144149
X159145Y-153560
X166765Y-123080
X139270Y-151769
X159145Y-151020
X139270Y-154309
X146890Y-131449
X166765Y-125620
X166765Y-128160
X166765Y-130700
X139270Y-144149
X139270Y-146689
X146890Y-136529
X146890Y-139069
X134230Y-154309
X136730Y-154309
X166765Y-133240
X166765Y-135780
X166765Y-138320
X166765Y-140860
X166765Y-143400
X146890Y-141609
X166765Y-145940
X129784Y-103238
X146890Y-146689
X146890Y-149229
X146890Y-151769
X175935Y-146558
X178435Y-146558
X127000Y-103388
X127000Y-105888
X154739Y-142341
X154739Y-147241
X153924Y-152146
X156424Y-152146
X146890Y-154309
X175895Y-125730
X175895Y-128270
X175895Y-130810
X175895Y-133350
X175895Y-135890
X175895Y-138430
X175895Y-140970
X175895Y-143510
X183515Y-125730
X183515Y-128270
X183515Y-130810
X183515Y-133350
X183515Y-135890
X183515Y-138430
X183515Y-140970
X183515Y-143510
X161290Y-103545
X132324Y-103238
X161290Y-106045
X161798Y-161290
X161798Y-168910
X164338Y-161290
X164338Y-168910
X166878Y-161290
X166878Y-168910
X169418Y-161290
X169418Y-168910
X171958Y-161290
X171958Y-168910
X174498Y-161290
X174498Y-168910
X177038Y-161290
X177038Y-168910
X129784Y-110858
X132324Y-110858
X134864Y-103238
X134864Y-110858
X137404Y-103238
X137404Y-110858
X139944Y-103238
X139944Y-110858
X142484Y-103238
X142484Y-110858
X145024Y-103238
X145024Y-110858
X127000Y-161290
X127000Y-168910
X129540Y-161290
X129540Y-168910
X132080Y-161290
X132080Y-168910
X134620Y-161290
X134620Y-168910
X137160Y-161290
X137160Y-168910
X139700Y-161290
X139700Y-168910
X142240Y-161290
X142240Y-168910
X180086Y-166370
X180086Y-168870
X120436Y-142621
X164465Y-103505
X164465Y-111125
X122936Y-142621
X167005Y-103505
X167005Y-111125
X169545Y-103505
X169545Y-111125
X172085Y-103505
X172085Y-111125
X174625Y-103505
X174625Y-111125
X177165Y-103505
X177165Y-111125
X179705Y-103505
X179705Y-111125
T5
X94234Y-125095
X94234Y-165735
X112014Y-125095
X112014Y-165735
T6
X129079Y-123745
X136699Y-123745
X129110Y-133989
X136730Y-133989
X150876Y-103124
X150876Y-110744
X118110Y-119380
X118110Y-127000
X129110Y-144149
X136730Y-144149
X154940Y-110744
X123322Y-116439
X123322Y-124059
X129079Y-121245
X183515Y-103505
X183515Y-111125
X104966Y-108268
X112586Y-108268
X136699Y-121245
X148590Y-120396
X156210Y-120396
X120396Y-103124
X120396Y-110744
X186055Y-103505
X186055Y-111125
X129110Y-131449
X136730Y-131449
X129079Y-128905
X136699Y-128905
X154940Y-103124
X156210Y-161290
X156210Y-168910
X183388Y-161290
X183388Y-168910
X122936Y-103124
X122936Y-110744
X129110Y-136529
X136730Y-136529
X121285Y-161290
X121285Y-168910
X104966Y-105918
X112586Y-105918
X157480Y-103124
X157480Y-110744
X158750Y-161290
X158750Y-168910
X129110Y-149229
X136730Y-149229
X123825Y-161290
X123825Y-168910
X115570Y-119380
X115570Y-127000
X120782Y-116439
X120782Y-124059
X151638Y-162306
X151638Y-169926
X129110Y-146689
X136730Y-146689
X115145Y-135229
X122765Y-135229
X148336Y-103124
X148336Y-110744
X129110Y-139069
X136730Y-139069
X149098Y-162306
X149098Y-169926
X185928Y-161290
X185928Y-168910
X115145Y-132689
X122765Y-132689
X129079Y-126405
X136699Y-126405
X129110Y-141609
X136730Y-141609
T7
X170180Y-140716
X170180Y-143256
X170180Y-145796
X170180Y-148336
X170180Y-150876
X107709Y-114012
X107709Y-116552
X113030Y-170815
X113030Y-173355
X113030Y-175895
X154940Y-123825
X154940Y-126365
X154940Y-128905
X110249Y-114012
X110249Y-116552
X112789Y-114012
X112789Y-116552
X115329Y-114012
X115329Y-116552
T8
X95758Y-113030
X98298Y-113030
X100838Y-113030
T2
X154813Y-175880G85X154813Y-177180
G05
X169672Y-175880G85X169672Y-177180
G05
X137182Y-96498G85X137182Y-95198
G05
X152041Y-96498G85X152041Y-95198
G05
X171958Y-175880G85X171958Y-177180
G05
X186817Y-175880G85X186817Y-177180
G05
X119682Y-96498G85X119682Y-95198
G05
X134541Y-96498G85X134541Y-95198
G05
X120523Y-175880G85X120523Y-177180
G05
X135382Y-175880G85X135382Y-177180
G05
X137668Y-175880G85X137668Y-177180
G05
X152527Y-175880G85X152527Y-177180
G05
X154813Y-96535G85X154813Y-95235
G05
X169672Y-96535G85X169672Y-95235
G05
X172491Y-96510G85X172491Y-95210
G05
X187350Y-96510G85X187350Y-95210
G05
T7
X98140Y-171720G85X98140Y-173720
G05
X100140Y-177420G85X102140Y-177420
G05
X104140Y-171720G85X104140Y-173720
G05
T0
M30
