M48
;DRILL file {KiCad 5.0.2-bee76a0~70~ubuntu16.04.1} date Tue 24 Sep 2019 08:48:53 AM MDT
;FORMAT={3:3/ absolute / metric / suppress leading zeros}
FMAT,2
METRIC,TZ
T1C0.400
T2C0.600
T3C0.700
T4C0.800
T5C0.900
T6C1.000
%
G90
G05
T1
X79243Y-90937
X82613Y-102933
X86995Y-70485
X87159Y-78740
X87159Y-81026
X87878Y-73660
X88392Y-124968
X89955Y-119380
X90750Y-69500
X94996Y-121412
T3
X96746Y-109000
X98778Y-109000
X96652Y-137668
X98552Y-137668
X88385Y-65000
X88885Y-63500
X90385Y-65000
X91385Y-63500
X92385Y-65000
X93385Y-63500
X94385Y-65000
X95885Y-63500
X96385Y-65000
X80650Y-67945
X82550Y-67945
T4
X85630Y-88730
X85630Y-91270
X85630Y-93810
X85630Y-96350
X85630Y-98890
X85630Y-101430
X85630Y-103970
X85630Y-106510
X85630Y-109050
X85630Y-111590
X85630Y-114130
X85630Y-116670
X85630Y-119210
X85630Y-121750
X93250Y-88730
X93250Y-91270
X93250Y-93810
X93250Y-96350
X93250Y-98890
X93250Y-101430
X93250Y-103970
X93250Y-106510
X93250Y-109050
X93250Y-111590
X93250Y-114130
X93250Y-116670
X93250Y-119210
X93250Y-121750
X97450Y-94100
X97450Y-99000
X96450Y-89250
X98950Y-89250
X96450Y-103750
X98950Y-103750
T5
X85725Y-76200
X85725Y-83820
X91000Y-77079
X91000Y-78730
X91000Y-80381
X83185Y-77470
X83185Y-85090
X99500Y-78180
X99500Y-85800
X91000Y-71579
X91000Y-73230
X91000Y-74881
X85880Y-68000
X93500Y-68000
X81500Y-129380
X81500Y-137000
X94400Y-78180
X94400Y-85800
X81500Y-126500
X97000Y-78180
X97000Y-85800
X80645Y-81280
X80645Y-88900
X98500Y-125500
X98500Y-133120
X91000Y-82579
X91000Y-84230
X91000Y-85881
X81500Y-116120
X81500Y-118880
X94592Y-73500
X96243Y-73500
X81500Y-108500
X86000Y-125000
X93620Y-125000
X97894Y-73500
X99545Y-73500
T6
X88500Y-144000
X91040Y-144000
X99000Y-116420
X99000Y-118960
X99000Y-121500
X85700Y-133500
X93300Y-133500
X80500Y-94840
X80500Y-97380
X80500Y-99920
X80500Y-102460
X80500Y-105000
T2
X84963Y-61610G85X84963Y-60310
G05
X99822Y-61610G85X99822Y-60310
G05
T0
M30
