G04 #@! TF.GenerationSoftware,KiCad,Pcbnew,5.0.2-bee76a0~70~ubuntu16.04.1*
G04 #@! TF.CreationDate,2019-09-24T08:49:17-06:00*
G04 #@! TF.ProjectId,soil_sensor_kicad_tht,736f696c-5f73-4656-9e73-6f725f6b6963,rev?*
G04 #@! TF.SameCoordinates,Original*
G04 #@! TF.FileFunction,Legend,Top*
G04 #@! TF.FilePolarity,Positive*
%FSLAX46Y46*%
G04 Gerber Fmt 4.6, Leading zero omitted, Abs format (unit mm)*
G04 Created by KiCad (PCBNEW 5.0.2-bee76a0~70~ubuntu16.04.1) date Tue 24 Sep 2019 08:49:17 AM MDT*
%MOMM*%
%LPD*%
G01*
G04 APERTURE LIST*
%ADD10C,0.150000*%
%ADD11C,0.200000*%
%ADD12C,0.120000*%
%ADD13C,0.100000*%
%ADD14C,0.130000*%
G04 APERTURE END LIST*
D10*
X83161904Y-104600000D02*
X83066666Y-104552380D01*
X82923809Y-104552380D01*
X82780952Y-104600000D01*
X82685714Y-104695238D01*
X82638095Y-104790476D01*
X82590476Y-104980952D01*
X82590476Y-105123809D01*
X82638095Y-105314285D01*
X82685714Y-105409523D01*
X82780952Y-105504761D01*
X82923809Y-105552380D01*
X83019047Y-105552380D01*
X83161904Y-105504761D01*
X83209523Y-105457142D01*
X83209523Y-105123809D01*
X83019047Y-105123809D01*
X83109523Y-102757142D02*
X83061904Y-102804761D01*
X82919047Y-102852380D01*
X82823809Y-102852380D01*
X82680952Y-102804761D01*
X82585714Y-102709523D01*
X82538095Y-102614285D01*
X82490476Y-102423809D01*
X82490476Y-102280952D01*
X82538095Y-102090476D01*
X82585714Y-101995238D01*
X82680952Y-101900000D01*
X82823809Y-101852380D01*
X82919047Y-101852380D01*
X83061904Y-101900000D01*
X83109523Y-101947619D01*
X83538095Y-102852380D02*
X83538095Y-101852380D01*
X84109523Y-102852380D02*
X83680952Y-102280952D01*
X84109523Y-101852380D02*
X83538095Y-102423809D01*
X82628571Y-100352380D02*
X82628571Y-99352380D01*
X82961904Y-100066666D01*
X83295238Y-99352380D01*
X83295238Y-100352380D01*
X83771428Y-100352380D02*
X83771428Y-99352380D01*
X82642857Y-97952380D02*
X82642857Y-96952380D01*
X82976190Y-97666666D01*
X83309523Y-96952380D01*
X83309523Y-97952380D01*
X83976190Y-96952380D02*
X84166666Y-96952380D01*
X84261904Y-97000000D01*
X84357142Y-97095238D01*
X84404761Y-97285714D01*
X84404761Y-97619047D01*
X84357142Y-97809523D01*
X84261904Y-97904761D01*
X84166666Y-97952380D01*
X83976190Y-97952380D01*
X83880952Y-97904761D01*
X83785714Y-97809523D01*
X83738095Y-97619047D01*
X83738095Y-97285714D01*
X83785714Y-97095238D01*
X83880952Y-97000000D01*
X83976190Y-96952380D01*
D11*
X96261904Y-121000000D02*
X96166666Y-120952380D01*
X96023809Y-120952380D01*
X95880952Y-121000000D01*
X95785714Y-121095238D01*
X95738095Y-121190476D01*
X95690476Y-121380952D01*
X95690476Y-121523809D01*
X95738095Y-121714285D01*
X95785714Y-121809523D01*
X95880952Y-121904761D01*
X96023809Y-121952380D01*
X96119047Y-121952380D01*
X96261904Y-121904761D01*
X96309523Y-121857142D01*
X96309523Y-121523809D01*
X96119047Y-121523809D01*
X95833333Y-119452380D02*
X95500000Y-118976190D01*
X95261904Y-119452380D02*
X95261904Y-118452380D01*
X95642857Y-118452380D01*
X95738095Y-118500000D01*
X95785714Y-118547619D01*
X95833333Y-118642857D01*
X95833333Y-118785714D01*
X95785714Y-118880952D01*
X95738095Y-118928571D01*
X95642857Y-118976190D01*
X95261904Y-118976190D01*
X96166666Y-118452380D02*
X96833333Y-119452380D01*
X96833333Y-118452380D02*
X96166666Y-119452380D01*
D10*
X79904761Y-124404761D02*
X79952380Y-124261904D01*
X79952380Y-124023809D01*
X79904761Y-123928571D01*
X79857142Y-123880952D01*
X79761904Y-123833333D01*
X79666666Y-123833333D01*
X79571428Y-123880952D01*
X79523809Y-123928571D01*
X79476190Y-124023809D01*
X79428571Y-124214285D01*
X79380952Y-124309523D01*
X79333333Y-124357142D01*
X79238095Y-124404761D01*
X79142857Y-124404761D01*
X79047619Y-124357142D01*
X79000000Y-124309523D01*
X78952380Y-124214285D01*
X78952380Y-123976190D01*
X79000000Y-123833333D01*
X79904761Y-123023809D02*
X79952380Y-123119047D01*
X79952380Y-123309523D01*
X79904761Y-123404761D01*
X79809523Y-123452380D01*
X79428571Y-123452380D01*
X79333333Y-123404761D01*
X79285714Y-123309523D01*
X79285714Y-123119047D01*
X79333333Y-123023809D01*
X79428571Y-122976190D01*
X79523809Y-122976190D01*
X79619047Y-123452380D01*
X79285714Y-122547619D02*
X79952380Y-122547619D01*
X79380952Y-122547619D02*
X79333333Y-122500000D01*
X79285714Y-122404761D01*
X79285714Y-122261904D01*
X79333333Y-122166666D01*
X79428571Y-122119047D01*
X79952380Y-122119047D01*
X79904761Y-121690476D02*
X79952380Y-121595238D01*
X79952380Y-121404761D01*
X79904761Y-121309523D01*
X79809523Y-121261904D01*
X79761904Y-121261904D01*
X79666666Y-121309523D01*
X79619047Y-121404761D01*
X79619047Y-121547619D01*
X79571428Y-121642857D01*
X79476190Y-121690476D01*
X79428571Y-121690476D01*
X79333333Y-121642857D01*
X79285714Y-121547619D01*
X79285714Y-121404761D01*
X79333333Y-121309523D01*
X79952380Y-120833333D02*
X79285714Y-120833333D01*
X78952380Y-120833333D02*
X79000000Y-120880952D01*
X79047619Y-120833333D01*
X79000000Y-120785714D01*
X78952380Y-120833333D01*
X79047619Y-120833333D01*
X79571428Y-120357142D02*
X79571428Y-119595238D01*
X79285714Y-119119047D02*
X80285714Y-119119047D01*
X79333333Y-119119047D02*
X79285714Y-119023809D01*
X79285714Y-118833333D01*
X79333333Y-118738095D01*
X79380952Y-118690476D01*
X79476190Y-118642857D01*
X79761904Y-118642857D01*
X79857142Y-118690476D01*
X79904761Y-118738095D01*
X79952380Y-118833333D01*
X79952380Y-119023809D01*
X79904761Y-119119047D01*
X79952380Y-118071428D02*
X79904761Y-118166666D01*
X79857142Y-118214285D01*
X79761904Y-118261904D01*
X79476190Y-118261904D01*
X79380952Y-118214285D01*
X79333333Y-118166666D01*
X79285714Y-118071428D01*
X79285714Y-117928571D01*
X79333333Y-117833333D01*
X79380952Y-117785714D01*
X79476190Y-117738095D01*
X79761904Y-117738095D01*
X79857142Y-117785714D01*
X79904761Y-117833333D01*
X79952380Y-117928571D01*
X79952380Y-118071428D01*
X79285714Y-117452380D02*
X79285714Y-117071428D01*
X78952380Y-117309523D02*
X79809523Y-117309523D01*
X79904761Y-117261904D01*
X79952380Y-117166666D01*
X79952380Y-117071428D01*
X79857142Y-116738095D02*
X79904761Y-116690476D01*
X79952380Y-116738095D01*
X79904761Y-116785714D01*
X79857142Y-116738095D01*
X79952380Y-116738095D01*
X79904761Y-115833333D02*
X79952380Y-115928571D01*
X79952380Y-116119047D01*
X79904761Y-116214285D01*
X79857142Y-116261904D01*
X79761904Y-116309523D01*
X79476190Y-116309523D01*
X79380952Y-116261904D01*
X79333333Y-116214285D01*
X79285714Y-116119047D01*
X79285714Y-115928571D01*
X79333333Y-115833333D01*
X79952380Y-115261904D02*
X79904761Y-115357142D01*
X79857142Y-115404761D01*
X79761904Y-115452380D01*
X79476190Y-115452380D01*
X79380952Y-115404761D01*
X79333333Y-115357142D01*
X79285714Y-115261904D01*
X79285714Y-115119047D01*
X79333333Y-115023809D01*
X79380952Y-114976190D01*
X79476190Y-114928571D01*
X79761904Y-114928571D01*
X79857142Y-114976190D01*
X79904761Y-115023809D01*
X79952380Y-115119047D01*
X79952380Y-115261904D01*
X79952380Y-114500000D02*
X79285714Y-114500000D01*
X79380952Y-114500000D02*
X79333333Y-114452380D01*
X79285714Y-114357142D01*
X79285714Y-114214285D01*
X79333333Y-114119047D01*
X79428571Y-114071428D01*
X79952380Y-114071428D01*
X79428571Y-114071428D02*
X79333333Y-114023809D01*
X79285714Y-113928571D01*
X79285714Y-113785714D01*
X79333333Y-113690476D01*
X79428571Y-113642857D01*
X79952380Y-113642857D01*
D11*
X79666666Y-133357142D02*
X79666666Y-132880952D01*
X79952380Y-133452380D02*
X78952380Y-133119047D01*
X79952380Y-132785714D01*
X79952380Y-132452380D02*
X79285714Y-132452380D01*
X79476190Y-132452380D02*
X79380952Y-132404761D01*
X79333333Y-132357142D01*
X79285714Y-132261904D01*
X79285714Y-132166666D01*
X79285714Y-131976190D02*
X79285714Y-131595238D01*
X78952380Y-131833333D02*
X79809523Y-131833333D01*
X79904761Y-131785714D01*
X79952380Y-131690476D01*
X79952380Y-131595238D01*
X79952380Y-131119047D02*
X79904761Y-131214285D01*
X79857142Y-131261904D01*
X79761904Y-131309523D01*
X79476190Y-131309523D01*
X79380952Y-131261904D01*
X79333333Y-131214285D01*
X79285714Y-131119047D01*
X79285714Y-130976190D01*
X79333333Y-130880952D01*
X79380952Y-130833333D01*
X79476190Y-130785714D01*
X79761904Y-130785714D01*
X79857142Y-130833333D01*
X79904761Y-130880952D01*
X79952380Y-130976190D01*
X79952380Y-131119047D01*
X79952380Y-130214285D02*
X79904761Y-130309523D01*
X79809523Y-130357142D01*
X78952380Y-130357142D01*
X79952380Y-129404761D02*
X79428571Y-129404761D01*
X79333333Y-129452380D01*
X79285714Y-129547619D01*
X79285714Y-129738095D01*
X79333333Y-129833333D01*
X79904761Y-129404761D02*
X79952380Y-129500000D01*
X79952380Y-129738095D01*
X79904761Y-129833333D01*
X79809523Y-129880952D01*
X79714285Y-129880952D01*
X79619047Y-129833333D01*
X79571428Y-129738095D01*
X79571428Y-129500000D01*
X79523809Y-129404761D01*
X79952380Y-128928571D02*
X78952380Y-128928571D01*
X79333333Y-128928571D02*
X79285714Y-128833333D01*
X79285714Y-128642857D01*
X79333333Y-128547619D01*
X79380952Y-128500000D01*
X79476190Y-128452380D01*
X79761904Y-128452380D01*
X79857142Y-128500000D01*
X79904761Y-128547619D01*
X79952380Y-128642857D01*
X79952380Y-128833333D01*
X79904761Y-128928571D01*
X79904761Y-128071428D02*
X79952380Y-127976190D01*
X79952380Y-127785714D01*
X79904761Y-127690476D01*
X79809523Y-127642857D01*
X79761904Y-127642857D01*
X79666666Y-127690476D01*
X79619047Y-127785714D01*
X79619047Y-127928571D01*
X79571428Y-128023809D01*
X79476190Y-128071428D01*
X79428571Y-128071428D01*
X79333333Y-128023809D01*
X79285714Y-127928571D01*
X79285714Y-127785714D01*
X79333333Y-127690476D01*
X82738980Y-64783933D02*
X83548504Y-64783933D01*
X83643742Y-64736314D01*
X83691361Y-64688695D01*
X83738980Y-64593457D01*
X83738980Y-64402980D01*
X83691361Y-64307742D01*
X83643742Y-64260123D01*
X83548504Y-64212504D01*
X82738980Y-64212504D01*
X83691361Y-63783933D02*
X83738980Y-63641076D01*
X83738980Y-63402980D01*
X83691361Y-63307742D01*
X83643742Y-63260123D01*
X83548504Y-63212504D01*
X83453266Y-63212504D01*
X83358028Y-63260123D01*
X83310409Y-63307742D01*
X83262790Y-63402980D01*
X83215171Y-63593457D01*
X83167552Y-63688695D01*
X83119933Y-63736314D01*
X83024695Y-63783933D01*
X82929457Y-63783933D01*
X82834219Y-63736314D01*
X82786600Y-63688695D01*
X82738980Y-63593457D01*
X82738980Y-63355361D01*
X82786600Y-63212504D01*
X83215171Y-62450600D02*
X83262790Y-62307742D01*
X83310409Y-62260123D01*
X83405647Y-62212504D01*
X83548504Y-62212504D01*
X83643742Y-62260123D01*
X83691361Y-62307742D01*
X83738980Y-62402980D01*
X83738980Y-62783933D01*
X82738980Y-62783933D01*
X82738980Y-62450600D01*
X82786600Y-62355361D01*
X82834219Y-62307742D01*
X82929457Y-62260123D01*
X83024695Y-62260123D01*
X83119933Y-62307742D01*
X83167552Y-62355361D01*
X83215171Y-62450600D01*
X83215171Y-62783933D01*
X82738980Y-61117266D02*
X82738980Y-60498219D01*
X83119933Y-60831552D01*
X83119933Y-60688695D01*
X83167552Y-60593457D01*
X83215171Y-60545838D01*
X83310409Y-60498219D01*
X83548504Y-60498219D01*
X83643742Y-60545838D01*
X83691361Y-60593457D01*
X83738980Y-60688695D01*
X83738980Y-60974409D01*
X83691361Y-61069647D01*
X83643742Y-61117266D01*
X83643742Y-60069647D02*
X83691361Y-60022028D01*
X83738980Y-60069647D01*
X83691361Y-60117266D01*
X83643742Y-60069647D01*
X83738980Y-60069647D01*
X82738980Y-59402980D02*
X82738980Y-59307742D01*
X82786600Y-59212504D01*
X82834219Y-59164885D01*
X82929457Y-59117266D01*
X83119933Y-59069647D01*
X83358028Y-59069647D01*
X83548504Y-59117266D01*
X83643742Y-59164885D01*
X83691361Y-59212504D01*
X83738980Y-59307742D01*
X83738980Y-59402980D01*
X83691361Y-59498219D01*
X83643742Y-59545838D01*
X83548504Y-59593457D01*
X83358028Y-59641076D01*
X83119933Y-59641076D01*
X82929457Y-59593457D01*
X82834219Y-59545838D01*
X82786600Y-59498219D01*
X82738980Y-59402980D01*
X95238095Y-115952380D02*
X95809523Y-115952380D01*
X95523809Y-116952380D02*
X95523809Y-115952380D01*
X96047619Y-115952380D02*
X96714285Y-116952380D01*
X96714285Y-115952380D02*
X96047619Y-116952380D01*
D10*
X83209523Y-95452380D02*
X82876190Y-94976190D01*
X82638095Y-95452380D02*
X82638095Y-94452380D01*
X83019047Y-94452380D01*
X83114285Y-94500000D01*
X83161904Y-94547619D01*
X83209523Y-94642857D01*
X83209523Y-94785714D01*
X83161904Y-94880952D01*
X83114285Y-94928571D01*
X83019047Y-94976190D01*
X82638095Y-94976190D01*
D12*
G04 #@! TO.C,R7*
X99500000Y-79120000D02*
X99500000Y-80070000D01*
X99500000Y-84860000D02*
X99500000Y-83910000D01*
X98580000Y-80070000D02*
X98580000Y-83910000D01*
X100420000Y-80070000D02*
X98580000Y-80070000D01*
X100420000Y-83910000D02*
X100420000Y-80070000D01*
X98580000Y-83910000D02*
X100420000Y-83910000D01*
G04 #@! TO.C,R6*
X96080000Y-83910000D02*
X97920000Y-83910000D01*
X97920000Y-83910000D02*
X97920000Y-80070000D01*
X97920000Y-80070000D02*
X96080000Y-80070000D01*
X96080000Y-80070000D02*
X96080000Y-83910000D01*
X97000000Y-84860000D02*
X97000000Y-83910000D01*
X97000000Y-79120000D02*
X97000000Y-80070000D01*
G04 #@! TO.C,R4*
X92680000Y-125000000D02*
X91730000Y-125000000D01*
X86940000Y-125000000D02*
X87890000Y-125000000D01*
X91730000Y-124080000D02*
X87890000Y-124080000D01*
X91730000Y-125920000D02*
X91730000Y-124080000D01*
X87890000Y-125920000D02*
X91730000Y-125920000D01*
X87890000Y-124080000D02*
X87890000Y-125920000D01*
G04 #@! TO.C,R3*
X82420000Y-110390000D02*
X80580000Y-110390000D01*
X80580000Y-110390000D02*
X80580000Y-114230000D01*
X80580000Y-114230000D02*
X82420000Y-114230000D01*
X82420000Y-114230000D02*
X82420000Y-110390000D01*
X81500000Y-109440000D02*
X81500000Y-110390000D01*
X81500000Y-115180000D02*
X81500000Y-114230000D01*
G04 #@! TO.C,R2*
X81500000Y-119820000D02*
X81500000Y-120770000D01*
X81500000Y-125560000D02*
X81500000Y-124610000D01*
X80580000Y-120770000D02*
X80580000Y-124610000D01*
X82420000Y-120770000D02*
X80580000Y-120770000D01*
X82420000Y-124610000D02*
X82420000Y-120770000D01*
X80580000Y-124610000D02*
X82420000Y-124610000D01*
G04 #@! TO.C,R5*
X93480000Y-83910000D02*
X95320000Y-83910000D01*
X95320000Y-83910000D02*
X95320000Y-80070000D01*
X95320000Y-80070000D02*
X93480000Y-80070000D01*
X93480000Y-80070000D02*
X93480000Y-83910000D01*
X94400000Y-84860000D02*
X94400000Y-83910000D01*
X94400000Y-79120000D02*
X94400000Y-80070000D01*
G04 #@! TO.C,R8*
X80645000Y-82220000D02*
X80645000Y-83170000D01*
X80645000Y-87960000D02*
X80645000Y-87010000D01*
X79725000Y-83170000D02*
X79725000Y-87010000D01*
X81565000Y-83170000D02*
X79725000Y-83170000D01*
X81565000Y-87010000D02*
X81565000Y-83170000D01*
X79725000Y-87010000D02*
X81565000Y-87010000D01*
G04 #@! TO.C,R9*
X82265000Y-83200000D02*
X84105000Y-83200000D01*
X84105000Y-83200000D02*
X84105000Y-79360000D01*
X84105000Y-79360000D02*
X82265000Y-79360000D01*
X82265000Y-79360000D02*
X82265000Y-83200000D01*
X83185000Y-84150000D02*
X83185000Y-83200000D01*
X83185000Y-78410000D02*
X83185000Y-79360000D01*
G04 #@! TO.C,R10*
X85725000Y-77140000D02*
X85725000Y-78090000D01*
X85725000Y-82880000D02*
X85725000Y-81930000D01*
X84805000Y-78090000D02*
X84805000Y-81930000D01*
X86645000Y-78090000D02*
X84805000Y-78090000D01*
X86645000Y-81930000D02*
X86645000Y-78090000D01*
X84805000Y-81930000D02*
X86645000Y-81930000D01*
G04 #@! TO.C,R11*
X99420000Y-127390000D02*
X97580000Y-127390000D01*
X97580000Y-127390000D02*
X97580000Y-131230000D01*
X97580000Y-131230000D02*
X99420000Y-131230000D01*
X99420000Y-131230000D02*
X99420000Y-127390000D01*
X98500000Y-126440000D02*
X98500000Y-127390000D01*
X98500000Y-132180000D02*
X98500000Y-131230000D01*
G04 #@! TO.C,R12*
X81500000Y-130320000D02*
X81500000Y-131270000D01*
X81500000Y-136060000D02*
X81500000Y-135110000D01*
X80580000Y-131270000D02*
X80580000Y-135110000D01*
X82420000Y-131270000D02*
X80580000Y-131270000D01*
X82420000Y-135110000D02*
X82420000Y-131270000D01*
X80580000Y-135110000D02*
X82420000Y-135110000D01*
G04 #@! TO.C,R13*
X91610000Y-68920000D02*
X91610000Y-67080000D01*
X91610000Y-67080000D02*
X87770000Y-67080000D01*
X87770000Y-67080000D02*
X87770000Y-68920000D01*
X87770000Y-68920000D02*
X91610000Y-68920000D01*
X92560000Y-68000000D02*
X91610000Y-68000000D01*
X86820000Y-68000000D02*
X87770000Y-68000000D01*
G04 #@! TO.C,Q1*
X92850000Y-86030000D02*
X92850000Y-82430000D01*
X92838478Y-86068478D02*
G75*
G02X88400000Y-84230000I-1838478J1838478D01*
G01*
X92838478Y-82391522D02*
G75*
G03X88400000Y-84230000I-1838478J-1838478D01*
G01*
G04 #@! TO.C,Q2*
X92838478Y-76891522D02*
G75*
G03X88400000Y-78730000I-1838478J-1838478D01*
G01*
X92838478Y-80568478D02*
G75*
G02X88400000Y-78730000I-1838478J1838478D01*
G01*
X92850000Y-80530000D02*
X92850000Y-76930000D01*
G04 #@! TO.C,Q3*
X92850000Y-75030000D02*
X92850000Y-71430000D01*
X92838478Y-75068478D02*
G75*
G02X88400000Y-73230000I-1838478J1838478D01*
G01*
X92838478Y-71391522D02*
G75*
G03X88400000Y-73230000I-1838478J-1838478D01*
G01*
G04 #@! TO.C,C1*
X99870000Y-109000000D02*
G75*
G03X99870000Y-109000000I-2120000J0D01*
G01*
X97750000Y-109840000D02*
X97750000Y-111080000D01*
X97750000Y-106920000D02*
X97750000Y-108160000D01*
X97790000Y-109840000D02*
X97790000Y-111080000D01*
X97790000Y-106920000D02*
X97790000Y-108160000D01*
X97830000Y-109840000D02*
X97830000Y-111079000D01*
X97830000Y-106921000D02*
X97830000Y-108160000D01*
X97870000Y-106923000D02*
X97870000Y-108160000D01*
X97870000Y-109840000D02*
X97870000Y-111077000D01*
X97910000Y-106926000D02*
X97910000Y-108160000D01*
X97910000Y-109840000D02*
X97910000Y-111074000D01*
X97950000Y-106929000D02*
X97950000Y-108160000D01*
X97950000Y-109840000D02*
X97950000Y-111071000D01*
X97990000Y-106933000D02*
X97990000Y-108160000D01*
X97990000Y-109840000D02*
X97990000Y-111067000D01*
X98030000Y-106938000D02*
X98030000Y-108160000D01*
X98030000Y-109840000D02*
X98030000Y-111062000D01*
X98070000Y-106944000D02*
X98070000Y-108160000D01*
X98070000Y-109840000D02*
X98070000Y-111056000D01*
X98110000Y-106950000D02*
X98110000Y-108160000D01*
X98110000Y-109840000D02*
X98110000Y-111050000D01*
X98150000Y-106958000D02*
X98150000Y-108160000D01*
X98150000Y-109840000D02*
X98150000Y-111042000D01*
X98190000Y-106966000D02*
X98190000Y-108160000D01*
X98190000Y-109840000D02*
X98190000Y-111034000D01*
X98230000Y-106975000D02*
X98230000Y-108160000D01*
X98230000Y-109840000D02*
X98230000Y-111025000D01*
X98270000Y-106984000D02*
X98270000Y-108160000D01*
X98270000Y-109840000D02*
X98270000Y-111016000D01*
X98310000Y-106995000D02*
X98310000Y-108160000D01*
X98310000Y-109840000D02*
X98310000Y-111005000D01*
X98350000Y-107006000D02*
X98350000Y-108160000D01*
X98350000Y-109840000D02*
X98350000Y-110994000D01*
X98390000Y-107018000D02*
X98390000Y-108160000D01*
X98390000Y-109840000D02*
X98390000Y-110982000D01*
X98430000Y-107032000D02*
X98430000Y-108160000D01*
X98430000Y-109840000D02*
X98430000Y-110968000D01*
X98471000Y-107046000D02*
X98471000Y-108160000D01*
X98471000Y-109840000D02*
X98471000Y-110954000D01*
X98511000Y-107060000D02*
X98511000Y-108160000D01*
X98511000Y-109840000D02*
X98511000Y-110940000D01*
X98551000Y-107076000D02*
X98551000Y-108160000D01*
X98551000Y-109840000D02*
X98551000Y-110924000D01*
X98591000Y-107093000D02*
X98591000Y-108160000D01*
X98591000Y-109840000D02*
X98591000Y-110907000D01*
X98631000Y-107111000D02*
X98631000Y-108160000D01*
X98631000Y-109840000D02*
X98631000Y-110889000D01*
X98671000Y-107130000D02*
X98671000Y-108160000D01*
X98671000Y-109840000D02*
X98671000Y-110870000D01*
X98711000Y-107149000D02*
X98711000Y-108160000D01*
X98711000Y-109840000D02*
X98711000Y-110851000D01*
X98751000Y-107170000D02*
X98751000Y-108160000D01*
X98751000Y-109840000D02*
X98751000Y-110830000D01*
X98791000Y-107192000D02*
X98791000Y-108160000D01*
X98791000Y-109840000D02*
X98791000Y-110808000D01*
X98831000Y-107215000D02*
X98831000Y-108160000D01*
X98831000Y-109840000D02*
X98831000Y-110785000D01*
X98871000Y-107240000D02*
X98871000Y-108160000D01*
X98871000Y-109840000D02*
X98871000Y-110760000D01*
X98911000Y-107265000D02*
X98911000Y-108160000D01*
X98911000Y-109840000D02*
X98911000Y-110735000D01*
X98951000Y-107292000D02*
X98951000Y-108160000D01*
X98951000Y-109840000D02*
X98951000Y-110708000D01*
X98991000Y-107320000D02*
X98991000Y-108160000D01*
X98991000Y-109840000D02*
X98991000Y-110680000D01*
X99031000Y-107350000D02*
X99031000Y-108160000D01*
X99031000Y-109840000D02*
X99031000Y-110650000D01*
X99071000Y-107381000D02*
X99071000Y-108160000D01*
X99071000Y-109840000D02*
X99071000Y-110619000D01*
X99111000Y-107413000D02*
X99111000Y-108160000D01*
X99111000Y-109840000D02*
X99111000Y-110587000D01*
X99151000Y-107448000D02*
X99151000Y-108160000D01*
X99151000Y-109840000D02*
X99151000Y-110552000D01*
X99191000Y-107484000D02*
X99191000Y-108160000D01*
X99191000Y-109840000D02*
X99191000Y-110516000D01*
X99231000Y-107522000D02*
X99231000Y-108160000D01*
X99231000Y-109840000D02*
X99231000Y-110478000D01*
X99271000Y-107562000D02*
X99271000Y-108160000D01*
X99271000Y-109840000D02*
X99271000Y-110438000D01*
X99311000Y-107604000D02*
X99311000Y-108160000D01*
X99311000Y-109840000D02*
X99311000Y-110396000D01*
X99591000Y-107987000D02*
X99591000Y-110013000D01*
X99631000Y-108060000D02*
X99631000Y-109940000D01*
X99751000Y-108336000D02*
X99751000Y-109664000D01*
X99791000Y-108463000D02*
X99791000Y-109537000D01*
X99831000Y-108630000D02*
X99831000Y-109370000D01*
X94968000Y-107603000D02*
X95368000Y-107603000D01*
X95158500Y-107412500D02*
X95158500Y-107812500D01*
D13*
X99413000Y-108174500D02*
X99413000Y-107730000D01*
X99349500Y-108174500D02*
X99349500Y-107793500D01*
X99349500Y-109825500D02*
X99349500Y-110270000D01*
X99413000Y-109825500D02*
X99413000Y-110206500D01*
X99476500Y-108174500D02*
X99476500Y-107857000D01*
X99540000Y-108174500D02*
X99540000Y-107857000D01*
X99476500Y-109825500D02*
X99476500Y-110143000D01*
X99540000Y-109825500D02*
X99540000Y-110079500D01*
D12*
G04 #@! TO.C,D1*
X99792815Y-72419173D02*
G75*
G03X94445000Y-71955170I-2787815J-1080827D01*
G01*
X99792815Y-74580827D02*
G75*
G02X94445000Y-75044830I-2787815J1080827D01*
G01*
X99259479Y-72419571D02*
G75*
G03X94750316Y-72420000I-2254479J-1080429D01*
G01*
X99259479Y-74580429D02*
G75*
G02X94750316Y-74580000I-2254479J1080429D01*
G01*
X94445000Y-71955000D02*
X94445000Y-72420000D01*
X94445000Y-74580000D02*
X94445000Y-75045000D01*
G04 #@! TO.C,J4*
X99345000Y-66060000D02*
X99345000Y-65350000D01*
X85425000Y-66060000D02*
X85425000Y-65350000D01*
X99345000Y-66060000D02*
X85425000Y-66060000D01*
X99345000Y-51690000D02*
X99345000Y-54800000D01*
X85425000Y-51690000D02*
X85425000Y-54800000D01*
X99345000Y-51690000D02*
X85425000Y-51690000D01*
G04 #@! TO.C,U2*
X84720000Y-70780000D02*
X82920000Y-70780000D01*
X82920000Y-74000000D02*
X85370000Y-74000000D01*
G04 #@! TO.C,BZ1*
X95600000Y-133500000D02*
G75*
G03X95600000Y-133500000I-6100000J0D01*
G01*
G04 #@! TO.C,J1*
X92370000Y-145330000D02*
X92370000Y-142670000D01*
X89770000Y-145330000D02*
X92370000Y-145330000D01*
X89770000Y-142670000D02*
X92370000Y-142670000D01*
X89770000Y-145330000D02*
X89770000Y-142670000D01*
X88500000Y-145330000D02*
X87170000Y-145330000D01*
X87170000Y-145330000D02*
X87170000Y-144000000D01*
G04 #@! TO.C,J2*
X100330000Y-115090000D02*
X97670000Y-115090000D01*
X100330000Y-120230000D02*
X100330000Y-115090000D01*
X97670000Y-120230000D02*
X97670000Y-115090000D01*
X100330000Y-120230000D02*
X97670000Y-120230000D01*
X100330000Y-121500000D02*
X100330000Y-122830000D01*
X100330000Y-122830000D02*
X99000000Y-122830000D01*
G04 #@! TO.C,J3*
X81830000Y-93510000D02*
X79170000Y-93510000D01*
X81830000Y-103730000D02*
X81830000Y-93510000D01*
X79170000Y-103730000D02*
X79170000Y-93510000D01*
X81830000Y-103730000D02*
X79170000Y-103730000D01*
X81830000Y-105000000D02*
X81830000Y-106330000D01*
X81830000Y-106330000D02*
X80500000Y-106330000D01*
G04 #@! TO.C,C2*
X97071000Y-104670000D02*
X98329000Y-104670000D01*
X97071000Y-102830000D02*
X98329000Y-102830000D01*
G04 #@! TO.C,C3*
X98329000Y-90170000D02*
X97071000Y-90170000D01*
X98329000Y-88330000D02*
X97071000Y-88330000D01*
G04 #@! TO.C,Y1*
X94925000Y-99675000D02*
X94925000Y-93425000D01*
X99975000Y-99675000D02*
X99975000Y-93425000D01*
X99975000Y-99675000D02*
G75*
G02X94925000Y-99675000I-2525000J0D01*
G01*
X99975000Y-93425000D02*
G75*
G03X94925000Y-93425000I-2525000J0D01*
G01*
G04 #@! TO.C,U1*
X88440000Y-123080000D02*
G75*
G02X90440000Y-123080000I1000000J0D01*
G01*
X90440000Y-123080000D02*
X92090000Y-123080000D01*
X92090000Y-123080000D02*
X92090000Y-87400000D01*
X92090000Y-87400000D02*
X86790000Y-87400000D01*
X86790000Y-87400000D02*
X86790000Y-123080000D01*
X86790000Y-123080000D02*
X88440000Y-123080000D01*
G04 #@! TO.C,R1*
X82229905Y-67195641D02*
G75*
G02X82132867Y-68645000I320095J-749359D01*
G01*
G04 #@! TO.C,TH1*
X98231905Y-136918641D02*
G75*
G02X98134867Y-138368000I320095J-749359D01*
G01*
G04 #@! TO.C,R7*
D10*
X99952380Y-83109047D02*
X99476190Y-83442380D01*
X99952380Y-83680476D02*
X98952380Y-83680476D01*
X98952380Y-83299523D01*
X99000000Y-83204285D01*
X99047619Y-83156666D01*
X99142857Y-83109047D01*
X99285714Y-83109047D01*
X99380952Y-83156666D01*
X99428571Y-83204285D01*
X99476190Y-83299523D01*
X99476190Y-83680476D01*
X98952380Y-82775714D02*
X98952380Y-82156666D01*
X99333333Y-82490000D01*
X99333333Y-82347142D01*
X99380952Y-82251904D01*
X99428571Y-82204285D01*
X99523809Y-82156666D01*
X99761904Y-82156666D01*
X99857142Y-82204285D01*
X99904761Y-82251904D01*
X99952380Y-82347142D01*
X99952380Y-82632857D01*
X99904761Y-82728095D01*
X99857142Y-82775714D01*
X99952380Y-81680476D02*
X99952380Y-81490000D01*
X99904761Y-81394761D01*
X99857142Y-81347142D01*
X99714285Y-81251904D01*
X99523809Y-81204285D01*
X99142857Y-81204285D01*
X99047619Y-81251904D01*
X99000000Y-81299523D01*
X98952380Y-81394761D01*
X98952380Y-81585238D01*
X99000000Y-81680476D01*
X99047619Y-81728095D01*
X99142857Y-81775714D01*
X99380952Y-81775714D01*
X99476190Y-81728095D01*
X99523809Y-81680476D01*
X99571428Y-81585238D01*
X99571428Y-81394761D01*
X99523809Y-81299523D01*
X99476190Y-81251904D01*
X99380952Y-81204285D01*
X98952380Y-80585238D02*
X98952380Y-80490000D01*
X99000000Y-80394761D01*
X99047619Y-80347142D01*
X99142857Y-80299523D01*
X99333333Y-80251904D01*
X99571428Y-80251904D01*
X99761904Y-80299523D01*
X99857142Y-80347142D01*
X99904761Y-80394761D01*
X99952380Y-80490000D01*
X99952380Y-80585238D01*
X99904761Y-80680476D01*
X99857142Y-80728095D01*
X99761904Y-80775714D01*
X99571428Y-80823333D01*
X99333333Y-80823333D01*
X99142857Y-80775714D01*
X99047619Y-80728095D01*
X99000000Y-80680476D01*
X98952380Y-80585238D01*
G04 #@! TO.C,R6*
X97452380Y-83109047D02*
X96976190Y-83442380D01*
X97452380Y-83680476D02*
X96452380Y-83680476D01*
X96452380Y-83299523D01*
X96500000Y-83204285D01*
X96547619Y-83156666D01*
X96642857Y-83109047D01*
X96785714Y-83109047D01*
X96880952Y-83156666D01*
X96928571Y-83204285D01*
X96976190Y-83299523D01*
X96976190Y-83680476D01*
X96452380Y-82775714D02*
X96452380Y-82156666D01*
X96833333Y-82490000D01*
X96833333Y-82347142D01*
X96880952Y-82251904D01*
X96928571Y-82204285D01*
X97023809Y-82156666D01*
X97261904Y-82156666D01*
X97357142Y-82204285D01*
X97404761Y-82251904D01*
X97452380Y-82347142D01*
X97452380Y-82632857D01*
X97404761Y-82728095D01*
X97357142Y-82775714D01*
X97452380Y-81680476D02*
X97452380Y-81490000D01*
X97404761Y-81394761D01*
X97357142Y-81347142D01*
X97214285Y-81251904D01*
X97023809Y-81204285D01*
X96642857Y-81204285D01*
X96547619Y-81251904D01*
X96500000Y-81299523D01*
X96452380Y-81394761D01*
X96452380Y-81585238D01*
X96500000Y-81680476D01*
X96547619Y-81728095D01*
X96642857Y-81775714D01*
X96880952Y-81775714D01*
X96976190Y-81728095D01*
X97023809Y-81680476D01*
X97071428Y-81585238D01*
X97071428Y-81394761D01*
X97023809Y-81299523D01*
X96976190Y-81251904D01*
X96880952Y-81204285D01*
X96452380Y-80585238D02*
X96452380Y-80490000D01*
X96500000Y-80394761D01*
X96547619Y-80347142D01*
X96642857Y-80299523D01*
X96833333Y-80251904D01*
X97071428Y-80251904D01*
X97261904Y-80299523D01*
X97357142Y-80347142D01*
X97404761Y-80394761D01*
X97452380Y-80490000D01*
X97452380Y-80585238D01*
X97404761Y-80680476D01*
X97357142Y-80728095D01*
X97261904Y-80775714D01*
X97071428Y-80823333D01*
X96833333Y-80823333D01*
X96642857Y-80775714D01*
X96547619Y-80728095D01*
X96500000Y-80680476D01*
X96452380Y-80585238D01*
G04 #@! TO.C,R4*
X88667142Y-125452380D02*
X88333809Y-124976190D01*
X88095714Y-125452380D02*
X88095714Y-124452380D01*
X88476666Y-124452380D01*
X88571904Y-124500000D01*
X88619523Y-124547619D01*
X88667142Y-124642857D01*
X88667142Y-124785714D01*
X88619523Y-124880952D01*
X88571904Y-124928571D01*
X88476666Y-124976190D01*
X88095714Y-124976190D01*
X89619523Y-125452380D02*
X89048095Y-125452380D01*
X89333809Y-125452380D02*
X89333809Y-124452380D01*
X89238571Y-124595238D01*
X89143333Y-124690476D01*
X89048095Y-124738095D01*
X90238571Y-124452380D02*
X90333809Y-124452380D01*
X90429047Y-124500000D01*
X90476666Y-124547619D01*
X90524285Y-124642857D01*
X90571904Y-124833333D01*
X90571904Y-125071428D01*
X90524285Y-125261904D01*
X90476666Y-125357142D01*
X90429047Y-125404761D01*
X90333809Y-125452380D01*
X90238571Y-125452380D01*
X90143333Y-125404761D01*
X90095714Y-125357142D01*
X90048095Y-125261904D01*
X90000476Y-125071428D01*
X90000476Y-124833333D01*
X90048095Y-124642857D01*
X90095714Y-124547619D01*
X90143333Y-124500000D01*
X90238571Y-124452380D01*
X91000476Y-125452380D02*
X91000476Y-124452380D01*
X91571904Y-125452380D02*
X91143333Y-124880952D01*
X91571904Y-124452380D02*
X91000476Y-125023809D01*
G04 #@! TO.C,R3*
X81952380Y-112976666D02*
X81476190Y-113310000D01*
X81952380Y-113548095D02*
X80952380Y-113548095D01*
X80952380Y-113167142D01*
X81000000Y-113071904D01*
X81047619Y-113024285D01*
X81142857Y-112976666D01*
X81285714Y-112976666D01*
X81380952Y-113024285D01*
X81428571Y-113071904D01*
X81476190Y-113167142D01*
X81476190Y-113548095D01*
X81952380Y-112024285D02*
X81952380Y-112595714D01*
X81952380Y-112310000D02*
X80952380Y-112310000D01*
X81095238Y-112405238D01*
X81190476Y-112500476D01*
X81238095Y-112595714D01*
X81952380Y-111595714D02*
X80952380Y-111595714D01*
X81952380Y-111024285D02*
X81380952Y-111452857D01*
X80952380Y-111024285D02*
X81523809Y-111595714D01*
G04 #@! TO.C,R2*
X81952380Y-123356666D02*
X81476190Y-123690000D01*
X81952380Y-123928095D02*
X80952380Y-123928095D01*
X80952380Y-123547142D01*
X81000000Y-123451904D01*
X81047619Y-123404285D01*
X81142857Y-123356666D01*
X81285714Y-123356666D01*
X81380952Y-123404285D01*
X81428571Y-123451904D01*
X81476190Y-123547142D01*
X81476190Y-123928095D01*
X81952380Y-122404285D02*
X81952380Y-122975714D01*
X81952380Y-122690000D02*
X80952380Y-122690000D01*
X81095238Y-122785238D01*
X81190476Y-122880476D01*
X81238095Y-122975714D01*
X81952380Y-121975714D02*
X80952380Y-121975714D01*
X81952380Y-121404285D02*
X81380952Y-121832857D01*
X80952380Y-121404285D02*
X81523809Y-121975714D01*
G04 #@! TO.C,R5*
X94852380Y-83109047D02*
X94376190Y-83442380D01*
X94852380Y-83680476D02*
X93852380Y-83680476D01*
X93852380Y-83299523D01*
X93900000Y-83204285D01*
X93947619Y-83156666D01*
X94042857Y-83109047D01*
X94185714Y-83109047D01*
X94280952Y-83156666D01*
X94328571Y-83204285D01*
X94376190Y-83299523D01*
X94376190Y-83680476D01*
X94852380Y-82156666D02*
X94852380Y-82728095D01*
X94852380Y-82442380D02*
X93852380Y-82442380D01*
X93995238Y-82537619D01*
X94090476Y-82632857D01*
X94138095Y-82728095D01*
X93852380Y-81251904D02*
X93852380Y-81728095D01*
X94328571Y-81775714D01*
X94280952Y-81728095D01*
X94233333Y-81632857D01*
X94233333Y-81394761D01*
X94280952Y-81299523D01*
X94328571Y-81251904D01*
X94423809Y-81204285D01*
X94661904Y-81204285D01*
X94757142Y-81251904D01*
X94804761Y-81299523D01*
X94852380Y-81394761D01*
X94852380Y-81632857D01*
X94804761Y-81728095D01*
X94757142Y-81775714D01*
X93852380Y-80585238D02*
X93852380Y-80490000D01*
X93900000Y-80394761D01*
X93947619Y-80347142D01*
X94042857Y-80299523D01*
X94233333Y-80251904D01*
X94471428Y-80251904D01*
X94661904Y-80299523D01*
X94757142Y-80347142D01*
X94804761Y-80394761D01*
X94852380Y-80490000D01*
X94852380Y-80585238D01*
X94804761Y-80680476D01*
X94757142Y-80728095D01*
X94661904Y-80775714D01*
X94471428Y-80823333D01*
X94233333Y-80823333D01*
X94042857Y-80775714D01*
X93947619Y-80728095D01*
X93900000Y-80680476D01*
X93852380Y-80585238D01*
G04 #@! TO.C,R8*
X81097380Y-86209047D02*
X80621190Y-86542380D01*
X81097380Y-86780476D02*
X80097380Y-86780476D01*
X80097380Y-86399523D01*
X80145000Y-86304285D01*
X80192619Y-86256666D01*
X80287857Y-86209047D01*
X80430714Y-86209047D01*
X80525952Y-86256666D01*
X80573571Y-86304285D01*
X80621190Y-86399523D01*
X80621190Y-86780476D01*
X80192619Y-85828095D02*
X80145000Y-85780476D01*
X80097380Y-85685238D01*
X80097380Y-85447142D01*
X80145000Y-85351904D01*
X80192619Y-85304285D01*
X80287857Y-85256666D01*
X80383095Y-85256666D01*
X80525952Y-85304285D01*
X81097380Y-85875714D01*
X81097380Y-85256666D01*
X80192619Y-84875714D02*
X80145000Y-84828095D01*
X80097380Y-84732857D01*
X80097380Y-84494761D01*
X80145000Y-84399523D01*
X80192619Y-84351904D01*
X80287857Y-84304285D01*
X80383095Y-84304285D01*
X80525952Y-84351904D01*
X81097380Y-84923333D01*
X81097380Y-84304285D01*
X80097380Y-83685238D02*
X80097380Y-83590000D01*
X80145000Y-83494761D01*
X80192619Y-83447142D01*
X80287857Y-83399523D01*
X80478333Y-83351904D01*
X80716428Y-83351904D01*
X80906904Y-83399523D01*
X81002142Y-83447142D01*
X81049761Y-83494761D01*
X81097380Y-83590000D01*
X81097380Y-83685238D01*
X81049761Y-83780476D01*
X81002142Y-83828095D01*
X80906904Y-83875714D01*
X80716428Y-83923333D01*
X80478333Y-83923333D01*
X80287857Y-83875714D01*
X80192619Y-83828095D01*
X80145000Y-83780476D01*
X80097380Y-83685238D01*
G04 #@! TO.C,R9*
X83637380Y-82399047D02*
X83161190Y-82732380D01*
X83637380Y-82970476D02*
X82637380Y-82970476D01*
X82637380Y-82589523D01*
X82685000Y-82494285D01*
X82732619Y-82446666D01*
X82827857Y-82399047D01*
X82970714Y-82399047D01*
X83065952Y-82446666D01*
X83113571Y-82494285D01*
X83161190Y-82589523D01*
X83161190Y-82970476D01*
X82732619Y-82018095D02*
X82685000Y-81970476D01*
X82637380Y-81875238D01*
X82637380Y-81637142D01*
X82685000Y-81541904D01*
X82732619Y-81494285D01*
X82827857Y-81446666D01*
X82923095Y-81446666D01*
X83065952Y-81494285D01*
X83637380Y-82065714D01*
X83637380Y-81446666D01*
X82732619Y-81065714D02*
X82685000Y-81018095D01*
X82637380Y-80922857D01*
X82637380Y-80684761D01*
X82685000Y-80589523D01*
X82732619Y-80541904D01*
X82827857Y-80494285D01*
X82923095Y-80494285D01*
X83065952Y-80541904D01*
X83637380Y-81113333D01*
X83637380Y-80494285D01*
X82637380Y-79875238D02*
X82637380Y-79780000D01*
X82685000Y-79684761D01*
X82732619Y-79637142D01*
X82827857Y-79589523D01*
X83018333Y-79541904D01*
X83256428Y-79541904D01*
X83446904Y-79589523D01*
X83542142Y-79637142D01*
X83589761Y-79684761D01*
X83637380Y-79780000D01*
X83637380Y-79875238D01*
X83589761Y-79970476D01*
X83542142Y-80018095D01*
X83446904Y-80065714D01*
X83256428Y-80113333D01*
X83018333Y-80113333D01*
X82827857Y-80065714D01*
X82732619Y-80018095D01*
X82685000Y-79970476D01*
X82637380Y-79875238D01*
G04 #@! TO.C,R10*
X86177380Y-81129047D02*
X85701190Y-81462380D01*
X86177380Y-81700476D02*
X85177380Y-81700476D01*
X85177380Y-81319523D01*
X85225000Y-81224285D01*
X85272619Y-81176666D01*
X85367857Y-81129047D01*
X85510714Y-81129047D01*
X85605952Y-81176666D01*
X85653571Y-81224285D01*
X85701190Y-81319523D01*
X85701190Y-81700476D01*
X85272619Y-80748095D02*
X85225000Y-80700476D01*
X85177380Y-80605238D01*
X85177380Y-80367142D01*
X85225000Y-80271904D01*
X85272619Y-80224285D01*
X85367857Y-80176666D01*
X85463095Y-80176666D01*
X85605952Y-80224285D01*
X86177380Y-80795714D01*
X86177380Y-80176666D01*
X85272619Y-79795714D02*
X85225000Y-79748095D01*
X85177380Y-79652857D01*
X85177380Y-79414761D01*
X85225000Y-79319523D01*
X85272619Y-79271904D01*
X85367857Y-79224285D01*
X85463095Y-79224285D01*
X85605952Y-79271904D01*
X86177380Y-79843333D01*
X86177380Y-79224285D01*
X85177380Y-78605238D02*
X85177380Y-78510000D01*
X85225000Y-78414761D01*
X85272619Y-78367142D01*
X85367857Y-78319523D01*
X85558333Y-78271904D01*
X85796428Y-78271904D01*
X85986904Y-78319523D01*
X86082142Y-78367142D01*
X86129761Y-78414761D01*
X86177380Y-78510000D01*
X86177380Y-78605238D01*
X86129761Y-78700476D01*
X86082142Y-78748095D01*
X85986904Y-78795714D01*
X85796428Y-78843333D01*
X85558333Y-78843333D01*
X85367857Y-78795714D01*
X85272619Y-78748095D01*
X85225000Y-78700476D01*
X85177380Y-78605238D01*
G04 #@! TO.C,R11*
X98952380Y-130452857D02*
X98476190Y-130786190D01*
X98952380Y-131024285D02*
X97952380Y-131024285D01*
X97952380Y-130643333D01*
X98000000Y-130548095D01*
X98047619Y-130500476D01*
X98142857Y-130452857D01*
X98285714Y-130452857D01*
X98380952Y-130500476D01*
X98428571Y-130548095D01*
X98476190Y-130643333D01*
X98476190Y-131024285D01*
X98952380Y-129500476D02*
X98952380Y-130071904D01*
X98952380Y-129786190D02*
X97952380Y-129786190D01*
X98095238Y-129881428D01*
X98190476Y-129976666D01*
X98238095Y-130071904D01*
X97952380Y-128881428D02*
X97952380Y-128786190D01*
X98000000Y-128690952D01*
X98047619Y-128643333D01*
X98142857Y-128595714D01*
X98333333Y-128548095D01*
X98571428Y-128548095D01*
X98761904Y-128595714D01*
X98857142Y-128643333D01*
X98904761Y-128690952D01*
X98952380Y-128786190D01*
X98952380Y-128881428D01*
X98904761Y-128976666D01*
X98857142Y-129024285D01*
X98761904Y-129071904D01*
X98571428Y-129119523D01*
X98333333Y-129119523D01*
X98142857Y-129071904D01*
X98047619Y-129024285D01*
X98000000Y-128976666D01*
X97952380Y-128881428D01*
X98952380Y-128119523D02*
X97952380Y-128119523D01*
X98952380Y-127548095D02*
X98380952Y-127976666D01*
X97952380Y-127548095D02*
X98523809Y-128119523D01*
G04 #@! TO.C,R12*
X81952380Y-134309047D02*
X81476190Y-134642380D01*
X81952380Y-134880476D02*
X80952380Y-134880476D01*
X80952380Y-134499523D01*
X81000000Y-134404285D01*
X81047619Y-134356666D01*
X81142857Y-134309047D01*
X81285714Y-134309047D01*
X81380952Y-134356666D01*
X81428571Y-134404285D01*
X81476190Y-134499523D01*
X81476190Y-134880476D01*
X81047619Y-133928095D02*
X81000000Y-133880476D01*
X80952380Y-133785238D01*
X80952380Y-133547142D01*
X81000000Y-133451904D01*
X81047619Y-133404285D01*
X81142857Y-133356666D01*
X81238095Y-133356666D01*
X81380952Y-133404285D01*
X81952380Y-133975714D01*
X81952380Y-133356666D01*
X81047619Y-132975714D02*
X81000000Y-132928095D01*
X80952380Y-132832857D01*
X80952380Y-132594761D01*
X81000000Y-132499523D01*
X81047619Y-132451904D01*
X81142857Y-132404285D01*
X81238095Y-132404285D01*
X81380952Y-132451904D01*
X81952380Y-133023333D01*
X81952380Y-132404285D01*
X80952380Y-131785238D02*
X80952380Y-131690000D01*
X81000000Y-131594761D01*
X81047619Y-131547142D01*
X81142857Y-131499523D01*
X81333333Y-131451904D01*
X81571428Y-131451904D01*
X81761904Y-131499523D01*
X81857142Y-131547142D01*
X81904761Y-131594761D01*
X81952380Y-131690000D01*
X81952380Y-131785238D01*
X81904761Y-131880476D01*
X81857142Y-131928095D01*
X81761904Y-131975714D01*
X81571428Y-132023333D01*
X81333333Y-132023333D01*
X81142857Y-131975714D01*
X81047619Y-131928095D01*
X81000000Y-131880476D01*
X80952380Y-131785238D01*
G04 #@! TO.C,R13*
X89047142Y-68452380D02*
X88713809Y-67976190D01*
X88475714Y-68452380D02*
X88475714Y-67452380D01*
X88856666Y-67452380D01*
X88951904Y-67500000D01*
X88999523Y-67547619D01*
X89047142Y-67642857D01*
X89047142Y-67785714D01*
X88999523Y-67880952D01*
X88951904Y-67928571D01*
X88856666Y-67976190D01*
X88475714Y-67976190D01*
X89951904Y-67452380D02*
X89475714Y-67452380D01*
X89428095Y-67928571D01*
X89475714Y-67880952D01*
X89570952Y-67833333D01*
X89809047Y-67833333D01*
X89904285Y-67880952D01*
X89951904Y-67928571D01*
X89999523Y-68023809D01*
X89999523Y-68261904D01*
X89951904Y-68357142D01*
X89904285Y-68404761D01*
X89809047Y-68452380D01*
X89570952Y-68452380D01*
X89475714Y-68404761D01*
X89428095Y-68357142D01*
X90618571Y-67452380D02*
X90713809Y-67452380D01*
X90809047Y-67500000D01*
X90856666Y-67547619D01*
X90904285Y-67642857D01*
X90951904Y-67833333D01*
X90951904Y-68071428D01*
X90904285Y-68261904D01*
X90856666Y-68357142D01*
X90809047Y-68404761D01*
X90713809Y-68452380D01*
X90618571Y-68452380D01*
X90523333Y-68404761D01*
X90475714Y-68357142D01*
X90428095Y-68261904D01*
X90380476Y-68071428D01*
X90380476Y-67833333D01*
X90428095Y-67642857D01*
X90475714Y-67547619D01*
X90523333Y-67500000D01*
X90618571Y-67452380D01*
G04 #@! TO.C,Q1*
X88447619Y-87414285D02*
X88400000Y-87366666D01*
X88352380Y-87271428D01*
X88352380Y-87033333D01*
X88400000Y-86938095D01*
X88447619Y-86890476D01*
X88542857Y-86842857D01*
X88638095Y-86842857D01*
X88780952Y-86890476D01*
X89352380Y-87461904D01*
X89352380Y-86842857D01*
X89352380Y-86414285D02*
X88352380Y-86414285D01*
X89352380Y-85842857D01*
X88352380Y-85842857D01*
X88352380Y-85461904D02*
X88352380Y-84842857D01*
X88733333Y-85176190D01*
X88733333Y-85033333D01*
X88780952Y-84938095D01*
X88828571Y-84890476D01*
X88923809Y-84842857D01*
X89161904Y-84842857D01*
X89257142Y-84890476D01*
X89304761Y-84938095D01*
X89352380Y-85033333D01*
X89352380Y-85319047D01*
X89304761Y-85414285D01*
X89257142Y-85461904D01*
X89352380Y-84366666D02*
X89352380Y-84176190D01*
X89304761Y-84080952D01*
X89257142Y-84033333D01*
X89114285Y-83938095D01*
X88923809Y-83890476D01*
X88542857Y-83890476D01*
X88447619Y-83938095D01*
X88400000Y-83985714D01*
X88352380Y-84080952D01*
X88352380Y-84271428D01*
X88400000Y-84366666D01*
X88447619Y-84414285D01*
X88542857Y-84461904D01*
X88780952Y-84461904D01*
X88876190Y-84414285D01*
X88923809Y-84366666D01*
X88971428Y-84271428D01*
X88971428Y-84080952D01*
X88923809Y-83985714D01*
X88876190Y-83938095D01*
X88780952Y-83890476D01*
X88352380Y-83271428D02*
X88352380Y-83176190D01*
X88400000Y-83080952D01*
X88447619Y-83033333D01*
X88542857Y-82985714D01*
X88733333Y-82938095D01*
X88971428Y-82938095D01*
X89161904Y-82985714D01*
X89257142Y-83033333D01*
X89304761Y-83080952D01*
X89352380Y-83176190D01*
X89352380Y-83271428D01*
X89304761Y-83366666D01*
X89257142Y-83414285D01*
X89161904Y-83461904D01*
X88971428Y-83509523D01*
X88733333Y-83509523D01*
X88542857Y-83461904D01*
X88447619Y-83414285D01*
X88400000Y-83366666D01*
X88352380Y-83271428D01*
X88685714Y-82080952D02*
X89352380Y-82080952D01*
X88304761Y-82319047D02*
X89019047Y-82557142D01*
X89019047Y-81938095D01*
G04 #@! TO.C,Q2*
X88447619Y-81314285D02*
X88400000Y-81266666D01*
X88352380Y-81171428D01*
X88352380Y-80933333D01*
X88400000Y-80838095D01*
X88447619Y-80790476D01*
X88542857Y-80742857D01*
X88638095Y-80742857D01*
X88780952Y-80790476D01*
X89352380Y-81361904D01*
X89352380Y-80742857D01*
X89352380Y-80314285D02*
X88352380Y-80314285D01*
X89352380Y-79742857D01*
X88352380Y-79742857D01*
X88352380Y-79361904D02*
X88352380Y-78742857D01*
X88733333Y-79076190D01*
X88733333Y-78933333D01*
X88780952Y-78838095D01*
X88828571Y-78790476D01*
X88923809Y-78742857D01*
X89161904Y-78742857D01*
X89257142Y-78790476D01*
X89304761Y-78838095D01*
X89352380Y-78933333D01*
X89352380Y-79219047D01*
X89304761Y-79314285D01*
X89257142Y-79361904D01*
X89352380Y-78266666D02*
X89352380Y-78076190D01*
X89304761Y-77980952D01*
X89257142Y-77933333D01*
X89114285Y-77838095D01*
X88923809Y-77790476D01*
X88542857Y-77790476D01*
X88447619Y-77838095D01*
X88400000Y-77885714D01*
X88352380Y-77980952D01*
X88352380Y-78171428D01*
X88400000Y-78266666D01*
X88447619Y-78314285D01*
X88542857Y-78361904D01*
X88780952Y-78361904D01*
X88876190Y-78314285D01*
X88923809Y-78266666D01*
X88971428Y-78171428D01*
X88971428Y-77980952D01*
X88923809Y-77885714D01*
X88876190Y-77838095D01*
X88780952Y-77790476D01*
X88352380Y-77171428D02*
X88352380Y-77076190D01*
X88400000Y-76980952D01*
X88447619Y-76933333D01*
X88542857Y-76885714D01*
X88733333Y-76838095D01*
X88971428Y-76838095D01*
X89161904Y-76885714D01*
X89257142Y-76933333D01*
X89304761Y-76980952D01*
X89352380Y-77076190D01*
X89352380Y-77171428D01*
X89304761Y-77266666D01*
X89257142Y-77314285D01*
X89161904Y-77361904D01*
X88971428Y-77409523D01*
X88733333Y-77409523D01*
X88542857Y-77361904D01*
X88447619Y-77314285D01*
X88400000Y-77266666D01*
X88352380Y-77171428D01*
X88685714Y-75980952D02*
X89352380Y-75980952D01*
X88304761Y-76219047D02*
X89019047Y-76457142D01*
X89019047Y-75838095D01*
G04 #@! TO.C,Q3*
X88447619Y-75414285D02*
X88400000Y-75366666D01*
X88352380Y-75271428D01*
X88352380Y-75033333D01*
X88400000Y-74938095D01*
X88447619Y-74890476D01*
X88542857Y-74842857D01*
X88638095Y-74842857D01*
X88780952Y-74890476D01*
X89352380Y-75461904D01*
X89352380Y-74842857D01*
X89352380Y-74414285D02*
X88352380Y-74414285D01*
X89352380Y-73842857D01*
X88352380Y-73842857D01*
X88352380Y-73461904D02*
X88352380Y-72842857D01*
X88733333Y-73176190D01*
X88733333Y-73033333D01*
X88780952Y-72938095D01*
X88828571Y-72890476D01*
X88923809Y-72842857D01*
X89161904Y-72842857D01*
X89257142Y-72890476D01*
X89304761Y-72938095D01*
X89352380Y-73033333D01*
X89352380Y-73319047D01*
X89304761Y-73414285D01*
X89257142Y-73461904D01*
X89352380Y-72366666D02*
X89352380Y-72176190D01*
X89304761Y-72080952D01*
X89257142Y-72033333D01*
X89114285Y-71938095D01*
X88923809Y-71890476D01*
X88542857Y-71890476D01*
X88447619Y-71938095D01*
X88400000Y-71985714D01*
X88352380Y-72080952D01*
X88352380Y-72271428D01*
X88400000Y-72366666D01*
X88447619Y-72414285D01*
X88542857Y-72461904D01*
X88780952Y-72461904D01*
X88876190Y-72414285D01*
X88923809Y-72366666D01*
X88971428Y-72271428D01*
X88971428Y-72080952D01*
X88923809Y-71985714D01*
X88876190Y-71938095D01*
X88780952Y-71890476D01*
X88352380Y-71271428D02*
X88352380Y-71176190D01*
X88400000Y-71080952D01*
X88447619Y-71033333D01*
X88542857Y-70985714D01*
X88733333Y-70938095D01*
X88971428Y-70938095D01*
X89161904Y-70985714D01*
X89257142Y-71033333D01*
X89304761Y-71080952D01*
X89352380Y-71176190D01*
X89352380Y-71271428D01*
X89304761Y-71366666D01*
X89257142Y-71414285D01*
X89161904Y-71461904D01*
X88971428Y-71509523D01*
X88733333Y-71509523D01*
X88542857Y-71461904D01*
X88447619Y-71414285D01*
X88400000Y-71366666D01*
X88352380Y-71271428D01*
X88685714Y-70080952D02*
X89352380Y-70080952D01*
X88304761Y-70319047D02*
X89019047Y-70557142D01*
X89019047Y-69938095D01*
G04 #@! TO.C,C1*
X97559523Y-112607142D02*
X97511904Y-112654761D01*
X97369047Y-112702380D01*
X97273809Y-112702380D01*
X97130952Y-112654761D01*
X97035714Y-112559523D01*
X96988095Y-112464285D01*
X96940476Y-112273809D01*
X96940476Y-112130952D01*
X96988095Y-111940476D01*
X97035714Y-111845238D01*
X97130952Y-111750000D01*
X97273809Y-111702380D01*
X97369047Y-111702380D01*
X97511904Y-111750000D01*
X97559523Y-111797619D01*
X97988095Y-112702380D02*
X97988095Y-111702380D01*
X98369047Y-111702380D01*
X98464285Y-111750000D01*
X98511904Y-111797619D01*
X98559523Y-111892857D01*
X98559523Y-112035714D01*
X98511904Y-112130952D01*
X98464285Y-112178571D01*
X98369047Y-112226190D01*
X97988095Y-112226190D01*
G04 #@! TO.C,D1*
X94766190Y-69667380D02*
X94290000Y-69667380D01*
X94290000Y-68667380D01*
X95099523Y-69143571D02*
X95432857Y-69143571D01*
X95575714Y-69667380D02*
X95099523Y-69667380D01*
X95099523Y-68667380D01*
X95575714Y-68667380D01*
X96004285Y-69667380D02*
X96004285Y-68667380D01*
X96242380Y-68667380D01*
X96385238Y-68715000D01*
X96480476Y-68810238D01*
X96528095Y-68905476D01*
X96575714Y-69095952D01*
X96575714Y-69238809D01*
X96528095Y-69429285D01*
X96480476Y-69524523D01*
X96385238Y-69619761D01*
X96242380Y-69667380D01*
X96004285Y-69667380D01*
X96766190Y-69762619D02*
X97528095Y-69762619D01*
X98337619Y-69572142D02*
X98290000Y-69619761D01*
X98147142Y-69667380D01*
X98051904Y-69667380D01*
X97909047Y-69619761D01*
X97813809Y-69524523D01*
X97766190Y-69429285D01*
X97718571Y-69238809D01*
X97718571Y-69095952D01*
X97766190Y-68905476D01*
X97813809Y-68810238D01*
X97909047Y-68715000D01*
X98051904Y-68667380D01*
X98147142Y-68667380D01*
X98290000Y-68715000D01*
X98337619Y-68762619D01*
X99337619Y-69667380D02*
X99004285Y-69191190D01*
X98766190Y-69667380D02*
X98766190Y-68667380D01*
X99147142Y-68667380D01*
X99242380Y-68715000D01*
X99290000Y-68762619D01*
X99337619Y-68857857D01*
X99337619Y-69000714D01*
X99290000Y-69095952D01*
X99242380Y-69143571D01*
X99147142Y-69191190D01*
X98766190Y-69191190D01*
X100290000Y-68715000D02*
X100194761Y-68667380D01*
X100051904Y-68667380D01*
X99909047Y-68715000D01*
X99813809Y-68810238D01*
X99766190Y-68905476D01*
X99718571Y-69095952D01*
X99718571Y-69238809D01*
X99766190Y-69429285D01*
X99813809Y-69524523D01*
X99909047Y-69619761D01*
X100051904Y-69667380D01*
X100147142Y-69667380D01*
X100290000Y-69619761D01*
X100337619Y-69572142D01*
X100337619Y-69238809D01*
X100147142Y-69238809D01*
X101099523Y-69143571D02*
X101242380Y-69191190D01*
X101290000Y-69238809D01*
X101337619Y-69334047D01*
X101337619Y-69476904D01*
X101290000Y-69572142D01*
X101242380Y-69619761D01*
X101147142Y-69667380D01*
X100766190Y-69667380D01*
X100766190Y-68667380D01*
X101099523Y-68667380D01*
X101194761Y-68715000D01*
X101242380Y-68762619D01*
X101290000Y-68857857D01*
X101290000Y-68953095D01*
X101242380Y-69048333D01*
X101194761Y-69095952D01*
X101099523Y-69143571D01*
X100766190Y-69143571D01*
G04 #@! TO.C,U2*
D14*
X80234285Y-76203571D02*
X80234285Y-75703571D01*
X80984285Y-76025000D01*
X80484285Y-75096428D02*
X80984285Y-75096428D01*
X80198571Y-75275000D02*
X80734285Y-75453571D01*
X80734285Y-74989285D01*
X80984285Y-74596428D02*
X80948571Y-74667857D01*
X80877142Y-74703571D01*
X80234285Y-74703571D01*
X80484285Y-74382142D02*
X80984285Y-74203571D01*
X80484285Y-74025000D01*
X80948571Y-73417857D02*
X80984285Y-73489285D01*
X80984285Y-73632142D01*
X80948571Y-73703571D01*
X80912857Y-73739285D01*
X80841428Y-73775000D01*
X80627142Y-73775000D01*
X80555714Y-73739285D01*
X80520000Y-73703571D01*
X80484285Y-73632142D01*
X80484285Y-73489285D01*
X80520000Y-73417857D01*
X80984285Y-72703571D02*
X80984285Y-73132142D01*
X80984285Y-72917857D02*
X80234285Y-72917857D01*
X80341428Y-72989285D01*
X80412857Y-73060714D01*
X80448571Y-73132142D01*
X80484285Y-72060714D02*
X81091428Y-72060714D01*
X81162857Y-72096428D01*
X81198571Y-72132142D01*
X81234285Y-72203571D01*
X81234285Y-72310714D01*
X81198571Y-72382142D01*
X80948571Y-72060714D02*
X80984285Y-72132142D01*
X80984285Y-72275000D01*
X80948571Y-72346428D01*
X80912857Y-72382142D01*
X80841428Y-72417857D01*
X80627142Y-72417857D01*
X80555714Y-72382142D01*
X80520000Y-72346428D01*
X80484285Y-72275000D01*
X80484285Y-72132142D01*
X80520000Y-72060714D01*
X80984285Y-71310714D02*
X80984285Y-71739285D01*
X80984285Y-71525000D02*
X80234285Y-71525000D01*
X80341428Y-71596428D01*
X80412857Y-71667857D01*
X80448571Y-71739285D01*
X80305714Y-71025000D02*
X80270000Y-70989285D01*
X80234285Y-70917857D01*
X80234285Y-70739285D01*
X80270000Y-70667857D01*
X80305714Y-70632142D01*
X80377142Y-70596428D01*
X80448571Y-70596428D01*
X80555714Y-70632142D01*
X80984285Y-71060714D01*
X80984285Y-70596428D01*
X80234285Y-69917857D02*
X80234285Y-70275000D01*
X80591428Y-70310714D01*
X80555714Y-70275000D01*
X80520000Y-70203571D01*
X80520000Y-70025000D01*
X80555714Y-69953571D01*
X80591428Y-69917857D01*
X80662857Y-69882142D01*
X80841428Y-69882142D01*
X80912857Y-69917857D01*
X80948571Y-69953571D01*
X80984285Y-70025000D01*
X80984285Y-70203571D01*
X80948571Y-70275000D01*
X80912857Y-70310714D01*
G04 #@! TO.C,BZ1*
D10*
X92929047Y-136111428D02*
X93690952Y-136111428D01*
X93310000Y-136492380D02*
X93310000Y-135730476D01*
G04 #@! TO.C,C2*
D13*
X96694761Y-105588571D02*
X96670952Y-105612380D01*
X96599523Y-105636190D01*
X96551904Y-105636190D01*
X96480476Y-105612380D01*
X96432857Y-105564761D01*
X96409047Y-105517142D01*
X96385238Y-105421904D01*
X96385238Y-105350476D01*
X96409047Y-105255238D01*
X96432857Y-105207619D01*
X96480476Y-105160000D01*
X96551904Y-105136190D01*
X96599523Y-105136190D01*
X96670952Y-105160000D01*
X96694761Y-105183809D01*
X96790000Y-105683809D02*
X97170952Y-105683809D01*
X97266190Y-105612380D02*
X97337619Y-105636190D01*
X97456666Y-105636190D01*
X97504285Y-105612380D01*
X97528095Y-105588571D01*
X97551904Y-105540952D01*
X97551904Y-105493333D01*
X97528095Y-105445714D01*
X97504285Y-105421904D01*
X97456666Y-105398095D01*
X97361428Y-105374285D01*
X97313809Y-105350476D01*
X97290000Y-105326666D01*
X97266190Y-105279047D01*
X97266190Y-105231428D01*
X97290000Y-105183809D01*
X97313809Y-105160000D01*
X97361428Y-105136190D01*
X97480476Y-105136190D01*
X97551904Y-105160000D01*
X97766190Y-105636190D02*
X97766190Y-105302857D01*
X97766190Y-105350476D02*
X97790000Y-105326666D01*
X97837619Y-105302857D01*
X97909047Y-105302857D01*
X97956666Y-105326666D01*
X97980476Y-105374285D01*
X97980476Y-105636190D01*
X97980476Y-105374285D02*
X98004285Y-105326666D01*
X98051904Y-105302857D01*
X98123333Y-105302857D01*
X98170952Y-105326666D01*
X98194761Y-105374285D01*
X98194761Y-105636190D01*
X98647142Y-105636190D02*
X98647142Y-105374285D01*
X98623333Y-105326666D01*
X98575714Y-105302857D01*
X98480476Y-105302857D01*
X98432857Y-105326666D01*
X98647142Y-105612380D02*
X98599523Y-105636190D01*
X98480476Y-105636190D01*
X98432857Y-105612380D01*
X98409047Y-105564761D01*
X98409047Y-105517142D01*
X98432857Y-105469523D01*
X98480476Y-105445714D01*
X98599523Y-105445714D01*
X98647142Y-105421904D01*
X98956666Y-105636190D02*
X98909047Y-105612380D01*
X98885238Y-105564761D01*
X98885238Y-105136190D01*
X99218571Y-105636190D02*
X99170952Y-105612380D01*
X99147142Y-105564761D01*
X99147142Y-105136190D01*
G04 #@! TO.C,C3*
X96604761Y-87808571D02*
X96580952Y-87832380D01*
X96509523Y-87856190D01*
X96461904Y-87856190D01*
X96390476Y-87832380D01*
X96342857Y-87784761D01*
X96319047Y-87737142D01*
X96295238Y-87641904D01*
X96295238Y-87570476D01*
X96319047Y-87475238D01*
X96342857Y-87427619D01*
X96390476Y-87380000D01*
X96461904Y-87356190D01*
X96509523Y-87356190D01*
X96580952Y-87380000D01*
X96604761Y-87403809D01*
X96700000Y-87903809D02*
X97080952Y-87903809D01*
X97176190Y-87832380D02*
X97247619Y-87856190D01*
X97366666Y-87856190D01*
X97414285Y-87832380D01*
X97438095Y-87808571D01*
X97461904Y-87760952D01*
X97461904Y-87713333D01*
X97438095Y-87665714D01*
X97414285Y-87641904D01*
X97366666Y-87618095D01*
X97271428Y-87594285D01*
X97223809Y-87570476D01*
X97200000Y-87546666D01*
X97176190Y-87499047D01*
X97176190Y-87451428D01*
X97200000Y-87403809D01*
X97223809Y-87380000D01*
X97271428Y-87356190D01*
X97390476Y-87356190D01*
X97461904Y-87380000D01*
X97676190Y-87856190D02*
X97676190Y-87522857D01*
X97676190Y-87570476D02*
X97700000Y-87546666D01*
X97747619Y-87522857D01*
X97819047Y-87522857D01*
X97866666Y-87546666D01*
X97890476Y-87594285D01*
X97890476Y-87856190D01*
X97890476Y-87594285D02*
X97914285Y-87546666D01*
X97961904Y-87522857D01*
X98033333Y-87522857D01*
X98080952Y-87546666D01*
X98104761Y-87594285D01*
X98104761Y-87856190D01*
X98557142Y-87856190D02*
X98557142Y-87594285D01*
X98533333Y-87546666D01*
X98485714Y-87522857D01*
X98390476Y-87522857D01*
X98342857Y-87546666D01*
X98557142Y-87832380D02*
X98509523Y-87856190D01*
X98390476Y-87856190D01*
X98342857Y-87832380D01*
X98319047Y-87784761D01*
X98319047Y-87737142D01*
X98342857Y-87689523D01*
X98390476Y-87665714D01*
X98509523Y-87665714D01*
X98557142Y-87641904D01*
X98866666Y-87856190D02*
X98819047Y-87832380D01*
X98795238Y-87784761D01*
X98795238Y-87356190D01*
X99128571Y-87856190D02*
X99080952Y-87832380D01*
X99057142Y-87784761D01*
X99057142Y-87356190D01*
G04 #@! TO.C,Y1*
X99032571Y-97442857D02*
X99056380Y-97466666D01*
X99080190Y-97538095D01*
X99080190Y-97585714D01*
X99056380Y-97657142D01*
X99008761Y-97704761D01*
X98961142Y-97728571D01*
X98865904Y-97752380D01*
X98794476Y-97752380D01*
X98699238Y-97728571D01*
X98651619Y-97704761D01*
X98604000Y-97657142D01*
X98580190Y-97585714D01*
X98580190Y-97538095D01*
X98604000Y-97466666D01*
X98627809Y-97442857D01*
X99080190Y-97228571D02*
X98746857Y-97228571D01*
X98842095Y-97228571D02*
X98794476Y-97204761D01*
X98770666Y-97180952D01*
X98746857Y-97133333D01*
X98746857Y-97085714D01*
X98746857Y-96966666D02*
X99080190Y-96847619D01*
X98746857Y-96728571D02*
X99080190Y-96847619D01*
X99199238Y-96895238D01*
X99223047Y-96919047D01*
X99246857Y-96966666D01*
X99056380Y-96561904D02*
X99080190Y-96514285D01*
X99080190Y-96419047D01*
X99056380Y-96371428D01*
X99008761Y-96347619D01*
X98984952Y-96347619D01*
X98937333Y-96371428D01*
X98913523Y-96419047D01*
X98913523Y-96490476D01*
X98889714Y-96538095D01*
X98842095Y-96561904D01*
X98818285Y-96561904D01*
X98770666Y-96538095D01*
X98746857Y-96490476D01*
X98746857Y-96419047D01*
X98770666Y-96371428D01*
X98746857Y-96204761D02*
X98746857Y-96014285D01*
X98580190Y-96133333D02*
X99008761Y-96133333D01*
X99056380Y-96109523D01*
X99080190Y-96061904D01*
X99080190Y-96014285D01*
X99080190Y-95633333D02*
X98818285Y-95633333D01*
X98770666Y-95657142D01*
X98746857Y-95704761D01*
X98746857Y-95800000D01*
X98770666Y-95847619D01*
X99056380Y-95633333D02*
X99080190Y-95680952D01*
X99080190Y-95800000D01*
X99056380Y-95847619D01*
X99008761Y-95871428D01*
X98961142Y-95871428D01*
X98913523Y-95847619D01*
X98889714Y-95800000D01*
X98889714Y-95680952D01*
X98865904Y-95633333D01*
X99080190Y-95323809D02*
X99056380Y-95371428D01*
X99008761Y-95395238D01*
X98580190Y-95395238D01*
G04 #@! TO.C,U1*
D10*
X83666666Y-122190476D02*
X83666666Y-121714285D01*
X83952380Y-122285714D02*
X82952380Y-121952380D01*
X83952380Y-121619047D01*
X82952380Y-121428571D02*
X82952380Y-120857142D01*
X83952380Y-121142857D02*
X82952380Y-121142857D01*
X83952380Y-120523809D02*
X83285714Y-120523809D01*
X83380952Y-120523809D02*
X83333333Y-120476190D01*
X83285714Y-120380952D01*
X83285714Y-120238095D01*
X83333333Y-120142857D01*
X83428571Y-120095238D01*
X83952380Y-120095238D01*
X83428571Y-120095238D02*
X83333333Y-120047619D01*
X83285714Y-119952380D01*
X83285714Y-119809523D01*
X83333333Y-119714285D01*
X83428571Y-119666666D01*
X83952380Y-119666666D01*
X83904761Y-118809523D02*
X83952380Y-118904761D01*
X83952380Y-119095238D01*
X83904761Y-119190476D01*
X83809523Y-119238095D01*
X83428571Y-119238095D01*
X83333333Y-119190476D01*
X83285714Y-119095238D01*
X83285714Y-118904761D01*
X83333333Y-118809523D01*
X83428571Y-118761904D01*
X83523809Y-118761904D01*
X83619047Y-119238095D01*
X83285714Y-117904761D02*
X84095238Y-117904761D01*
X84190476Y-117952380D01*
X84238095Y-118000000D01*
X84285714Y-118095238D01*
X84285714Y-118238095D01*
X84238095Y-118333333D01*
X83904761Y-117904761D02*
X83952380Y-118000000D01*
X83952380Y-118190476D01*
X83904761Y-118285714D01*
X83857142Y-118333333D01*
X83761904Y-118380952D01*
X83476190Y-118380952D01*
X83380952Y-118333333D01*
X83333333Y-118285714D01*
X83285714Y-118190476D01*
X83285714Y-118000000D01*
X83333333Y-117904761D01*
X83952380Y-117000000D02*
X83428571Y-117000000D01*
X83333333Y-117047619D01*
X83285714Y-117142857D01*
X83285714Y-117333333D01*
X83333333Y-117428571D01*
X83904761Y-117000000D02*
X83952380Y-117095238D01*
X83952380Y-117333333D01*
X83904761Y-117428571D01*
X83809523Y-117476190D01*
X83714285Y-117476190D01*
X83619047Y-117428571D01*
X83571428Y-117333333D01*
X83571428Y-117095238D01*
X83523809Y-117000000D01*
X82952380Y-116619047D02*
X82952380Y-116000000D01*
X83333333Y-116333333D01*
X83333333Y-116190476D01*
X83380952Y-116095238D01*
X83428571Y-116047619D01*
X83523809Y-116000000D01*
X83761904Y-116000000D01*
X83857142Y-116047619D01*
X83904761Y-116095238D01*
X83952380Y-116190476D01*
X83952380Y-116476190D01*
X83904761Y-116571428D01*
X83857142Y-116619047D01*
X83047619Y-115619047D02*
X83000000Y-115571428D01*
X82952380Y-115476190D01*
X82952380Y-115238095D01*
X83000000Y-115142857D01*
X83047619Y-115095238D01*
X83142857Y-115047619D01*
X83238095Y-115047619D01*
X83380952Y-115095238D01*
X83952380Y-115666666D01*
X83952380Y-115047619D01*
X83380952Y-114476190D02*
X83333333Y-114571428D01*
X83285714Y-114619047D01*
X83190476Y-114666666D01*
X83142857Y-114666666D01*
X83047619Y-114619047D01*
X83000000Y-114571428D01*
X82952380Y-114476190D01*
X82952380Y-114285714D01*
X83000000Y-114190476D01*
X83047619Y-114142857D01*
X83142857Y-114095238D01*
X83190476Y-114095238D01*
X83285714Y-114142857D01*
X83333333Y-114190476D01*
X83380952Y-114285714D01*
X83380952Y-114476190D01*
X83428571Y-114571428D01*
X83476190Y-114619047D01*
X83571428Y-114666666D01*
X83761904Y-114666666D01*
X83857142Y-114619047D01*
X83904761Y-114571428D01*
X83952380Y-114476190D01*
X83952380Y-114285714D01*
X83904761Y-114190476D01*
X83857142Y-114142857D01*
X83761904Y-114095238D01*
X83571428Y-114095238D01*
X83476190Y-114142857D01*
X83428571Y-114190476D01*
X83380952Y-114285714D01*
X83952380Y-113666666D02*
X82952380Y-113666666D01*
X82952380Y-113285714D01*
X83000000Y-113190476D01*
X83047619Y-113142857D01*
X83142857Y-113095238D01*
X83285714Y-113095238D01*
X83380952Y-113142857D01*
X83428571Y-113190476D01*
X83476190Y-113285714D01*
X83476190Y-113666666D01*
X83571428Y-112666666D02*
X83571428Y-111904761D01*
X83952380Y-111428571D02*
X82952380Y-111428571D01*
X82952380Y-111047619D01*
X83000000Y-110952380D01*
X83047619Y-110904761D01*
X83142857Y-110857142D01*
X83285714Y-110857142D01*
X83380952Y-110904761D01*
X83428571Y-110952380D01*
X83476190Y-111047619D01*
X83476190Y-111428571D01*
X82952380Y-110428571D02*
X83761904Y-110428571D01*
X83857142Y-110380952D01*
X83904761Y-110333333D01*
X83952380Y-110238095D01*
X83952380Y-110047619D01*
X83904761Y-109952380D01*
X83857142Y-109904761D01*
X83761904Y-109857142D01*
X82952380Y-109857142D01*
G04 #@! TO.C,R1*
X79391190Y-66492380D02*
X79057857Y-66016190D01*
X78819761Y-66492380D02*
X78819761Y-65492380D01*
X79200714Y-65492380D01*
X79295952Y-65540000D01*
X79343571Y-65587619D01*
X79391190Y-65682857D01*
X79391190Y-65825714D01*
X79343571Y-65920952D01*
X79295952Y-65968571D01*
X79200714Y-66016190D01*
X78819761Y-66016190D01*
X79581666Y-66587619D02*
X80343571Y-66587619D01*
X80581666Y-66492380D02*
X80581666Y-65492380D01*
X80962619Y-65492380D01*
X81057857Y-65540000D01*
X81105476Y-65587619D01*
X81153095Y-65682857D01*
X81153095Y-65825714D01*
X81105476Y-65920952D01*
X81057857Y-65968571D01*
X80962619Y-66016190D01*
X80581666Y-66016190D01*
X81581666Y-66492380D02*
X81581666Y-65492380D01*
X81581666Y-65968571D02*
X82153095Y-65968571D01*
X82153095Y-66492380D02*
X82153095Y-65492380D01*
X82819761Y-65492380D02*
X83010238Y-65492380D01*
X83105476Y-65540000D01*
X83200714Y-65635238D01*
X83248333Y-65825714D01*
X83248333Y-66159047D01*
X83200714Y-66349523D01*
X83105476Y-66444761D01*
X83010238Y-66492380D01*
X82819761Y-66492380D01*
X82724523Y-66444761D01*
X82629285Y-66349523D01*
X82581666Y-66159047D01*
X82581666Y-65825714D01*
X82629285Y-65635238D01*
X82724523Y-65540000D01*
X82819761Y-65492380D01*
X83534047Y-65492380D02*
X84105476Y-65492380D01*
X83819761Y-66492380D02*
X83819761Y-65492380D01*
X84629285Y-65492380D02*
X84819761Y-65492380D01*
X84915000Y-65540000D01*
X85010238Y-65635238D01*
X85057857Y-65825714D01*
X85057857Y-66159047D01*
X85010238Y-66349523D01*
X84915000Y-66444761D01*
X84819761Y-66492380D01*
X84629285Y-66492380D01*
X84534047Y-66444761D01*
X84438809Y-66349523D01*
X84391190Y-66159047D01*
X84391190Y-65825714D01*
X84438809Y-65635238D01*
X84534047Y-65540000D01*
X84629285Y-65492380D01*
G04 #@! TO.C,TH1*
D13*
X95607333Y-138988190D02*
X95893047Y-138988190D01*
X95750190Y-139488190D02*
X95750190Y-138988190D01*
X96059714Y-139488190D02*
X96059714Y-138988190D01*
X96274000Y-139488190D02*
X96274000Y-139226285D01*
X96250190Y-139178666D01*
X96202571Y-139154857D01*
X96131142Y-139154857D01*
X96083523Y-139178666D01*
X96059714Y-139202476D01*
X96702571Y-139464380D02*
X96654952Y-139488190D01*
X96559714Y-139488190D01*
X96512095Y-139464380D01*
X96488285Y-139416761D01*
X96488285Y-139226285D01*
X96512095Y-139178666D01*
X96559714Y-139154857D01*
X96654952Y-139154857D01*
X96702571Y-139178666D01*
X96726380Y-139226285D01*
X96726380Y-139273904D01*
X96488285Y-139321523D01*
X96940666Y-139488190D02*
X96940666Y-139154857D01*
X96940666Y-139250095D02*
X96964476Y-139202476D01*
X96988285Y-139178666D01*
X97035904Y-139154857D01*
X97083523Y-139154857D01*
X97250190Y-139488190D02*
X97250190Y-139154857D01*
X97250190Y-139202476D02*
X97274000Y-139178666D01*
X97321619Y-139154857D01*
X97393047Y-139154857D01*
X97440666Y-139178666D01*
X97464476Y-139226285D01*
X97464476Y-139488190D01*
X97464476Y-139226285D02*
X97488285Y-139178666D01*
X97535904Y-139154857D01*
X97607333Y-139154857D01*
X97654952Y-139178666D01*
X97678761Y-139226285D01*
X97678761Y-139488190D01*
X97916857Y-139488190D02*
X97916857Y-139154857D01*
X97916857Y-138988190D02*
X97893047Y-139012000D01*
X97916857Y-139035809D01*
X97940666Y-139012000D01*
X97916857Y-138988190D01*
X97916857Y-139035809D01*
X98131142Y-139464380D02*
X98178761Y-139488190D01*
X98274000Y-139488190D01*
X98321619Y-139464380D01*
X98345428Y-139416761D01*
X98345428Y-139392952D01*
X98321619Y-139345333D01*
X98274000Y-139321523D01*
X98202571Y-139321523D01*
X98154952Y-139297714D01*
X98131142Y-139250095D01*
X98131142Y-139226285D01*
X98154952Y-139178666D01*
X98202571Y-139154857D01*
X98274000Y-139154857D01*
X98321619Y-139178666D01*
X98488285Y-139154857D02*
X98678761Y-139154857D01*
X98559714Y-138988190D02*
X98559714Y-139416761D01*
X98583523Y-139464380D01*
X98631142Y-139488190D01*
X98678761Y-139488190D01*
X98916857Y-139488190D02*
X98869238Y-139464380D01*
X98845428Y-139440571D01*
X98821619Y-139392952D01*
X98821619Y-139250095D01*
X98845428Y-139202476D01*
X98869238Y-139178666D01*
X98916857Y-139154857D01*
X98988285Y-139154857D01*
X99035904Y-139178666D01*
X99059714Y-139202476D01*
X99083523Y-139250095D01*
X99083523Y-139392952D01*
X99059714Y-139440571D01*
X99035904Y-139464380D01*
X98988285Y-139488190D01*
X98916857Y-139488190D01*
X99297809Y-139488190D02*
X99297809Y-139154857D01*
X99297809Y-139250095D02*
X99321619Y-139202476D01*
X99345428Y-139178666D01*
X99393047Y-139154857D01*
X99440666Y-139154857D01*
G04 #@! TD*
M02*
