G04 #@! TF.GenerationSoftware,KiCad,Pcbnew,5.0.2-bee76a0~70~ubuntu16.04.1*
G04 #@! TF.CreationDate,2019-09-24T08:49:17-06:00*
G04 #@! TF.ProjectId,soil_sensor_kicad_tht,736f696c-5f73-4656-9e73-6f725f6b6963,rev?*
G04 #@! TF.SameCoordinates,Original*
G04 #@! TF.FileFunction,Copper,L1,Top*
G04 #@! TF.FilePolarity,Positive*
%FSLAX46Y46*%
G04 Gerber Fmt 4.6, Leading zero omitted, Abs format (unit mm)*
G04 Created by KiCad (PCBNEW 5.0.2-bee76a0~70~ubuntu16.04.1) date Tue 24 Sep 2019 08:49:17 AM MDT*
%MOMM*%
%LPD*%
G01*
G04 APERTURE LIST*
G04 #@! TA.AperFunction,ComponentPad*
%ADD10O,1.800000X1.800000*%
G04 #@! TD*
G04 #@! TA.AperFunction,ComponentPad*
%ADD11C,1.800000*%
G04 #@! TD*
G04 #@! TA.AperFunction,ComponentPad*
%ADD12O,1.900000X1.150000*%
G04 #@! TD*
G04 #@! TA.AperFunction,ComponentPad*
%ADD13R,1.400000X1.400000*%
G04 #@! TD*
G04 #@! TA.AperFunction,ComponentPad*
%ADD14C,1.400000*%
G04 #@! TD*
G04 #@! TA.AperFunction,ComponentPad*
%ADD15O,1.070000X1.800000*%
G04 #@! TD*
G04 #@! TA.AperFunction,ComponentPad*
%ADD16R,1.070000X1.800000*%
G04 #@! TD*
G04 #@! TA.AperFunction,ComponentPad*
%ADD17C,1.200000*%
G04 #@! TD*
G04 #@! TA.AperFunction,ComponentPad*
%ADD18O,1.200000X2.800000*%
G04 #@! TD*
G04 #@! TA.AperFunction,SMDPad,CuDef*
%ADD19R,1.560000X0.650000*%
G04 #@! TD*
G04 #@! TA.AperFunction,ComponentPad*
%ADD20C,2.000000*%
G04 #@! TD*
G04 #@! TA.AperFunction,ComponentPad*
%ADD21R,2.000000X2.000000*%
G04 #@! TD*
G04 #@! TA.AperFunction,ComponentPad*
%ADD22R,1.700000X1.700000*%
G04 #@! TD*
G04 #@! TA.AperFunction,ComponentPad*
%ADD23O,1.700000X1.700000*%
G04 #@! TD*
G04 #@! TA.AperFunction,ComponentPad*
%ADD24C,1.600000*%
G04 #@! TD*
G04 #@! TA.AperFunction,ComponentPad*
%ADD25R,1.600000X1.600000*%
G04 #@! TD*
G04 #@! TA.AperFunction,ComponentPad*
%ADD26C,1.500000*%
G04 #@! TD*
G04 #@! TA.AperFunction,ComponentPad*
%ADD27O,1.600000X1.600000*%
G04 #@! TD*
G04 #@! TA.AperFunction,ComponentPad*
%ADD28O,1.400000X1.400000*%
G04 #@! TD*
G04 #@! TA.AperFunction,ViaPad*
%ADD29C,0.800000*%
G04 #@! TD*
G04 #@! TA.AperFunction,Conductor*
%ADD30C,0.250000*%
G04 #@! TD*
G04 #@! TA.AperFunction,Conductor*
%ADD31C,0.500000*%
G04 #@! TD*
G04 APERTURE END LIST*
D10*
G04 #@! TO.P,R7,2*
G04 #@! TO.N,Net-(D1-Pad4)*
X99500000Y-78180000D03*
D11*
G04 #@! TO.P,R7,1*
G04 #@! TO.N,Net-(Q3-Pad1)*
X99500000Y-85800000D03*
G04 #@! TD*
G04 #@! TO.P,R6,1*
G04 #@! TO.N,Net-(Q2-Pad1)*
X97000000Y-85800000D03*
D10*
G04 #@! TO.P,R6,2*
G04 #@! TO.N,Net-(D1-Pad3)*
X97000000Y-78180000D03*
G04 #@! TD*
G04 #@! TO.P,R4,2*
G04 #@! TO.N,Reset*
X93620000Y-125000000D03*
D11*
G04 #@! TO.P,R4,1*
G04 #@! TO.N,+5V*
X86000000Y-125000000D03*
G04 #@! TD*
G04 #@! TO.P,R3,1*
G04 #@! TO.N,SoilSensorIn*
X81500000Y-108500000D03*
D10*
G04 #@! TO.P,R3,2*
G04 #@! TO.N,GND*
X81500000Y-116120000D03*
G04 #@! TD*
G04 #@! TO.P,R2,2*
G04 #@! TO.N,GND*
X81500000Y-118880000D03*
D11*
G04 #@! TO.P,R2,1*
G04 #@! TO.N,LDR*
X81500000Y-126500000D03*
G04 #@! TD*
G04 #@! TO.P,R5,1*
G04 #@! TO.N,Net-(Q1-Pad1)*
X94400000Y-85800000D03*
D10*
G04 #@! TO.P,R5,2*
G04 #@! TO.N,Net-(D1-Pad2)*
X94400000Y-78180000D03*
G04 #@! TD*
G04 #@! TO.P,R8,2*
G04 #@! TO.N,Net-(Q1-Pad2)*
X80645000Y-81280000D03*
D11*
G04 #@! TO.P,R8,1*
G04 #@! TO.N,Red*
X80645000Y-88900000D03*
G04 #@! TD*
G04 #@! TO.P,R9,1*
G04 #@! TO.N,Green*
X83185000Y-85090000D03*
D10*
G04 #@! TO.P,R9,2*
G04 #@! TO.N,Net-(Q2-Pad2)*
X83185000Y-77470000D03*
G04 #@! TD*
G04 #@! TO.P,R10,2*
G04 #@! TO.N,Net-(Q3-Pad2)*
X85725000Y-76200000D03*
D11*
G04 #@! TO.P,R10,1*
G04 #@! TO.N,Blue*
X85725000Y-83820000D03*
G04 #@! TD*
G04 #@! TO.P,R11,1*
G04 #@! TO.N,GND*
X98500000Y-125500000D03*
D10*
G04 #@! TO.P,R11,2*
G04 #@! TO.N,Thermistor*
X98500000Y-133120000D03*
G04 #@! TD*
G04 #@! TO.P,R12,2*
G04 #@! TO.N,GND*
X81500000Y-129380000D03*
D11*
G04 #@! TO.P,R12,1*
G04 #@! TO.N,Net-(BZ1-Pad2)*
X81500000Y-137000000D03*
G04 #@! TD*
G04 #@! TO.P,R13,1*
G04 #@! TO.N,Net-(J4-Pad3)*
X93500000Y-68000000D03*
D10*
G04 #@! TO.P,R13,2*
G04 #@! TO.N,Net-(R13-Pad2)*
X85880000Y-68000000D03*
G04 #@! TD*
D12*
G04 #@! TO.P,Q1,2*
G04 #@! TO.N,Net-(Q1-Pad2)*
X91000000Y-84230000D03*
G04 #@! TO.P,Q1,3*
G04 #@! TO.N,+5V*
X91000000Y-82579000D03*
G04 #@! TO.P,Q1,1*
G04 #@! TO.N,Net-(Q1-Pad1)*
X91000000Y-85881000D03*
G04 #@! TD*
G04 #@! TO.P,Q2,1*
G04 #@! TO.N,Net-(Q2-Pad1)*
X91000000Y-80381000D03*
G04 #@! TO.P,Q2,3*
G04 #@! TO.N,+5V*
X91000000Y-77079000D03*
G04 #@! TO.P,Q2,2*
G04 #@! TO.N,Net-(Q2-Pad2)*
X91000000Y-78730000D03*
G04 #@! TD*
G04 #@! TO.P,Q3,2*
G04 #@! TO.N,Net-(Q3-Pad2)*
X91000000Y-73230000D03*
G04 #@! TO.P,Q3,3*
G04 #@! TO.N,+5V*
X91000000Y-71579000D03*
G04 #@! TO.P,Q3,1*
G04 #@! TO.N,Net-(Q3-Pad1)*
X91000000Y-74881000D03*
G04 #@! TD*
D13*
G04 #@! TO.P,C1,1*
G04 #@! TO.N,+5V*
X96746000Y-109000000D03*
D14*
G04 #@! TO.P,C1,2*
G04 #@! TO.N,GND*
X98778000Y-109000000D03*
G04 #@! TD*
D15*
G04 #@! TO.P,D1,2*
G04 #@! TO.N,Net-(D1-Pad2)*
X94592000Y-73500000D03*
D16*
G04 #@! TO.P,D1,1*
G04 #@! TO.N,GND*
X96243000Y-73500000D03*
D15*
G04 #@! TO.P,D1,3*
G04 #@! TO.N,Net-(D1-Pad3)*
X97894000Y-73500000D03*
G04 #@! TO.P,D1,4*
G04 #@! TO.N,Net-(D1-Pad4)*
X99545000Y-73500000D03*
G04 #@! TD*
D17*
G04 #@! TO.P,J4,1*
G04 #@! TO.N,+5V*
X95885000Y-63500000D03*
G04 #@! TO.P,J4,2*
G04 #@! TO.N,SCK*
X93385000Y-63500000D03*
G04 #@! TO.P,J4,3*
G04 #@! TO.N,Net-(J4-Pad3)*
X91385000Y-63500000D03*
G04 #@! TO.P,J4,4*
G04 #@! TO.N,GND*
X88885000Y-63500000D03*
G04 #@! TO.P,J4,5*
G04 #@! TO.N,Net-(J4-Pad5)*
X88385000Y-65000000D03*
G04 #@! TO.P,J4,6*
G04 #@! TO.N,Net-(J4-Pad6)*
X90385000Y-65000000D03*
G04 #@! TO.P,J4,7*
G04 #@! TO.N,GND*
X92385000Y-65000000D03*
G04 #@! TO.P,J4,8*
G04 #@! TO.N,SS*
X94385000Y-65000000D03*
G04 #@! TO.P,J4,9*
G04 #@! TO.N,MOSI*
X96385000Y-65000000D03*
D18*
G04 #@! TO.P,J4,10*
G04 #@! TO.N,GND*
X84963000Y-60960000D03*
X99822000Y-60960000D03*
G04 #@! TD*
D19*
G04 #@! TO.P,U2,1*
G04 #@! TO.N,SS*
X85170000Y-73340000D03*
G04 #@! TO.P,U2,2*
G04 #@! TO.N,MISO*
X85170000Y-72390000D03*
G04 #@! TO.P,U2,3*
G04 #@! TO.N,GND*
X85170000Y-71440000D03*
G04 #@! TO.P,U2,4*
G04 #@! TO.N,Net-(R13-Pad2)*
X82470000Y-71440000D03*
G04 #@! TO.P,U2,5*
G04 #@! TO.N,+5V*
X82470000Y-73340000D03*
G04 #@! TD*
D20*
G04 #@! TO.P,BZ1,2*
G04 #@! TO.N,Net-(BZ1-Pad2)*
X85700000Y-133500000D03*
D21*
G04 #@! TO.P,BZ1,1*
G04 #@! TO.N,Buzzer*
X93300000Y-133500000D03*
G04 #@! TD*
D22*
G04 #@! TO.P,J1,1*
G04 #@! TO.N,SoilSensorIn*
X88500000Y-144000000D03*
D23*
G04 #@! TO.P,J1,2*
G04 #@! TO.N,SoilSensorOut*
X91040000Y-144000000D03*
G04 #@! TD*
D22*
G04 #@! TO.P,J2,1*
G04 #@! TO.N,GND*
X99000000Y-121500000D03*
D23*
G04 #@! TO.P,J2,2*
G04 #@! TO.N,RX*
X99000000Y-118960000D03*
G04 #@! TO.P,J2,3*
G04 #@! TO.N,TX*
X99000000Y-116420000D03*
G04 #@! TD*
D22*
G04 #@! TO.P,J3,1*
G04 #@! TO.N,GND*
X80500000Y-105000000D03*
D23*
G04 #@! TO.P,J3,2*
G04 #@! TO.N,SCK*
X80500000Y-102460000D03*
G04 #@! TO.P,J3,3*
G04 #@! TO.N,MISO*
X80500000Y-99920000D03*
G04 #@! TO.P,J3,4*
G04 #@! TO.N,MOSI*
X80500000Y-97380000D03*
G04 #@! TO.P,J3,5*
G04 #@! TO.N,Reset*
X80500000Y-94840000D03*
G04 #@! TD*
D24*
G04 #@! TO.P,C2,2*
G04 #@! TO.N,Net-(C2-Pad2)*
X98950000Y-103750000D03*
D25*
G04 #@! TO.P,C2,1*
G04 #@! TO.N,GND*
X96450000Y-103750000D03*
G04 #@! TD*
D24*
G04 #@! TO.P,C3,1*
G04 #@! TO.N,Net-(C3-Pad1)*
X98950000Y-89250000D03*
D25*
G04 #@! TO.P,C3,2*
G04 #@! TO.N,GND*
X96450000Y-89250000D03*
G04 #@! TD*
D26*
G04 #@! TO.P,Y1,1*
G04 #@! TO.N,Net-(C2-Pad2)*
X97450000Y-99000000D03*
G04 #@! TO.P,Y1,2*
G04 #@! TO.N,Net-(C3-Pad1)*
X97450000Y-94100000D03*
G04 #@! TD*
D25*
G04 #@! TO.P,U1,1*
G04 #@! TO.N,Reset*
X93250000Y-121750000D03*
D27*
G04 #@! TO.P,U1,15*
G04 #@! TO.N,Red*
X85630000Y-88730000D03*
G04 #@! TO.P,U1,2*
G04 #@! TO.N,RX*
X93250000Y-119210000D03*
G04 #@! TO.P,U1,16*
G04 #@! TO.N,SS*
X85630000Y-91270000D03*
G04 #@! TO.P,U1,3*
G04 #@! TO.N,TX*
X93250000Y-116670000D03*
G04 #@! TO.P,U1,17*
G04 #@! TO.N,MOSI*
X85630000Y-93810000D03*
G04 #@! TO.P,U1,4*
G04 #@! TO.N,SoilSensorOut*
X93250000Y-114130000D03*
G04 #@! TO.P,U1,18*
G04 #@! TO.N,MISO*
X85630000Y-96350000D03*
G04 #@! TO.P,U1,5*
G04 #@! TO.N,Buzzer*
X93250000Y-111590000D03*
G04 #@! TO.P,U1,19*
G04 #@! TO.N,SCK*
X85630000Y-98890000D03*
G04 #@! TO.P,U1,6*
G04 #@! TO.N,Net-(U1-Pad6)*
X93250000Y-109050000D03*
G04 #@! TO.P,U1,20*
G04 #@! TO.N,+5V*
X85630000Y-101430000D03*
G04 #@! TO.P,U1,7*
X93250000Y-106510000D03*
G04 #@! TO.P,U1,21*
X85630000Y-103970000D03*
D25*
G04 #@! TO.P,U1,8*
G04 #@! TO.N,GND*
X93250000Y-103970000D03*
G04 #@! TO.P,U1,22*
X85630000Y-106510000D03*
D27*
G04 #@! TO.P,U1,9*
G04 #@! TO.N,Net-(C2-Pad2)*
X93250000Y-101430000D03*
G04 #@! TO.P,U1,23*
G04 #@! TO.N,Net-(U1-Pad23)*
X85630000Y-109050000D03*
G04 #@! TO.P,U1,10*
G04 #@! TO.N,Net-(C3-Pad1)*
X93250000Y-98890000D03*
G04 #@! TO.P,U1,24*
G04 #@! TO.N,Net-(U1-Pad24)*
X85630000Y-111590000D03*
G04 #@! TO.P,U1,11*
G04 #@! TO.N,Green*
X93250000Y-96350000D03*
G04 #@! TO.P,U1,25*
G04 #@! TO.N,Net-(U1-Pad25)*
X85630000Y-114130000D03*
G04 #@! TO.P,U1,12*
G04 #@! TO.N,Blue*
X93250000Y-93810000D03*
G04 #@! TO.P,U1,26*
G04 #@! TO.N,SoilSensorIn*
X85630000Y-116670000D03*
G04 #@! TO.P,U1,13*
G04 #@! TO.N,Net-(U1-Pad13)*
X93250000Y-91270000D03*
G04 #@! TO.P,U1,27*
G04 #@! TO.N,Thermistor*
X85630000Y-119210000D03*
G04 #@! TO.P,U1,14*
G04 #@! TO.N,Net-(U1-Pad14)*
X93250000Y-88730000D03*
G04 #@! TO.P,U1,28*
G04 #@! TO.N,LDR*
X85630000Y-121750000D03*
G04 #@! TD*
D28*
G04 #@! TO.P,R1,2*
G04 #@! TO.N,LDR*
X80650000Y-67945000D03*
D14*
G04 #@! TO.P,R1,1*
G04 #@! TO.N,+5V*
X82550000Y-67945000D03*
G04 #@! TD*
G04 #@! TO.P,TH1,1*
G04 #@! TO.N,Thermistor*
X98552000Y-137668000D03*
D28*
G04 #@! TO.P,TH1,2*
G04 #@! TO.N,+5V*
X96652000Y-137668000D03*
G04 #@! TD*
D29*
G04 #@! TO.N,Net-(Q1-Pad2)*
X87159000Y-81026000D03*
G04 #@! TO.N,GND*
X86995000Y-70485000D03*
G04 #@! TO.N,LDR*
X79243347Y-90936653D03*
G04 #@! TO.N,SoilSensorIn*
X88392000Y-124968000D03*
G04 #@! TO.N,Net-(Q2-Pad2)*
X87159000Y-78740000D03*
G04 #@! TO.N,Reset*
X89955000Y-119380000D03*
X82612653Y-102932653D03*
G04 #@! TO.N,MOSI*
X87878070Y-73660012D03*
G04 #@! TO.N,SCK*
X90750000Y-69500000D03*
G04 #@! TO.N,Buzzer*
X94996000Y-121412000D03*
G04 #@! TD*
D30*
G04 #@! TO.N,Red*
X80815000Y-88730000D02*
X80645000Y-88900000D01*
X85630000Y-88730000D02*
X80815000Y-88730000D01*
G04 #@! TO.N,Net-(Q1-Pad2)*
X80899000Y-81026000D02*
X80645000Y-81280000D01*
X87159000Y-81026000D02*
X80899000Y-81026000D01*
G04 #@! TO.N,Thermistor*
X98500000Y-137616000D02*
X98552000Y-137668000D01*
X98500000Y-133120000D02*
X98500000Y-137616000D01*
G04 #@! TO.N,GND*
X86040000Y-71440000D02*
X86995000Y-70485000D01*
X85170000Y-71440000D02*
X86040000Y-71440000D01*
G04 #@! TO.N,Net-(Q3-Pad2)*
X86061410Y-76200000D02*
X85725000Y-76200000D01*
G04 #@! TO.N,Net-(D1-Pad4)*
X99545000Y-78135000D02*
X99500000Y-78180000D01*
X99545000Y-73500000D02*
X99545000Y-78135000D01*
G04 #@! TO.N,Net-(Q2-Pad1)*
X91000000Y-80500000D02*
X91000000Y-80000000D01*
G04 #@! TO.N,Net-(D1-Pad3)*
X97040000Y-77340000D02*
X96500000Y-77880000D01*
X97894000Y-77286000D02*
X97000000Y-78180000D01*
X97894000Y-73500000D02*
X97894000Y-77286000D01*
G04 #@! TO.N,Net-(D1-Pad2)*
X94250000Y-73750000D02*
X94500000Y-73500000D01*
X94592000Y-77988000D02*
X94400000Y-78180000D01*
X94592000Y-73500000D02*
X94592000Y-77988000D01*
G04 #@! TO.N,LDR*
X79243347Y-90936653D02*
X79243347Y-119883347D01*
X81110000Y-121750000D02*
X85630000Y-121750000D01*
X79243347Y-119883347D02*
X81110000Y-121750000D01*
X81500000Y-125880000D02*
X81500000Y-126500000D01*
X85630000Y-121750000D02*
X81500000Y-125880000D01*
G04 #@! TO.N,SoilSensorIn*
X84830001Y-115870001D02*
X85630000Y-116670000D01*
X82399999Y-113439999D02*
X84830001Y-115870001D01*
X82399999Y-109399999D02*
X82399999Y-113439999D01*
X81500000Y-108500000D02*
X82399999Y-109399999D01*
X88500000Y-125076000D02*
X88392000Y-124968000D01*
X88500000Y-144000000D02*
X88500000Y-125076000D01*
G04 #@! TO.N,Net-(Q2-Pad2)*
X84455000Y-78740000D02*
X83185000Y-77470000D01*
X87159000Y-78740000D02*
X84455000Y-78740000D01*
D31*
G04 #@! TO.N,+5V*
X85630000Y-101430000D02*
X85630000Y-103970000D01*
X90805000Y-104140000D02*
X90880000Y-104140000D01*
X92649999Y-86420001D02*
X90805000Y-88265000D01*
X92649999Y-77470000D02*
X92639999Y-77460000D01*
X92649999Y-83185000D02*
X92649999Y-86420001D01*
X92450000Y-71579000D02*
X91000000Y-71579000D01*
X92649999Y-71778999D02*
X92450000Y-71579000D01*
X92529000Y-77000000D02*
X92649999Y-77000000D01*
X92450000Y-77079000D02*
X92529000Y-77000000D01*
X91000000Y-77079000D02*
X92450000Y-77079000D01*
X92649999Y-77470000D02*
X92649999Y-77000000D01*
X92649999Y-77000000D02*
X92649999Y-71778999D01*
X92529000Y-82500000D02*
X92649999Y-82500000D01*
X92450000Y-82579000D02*
X92529000Y-82500000D01*
X91000000Y-82579000D02*
X92450000Y-82579000D01*
X92649999Y-77470000D02*
X92649999Y-82500000D01*
X92649999Y-82500000D02*
X92649999Y-83185000D01*
X94381370Y-106510000D02*
X93250000Y-106510000D01*
X95456000Y-106510000D02*
X94381370Y-106510000D01*
X96746000Y-107800000D02*
X95456000Y-106510000D01*
X96746000Y-109000000D02*
X96746000Y-107800000D01*
X92450000Y-71579000D02*
X92886000Y-71579000D01*
X96733528Y-63500000D02*
X95885000Y-63500000D01*
X97790000Y-64556472D02*
X96733528Y-63500000D01*
X97790000Y-66675000D02*
X97790000Y-64556472D01*
D30*
X90170000Y-66675000D02*
X92720001Y-69225001D01*
D31*
X92886000Y-71579000D02*
X93980000Y-70485000D01*
D30*
X82550000Y-67945000D02*
X83820000Y-66675000D01*
X83820000Y-66675000D02*
X90170000Y-66675000D01*
D31*
X94615000Y-69850000D02*
X97790000Y-66675000D01*
D30*
X92720001Y-69225001D02*
X93345000Y-69850000D01*
D31*
X94310200Y-70154800D02*
X94615000Y-69850000D01*
D30*
X94310200Y-70154800D02*
X94030800Y-70154800D01*
D31*
X93980000Y-70485000D02*
X94310200Y-70154800D01*
D30*
X93726000Y-69850000D02*
X93345000Y-69850000D01*
X94310200Y-70154800D02*
X94310200Y-70129400D01*
X94310200Y-70129400D02*
X94030800Y-69850000D01*
X94030800Y-69850000D02*
X93726000Y-69850000D01*
X94615000Y-69850000D02*
X94030800Y-69850000D01*
X93980000Y-70485000D02*
X93980000Y-70104000D01*
X93827600Y-69951600D02*
X93726000Y-69850000D01*
X93980000Y-70104000D02*
X93827600Y-69951600D01*
X94030800Y-70154800D02*
X93827600Y-69951600D01*
X93599000Y-70104000D02*
X93980000Y-70104000D01*
X93599000Y-70104000D02*
X93980000Y-70485000D01*
X93446600Y-69951600D02*
X93827600Y-69951600D01*
X93345000Y-69850000D02*
X93446600Y-69951600D01*
X93446600Y-69951600D02*
X93599000Y-70104000D01*
D31*
X90635000Y-103970000D02*
X90805000Y-104140000D01*
X90805000Y-120195000D02*
X86000000Y-125000000D01*
X90805000Y-103886000D02*
X90805000Y-104140000D01*
X90170000Y-104013000D02*
X90805000Y-104648000D01*
X90170000Y-103970000D02*
X90170000Y-104013000D01*
X90170000Y-103970000D02*
X90635000Y-103970000D01*
X85630000Y-103970000D02*
X90170000Y-103970000D01*
X90805000Y-103886000D02*
X90805000Y-104648000D01*
X90805000Y-104648000D02*
X90805000Y-120195000D01*
X90857000Y-104700000D02*
X90805000Y-104648000D01*
X91440000Y-104700000D02*
X90857000Y-104700000D01*
X90880000Y-104140000D02*
X91440000Y-104700000D01*
X91440000Y-104700000D02*
X93250000Y-106510000D01*
X90805000Y-103378000D02*
X90805000Y-103886000D01*
X90170000Y-104013000D02*
X90805000Y-103378000D01*
X90805000Y-88265000D02*
X90805000Y-103378000D01*
D30*
X82015000Y-73340000D02*
X80645000Y-71970000D01*
X82470000Y-73340000D02*
X82015000Y-73340000D01*
X80645000Y-69850000D02*
X82550000Y-67945000D01*
X80645000Y-71970000D02*
X80645000Y-69850000D01*
G04 #@! TO.N,SoilSensorOut*
X91380010Y-114868620D02*
X91380010Y-129091990D01*
X92118630Y-114130000D02*
X91380010Y-114868620D01*
X93250000Y-114130000D02*
X92118630Y-114130000D01*
X91040000Y-129432000D02*
X91040000Y-144000000D01*
X91380010Y-129091990D02*
X91040000Y-129432000D01*
G04 #@! TO.N,Net-(C2-Pad2)*
X97450000Y-102250000D02*
X98950000Y-103750000D01*
X97450000Y-99000000D02*
X97450000Y-102250000D01*
X93820000Y-101430000D02*
X93250000Y-101430000D01*
X95020000Y-101430000D02*
X93250000Y-101430000D01*
X97450000Y-99000000D02*
X95020000Y-101430000D01*
G04 #@! TO.N,Net-(C3-Pad1)*
X98150001Y-90049999D02*
X98950000Y-89250000D01*
X97450000Y-90750000D02*
X98150001Y-90049999D01*
X97450000Y-94100000D02*
X97450000Y-90750000D01*
X94785000Y-98890000D02*
X93250000Y-98890000D01*
X97450000Y-96225000D02*
X94785000Y-98890000D01*
X97450000Y-94100000D02*
X97450000Y-96225000D01*
G04 #@! TO.N,Reset*
X93620000Y-122120000D02*
X93250000Y-121750000D01*
X93620000Y-125000000D02*
X93620000Y-122120000D01*
X86868000Y-105156000D02*
X84836000Y-105156000D01*
X89955000Y-108243000D02*
X86868000Y-105156000D01*
X84836000Y-105156000D02*
X82612653Y-102932653D01*
X89955000Y-119380000D02*
X89955000Y-108243000D01*
G04 #@! TO.N,RX*
X93500000Y-118960000D02*
X93250000Y-119210000D01*
X99000000Y-118960000D02*
X93500000Y-118960000D01*
G04 #@! TO.N,TX*
X93500000Y-116420000D02*
X93250000Y-116670000D01*
X99000000Y-116420000D02*
X93500000Y-116420000D01*
G04 #@! TO.N,SS*
X83901000Y-75184000D02*
X85170000Y-73915000D01*
X85630000Y-91270000D02*
X80602000Y-91270000D01*
X80602000Y-91270000D02*
X78994000Y-89662000D01*
X85170000Y-73915000D02*
X85170000Y-73340000D01*
X78994000Y-89662000D02*
X78994000Y-78486000D01*
X82296000Y-75184000D02*
X83901000Y-75184000D01*
X78994000Y-78486000D02*
X82296000Y-75184000D01*
X82296000Y-75184000D02*
X78994000Y-71882000D01*
X78994000Y-71882000D02*
X78994000Y-66548000D01*
X78994000Y-66548000D02*
X80542000Y-65000000D01*
X80542000Y-65000000D02*
X84860000Y-65000000D01*
X84860000Y-65000000D02*
X87630000Y-62230000D01*
X93345000Y-62230000D02*
X93980000Y-62230000D01*
X87630000Y-62230000D02*
X93345000Y-62230000D01*
X93345000Y-62230000D02*
X93484002Y-62230000D01*
X93980000Y-62230000D02*
X94615000Y-62865000D01*
X94615000Y-62865000D02*
X94615000Y-64135000D01*
X94615000Y-64135000D02*
X94615000Y-64770000D01*
G04 #@! TO.N,MOSI*
X85320000Y-93810000D02*
X85630000Y-93810000D01*
X86761370Y-93810000D02*
X87884000Y-92687370D01*
X85630000Y-93810000D02*
X86761370Y-93810000D01*
X87884000Y-73665942D02*
X87878070Y-73660012D01*
X87884000Y-92687370D02*
X87884000Y-73665942D01*
X82060000Y-97380000D02*
X85630000Y-93810000D01*
X80500000Y-97380000D02*
X82060000Y-97380000D01*
G04 #@! TO.N,MISO*
X85320000Y-96350000D02*
X85630000Y-96350000D01*
X88646000Y-93334000D02*
X85630000Y-96350000D01*
X88646000Y-72898000D02*
X88601410Y-72898000D01*
X88601410Y-72898000D02*
X88646000Y-93334000D01*
X88138000Y-72390000D02*
X85170000Y-72390000D01*
X88646000Y-72898000D02*
X88138000Y-72390000D01*
X82060000Y-99920000D02*
X85630000Y-96350000D01*
X80500000Y-99920000D02*
X82060000Y-99920000D01*
G04 #@! TO.N,SCK*
X85320000Y-98890000D02*
X85630000Y-98890000D01*
X89326410Y-95193590D02*
X85630000Y-98890000D01*
X89326410Y-70923590D02*
X89326410Y-95193590D01*
X90750000Y-69500000D02*
X89326410Y-70923590D01*
X82060000Y-102460000D02*
X85630000Y-98890000D01*
X80500000Y-102460000D02*
X82060000Y-102460000D01*
G04 #@! TO.N,Net-(BZ1-Pad2)*
X85000000Y-133500000D02*
X85700000Y-133500000D01*
X81500000Y-137000000D02*
X85000000Y-133500000D01*
G04 #@! TO.N,Buzzer*
X94550000Y-133500000D02*
X93300000Y-133500000D01*
X94996000Y-133054000D02*
X94550000Y-133500000D01*
X94996000Y-121412000D02*
X94996000Y-133054000D01*
G04 #@! TO.N,Net-(J4-Pad3)*
X91385000Y-65885000D02*
X91385000Y-63500000D01*
X93500000Y-68000000D02*
X91385000Y-65885000D01*
G04 #@! TO.N,Net-(R13-Pad2)*
X85880000Y-68485000D02*
X85880000Y-68000000D01*
X82925000Y-71440000D02*
X85880000Y-68485000D01*
X82470000Y-71440000D02*
X82925000Y-71440000D01*
G04 #@! TD*
M02*
