G04 #@! TF.GenerationSoftware,KiCad,Pcbnew,5.0.2-bee76a0~70~ubuntu16.04.1*
G04 #@! TF.CreationDate,2019-09-24T08:49:17-06:00*
G04 #@! TF.ProjectId,soil_sensor_kicad_tht,736f696c-5f73-4656-9e73-6f725f6b6963,rev?*
G04 #@! TF.SameCoordinates,Original*
G04 #@! TF.FileFunction,Soldermask,Bot*
G04 #@! TF.FilePolarity,Negative*
%FSLAX46Y46*%
G04 Gerber Fmt 4.6, Leading zero omitted, Abs format (unit mm)*
G04 Created by KiCad (PCBNEW 5.0.2-bee76a0~70~ubuntu16.04.1) date Tue 24 Sep 2019 08:49:17 AM MDT*
%MOMM*%
%LPD*%
G01*
G04 APERTURE LIST*
%ADD10C,0.100000*%
G04 APERTURE END LIST*
D10*
G36*
X97990038Y-141884561D02*
X98295779Y-142011203D01*
X98567274Y-142192611D01*
X98570941Y-142195061D01*
X98804939Y-142429059D01*
X98804941Y-142429062D01*
X98988797Y-142704221D01*
X99115439Y-143009962D01*
X99180000Y-143334534D01*
X99180000Y-143665466D01*
X99115439Y-143990038D01*
X98988797Y-144295779D01*
X98839526Y-144519178D01*
X98804939Y-144570941D01*
X98570941Y-144804939D01*
X98570938Y-144804941D01*
X98295779Y-144988797D01*
X98295778Y-144988798D01*
X98295777Y-144988798D01*
X97990038Y-145115439D01*
X97665467Y-145180000D01*
X97334533Y-145180000D01*
X97009962Y-145115439D01*
X96704223Y-144988798D01*
X96704222Y-144988798D01*
X96704221Y-144988797D01*
X96429062Y-144804941D01*
X96429059Y-144804939D01*
X96195061Y-144570941D01*
X96160474Y-144519178D01*
X96011203Y-144295779D01*
X95884561Y-143990038D01*
X95820000Y-143665466D01*
X95820000Y-143334534D01*
X95884561Y-143009962D01*
X96011203Y-142704221D01*
X96195059Y-142429062D01*
X96195061Y-142429059D01*
X96429059Y-142195061D01*
X96432726Y-142192611D01*
X96704221Y-142011203D01*
X97009962Y-141884561D01*
X97334533Y-141820000D01*
X97665467Y-141820000D01*
X97990038Y-141884561D01*
X97990038Y-141884561D01*
G37*
G36*
X82490038Y-141884561D02*
X82795779Y-142011203D01*
X83067274Y-142192611D01*
X83070941Y-142195061D01*
X83304939Y-142429059D01*
X83304941Y-142429062D01*
X83488797Y-142704221D01*
X83615439Y-143009962D01*
X83680000Y-143334534D01*
X83680000Y-143665466D01*
X83615439Y-143990038D01*
X83488797Y-144295779D01*
X83339526Y-144519178D01*
X83304939Y-144570941D01*
X83070941Y-144804939D01*
X83070938Y-144804941D01*
X82795779Y-144988797D01*
X82795778Y-144988798D01*
X82795777Y-144988798D01*
X82490038Y-145115439D01*
X82165467Y-145180000D01*
X81834533Y-145180000D01*
X81509962Y-145115439D01*
X81204223Y-144988798D01*
X81204222Y-144988798D01*
X81204221Y-144988797D01*
X80929062Y-144804941D01*
X80929059Y-144804939D01*
X80695061Y-144570941D01*
X80660474Y-144519178D01*
X80511203Y-144295779D01*
X80384561Y-143990038D01*
X80320000Y-143665466D01*
X80320000Y-143334534D01*
X80384561Y-143009962D01*
X80511203Y-142704221D01*
X80695059Y-142429062D01*
X80695061Y-142429059D01*
X80929059Y-142195061D01*
X80932726Y-142192611D01*
X81204221Y-142011203D01*
X81509962Y-141884561D01*
X81834533Y-141820000D01*
X82165467Y-141820000D01*
X82490038Y-141884561D01*
X82490038Y-141884561D01*
G37*
G36*
X89430000Y-144930000D02*
X87570000Y-144930000D01*
X87570000Y-143070000D01*
X89430000Y-143070000D01*
X89430000Y-144930000D01*
X89430000Y-144930000D01*
G37*
G36*
X91113006Y-143072691D02*
X91222312Y-143083457D01*
X91397617Y-143136636D01*
X91559180Y-143222992D01*
X91700791Y-143339209D01*
X91817008Y-143480820D01*
X91903364Y-143642383D01*
X91956543Y-143817688D01*
X91974499Y-144000000D01*
X91956543Y-144182312D01*
X91903364Y-144357617D01*
X91817008Y-144519180D01*
X91700791Y-144660791D01*
X91559180Y-144777008D01*
X91397617Y-144863364D01*
X91222312Y-144916543D01*
X91113006Y-144927309D01*
X91085681Y-144930000D01*
X90994319Y-144930000D01*
X90966994Y-144927309D01*
X90857688Y-144916543D01*
X90682383Y-144863364D01*
X90520820Y-144777008D01*
X90379209Y-144660791D01*
X90262992Y-144519180D01*
X90176636Y-144357617D01*
X90123457Y-144182312D01*
X90105501Y-144000000D01*
X90123457Y-143817688D01*
X90176636Y-143642383D01*
X90262992Y-143480820D01*
X90379209Y-143339209D01*
X90520820Y-143222992D01*
X90682383Y-143136636D01*
X90857688Y-143083457D01*
X90966994Y-143072691D01*
X90994319Y-143070000D01*
X91085681Y-143070000D01*
X91113006Y-143072691D01*
X91113006Y-143072691D01*
G37*
G36*
X98779518Y-136917975D02*
X98921465Y-136976771D01*
X98921466Y-136976772D01*
X98921469Y-136976773D01*
X99049221Y-137062135D01*
X99049225Y-137062138D01*
X99157862Y-137170775D01*
X99157864Y-137170778D01*
X99157865Y-137170779D01*
X99243227Y-137298531D01*
X99243228Y-137298534D01*
X99243229Y-137298535D01*
X99302025Y-137440482D01*
X99332000Y-137591176D01*
X99332000Y-137744824D01*
X99302025Y-137895518D01*
X99267032Y-137980000D01*
X99243227Y-138037469D01*
X99157865Y-138165221D01*
X99157862Y-138165225D01*
X99049225Y-138273862D01*
X99049222Y-138273864D01*
X99049221Y-138273865D01*
X98921469Y-138359227D01*
X98921466Y-138359228D01*
X98921465Y-138359229D01*
X98779518Y-138418025D01*
X98628824Y-138448000D01*
X98475176Y-138448000D01*
X98324482Y-138418025D01*
X98182535Y-138359229D01*
X98182534Y-138359228D01*
X98182531Y-138359227D01*
X98054779Y-138273865D01*
X98054778Y-138273864D01*
X98054775Y-138273862D01*
X97946138Y-138165225D01*
X97946135Y-138165221D01*
X97860773Y-138037469D01*
X97836969Y-137980000D01*
X97801975Y-137895518D01*
X97772000Y-137744824D01*
X97772000Y-137591176D01*
X97801975Y-137440482D01*
X97860771Y-137298535D01*
X97860772Y-137298534D01*
X97860773Y-137298531D01*
X97946135Y-137170779D01*
X97946136Y-137170778D01*
X97946138Y-137170775D01*
X98054775Y-137062138D01*
X98054779Y-137062135D01*
X98182531Y-136976773D01*
X98182534Y-136976772D01*
X98182535Y-136976771D01*
X98324482Y-136917975D01*
X98475176Y-136888000D01*
X98628824Y-136888000D01*
X98779518Y-136917975D01*
X98779518Y-136917975D01*
G37*
G36*
X96804907Y-136899286D02*
X96951937Y-136943887D01*
X97087442Y-137016316D01*
X97206212Y-137113788D01*
X97303684Y-137232558D01*
X97376113Y-137368063D01*
X97420714Y-137515093D01*
X97435774Y-137668000D01*
X97420714Y-137820907D01*
X97376113Y-137967937D01*
X97303684Y-138103442D01*
X97206212Y-138222212D01*
X97087442Y-138319684D01*
X96951937Y-138392113D01*
X96804907Y-138436714D01*
X96690318Y-138448000D01*
X96613682Y-138448000D01*
X96499093Y-138436714D01*
X96352063Y-138392113D01*
X96216558Y-138319684D01*
X96097788Y-138222212D01*
X96000316Y-138103442D01*
X95927887Y-137967937D01*
X95883286Y-137820907D01*
X95868226Y-137668000D01*
X95883286Y-137515093D01*
X95927887Y-137368063D01*
X96000316Y-137232558D01*
X96097788Y-137113788D01*
X96216558Y-137016316D01*
X96352063Y-136943887D01*
X96499093Y-136899286D01*
X96613682Y-136888000D01*
X96690318Y-136888000D01*
X96804907Y-136899286D01*
X96804907Y-136899286D01*
G37*
G36*
X81785856Y-136057660D02*
X81964203Y-136131534D01*
X82124717Y-136238786D01*
X82261214Y-136375283D01*
X82368466Y-136535797D01*
X82442340Y-136714144D01*
X82480000Y-136903477D01*
X82480000Y-137096523D01*
X82442340Y-137285856D01*
X82368466Y-137464203D01*
X82261214Y-137624717D01*
X82124717Y-137761214D01*
X81964203Y-137868466D01*
X81785856Y-137942340D01*
X81596523Y-137980000D01*
X81403477Y-137980000D01*
X81214144Y-137942340D01*
X81035797Y-137868466D01*
X80875283Y-137761214D01*
X80738786Y-137624717D01*
X80631534Y-137464203D01*
X80557660Y-137285856D01*
X80520000Y-137096523D01*
X80520000Y-136903477D01*
X80557660Y-136714144D01*
X80631534Y-136535797D01*
X80738786Y-136375283D01*
X80875283Y-136238786D01*
X81035797Y-136131534D01*
X81214144Y-136057660D01*
X81403477Y-136020000D01*
X81596523Y-136020000D01*
X81785856Y-136057660D01*
X81785856Y-136057660D01*
G37*
G36*
X94380000Y-134580000D02*
X92220000Y-134580000D01*
X92220000Y-132420000D01*
X94380000Y-132420000D01*
X94380000Y-134580000D01*
X94380000Y-134580000D01*
G37*
G36*
X86015024Y-132461503D02*
X86211572Y-132542916D01*
X86388460Y-132661109D01*
X86538891Y-132811540D01*
X86657084Y-132988428D01*
X86738497Y-133184976D01*
X86780000Y-133393629D01*
X86780000Y-133606371D01*
X86738497Y-133815024D01*
X86657084Y-134011572D01*
X86538891Y-134188460D01*
X86388460Y-134338891D01*
X86211572Y-134457084D01*
X86015024Y-134538497D01*
X85806371Y-134580000D01*
X85593629Y-134580000D01*
X85384976Y-134538497D01*
X85188428Y-134457084D01*
X85011540Y-134338891D01*
X84861109Y-134188460D01*
X84742916Y-134011572D01*
X84661503Y-133815024D01*
X84620000Y-133606371D01*
X84620000Y-133393629D01*
X84661503Y-133184976D01*
X84742916Y-132988428D01*
X84861109Y-132811540D01*
X85011540Y-132661109D01*
X85188428Y-132542916D01*
X85384976Y-132461503D01*
X85593629Y-132420000D01*
X85806371Y-132420000D01*
X86015024Y-132461503D01*
X86015024Y-132461503D01*
G37*
G36*
X98692110Y-132154180D02*
X98692113Y-132154181D01*
X98876844Y-132210218D01*
X99047093Y-132301218D01*
X99196317Y-132423683D01*
X99318782Y-132572907D01*
X99409782Y-132743156D01*
X99430526Y-132811540D01*
X99465820Y-132927890D01*
X99484741Y-133120000D01*
X99465820Y-133312110D01*
X99465819Y-133312113D01*
X99409782Y-133496844D01*
X99318782Y-133667093D01*
X99196317Y-133816317D01*
X99047093Y-133938782D01*
X98876844Y-134029782D01*
X98726501Y-134075388D01*
X98692110Y-134085820D01*
X98548139Y-134100000D01*
X98451861Y-134100000D01*
X98307890Y-134085820D01*
X98273499Y-134075388D01*
X98123156Y-134029782D01*
X97952907Y-133938782D01*
X97803683Y-133816317D01*
X97681218Y-133667093D01*
X97590218Y-133496844D01*
X97534181Y-133312113D01*
X97534180Y-133312110D01*
X97515259Y-133120000D01*
X97534180Y-132927890D01*
X97569474Y-132811540D01*
X97590218Y-132743156D01*
X97681218Y-132572907D01*
X97803683Y-132423683D01*
X97952907Y-132301218D01*
X98123156Y-132210218D01*
X98307887Y-132154181D01*
X98307890Y-132154180D01*
X98451861Y-132140000D01*
X98548139Y-132140000D01*
X98692110Y-132154180D01*
X98692110Y-132154180D01*
G37*
G36*
X81692110Y-128414180D02*
X81692113Y-128414181D01*
X81876844Y-128470218D01*
X82047093Y-128561218D01*
X82047095Y-128561219D01*
X82047094Y-128561219D01*
X82196317Y-128683683D01*
X82318781Y-128832906D01*
X82409781Y-129003154D01*
X82465820Y-129187890D01*
X82484741Y-129380000D01*
X82465820Y-129572110D01*
X82465819Y-129572113D01*
X82409782Y-129756844D01*
X82318782Y-129927093D01*
X82196317Y-130076317D01*
X82047093Y-130198782D01*
X81876844Y-130289782D01*
X81726501Y-130335388D01*
X81692110Y-130345820D01*
X81548139Y-130360000D01*
X81451861Y-130360000D01*
X81307890Y-130345820D01*
X81273499Y-130335388D01*
X81123156Y-130289782D01*
X80952907Y-130198782D01*
X80803683Y-130076317D01*
X80681218Y-129927093D01*
X80590218Y-129756844D01*
X80534181Y-129572113D01*
X80534180Y-129572110D01*
X80515259Y-129380000D01*
X80534180Y-129187890D01*
X80590219Y-129003154D01*
X80681219Y-128832906D01*
X80803683Y-128683683D01*
X80952906Y-128561219D01*
X80952905Y-128561219D01*
X80952907Y-128561218D01*
X81123156Y-128470218D01*
X81307887Y-128414181D01*
X81307890Y-128414180D01*
X81451861Y-128400000D01*
X81548139Y-128400000D01*
X81692110Y-128414180D01*
X81692110Y-128414180D01*
G37*
G36*
X81785856Y-125557660D02*
X81964203Y-125631534D01*
X82124717Y-125738786D01*
X82261214Y-125875283D01*
X82368466Y-126035797D01*
X82442340Y-126214144D01*
X82480000Y-126403477D01*
X82480000Y-126596523D01*
X82442340Y-126785856D01*
X82368466Y-126964203D01*
X82261214Y-127124717D01*
X82124717Y-127261214D01*
X81964203Y-127368466D01*
X81785856Y-127442340D01*
X81596523Y-127480000D01*
X81403477Y-127480000D01*
X81214144Y-127442340D01*
X81035797Y-127368466D01*
X80875283Y-127261214D01*
X80738786Y-127124717D01*
X80631534Y-126964203D01*
X80557660Y-126785856D01*
X80520000Y-126596523D01*
X80520000Y-126403477D01*
X80557660Y-126214144D01*
X80631534Y-126035797D01*
X80738786Y-125875283D01*
X80875283Y-125738786D01*
X81035797Y-125631534D01*
X81214144Y-125557660D01*
X81403477Y-125520000D01*
X81596523Y-125520000D01*
X81785856Y-125557660D01*
X81785856Y-125557660D01*
G37*
G36*
X98785856Y-124557660D02*
X98964203Y-124631534D01*
X99124717Y-124738786D01*
X99261214Y-124875283D01*
X99368466Y-125035797D01*
X99442340Y-125214144D01*
X99480000Y-125403477D01*
X99480000Y-125596523D01*
X99442340Y-125785856D01*
X99368466Y-125964203D01*
X99261214Y-126124717D01*
X99124717Y-126261214D01*
X98964203Y-126368466D01*
X98785856Y-126442340D01*
X98596523Y-126480000D01*
X98403477Y-126480000D01*
X98214144Y-126442340D01*
X98035797Y-126368466D01*
X97875283Y-126261214D01*
X97738786Y-126124717D01*
X97631534Y-125964203D01*
X97557660Y-125785856D01*
X97520000Y-125596523D01*
X97520000Y-125403477D01*
X97557660Y-125214144D01*
X97631534Y-125035797D01*
X97738786Y-124875283D01*
X97875283Y-124738786D01*
X98035797Y-124631534D01*
X98214144Y-124557660D01*
X98403477Y-124520000D01*
X98596523Y-124520000D01*
X98785856Y-124557660D01*
X98785856Y-124557660D01*
G37*
G36*
X93812110Y-124034180D02*
X93812113Y-124034181D01*
X93996844Y-124090218D01*
X94167093Y-124181218D01*
X94316317Y-124303683D01*
X94438782Y-124452907D01*
X94529782Y-124623156D01*
X94564857Y-124738784D01*
X94585820Y-124807890D01*
X94604741Y-125000000D01*
X94585820Y-125192110D01*
X94585819Y-125192113D01*
X94529782Y-125376844D01*
X94438782Y-125547093D01*
X94316317Y-125696317D01*
X94167093Y-125818782D01*
X93996844Y-125909782D01*
X93846501Y-125955388D01*
X93812110Y-125965820D01*
X93668139Y-125980000D01*
X93571861Y-125980000D01*
X93427890Y-125965820D01*
X93393499Y-125955388D01*
X93243156Y-125909782D01*
X93072907Y-125818782D01*
X92923683Y-125696317D01*
X92801218Y-125547093D01*
X92710218Y-125376844D01*
X92654181Y-125192113D01*
X92654180Y-125192110D01*
X92635259Y-125000000D01*
X92654180Y-124807890D01*
X92675143Y-124738784D01*
X92710218Y-124623156D01*
X92801218Y-124452907D01*
X92923683Y-124303683D01*
X93072907Y-124181218D01*
X93243156Y-124090218D01*
X93427887Y-124034181D01*
X93427890Y-124034180D01*
X93571861Y-124020000D01*
X93668139Y-124020000D01*
X93812110Y-124034180D01*
X93812110Y-124034180D01*
G37*
G36*
X86285856Y-124057660D02*
X86464203Y-124131534D01*
X86624717Y-124238786D01*
X86761214Y-124375283D01*
X86868466Y-124535797D01*
X86942340Y-124714144D01*
X86980000Y-124903477D01*
X86980000Y-125096523D01*
X86942340Y-125285856D01*
X86868466Y-125464203D01*
X86761214Y-125624717D01*
X86624717Y-125761214D01*
X86464203Y-125868466D01*
X86285856Y-125942340D01*
X86096523Y-125980000D01*
X85903477Y-125980000D01*
X85714144Y-125942340D01*
X85535797Y-125868466D01*
X85375283Y-125761214D01*
X85238786Y-125624717D01*
X85131534Y-125464203D01*
X85057660Y-125285856D01*
X85020000Y-125096523D01*
X85020000Y-124903477D01*
X85057660Y-124714144D01*
X85131534Y-124535797D01*
X85238786Y-124375283D01*
X85375283Y-124238786D01*
X85535797Y-124131534D01*
X85714144Y-124057660D01*
X85903477Y-124020000D01*
X86096523Y-124020000D01*
X86285856Y-124057660D01*
X86285856Y-124057660D01*
G37*
G36*
X94130000Y-122630000D02*
X92370000Y-122630000D01*
X92370000Y-120870000D01*
X94130000Y-120870000D01*
X94130000Y-122630000D01*
X94130000Y-122630000D01*
G37*
G36*
X85802506Y-120882733D02*
X85802509Y-120882734D01*
X85802510Y-120882734D01*
X85968391Y-120933053D01*
X85968394Y-120933055D01*
X85968395Y-120933055D01*
X86121267Y-121014766D01*
X86255264Y-121124736D01*
X86365234Y-121258733D01*
X86446945Y-121411605D01*
X86446947Y-121411609D01*
X86497266Y-121577490D01*
X86497267Y-121577494D01*
X86514257Y-121750000D01*
X86497267Y-121922506D01*
X86497266Y-121922509D01*
X86497266Y-121922510D01*
X86446947Y-122088391D01*
X86446945Y-122088394D01*
X86446945Y-122088395D01*
X86365234Y-122241267D01*
X86255264Y-122375264D01*
X86121267Y-122485234D01*
X85968395Y-122566945D01*
X85968391Y-122566947D01*
X85802510Y-122617266D01*
X85802509Y-122617266D01*
X85802506Y-122617267D01*
X85673225Y-122630000D01*
X85586775Y-122630000D01*
X85457494Y-122617267D01*
X85457491Y-122617266D01*
X85457490Y-122617266D01*
X85291609Y-122566947D01*
X85291605Y-122566945D01*
X85138733Y-122485234D01*
X85004736Y-122375264D01*
X84894766Y-122241267D01*
X84813055Y-122088395D01*
X84813055Y-122088394D01*
X84813053Y-122088391D01*
X84762734Y-121922510D01*
X84762734Y-121922509D01*
X84762733Y-121922506D01*
X84745743Y-121750000D01*
X84762733Y-121577494D01*
X84762734Y-121577490D01*
X84813053Y-121411609D01*
X84813055Y-121411605D01*
X84894766Y-121258733D01*
X85004736Y-121124736D01*
X85138733Y-121014766D01*
X85291605Y-120933055D01*
X85291606Y-120933055D01*
X85291609Y-120933053D01*
X85457490Y-120882734D01*
X85457491Y-120882734D01*
X85457494Y-120882733D01*
X85586775Y-120870000D01*
X85673225Y-120870000D01*
X85802506Y-120882733D01*
X85802506Y-120882733D01*
G37*
G36*
X99930000Y-122430000D02*
X98070000Y-122430000D01*
X98070000Y-120570000D01*
X99930000Y-120570000D01*
X99930000Y-122430000D01*
X99930000Y-122430000D01*
G37*
G36*
X93422506Y-118342733D02*
X93422509Y-118342734D01*
X93422510Y-118342734D01*
X93588391Y-118393053D01*
X93588394Y-118393055D01*
X93588395Y-118393055D01*
X93741267Y-118474766D01*
X93875264Y-118584736D01*
X93985234Y-118718733D01*
X94066945Y-118871605D01*
X94066947Y-118871609D01*
X94117266Y-119037490D01*
X94117267Y-119037494D01*
X94134257Y-119210000D01*
X94117267Y-119382506D01*
X94117266Y-119382509D01*
X94117266Y-119382510D01*
X94066947Y-119548391D01*
X94066945Y-119548394D01*
X94066945Y-119548395D01*
X93985234Y-119701267D01*
X93875264Y-119835264D01*
X93741267Y-119945234D01*
X93588395Y-120026945D01*
X93588391Y-120026947D01*
X93422510Y-120077266D01*
X93422509Y-120077266D01*
X93422506Y-120077267D01*
X93293225Y-120090000D01*
X93206775Y-120090000D01*
X93077494Y-120077267D01*
X93077491Y-120077266D01*
X93077490Y-120077266D01*
X92911609Y-120026947D01*
X92911605Y-120026945D01*
X92758733Y-119945234D01*
X92624736Y-119835264D01*
X92514766Y-119701267D01*
X92433055Y-119548395D01*
X92433055Y-119548394D01*
X92433053Y-119548391D01*
X92382734Y-119382510D01*
X92382734Y-119382509D01*
X92382733Y-119382506D01*
X92365743Y-119210000D01*
X92382733Y-119037494D01*
X92382734Y-119037490D01*
X92433053Y-118871609D01*
X92433055Y-118871605D01*
X92514766Y-118718733D01*
X92624736Y-118584736D01*
X92758733Y-118474766D01*
X92911605Y-118393055D01*
X92911606Y-118393055D01*
X92911609Y-118393053D01*
X93077490Y-118342734D01*
X93077491Y-118342734D01*
X93077494Y-118342733D01*
X93206775Y-118330000D01*
X93293225Y-118330000D01*
X93422506Y-118342733D01*
X93422506Y-118342733D01*
G37*
G36*
X85802506Y-118342733D02*
X85802509Y-118342734D01*
X85802510Y-118342734D01*
X85968391Y-118393053D01*
X85968394Y-118393055D01*
X85968395Y-118393055D01*
X86121267Y-118474766D01*
X86255264Y-118584736D01*
X86365234Y-118718733D01*
X86446945Y-118871605D01*
X86446947Y-118871609D01*
X86497266Y-119037490D01*
X86497267Y-119037494D01*
X86514257Y-119210000D01*
X86497267Y-119382506D01*
X86497266Y-119382509D01*
X86497266Y-119382510D01*
X86446947Y-119548391D01*
X86446945Y-119548394D01*
X86446945Y-119548395D01*
X86365234Y-119701267D01*
X86255264Y-119835264D01*
X86121267Y-119945234D01*
X85968395Y-120026945D01*
X85968391Y-120026947D01*
X85802510Y-120077266D01*
X85802509Y-120077266D01*
X85802506Y-120077267D01*
X85673225Y-120090000D01*
X85586775Y-120090000D01*
X85457494Y-120077267D01*
X85457491Y-120077266D01*
X85457490Y-120077266D01*
X85291609Y-120026947D01*
X85291605Y-120026945D01*
X85138733Y-119945234D01*
X85004736Y-119835264D01*
X84894766Y-119701267D01*
X84813055Y-119548395D01*
X84813055Y-119548394D01*
X84813053Y-119548391D01*
X84762734Y-119382510D01*
X84762734Y-119382509D01*
X84762733Y-119382506D01*
X84745743Y-119210000D01*
X84762733Y-119037494D01*
X84762734Y-119037490D01*
X84813053Y-118871609D01*
X84813055Y-118871605D01*
X84894766Y-118718733D01*
X85004736Y-118584736D01*
X85138733Y-118474766D01*
X85291605Y-118393055D01*
X85291606Y-118393055D01*
X85291609Y-118393053D01*
X85457490Y-118342734D01*
X85457491Y-118342734D01*
X85457494Y-118342733D01*
X85586775Y-118330000D01*
X85673225Y-118330000D01*
X85802506Y-118342733D01*
X85802506Y-118342733D01*
G37*
G36*
X99073006Y-118032691D02*
X99182312Y-118043457D01*
X99357617Y-118096636D01*
X99519180Y-118182992D01*
X99660791Y-118299209D01*
X99777008Y-118440820D01*
X99863364Y-118602383D01*
X99916543Y-118777688D01*
X99934499Y-118960000D01*
X99916543Y-119142312D01*
X99863364Y-119317617D01*
X99777008Y-119479180D01*
X99660791Y-119620791D01*
X99519180Y-119737008D01*
X99357617Y-119823364D01*
X99182312Y-119876543D01*
X99073006Y-119887309D01*
X99045681Y-119890000D01*
X98954319Y-119890000D01*
X98926994Y-119887309D01*
X98817688Y-119876543D01*
X98642383Y-119823364D01*
X98480820Y-119737008D01*
X98339209Y-119620791D01*
X98222992Y-119479180D01*
X98136636Y-119317617D01*
X98083457Y-119142312D01*
X98065501Y-118960000D01*
X98083457Y-118777688D01*
X98136636Y-118602383D01*
X98222992Y-118440820D01*
X98339209Y-118299209D01*
X98480820Y-118182992D01*
X98642383Y-118096636D01*
X98817688Y-118043457D01*
X98926994Y-118032691D01*
X98954319Y-118030000D01*
X99045681Y-118030000D01*
X99073006Y-118032691D01*
X99073006Y-118032691D01*
G37*
G36*
X81692110Y-117914180D02*
X81692113Y-117914181D01*
X81876844Y-117970218D01*
X82047093Y-118061218D01*
X82196317Y-118183683D01*
X82318782Y-118332907D01*
X82350932Y-118393055D01*
X82409781Y-118503154D01*
X82465820Y-118687890D01*
X82484741Y-118880000D01*
X82465820Y-119072110D01*
X82465819Y-119072113D01*
X82409782Y-119256844D01*
X82318782Y-119427093D01*
X82196317Y-119576317D01*
X82047093Y-119698782D01*
X81876844Y-119789782D01*
X81766141Y-119823363D01*
X81692110Y-119845820D01*
X81548139Y-119860000D01*
X81451861Y-119860000D01*
X81307890Y-119845820D01*
X81233859Y-119823363D01*
X81123156Y-119789782D01*
X80952907Y-119698782D01*
X80803683Y-119576317D01*
X80681218Y-119427093D01*
X80590218Y-119256844D01*
X80534181Y-119072113D01*
X80534180Y-119072110D01*
X80515259Y-118880000D01*
X80534180Y-118687890D01*
X80590219Y-118503154D01*
X80649068Y-118393055D01*
X80681218Y-118332907D01*
X80803683Y-118183683D01*
X80952907Y-118061218D01*
X81123156Y-117970218D01*
X81307887Y-117914181D01*
X81307890Y-117914180D01*
X81451861Y-117900000D01*
X81548139Y-117900000D01*
X81692110Y-117914180D01*
X81692110Y-117914180D01*
G37*
G36*
X93422506Y-115802733D02*
X93422509Y-115802734D01*
X93422510Y-115802734D01*
X93588391Y-115853053D01*
X93588394Y-115853055D01*
X93588395Y-115853055D01*
X93741267Y-115934766D01*
X93875264Y-116044736D01*
X93985234Y-116178733D01*
X94056525Y-116312110D01*
X94066947Y-116331609D01*
X94117266Y-116497490D01*
X94117267Y-116497494D01*
X94134257Y-116670000D01*
X94117267Y-116842506D01*
X94117266Y-116842509D01*
X94117266Y-116842510D01*
X94066947Y-117008391D01*
X94066945Y-117008394D01*
X94066945Y-117008395D01*
X93985234Y-117161267D01*
X93875264Y-117295264D01*
X93741267Y-117405234D01*
X93588395Y-117486945D01*
X93588391Y-117486947D01*
X93422510Y-117537266D01*
X93422509Y-117537266D01*
X93422506Y-117537267D01*
X93293225Y-117550000D01*
X93206775Y-117550000D01*
X93077494Y-117537267D01*
X93077491Y-117537266D01*
X93077490Y-117537266D01*
X92911609Y-117486947D01*
X92911605Y-117486945D01*
X92758733Y-117405234D01*
X92624736Y-117295264D01*
X92514766Y-117161267D01*
X92433055Y-117008395D01*
X92433055Y-117008394D01*
X92433053Y-117008391D01*
X92382734Y-116842510D01*
X92382734Y-116842509D01*
X92382733Y-116842506D01*
X92365743Y-116670000D01*
X92382733Y-116497494D01*
X92382734Y-116497490D01*
X92433053Y-116331609D01*
X92443475Y-116312110D01*
X92514766Y-116178733D01*
X92624736Y-116044736D01*
X92758733Y-115934766D01*
X92911605Y-115853055D01*
X92911606Y-115853055D01*
X92911609Y-115853053D01*
X93077490Y-115802734D01*
X93077491Y-115802734D01*
X93077494Y-115802733D01*
X93206775Y-115790000D01*
X93293225Y-115790000D01*
X93422506Y-115802733D01*
X93422506Y-115802733D01*
G37*
G36*
X85802506Y-115802733D02*
X85802509Y-115802734D01*
X85802510Y-115802734D01*
X85968391Y-115853053D01*
X85968394Y-115853055D01*
X85968395Y-115853055D01*
X86121267Y-115934766D01*
X86255264Y-116044736D01*
X86365234Y-116178733D01*
X86436525Y-116312110D01*
X86446947Y-116331609D01*
X86497266Y-116497490D01*
X86497267Y-116497494D01*
X86514257Y-116670000D01*
X86497267Y-116842506D01*
X86497266Y-116842509D01*
X86497266Y-116842510D01*
X86446947Y-117008391D01*
X86446945Y-117008394D01*
X86446945Y-117008395D01*
X86365234Y-117161267D01*
X86255264Y-117295264D01*
X86121267Y-117405234D01*
X85968395Y-117486945D01*
X85968391Y-117486947D01*
X85802510Y-117537266D01*
X85802509Y-117537266D01*
X85802506Y-117537267D01*
X85673225Y-117550000D01*
X85586775Y-117550000D01*
X85457494Y-117537267D01*
X85457491Y-117537266D01*
X85457490Y-117537266D01*
X85291609Y-117486947D01*
X85291605Y-117486945D01*
X85138733Y-117405234D01*
X85004736Y-117295264D01*
X84894766Y-117161267D01*
X84813055Y-117008395D01*
X84813055Y-117008394D01*
X84813053Y-117008391D01*
X84762734Y-116842510D01*
X84762734Y-116842509D01*
X84762733Y-116842506D01*
X84745743Y-116670000D01*
X84762733Y-116497494D01*
X84762734Y-116497490D01*
X84813053Y-116331609D01*
X84823475Y-116312110D01*
X84894766Y-116178733D01*
X85004736Y-116044736D01*
X85138733Y-115934766D01*
X85291605Y-115853055D01*
X85291606Y-115853055D01*
X85291609Y-115853053D01*
X85457490Y-115802734D01*
X85457491Y-115802734D01*
X85457494Y-115802733D01*
X85586775Y-115790000D01*
X85673225Y-115790000D01*
X85802506Y-115802733D01*
X85802506Y-115802733D01*
G37*
G36*
X99073006Y-115492691D02*
X99182312Y-115503457D01*
X99357617Y-115556636D01*
X99519180Y-115642992D01*
X99660791Y-115759209D01*
X99777008Y-115900820D01*
X99863364Y-116062383D01*
X99916543Y-116237688D01*
X99934499Y-116420000D01*
X99916543Y-116602312D01*
X99863364Y-116777617D01*
X99777008Y-116939180D01*
X99660791Y-117080791D01*
X99519180Y-117197008D01*
X99357617Y-117283364D01*
X99182312Y-117336543D01*
X99073006Y-117347309D01*
X99045681Y-117350000D01*
X98954319Y-117350000D01*
X98926994Y-117347309D01*
X98817688Y-117336543D01*
X98642383Y-117283364D01*
X98480820Y-117197008D01*
X98339209Y-117080791D01*
X98222992Y-116939180D01*
X98136636Y-116777617D01*
X98083457Y-116602312D01*
X98065501Y-116420000D01*
X98083457Y-116237688D01*
X98136636Y-116062383D01*
X98222992Y-115900820D01*
X98339209Y-115759209D01*
X98480820Y-115642992D01*
X98642383Y-115556636D01*
X98817688Y-115503457D01*
X98926994Y-115492691D01*
X98954319Y-115490000D01*
X99045681Y-115490000D01*
X99073006Y-115492691D01*
X99073006Y-115492691D01*
G37*
G36*
X81692110Y-115154180D02*
X81692113Y-115154181D01*
X81876844Y-115210218D01*
X82047093Y-115301218D01*
X82196317Y-115423683D01*
X82318782Y-115572907D01*
X82409782Y-115743156D01*
X82443119Y-115853055D01*
X82465820Y-115927890D01*
X82484741Y-116120000D01*
X82465820Y-116312110D01*
X82465819Y-116312113D01*
X82409782Y-116496844D01*
X82318782Y-116667093D01*
X82196317Y-116816317D01*
X82047093Y-116938782D01*
X81876844Y-117029782D01*
X81726501Y-117075388D01*
X81692110Y-117085820D01*
X81548139Y-117100000D01*
X81451861Y-117100000D01*
X81307890Y-117085820D01*
X81273499Y-117075388D01*
X81123156Y-117029782D01*
X80952907Y-116938782D01*
X80803683Y-116816317D01*
X80681218Y-116667093D01*
X80590218Y-116496844D01*
X80534181Y-116312113D01*
X80534180Y-116312110D01*
X80515259Y-116120000D01*
X80534180Y-115927890D01*
X80556881Y-115853055D01*
X80590218Y-115743156D01*
X80681218Y-115572907D01*
X80803683Y-115423683D01*
X80952907Y-115301218D01*
X81123156Y-115210218D01*
X81307887Y-115154181D01*
X81307890Y-115154180D01*
X81451861Y-115140000D01*
X81548139Y-115140000D01*
X81692110Y-115154180D01*
X81692110Y-115154180D01*
G37*
G36*
X85802506Y-113262733D02*
X85802509Y-113262734D01*
X85802510Y-113262734D01*
X85968391Y-113313053D01*
X85968394Y-113313055D01*
X85968395Y-113313055D01*
X86121267Y-113394766D01*
X86255264Y-113504736D01*
X86365234Y-113638733D01*
X86446945Y-113791605D01*
X86446947Y-113791609D01*
X86497266Y-113957490D01*
X86497267Y-113957494D01*
X86514257Y-114130000D01*
X86497267Y-114302506D01*
X86497266Y-114302509D01*
X86497266Y-114302510D01*
X86446947Y-114468391D01*
X86446945Y-114468394D01*
X86446945Y-114468395D01*
X86365234Y-114621267D01*
X86255264Y-114755264D01*
X86121267Y-114865234D01*
X85968395Y-114946945D01*
X85968391Y-114946947D01*
X85802510Y-114997266D01*
X85802509Y-114997266D01*
X85802506Y-114997267D01*
X85673225Y-115010000D01*
X85586775Y-115010000D01*
X85457494Y-114997267D01*
X85457491Y-114997266D01*
X85457490Y-114997266D01*
X85291609Y-114946947D01*
X85291605Y-114946945D01*
X85138733Y-114865234D01*
X85004736Y-114755264D01*
X84894766Y-114621267D01*
X84813055Y-114468395D01*
X84813055Y-114468394D01*
X84813053Y-114468391D01*
X84762734Y-114302510D01*
X84762734Y-114302509D01*
X84762733Y-114302506D01*
X84745743Y-114130000D01*
X84762733Y-113957494D01*
X84762734Y-113957490D01*
X84813053Y-113791609D01*
X84813055Y-113791605D01*
X84894766Y-113638733D01*
X85004736Y-113504736D01*
X85138733Y-113394766D01*
X85291605Y-113313055D01*
X85291606Y-113313055D01*
X85291609Y-113313053D01*
X85457490Y-113262734D01*
X85457491Y-113262734D01*
X85457494Y-113262733D01*
X85586775Y-113250000D01*
X85673225Y-113250000D01*
X85802506Y-113262733D01*
X85802506Y-113262733D01*
G37*
G36*
X93422506Y-113262733D02*
X93422509Y-113262734D01*
X93422510Y-113262734D01*
X93588391Y-113313053D01*
X93588394Y-113313055D01*
X93588395Y-113313055D01*
X93741267Y-113394766D01*
X93875264Y-113504736D01*
X93985234Y-113638733D01*
X94066945Y-113791605D01*
X94066947Y-113791609D01*
X94117266Y-113957490D01*
X94117267Y-113957494D01*
X94134257Y-114130000D01*
X94117267Y-114302506D01*
X94117266Y-114302509D01*
X94117266Y-114302510D01*
X94066947Y-114468391D01*
X94066945Y-114468394D01*
X94066945Y-114468395D01*
X93985234Y-114621267D01*
X93875264Y-114755264D01*
X93741267Y-114865234D01*
X93588395Y-114946945D01*
X93588391Y-114946947D01*
X93422510Y-114997266D01*
X93422509Y-114997266D01*
X93422506Y-114997267D01*
X93293225Y-115010000D01*
X93206775Y-115010000D01*
X93077494Y-114997267D01*
X93077491Y-114997266D01*
X93077490Y-114997266D01*
X92911609Y-114946947D01*
X92911605Y-114946945D01*
X92758733Y-114865234D01*
X92624736Y-114755264D01*
X92514766Y-114621267D01*
X92433055Y-114468395D01*
X92433055Y-114468394D01*
X92433053Y-114468391D01*
X92382734Y-114302510D01*
X92382734Y-114302509D01*
X92382733Y-114302506D01*
X92365743Y-114130000D01*
X92382733Y-113957494D01*
X92382734Y-113957490D01*
X92433053Y-113791609D01*
X92433055Y-113791605D01*
X92514766Y-113638733D01*
X92624736Y-113504736D01*
X92758733Y-113394766D01*
X92911605Y-113313055D01*
X92911606Y-113313055D01*
X92911609Y-113313053D01*
X93077490Y-113262734D01*
X93077491Y-113262734D01*
X93077494Y-113262733D01*
X93206775Y-113250000D01*
X93293225Y-113250000D01*
X93422506Y-113262733D01*
X93422506Y-113262733D01*
G37*
G36*
X93422506Y-110722733D02*
X93422509Y-110722734D01*
X93422510Y-110722734D01*
X93588391Y-110773053D01*
X93588394Y-110773055D01*
X93588395Y-110773055D01*
X93741267Y-110854766D01*
X93875264Y-110964736D01*
X93985234Y-111098733D01*
X94066945Y-111251605D01*
X94066947Y-111251609D01*
X94117266Y-111417490D01*
X94117267Y-111417494D01*
X94134257Y-111590000D01*
X94117267Y-111762506D01*
X94117266Y-111762509D01*
X94117266Y-111762510D01*
X94066947Y-111928391D01*
X94066945Y-111928394D01*
X94066945Y-111928395D01*
X93985234Y-112081267D01*
X93875264Y-112215264D01*
X93741267Y-112325234D01*
X93588395Y-112406945D01*
X93588391Y-112406947D01*
X93422510Y-112457266D01*
X93422509Y-112457266D01*
X93422506Y-112457267D01*
X93293225Y-112470000D01*
X93206775Y-112470000D01*
X93077494Y-112457267D01*
X93077491Y-112457266D01*
X93077490Y-112457266D01*
X92911609Y-112406947D01*
X92911605Y-112406945D01*
X92758733Y-112325234D01*
X92624736Y-112215264D01*
X92514766Y-112081267D01*
X92433055Y-111928395D01*
X92433055Y-111928394D01*
X92433053Y-111928391D01*
X92382734Y-111762510D01*
X92382734Y-111762509D01*
X92382733Y-111762506D01*
X92365743Y-111590000D01*
X92382733Y-111417494D01*
X92382734Y-111417490D01*
X92433053Y-111251609D01*
X92433055Y-111251605D01*
X92514766Y-111098733D01*
X92624736Y-110964736D01*
X92758733Y-110854766D01*
X92911605Y-110773055D01*
X92911606Y-110773055D01*
X92911609Y-110773053D01*
X93077490Y-110722734D01*
X93077491Y-110722734D01*
X93077494Y-110722733D01*
X93206775Y-110710000D01*
X93293225Y-110710000D01*
X93422506Y-110722733D01*
X93422506Y-110722733D01*
G37*
G36*
X85802506Y-110722733D02*
X85802509Y-110722734D01*
X85802510Y-110722734D01*
X85968391Y-110773053D01*
X85968394Y-110773055D01*
X85968395Y-110773055D01*
X86121267Y-110854766D01*
X86255264Y-110964736D01*
X86365234Y-111098733D01*
X86446945Y-111251605D01*
X86446947Y-111251609D01*
X86497266Y-111417490D01*
X86497267Y-111417494D01*
X86514257Y-111590000D01*
X86497267Y-111762506D01*
X86497266Y-111762509D01*
X86497266Y-111762510D01*
X86446947Y-111928391D01*
X86446945Y-111928394D01*
X86446945Y-111928395D01*
X86365234Y-112081267D01*
X86255264Y-112215264D01*
X86121267Y-112325234D01*
X85968395Y-112406945D01*
X85968391Y-112406947D01*
X85802510Y-112457266D01*
X85802509Y-112457266D01*
X85802506Y-112457267D01*
X85673225Y-112470000D01*
X85586775Y-112470000D01*
X85457494Y-112457267D01*
X85457491Y-112457266D01*
X85457490Y-112457266D01*
X85291609Y-112406947D01*
X85291605Y-112406945D01*
X85138733Y-112325234D01*
X85004736Y-112215264D01*
X84894766Y-112081267D01*
X84813055Y-111928395D01*
X84813055Y-111928394D01*
X84813053Y-111928391D01*
X84762734Y-111762510D01*
X84762734Y-111762509D01*
X84762733Y-111762506D01*
X84745743Y-111590000D01*
X84762733Y-111417494D01*
X84762734Y-111417490D01*
X84813053Y-111251609D01*
X84813055Y-111251605D01*
X84894766Y-111098733D01*
X85004736Y-110964736D01*
X85138733Y-110854766D01*
X85291605Y-110773055D01*
X85291606Y-110773055D01*
X85291609Y-110773053D01*
X85457490Y-110722734D01*
X85457491Y-110722734D01*
X85457494Y-110722733D01*
X85586775Y-110710000D01*
X85673225Y-110710000D01*
X85802506Y-110722733D01*
X85802506Y-110722733D01*
G37*
G36*
X93422506Y-108182733D02*
X93422509Y-108182734D01*
X93422510Y-108182734D01*
X93588391Y-108233053D01*
X93588394Y-108233055D01*
X93588395Y-108233055D01*
X93741267Y-108314766D01*
X93875264Y-108424736D01*
X93985234Y-108558733D01*
X94066945Y-108711605D01*
X94066947Y-108711609D01*
X94085412Y-108772482D01*
X94117267Y-108877494D01*
X94134257Y-109050000D01*
X94117267Y-109222506D01*
X94117266Y-109222509D01*
X94117266Y-109222510D01*
X94066947Y-109388391D01*
X94066945Y-109388394D01*
X94066945Y-109388395D01*
X93985234Y-109541267D01*
X93875264Y-109675264D01*
X93741267Y-109785234D01*
X93588395Y-109866945D01*
X93588391Y-109866947D01*
X93422510Y-109917266D01*
X93422509Y-109917266D01*
X93422506Y-109917267D01*
X93293225Y-109930000D01*
X93206775Y-109930000D01*
X93077494Y-109917267D01*
X93077491Y-109917266D01*
X93077490Y-109917266D01*
X92911609Y-109866947D01*
X92911605Y-109866945D01*
X92758733Y-109785234D01*
X92624736Y-109675264D01*
X92514766Y-109541267D01*
X92433055Y-109388395D01*
X92433055Y-109388394D01*
X92433053Y-109388391D01*
X92382734Y-109222510D01*
X92382734Y-109222509D01*
X92382733Y-109222506D01*
X92365743Y-109050000D01*
X92382733Y-108877494D01*
X92414588Y-108772482D01*
X92433053Y-108711609D01*
X92433055Y-108711605D01*
X92514766Y-108558733D01*
X92624736Y-108424736D01*
X92758733Y-108314766D01*
X92911605Y-108233055D01*
X92911606Y-108233055D01*
X92911609Y-108233053D01*
X93077490Y-108182734D01*
X93077491Y-108182734D01*
X93077494Y-108182733D01*
X93206775Y-108170000D01*
X93293225Y-108170000D01*
X93422506Y-108182733D01*
X93422506Y-108182733D01*
G37*
G36*
X85802506Y-108182733D02*
X85802509Y-108182734D01*
X85802510Y-108182734D01*
X85968391Y-108233053D01*
X85968394Y-108233055D01*
X85968395Y-108233055D01*
X86121267Y-108314766D01*
X86255264Y-108424736D01*
X86365234Y-108558733D01*
X86446945Y-108711605D01*
X86446947Y-108711609D01*
X86465412Y-108772482D01*
X86497267Y-108877494D01*
X86514257Y-109050000D01*
X86497267Y-109222506D01*
X86497266Y-109222509D01*
X86497266Y-109222510D01*
X86446947Y-109388391D01*
X86446945Y-109388394D01*
X86446945Y-109388395D01*
X86365234Y-109541267D01*
X86255264Y-109675264D01*
X86121267Y-109785234D01*
X85968395Y-109866945D01*
X85968391Y-109866947D01*
X85802510Y-109917266D01*
X85802509Y-109917266D01*
X85802506Y-109917267D01*
X85673225Y-109930000D01*
X85586775Y-109930000D01*
X85457494Y-109917267D01*
X85457491Y-109917266D01*
X85457490Y-109917266D01*
X85291609Y-109866947D01*
X85291605Y-109866945D01*
X85138733Y-109785234D01*
X85004736Y-109675264D01*
X84894766Y-109541267D01*
X84813055Y-109388395D01*
X84813055Y-109388394D01*
X84813053Y-109388391D01*
X84762734Y-109222510D01*
X84762734Y-109222509D01*
X84762733Y-109222506D01*
X84745743Y-109050000D01*
X84762733Y-108877494D01*
X84794588Y-108772482D01*
X84813053Y-108711609D01*
X84813055Y-108711605D01*
X84894766Y-108558733D01*
X85004736Y-108424736D01*
X85138733Y-108314766D01*
X85291605Y-108233055D01*
X85291606Y-108233055D01*
X85291609Y-108233053D01*
X85457490Y-108182734D01*
X85457491Y-108182734D01*
X85457494Y-108182733D01*
X85586775Y-108170000D01*
X85673225Y-108170000D01*
X85802506Y-108182733D01*
X85802506Y-108182733D01*
G37*
G36*
X99005518Y-108249975D02*
X99147465Y-108308771D01*
X99147466Y-108308772D01*
X99147469Y-108308773D01*
X99275221Y-108394135D01*
X99275225Y-108394138D01*
X99383862Y-108502775D01*
X99383864Y-108502778D01*
X99383865Y-108502779D01*
X99469227Y-108630531D01*
X99469228Y-108630534D01*
X99469229Y-108630535D01*
X99528025Y-108772482D01*
X99558000Y-108923176D01*
X99558000Y-109076824D01*
X99528025Y-109227518D01*
X99469643Y-109368466D01*
X99469227Y-109369469D01*
X99383865Y-109497221D01*
X99383862Y-109497225D01*
X99275225Y-109605862D01*
X99275222Y-109605864D01*
X99275221Y-109605865D01*
X99147469Y-109691227D01*
X99147466Y-109691228D01*
X99147465Y-109691229D01*
X99005518Y-109750025D01*
X98854824Y-109780000D01*
X98701176Y-109780000D01*
X98550482Y-109750025D01*
X98408535Y-109691229D01*
X98408534Y-109691228D01*
X98408531Y-109691227D01*
X98280779Y-109605865D01*
X98280778Y-109605864D01*
X98280775Y-109605862D01*
X98172138Y-109497225D01*
X98172135Y-109497221D01*
X98086773Y-109369469D01*
X98086358Y-109368466D01*
X98027975Y-109227518D01*
X97998000Y-109076824D01*
X97998000Y-108923176D01*
X98027975Y-108772482D01*
X98086771Y-108630535D01*
X98086772Y-108630534D01*
X98086773Y-108630531D01*
X98172135Y-108502779D01*
X98172136Y-108502778D01*
X98172138Y-108502775D01*
X98280775Y-108394138D01*
X98280779Y-108394135D01*
X98408531Y-108308773D01*
X98408534Y-108308772D01*
X98408535Y-108308771D01*
X98550482Y-108249975D01*
X98701176Y-108220000D01*
X98854824Y-108220000D01*
X99005518Y-108249975D01*
X99005518Y-108249975D01*
G37*
G36*
X97526000Y-109780000D02*
X95966000Y-109780000D01*
X95966000Y-108220000D01*
X97526000Y-108220000D01*
X97526000Y-109780000D01*
X97526000Y-109780000D01*
G37*
G36*
X81785856Y-107557660D02*
X81964203Y-107631534D01*
X82124717Y-107738786D01*
X82261214Y-107875283D01*
X82368466Y-108035797D01*
X82442340Y-108214144D01*
X82480000Y-108403477D01*
X82480000Y-108596523D01*
X82442340Y-108785856D01*
X82368466Y-108964203D01*
X82261214Y-109124717D01*
X82124717Y-109261214D01*
X81964203Y-109368466D01*
X81785856Y-109442340D01*
X81596523Y-109480000D01*
X81403477Y-109480000D01*
X81214144Y-109442340D01*
X81035797Y-109368466D01*
X80875283Y-109261214D01*
X80738786Y-109124717D01*
X80631534Y-108964203D01*
X80557660Y-108785856D01*
X80520000Y-108596523D01*
X80520000Y-108403477D01*
X80557660Y-108214144D01*
X80631534Y-108035797D01*
X80738786Y-107875283D01*
X80875283Y-107738786D01*
X81035797Y-107631534D01*
X81214144Y-107557660D01*
X81403477Y-107520000D01*
X81596523Y-107520000D01*
X81785856Y-107557660D01*
X81785856Y-107557660D01*
G37*
G36*
X86510000Y-107390000D02*
X84750000Y-107390000D01*
X84750000Y-105630000D01*
X86510000Y-105630000D01*
X86510000Y-107390000D01*
X86510000Y-107390000D01*
G37*
G36*
X93422506Y-105642733D02*
X93422509Y-105642734D01*
X93422510Y-105642734D01*
X93588391Y-105693053D01*
X93588394Y-105693055D01*
X93588395Y-105693055D01*
X93741267Y-105774766D01*
X93875264Y-105884736D01*
X93985234Y-106018733D01*
X94066945Y-106171605D01*
X94066947Y-106171609D01*
X94117266Y-106337490D01*
X94117267Y-106337494D01*
X94134257Y-106510000D01*
X94117267Y-106682506D01*
X94117266Y-106682509D01*
X94117266Y-106682510D01*
X94066947Y-106848391D01*
X94066945Y-106848394D01*
X94066945Y-106848395D01*
X93985234Y-107001267D01*
X93875264Y-107135264D01*
X93741267Y-107245234D01*
X93588395Y-107326945D01*
X93588391Y-107326947D01*
X93422510Y-107377266D01*
X93422509Y-107377266D01*
X93422506Y-107377267D01*
X93293225Y-107390000D01*
X93206775Y-107390000D01*
X93077494Y-107377267D01*
X93077491Y-107377266D01*
X93077490Y-107377266D01*
X92911609Y-107326947D01*
X92911605Y-107326945D01*
X92758733Y-107245234D01*
X92624736Y-107135264D01*
X92514766Y-107001267D01*
X92433055Y-106848395D01*
X92433055Y-106848394D01*
X92433053Y-106848391D01*
X92382734Y-106682510D01*
X92382734Y-106682509D01*
X92382733Y-106682506D01*
X92365743Y-106510000D01*
X92382733Y-106337494D01*
X92382734Y-106337490D01*
X92433053Y-106171609D01*
X92433055Y-106171605D01*
X92514766Y-106018733D01*
X92624736Y-105884736D01*
X92758733Y-105774766D01*
X92911605Y-105693055D01*
X92911606Y-105693055D01*
X92911609Y-105693053D01*
X93077490Y-105642734D01*
X93077491Y-105642734D01*
X93077494Y-105642733D01*
X93206775Y-105630000D01*
X93293225Y-105630000D01*
X93422506Y-105642733D01*
X93422506Y-105642733D01*
G37*
G36*
X81430000Y-105930000D02*
X79570000Y-105930000D01*
X79570000Y-104070000D01*
X81430000Y-104070000D01*
X81430000Y-105930000D01*
X81430000Y-105930000D01*
G37*
G36*
X85802506Y-103102733D02*
X85802509Y-103102734D01*
X85802510Y-103102734D01*
X85968391Y-103153053D01*
X85968394Y-103153055D01*
X85968395Y-103153055D01*
X86121267Y-103234766D01*
X86255264Y-103344736D01*
X86365234Y-103478733D01*
X86446945Y-103631605D01*
X86446947Y-103631609D01*
X86497266Y-103797490D01*
X86497267Y-103797494D01*
X86514257Y-103970000D01*
X86497267Y-104142506D01*
X86497266Y-104142509D01*
X86497266Y-104142510D01*
X86446947Y-104308391D01*
X86446945Y-104308394D01*
X86446945Y-104308395D01*
X86365234Y-104461267D01*
X86255264Y-104595264D01*
X86121267Y-104705234D01*
X85968395Y-104786945D01*
X85968391Y-104786947D01*
X85802510Y-104837266D01*
X85802509Y-104837266D01*
X85802506Y-104837267D01*
X85673225Y-104850000D01*
X85586775Y-104850000D01*
X85457494Y-104837267D01*
X85457491Y-104837266D01*
X85457490Y-104837266D01*
X85291609Y-104786947D01*
X85291605Y-104786945D01*
X85138733Y-104705234D01*
X85004736Y-104595264D01*
X84894766Y-104461267D01*
X84813055Y-104308395D01*
X84813055Y-104308394D01*
X84813053Y-104308391D01*
X84762734Y-104142510D01*
X84762734Y-104142509D01*
X84762733Y-104142506D01*
X84745743Y-103970000D01*
X84762733Y-103797494D01*
X84762734Y-103797490D01*
X84813053Y-103631609D01*
X84813055Y-103631605D01*
X84894766Y-103478733D01*
X85004736Y-103344736D01*
X85138733Y-103234766D01*
X85291605Y-103153055D01*
X85291606Y-103153055D01*
X85291609Y-103153053D01*
X85457490Y-103102734D01*
X85457491Y-103102734D01*
X85457494Y-103102733D01*
X85586775Y-103090000D01*
X85673225Y-103090000D01*
X85802506Y-103102733D01*
X85802506Y-103102733D01*
G37*
G36*
X94130000Y-104850000D02*
X92370000Y-104850000D01*
X92370000Y-103090000D01*
X94130000Y-103090000D01*
X94130000Y-104850000D01*
X94130000Y-104850000D01*
G37*
G36*
X97330000Y-104630000D02*
X95570000Y-104630000D01*
X95570000Y-102870000D01*
X97330000Y-102870000D01*
X97330000Y-104630000D01*
X97330000Y-104630000D01*
G37*
G36*
X99206685Y-102903817D02*
X99366837Y-102970154D01*
X99510970Y-103066461D01*
X99633539Y-103189030D01*
X99729846Y-103333163D01*
X99796183Y-103493315D01*
X99830000Y-103663326D01*
X99830000Y-103836674D01*
X99796183Y-104006685D01*
X99729846Y-104166837D01*
X99633539Y-104310970D01*
X99510970Y-104433539D01*
X99366837Y-104529846D01*
X99206685Y-104596183D01*
X99036674Y-104630000D01*
X98863326Y-104630000D01*
X98693315Y-104596183D01*
X98533163Y-104529846D01*
X98389030Y-104433539D01*
X98266461Y-104310970D01*
X98170154Y-104166837D01*
X98103817Y-104006685D01*
X98070000Y-103836674D01*
X98070000Y-103663326D01*
X98103817Y-103493315D01*
X98170154Y-103333163D01*
X98266461Y-103189030D01*
X98389030Y-103066461D01*
X98533163Y-102970154D01*
X98693315Y-102903817D01*
X98863326Y-102870000D01*
X99036674Y-102870000D01*
X99206685Y-102903817D01*
X99206685Y-102903817D01*
G37*
G36*
X80573006Y-101532691D02*
X80682312Y-101543457D01*
X80857617Y-101596636D01*
X81019180Y-101682992D01*
X81160791Y-101799209D01*
X81277008Y-101940820D01*
X81363364Y-102102383D01*
X81416543Y-102277688D01*
X81434499Y-102460000D01*
X81416543Y-102642312D01*
X81363364Y-102817617D01*
X81277008Y-102979180D01*
X81160791Y-103120791D01*
X81019180Y-103237008D01*
X80857617Y-103323364D01*
X80682312Y-103376543D01*
X80573006Y-103387309D01*
X80545681Y-103390000D01*
X80454319Y-103390000D01*
X80426994Y-103387309D01*
X80317688Y-103376543D01*
X80142383Y-103323364D01*
X79980820Y-103237008D01*
X79839209Y-103120791D01*
X79722992Y-102979180D01*
X79636636Y-102817617D01*
X79583457Y-102642312D01*
X79565501Y-102460000D01*
X79583457Y-102277688D01*
X79636636Y-102102383D01*
X79722992Y-101940820D01*
X79839209Y-101799209D01*
X79980820Y-101682992D01*
X80142383Y-101596636D01*
X80317688Y-101543457D01*
X80426994Y-101532691D01*
X80454319Y-101530000D01*
X80545681Y-101530000D01*
X80573006Y-101532691D01*
X80573006Y-101532691D01*
G37*
G36*
X93422506Y-100562733D02*
X93422509Y-100562734D01*
X93422510Y-100562734D01*
X93588391Y-100613053D01*
X93588394Y-100613055D01*
X93588395Y-100613055D01*
X93741267Y-100694766D01*
X93875264Y-100804736D01*
X93985234Y-100938733D01*
X94066945Y-101091605D01*
X94066947Y-101091609D01*
X94117266Y-101257490D01*
X94117267Y-101257494D01*
X94134257Y-101430000D01*
X94117267Y-101602506D01*
X94117266Y-101602509D01*
X94117266Y-101602510D01*
X94066947Y-101768391D01*
X94066945Y-101768394D01*
X94066945Y-101768395D01*
X93985234Y-101921267D01*
X93875264Y-102055264D01*
X93741267Y-102165234D01*
X93588395Y-102246945D01*
X93588391Y-102246947D01*
X93422510Y-102297266D01*
X93422509Y-102297266D01*
X93422506Y-102297267D01*
X93293225Y-102310000D01*
X93206775Y-102310000D01*
X93077494Y-102297267D01*
X93077491Y-102297266D01*
X93077490Y-102297266D01*
X92911609Y-102246947D01*
X92911605Y-102246945D01*
X92758733Y-102165234D01*
X92624736Y-102055264D01*
X92514766Y-101921267D01*
X92433055Y-101768395D01*
X92433055Y-101768394D01*
X92433053Y-101768391D01*
X92382734Y-101602510D01*
X92382734Y-101602509D01*
X92382733Y-101602506D01*
X92365743Y-101430000D01*
X92382733Y-101257494D01*
X92382734Y-101257490D01*
X92433053Y-101091609D01*
X92433055Y-101091605D01*
X92514766Y-100938733D01*
X92624736Y-100804736D01*
X92758733Y-100694766D01*
X92911605Y-100613055D01*
X92911606Y-100613055D01*
X92911609Y-100613053D01*
X93077490Y-100562734D01*
X93077491Y-100562734D01*
X93077494Y-100562733D01*
X93206775Y-100550000D01*
X93293225Y-100550000D01*
X93422506Y-100562733D01*
X93422506Y-100562733D01*
G37*
G36*
X85802506Y-100562733D02*
X85802509Y-100562734D01*
X85802510Y-100562734D01*
X85968391Y-100613053D01*
X85968394Y-100613055D01*
X85968395Y-100613055D01*
X86121267Y-100694766D01*
X86255264Y-100804736D01*
X86365234Y-100938733D01*
X86446945Y-101091605D01*
X86446947Y-101091609D01*
X86497266Y-101257490D01*
X86497267Y-101257494D01*
X86514257Y-101430000D01*
X86497267Y-101602506D01*
X86497266Y-101602509D01*
X86497266Y-101602510D01*
X86446947Y-101768391D01*
X86446945Y-101768394D01*
X86446945Y-101768395D01*
X86365234Y-101921267D01*
X86255264Y-102055264D01*
X86121267Y-102165234D01*
X85968395Y-102246945D01*
X85968391Y-102246947D01*
X85802510Y-102297266D01*
X85802509Y-102297266D01*
X85802506Y-102297267D01*
X85673225Y-102310000D01*
X85586775Y-102310000D01*
X85457494Y-102297267D01*
X85457491Y-102297266D01*
X85457490Y-102297266D01*
X85291609Y-102246947D01*
X85291605Y-102246945D01*
X85138733Y-102165234D01*
X85004736Y-102055264D01*
X84894766Y-101921267D01*
X84813055Y-101768395D01*
X84813055Y-101768394D01*
X84813053Y-101768391D01*
X84762734Y-101602510D01*
X84762734Y-101602509D01*
X84762733Y-101602506D01*
X84745743Y-101430000D01*
X84762733Y-101257494D01*
X84762734Y-101257490D01*
X84813053Y-101091609D01*
X84813055Y-101091605D01*
X84894766Y-100938733D01*
X85004736Y-100804736D01*
X85138733Y-100694766D01*
X85291605Y-100613055D01*
X85291606Y-100613055D01*
X85291609Y-100613053D01*
X85457490Y-100562734D01*
X85457491Y-100562734D01*
X85457494Y-100562733D01*
X85586775Y-100550000D01*
X85673225Y-100550000D01*
X85802506Y-100562733D01*
X85802506Y-100562733D01*
G37*
G36*
X80573006Y-98992691D02*
X80682312Y-99003457D01*
X80857617Y-99056636D01*
X81019180Y-99142992D01*
X81160791Y-99259209D01*
X81277008Y-99400820D01*
X81363364Y-99562383D01*
X81416543Y-99737688D01*
X81434499Y-99920000D01*
X81416543Y-100102312D01*
X81363364Y-100277617D01*
X81277008Y-100439180D01*
X81160791Y-100580791D01*
X81019180Y-100697008D01*
X80857617Y-100783364D01*
X80682312Y-100836543D01*
X80573006Y-100847309D01*
X80545681Y-100850000D01*
X80454319Y-100850000D01*
X80426994Y-100847309D01*
X80317688Y-100836543D01*
X80142383Y-100783364D01*
X79980820Y-100697008D01*
X79839209Y-100580791D01*
X79722992Y-100439180D01*
X79636636Y-100277617D01*
X79583457Y-100102312D01*
X79565501Y-99920000D01*
X79583457Y-99737688D01*
X79636636Y-99562383D01*
X79722992Y-99400820D01*
X79839209Y-99259209D01*
X79980820Y-99142992D01*
X80142383Y-99056636D01*
X80317688Y-99003457D01*
X80426994Y-98992691D01*
X80454319Y-98990000D01*
X80545681Y-98990000D01*
X80573006Y-98992691D01*
X80573006Y-98992691D01*
G37*
G36*
X97611925Y-98185948D02*
X97692102Y-98201896D01*
X97754669Y-98227813D01*
X97843151Y-98264463D01*
X97979097Y-98355299D01*
X98094701Y-98470903D01*
X98185537Y-98606849D01*
X98248104Y-98757899D01*
X98280000Y-98918251D01*
X98280000Y-99081749D01*
X98248104Y-99242101D01*
X98185537Y-99393151D01*
X98094701Y-99529097D01*
X97979097Y-99644701D01*
X97843151Y-99735537D01*
X97790690Y-99757267D01*
X97692102Y-99798104D01*
X97611925Y-99814052D01*
X97531749Y-99830000D01*
X97368251Y-99830000D01*
X97288075Y-99814052D01*
X97207898Y-99798104D01*
X97109310Y-99757267D01*
X97056849Y-99735537D01*
X96920903Y-99644701D01*
X96805299Y-99529097D01*
X96714463Y-99393151D01*
X96651896Y-99242101D01*
X96620000Y-99081749D01*
X96620000Y-98918251D01*
X96651896Y-98757899D01*
X96714463Y-98606849D01*
X96805299Y-98470903D01*
X96920903Y-98355299D01*
X97056849Y-98264463D01*
X97145331Y-98227813D01*
X97207898Y-98201896D01*
X97288075Y-98185948D01*
X97368251Y-98170000D01*
X97531749Y-98170000D01*
X97611925Y-98185948D01*
X97611925Y-98185948D01*
G37*
G36*
X93422506Y-98022733D02*
X93422509Y-98022734D01*
X93422510Y-98022734D01*
X93588391Y-98073053D01*
X93588394Y-98073055D01*
X93588395Y-98073055D01*
X93741267Y-98154766D01*
X93875264Y-98264736D01*
X93985234Y-98398733D01*
X94066945Y-98551605D01*
X94066947Y-98551609D01*
X94117266Y-98717490D01*
X94117267Y-98717494D01*
X94134257Y-98890000D01*
X94117267Y-99062506D01*
X94117266Y-99062509D01*
X94117266Y-99062510D01*
X94066947Y-99228391D01*
X94066945Y-99228394D01*
X94066945Y-99228395D01*
X93985234Y-99381267D01*
X93875264Y-99515264D01*
X93741267Y-99625234D01*
X93588395Y-99706945D01*
X93588391Y-99706947D01*
X93422510Y-99757266D01*
X93422509Y-99757266D01*
X93422506Y-99757267D01*
X93293225Y-99770000D01*
X93206775Y-99770000D01*
X93077494Y-99757267D01*
X93077491Y-99757266D01*
X93077490Y-99757266D01*
X92911609Y-99706947D01*
X92911605Y-99706945D01*
X92758733Y-99625234D01*
X92624736Y-99515264D01*
X92514766Y-99381267D01*
X92433055Y-99228395D01*
X92433055Y-99228394D01*
X92433053Y-99228391D01*
X92382734Y-99062510D01*
X92382734Y-99062509D01*
X92382733Y-99062506D01*
X92365743Y-98890000D01*
X92382733Y-98717494D01*
X92382734Y-98717490D01*
X92433053Y-98551609D01*
X92433055Y-98551605D01*
X92514766Y-98398733D01*
X92624736Y-98264736D01*
X92758733Y-98154766D01*
X92911605Y-98073055D01*
X92911606Y-98073055D01*
X92911609Y-98073053D01*
X93077490Y-98022734D01*
X93077491Y-98022734D01*
X93077494Y-98022733D01*
X93206775Y-98010000D01*
X93293225Y-98010000D01*
X93422506Y-98022733D01*
X93422506Y-98022733D01*
G37*
G36*
X85802506Y-98022733D02*
X85802509Y-98022734D01*
X85802510Y-98022734D01*
X85968391Y-98073053D01*
X85968394Y-98073055D01*
X85968395Y-98073055D01*
X86121267Y-98154766D01*
X86255264Y-98264736D01*
X86365234Y-98398733D01*
X86446945Y-98551605D01*
X86446947Y-98551609D01*
X86497266Y-98717490D01*
X86497267Y-98717494D01*
X86514257Y-98890000D01*
X86497267Y-99062506D01*
X86497266Y-99062509D01*
X86497266Y-99062510D01*
X86446947Y-99228391D01*
X86446945Y-99228394D01*
X86446945Y-99228395D01*
X86365234Y-99381267D01*
X86255264Y-99515264D01*
X86121267Y-99625234D01*
X85968395Y-99706945D01*
X85968391Y-99706947D01*
X85802510Y-99757266D01*
X85802509Y-99757266D01*
X85802506Y-99757267D01*
X85673225Y-99770000D01*
X85586775Y-99770000D01*
X85457494Y-99757267D01*
X85457491Y-99757266D01*
X85457490Y-99757266D01*
X85291609Y-99706947D01*
X85291605Y-99706945D01*
X85138733Y-99625234D01*
X85004736Y-99515264D01*
X84894766Y-99381267D01*
X84813055Y-99228395D01*
X84813055Y-99228394D01*
X84813053Y-99228391D01*
X84762734Y-99062510D01*
X84762734Y-99062509D01*
X84762733Y-99062506D01*
X84745743Y-98890000D01*
X84762733Y-98717494D01*
X84762734Y-98717490D01*
X84813053Y-98551609D01*
X84813055Y-98551605D01*
X84894766Y-98398733D01*
X85004736Y-98264736D01*
X85138733Y-98154766D01*
X85291605Y-98073055D01*
X85291606Y-98073055D01*
X85291609Y-98073053D01*
X85457490Y-98022734D01*
X85457491Y-98022734D01*
X85457494Y-98022733D01*
X85586775Y-98010000D01*
X85673225Y-98010000D01*
X85802506Y-98022733D01*
X85802506Y-98022733D01*
G37*
G36*
X80573006Y-96452691D02*
X80682312Y-96463457D01*
X80857617Y-96516636D01*
X81019180Y-96602992D01*
X81160791Y-96719209D01*
X81277008Y-96860820D01*
X81363364Y-97022383D01*
X81416543Y-97197688D01*
X81434499Y-97380000D01*
X81416543Y-97562312D01*
X81363364Y-97737617D01*
X81277008Y-97899180D01*
X81160791Y-98040791D01*
X81019180Y-98157008D01*
X80857617Y-98243364D01*
X80682312Y-98296543D01*
X80573006Y-98307309D01*
X80545681Y-98310000D01*
X80454319Y-98310000D01*
X80426994Y-98307309D01*
X80317688Y-98296543D01*
X80142383Y-98243364D01*
X79980820Y-98157008D01*
X79839209Y-98040791D01*
X79722992Y-97899180D01*
X79636636Y-97737617D01*
X79583457Y-97562312D01*
X79565501Y-97380000D01*
X79583457Y-97197688D01*
X79636636Y-97022383D01*
X79722992Y-96860820D01*
X79839209Y-96719209D01*
X79980820Y-96602992D01*
X80142383Y-96516636D01*
X80317688Y-96463457D01*
X80426994Y-96452691D01*
X80454319Y-96450000D01*
X80545681Y-96450000D01*
X80573006Y-96452691D01*
X80573006Y-96452691D01*
G37*
G36*
X93422506Y-95482733D02*
X93422509Y-95482734D01*
X93422510Y-95482734D01*
X93588391Y-95533053D01*
X93588394Y-95533055D01*
X93588395Y-95533055D01*
X93741267Y-95614766D01*
X93875264Y-95724736D01*
X93985234Y-95858733D01*
X94066945Y-96011605D01*
X94066947Y-96011609D01*
X94117266Y-96177490D01*
X94117267Y-96177494D01*
X94134257Y-96350000D01*
X94117267Y-96522506D01*
X94117266Y-96522509D01*
X94117266Y-96522510D01*
X94066947Y-96688391D01*
X94066945Y-96688394D01*
X94066945Y-96688395D01*
X93985234Y-96841267D01*
X93875264Y-96975264D01*
X93741267Y-97085234D01*
X93588395Y-97166945D01*
X93588391Y-97166947D01*
X93422510Y-97217266D01*
X93422509Y-97217266D01*
X93422506Y-97217267D01*
X93293225Y-97230000D01*
X93206775Y-97230000D01*
X93077494Y-97217267D01*
X93077491Y-97217266D01*
X93077490Y-97217266D01*
X92911609Y-97166947D01*
X92911605Y-97166945D01*
X92758733Y-97085234D01*
X92624736Y-96975264D01*
X92514766Y-96841267D01*
X92433055Y-96688395D01*
X92433055Y-96688394D01*
X92433053Y-96688391D01*
X92382734Y-96522510D01*
X92382734Y-96522509D01*
X92382733Y-96522506D01*
X92365743Y-96350000D01*
X92382733Y-96177494D01*
X92382734Y-96177490D01*
X92433053Y-96011609D01*
X92433055Y-96011605D01*
X92514766Y-95858733D01*
X92624736Y-95724736D01*
X92758733Y-95614766D01*
X92911605Y-95533055D01*
X92911606Y-95533055D01*
X92911609Y-95533053D01*
X93077490Y-95482734D01*
X93077491Y-95482734D01*
X93077494Y-95482733D01*
X93206775Y-95470000D01*
X93293225Y-95470000D01*
X93422506Y-95482733D01*
X93422506Y-95482733D01*
G37*
G36*
X85802506Y-95482733D02*
X85802509Y-95482734D01*
X85802510Y-95482734D01*
X85968391Y-95533053D01*
X85968394Y-95533055D01*
X85968395Y-95533055D01*
X86121267Y-95614766D01*
X86255264Y-95724736D01*
X86365234Y-95858733D01*
X86446945Y-96011605D01*
X86446947Y-96011609D01*
X86497266Y-96177490D01*
X86497267Y-96177494D01*
X86514257Y-96350000D01*
X86497267Y-96522506D01*
X86497266Y-96522509D01*
X86497266Y-96522510D01*
X86446947Y-96688391D01*
X86446945Y-96688394D01*
X86446945Y-96688395D01*
X86365234Y-96841267D01*
X86255264Y-96975264D01*
X86121267Y-97085234D01*
X85968395Y-97166945D01*
X85968391Y-97166947D01*
X85802510Y-97217266D01*
X85802509Y-97217266D01*
X85802506Y-97217267D01*
X85673225Y-97230000D01*
X85586775Y-97230000D01*
X85457494Y-97217267D01*
X85457491Y-97217266D01*
X85457490Y-97217266D01*
X85291609Y-97166947D01*
X85291605Y-97166945D01*
X85138733Y-97085234D01*
X85004736Y-96975264D01*
X84894766Y-96841267D01*
X84813055Y-96688395D01*
X84813055Y-96688394D01*
X84813053Y-96688391D01*
X84762734Y-96522510D01*
X84762734Y-96522509D01*
X84762733Y-96522506D01*
X84745743Y-96350000D01*
X84762733Y-96177494D01*
X84762734Y-96177490D01*
X84813053Y-96011609D01*
X84813055Y-96011605D01*
X84894766Y-95858733D01*
X85004736Y-95724736D01*
X85138733Y-95614766D01*
X85291605Y-95533055D01*
X85291606Y-95533055D01*
X85291609Y-95533053D01*
X85457490Y-95482734D01*
X85457491Y-95482734D01*
X85457494Y-95482733D01*
X85586775Y-95470000D01*
X85673225Y-95470000D01*
X85802506Y-95482733D01*
X85802506Y-95482733D01*
G37*
G36*
X80573006Y-93912691D02*
X80682312Y-93923457D01*
X80857617Y-93976636D01*
X81019180Y-94062992D01*
X81160791Y-94179209D01*
X81277008Y-94320820D01*
X81363364Y-94482383D01*
X81416543Y-94657688D01*
X81434499Y-94840000D01*
X81416543Y-95022312D01*
X81363364Y-95197617D01*
X81277008Y-95359180D01*
X81160791Y-95500791D01*
X81019180Y-95617008D01*
X80857617Y-95703364D01*
X80682312Y-95756543D01*
X80573006Y-95767309D01*
X80545681Y-95770000D01*
X80454319Y-95770000D01*
X80426994Y-95767309D01*
X80317688Y-95756543D01*
X80142383Y-95703364D01*
X79980820Y-95617008D01*
X79839209Y-95500791D01*
X79722992Y-95359180D01*
X79636636Y-95197617D01*
X79583457Y-95022312D01*
X79565501Y-94840000D01*
X79583457Y-94657688D01*
X79636636Y-94482383D01*
X79722992Y-94320820D01*
X79839209Y-94179209D01*
X79980820Y-94062992D01*
X80142383Y-93976636D01*
X80317688Y-93923457D01*
X80426994Y-93912691D01*
X80454319Y-93910000D01*
X80545681Y-93910000D01*
X80573006Y-93912691D01*
X80573006Y-93912691D01*
G37*
G36*
X97611925Y-93285948D02*
X97692102Y-93301896D01*
X97732749Y-93318733D01*
X97843151Y-93364463D01*
X97979097Y-93455299D01*
X98094701Y-93570903D01*
X98185537Y-93706849D01*
X98248104Y-93857899D01*
X98280000Y-94018251D01*
X98280000Y-94181749D01*
X98248104Y-94342101D01*
X98185537Y-94493151D01*
X98094701Y-94629097D01*
X97979097Y-94744701D01*
X97843151Y-94835537D01*
X97754669Y-94872187D01*
X97692102Y-94898104D01*
X97611925Y-94914052D01*
X97531749Y-94930000D01*
X97368251Y-94930000D01*
X97288075Y-94914052D01*
X97207898Y-94898104D01*
X97145331Y-94872187D01*
X97056849Y-94835537D01*
X96920903Y-94744701D01*
X96805299Y-94629097D01*
X96714463Y-94493151D01*
X96651896Y-94342101D01*
X96620000Y-94181749D01*
X96620000Y-94018251D01*
X96651896Y-93857899D01*
X96714463Y-93706849D01*
X96805299Y-93570903D01*
X96920903Y-93455299D01*
X97056849Y-93364463D01*
X97167251Y-93318733D01*
X97207898Y-93301896D01*
X97288075Y-93285948D01*
X97368251Y-93270000D01*
X97531749Y-93270000D01*
X97611925Y-93285948D01*
X97611925Y-93285948D01*
G37*
G36*
X93422506Y-92942733D02*
X93422509Y-92942734D01*
X93422510Y-92942734D01*
X93588391Y-92993053D01*
X93588394Y-92993055D01*
X93588395Y-92993055D01*
X93741267Y-93074766D01*
X93875264Y-93184736D01*
X93985234Y-93318733D01*
X94009677Y-93364464D01*
X94066947Y-93471609D01*
X94097067Y-93570903D01*
X94117267Y-93637494D01*
X94134257Y-93810000D01*
X94117267Y-93982506D01*
X94117266Y-93982509D01*
X94117266Y-93982510D01*
X94066947Y-94148391D01*
X94066945Y-94148394D01*
X94066945Y-94148395D01*
X93985234Y-94301267D01*
X93875264Y-94435264D01*
X93741267Y-94545234D01*
X93588395Y-94626945D01*
X93588391Y-94626947D01*
X93422510Y-94677266D01*
X93422509Y-94677266D01*
X93422506Y-94677267D01*
X93293225Y-94690000D01*
X93206775Y-94690000D01*
X93077494Y-94677267D01*
X93077491Y-94677266D01*
X93077490Y-94677266D01*
X92911609Y-94626947D01*
X92911605Y-94626945D01*
X92758733Y-94545234D01*
X92624736Y-94435264D01*
X92514766Y-94301267D01*
X92433055Y-94148395D01*
X92433055Y-94148394D01*
X92433053Y-94148391D01*
X92382734Y-93982510D01*
X92382734Y-93982509D01*
X92382733Y-93982506D01*
X92365743Y-93810000D01*
X92382733Y-93637494D01*
X92402933Y-93570903D01*
X92433053Y-93471609D01*
X92490323Y-93364464D01*
X92514766Y-93318733D01*
X92624736Y-93184736D01*
X92758733Y-93074766D01*
X92911605Y-92993055D01*
X92911606Y-92993055D01*
X92911609Y-92993053D01*
X93077490Y-92942734D01*
X93077491Y-92942734D01*
X93077494Y-92942733D01*
X93206775Y-92930000D01*
X93293225Y-92930000D01*
X93422506Y-92942733D01*
X93422506Y-92942733D01*
G37*
G36*
X85802506Y-92942733D02*
X85802509Y-92942734D01*
X85802510Y-92942734D01*
X85968391Y-92993053D01*
X85968394Y-92993055D01*
X85968395Y-92993055D01*
X86121267Y-93074766D01*
X86255264Y-93184736D01*
X86365234Y-93318733D01*
X86389677Y-93364464D01*
X86446947Y-93471609D01*
X86477067Y-93570903D01*
X86497267Y-93637494D01*
X86514257Y-93810000D01*
X86497267Y-93982506D01*
X86497266Y-93982509D01*
X86497266Y-93982510D01*
X86446947Y-94148391D01*
X86446945Y-94148394D01*
X86446945Y-94148395D01*
X86365234Y-94301267D01*
X86255264Y-94435264D01*
X86121267Y-94545234D01*
X85968395Y-94626945D01*
X85968391Y-94626947D01*
X85802510Y-94677266D01*
X85802509Y-94677266D01*
X85802506Y-94677267D01*
X85673225Y-94690000D01*
X85586775Y-94690000D01*
X85457494Y-94677267D01*
X85457491Y-94677266D01*
X85457490Y-94677266D01*
X85291609Y-94626947D01*
X85291605Y-94626945D01*
X85138733Y-94545234D01*
X85004736Y-94435264D01*
X84894766Y-94301267D01*
X84813055Y-94148395D01*
X84813055Y-94148394D01*
X84813053Y-94148391D01*
X84762734Y-93982510D01*
X84762734Y-93982509D01*
X84762733Y-93982506D01*
X84745743Y-93810000D01*
X84762733Y-93637494D01*
X84782933Y-93570903D01*
X84813053Y-93471609D01*
X84870323Y-93364464D01*
X84894766Y-93318733D01*
X85004736Y-93184736D01*
X85138733Y-93074766D01*
X85291605Y-92993055D01*
X85291606Y-92993055D01*
X85291609Y-92993053D01*
X85457490Y-92942734D01*
X85457491Y-92942734D01*
X85457494Y-92942733D01*
X85586775Y-92930000D01*
X85673225Y-92930000D01*
X85802506Y-92942733D01*
X85802506Y-92942733D01*
G37*
G36*
X93422506Y-90402733D02*
X93422509Y-90402734D01*
X93422510Y-90402734D01*
X93588391Y-90453053D01*
X93588394Y-90453055D01*
X93588395Y-90453055D01*
X93741267Y-90534766D01*
X93875264Y-90644736D01*
X93985234Y-90778733D01*
X94066945Y-90931605D01*
X94066947Y-90931609D01*
X94117266Y-91097490D01*
X94117267Y-91097494D01*
X94134257Y-91270000D01*
X94117267Y-91442506D01*
X94117266Y-91442509D01*
X94117266Y-91442510D01*
X94066947Y-91608391D01*
X94066945Y-91608394D01*
X94066945Y-91608395D01*
X93985234Y-91761267D01*
X93875264Y-91895264D01*
X93741267Y-92005234D01*
X93588395Y-92086945D01*
X93588391Y-92086947D01*
X93422510Y-92137266D01*
X93422509Y-92137266D01*
X93422506Y-92137267D01*
X93293225Y-92150000D01*
X93206775Y-92150000D01*
X93077494Y-92137267D01*
X93077491Y-92137266D01*
X93077490Y-92137266D01*
X92911609Y-92086947D01*
X92911605Y-92086945D01*
X92758733Y-92005234D01*
X92624736Y-91895264D01*
X92514766Y-91761267D01*
X92433055Y-91608395D01*
X92433055Y-91608394D01*
X92433053Y-91608391D01*
X92382734Y-91442510D01*
X92382734Y-91442509D01*
X92382733Y-91442506D01*
X92365743Y-91270000D01*
X92382733Y-91097494D01*
X92382734Y-91097490D01*
X92433053Y-90931609D01*
X92433055Y-90931605D01*
X92514766Y-90778733D01*
X92624736Y-90644736D01*
X92758733Y-90534766D01*
X92911605Y-90453055D01*
X92911606Y-90453055D01*
X92911609Y-90453053D01*
X93077490Y-90402734D01*
X93077491Y-90402734D01*
X93077494Y-90402733D01*
X93206775Y-90390000D01*
X93293225Y-90390000D01*
X93422506Y-90402733D01*
X93422506Y-90402733D01*
G37*
G36*
X85802506Y-90402733D02*
X85802509Y-90402734D01*
X85802510Y-90402734D01*
X85968391Y-90453053D01*
X85968394Y-90453055D01*
X85968395Y-90453055D01*
X86121267Y-90534766D01*
X86255264Y-90644736D01*
X86365234Y-90778733D01*
X86446945Y-90931605D01*
X86446947Y-90931609D01*
X86497266Y-91097490D01*
X86497267Y-91097494D01*
X86514257Y-91270000D01*
X86497267Y-91442506D01*
X86497266Y-91442509D01*
X86497266Y-91442510D01*
X86446947Y-91608391D01*
X86446945Y-91608394D01*
X86446945Y-91608395D01*
X86365234Y-91761267D01*
X86255264Y-91895264D01*
X86121267Y-92005234D01*
X85968395Y-92086945D01*
X85968391Y-92086947D01*
X85802510Y-92137266D01*
X85802509Y-92137266D01*
X85802506Y-92137267D01*
X85673225Y-92150000D01*
X85586775Y-92150000D01*
X85457494Y-92137267D01*
X85457491Y-92137266D01*
X85457490Y-92137266D01*
X85291609Y-92086947D01*
X85291605Y-92086945D01*
X85138733Y-92005234D01*
X85004736Y-91895264D01*
X84894766Y-91761267D01*
X84813055Y-91608395D01*
X84813055Y-91608394D01*
X84813053Y-91608391D01*
X84762734Y-91442510D01*
X84762734Y-91442509D01*
X84762733Y-91442506D01*
X84745743Y-91270000D01*
X84762733Y-91097494D01*
X84762734Y-91097490D01*
X84813053Y-90931609D01*
X84813055Y-90931605D01*
X84894766Y-90778733D01*
X85004736Y-90644736D01*
X85138733Y-90534766D01*
X85291605Y-90453055D01*
X85291606Y-90453055D01*
X85291609Y-90453053D01*
X85457490Y-90402734D01*
X85457491Y-90402734D01*
X85457494Y-90402733D01*
X85586775Y-90390000D01*
X85673225Y-90390000D01*
X85802506Y-90402733D01*
X85802506Y-90402733D01*
G37*
G36*
X99206685Y-88403817D02*
X99366837Y-88470154D01*
X99510970Y-88566461D01*
X99633539Y-88689030D01*
X99729846Y-88833163D01*
X99796183Y-88993315D01*
X99830000Y-89163326D01*
X99830000Y-89336674D01*
X99796183Y-89506685D01*
X99729846Y-89666837D01*
X99633539Y-89810970D01*
X99510970Y-89933539D01*
X99366837Y-90029846D01*
X99206685Y-90096183D01*
X99036674Y-90130000D01*
X98863326Y-90130000D01*
X98693315Y-90096183D01*
X98533163Y-90029846D01*
X98389030Y-89933539D01*
X98266461Y-89810970D01*
X98170154Y-89666837D01*
X98103817Y-89506685D01*
X98070000Y-89336674D01*
X98070000Y-89163326D01*
X98103817Y-88993315D01*
X98170154Y-88833163D01*
X98266461Y-88689030D01*
X98389030Y-88566461D01*
X98533163Y-88470154D01*
X98693315Y-88403817D01*
X98863326Y-88370000D01*
X99036674Y-88370000D01*
X99206685Y-88403817D01*
X99206685Y-88403817D01*
G37*
G36*
X97330000Y-90130000D02*
X95570000Y-90130000D01*
X95570000Y-88370000D01*
X97330000Y-88370000D01*
X97330000Y-90130000D01*
X97330000Y-90130000D01*
G37*
G36*
X80930856Y-87957660D02*
X81109203Y-88031534D01*
X81269717Y-88138786D01*
X81406214Y-88275283D01*
X81513466Y-88435797D01*
X81587340Y-88614144D01*
X81625000Y-88803477D01*
X81625000Y-88996523D01*
X81587340Y-89185856D01*
X81513466Y-89364203D01*
X81406214Y-89524717D01*
X81269717Y-89661214D01*
X81109203Y-89768466D01*
X80930856Y-89842340D01*
X80741523Y-89880000D01*
X80548477Y-89880000D01*
X80359144Y-89842340D01*
X80180797Y-89768466D01*
X80020283Y-89661214D01*
X79883786Y-89524717D01*
X79776534Y-89364203D01*
X79702660Y-89185856D01*
X79665000Y-88996523D01*
X79665000Y-88803477D01*
X79702660Y-88614144D01*
X79776534Y-88435797D01*
X79883786Y-88275283D01*
X80020283Y-88138786D01*
X80180797Y-88031534D01*
X80359144Y-87957660D01*
X80548477Y-87920000D01*
X80741523Y-87920000D01*
X80930856Y-87957660D01*
X80930856Y-87957660D01*
G37*
G36*
X85802506Y-87862733D02*
X85802509Y-87862734D01*
X85802510Y-87862734D01*
X85968391Y-87913053D01*
X85968394Y-87913055D01*
X85968395Y-87913055D01*
X86121267Y-87994766D01*
X86255264Y-88104736D01*
X86365234Y-88238733D01*
X86435397Y-88370000D01*
X86446947Y-88391609D01*
X86460351Y-88435797D01*
X86497267Y-88557494D01*
X86514257Y-88730000D01*
X86497267Y-88902506D01*
X86497266Y-88902509D01*
X86497266Y-88902510D01*
X86446947Y-89068391D01*
X86446945Y-89068394D01*
X86446945Y-89068395D01*
X86365234Y-89221267D01*
X86255264Y-89355264D01*
X86121267Y-89465234D01*
X85968395Y-89546945D01*
X85968391Y-89546947D01*
X85802510Y-89597266D01*
X85802509Y-89597266D01*
X85802506Y-89597267D01*
X85673225Y-89610000D01*
X85586775Y-89610000D01*
X85457494Y-89597267D01*
X85457491Y-89597266D01*
X85457490Y-89597266D01*
X85291609Y-89546947D01*
X85291605Y-89546945D01*
X85138733Y-89465234D01*
X85004736Y-89355264D01*
X84894766Y-89221267D01*
X84813055Y-89068395D01*
X84813055Y-89068394D01*
X84813053Y-89068391D01*
X84762734Y-88902510D01*
X84762734Y-88902509D01*
X84762733Y-88902506D01*
X84745743Y-88730000D01*
X84762733Y-88557494D01*
X84799649Y-88435797D01*
X84813053Y-88391609D01*
X84824603Y-88370000D01*
X84894766Y-88238733D01*
X85004736Y-88104736D01*
X85138733Y-87994766D01*
X85291605Y-87913055D01*
X85291606Y-87913055D01*
X85291609Y-87913053D01*
X85457490Y-87862734D01*
X85457491Y-87862734D01*
X85457494Y-87862733D01*
X85586775Y-87850000D01*
X85673225Y-87850000D01*
X85802506Y-87862733D01*
X85802506Y-87862733D01*
G37*
G36*
X93422506Y-87862733D02*
X93422509Y-87862734D01*
X93422510Y-87862734D01*
X93588391Y-87913053D01*
X93588394Y-87913055D01*
X93588395Y-87913055D01*
X93741267Y-87994766D01*
X93875264Y-88104736D01*
X93985234Y-88238733D01*
X94055397Y-88370000D01*
X94066947Y-88391609D01*
X94080351Y-88435797D01*
X94117267Y-88557494D01*
X94134257Y-88730000D01*
X94117267Y-88902506D01*
X94117266Y-88902509D01*
X94117266Y-88902510D01*
X94066947Y-89068391D01*
X94066945Y-89068394D01*
X94066945Y-89068395D01*
X93985234Y-89221267D01*
X93875264Y-89355264D01*
X93741267Y-89465234D01*
X93588395Y-89546945D01*
X93588391Y-89546947D01*
X93422510Y-89597266D01*
X93422509Y-89597266D01*
X93422506Y-89597267D01*
X93293225Y-89610000D01*
X93206775Y-89610000D01*
X93077494Y-89597267D01*
X93077491Y-89597266D01*
X93077490Y-89597266D01*
X92911609Y-89546947D01*
X92911605Y-89546945D01*
X92758733Y-89465234D01*
X92624736Y-89355264D01*
X92514766Y-89221267D01*
X92433055Y-89068395D01*
X92433055Y-89068394D01*
X92433053Y-89068391D01*
X92382734Y-88902510D01*
X92382734Y-88902509D01*
X92382733Y-88902506D01*
X92365743Y-88730000D01*
X92382733Y-88557494D01*
X92419649Y-88435797D01*
X92433053Y-88391609D01*
X92444603Y-88370000D01*
X92514766Y-88238733D01*
X92624736Y-88104736D01*
X92758733Y-87994766D01*
X92911605Y-87913055D01*
X92911606Y-87913055D01*
X92911609Y-87913053D01*
X93077490Y-87862734D01*
X93077491Y-87862734D01*
X93077494Y-87862733D01*
X93206775Y-87850000D01*
X93293225Y-87850000D01*
X93422506Y-87862733D01*
X93422506Y-87862733D01*
G37*
G36*
X94685856Y-84857660D02*
X94864203Y-84931534D01*
X95024717Y-85038786D01*
X95161214Y-85175283D01*
X95268466Y-85335797D01*
X95342340Y-85514144D01*
X95380000Y-85703477D01*
X95380000Y-85896523D01*
X95342340Y-86085856D01*
X95268466Y-86264203D01*
X95161214Y-86424717D01*
X95024717Y-86561214D01*
X94864203Y-86668466D01*
X94685856Y-86742340D01*
X94496523Y-86780000D01*
X94303477Y-86780000D01*
X94114144Y-86742340D01*
X93935797Y-86668466D01*
X93775283Y-86561214D01*
X93638786Y-86424717D01*
X93531534Y-86264203D01*
X93457660Y-86085856D01*
X93420000Y-85896523D01*
X93420000Y-85703477D01*
X93457660Y-85514144D01*
X93531534Y-85335797D01*
X93638786Y-85175283D01*
X93775283Y-85038786D01*
X93935797Y-84931534D01*
X94114144Y-84857660D01*
X94303477Y-84820000D01*
X94496523Y-84820000D01*
X94685856Y-84857660D01*
X94685856Y-84857660D01*
G37*
G36*
X97285856Y-84857660D02*
X97464203Y-84931534D01*
X97624717Y-85038786D01*
X97761214Y-85175283D01*
X97868466Y-85335797D01*
X97942340Y-85514144D01*
X97980000Y-85703477D01*
X97980000Y-85896523D01*
X97942340Y-86085856D01*
X97868466Y-86264203D01*
X97761214Y-86424717D01*
X97624717Y-86561214D01*
X97464203Y-86668466D01*
X97285856Y-86742340D01*
X97096523Y-86780000D01*
X96903477Y-86780000D01*
X96714144Y-86742340D01*
X96535797Y-86668466D01*
X96375283Y-86561214D01*
X96238786Y-86424717D01*
X96131534Y-86264203D01*
X96057660Y-86085856D01*
X96020000Y-85896523D01*
X96020000Y-85703477D01*
X96057660Y-85514144D01*
X96131534Y-85335797D01*
X96238786Y-85175283D01*
X96375283Y-85038786D01*
X96535797Y-84931534D01*
X96714144Y-84857660D01*
X96903477Y-84820000D01*
X97096523Y-84820000D01*
X97285856Y-84857660D01*
X97285856Y-84857660D01*
G37*
G36*
X99785856Y-84857660D02*
X99964203Y-84931534D01*
X100124717Y-85038786D01*
X100261214Y-85175283D01*
X100368466Y-85335797D01*
X100442340Y-85514144D01*
X100480000Y-85703477D01*
X100480000Y-85896523D01*
X100442340Y-86085856D01*
X100368466Y-86264203D01*
X100261214Y-86424717D01*
X100124717Y-86561214D01*
X99964203Y-86668466D01*
X99785856Y-86742340D01*
X99596523Y-86780000D01*
X99403477Y-86780000D01*
X99214144Y-86742340D01*
X99035797Y-86668466D01*
X98875283Y-86561214D01*
X98738786Y-86424717D01*
X98631534Y-86264203D01*
X98557660Y-86085856D01*
X98520000Y-85896523D01*
X98520000Y-85703477D01*
X98557660Y-85514144D01*
X98631534Y-85335797D01*
X98738786Y-85175283D01*
X98875283Y-85038786D01*
X99035797Y-84931534D01*
X99214144Y-84857660D01*
X99403477Y-84820000D01*
X99596523Y-84820000D01*
X99785856Y-84857660D01*
X99785856Y-84857660D01*
G37*
G36*
X91503399Y-85235477D02*
X91503402Y-85235478D01*
X91626870Y-85272931D01*
X91740659Y-85333752D01*
X91840396Y-85415604D01*
X91922248Y-85515341D01*
X91983069Y-85629130D01*
X92005622Y-85703478D01*
X92020523Y-85752601D01*
X92033169Y-85881000D01*
X92020523Y-86009399D01*
X92020522Y-86009402D01*
X91983069Y-86132870D01*
X91922248Y-86246659D01*
X91840396Y-86346396D01*
X91740659Y-86428248D01*
X91626870Y-86489069D01*
X91526386Y-86519550D01*
X91503399Y-86526523D01*
X91407178Y-86536000D01*
X90592822Y-86536000D01*
X90496601Y-86526523D01*
X90473614Y-86519550D01*
X90373130Y-86489069D01*
X90259341Y-86428248D01*
X90159604Y-86346396D01*
X90077752Y-86246659D01*
X90016931Y-86132870D01*
X89979478Y-86009402D01*
X89979477Y-86009399D01*
X89966831Y-85881000D01*
X89979477Y-85752601D01*
X89994378Y-85703478D01*
X90016931Y-85629130D01*
X90077752Y-85515341D01*
X90159604Y-85415604D01*
X90259341Y-85333752D01*
X90373130Y-85272931D01*
X90496598Y-85235478D01*
X90496601Y-85235477D01*
X90592822Y-85226000D01*
X91407178Y-85226000D01*
X91503399Y-85235477D01*
X91503399Y-85235477D01*
G37*
G36*
X83470856Y-84147660D02*
X83649203Y-84221534D01*
X83809717Y-84328786D01*
X83946214Y-84465283D01*
X84053466Y-84625797D01*
X84127340Y-84804144D01*
X84165000Y-84993477D01*
X84165000Y-85186523D01*
X84127340Y-85375856D01*
X84053466Y-85554203D01*
X83946214Y-85714717D01*
X83809717Y-85851214D01*
X83649203Y-85958466D01*
X83470856Y-86032340D01*
X83281523Y-86070000D01*
X83088477Y-86070000D01*
X82899144Y-86032340D01*
X82720797Y-85958466D01*
X82560283Y-85851214D01*
X82423786Y-85714717D01*
X82316534Y-85554203D01*
X82242660Y-85375856D01*
X82205000Y-85186523D01*
X82205000Y-84993477D01*
X82242660Y-84804144D01*
X82316534Y-84625797D01*
X82423786Y-84465283D01*
X82560283Y-84328786D01*
X82720797Y-84221534D01*
X82899144Y-84147660D01*
X83088477Y-84110000D01*
X83281523Y-84110000D01*
X83470856Y-84147660D01*
X83470856Y-84147660D01*
G37*
G36*
X91503399Y-83584477D02*
X91503402Y-83584478D01*
X91626870Y-83621931D01*
X91740659Y-83682752D01*
X91840396Y-83764604D01*
X91922248Y-83864341D01*
X91978870Y-83970275D01*
X91983068Y-83978128D01*
X92020523Y-84101601D01*
X92033169Y-84230000D01*
X92020523Y-84358399D01*
X92020522Y-84358402D01*
X91983069Y-84481870D01*
X91922248Y-84595659D01*
X91840396Y-84695396D01*
X91740659Y-84777248D01*
X91626870Y-84838069D01*
X91526386Y-84868550D01*
X91503399Y-84875523D01*
X91407178Y-84885000D01*
X90592822Y-84885000D01*
X90496601Y-84875523D01*
X90473614Y-84868550D01*
X90373130Y-84838069D01*
X90259341Y-84777248D01*
X90159604Y-84695396D01*
X90077752Y-84595659D01*
X90016931Y-84481870D01*
X89979478Y-84358402D01*
X89979477Y-84358399D01*
X89966831Y-84230000D01*
X89979477Y-84101601D01*
X90016932Y-83978128D01*
X90021130Y-83970275D01*
X90077752Y-83864341D01*
X90159604Y-83764604D01*
X90259341Y-83682752D01*
X90373130Y-83621931D01*
X90496598Y-83584478D01*
X90496601Y-83584477D01*
X90592822Y-83575000D01*
X91407178Y-83575000D01*
X91503399Y-83584477D01*
X91503399Y-83584477D01*
G37*
G36*
X86010856Y-82877660D02*
X86189203Y-82951534D01*
X86349717Y-83058786D01*
X86486214Y-83195283D01*
X86593466Y-83355797D01*
X86667340Y-83534144D01*
X86705000Y-83723477D01*
X86705000Y-83916523D01*
X86667340Y-84105856D01*
X86593466Y-84284203D01*
X86486214Y-84444717D01*
X86349717Y-84581214D01*
X86189203Y-84688466D01*
X86010856Y-84762340D01*
X85821523Y-84800000D01*
X85628477Y-84800000D01*
X85439144Y-84762340D01*
X85260797Y-84688466D01*
X85100283Y-84581214D01*
X84963786Y-84444717D01*
X84856534Y-84284203D01*
X84782660Y-84105856D01*
X84745000Y-83916523D01*
X84745000Y-83723477D01*
X84782660Y-83534144D01*
X84856534Y-83355797D01*
X84963786Y-83195283D01*
X85100283Y-83058786D01*
X85260797Y-82951534D01*
X85439144Y-82877660D01*
X85628477Y-82840000D01*
X85821523Y-82840000D01*
X86010856Y-82877660D01*
X86010856Y-82877660D01*
G37*
G36*
X91503399Y-81933477D02*
X91503402Y-81933478D01*
X91626870Y-81970931D01*
X91740659Y-82031752D01*
X91840396Y-82113604D01*
X91922248Y-82213341D01*
X91978870Y-82319275D01*
X91983068Y-82327128D01*
X92020523Y-82450601D01*
X92033169Y-82579000D01*
X92020523Y-82707399D01*
X92020522Y-82707402D01*
X91983069Y-82830870D01*
X91922248Y-82944659D01*
X91840396Y-83044396D01*
X91740659Y-83126248D01*
X91626870Y-83187069D01*
X91526386Y-83217550D01*
X91503399Y-83224523D01*
X91407178Y-83234000D01*
X90592822Y-83234000D01*
X90496601Y-83224523D01*
X90473614Y-83217550D01*
X90373130Y-83187069D01*
X90259341Y-83126248D01*
X90159604Y-83044396D01*
X90077752Y-82944659D01*
X90016931Y-82830870D01*
X89979478Y-82707402D01*
X89979477Y-82707399D01*
X89966831Y-82579000D01*
X89979477Y-82450601D01*
X90016932Y-82327128D01*
X90021130Y-82319275D01*
X90077752Y-82213341D01*
X90159604Y-82113604D01*
X90259341Y-82031752D01*
X90373130Y-81970931D01*
X90496598Y-81933478D01*
X90496601Y-81933477D01*
X90592822Y-81924000D01*
X91407178Y-81924000D01*
X91503399Y-81933477D01*
X91503399Y-81933477D01*
G37*
G36*
X80837110Y-80314180D02*
X80837113Y-80314181D01*
X81021844Y-80370218D01*
X81192093Y-80461218D01*
X81341317Y-80583683D01*
X81463782Y-80732907D01*
X81554782Y-80903156D01*
X81580843Y-80989068D01*
X81610820Y-81087890D01*
X81629741Y-81280000D01*
X81610820Y-81472110D01*
X81610819Y-81472113D01*
X81554782Y-81656844D01*
X81463782Y-81827093D01*
X81341317Y-81976317D01*
X81192093Y-82098782D01*
X81021844Y-82189782D01*
X80871501Y-82235388D01*
X80837110Y-82245820D01*
X80693139Y-82260000D01*
X80596861Y-82260000D01*
X80452890Y-82245820D01*
X80418499Y-82235388D01*
X80268156Y-82189782D01*
X80097907Y-82098782D01*
X79948683Y-81976317D01*
X79826218Y-81827093D01*
X79735218Y-81656844D01*
X79679181Y-81472113D01*
X79679180Y-81472110D01*
X79660259Y-81280000D01*
X79679180Y-81087890D01*
X79709157Y-80989068D01*
X79735218Y-80903156D01*
X79826218Y-80732907D01*
X79948683Y-80583683D01*
X80097907Y-80461218D01*
X80268156Y-80370218D01*
X80452887Y-80314181D01*
X80452890Y-80314180D01*
X80596861Y-80300000D01*
X80693139Y-80300000D01*
X80837110Y-80314180D01*
X80837110Y-80314180D01*
G37*
G36*
X91503399Y-79735477D02*
X91503402Y-79735478D01*
X91626870Y-79772931D01*
X91740659Y-79833752D01*
X91840396Y-79915604D01*
X91922248Y-80015341D01*
X91978870Y-80121275D01*
X91983068Y-80129128D01*
X92020523Y-80252601D01*
X92033169Y-80381000D01*
X92020523Y-80509399D01*
X92020522Y-80509402D01*
X91983069Y-80632870D01*
X91922248Y-80746659D01*
X91840396Y-80846396D01*
X91740659Y-80928248D01*
X91626870Y-80989069D01*
X91526386Y-81019550D01*
X91503399Y-81026523D01*
X91407178Y-81036000D01*
X90592822Y-81036000D01*
X90496601Y-81026523D01*
X90473614Y-81019550D01*
X90373130Y-80989069D01*
X90259341Y-80928248D01*
X90159604Y-80846396D01*
X90077752Y-80746659D01*
X90016931Y-80632870D01*
X89979478Y-80509402D01*
X89979477Y-80509399D01*
X89966831Y-80381000D01*
X89979477Y-80252601D01*
X90016932Y-80129128D01*
X90021130Y-80121275D01*
X90077752Y-80015341D01*
X90159604Y-79915604D01*
X90259341Y-79833752D01*
X90373130Y-79772931D01*
X90496598Y-79735478D01*
X90496601Y-79735477D01*
X90592822Y-79726000D01*
X91407178Y-79726000D01*
X91503399Y-79735477D01*
X91503399Y-79735477D01*
G37*
G36*
X91503399Y-78084477D02*
X91503402Y-78084478D01*
X91626870Y-78121931D01*
X91740659Y-78182752D01*
X91840396Y-78264604D01*
X91922248Y-78364341D01*
X91930501Y-78379782D01*
X91983068Y-78478128D01*
X92020523Y-78601601D01*
X92033169Y-78730000D01*
X92020523Y-78858399D01*
X92020522Y-78858402D01*
X91983069Y-78981870D01*
X91922248Y-79095659D01*
X91840396Y-79195396D01*
X91740659Y-79277248D01*
X91626870Y-79338069D01*
X91526386Y-79368550D01*
X91503399Y-79375523D01*
X91407178Y-79385000D01*
X90592822Y-79385000D01*
X90496601Y-79375523D01*
X90473614Y-79368550D01*
X90373130Y-79338069D01*
X90259341Y-79277248D01*
X90159604Y-79195396D01*
X90077752Y-79095659D01*
X90016931Y-78981870D01*
X89979478Y-78858402D01*
X89979477Y-78858399D01*
X89966831Y-78730000D01*
X89979477Y-78601601D01*
X90016932Y-78478128D01*
X90069499Y-78379782D01*
X90077752Y-78364341D01*
X90159604Y-78264604D01*
X90259341Y-78182752D01*
X90373130Y-78121931D01*
X90496598Y-78084478D01*
X90496601Y-78084477D01*
X90592822Y-78075000D01*
X91407178Y-78075000D01*
X91503399Y-78084477D01*
X91503399Y-78084477D01*
G37*
G36*
X99692110Y-77214180D02*
X99692113Y-77214181D01*
X99876844Y-77270218D01*
X100047093Y-77361218D01*
X100196317Y-77483683D01*
X100318782Y-77632907D01*
X100347732Y-77687069D01*
X100409781Y-77803154D01*
X100465820Y-77987890D01*
X100484741Y-78180000D01*
X100465820Y-78372110D01*
X100465819Y-78372113D01*
X100409782Y-78556844D01*
X100318782Y-78727093D01*
X100196317Y-78876317D01*
X100047093Y-78998782D01*
X99876844Y-79089782D01*
X99726501Y-79135388D01*
X99692110Y-79145820D01*
X99548139Y-79160000D01*
X99451861Y-79160000D01*
X99307890Y-79145820D01*
X99273499Y-79135388D01*
X99123156Y-79089782D01*
X98952907Y-78998782D01*
X98803683Y-78876317D01*
X98681218Y-78727093D01*
X98590218Y-78556844D01*
X98534181Y-78372113D01*
X98534180Y-78372110D01*
X98515259Y-78180000D01*
X98534180Y-77987890D01*
X98590219Y-77803154D01*
X98652268Y-77687069D01*
X98681218Y-77632907D01*
X98803683Y-77483683D01*
X98952907Y-77361218D01*
X99123156Y-77270218D01*
X99307887Y-77214181D01*
X99307890Y-77214180D01*
X99451861Y-77200000D01*
X99548139Y-77200000D01*
X99692110Y-77214180D01*
X99692110Y-77214180D01*
G37*
G36*
X97192110Y-77214180D02*
X97192113Y-77214181D01*
X97376844Y-77270218D01*
X97547093Y-77361218D01*
X97696317Y-77483683D01*
X97818782Y-77632907D01*
X97847732Y-77687069D01*
X97909781Y-77803154D01*
X97965820Y-77987890D01*
X97984741Y-78180000D01*
X97965820Y-78372110D01*
X97965819Y-78372113D01*
X97909782Y-78556844D01*
X97818782Y-78727093D01*
X97696317Y-78876317D01*
X97547093Y-78998782D01*
X97376844Y-79089782D01*
X97226501Y-79135388D01*
X97192110Y-79145820D01*
X97048139Y-79160000D01*
X96951861Y-79160000D01*
X96807890Y-79145820D01*
X96773499Y-79135388D01*
X96623156Y-79089782D01*
X96452907Y-78998782D01*
X96303683Y-78876317D01*
X96181218Y-78727093D01*
X96090218Y-78556844D01*
X96034181Y-78372113D01*
X96034180Y-78372110D01*
X96015259Y-78180000D01*
X96034180Y-77987890D01*
X96090219Y-77803154D01*
X96152268Y-77687069D01*
X96181218Y-77632907D01*
X96303683Y-77483683D01*
X96452907Y-77361218D01*
X96623156Y-77270218D01*
X96807887Y-77214181D01*
X96807890Y-77214180D01*
X96951861Y-77200000D01*
X97048139Y-77200000D01*
X97192110Y-77214180D01*
X97192110Y-77214180D01*
G37*
G36*
X94592110Y-77214180D02*
X94592113Y-77214181D01*
X94776844Y-77270218D01*
X94947093Y-77361218D01*
X95096317Y-77483683D01*
X95218782Y-77632907D01*
X95247732Y-77687069D01*
X95309781Y-77803154D01*
X95365820Y-77987890D01*
X95384741Y-78180000D01*
X95365820Y-78372110D01*
X95365819Y-78372113D01*
X95309782Y-78556844D01*
X95218782Y-78727093D01*
X95096317Y-78876317D01*
X94947093Y-78998782D01*
X94776844Y-79089782D01*
X94626501Y-79135388D01*
X94592110Y-79145820D01*
X94448139Y-79160000D01*
X94351861Y-79160000D01*
X94207890Y-79145820D01*
X94173499Y-79135388D01*
X94023156Y-79089782D01*
X93852907Y-78998782D01*
X93703683Y-78876317D01*
X93581218Y-78727093D01*
X93490218Y-78556844D01*
X93434181Y-78372113D01*
X93434180Y-78372110D01*
X93415259Y-78180000D01*
X93434180Y-77987890D01*
X93490219Y-77803154D01*
X93552268Y-77687069D01*
X93581218Y-77632907D01*
X93703683Y-77483683D01*
X93852907Y-77361218D01*
X94023156Y-77270218D01*
X94207887Y-77214181D01*
X94207890Y-77214180D01*
X94351861Y-77200000D01*
X94448139Y-77200000D01*
X94592110Y-77214180D01*
X94592110Y-77214180D01*
G37*
G36*
X83377110Y-76504180D02*
X83377113Y-76504181D01*
X83561844Y-76560218D01*
X83732093Y-76651218D01*
X83881317Y-76773683D01*
X84003782Y-76922907D01*
X84094782Y-77093156D01*
X84127192Y-77200000D01*
X84150820Y-77277890D01*
X84169741Y-77470000D01*
X84150820Y-77662110D01*
X84150819Y-77662113D01*
X84094782Y-77846844D01*
X84003782Y-78017093D01*
X83881317Y-78166317D01*
X83732093Y-78288782D01*
X83561844Y-78379782D01*
X83411501Y-78425388D01*
X83377110Y-78435820D01*
X83233139Y-78450000D01*
X83136861Y-78450000D01*
X82992890Y-78435820D01*
X82958499Y-78425388D01*
X82808156Y-78379782D01*
X82637907Y-78288782D01*
X82488683Y-78166317D01*
X82366218Y-78017093D01*
X82275218Y-77846844D01*
X82219181Y-77662113D01*
X82219180Y-77662110D01*
X82200259Y-77470000D01*
X82219180Y-77277890D01*
X82242808Y-77200000D01*
X82275218Y-77093156D01*
X82366218Y-76922907D01*
X82488683Y-76773683D01*
X82637907Y-76651218D01*
X82808156Y-76560218D01*
X82992887Y-76504181D01*
X82992890Y-76504180D01*
X83136861Y-76490000D01*
X83233139Y-76490000D01*
X83377110Y-76504180D01*
X83377110Y-76504180D01*
G37*
G36*
X91503399Y-76433477D02*
X91503402Y-76433478D01*
X91626870Y-76470931D01*
X91740659Y-76531752D01*
X91840396Y-76613604D01*
X91922248Y-76713341D01*
X91940289Y-76747094D01*
X91983068Y-76827128D01*
X92020523Y-76950601D01*
X92033169Y-77079000D01*
X92020523Y-77207399D01*
X92020522Y-77207402D01*
X91983069Y-77330870D01*
X91922248Y-77444659D01*
X91840396Y-77544396D01*
X91740659Y-77626248D01*
X91626870Y-77687069D01*
X91526386Y-77717550D01*
X91503399Y-77724523D01*
X91407178Y-77734000D01*
X90592822Y-77734000D01*
X90496601Y-77724523D01*
X90473614Y-77717550D01*
X90373130Y-77687069D01*
X90259341Y-77626248D01*
X90159604Y-77544396D01*
X90077752Y-77444659D01*
X90016931Y-77330870D01*
X89979478Y-77207402D01*
X89979477Y-77207399D01*
X89966831Y-77079000D01*
X89979477Y-76950601D01*
X90016932Y-76827128D01*
X90059711Y-76747094D01*
X90077752Y-76713341D01*
X90159604Y-76613604D01*
X90259341Y-76531752D01*
X90373130Y-76470931D01*
X90496598Y-76433478D01*
X90496601Y-76433477D01*
X90592822Y-76424000D01*
X91407178Y-76424000D01*
X91503399Y-76433477D01*
X91503399Y-76433477D01*
G37*
G36*
X85917110Y-75234180D02*
X85917113Y-75234181D01*
X86101844Y-75290218D01*
X86272093Y-75381218D01*
X86272095Y-75381219D01*
X86272094Y-75381219D01*
X86421317Y-75503683D01*
X86543781Y-75652906D01*
X86634781Y-75823154D01*
X86690820Y-76007890D01*
X86709741Y-76200000D01*
X86690820Y-76392110D01*
X86690819Y-76392113D01*
X86634782Y-76576844D01*
X86543782Y-76747093D01*
X86421317Y-76896317D01*
X86272093Y-77018782D01*
X86101844Y-77109782D01*
X85951501Y-77155388D01*
X85917110Y-77165820D01*
X85773139Y-77180000D01*
X85676861Y-77180000D01*
X85532890Y-77165820D01*
X85498499Y-77155388D01*
X85348156Y-77109782D01*
X85177907Y-77018782D01*
X85028683Y-76896317D01*
X84906218Y-76747093D01*
X84815218Y-76576844D01*
X84759181Y-76392113D01*
X84759180Y-76392110D01*
X84740259Y-76200000D01*
X84759180Y-76007890D01*
X84815219Y-75823154D01*
X84906219Y-75652906D01*
X85028683Y-75503683D01*
X85177906Y-75381219D01*
X85177905Y-75381219D01*
X85177907Y-75381218D01*
X85348156Y-75290218D01*
X85532887Y-75234181D01*
X85532890Y-75234180D01*
X85676861Y-75220000D01*
X85773139Y-75220000D01*
X85917110Y-75234180D01*
X85917110Y-75234180D01*
G37*
G36*
X91503399Y-74235477D02*
X91503402Y-74235478D01*
X91626870Y-74272931D01*
X91740659Y-74333752D01*
X91840396Y-74415604D01*
X91922248Y-74515341D01*
X91978870Y-74621275D01*
X91983068Y-74629128D01*
X92020523Y-74752601D01*
X92033169Y-74881000D01*
X92020523Y-75009399D01*
X92020522Y-75009402D01*
X91983069Y-75132870D01*
X91922248Y-75246659D01*
X91840396Y-75346396D01*
X91740659Y-75428248D01*
X91626870Y-75489069D01*
X91578693Y-75503683D01*
X91503399Y-75526523D01*
X91407178Y-75536000D01*
X90592822Y-75536000D01*
X90496601Y-75526523D01*
X90421307Y-75503683D01*
X90373130Y-75489069D01*
X90259341Y-75428248D01*
X90159604Y-75346396D01*
X90077752Y-75246659D01*
X90016931Y-75132870D01*
X89979478Y-75009402D01*
X89979477Y-75009399D01*
X89966831Y-74881000D01*
X89979477Y-74752601D01*
X90016932Y-74629128D01*
X90021130Y-74621275D01*
X90077752Y-74515341D01*
X90159604Y-74415604D01*
X90259341Y-74333752D01*
X90373130Y-74272931D01*
X90496598Y-74235478D01*
X90496601Y-74235477D01*
X90592822Y-74226000D01*
X91407178Y-74226000D01*
X91503399Y-74235477D01*
X91503399Y-74235477D01*
G37*
G36*
X99665560Y-72528899D02*
X99742845Y-72552344D01*
X99781489Y-72564066D01*
X99838596Y-72594591D01*
X99888328Y-72621173D01*
X99981974Y-72698026D01*
X100058827Y-72791671D01*
X100058828Y-72791673D01*
X100115934Y-72898510D01*
X100127656Y-72937154D01*
X100151101Y-73014439D01*
X100160000Y-73104794D01*
X100160000Y-73895206D01*
X100151101Y-73985561D01*
X100127656Y-74062846D01*
X100115934Y-74101490D01*
X100065359Y-74196109D01*
X100058827Y-74208329D01*
X99981974Y-74301974D01*
X99888329Y-74378827D01*
X99888327Y-74378828D01*
X99781490Y-74435934D01*
X99742846Y-74447656D01*
X99665561Y-74471101D01*
X99585187Y-74479017D01*
X99545001Y-74482975D01*
X99545000Y-74482975D01*
X99424440Y-74471101D01*
X99347155Y-74447656D01*
X99308511Y-74435934D01*
X99201674Y-74378828D01*
X99201672Y-74378827D01*
X99108027Y-74301974D01*
X99031174Y-74208329D01*
X98974067Y-74101489D01*
X98938899Y-73985561D01*
X98930000Y-73895206D01*
X98930000Y-73104795D01*
X98930315Y-73101601D01*
X98938899Y-73014442D01*
X98938899Y-73014440D01*
X98974066Y-72898512D01*
X98974066Y-72898511D01*
X99004591Y-72841404D01*
X99031173Y-72791672D01*
X99108026Y-72698026D01*
X99201671Y-72621173D01*
X99213891Y-72614641D01*
X99308510Y-72564066D01*
X99347154Y-72552344D01*
X99424439Y-72528899D01*
X99514794Y-72520000D01*
X99544999Y-72517025D01*
X99545000Y-72517025D01*
X99665560Y-72528899D01*
X99665560Y-72528899D01*
G37*
G36*
X98014560Y-72528899D02*
X98091845Y-72552344D01*
X98130489Y-72564066D01*
X98187596Y-72594591D01*
X98237328Y-72621173D01*
X98330974Y-72698026D01*
X98407827Y-72791671D01*
X98407828Y-72791673D01*
X98464934Y-72898510D01*
X98476656Y-72937154D01*
X98500101Y-73014439D01*
X98509000Y-73104794D01*
X98509000Y-73895206D01*
X98500101Y-73985561D01*
X98476656Y-74062846D01*
X98464934Y-74101490D01*
X98414359Y-74196109D01*
X98407827Y-74208329D01*
X98330974Y-74301974D01*
X98237329Y-74378827D01*
X98237327Y-74378828D01*
X98130490Y-74435934D01*
X98091846Y-74447656D01*
X98014561Y-74471101D01*
X97934187Y-74479017D01*
X97894001Y-74482975D01*
X97894000Y-74482975D01*
X97773440Y-74471101D01*
X97696155Y-74447656D01*
X97657511Y-74435934D01*
X97550674Y-74378828D01*
X97550672Y-74378827D01*
X97457027Y-74301974D01*
X97380174Y-74208329D01*
X97323067Y-74101489D01*
X97287899Y-73985561D01*
X97279000Y-73895206D01*
X97279000Y-73104795D01*
X97279315Y-73101601D01*
X97287899Y-73014442D01*
X97287899Y-73014440D01*
X97323066Y-72898512D01*
X97323066Y-72898511D01*
X97353591Y-72841404D01*
X97380173Y-72791672D01*
X97457026Y-72698026D01*
X97550671Y-72621173D01*
X97562891Y-72614641D01*
X97657510Y-72564066D01*
X97696154Y-72552344D01*
X97773439Y-72528899D01*
X97863794Y-72520000D01*
X97893999Y-72517025D01*
X97894000Y-72517025D01*
X98014560Y-72528899D01*
X98014560Y-72528899D01*
G37*
G36*
X94712560Y-72528899D02*
X94789845Y-72552344D01*
X94828489Y-72564066D01*
X94885596Y-72594591D01*
X94935328Y-72621173D01*
X95028974Y-72698026D01*
X95105827Y-72791671D01*
X95105828Y-72791673D01*
X95162934Y-72898510D01*
X95174656Y-72937154D01*
X95198101Y-73014439D01*
X95207000Y-73104794D01*
X95207000Y-73895206D01*
X95198101Y-73985561D01*
X95174656Y-74062846D01*
X95162934Y-74101490D01*
X95112359Y-74196109D01*
X95105827Y-74208329D01*
X95028974Y-74301974D01*
X94935329Y-74378827D01*
X94935327Y-74378828D01*
X94828490Y-74435934D01*
X94789846Y-74447656D01*
X94712561Y-74471101D01*
X94632187Y-74479017D01*
X94592001Y-74482975D01*
X94592000Y-74482975D01*
X94471440Y-74471101D01*
X94394155Y-74447656D01*
X94355511Y-74435934D01*
X94248674Y-74378828D01*
X94248672Y-74378827D01*
X94155027Y-74301974D01*
X94078174Y-74208329D01*
X94021067Y-74101489D01*
X93985899Y-73985561D01*
X93977000Y-73895206D01*
X93977000Y-73104795D01*
X93977315Y-73101601D01*
X93985899Y-73014442D01*
X93985899Y-73014440D01*
X94021066Y-72898512D01*
X94021066Y-72898511D01*
X94051591Y-72841404D01*
X94078173Y-72791672D01*
X94155026Y-72698026D01*
X94248671Y-72621173D01*
X94260891Y-72614641D01*
X94355510Y-72564066D01*
X94394154Y-72552344D01*
X94471439Y-72528899D01*
X94561794Y-72520000D01*
X94591999Y-72517025D01*
X94592000Y-72517025D01*
X94712560Y-72528899D01*
X94712560Y-72528899D01*
G37*
G36*
X96858000Y-74480000D02*
X95628000Y-74480000D01*
X95628000Y-72520000D01*
X96858000Y-72520000D01*
X96858000Y-74480000D01*
X96858000Y-74480000D01*
G37*
G36*
X91503399Y-72584477D02*
X91503402Y-72584478D01*
X91626870Y-72621931D01*
X91740659Y-72682752D01*
X91840396Y-72764604D01*
X91922248Y-72864341D01*
X91983069Y-72978130D01*
X91994084Y-73014442D01*
X92020523Y-73101601D01*
X92033169Y-73230000D01*
X92020523Y-73358399D01*
X92020522Y-73358402D01*
X91983069Y-73481870D01*
X91922248Y-73595659D01*
X91840396Y-73695396D01*
X91740659Y-73777248D01*
X91626870Y-73838069D01*
X91526386Y-73868550D01*
X91503399Y-73875523D01*
X91407178Y-73885000D01*
X90592822Y-73885000D01*
X90496601Y-73875523D01*
X90473614Y-73868550D01*
X90373130Y-73838069D01*
X90259341Y-73777248D01*
X90159604Y-73695396D01*
X90077752Y-73595659D01*
X90016931Y-73481870D01*
X89979478Y-73358402D01*
X89979477Y-73358399D01*
X89966831Y-73230000D01*
X89979477Y-73101601D01*
X90005916Y-73014442D01*
X90016931Y-72978130D01*
X90077752Y-72864341D01*
X90159604Y-72764604D01*
X90259341Y-72682752D01*
X90373130Y-72621931D01*
X90496598Y-72584478D01*
X90496601Y-72584477D01*
X90592822Y-72575000D01*
X91407178Y-72575000D01*
X91503399Y-72584477D01*
X91503399Y-72584477D01*
G37*
G36*
X91503399Y-70933477D02*
X91503402Y-70933478D01*
X91626870Y-70970931D01*
X91740659Y-71031752D01*
X91840396Y-71113604D01*
X91922248Y-71213341D01*
X91978870Y-71319275D01*
X91983068Y-71327128D01*
X92020523Y-71450601D01*
X92033169Y-71579000D01*
X92020523Y-71707399D01*
X92020522Y-71707402D01*
X91983069Y-71830870D01*
X91922248Y-71944659D01*
X91840396Y-72044396D01*
X91740659Y-72126248D01*
X91626870Y-72187069D01*
X91526386Y-72217550D01*
X91503399Y-72224523D01*
X91407178Y-72234000D01*
X90592822Y-72234000D01*
X90496601Y-72224523D01*
X90473614Y-72217550D01*
X90373130Y-72187069D01*
X90259341Y-72126248D01*
X90159604Y-72044396D01*
X90077752Y-71944659D01*
X90016931Y-71830870D01*
X89979478Y-71707402D01*
X89979477Y-71707399D01*
X89966831Y-71579000D01*
X89979477Y-71450601D01*
X90016932Y-71327128D01*
X90021130Y-71319275D01*
X90077752Y-71213341D01*
X90159604Y-71113604D01*
X90259341Y-71031752D01*
X90373130Y-70970931D01*
X90496598Y-70933478D01*
X90496601Y-70933477D01*
X90592822Y-70924000D01*
X91407178Y-70924000D01*
X91503399Y-70933477D01*
X91503399Y-70933477D01*
G37*
G36*
X86072110Y-67034180D02*
X86072113Y-67034181D01*
X86256844Y-67090218D01*
X86427093Y-67181218D01*
X86576317Y-67303683D01*
X86698782Y-67452907D01*
X86789782Y-67623156D01*
X86818395Y-67717482D01*
X86845820Y-67807890D01*
X86864741Y-68000000D01*
X86845820Y-68192110D01*
X86845819Y-68192113D01*
X86789782Y-68376844D01*
X86698782Y-68547093D01*
X86576317Y-68696317D01*
X86427093Y-68818782D01*
X86256844Y-68909782D01*
X86106501Y-68955388D01*
X86072110Y-68965820D01*
X85928139Y-68980000D01*
X85831861Y-68980000D01*
X85687890Y-68965820D01*
X85653499Y-68955388D01*
X85503156Y-68909782D01*
X85332907Y-68818782D01*
X85183683Y-68696317D01*
X85061218Y-68547093D01*
X84970218Y-68376844D01*
X84914181Y-68192113D01*
X84914180Y-68192110D01*
X84895259Y-68000000D01*
X84914180Y-67807890D01*
X84941605Y-67717482D01*
X84970218Y-67623156D01*
X85061218Y-67452907D01*
X85183683Y-67303683D01*
X85332907Y-67181218D01*
X85503156Y-67090218D01*
X85687887Y-67034181D01*
X85687890Y-67034180D01*
X85831861Y-67020000D01*
X85928139Y-67020000D01*
X86072110Y-67034180D01*
X86072110Y-67034180D01*
G37*
G36*
X93785856Y-67057660D02*
X93964203Y-67131534D01*
X94124717Y-67238786D01*
X94261214Y-67375283D01*
X94368466Y-67535797D01*
X94442340Y-67714144D01*
X94480000Y-67903477D01*
X94480000Y-68096523D01*
X94442340Y-68285856D01*
X94368466Y-68464203D01*
X94261214Y-68624717D01*
X94124717Y-68761214D01*
X93964203Y-68868466D01*
X93785856Y-68942340D01*
X93596523Y-68980000D01*
X93403477Y-68980000D01*
X93214144Y-68942340D01*
X93035797Y-68868466D01*
X92875283Y-68761214D01*
X92738786Y-68624717D01*
X92631534Y-68464203D01*
X92557660Y-68285856D01*
X92520000Y-68096523D01*
X92520000Y-67903477D01*
X92557660Y-67714144D01*
X92631534Y-67535797D01*
X92738786Y-67375283D01*
X92875283Y-67238786D01*
X93035797Y-67131534D01*
X93214144Y-67057660D01*
X93403477Y-67020000D01*
X93596523Y-67020000D01*
X93785856Y-67057660D01*
X93785856Y-67057660D01*
G37*
G36*
X82777518Y-67194975D02*
X82919465Y-67253771D01*
X82919466Y-67253772D01*
X82919469Y-67253773D01*
X83047221Y-67339135D01*
X83047225Y-67339138D01*
X83155862Y-67447775D01*
X83155864Y-67447778D01*
X83155865Y-67447779D01*
X83241227Y-67575531D01*
X83241228Y-67575534D01*
X83241229Y-67575535D01*
X83300025Y-67717482D01*
X83330000Y-67868176D01*
X83330000Y-68021824D01*
X83300025Y-68172518D01*
X83291909Y-68192113D01*
X83241227Y-68314469D01*
X83155865Y-68442221D01*
X83155862Y-68442225D01*
X83047225Y-68550862D01*
X83047222Y-68550864D01*
X83047221Y-68550865D01*
X82919469Y-68636227D01*
X82919466Y-68636228D01*
X82919465Y-68636229D01*
X82777518Y-68695025D01*
X82626824Y-68725000D01*
X82473176Y-68725000D01*
X82322482Y-68695025D01*
X82180535Y-68636229D01*
X82180534Y-68636228D01*
X82180531Y-68636227D01*
X82052779Y-68550865D01*
X82052778Y-68550864D01*
X82052775Y-68550862D01*
X81944138Y-68442225D01*
X81944135Y-68442221D01*
X81858773Y-68314469D01*
X81808092Y-68192113D01*
X81799975Y-68172518D01*
X81770000Y-68021824D01*
X81770000Y-67868176D01*
X81799975Y-67717482D01*
X81858771Y-67575535D01*
X81858772Y-67575534D01*
X81858773Y-67575531D01*
X81944135Y-67447779D01*
X81944136Y-67447778D01*
X81944138Y-67447775D01*
X82052775Y-67339138D01*
X82052779Y-67339135D01*
X82180531Y-67253773D01*
X82180534Y-67253772D01*
X82180535Y-67253771D01*
X82322482Y-67194975D01*
X82473176Y-67165000D01*
X82626824Y-67165000D01*
X82777518Y-67194975D01*
X82777518Y-67194975D01*
G37*
G36*
X80802907Y-67176286D02*
X80949937Y-67220887D01*
X81085442Y-67293316D01*
X81204212Y-67390788D01*
X81301684Y-67509558D01*
X81374113Y-67645063D01*
X81418714Y-67792093D01*
X81433774Y-67945000D01*
X81418714Y-68097907D01*
X81374113Y-68244937D01*
X81301684Y-68380442D01*
X81204212Y-68499212D01*
X81085442Y-68596684D01*
X80949937Y-68669113D01*
X80802907Y-68713714D01*
X80688318Y-68725000D01*
X80611682Y-68725000D01*
X80497093Y-68713714D01*
X80350063Y-68669113D01*
X80214558Y-68596684D01*
X80095788Y-68499212D01*
X79998316Y-68380442D01*
X79925887Y-68244937D01*
X79881286Y-68097907D01*
X79866226Y-67945000D01*
X79881286Y-67792093D01*
X79925887Y-67645063D01*
X79998316Y-67509558D01*
X80095788Y-67390788D01*
X80214558Y-67293316D01*
X80350063Y-67220887D01*
X80497093Y-67176286D01*
X80611682Y-67165000D01*
X80688318Y-67165000D01*
X80802907Y-67176286D01*
X80802907Y-67176286D01*
G37*
G36*
X89083349Y-62846132D02*
X89207101Y-62897392D01*
X89316994Y-62970820D01*
X89318478Y-62971812D01*
X89413188Y-63066522D01*
X89487609Y-63177901D01*
X89538868Y-63301651D01*
X89565000Y-63433025D01*
X89565000Y-63566975D01*
X89538868Y-63698349D01*
X89487609Y-63822099D01*
X89413188Y-63933478D01*
X89318478Y-64028188D01*
X89318475Y-64028190D01*
X89207101Y-64102608D01*
X89207100Y-64102609D01*
X89207099Y-64102609D01*
X89083349Y-64153868D01*
X88951975Y-64180000D01*
X88818026Y-64180000D01*
X88813161Y-64179032D01*
X88788782Y-64176631D01*
X88764396Y-64179032D01*
X88740946Y-64186145D01*
X88719335Y-64197696D01*
X88700393Y-64213241D01*
X88684847Y-64232182D01*
X88673295Y-64253793D01*
X88666181Y-64277242D01*
X88663779Y-64301628D01*
X88666180Y-64326014D01*
X88673293Y-64349464D01*
X88684844Y-64371075D01*
X88700389Y-64390017D01*
X88719333Y-64405565D01*
X88818477Y-64471811D01*
X88913188Y-64566522D01*
X88987609Y-64677901D01*
X89038868Y-64801651D01*
X89065000Y-64933025D01*
X89065000Y-65066975D01*
X89038868Y-65198349D01*
X88987609Y-65322099D01*
X88913188Y-65433478D01*
X88818478Y-65528188D01*
X88818475Y-65528190D01*
X88707101Y-65602608D01*
X88707100Y-65602609D01*
X88707099Y-65602609D01*
X88583349Y-65653868D01*
X88451975Y-65680000D01*
X88318025Y-65680000D01*
X88186651Y-65653868D01*
X88062901Y-65602609D01*
X88062900Y-65602609D01*
X88062899Y-65602608D01*
X87951525Y-65528190D01*
X87951522Y-65528188D01*
X87856812Y-65433478D01*
X87782391Y-65322099D01*
X87731132Y-65198349D01*
X87705000Y-65066975D01*
X87705000Y-64933025D01*
X87731132Y-64801651D01*
X87782391Y-64677901D01*
X87856812Y-64566522D01*
X87951522Y-64471812D01*
X87953006Y-64470820D01*
X88062899Y-64397392D01*
X88080704Y-64390017D01*
X88186651Y-64346132D01*
X88318025Y-64320000D01*
X88451974Y-64320000D01*
X88456839Y-64320968D01*
X88481218Y-64323369D01*
X88505604Y-64320968D01*
X88529054Y-64313855D01*
X88550665Y-64302304D01*
X88569607Y-64286759D01*
X88585153Y-64267818D01*
X88596705Y-64246207D01*
X88603819Y-64222758D01*
X88606221Y-64198372D01*
X88603820Y-64173986D01*
X88596707Y-64150536D01*
X88585156Y-64128925D01*
X88569611Y-64109983D01*
X88550667Y-64094435D01*
X88451523Y-64028189D01*
X88356812Y-63933478D01*
X88282391Y-63822099D01*
X88231132Y-63698349D01*
X88205000Y-63566975D01*
X88205000Y-63433025D01*
X88231132Y-63301651D01*
X88282391Y-63177901D01*
X88356812Y-63066522D01*
X88451522Y-62971812D01*
X88453006Y-62970820D01*
X88562899Y-62897392D01*
X88686651Y-62846132D01*
X88818025Y-62820000D01*
X88951975Y-62820000D01*
X89083349Y-62846132D01*
X89083349Y-62846132D01*
G37*
G36*
X92583349Y-64346132D02*
X92689297Y-64390017D01*
X92707101Y-64397392D01*
X92816994Y-64470820D01*
X92818478Y-64471812D01*
X92913188Y-64566522D01*
X92987609Y-64677901D01*
X93038868Y-64801651D01*
X93065000Y-64933025D01*
X93065000Y-65066975D01*
X93038868Y-65198349D01*
X92987609Y-65322099D01*
X92913188Y-65433478D01*
X92818478Y-65528188D01*
X92818475Y-65528190D01*
X92707101Y-65602608D01*
X92707100Y-65602609D01*
X92707099Y-65602609D01*
X92583349Y-65653868D01*
X92451975Y-65680000D01*
X92318025Y-65680000D01*
X92186651Y-65653868D01*
X92062901Y-65602609D01*
X92062900Y-65602609D01*
X92062899Y-65602608D01*
X91951525Y-65528190D01*
X91951522Y-65528188D01*
X91856812Y-65433478D01*
X91782391Y-65322099D01*
X91731132Y-65198349D01*
X91705000Y-65066975D01*
X91705000Y-64933025D01*
X91731132Y-64801651D01*
X91782391Y-64677901D01*
X91856812Y-64566522D01*
X91951522Y-64471812D01*
X91953006Y-64470820D01*
X92062899Y-64397392D01*
X92080704Y-64390017D01*
X92186651Y-64346132D01*
X92318025Y-64320000D01*
X92451975Y-64320000D01*
X92583349Y-64346132D01*
X92583349Y-64346132D01*
G37*
G36*
X94583349Y-64346132D02*
X94689297Y-64390017D01*
X94707101Y-64397392D01*
X94816994Y-64470820D01*
X94818478Y-64471812D01*
X94913188Y-64566522D01*
X94987609Y-64677901D01*
X95038868Y-64801651D01*
X95065000Y-64933025D01*
X95065000Y-65066975D01*
X95038868Y-65198349D01*
X94987609Y-65322099D01*
X94913188Y-65433478D01*
X94818478Y-65528188D01*
X94818475Y-65528190D01*
X94707101Y-65602608D01*
X94707100Y-65602609D01*
X94707099Y-65602609D01*
X94583349Y-65653868D01*
X94451975Y-65680000D01*
X94318025Y-65680000D01*
X94186651Y-65653868D01*
X94062901Y-65602609D01*
X94062900Y-65602609D01*
X94062899Y-65602608D01*
X93951525Y-65528190D01*
X93951522Y-65528188D01*
X93856812Y-65433478D01*
X93782391Y-65322099D01*
X93731132Y-65198349D01*
X93705000Y-65066975D01*
X93705000Y-64933025D01*
X93731132Y-64801651D01*
X93782391Y-64677901D01*
X93856812Y-64566522D01*
X93951522Y-64471812D01*
X93953006Y-64470820D01*
X94062899Y-64397392D01*
X94080704Y-64390017D01*
X94186651Y-64346132D01*
X94318025Y-64320000D01*
X94451975Y-64320000D01*
X94583349Y-64346132D01*
X94583349Y-64346132D01*
G37*
G36*
X96083349Y-62846132D02*
X96207101Y-62897392D01*
X96316994Y-62970820D01*
X96318478Y-62971812D01*
X96413188Y-63066522D01*
X96487609Y-63177901D01*
X96538868Y-63301651D01*
X96565000Y-63433025D01*
X96565000Y-63566975D01*
X96538868Y-63698349D01*
X96487609Y-63822099D01*
X96413188Y-63933478D01*
X96318477Y-64028189D01*
X96219333Y-64094435D01*
X96200390Y-64109981D01*
X96184845Y-64128923D01*
X96173294Y-64150534D01*
X96166181Y-64173983D01*
X96163779Y-64198369D01*
X96166181Y-64222756D01*
X96173294Y-64246205D01*
X96184845Y-64267815D01*
X96200391Y-64286758D01*
X96219333Y-64302303D01*
X96240944Y-64313854D01*
X96264393Y-64320967D01*
X96288779Y-64323369D01*
X96313161Y-64320968D01*
X96318026Y-64320000D01*
X96451975Y-64320000D01*
X96583349Y-64346132D01*
X96689297Y-64390017D01*
X96707101Y-64397392D01*
X96816994Y-64470820D01*
X96818478Y-64471812D01*
X96913188Y-64566522D01*
X96987609Y-64677901D01*
X97038868Y-64801651D01*
X97065000Y-64933025D01*
X97065000Y-65066975D01*
X97038868Y-65198349D01*
X96987609Y-65322099D01*
X96913188Y-65433478D01*
X96818478Y-65528188D01*
X96818475Y-65528190D01*
X96707101Y-65602608D01*
X96707100Y-65602609D01*
X96707099Y-65602609D01*
X96583349Y-65653868D01*
X96451975Y-65680000D01*
X96318025Y-65680000D01*
X96186651Y-65653868D01*
X96062901Y-65602609D01*
X96062900Y-65602609D01*
X96062899Y-65602608D01*
X95951525Y-65528190D01*
X95951522Y-65528188D01*
X95856812Y-65433478D01*
X95782391Y-65322099D01*
X95731132Y-65198349D01*
X95705000Y-65066975D01*
X95705000Y-64933025D01*
X95731132Y-64801651D01*
X95782391Y-64677901D01*
X95856812Y-64566522D01*
X95951523Y-64471811D01*
X96050667Y-64405565D01*
X96069610Y-64390019D01*
X96085155Y-64371077D01*
X96096706Y-64349466D01*
X96103819Y-64326017D01*
X96106221Y-64301631D01*
X96103819Y-64277244D01*
X96096706Y-64253795D01*
X96085155Y-64232185D01*
X96069609Y-64213242D01*
X96050667Y-64197697D01*
X96029056Y-64186146D01*
X96005607Y-64179033D01*
X95981221Y-64176631D01*
X95956839Y-64179032D01*
X95951974Y-64180000D01*
X95818025Y-64180000D01*
X95686651Y-64153868D01*
X95562901Y-64102609D01*
X95562900Y-64102609D01*
X95562899Y-64102608D01*
X95451525Y-64028190D01*
X95451522Y-64028188D01*
X95356812Y-63933478D01*
X95282391Y-63822099D01*
X95231132Y-63698349D01*
X95205000Y-63566975D01*
X95205000Y-63433025D01*
X95231132Y-63301651D01*
X95282391Y-63177901D01*
X95356812Y-63066522D01*
X95451522Y-62971812D01*
X95453006Y-62970820D01*
X95562899Y-62897392D01*
X95686651Y-62846132D01*
X95818025Y-62820000D01*
X95951975Y-62820000D01*
X96083349Y-62846132D01*
X96083349Y-62846132D01*
G37*
G36*
X90583349Y-64346132D02*
X90689297Y-64390017D01*
X90707101Y-64397392D01*
X90816994Y-64470820D01*
X90818478Y-64471812D01*
X90913188Y-64566522D01*
X90987609Y-64677901D01*
X91038868Y-64801651D01*
X91065000Y-64933025D01*
X91065000Y-65066975D01*
X91038868Y-65198349D01*
X90987609Y-65322099D01*
X90913188Y-65433478D01*
X90818478Y-65528188D01*
X90818475Y-65528190D01*
X90707101Y-65602608D01*
X90707100Y-65602609D01*
X90707099Y-65602609D01*
X90583349Y-65653868D01*
X90451975Y-65680000D01*
X90318025Y-65680000D01*
X90186651Y-65653868D01*
X90062901Y-65602609D01*
X90062900Y-65602609D01*
X90062899Y-65602608D01*
X89951525Y-65528190D01*
X89951522Y-65528188D01*
X89856812Y-65433478D01*
X89782391Y-65322099D01*
X89731132Y-65198349D01*
X89705000Y-65066975D01*
X89705000Y-64933025D01*
X89731132Y-64801651D01*
X89782391Y-64677901D01*
X89856812Y-64566522D01*
X89951522Y-64471812D01*
X89953006Y-64470820D01*
X90062899Y-64397392D01*
X90080704Y-64390017D01*
X90186651Y-64346132D01*
X90318025Y-64320000D01*
X90451975Y-64320000D01*
X90583349Y-64346132D01*
X90583349Y-64346132D01*
G37*
G36*
X93583349Y-62846132D02*
X93707101Y-62897392D01*
X93816994Y-62970820D01*
X93818478Y-62971812D01*
X93913188Y-63066522D01*
X93987609Y-63177901D01*
X94038868Y-63301651D01*
X94065000Y-63433025D01*
X94065000Y-63566975D01*
X94038868Y-63698349D01*
X93987609Y-63822099D01*
X93913188Y-63933478D01*
X93818478Y-64028188D01*
X93818475Y-64028190D01*
X93707101Y-64102608D01*
X93707100Y-64102609D01*
X93707099Y-64102609D01*
X93583349Y-64153868D01*
X93451975Y-64180000D01*
X93318025Y-64180000D01*
X93186651Y-64153868D01*
X93062901Y-64102609D01*
X93062900Y-64102609D01*
X93062899Y-64102608D01*
X92951525Y-64028190D01*
X92951522Y-64028188D01*
X92856812Y-63933478D01*
X92782391Y-63822099D01*
X92731132Y-63698349D01*
X92705000Y-63566975D01*
X92705000Y-63433025D01*
X92731132Y-63301651D01*
X92782391Y-63177901D01*
X92856812Y-63066522D01*
X92951522Y-62971812D01*
X92953006Y-62970820D01*
X93062899Y-62897392D01*
X93186651Y-62846132D01*
X93318025Y-62820000D01*
X93451975Y-62820000D01*
X93583349Y-62846132D01*
X93583349Y-62846132D01*
G37*
G36*
X91583349Y-62846132D02*
X91707101Y-62897392D01*
X91816994Y-62970820D01*
X91818478Y-62971812D01*
X91913188Y-63066522D01*
X91987609Y-63177901D01*
X92038868Y-63301651D01*
X92065000Y-63433025D01*
X92065000Y-63566975D01*
X92038868Y-63698349D01*
X91987609Y-63822099D01*
X91913188Y-63933478D01*
X91818478Y-64028188D01*
X91818475Y-64028190D01*
X91707101Y-64102608D01*
X91707100Y-64102609D01*
X91707099Y-64102609D01*
X91583349Y-64153868D01*
X91451975Y-64180000D01*
X91318025Y-64180000D01*
X91186651Y-64153868D01*
X91062901Y-64102609D01*
X91062900Y-64102609D01*
X91062899Y-64102608D01*
X90951525Y-64028190D01*
X90951522Y-64028188D01*
X90856812Y-63933478D01*
X90782391Y-63822099D01*
X90731132Y-63698349D01*
X90705000Y-63566975D01*
X90705000Y-63433025D01*
X90731132Y-63301651D01*
X90782391Y-63177901D01*
X90856812Y-63066522D01*
X90951522Y-62971812D01*
X90953006Y-62970820D01*
X91062899Y-62897392D01*
X91186651Y-62846132D01*
X91318025Y-62820000D01*
X91451975Y-62820000D01*
X91583349Y-62846132D01*
X91583349Y-62846132D01*
G37*
G36*
X81058838Y-59750961D02*
X81129872Y-59780384D01*
X81364579Y-59877603D01*
X81395877Y-59898516D01*
X81639741Y-60061461D01*
X81873739Y-60295459D01*
X82057598Y-60570623D01*
X82184239Y-60876362D01*
X82248800Y-61200933D01*
X82248800Y-61531867D01*
X82184239Y-61856438D01*
X82066943Y-62139617D01*
X82057597Y-62162179D01*
X81946709Y-62328134D01*
X81873739Y-62437341D01*
X81639741Y-62671339D01*
X81639738Y-62671341D01*
X81364579Y-62855197D01*
X81364578Y-62855198D01*
X81364577Y-62855198D01*
X81058838Y-62981839D01*
X80734267Y-63046400D01*
X80403333Y-63046400D01*
X80078762Y-62981839D01*
X79773023Y-62855198D01*
X79773022Y-62855198D01*
X79773021Y-62855197D01*
X79497862Y-62671341D01*
X79497859Y-62671339D01*
X79263861Y-62437341D01*
X79190891Y-62328134D01*
X79080003Y-62162179D01*
X79070658Y-62139617D01*
X78953361Y-61856438D01*
X78888800Y-61531867D01*
X78888800Y-61200933D01*
X78953361Y-60876362D01*
X79080002Y-60570623D01*
X79263861Y-60295459D01*
X79497859Y-60061461D01*
X79741723Y-59898516D01*
X79773021Y-59877603D01*
X80007729Y-59780384D01*
X80078762Y-59750961D01*
X80403333Y-59686400D01*
X80734267Y-59686400D01*
X81058838Y-59750961D01*
X81058838Y-59750961D01*
G37*
G36*
X85096303Y-59489839D02*
X85160394Y-59509281D01*
X85224485Y-59528722D01*
X85342617Y-59591865D01*
X85446159Y-59676841D01*
X85531135Y-59780383D01*
X85594278Y-59898515D01*
X85633161Y-60026698D01*
X85643000Y-60126594D01*
X85643000Y-61793406D01*
X85633161Y-61893302D01*
X85594278Y-62021485D01*
X85531135Y-62139617D01*
X85446159Y-62243159D01*
X85361183Y-62312897D01*
X85342615Y-62328135D01*
X85287627Y-62357527D01*
X85224484Y-62391278D01*
X85160392Y-62410720D01*
X85096302Y-62430161D01*
X84963000Y-62443290D01*
X84829697Y-62430161D01*
X84765607Y-62410720D01*
X84701515Y-62391278D01*
X84583383Y-62328135D01*
X84479841Y-62243159D01*
X84394866Y-62139616D01*
X84331722Y-62021484D01*
X84312281Y-61957393D01*
X84292839Y-61893302D01*
X84283000Y-61793403D01*
X84283001Y-60126596D01*
X84292840Y-60026697D01*
X84331723Y-59898516D01*
X84331723Y-59898515D01*
X84394866Y-59780383D01*
X84479842Y-59676841D01*
X84583384Y-59591865D01*
X84701516Y-59528722D01*
X84765607Y-59509281D01*
X84829698Y-59489839D01*
X84963000Y-59476710D01*
X85096303Y-59489839D01*
X85096303Y-59489839D01*
G37*
G36*
X99955303Y-59489839D02*
X100019394Y-59509281D01*
X100083485Y-59528722D01*
X100201617Y-59591865D01*
X100305159Y-59676841D01*
X100390135Y-59780383D01*
X100453278Y-59898515D01*
X100492161Y-60026698D01*
X100502000Y-60126594D01*
X100502000Y-61793406D01*
X100492161Y-61893302D01*
X100453278Y-62021485D01*
X100390135Y-62139617D01*
X100305159Y-62243159D01*
X100220183Y-62312897D01*
X100201615Y-62328135D01*
X100146627Y-62357527D01*
X100083484Y-62391278D01*
X100019392Y-62410720D01*
X99955302Y-62430161D01*
X99822000Y-62443290D01*
X99688697Y-62430161D01*
X99624607Y-62410720D01*
X99560515Y-62391278D01*
X99442383Y-62328135D01*
X99338841Y-62243159D01*
X99253866Y-62139616D01*
X99190722Y-62021484D01*
X99171280Y-61957392D01*
X99151839Y-61893302D01*
X99142000Y-61793403D01*
X99142001Y-60126596D01*
X99151840Y-60026697D01*
X99190723Y-59898516D01*
X99190723Y-59898515D01*
X99253866Y-59780383D01*
X99338842Y-59676841D01*
X99442384Y-59591865D01*
X99560516Y-59528722D01*
X99624607Y-59509281D01*
X99688698Y-59489839D01*
X99822000Y-59476710D01*
X99955303Y-59489839D01*
X99955303Y-59489839D01*
G37*
M02*
