G04 #@! TF.GenerationSoftware,KiCad,Pcbnew,5.0.2-bee76a0~70~ubuntu16.04.1*
G04 #@! TF.CreationDate,2020-01-14T09:55:27-07:00*
G04 #@! TF.ProjectId,Environment_Controller_KiCad_THT,456e7669-726f-46e6-9d65-6e745f436f6e,rev?*
G04 #@! TF.SameCoordinates,Original*
G04 #@! TF.FileFunction,Legend,Top*
G04 #@! TF.FilePolarity,Positive*
%FSLAX46Y46*%
G04 Gerber Fmt 4.6, Leading zero omitted, Abs format (unit mm)*
G04 Created by KiCad (PCBNEW 5.0.2-bee76a0~70~ubuntu16.04.1) date Tue 14 Jan 2020 09:55:27 AM MST*
%MOMM*%
%LPD*%
G01*
G04 APERTURE LIST*
%ADD10C,0.500000*%
%ADD11C,0.400000*%
%ADD12C,0.150000*%
%ADD13C,0.100000*%
%ADD14C,0.120000*%
%ADD15C,0.300000*%
G04 APERTURE END LIST*
D10*
X131285714Y-106714285D02*
X131714285Y-106857142D01*
X132428571Y-106857142D01*
X132714285Y-106714285D01*
X132857142Y-106571428D01*
X133000000Y-106285714D01*
X133000000Y-106000000D01*
X132857142Y-105714285D01*
X132714285Y-105571428D01*
X132428571Y-105428571D01*
X131857142Y-105285714D01*
X131571428Y-105142857D01*
X131428571Y-105000000D01*
X131285714Y-104714285D01*
X131285714Y-104428571D01*
X131428571Y-104142857D01*
X131571428Y-104000000D01*
X131857142Y-103857142D01*
X132571428Y-103857142D01*
X133000000Y-104000000D01*
X135428571Y-106714285D02*
X135142857Y-106857142D01*
X134571428Y-106857142D01*
X134285714Y-106714285D01*
X134142857Y-106428571D01*
X134142857Y-105285714D01*
X134285714Y-105000000D01*
X134571428Y-104857142D01*
X135142857Y-104857142D01*
X135428571Y-105000000D01*
X135571428Y-105285714D01*
X135571428Y-105571428D01*
X134142857Y-105857142D01*
X136857142Y-104857142D02*
X136857142Y-106857142D01*
X136857142Y-105142857D02*
X137000000Y-105000000D01*
X137285714Y-104857142D01*
X137714285Y-104857142D01*
X138000000Y-105000000D01*
X138142857Y-105285714D01*
X138142857Y-106857142D01*
X139428571Y-106714285D02*
X139714285Y-106857142D01*
X140285714Y-106857142D01*
X140571428Y-106714285D01*
X140714285Y-106428571D01*
X140714285Y-106285714D01*
X140571428Y-106000000D01*
X140285714Y-105857142D01*
X139857142Y-105857142D01*
X139571428Y-105714285D01*
X139428571Y-105428571D01*
X139428571Y-105285714D01*
X139571428Y-105000000D01*
X139857142Y-104857142D01*
X140285714Y-104857142D01*
X140571428Y-105000000D01*
X142000000Y-106857142D02*
X142000000Y-104857142D01*
X142000000Y-103857142D02*
X141857142Y-104000000D01*
X142000000Y-104142857D01*
X142142857Y-104000000D01*
X142000000Y-103857142D01*
X142000000Y-104142857D01*
X143428571Y-105714285D02*
X145714285Y-105714285D01*
X147142857Y-104857142D02*
X147142857Y-107857142D01*
X147142857Y-105000000D02*
X147428571Y-104857142D01*
X148000000Y-104857142D01*
X148285714Y-105000000D01*
X148428571Y-105142857D01*
X148571428Y-105428571D01*
X148571428Y-106285714D01*
X148428571Y-106571428D01*
X148285714Y-106714285D01*
X148000000Y-106857142D01*
X147428571Y-106857142D01*
X147142857Y-106714285D01*
X150285714Y-106857142D02*
X150000000Y-106714285D01*
X149857142Y-106571428D01*
X149714285Y-106285714D01*
X149714285Y-105428571D01*
X149857142Y-105142857D01*
X150000000Y-105000000D01*
X150285714Y-104857142D01*
X150714285Y-104857142D01*
X151000000Y-105000000D01*
X151142857Y-105142857D01*
X151285714Y-105428571D01*
X151285714Y-106285714D01*
X151142857Y-106571428D01*
X151000000Y-106714285D01*
X150714285Y-106857142D01*
X150285714Y-106857142D01*
X152142857Y-104857142D02*
X153285714Y-104857142D01*
X152571428Y-103857142D02*
X152571428Y-106428571D01*
X152714285Y-106714285D01*
X153000000Y-106857142D01*
X153285714Y-106857142D01*
X154285714Y-106571428D02*
X154428571Y-106714285D01*
X154285714Y-106857142D01*
X154142857Y-106714285D01*
X154285714Y-106571428D01*
X154285714Y-106857142D01*
X157000000Y-106714285D02*
X156714285Y-106857142D01*
X156142857Y-106857142D01*
X155857142Y-106714285D01*
X155714285Y-106571428D01*
X155571428Y-106285714D01*
X155571428Y-105428571D01*
X155714285Y-105142857D01*
X155857142Y-105000000D01*
X156142857Y-104857142D01*
X156714285Y-104857142D01*
X157000000Y-105000000D01*
X158714285Y-106857142D02*
X158428571Y-106714285D01*
X158285714Y-106571428D01*
X158142857Y-106285714D01*
X158142857Y-105428571D01*
X158285714Y-105142857D01*
X158428571Y-105000000D01*
X158714285Y-104857142D01*
X159142857Y-104857142D01*
X159428571Y-105000000D01*
X159571428Y-105142857D01*
X159714285Y-105428571D01*
X159714285Y-106285714D01*
X159571428Y-106571428D01*
X159428571Y-106714285D01*
X159142857Y-106857142D01*
X158714285Y-106857142D01*
X161000000Y-106857142D02*
X161000000Y-104857142D01*
X161000000Y-105142857D02*
X161142857Y-105000000D01*
X161428571Y-104857142D01*
X161857142Y-104857142D01*
X162142857Y-105000000D01*
X162285714Y-105285714D01*
X162285714Y-106857142D01*
X162285714Y-105285714D02*
X162428571Y-105000000D01*
X162714285Y-104857142D01*
X163142857Y-104857142D01*
X163428571Y-105000000D01*
X163571428Y-105285714D01*
X163571428Y-106857142D01*
D11*
X135500000Y-101833333D02*
X136452380Y-101833333D01*
X135309523Y-102404761D02*
X135976190Y-100404761D01*
X136642857Y-102404761D01*
X137309523Y-102404761D02*
X137309523Y-101071428D01*
X137309523Y-101452380D02*
X137404761Y-101261904D01*
X137500000Y-101166666D01*
X137690476Y-101071428D01*
X137880952Y-101071428D01*
X138261904Y-101071428D02*
X139023809Y-101071428D01*
X138547619Y-100404761D02*
X138547619Y-102119047D01*
X138642857Y-102309523D01*
X138833333Y-102404761D01*
X139023809Y-102404761D01*
X139976190Y-102404761D02*
X139785714Y-102309523D01*
X139690476Y-102214285D01*
X139595238Y-102023809D01*
X139595238Y-101452380D01*
X139690476Y-101261904D01*
X139785714Y-101166666D01*
X139976190Y-101071428D01*
X140261904Y-101071428D01*
X140452380Y-101166666D01*
X140547619Y-101261904D01*
X140642857Y-101452380D01*
X140642857Y-102023809D01*
X140547619Y-102214285D01*
X140452380Y-102309523D01*
X140261904Y-102404761D01*
X139976190Y-102404761D01*
X142452380Y-102404761D02*
X141500000Y-102404761D01*
X141500000Y-100404761D01*
X143976190Y-102404761D02*
X143976190Y-101357142D01*
X143880952Y-101166666D01*
X143690476Y-101071428D01*
X143309523Y-101071428D01*
X143119047Y-101166666D01*
X143976190Y-102309523D02*
X143785714Y-102404761D01*
X143309523Y-102404761D01*
X143119047Y-102309523D01*
X143023809Y-102119047D01*
X143023809Y-101928571D01*
X143119047Y-101738095D01*
X143309523Y-101642857D01*
X143785714Y-101642857D01*
X143976190Y-101547619D01*
X144928571Y-102404761D02*
X144928571Y-100404761D01*
X144928571Y-101166666D02*
X145119047Y-101071428D01*
X145500000Y-101071428D01*
X145690476Y-101166666D01*
X145785714Y-101261904D01*
X145880952Y-101452380D01*
X145880952Y-102023809D01*
X145785714Y-102214285D01*
X145690476Y-102309523D01*
X145500000Y-102404761D01*
X145119047Y-102404761D01*
X144928571Y-102309523D01*
X146642857Y-102309523D02*
X146833333Y-102404761D01*
X147214285Y-102404761D01*
X147404761Y-102309523D01*
X147500000Y-102119047D01*
X147500000Y-102023809D01*
X147404761Y-101833333D01*
X147214285Y-101738095D01*
X146928571Y-101738095D01*
X146738095Y-101642857D01*
X146642857Y-101452380D01*
X146642857Y-101357142D01*
X146738095Y-101166666D01*
X146928571Y-101071428D01*
X147214285Y-101071428D01*
X147404761Y-101166666D01*
D12*
X184809523Y-109452380D02*
X184333333Y-109452380D01*
X184285714Y-109928571D01*
X184333333Y-109880952D01*
X184428571Y-109833333D01*
X184666666Y-109833333D01*
X184761904Y-109880952D01*
X184809523Y-109928571D01*
X184857142Y-110023809D01*
X184857142Y-110261904D01*
X184809523Y-110357142D01*
X184761904Y-110404761D01*
X184666666Y-110452380D01*
X184428571Y-110452380D01*
X184333333Y-110404761D01*
X184285714Y-110357142D01*
X185142857Y-109452380D02*
X185476190Y-110452380D01*
X185809523Y-109452380D01*
X184761904Y-107666666D02*
X185238095Y-107666666D01*
X184666666Y-107952380D02*
X185000000Y-106952380D01*
X185333333Y-107952380D01*
X184666666Y-89452380D02*
X185333333Y-89452380D01*
X184904761Y-90452380D01*
X185190476Y-91952380D02*
X185000000Y-91952380D01*
X184904761Y-92000000D01*
X184857142Y-92047619D01*
X184761904Y-92190476D01*
X184714285Y-92380952D01*
X184714285Y-92761904D01*
X184761904Y-92857142D01*
X184809523Y-92904761D01*
X184904761Y-92952380D01*
X185095238Y-92952380D01*
X185190476Y-92904761D01*
X185238095Y-92857142D01*
X185285714Y-92761904D01*
X185285714Y-92523809D01*
X185238095Y-92428571D01*
X185190476Y-92380952D01*
X185095238Y-92333333D01*
X184904761Y-92333333D01*
X184809523Y-92380952D01*
X184761904Y-92428571D01*
X184714285Y-92523809D01*
X185238095Y-94452380D02*
X184761904Y-94452380D01*
X184714285Y-94928571D01*
X184761904Y-94880952D01*
X184857142Y-94833333D01*
X185095238Y-94833333D01*
X185190476Y-94880952D01*
X185238095Y-94928571D01*
X185285714Y-95023809D01*
X185285714Y-95261904D01*
X185238095Y-95357142D01*
X185190476Y-95404761D01*
X185095238Y-95452380D01*
X184857142Y-95452380D01*
X184761904Y-95404761D01*
X184714285Y-95357142D01*
X185190476Y-97285714D02*
X185190476Y-97952380D01*
X184952380Y-96904761D02*
X184714285Y-97619047D01*
X185333333Y-97619047D01*
X184666666Y-99452380D02*
X185285714Y-99452380D01*
X184952380Y-99833333D01*
X185095238Y-99833333D01*
X185190476Y-99880952D01*
X185238095Y-99928571D01*
X185285714Y-100023809D01*
X185285714Y-100261904D01*
X185238095Y-100357142D01*
X185190476Y-100404761D01*
X185095238Y-100452380D01*
X184809523Y-100452380D01*
X184714285Y-100404761D01*
X184666666Y-100357142D01*
X184714285Y-102047619D02*
X184761904Y-102000000D01*
X184857142Y-101952380D01*
X185095238Y-101952380D01*
X185190476Y-102000000D01*
X185238095Y-102047619D01*
X185285714Y-102142857D01*
X185285714Y-102238095D01*
X185238095Y-102380952D01*
X184666666Y-102952380D01*
X185285714Y-102952380D01*
X185285714Y-105452380D02*
X184714285Y-105452380D01*
X185000000Y-105452380D02*
X185000000Y-104452380D01*
X184904761Y-104595238D01*
X184809523Y-104690476D01*
X184714285Y-104738095D01*
X185261904Y-87000000D02*
X185166666Y-86952380D01*
X185023809Y-86952380D01*
X184880952Y-87000000D01*
X184785714Y-87095238D01*
X184738095Y-87190476D01*
X184690476Y-87380952D01*
X184690476Y-87523809D01*
X184738095Y-87714285D01*
X184785714Y-87809523D01*
X184880952Y-87904761D01*
X185023809Y-87952380D01*
X185119047Y-87952380D01*
X185261904Y-87904761D01*
X185309523Y-87857142D01*
X185309523Y-87523809D01*
X185119047Y-87523809D01*
X185261904Y-80500000D02*
X185166666Y-80452380D01*
X185023809Y-80452380D01*
X184880952Y-80500000D01*
X184785714Y-80595238D01*
X184738095Y-80690476D01*
X184690476Y-80880952D01*
X184690476Y-81023809D01*
X184738095Y-81214285D01*
X184785714Y-81309523D01*
X184880952Y-81404761D01*
X185023809Y-81452380D01*
X185119047Y-81452380D01*
X185261904Y-81404761D01*
X185309523Y-81357142D01*
X185309523Y-81023809D01*
X185119047Y-81023809D01*
X184809523Y-78952380D02*
X184238095Y-78952380D01*
X184523809Y-78952380D02*
X184523809Y-77952380D01*
X184428571Y-78095238D01*
X184333333Y-78190476D01*
X184238095Y-78238095D01*
X185428571Y-77952380D02*
X185523809Y-77952380D01*
X185619047Y-78000000D01*
X185666666Y-78047619D01*
X185714285Y-78142857D01*
X185761904Y-78333333D01*
X185761904Y-78571428D01*
X185714285Y-78761904D01*
X185666666Y-78857142D01*
X185619047Y-78904761D01*
X185523809Y-78952380D01*
X185428571Y-78952380D01*
X185333333Y-78904761D01*
X185285714Y-78857142D01*
X185238095Y-78761904D01*
X185190476Y-78571428D01*
X185190476Y-78333333D01*
X185238095Y-78142857D01*
X185285714Y-78047619D01*
X185333333Y-78000000D01*
X185428571Y-77952380D01*
X184809523Y-76452380D02*
X184238095Y-76452380D01*
X184523809Y-76452380D02*
X184523809Y-75452380D01*
X184428571Y-75595238D01*
X184333333Y-75690476D01*
X184238095Y-75738095D01*
X185142857Y-75452380D02*
X185761904Y-75452380D01*
X185428571Y-75833333D01*
X185571428Y-75833333D01*
X185666666Y-75880952D01*
X185714285Y-75928571D01*
X185761904Y-76023809D01*
X185761904Y-76261904D01*
X185714285Y-76357142D01*
X185666666Y-76404761D01*
X185571428Y-76452380D01*
X185285714Y-76452380D01*
X185190476Y-76404761D01*
X185142857Y-76357142D01*
X184809523Y-73952380D02*
X184238095Y-73952380D01*
X184523809Y-73952380D02*
X184523809Y-72952380D01*
X184428571Y-73095238D01*
X184333333Y-73190476D01*
X184238095Y-73238095D01*
X185190476Y-73047619D02*
X185238095Y-73000000D01*
X185333333Y-72952380D01*
X185571428Y-72952380D01*
X185666666Y-73000000D01*
X185714285Y-73047619D01*
X185761904Y-73142857D01*
X185761904Y-73238095D01*
X185714285Y-73380952D01*
X185142857Y-73952380D01*
X185761904Y-73952380D01*
X184809523Y-71452380D02*
X184238095Y-71452380D01*
X184523809Y-71452380D02*
X184523809Y-70452380D01*
X184428571Y-70595238D01*
X184333333Y-70690476D01*
X184238095Y-70738095D01*
X185761904Y-71452380D02*
X185190476Y-71452380D01*
X185476190Y-71452380D02*
X185476190Y-70452380D01*
X185380952Y-70595238D01*
X185285714Y-70690476D01*
X185190476Y-70738095D01*
X91761904Y-87500000D02*
X91666666Y-87452380D01*
X91523809Y-87452380D01*
X91380952Y-87500000D01*
X91285714Y-87595238D01*
X91238095Y-87690476D01*
X91190476Y-87880952D01*
X91190476Y-88023809D01*
X91238095Y-88214285D01*
X91285714Y-88309523D01*
X91380952Y-88404761D01*
X91523809Y-88452380D01*
X91619047Y-88452380D01*
X91761904Y-88404761D01*
X91809523Y-88357142D01*
X91809523Y-88023809D01*
X91619047Y-88023809D01*
X90738095Y-84952380D02*
X91309523Y-84952380D01*
X91023809Y-85952380D02*
X91023809Y-84952380D01*
X91547619Y-84952380D02*
X92214285Y-85952380D01*
X92214285Y-84952380D02*
X91547619Y-85952380D01*
X91333333Y-83452380D02*
X91000000Y-82976190D01*
X90761904Y-83452380D02*
X90761904Y-82452380D01*
X91142857Y-82452380D01*
X91238095Y-82500000D01*
X91285714Y-82547619D01*
X91333333Y-82642857D01*
X91333333Y-82785714D01*
X91285714Y-82880952D01*
X91238095Y-82928571D01*
X91142857Y-82976190D01*
X90761904Y-82976190D01*
X91666666Y-82452380D02*
X92333333Y-83452380D01*
X92333333Y-82452380D02*
X91666666Y-83452380D01*
X91952380Y-117285714D02*
X91952380Y-117095238D01*
X91904761Y-117000000D01*
X91857142Y-116952380D01*
X91714285Y-116857142D01*
X91523809Y-116809523D01*
X91142857Y-116809523D01*
X91047619Y-116857142D01*
X91000000Y-116904761D01*
X90952380Y-117000000D01*
X90952380Y-117190476D01*
X91000000Y-117285714D01*
X91047619Y-117333333D01*
X91142857Y-117380952D01*
X91380952Y-117380952D01*
X91476190Y-117333333D01*
X91523809Y-117285714D01*
X91571428Y-117190476D01*
X91571428Y-117000000D01*
X91523809Y-116904761D01*
X91476190Y-116857142D01*
X91380952Y-116809523D01*
X90952380Y-116523809D02*
X91952380Y-116190476D01*
X90952380Y-115857142D01*
X91571428Y-115523809D02*
X91571428Y-114761904D01*
X91952380Y-113761904D02*
X91952380Y-114333333D01*
X91952380Y-114047619D02*
X90952380Y-114047619D01*
X91095238Y-114142857D01*
X91190476Y-114238095D01*
X91238095Y-114333333D01*
X91047619Y-113380952D02*
X91000000Y-113333333D01*
X90952380Y-113238095D01*
X90952380Y-113000000D01*
X91000000Y-112904761D01*
X91047619Y-112857142D01*
X91142857Y-112809523D01*
X91238095Y-112809523D01*
X91380952Y-112857142D01*
X91952380Y-113428571D01*
X91952380Y-112809523D01*
X90952380Y-112523809D02*
X91952380Y-112190476D01*
X90952380Y-111857142D01*
X91952380Y-110761904D02*
X90952380Y-110761904D01*
X90952380Y-110523809D01*
X91000000Y-110380952D01*
X91095238Y-110285714D01*
X91190476Y-110238095D01*
X91380952Y-110190476D01*
X91523809Y-110190476D01*
X91714285Y-110238095D01*
X91809523Y-110285714D01*
X91904761Y-110380952D01*
X91952380Y-110523809D01*
X91952380Y-110761904D01*
X91857142Y-109190476D02*
X91904761Y-109238095D01*
X91952380Y-109380952D01*
X91952380Y-109476190D01*
X91904761Y-109619047D01*
X91809523Y-109714285D01*
X91714285Y-109761904D01*
X91523809Y-109809523D01*
X91380952Y-109809523D01*
X91190476Y-109761904D01*
X91095238Y-109714285D01*
X91000000Y-109619047D01*
X90952380Y-109476190D01*
X90952380Y-109380952D01*
X91000000Y-109238095D01*
X91047619Y-109190476D01*
X91047619Y-108047619D02*
X91000000Y-108000000D01*
X90952380Y-107904761D01*
X90952380Y-107666666D01*
X91000000Y-107571428D01*
X91047619Y-107523809D01*
X91142857Y-107476190D01*
X91238095Y-107476190D01*
X91380952Y-107523809D01*
X91952380Y-108095238D01*
X91952380Y-107476190D01*
X91666666Y-107095238D02*
X91666666Y-106619047D01*
X91952380Y-107190476D02*
X90952380Y-106857142D01*
X91952380Y-106523809D01*
G04 #@! TO.C,L1*
X175450000Y-131790000D02*
X132270000Y-131790000D01*
X175450000Y-111470000D02*
X175450000Y-131790000D01*
X132270000Y-111470000D02*
X175450000Y-111470000D01*
X132270000Y-131790000D02*
X132270000Y-111470000D01*
D13*
G04 #@! TO.C,C9*
X152110000Y-64924500D02*
X152110000Y-64670500D01*
X152173500Y-64924500D02*
X152173500Y-64607000D01*
X152110000Y-66575500D02*
X152110000Y-66893000D01*
X152173500Y-66575500D02*
X152173500Y-66893000D01*
X152237000Y-64924500D02*
X152237000Y-64543500D01*
X152300500Y-64924500D02*
X152300500Y-64480000D01*
X152300500Y-66575500D02*
X152300500Y-66956500D01*
X152237000Y-66575500D02*
X152237000Y-67020000D01*
D14*
X156491500Y-67337500D02*
X156491500Y-66937500D01*
X156682000Y-67147000D02*
X156282000Y-67147000D01*
X151819000Y-66120000D02*
X151819000Y-65380000D01*
X151859000Y-66287000D02*
X151859000Y-65213000D01*
X151899000Y-66414000D02*
X151899000Y-65086000D01*
X152019000Y-66690000D02*
X152019000Y-64810000D01*
X152059000Y-66763000D02*
X152059000Y-64737000D01*
X152339000Y-64910000D02*
X152339000Y-64354000D01*
X152339000Y-67146000D02*
X152339000Y-66590000D01*
X152379000Y-64910000D02*
X152379000Y-64312000D01*
X152379000Y-67188000D02*
X152379000Y-66590000D01*
X152419000Y-64910000D02*
X152419000Y-64272000D01*
X152419000Y-67228000D02*
X152419000Y-66590000D01*
X152459000Y-64910000D02*
X152459000Y-64234000D01*
X152459000Y-67266000D02*
X152459000Y-66590000D01*
X152499000Y-64910000D02*
X152499000Y-64198000D01*
X152499000Y-67302000D02*
X152499000Y-66590000D01*
X152539000Y-64910000D02*
X152539000Y-64163000D01*
X152539000Y-67337000D02*
X152539000Y-66590000D01*
X152579000Y-64910000D02*
X152579000Y-64131000D01*
X152579000Y-67369000D02*
X152579000Y-66590000D01*
X152619000Y-64910000D02*
X152619000Y-64100000D01*
X152619000Y-67400000D02*
X152619000Y-66590000D01*
X152659000Y-64910000D02*
X152659000Y-64070000D01*
X152659000Y-67430000D02*
X152659000Y-66590000D01*
X152699000Y-64910000D02*
X152699000Y-64042000D01*
X152699000Y-67458000D02*
X152699000Y-66590000D01*
X152739000Y-64910000D02*
X152739000Y-64015000D01*
X152739000Y-67485000D02*
X152739000Y-66590000D01*
X152779000Y-64910000D02*
X152779000Y-63990000D01*
X152779000Y-67510000D02*
X152779000Y-66590000D01*
X152819000Y-64910000D02*
X152819000Y-63965000D01*
X152819000Y-67535000D02*
X152819000Y-66590000D01*
X152859000Y-64910000D02*
X152859000Y-63942000D01*
X152859000Y-67558000D02*
X152859000Y-66590000D01*
X152899000Y-64910000D02*
X152899000Y-63920000D01*
X152899000Y-67580000D02*
X152899000Y-66590000D01*
X152939000Y-64910000D02*
X152939000Y-63899000D01*
X152939000Y-67601000D02*
X152939000Y-66590000D01*
X152979000Y-64910000D02*
X152979000Y-63880000D01*
X152979000Y-67620000D02*
X152979000Y-66590000D01*
X153019000Y-64910000D02*
X153019000Y-63861000D01*
X153019000Y-67639000D02*
X153019000Y-66590000D01*
X153059000Y-64910000D02*
X153059000Y-63843000D01*
X153059000Y-67657000D02*
X153059000Y-66590000D01*
X153099000Y-64910000D02*
X153099000Y-63826000D01*
X153099000Y-67674000D02*
X153099000Y-66590000D01*
X153139000Y-64910000D02*
X153139000Y-63810000D01*
X153139000Y-67690000D02*
X153139000Y-66590000D01*
X153179000Y-64910000D02*
X153179000Y-63796000D01*
X153179000Y-67704000D02*
X153179000Y-66590000D01*
X153220000Y-64910000D02*
X153220000Y-63782000D01*
X153220000Y-67718000D02*
X153220000Y-66590000D01*
X153260000Y-64910000D02*
X153260000Y-63768000D01*
X153260000Y-67732000D02*
X153260000Y-66590000D01*
X153300000Y-64910000D02*
X153300000Y-63756000D01*
X153300000Y-67744000D02*
X153300000Y-66590000D01*
X153340000Y-64910000D02*
X153340000Y-63745000D01*
X153340000Y-67755000D02*
X153340000Y-66590000D01*
X153380000Y-64910000D02*
X153380000Y-63734000D01*
X153380000Y-67766000D02*
X153380000Y-66590000D01*
X153420000Y-64910000D02*
X153420000Y-63725000D01*
X153420000Y-67775000D02*
X153420000Y-66590000D01*
X153460000Y-64910000D02*
X153460000Y-63716000D01*
X153460000Y-67784000D02*
X153460000Y-66590000D01*
X153500000Y-64910000D02*
X153500000Y-63708000D01*
X153500000Y-67792000D02*
X153500000Y-66590000D01*
X153540000Y-64910000D02*
X153540000Y-63700000D01*
X153540000Y-67800000D02*
X153540000Y-66590000D01*
X153580000Y-64910000D02*
X153580000Y-63694000D01*
X153580000Y-67806000D02*
X153580000Y-66590000D01*
X153620000Y-64910000D02*
X153620000Y-63688000D01*
X153620000Y-67812000D02*
X153620000Y-66590000D01*
X153660000Y-64910000D02*
X153660000Y-63683000D01*
X153660000Y-67817000D02*
X153660000Y-66590000D01*
X153700000Y-64910000D02*
X153700000Y-63679000D01*
X153700000Y-67821000D02*
X153700000Y-66590000D01*
X153740000Y-64910000D02*
X153740000Y-63676000D01*
X153740000Y-67824000D02*
X153740000Y-66590000D01*
X153780000Y-64910000D02*
X153780000Y-63673000D01*
X153780000Y-67827000D02*
X153780000Y-66590000D01*
X153820000Y-67829000D02*
X153820000Y-66590000D01*
X153820000Y-64910000D02*
X153820000Y-63671000D01*
X153860000Y-67830000D02*
X153860000Y-66590000D01*
X153860000Y-64910000D02*
X153860000Y-63670000D01*
X153900000Y-67830000D02*
X153900000Y-66590000D01*
X153900000Y-64910000D02*
X153900000Y-63670000D01*
X156020000Y-65750000D02*
G75*
G03X156020000Y-65750000I-2120000J0D01*
G01*
G04 #@! TO.C,C1*
X118120000Y-81750000D02*
G75*
G03X118120000Y-81750000I-2120000J0D01*
G01*
X115160000Y-81750000D02*
X113920000Y-81750000D01*
X118080000Y-81750000D02*
X116840000Y-81750000D01*
X115160000Y-81790000D02*
X113920000Y-81790000D01*
X118080000Y-81790000D02*
X116840000Y-81790000D01*
X115160000Y-81830000D02*
X113921000Y-81830000D01*
X118079000Y-81830000D02*
X116840000Y-81830000D01*
X118077000Y-81870000D02*
X116840000Y-81870000D01*
X115160000Y-81870000D02*
X113923000Y-81870000D01*
X118074000Y-81910000D02*
X116840000Y-81910000D01*
X115160000Y-81910000D02*
X113926000Y-81910000D01*
X118071000Y-81950000D02*
X116840000Y-81950000D01*
X115160000Y-81950000D02*
X113929000Y-81950000D01*
X118067000Y-81990000D02*
X116840000Y-81990000D01*
X115160000Y-81990000D02*
X113933000Y-81990000D01*
X118062000Y-82030000D02*
X116840000Y-82030000D01*
X115160000Y-82030000D02*
X113938000Y-82030000D01*
X118056000Y-82070000D02*
X116840000Y-82070000D01*
X115160000Y-82070000D02*
X113944000Y-82070000D01*
X118050000Y-82110000D02*
X116840000Y-82110000D01*
X115160000Y-82110000D02*
X113950000Y-82110000D01*
X118042000Y-82150000D02*
X116840000Y-82150000D01*
X115160000Y-82150000D02*
X113958000Y-82150000D01*
X118034000Y-82190000D02*
X116840000Y-82190000D01*
X115160000Y-82190000D02*
X113966000Y-82190000D01*
X118025000Y-82230000D02*
X116840000Y-82230000D01*
X115160000Y-82230000D02*
X113975000Y-82230000D01*
X118016000Y-82270000D02*
X116840000Y-82270000D01*
X115160000Y-82270000D02*
X113984000Y-82270000D01*
X118005000Y-82310000D02*
X116840000Y-82310000D01*
X115160000Y-82310000D02*
X113995000Y-82310000D01*
X117994000Y-82350000D02*
X116840000Y-82350000D01*
X115160000Y-82350000D02*
X114006000Y-82350000D01*
X117982000Y-82390000D02*
X116840000Y-82390000D01*
X115160000Y-82390000D02*
X114018000Y-82390000D01*
X117968000Y-82430000D02*
X116840000Y-82430000D01*
X115160000Y-82430000D02*
X114032000Y-82430000D01*
X117954000Y-82471000D02*
X116840000Y-82471000D01*
X115160000Y-82471000D02*
X114046000Y-82471000D01*
X117940000Y-82511000D02*
X116840000Y-82511000D01*
X115160000Y-82511000D02*
X114060000Y-82511000D01*
X117924000Y-82551000D02*
X116840000Y-82551000D01*
X115160000Y-82551000D02*
X114076000Y-82551000D01*
X117907000Y-82591000D02*
X116840000Y-82591000D01*
X115160000Y-82591000D02*
X114093000Y-82591000D01*
X117889000Y-82631000D02*
X116840000Y-82631000D01*
X115160000Y-82631000D02*
X114111000Y-82631000D01*
X117870000Y-82671000D02*
X116840000Y-82671000D01*
X115160000Y-82671000D02*
X114130000Y-82671000D01*
X117851000Y-82711000D02*
X116840000Y-82711000D01*
X115160000Y-82711000D02*
X114149000Y-82711000D01*
X117830000Y-82751000D02*
X116840000Y-82751000D01*
X115160000Y-82751000D02*
X114170000Y-82751000D01*
X117808000Y-82791000D02*
X116840000Y-82791000D01*
X115160000Y-82791000D02*
X114192000Y-82791000D01*
X117785000Y-82831000D02*
X116840000Y-82831000D01*
X115160000Y-82831000D02*
X114215000Y-82831000D01*
X117760000Y-82871000D02*
X116840000Y-82871000D01*
X115160000Y-82871000D02*
X114240000Y-82871000D01*
X117735000Y-82911000D02*
X116840000Y-82911000D01*
X115160000Y-82911000D02*
X114265000Y-82911000D01*
X117708000Y-82951000D02*
X116840000Y-82951000D01*
X115160000Y-82951000D02*
X114292000Y-82951000D01*
X117680000Y-82991000D02*
X116840000Y-82991000D01*
X115160000Y-82991000D02*
X114320000Y-82991000D01*
X117650000Y-83031000D02*
X116840000Y-83031000D01*
X115160000Y-83031000D02*
X114350000Y-83031000D01*
X117619000Y-83071000D02*
X116840000Y-83071000D01*
X115160000Y-83071000D02*
X114381000Y-83071000D01*
X117587000Y-83111000D02*
X116840000Y-83111000D01*
X115160000Y-83111000D02*
X114413000Y-83111000D01*
X117552000Y-83151000D02*
X116840000Y-83151000D01*
X115160000Y-83151000D02*
X114448000Y-83151000D01*
X117516000Y-83191000D02*
X116840000Y-83191000D01*
X115160000Y-83191000D02*
X114484000Y-83191000D01*
X117478000Y-83231000D02*
X116840000Y-83231000D01*
X115160000Y-83231000D02*
X114522000Y-83231000D01*
X117438000Y-83271000D02*
X116840000Y-83271000D01*
X115160000Y-83271000D02*
X114562000Y-83271000D01*
X117396000Y-83311000D02*
X116840000Y-83311000D01*
X115160000Y-83311000D02*
X114604000Y-83311000D01*
X117013000Y-83591000D02*
X114987000Y-83591000D01*
X116940000Y-83631000D02*
X115060000Y-83631000D01*
X116664000Y-83751000D02*
X115336000Y-83751000D01*
X116537000Y-83791000D02*
X115463000Y-83791000D01*
X116370000Y-83831000D02*
X115630000Y-83831000D01*
X117397000Y-78968000D02*
X117397000Y-79368000D01*
X117587500Y-79158500D02*
X117187500Y-79158500D01*
D13*
X116825500Y-83413000D02*
X117270000Y-83413000D01*
X116825500Y-83349500D02*
X117206500Y-83349500D01*
X115174500Y-83349500D02*
X114730000Y-83349500D01*
X115174500Y-83413000D02*
X114793500Y-83413000D01*
X116825500Y-83476500D02*
X117143000Y-83476500D01*
X116825500Y-83540000D02*
X117143000Y-83540000D01*
X115174500Y-83476500D02*
X114857000Y-83476500D01*
X115174500Y-83540000D02*
X114920500Y-83540000D01*
G04 #@! TO.C,C7*
X166444388Y-110200000D02*
X166190388Y-110200000D01*
X166444388Y-110136500D02*
X166126888Y-110136500D01*
X168095388Y-110200000D02*
X168412888Y-110200000D01*
X168095388Y-110136500D02*
X168412888Y-110136500D01*
X166444388Y-110073000D02*
X166063388Y-110073000D01*
X166444388Y-110009500D02*
X165999888Y-110009500D01*
X168095388Y-110009500D02*
X168476388Y-110009500D01*
X168095388Y-110073000D02*
X168539888Y-110073000D01*
D14*
X168857388Y-105818500D02*
X168457388Y-105818500D01*
X168666888Y-105628000D02*
X168666888Y-106028000D01*
X167639888Y-110491000D02*
X166899888Y-110491000D01*
X167806888Y-110451000D02*
X166732888Y-110451000D01*
X167933888Y-110411000D02*
X166605888Y-110411000D01*
X168209888Y-110291000D02*
X166329888Y-110291000D01*
X168282888Y-110251000D02*
X166256888Y-110251000D01*
X166429888Y-109971000D02*
X165873888Y-109971000D01*
X168665888Y-109971000D02*
X168109888Y-109971000D01*
X166429888Y-109931000D02*
X165831888Y-109931000D01*
X168707888Y-109931000D02*
X168109888Y-109931000D01*
X166429888Y-109891000D02*
X165791888Y-109891000D01*
X168747888Y-109891000D02*
X168109888Y-109891000D01*
X166429888Y-109851000D02*
X165753888Y-109851000D01*
X168785888Y-109851000D02*
X168109888Y-109851000D01*
X166429888Y-109811000D02*
X165717888Y-109811000D01*
X168821888Y-109811000D02*
X168109888Y-109811000D01*
X166429888Y-109771000D02*
X165682888Y-109771000D01*
X168856888Y-109771000D02*
X168109888Y-109771000D01*
X166429888Y-109731000D02*
X165650888Y-109731000D01*
X168888888Y-109731000D02*
X168109888Y-109731000D01*
X166429888Y-109691000D02*
X165619888Y-109691000D01*
X168919888Y-109691000D02*
X168109888Y-109691000D01*
X166429888Y-109651000D02*
X165589888Y-109651000D01*
X168949888Y-109651000D02*
X168109888Y-109651000D01*
X166429888Y-109611000D02*
X165561888Y-109611000D01*
X168977888Y-109611000D02*
X168109888Y-109611000D01*
X166429888Y-109571000D02*
X165534888Y-109571000D01*
X169004888Y-109571000D02*
X168109888Y-109571000D01*
X166429888Y-109531000D02*
X165509888Y-109531000D01*
X169029888Y-109531000D02*
X168109888Y-109531000D01*
X166429888Y-109491000D02*
X165484888Y-109491000D01*
X169054888Y-109491000D02*
X168109888Y-109491000D01*
X166429888Y-109451000D02*
X165461888Y-109451000D01*
X169077888Y-109451000D02*
X168109888Y-109451000D01*
X166429888Y-109411000D02*
X165439888Y-109411000D01*
X169099888Y-109411000D02*
X168109888Y-109411000D01*
X166429888Y-109371000D02*
X165418888Y-109371000D01*
X169120888Y-109371000D02*
X168109888Y-109371000D01*
X166429888Y-109331000D02*
X165399888Y-109331000D01*
X169139888Y-109331000D02*
X168109888Y-109331000D01*
X166429888Y-109291000D02*
X165380888Y-109291000D01*
X169158888Y-109291000D02*
X168109888Y-109291000D01*
X166429888Y-109251000D02*
X165362888Y-109251000D01*
X169176888Y-109251000D02*
X168109888Y-109251000D01*
X166429888Y-109211000D02*
X165345888Y-109211000D01*
X169193888Y-109211000D02*
X168109888Y-109211000D01*
X166429888Y-109171000D02*
X165329888Y-109171000D01*
X169209888Y-109171000D02*
X168109888Y-109171000D01*
X166429888Y-109131000D02*
X165315888Y-109131000D01*
X169223888Y-109131000D02*
X168109888Y-109131000D01*
X166429888Y-109090000D02*
X165301888Y-109090000D01*
X169237888Y-109090000D02*
X168109888Y-109090000D01*
X166429888Y-109050000D02*
X165287888Y-109050000D01*
X169251888Y-109050000D02*
X168109888Y-109050000D01*
X166429888Y-109010000D02*
X165275888Y-109010000D01*
X169263888Y-109010000D02*
X168109888Y-109010000D01*
X166429888Y-108970000D02*
X165264888Y-108970000D01*
X169274888Y-108970000D02*
X168109888Y-108970000D01*
X166429888Y-108930000D02*
X165253888Y-108930000D01*
X169285888Y-108930000D02*
X168109888Y-108930000D01*
X166429888Y-108890000D02*
X165244888Y-108890000D01*
X169294888Y-108890000D02*
X168109888Y-108890000D01*
X166429888Y-108850000D02*
X165235888Y-108850000D01*
X169303888Y-108850000D02*
X168109888Y-108850000D01*
X166429888Y-108810000D02*
X165227888Y-108810000D01*
X169311888Y-108810000D02*
X168109888Y-108810000D01*
X166429888Y-108770000D02*
X165219888Y-108770000D01*
X169319888Y-108770000D02*
X168109888Y-108770000D01*
X166429888Y-108730000D02*
X165213888Y-108730000D01*
X169325888Y-108730000D02*
X168109888Y-108730000D01*
X166429888Y-108690000D02*
X165207888Y-108690000D01*
X169331888Y-108690000D02*
X168109888Y-108690000D01*
X166429888Y-108650000D02*
X165202888Y-108650000D01*
X169336888Y-108650000D02*
X168109888Y-108650000D01*
X166429888Y-108610000D02*
X165198888Y-108610000D01*
X169340888Y-108610000D02*
X168109888Y-108610000D01*
X166429888Y-108570000D02*
X165195888Y-108570000D01*
X169343888Y-108570000D02*
X168109888Y-108570000D01*
X166429888Y-108530000D02*
X165192888Y-108530000D01*
X169346888Y-108530000D02*
X168109888Y-108530000D01*
X169348888Y-108490000D02*
X168109888Y-108490000D01*
X166429888Y-108490000D02*
X165190888Y-108490000D01*
X169349888Y-108450000D02*
X168109888Y-108450000D01*
X166429888Y-108450000D02*
X165189888Y-108450000D01*
X169349888Y-108410000D02*
X168109888Y-108410000D01*
X166429888Y-108410000D02*
X165189888Y-108410000D01*
X169389888Y-108410000D02*
G75*
G03X169389888Y-108410000I-2120000J0D01*
G01*
G04 #@! TO.C,C5*
X125113868Y-105210651D02*
G75*
G03X125113868Y-105210651I-2120000J0D01*
G01*
X122993868Y-104370651D02*
X122993868Y-103130651D01*
X122993868Y-107290651D02*
X122993868Y-106050651D01*
X122953868Y-104370651D02*
X122953868Y-103130651D01*
X122953868Y-107290651D02*
X122953868Y-106050651D01*
X122913868Y-104370651D02*
X122913868Y-103131651D01*
X122913868Y-107289651D02*
X122913868Y-106050651D01*
X122873868Y-107287651D02*
X122873868Y-106050651D01*
X122873868Y-104370651D02*
X122873868Y-103133651D01*
X122833868Y-107284651D02*
X122833868Y-106050651D01*
X122833868Y-104370651D02*
X122833868Y-103136651D01*
X122793868Y-107281651D02*
X122793868Y-106050651D01*
X122793868Y-104370651D02*
X122793868Y-103139651D01*
X122753868Y-107277651D02*
X122753868Y-106050651D01*
X122753868Y-104370651D02*
X122753868Y-103143651D01*
X122713868Y-107272651D02*
X122713868Y-106050651D01*
X122713868Y-104370651D02*
X122713868Y-103148651D01*
X122673868Y-107266651D02*
X122673868Y-106050651D01*
X122673868Y-104370651D02*
X122673868Y-103154651D01*
X122633868Y-107260651D02*
X122633868Y-106050651D01*
X122633868Y-104370651D02*
X122633868Y-103160651D01*
X122593868Y-107252651D02*
X122593868Y-106050651D01*
X122593868Y-104370651D02*
X122593868Y-103168651D01*
X122553868Y-107244651D02*
X122553868Y-106050651D01*
X122553868Y-104370651D02*
X122553868Y-103176651D01*
X122513868Y-107235651D02*
X122513868Y-106050651D01*
X122513868Y-104370651D02*
X122513868Y-103185651D01*
X122473868Y-107226651D02*
X122473868Y-106050651D01*
X122473868Y-104370651D02*
X122473868Y-103194651D01*
X122433868Y-107215651D02*
X122433868Y-106050651D01*
X122433868Y-104370651D02*
X122433868Y-103205651D01*
X122393868Y-107204651D02*
X122393868Y-106050651D01*
X122393868Y-104370651D02*
X122393868Y-103216651D01*
X122353868Y-107192651D02*
X122353868Y-106050651D01*
X122353868Y-104370651D02*
X122353868Y-103228651D01*
X122313868Y-107178651D02*
X122313868Y-106050651D01*
X122313868Y-104370651D02*
X122313868Y-103242651D01*
X122272868Y-107164651D02*
X122272868Y-106050651D01*
X122272868Y-104370651D02*
X122272868Y-103256651D01*
X122232868Y-107150651D02*
X122232868Y-106050651D01*
X122232868Y-104370651D02*
X122232868Y-103270651D01*
X122192868Y-107134651D02*
X122192868Y-106050651D01*
X122192868Y-104370651D02*
X122192868Y-103286651D01*
X122152868Y-107117651D02*
X122152868Y-106050651D01*
X122152868Y-104370651D02*
X122152868Y-103303651D01*
X122112868Y-107099651D02*
X122112868Y-106050651D01*
X122112868Y-104370651D02*
X122112868Y-103321651D01*
X122072868Y-107080651D02*
X122072868Y-106050651D01*
X122072868Y-104370651D02*
X122072868Y-103340651D01*
X122032868Y-107061651D02*
X122032868Y-106050651D01*
X122032868Y-104370651D02*
X122032868Y-103359651D01*
X121992868Y-107040651D02*
X121992868Y-106050651D01*
X121992868Y-104370651D02*
X121992868Y-103380651D01*
X121952868Y-107018651D02*
X121952868Y-106050651D01*
X121952868Y-104370651D02*
X121952868Y-103402651D01*
X121912868Y-106995651D02*
X121912868Y-106050651D01*
X121912868Y-104370651D02*
X121912868Y-103425651D01*
X121872868Y-106970651D02*
X121872868Y-106050651D01*
X121872868Y-104370651D02*
X121872868Y-103450651D01*
X121832868Y-106945651D02*
X121832868Y-106050651D01*
X121832868Y-104370651D02*
X121832868Y-103475651D01*
X121792868Y-106918651D02*
X121792868Y-106050651D01*
X121792868Y-104370651D02*
X121792868Y-103502651D01*
X121752868Y-106890651D02*
X121752868Y-106050651D01*
X121752868Y-104370651D02*
X121752868Y-103530651D01*
X121712868Y-106860651D02*
X121712868Y-106050651D01*
X121712868Y-104370651D02*
X121712868Y-103560651D01*
X121672868Y-106829651D02*
X121672868Y-106050651D01*
X121672868Y-104370651D02*
X121672868Y-103591651D01*
X121632868Y-106797651D02*
X121632868Y-106050651D01*
X121632868Y-104370651D02*
X121632868Y-103623651D01*
X121592868Y-106762651D02*
X121592868Y-106050651D01*
X121592868Y-104370651D02*
X121592868Y-103658651D01*
X121552868Y-106726651D02*
X121552868Y-106050651D01*
X121552868Y-104370651D02*
X121552868Y-103694651D01*
X121512868Y-106688651D02*
X121512868Y-106050651D01*
X121512868Y-104370651D02*
X121512868Y-103732651D01*
X121472868Y-106648651D02*
X121472868Y-106050651D01*
X121472868Y-104370651D02*
X121472868Y-103772651D01*
X121432868Y-106606651D02*
X121432868Y-106050651D01*
X121432868Y-104370651D02*
X121432868Y-103814651D01*
X121152868Y-106223651D02*
X121152868Y-104197651D01*
X121112868Y-106150651D02*
X121112868Y-104270651D01*
X120992868Y-105874651D02*
X120992868Y-104546651D01*
X120952868Y-105747651D02*
X120952868Y-104673651D01*
X120912868Y-105580651D02*
X120912868Y-104840651D01*
X125775868Y-106607651D02*
X125375868Y-106607651D01*
X125585368Y-106798151D02*
X125585368Y-106398151D01*
D13*
X121330868Y-106036151D02*
X121330868Y-106480651D01*
X121394368Y-106036151D02*
X121394368Y-106417151D01*
X121394368Y-104385151D02*
X121394368Y-103940651D01*
X121330868Y-104385151D02*
X121330868Y-104004151D01*
X121267368Y-106036151D02*
X121267368Y-106353651D01*
X121203868Y-106036151D02*
X121203868Y-106353651D01*
X121267368Y-104385151D02*
X121267368Y-104067651D01*
X121203868Y-104385151D02*
X121203868Y-104131151D01*
D14*
G04 #@! TO.C,R2*
X124105549Y-99023366D02*
X123155549Y-99023366D01*
X118365549Y-99023366D02*
X119315549Y-99023366D01*
X123155549Y-98103366D02*
X119315549Y-98103366D01*
X123155549Y-99943366D02*
X123155549Y-98103366D01*
X119315549Y-99943366D02*
X123155549Y-99943366D01*
X119315549Y-98103366D02*
X119315549Y-99943366D01*
G04 #@! TO.C,R1*
X119315549Y-95310000D02*
X119315549Y-97150000D01*
X119315549Y-97150000D02*
X123155549Y-97150000D01*
X123155549Y-97150000D02*
X123155549Y-95310000D01*
X123155549Y-95310000D02*
X119315549Y-95310000D01*
X118365549Y-96230000D02*
X119315549Y-96230000D01*
X124105549Y-96230000D02*
X123155549Y-96230000D01*
G04 #@! TO.C,R4*
X110056500Y-92344000D02*
X110056500Y-93294000D01*
X110056500Y-98084000D02*
X110056500Y-97134000D01*
X109136500Y-93294000D02*
X109136500Y-97134000D01*
X110976500Y-93294000D02*
X109136500Y-93294000D01*
X110976500Y-97134000D02*
X110976500Y-93294000D01*
X109136500Y-97134000D02*
X110976500Y-97134000D01*
G04 #@! TO.C,R6*
X103516000Y-80977500D02*
X103516000Y-81927500D01*
X103516000Y-86717500D02*
X103516000Y-85767500D01*
X102596000Y-81927500D02*
X102596000Y-85767500D01*
X104436000Y-81927500D02*
X102596000Y-81927500D01*
X104436000Y-85767500D02*
X104436000Y-81927500D01*
X102596000Y-85767500D02*
X104436000Y-85767500D01*
G04 #@! TO.C,R7*
X125768868Y-107765651D02*
X127608868Y-107765651D01*
X127608868Y-107765651D02*
X127608868Y-103925651D01*
X127608868Y-103925651D02*
X125768868Y-103925651D01*
X125768868Y-103925651D02*
X125768868Y-107765651D01*
X126688868Y-108715651D02*
X126688868Y-107765651D01*
X126688868Y-102975651D02*
X126688868Y-103925651D01*
G04 #@! TO.C,R8*
X129228868Y-102975651D02*
X129228868Y-103925651D01*
X129228868Y-108715651D02*
X129228868Y-107765651D01*
X128308868Y-103925651D02*
X128308868Y-107765651D01*
X130148868Y-103925651D02*
X128308868Y-103925651D01*
X130148868Y-107765651D02*
X130148868Y-103925651D01*
X128308868Y-107765651D02*
X130148868Y-107765651D01*
G04 #@! TO.C,R9*
X137313381Y-91816905D02*
X139153381Y-91816905D01*
X139153381Y-91816905D02*
X139153381Y-87976905D01*
X139153381Y-87976905D02*
X137313381Y-87976905D01*
X137313381Y-87976905D02*
X137313381Y-91816905D01*
X138233381Y-92766905D02*
X138233381Y-91816905D01*
X138233381Y-87026905D02*
X138233381Y-87976905D01*
G04 #@! TO.C,R10*
X140773381Y-87026905D02*
X140773381Y-87976905D01*
X140773381Y-92766905D02*
X140773381Y-91816905D01*
X139853381Y-87976905D02*
X139853381Y-91816905D01*
X141693381Y-87976905D02*
X139853381Y-87976905D01*
X141693381Y-91816905D02*
X141693381Y-87976905D01*
X139853381Y-91816905D02*
X141693381Y-91816905D01*
G04 #@! TO.C,R11*
X150775000Y-110580000D02*
X150775000Y-108740000D01*
X150775000Y-108740000D02*
X146935000Y-108740000D01*
X146935000Y-108740000D02*
X146935000Y-110580000D01*
X146935000Y-110580000D02*
X150775000Y-110580000D01*
X151725000Y-109660000D02*
X150775000Y-109660000D01*
X145985000Y-109660000D02*
X146935000Y-109660000D01*
G04 #@! TO.C,R13*
X148395322Y-84520731D02*
X148395322Y-83570731D01*
X148395322Y-78780731D02*
X148395322Y-79730731D01*
X149315322Y-83570731D02*
X149315322Y-79730731D01*
X147475322Y-83570731D02*
X149315322Y-83570731D01*
X147475322Y-79730731D02*
X147475322Y-83570731D01*
X149315322Y-79730731D02*
X147475322Y-79730731D01*
G04 #@! TO.C,R14*
X151855322Y-79730731D02*
X150015322Y-79730731D01*
X150015322Y-79730731D02*
X150015322Y-83570731D01*
X150015322Y-83570731D02*
X151855322Y-83570731D01*
X151855322Y-83570731D02*
X151855322Y-79730731D01*
X150935322Y-78780731D02*
X150935322Y-79730731D01*
X150935322Y-84520731D02*
X150935322Y-83570731D01*
G04 #@! TO.C,R15*
X153487363Y-84470535D02*
X153487363Y-83520535D01*
X153487363Y-78730535D02*
X153487363Y-79680535D01*
X154407363Y-83520535D02*
X154407363Y-79680535D01*
X152567363Y-83520535D02*
X154407363Y-83520535D01*
X152567363Y-79680535D02*
X152567363Y-83520535D01*
X154407363Y-79680535D02*
X152567363Y-79680535D01*
G04 #@! TO.C,R16*
X156947363Y-79680535D02*
X155107363Y-79680535D01*
X155107363Y-79680535D02*
X155107363Y-83520535D01*
X155107363Y-83520535D02*
X156947363Y-83520535D01*
X156947363Y-83520535D02*
X156947363Y-79680535D01*
X156027363Y-78730535D02*
X156027363Y-79680535D01*
X156027363Y-84470535D02*
X156027363Y-83520535D01*
G04 #@! TO.C,R17*
X167180000Y-97500000D02*
X166230000Y-97500000D01*
X161440000Y-97500000D02*
X162390000Y-97500000D01*
X166230000Y-96580000D02*
X162390000Y-96580000D01*
X166230000Y-98420000D02*
X166230000Y-96580000D01*
X162390000Y-98420000D02*
X166230000Y-98420000D01*
X162390000Y-96580000D02*
X162390000Y-98420000D01*
G04 #@! TO.C,R19*
X169890000Y-62290000D02*
X169890000Y-64130000D01*
X169890000Y-64130000D02*
X173730000Y-64130000D01*
X173730000Y-64130000D02*
X173730000Y-62290000D01*
X173730000Y-62290000D02*
X169890000Y-62290000D01*
X168940000Y-63210000D02*
X169890000Y-63210000D01*
X174680000Y-63210000D02*
X173730000Y-63210000D01*
G04 #@! TO.C,R20*
X174680000Y-65750000D02*
X173730000Y-65750000D01*
X168940000Y-65750000D02*
X169890000Y-65750000D01*
X173730000Y-64830000D02*
X169890000Y-64830000D01*
X173730000Y-66670000D02*
X173730000Y-64830000D01*
X169890000Y-66670000D02*
X173730000Y-66670000D01*
X169890000Y-64830000D02*
X169890000Y-66670000D01*
G04 #@! TO.C,R3*
X113704630Y-93271163D02*
X111864630Y-93271163D01*
X111864630Y-93271163D02*
X111864630Y-97111163D01*
X111864630Y-97111163D02*
X113704630Y-97111163D01*
X113704630Y-97111163D02*
X113704630Y-93271163D01*
X112784630Y-92321163D02*
X112784630Y-93271163D01*
X112784630Y-98061163D02*
X112784630Y-97111163D01*
D13*
G04 #@! TO.C,U5*
X145172000Y-93055000D02*
X156348000Y-93055000D01*
X156348000Y-98135000D02*
X145172000Y-98135000D01*
X156348000Y-93055000D02*
X156348000Y-98135000D01*
X145172000Y-93055000D02*
X145172000Y-98135000D01*
D14*
G04 #@! TO.C,C10*
X167370000Y-102500000D02*
G75*
G03X167370000Y-102500000I-2620000J0D01*
G01*
X164750000Y-99920000D02*
X164750000Y-105080000D01*
X164790000Y-99920000D02*
X164790000Y-105080000D01*
X164830000Y-99921000D02*
X164830000Y-105079000D01*
X164870000Y-99922000D02*
X164870000Y-105078000D01*
X164910000Y-99924000D02*
X164910000Y-105076000D01*
X164950000Y-99927000D02*
X164950000Y-105073000D01*
X164990000Y-99931000D02*
X164990000Y-101460000D01*
X164990000Y-103540000D02*
X164990000Y-105069000D01*
X165030000Y-99935000D02*
X165030000Y-101460000D01*
X165030000Y-103540000D02*
X165030000Y-105065000D01*
X165070000Y-99939000D02*
X165070000Y-101460000D01*
X165070000Y-103540000D02*
X165070000Y-105061000D01*
X165110000Y-99944000D02*
X165110000Y-101460000D01*
X165110000Y-103540000D02*
X165110000Y-105056000D01*
X165150000Y-99950000D02*
X165150000Y-101460000D01*
X165150000Y-103540000D02*
X165150000Y-105050000D01*
X165190000Y-99957000D02*
X165190000Y-101460000D01*
X165190000Y-103540000D02*
X165190000Y-105043000D01*
X165230000Y-99964000D02*
X165230000Y-101460000D01*
X165230000Y-103540000D02*
X165230000Y-105036000D01*
X165270000Y-99972000D02*
X165270000Y-101460000D01*
X165270000Y-103540000D02*
X165270000Y-105028000D01*
X165310000Y-99980000D02*
X165310000Y-101460000D01*
X165310000Y-103540000D02*
X165310000Y-105020000D01*
X165350000Y-99989000D02*
X165350000Y-101460000D01*
X165350000Y-103540000D02*
X165350000Y-105011000D01*
X165390000Y-99999000D02*
X165390000Y-101460000D01*
X165390000Y-103540000D02*
X165390000Y-105001000D01*
X165430000Y-100009000D02*
X165430000Y-101460000D01*
X165430000Y-103540000D02*
X165430000Y-104991000D01*
X165471000Y-100020000D02*
X165471000Y-101460000D01*
X165471000Y-103540000D02*
X165471000Y-104980000D01*
X165511000Y-100032000D02*
X165511000Y-101460000D01*
X165511000Y-103540000D02*
X165511000Y-104968000D01*
X165551000Y-100045000D02*
X165551000Y-101460000D01*
X165551000Y-103540000D02*
X165551000Y-104955000D01*
X165591000Y-100058000D02*
X165591000Y-101460000D01*
X165591000Y-103540000D02*
X165591000Y-104942000D01*
X165631000Y-100072000D02*
X165631000Y-101460000D01*
X165631000Y-103540000D02*
X165631000Y-104928000D01*
X165671000Y-100086000D02*
X165671000Y-101460000D01*
X165671000Y-103540000D02*
X165671000Y-104914000D01*
X165711000Y-100102000D02*
X165711000Y-101460000D01*
X165711000Y-103540000D02*
X165711000Y-104898000D01*
X165751000Y-100118000D02*
X165751000Y-101460000D01*
X165751000Y-103540000D02*
X165751000Y-104882000D01*
X165791000Y-100135000D02*
X165791000Y-101460000D01*
X165791000Y-103540000D02*
X165791000Y-104865000D01*
X165831000Y-100152000D02*
X165831000Y-101460000D01*
X165831000Y-103540000D02*
X165831000Y-104848000D01*
X165871000Y-100171000D02*
X165871000Y-101460000D01*
X165871000Y-103540000D02*
X165871000Y-104829000D01*
X165911000Y-100190000D02*
X165911000Y-101460000D01*
X165911000Y-103540000D02*
X165911000Y-104810000D01*
X165951000Y-100210000D02*
X165951000Y-101460000D01*
X165951000Y-103540000D02*
X165951000Y-104790000D01*
X165991000Y-100232000D02*
X165991000Y-101460000D01*
X165991000Y-103540000D02*
X165991000Y-104768000D01*
X166031000Y-100253000D02*
X166031000Y-101460000D01*
X166031000Y-103540000D02*
X166031000Y-104747000D01*
X166071000Y-100276000D02*
X166071000Y-101460000D01*
X166071000Y-103540000D02*
X166071000Y-104724000D01*
X166111000Y-100300000D02*
X166111000Y-101460000D01*
X166111000Y-103540000D02*
X166111000Y-104700000D01*
X166151000Y-100325000D02*
X166151000Y-101460000D01*
X166151000Y-103540000D02*
X166151000Y-104675000D01*
X166191000Y-100351000D02*
X166191000Y-101460000D01*
X166191000Y-103540000D02*
X166191000Y-104649000D01*
X166231000Y-100378000D02*
X166231000Y-101460000D01*
X166231000Y-103540000D02*
X166231000Y-104622000D01*
X166271000Y-100405000D02*
X166271000Y-101460000D01*
X166271000Y-103540000D02*
X166271000Y-104595000D01*
X166311000Y-100435000D02*
X166311000Y-101460000D01*
X166311000Y-103540000D02*
X166311000Y-104565000D01*
X166351000Y-100465000D02*
X166351000Y-101460000D01*
X166351000Y-103540000D02*
X166351000Y-104535000D01*
X166391000Y-100496000D02*
X166391000Y-101460000D01*
X166391000Y-103540000D02*
X166391000Y-104504000D01*
X166431000Y-100529000D02*
X166431000Y-101460000D01*
X166431000Y-103540000D02*
X166431000Y-104471000D01*
X166471000Y-100563000D02*
X166471000Y-101460000D01*
X166471000Y-103540000D02*
X166471000Y-104437000D01*
X166511000Y-100599000D02*
X166511000Y-101460000D01*
X166511000Y-103540000D02*
X166511000Y-104401000D01*
X166551000Y-100636000D02*
X166551000Y-101460000D01*
X166551000Y-103540000D02*
X166551000Y-104364000D01*
X166591000Y-100674000D02*
X166591000Y-101460000D01*
X166591000Y-103540000D02*
X166591000Y-104326000D01*
X166631000Y-100715000D02*
X166631000Y-101460000D01*
X166631000Y-103540000D02*
X166631000Y-104285000D01*
X166671000Y-100757000D02*
X166671000Y-101460000D01*
X166671000Y-103540000D02*
X166671000Y-104243000D01*
X166711000Y-100801000D02*
X166711000Y-101460000D01*
X166711000Y-103540000D02*
X166711000Y-104199000D01*
X166751000Y-100847000D02*
X166751000Y-101460000D01*
X166751000Y-103540000D02*
X166751000Y-104153000D01*
X166791000Y-100895000D02*
X166791000Y-101460000D01*
X166791000Y-103540000D02*
X166791000Y-104105000D01*
X166831000Y-100946000D02*
X166831000Y-101460000D01*
X166831000Y-103540000D02*
X166831000Y-104054000D01*
X166871000Y-101000000D02*
X166871000Y-101460000D01*
X166871000Y-103540000D02*
X166871000Y-104000000D01*
X166911000Y-101057000D02*
X166911000Y-101460000D01*
X166911000Y-103540000D02*
X166911000Y-103943000D01*
X166951000Y-101117000D02*
X166951000Y-101460000D01*
X166951000Y-103540000D02*
X166951000Y-103883000D01*
X166991000Y-101181000D02*
X166991000Y-101460000D01*
X166991000Y-103540000D02*
X166991000Y-103819000D01*
X167031000Y-101249000D02*
X167031000Y-101460000D01*
X167031000Y-103540000D02*
X167031000Y-103751000D01*
X167071000Y-101322000D02*
X167071000Y-103678000D01*
X167111000Y-101402000D02*
X167111000Y-103598000D01*
X167151000Y-101489000D02*
X167151000Y-103511000D01*
X167191000Y-101585000D02*
X167191000Y-103415000D01*
X167231000Y-101695000D02*
X167231000Y-103305000D01*
X167271000Y-101823000D02*
X167271000Y-103177000D01*
X167311000Y-101982000D02*
X167311000Y-103018000D01*
X167351000Y-102216000D02*
X167351000Y-102784000D01*
X161945225Y-101025000D02*
X162445225Y-101025000D01*
X162195225Y-100775000D02*
X162195225Y-101275000D01*
G04 #@! TO.C,C8*
X169621000Y-69910000D02*
X170879000Y-69910000D01*
X169621000Y-71750000D02*
X170879000Y-71750000D01*
G04 #@! TO.C,U7*
X162635000Y-61880000D02*
G75*
G02X160635000Y-61880000I-1000000J0D01*
G01*
X160635000Y-61880000D02*
X158985000Y-61880000D01*
X158985000Y-61880000D02*
X158985000Y-72160000D01*
X158985000Y-72160000D02*
X164285000Y-72160000D01*
X164285000Y-72160000D02*
X164285000Y-61880000D01*
X164285000Y-61880000D02*
X162635000Y-61880000D01*
G04 #@! TO.C,DS1*
X98805000Y-98120000D02*
X179085000Y-98120000D01*
X179085000Y-98120000D02*
X179085000Y-61840000D01*
X179085000Y-61840000D02*
X99605000Y-61840000D01*
X98805000Y-61840000D02*
X98805000Y-98120000D01*
X98815000Y-61840000D02*
X99605000Y-61840000D01*
X105445000Y-61480000D02*
X108445000Y-61480000D01*
X107145000Y-72480000D02*
X170645000Y-72480000D01*
X106645280Y-86979320D02*
X106645280Y-72980000D01*
X170645660Y-87480000D02*
X107145000Y-87480000D01*
X171145000Y-72980000D02*
X171145000Y-86980000D01*
X171145000Y-72980000D02*
G75*
G03X170645000Y-72480000I-500000J0D01*
G01*
X170645660Y-87479700D02*
G75*
G03X171146040Y-86979320I0J500380D01*
G01*
X106645280Y-86979320D02*
G75*
G03X107145660Y-87479700I500380J0D01*
G01*
X107145660Y-72478460D02*
G75*
G03X106645280Y-72978840I0J-500380D01*
G01*
X101945000Y-67480000D02*
X174945000Y-67480000D01*
X174945000Y-67480000D02*
X174945000Y-92480000D01*
X174945000Y-92480000D02*
X101945000Y-92480000D01*
X101945000Y-92480000D02*
X101945000Y-67480000D01*
G04 #@! TO.C,U4*
X131080000Y-116270000D02*
X120840000Y-116270000D01*
X131080000Y-111629000D02*
X120840000Y-111629000D01*
X131080000Y-116270000D02*
X131080000Y-111629000D01*
X120840000Y-116270000D02*
X120840000Y-111629000D01*
X131080000Y-114760000D02*
X120840000Y-114760000D01*
X127810000Y-116270000D02*
X127810000Y-114760000D01*
X124109000Y-116270000D02*
X124109000Y-114760000D01*
G04 #@! TO.C,BZ1*
X170830000Y-80365000D02*
G75*
G03X170830000Y-80365000I-6100000J0D01*
G01*
G04 #@! TO.C,C2*
X122851000Y-88306500D02*
X122851000Y-87048500D01*
X121011000Y-88306500D02*
X121011000Y-87048500D01*
G04 #@! TO.C,C3*
X126091000Y-88306500D02*
X126091000Y-87048500D01*
X127931000Y-88306500D02*
X127931000Y-87048500D01*
G04 #@! TO.C,C4*
X123527868Y-108735651D02*
X122269868Y-108735651D01*
X123527868Y-110575651D02*
X122269868Y-110575651D01*
G04 #@! TO.C,C6*
X140829000Y-96616000D02*
X142087000Y-96616000D01*
X140829000Y-98456000D02*
X142087000Y-98456000D01*
G04 #@! TO.C,SW1*
X115670000Y-119670000D02*
X117000000Y-119670000D01*
X115670000Y-121000000D02*
X115670000Y-119670000D01*
X115670000Y-122270000D02*
X118330000Y-122270000D01*
X118330000Y-122270000D02*
X118330000Y-127410000D01*
X115670000Y-122270000D02*
X115670000Y-127410000D01*
X115670000Y-127410000D02*
X118330000Y-127410000D01*
G04 #@! TO.C,J2*
X92904000Y-79696000D02*
X94234000Y-79696000D01*
X92904000Y-81026000D02*
X92904000Y-79696000D01*
X92904000Y-82296000D02*
X95564000Y-82296000D01*
X95564000Y-82296000D02*
X95564000Y-87436000D01*
X92904000Y-82296000D02*
X92904000Y-87436000D01*
X92904000Y-87436000D02*
X95564000Y-87436000D01*
G04 #@! TO.C,U1*
X95564000Y-88713000D02*
X92904000Y-88713000D01*
X95564000Y-96393000D02*
X95564000Y-88713000D01*
X92904000Y-96393000D02*
X92904000Y-88713000D01*
X95564000Y-96393000D02*
X92904000Y-96393000D01*
X95564000Y-97663000D02*
X95564000Y-98993000D01*
X95564000Y-98993000D02*
X94234000Y-98993000D01*
G04 #@! TO.C,J3*
X181180000Y-82320000D02*
X183840000Y-82320000D01*
X181180000Y-72100000D02*
X181180000Y-82320000D01*
X183840000Y-72100000D02*
X183840000Y-82320000D01*
X181180000Y-72100000D02*
X183840000Y-72100000D01*
X181180000Y-70830000D02*
X181180000Y-69500000D01*
X181180000Y-69500000D02*
X182510000Y-69500000D01*
G04 #@! TO.C,J4*
X183840000Y-86010000D02*
X181180000Y-86010000D01*
X183840000Y-108930000D02*
X183840000Y-86010000D01*
X181180000Y-108930000D02*
X181180000Y-86010000D01*
X183840000Y-108930000D02*
X181180000Y-108930000D01*
X183840000Y-110200000D02*
X183840000Y-111530000D01*
X183840000Y-111530000D02*
X182510000Y-111530000D01*
G04 #@! TO.C,Y1*
X121256000Y-79417500D02*
X127506000Y-79417500D01*
X121256000Y-84467500D02*
X127506000Y-84467500D01*
X121256000Y-84467500D02*
G75*
G02X121256000Y-79417500I0J2525000D01*
G01*
X127506000Y-84467500D02*
G75*
G03X127506000Y-79417500I0J2525000D01*
G01*
G04 #@! TO.C,U6*
X173255000Y-106450000D02*
G75*
G02X175255000Y-106450000I1000000J0D01*
G01*
X175255000Y-106450000D02*
X176905000Y-106450000D01*
X176905000Y-106450000D02*
X176905000Y-86010000D01*
X176905000Y-86010000D02*
X171605000Y-86010000D01*
X171605000Y-86010000D02*
X171605000Y-106450000D01*
X171605000Y-106450000D02*
X173255000Y-106450000D01*
G04 #@! TO.C,U2*
X102186000Y-72687500D02*
G75*
G02X102186000Y-74687500I0J-1000000D01*
G01*
X102186000Y-74687500D02*
X102186000Y-76337500D01*
X102186000Y-76337500D02*
X137866000Y-76337500D01*
X137866000Y-76337500D02*
X137866000Y-71037500D01*
X137866000Y-71037500D02*
X102186000Y-71037500D01*
X102186000Y-71037500D02*
X102186000Y-72687500D01*
G04 #@! TO.C,RV1*
X91715000Y-78255000D02*
X91715000Y-68485000D01*
X96785000Y-78255000D02*
X96785000Y-68485000D01*
X91715000Y-78255000D02*
X96785000Y-78255000D01*
X91715000Y-68485000D02*
X96785000Y-68485000D01*
G04 #@! TO.C,R12*
X145221905Y-104914641D02*
G75*
G02X145124867Y-106364000I320095J-749359D01*
G01*
G04 #@! TO.C,J1*
X104100000Y-119500000D02*
X104100000Y-118450000D01*
X103050000Y-118450000D02*
X104100000Y-118450000D01*
X98000000Y-127850000D02*
X89200000Y-127850000D01*
X89200000Y-127850000D02*
X89200000Y-118650000D01*
X103900000Y-125150000D02*
X103900000Y-127850000D01*
X103900000Y-127850000D02*
X102000000Y-127850000D01*
X89200000Y-118650000D02*
X103900000Y-118650000D01*
X103900000Y-118650000D02*
X103900000Y-121250000D01*
D12*
G04 #@! TO.C,U3*
X119010000Y-102580000D02*
X119010000Y-117820000D01*
X119010000Y-117820000D02*
X93610000Y-117820000D01*
X119010000Y-102580000D02*
X93610000Y-102580000D01*
X93610000Y-102580000D02*
X93610000Y-117820000D01*
X99960000Y-111470000D02*
X99960000Y-116550000D01*
X99960000Y-116550000D02*
X94880000Y-116550000D01*
X94880000Y-116550000D02*
X94880000Y-114010000D01*
X94880000Y-114010000D02*
X98690000Y-114010000D01*
X98690000Y-114010000D02*
X98690000Y-112740000D01*
X98690000Y-112740000D02*
X94880000Y-112740000D01*
X94880000Y-112740000D02*
X94880000Y-111470000D01*
X94880000Y-111470000D02*
X98690000Y-111470000D01*
X98690000Y-111470000D02*
X98690000Y-110200000D01*
X98690000Y-110200000D02*
X94880000Y-110200000D01*
X94880000Y-110200000D02*
X94880000Y-108930000D01*
X94880000Y-108930000D02*
X98690000Y-108930000D01*
X98690000Y-108930000D02*
X98690000Y-107660000D01*
X98690000Y-107660000D02*
X94880000Y-107660000D01*
X94880000Y-107660000D02*
X94880000Y-103850000D01*
X99960000Y-111470000D02*
X99960000Y-107660000D01*
X112660000Y-103850000D02*
X101230000Y-103850000D01*
X101230000Y-103850000D02*
X101230000Y-116550000D01*
X101230000Y-116550000D02*
X112660000Y-116550000D01*
X112660000Y-116550000D02*
X112660000Y-103850000D01*
G04 #@! TO.C,L1*
X148597380Y-121796666D02*
X148597380Y-122272857D01*
X147597380Y-122272857D01*
X148597380Y-120939523D02*
X148597380Y-121510952D01*
X148597380Y-121225238D02*
X147597380Y-121225238D01*
X147740238Y-121320476D01*
X147835476Y-121415714D01*
X147883095Y-121510952D01*
D15*
X173179761Y-122534761D02*
X171179761Y-122534761D01*
X171846428Y-121582380D02*
X173179761Y-121582380D01*
X172036904Y-121582380D02*
X171941666Y-121487142D01*
X171846428Y-121296666D01*
X171846428Y-121010952D01*
X171941666Y-120820476D01*
X172132142Y-120725238D01*
X173179761Y-120725238D01*
X174322857Y-116041904D02*
X174322857Y-114518095D01*
X114632857Y-123026904D02*
X114632857Y-121503095D01*
X115394761Y-122265000D02*
X113870952Y-122265000D01*
X174322857Y-128741904D02*
X174322857Y-127218095D01*
X175084761Y-127980000D02*
X173560952Y-127980000D01*
X136889761Y-123296666D02*
X136889761Y-122915714D01*
X136985000Y-122725238D01*
X137175476Y-122534761D01*
X137556428Y-122439523D01*
X138223095Y-122439523D01*
X138604047Y-122534761D01*
X138794523Y-122725238D01*
X138889761Y-122915714D01*
X138889761Y-123296666D01*
X138794523Y-123487142D01*
X138604047Y-123677619D01*
X138223095Y-123772857D01*
X137556428Y-123772857D01*
X137175476Y-123677619D01*
X136985000Y-123487142D01*
X136889761Y-123296666D01*
X137556428Y-120725238D02*
X138889761Y-120725238D01*
X137556428Y-121582380D02*
X138604047Y-121582380D01*
X138794523Y-121487142D01*
X138889761Y-121296666D01*
X138889761Y-121010952D01*
X138794523Y-120820476D01*
X138699285Y-120725238D01*
X137556428Y-120058571D02*
X137556428Y-119296666D01*
X136889761Y-119772857D02*
X138604047Y-119772857D01*
X138794523Y-119677619D01*
X138889761Y-119487142D01*
X138889761Y-119296666D01*
X133682857Y-116676904D02*
X133682857Y-115153095D01*
X133682857Y-128741904D02*
X133682857Y-127218095D01*
X134444761Y-127980000D02*
X132920952Y-127980000D01*
G04 #@! TO.C,C9*
D12*
X153733333Y-69357142D02*
X153685714Y-69404761D01*
X153542857Y-69452380D01*
X153447619Y-69452380D01*
X153304761Y-69404761D01*
X153209523Y-69309523D01*
X153161904Y-69214285D01*
X153114285Y-69023809D01*
X153114285Y-68880952D01*
X153161904Y-68690476D01*
X153209523Y-68595238D01*
X153304761Y-68500000D01*
X153447619Y-68452380D01*
X153542857Y-68452380D01*
X153685714Y-68500000D01*
X153733333Y-68547619D01*
X154209523Y-69452380D02*
X154400000Y-69452380D01*
X154495238Y-69404761D01*
X154542857Y-69357142D01*
X154638095Y-69214285D01*
X154685714Y-69023809D01*
X154685714Y-68642857D01*
X154638095Y-68547619D01*
X154590476Y-68500000D01*
X154495238Y-68452380D01*
X154304761Y-68452380D01*
X154209523Y-68500000D01*
X154161904Y-68547619D01*
X154114285Y-68642857D01*
X154114285Y-68880952D01*
X154161904Y-68976190D01*
X154209523Y-69023809D01*
X154304761Y-69071428D01*
X154495238Y-69071428D01*
X154590476Y-69023809D01*
X154638095Y-68976190D01*
X154685714Y-68880952D01*
X151876190Y-62857142D02*
X151828571Y-62904761D01*
X151685714Y-62952380D01*
X151590476Y-62952380D01*
X151447619Y-62904761D01*
X151352380Y-62809523D01*
X151304761Y-62714285D01*
X151257142Y-62523809D01*
X151257142Y-62380952D01*
X151304761Y-62190476D01*
X151352380Y-62095238D01*
X151447619Y-62000000D01*
X151590476Y-61952380D01*
X151685714Y-61952380D01*
X151828571Y-62000000D01*
X151876190Y-62047619D01*
X152304761Y-62952380D02*
X152304761Y-61952380D01*
X152685714Y-61952380D01*
X152780952Y-62000000D01*
X152828571Y-62047619D01*
X152876190Y-62142857D01*
X152876190Y-62285714D01*
X152828571Y-62380952D01*
X152780952Y-62428571D01*
X152685714Y-62476190D01*
X152304761Y-62476190D01*
X153828571Y-62952380D02*
X153257142Y-62952380D01*
X153542857Y-62952380D02*
X153542857Y-61952380D01*
X153447619Y-62095238D01*
X153352380Y-62190476D01*
X153257142Y-62238095D01*
X154447619Y-61952380D02*
X154542857Y-61952380D01*
X154638095Y-62000000D01*
X154685714Y-62047619D01*
X154733333Y-62142857D01*
X154780952Y-62333333D01*
X154780952Y-62571428D01*
X154733333Y-62761904D01*
X154685714Y-62857142D01*
X154638095Y-62904761D01*
X154542857Y-62952380D01*
X154447619Y-62952380D01*
X154352380Y-62904761D01*
X154304761Y-62857142D01*
X154257142Y-62761904D01*
X154209523Y-62571428D01*
X154209523Y-62333333D01*
X154257142Y-62142857D01*
X154304761Y-62047619D01*
X154352380Y-62000000D01*
X154447619Y-61952380D01*
X155638095Y-62285714D02*
X155638095Y-62952380D01*
X155209523Y-62285714D02*
X155209523Y-62809523D01*
X155257142Y-62904761D01*
X155352380Y-62952380D01*
X155495238Y-62952380D01*
X155590476Y-62904761D01*
X155638095Y-62857142D01*
X156447619Y-62428571D02*
X156114285Y-62428571D01*
X156114285Y-62952380D02*
X156114285Y-61952380D01*
X156590476Y-61952380D01*
G04 #@! TO.C,C1*
X119607142Y-81916666D02*
X119654761Y-81964285D01*
X119702380Y-82107142D01*
X119702380Y-82202380D01*
X119654761Y-82345238D01*
X119559523Y-82440476D01*
X119464285Y-82488095D01*
X119273809Y-82535714D01*
X119130952Y-82535714D01*
X118940476Y-82488095D01*
X118845238Y-82440476D01*
X118750000Y-82345238D01*
X118702380Y-82202380D01*
X118702380Y-82107142D01*
X118750000Y-81964285D01*
X118797619Y-81916666D01*
X119702380Y-80964285D02*
X119702380Y-81535714D01*
X119702380Y-81250000D02*
X118702380Y-81250000D01*
X118845238Y-81345238D01*
X118940476Y-81440476D01*
X118988095Y-81535714D01*
X113107142Y-83297619D02*
X113154761Y-83345238D01*
X113202380Y-83488095D01*
X113202380Y-83583333D01*
X113154761Y-83726190D01*
X113059523Y-83821428D01*
X112964285Y-83869047D01*
X112773809Y-83916666D01*
X112630952Y-83916666D01*
X112440476Y-83869047D01*
X112345238Y-83821428D01*
X112250000Y-83726190D01*
X112202380Y-83583333D01*
X112202380Y-83488095D01*
X112250000Y-83345238D01*
X112297619Y-83297619D01*
X113202380Y-82869047D02*
X112202380Y-82869047D01*
X112202380Y-82488095D01*
X112250000Y-82392857D01*
X112297619Y-82345238D01*
X112392857Y-82297619D01*
X112535714Y-82297619D01*
X112630952Y-82345238D01*
X112678571Y-82392857D01*
X112726190Y-82488095D01*
X112726190Y-82869047D01*
X113202380Y-81345238D02*
X113202380Y-81916666D01*
X113202380Y-81630952D02*
X112202380Y-81630952D01*
X112345238Y-81726190D01*
X112440476Y-81821428D01*
X112488095Y-81916666D01*
X112535714Y-80488095D02*
X113202380Y-80488095D01*
X112535714Y-80916666D02*
X113059523Y-80916666D01*
X113154761Y-80869047D01*
X113202380Y-80773809D01*
X113202380Y-80630952D01*
X113154761Y-80535714D01*
X113107142Y-80488095D01*
X112678571Y-79678571D02*
X112678571Y-80011904D01*
X113202380Y-80011904D02*
X112202380Y-80011904D01*
X112202380Y-79535714D01*
G04 #@! TO.C,C7*
X170353221Y-108767142D02*
X170305602Y-108814761D01*
X170162745Y-108862380D01*
X170067507Y-108862380D01*
X169924649Y-108814761D01*
X169829411Y-108719523D01*
X169781792Y-108624285D01*
X169734173Y-108433809D01*
X169734173Y-108290952D01*
X169781792Y-108100476D01*
X169829411Y-108005238D01*
X169924649Y-107910000D01*
X170067507Y-107862380D01*
X170162745Y-107862380D01*
X170305602Y-107910000D01*
X170353221Y-107957619D01*
X170686554Y-107862380D02*
X171353221Y-107862380D01*
X170924649Y-108862380D01*
X161012268Y-110212142D02*
X160964649Y-110259761D01*
X160821792Y-110307380D01*
X160726554Y-110307380D01*
X160583697Y-110259761D01*
X160488459Y-110164523D01*
X160440840Y-110069285D01*
X160393221Y-109878809D01*
X160393221Y-109735952D01*
X160440840Y-109545476D01*
X160488459Y-109450238D01*
X160583697Y-109355000D01*
X160726554Y-109307380D01*
X160821792Y-109307380D01*
X160964649Y-109355000D01*
X161012268Y-109402619D01*
X161440840Y-110307380D02*
X161440840Y-109307380D01*
X161821792Y-109307380D01*
X161917030Y-109355000D01*
X161964649Y-109402619D01*
X162012268Y-109497857D01*
X162012268Y-109640714D01*
X161964649Y-109735952D01*
X161917030Y-109783571D01*
X161821792Y-109831190D01*
X161440840Y-109831190D01*
X162964649Y-110307380D02*
X162393221Y-110307380D01*
X162678935Y-110307380D02*
X162678935Y-109307380D01*
X162583697Y-109450238D01*
X162488459Y-109545476D01*
X162393221Y-109593095D01*
X163821792Y-109640714D02*
X163821792Y-110307380D01*
X163393221Y-109640714D02*
X163393221Y-110164523D01*
X163440840Y-110259761D01*
X163536078Y-110307380D01*
X163678935Y-110307380D01*
X163774173Y-110259761D01*
X163821792Y-110212142D01*
X164631316Y-109783571D02*
X164297983Y-109783571D01*
X164297983Y-110307380D02*
X164297983Y-109307380D01*
X164774173Y-109307380D01*
G04 #@! TO.C,C5*
X119848333Y-103862142D02*
X119800714Y-103909761D01*
X119657857Y-103957380D01*
X119562619Y-103957380D01*
X119419761Y-103909761D01*
X119324523Y-103814523D01*
X119276904Y-103719285D01*
X119229285Y-103528809D01*
X119229285Y-103385952D01*
X119276904Y-103195476D01*
X119324523Y-103100238D01*
X119419761Y-103005000D01*
X119562619Y-102957380D01*
X119657857Y-102957380D01*
X119800714Y-103005000D01*
X119848333Y-103052619D01*
X120753095Y-102957380D02*
X120276904Y-102957380D01*
X120229285Y-103433571D01*
X120276904Y-103385952D01*
X120372142Y-103338333D01*
X120610238Y-103338333D01*
X120705476Y-103385952D01*
X120753095Y-103433571D01*
X120800714Y-103528809D01*
X120800714Y-103766904D01*
X120753095Y-103862142D01*
X120705476Y-103909761D01*
X120610238Y-103957380D01*
X120372142Y-103957380D01*
X120276904Y-103909761D01*
X120229285Y-103862142D01*
X121007380Y-102592142D02*
X120959761Y-102639761D01*
X120816904Y-102687380D01*
X120721666Y-102687380D01*
X120578809Y-102639761D01*
X120483571Y-102544523D01*
X120435952Y-102449285D01*
X120388333Y-102258809D01*
X120388333Y-102115952D01*
X120435952Y-101925476D01*
X120483571Y-101830238D01*
X120578809Y-101735000D01*
X120721666Y-101687380D01*
X120816904Y-101687380D01*
X120959761Y-101735000D01*
X121007380Y-101782619D01*
X121435952Y-102687380D02*
X121435952Y-101687380D01*
X121816904Y-101687380D01*
X121912142Y-101735000D01*
X121959761Y-101782619D01*
X122007380Y-101877857D01*
X122007380Y-102020714D01*
X121959761Y-102115952D01*
X121912142Y-102163571D01*
X121816904Y-102211190D01*
X121435952Y-102211190D01*
X122959761Y-102687380D02*
X122388333Y-102687380D01*
X122674047Y-102687380D02*
X122674047Y-101687380D01*
X122578809Y-101830238D01*
X122483571Y-101925476D01*
X122388333Y-101973095D01*
X123816904Y-102020714D02*
X123816904Y-102687380D01*
X123388333Y-102020714D02*
X123388333Y-102544523D01*
X123435952Y-102639761D01*
X123531190Y-102687380D01*
X123674047Y-102687380D01*
X123769285Y-102639761D01*
X123816904Y-102592142D01*
X124626428Y-102163571D02*
X124293095Y-102163571D01*
X124293095Y-102687380D02*
X124293095Y-101687380D01*
X124769285Y-101687380D01*
G04 #@! TO.C,R2*
X114083882Y-99475746D02*
X113750549Y-98999556D01*
X113512453Y-99475746D02*
X113512453Y-98475746D01*
X113893406Y-98475746D01*
X113988644Y-98523366D01*
X114036263Y-98570985D01*
X114083882Y-98666223D01*
X114083882Y-98809080D01*
X114036263Y-98904318D01*
X113988644Y-98951937D01*
X113893406Y-98999556D01*
X113512453Y-98999556D01*
X114464834Y-98570985D02*
X114512453Y-98523366D01*
X114607691Y-98475746D01*
X114845787Y-98475746D01*
X114941025Y-98523366D01*
X114988644Y-98570985D01*
X115036263Y-98666223D01*
X115036263Y-98761461D01*
X114988644Y-98904318D01*
X114417215Y-99475746D01*
X115036263Y-99475746D01*
X120092691Y-99475746D02*
X119759358Y-98999556D01*
X119521263Y-99475746D02*
X119521263Y-98475746D01*
X119902215Y-98475746D01*
X119997453Y-98523366D01*
X120045072Y-98570985D01*
X120092691Y-98666223D01*
X120092691Y-98809080D01*
X120045072Y-98904318D01*
X119997453Y-98951937D01*
X119902215Y-98999556D01*
X119521263Y-98999556D01*
X121045072Y-99475746D02*
X120473644Y-99475746D01*
X120759358Y-99475746D02*
X120759358Y-98475746D01*
X120664120Y-98618604D01*
X120568882Y-98713842D01*
X120473644Y-98761461D01*
X121664120Y-98475746D02*
X121759358Y-98475746D01*
X121854596Y-98523366D01*
X121902215Y-98570985D01*
X121949834Y-98666223D01*
X121997453Y-98856699D01*
X121997453Y-99094794D01*
X121949834Y-99285270D01*
X121902215Y-99380508D01*
X121854596Y-99428127D01*
X121759358Y-99475746D01*
X121664120Y-99475746D01*
X121568882Y-99428127D01*
X121521263Y-99380508D01*
X121473644Y-99285270D01*
X121426025Y-99094794D01*
X121426025Y-98856699D01*
X121473644Y-98666223D01*
X121521263Y-98570985D01*
X121568882Y-98523366D01*
X121664120Y-98475746D01*
X122426025Y-99475746D02*
X122426025Y-98475746D01*
X122997453Y-99475746D02*
X122568882Y-98904318D01*
X122997453Y-98475746D02*
X122426025Y-99047175D01*
G04 #@! TO.C,R1*
X114083882Y-96682380D02*
X113750549Y-96206190D01*
X113512453Y-96682380D02*
X113512453Y-95682380D01*
X113893406Y-95682380D01*
X113988644Y-95730000D01*
X114036263Y-95777619D01*
X114083882Y-95872857D01*
X114083882Y-96015714D01*
X114036263Y-96110952D01*
X113988644Y-96158571D01*
X113893406Y-96206190D01*
X113512453Y-96206190D01*
X115036263Y-96682380D02*
X114464834Y-96682380D01*
X114750549Y-96682380D02*
X114750549Y-95682380D01*
X114655310Y-95825238D01*
X114560072Y-95920476D01*
X114464834Y-95968095D01*
X120092691Y-96682380D02*
X119759358Y-96206190D01*
X119521263Y-96682380D02*
X119521263Y-95682380D01*
X119902215Y-95682380D01*
X119997453Y-95730000D01*
X120045072Y-95777619D01*
X120092691Y-95872857D01*
X120092691Y-96015714D01*
X120045072Y-96110952D01*
X119997453Y-96158571D01*
X119902215Y-96206190D01*
X119521263Y-96206190D01*
X121045072Y-96682380D02*
X120473644Y-96682380D01*
X120759358Y-96682380D02*
X120759358Y-95682380D01*
X120664120Y-95825238D01*
X120568882Y-95920476D01*
X120473644Y-95968095D01*
X121664120Y-95682380D02*
X121759358Y-95682380D01*
X121854596Y-95730000D01*
X121902215Y-95777619D01*
X121949834Y-95872857D01*
X121997453Y-96063333D01*
X121997453Y-96301428D01*
X121949834Y-96491904D01*
X121902215Y-96587142D01*
X121854596Y-96634761D01*
X121759358Y-96682380D01*
X121664120Y-96682380D01*
X121568882Y-96634761D01*
X121521263Y-96587142D01*
X121473644Y-96491904D01*
X121426025Y-96301428D01*
X121426025Y-96063333D01*
X121473644Y-95872857D01*
X121521263Y-95777619D01*
X121568882Y-95730000D01*
X121664120Y-95682380D01*
X122426025Y-96682380D02*
X122426025Y-95682380D01*
X122997453Y-96682380D02*
X122568882Y-96110952D01*
X122997453Y-95682380D02*
X122426025Y-96253809D01*
G04 #@! TO.C,R4*
X110508880Y-102365666D02*
X110032690Y-102699000D01*
X110508880Y-102937095D02*
X109508880Y-102937095D01*
X109508880Y-102556142D01*
X109556500Y-102460904D01*
X109604119Y-102413285D01*
X109699357Y-102365666D01*
X109842214Y-102365666D01*
X109937452Y-102413285D01*
X109985071Y-102460904D01*
X110032690Y-102556142D01*
X110032690Y-102937095D01*
X109842214Y-101508523D02*
X110508880Y-101508523D01*
X109461261Y-101746619D02*
X110175547Y-101984714D01*
X110175547Y-101365666D01*
X110508880Y-95880666D02*
X110032690Y-96214000D01*
X110508880Y-96452095D02*
X109508880Y-96452095D01*
X109508880Y-96071142D01*
X109556500Y-95975904D01*
X109604119Y-95928285D01*
X109699357Y-95880666D01*
X109842214Y-95880666D01*
X109937452Y-95928285D01*
X109985071Y-95975904D01*
X110032690Y-96071142D01*
X110032690Y-96452095D01*
X109604119Y-95499714D02*
X109556500Y-95452095D01*
X109508880Y-95356857D01*
X109508880Y-95118761D01*
X109556500Y-95023523D01*
X109604119Y-94975904D01*
X109699357Y-94928285D01*
X109794595Y-94928285D01*
X109937452Y-94975904D01*
X110508880Y-95547333D01*
X110508880Y-94928285D01*
X110508880Y-94499714D02*
X109508880Y-94499714D01*
X110508880Y-93928285D02*
X109937452Y-94356857D01*
X109508880Y-93928285D02*
X110080309Y-94499714D01*
G04 #@! TO.C,R6*
X103968380Y-90999166D02*
X103492190Y-91332500D01*
X103968380Y-91570595D02*
X102968380Y-91570595D01*
X102968380Y-91189642D01*
X103016000Y-91094404D01*
X103063619Y-91046785D01*
X103158857Y-90999166D01*
X103301714Y-90999166D01*
X103396952Y-91046785D01*
X103444571Y-91094404D01*
X103492190Y-91189642D01*
X103492190Y-91570595D01*
X102968380Y-90142023D02*
X102968380Y-90332500D01*
X103016000Y-90427738D01*
X103063619Y-90475357D01*
X103206476Y-90570595D01*
X103396952Y-90618214D01*
X103777904Y-90618214D01*
X103873142Y-90570595D01*
X103920761Y-90522976D01*
X103968380Y-90427738D01*
X103968380Y-90237261D01*
X103920761Y-90142023D01*
X103873142Y-90094404D01*
X103777904Y-90046785D01*
X103539809Y-90046785D01*
X103444571Y-90094404D01*
X103396952Y-90142023D01*
X103349333Y-90237261D01*
X103349333Y-90427738D01*
X103396952Y-90522976D01*
X103444571Y-90570595D01*
X103539809Y-90618214D01*
X103968380Y-84895119D02*
X103492190Y-85228452D01*
X103968380Y-85466547D02*
X102968380Y-85466547D01*
X102968380Y-85085595D01*
X103016000Y-84990357D01*
X103063619Y-84942738D01*
X103158857Y-84895119D01*
X103301714Y-84895119D01*
X103396952Y-84942738D01*
X103444571Y-84990357D01*
X103492190Y-85085595D01*
X103492190Y-85466547D01*
X103968380Y-83942738D02*
X103968380Y-84514166D01*
X103968380Y-84228452D02*
X102968380Y-84228452D01*
X103111238Y-84323690D01*
X103206476Y-84418928D01*
X103254095Y-84514166D01*
X102968380Y-83323690D02*
X102968380Y-83228452D01*
X103016000Y-83133214D01*
X103063619Y-83085595D01*
X103158857Y-83037976D01*
X103349333Y-82990357D01*
X103587428Y-82990357D01*
X103777904Y-83037976D01*
X103873142Y-83085595D01*
X103920761Y-83133214D01*
X103968380Y-83228452D01*
X103968380Y-83323690D01*
X103920761Y-83418928D01*
X103873142Y-83466547D01*
X103777904Y-83514166D01*
X103587428Y-83561785D01*
X103349333Y-83561785D01*
X103158857Y-83514166D01*
X103063619Y-83466547D01*
X103016000Y-83418928D01*
X102968380Y-83323690D01*
X103968380Y-82561785D02*
X102968380Y-82561785D01*
X103587428Y-82466547D02*
X103968380Y-82180833D01*
X103301714Y-82180833D02*
X103682666Y-82561785D01*
G04 #@! TO.C,R7*
X127141248Y-112997317D02*
X126665058Y-113330651D01*
X127141248Y-113568746D02*
X126141248Y-113568746D01*
X126141248Y-113187793D01*
X126188868Y-113092555D01*
X126236487Y-113044936D01*
X126331725Y-112997317D01*
X126474582Y-112997317D01*
X126569820Y-113044936D01*
X126617439Y-113092555D01*
X126665058Y-113187793D01*
X126665058Y-113568746D01*
X126141248Y-112663984D02*
X126141248Y-111997317D01*
X127141248Y-112425889D01*
X127141248Y-106964698D02*
X126665058Y-107298031D01*
X127141248Y-107536127D02*
X126141248Y-107536127D01*
X126141248Y-107155174D01*
X126188868Y-107059936D01*
X126236487Y-107012317D01*
X126331725Y-106964698D01*
X126474582Y-106964698D01*
X126569820Y-107012317D01*
X126617439Y-107059936D01*
X126665058Y-107155174D01*
X126665058Y-107536127D01*
X126236487Y-106583746D02*
X126188868Y-106536127D01*
X126141248Y-106440889D01*
X126141248Y-106202793D01*
X126188868Y-106107555D01*
X126236487Y-106059936D01*
X126331725Y-106012317D01*
X126426963Y-106012317D01*
X126569820Y-106059936D01*
X127141248Y-106631365D01*
X127141248Y-106012317D01*
X126474582Y-105155174D02*
X127141248Y-105155174D01*
X126093629Y-105393270D02*
X126807915Y-105631365D01*
X126807915Y-105012317D01*
X126141248Y-104440889D02*
X126141248Y-104345651D01*
X126188868Y-104250412D01*
X126236487Y-104202793D01*
X126331725Y-104155174D01*
X126522201Y-104107555D01*
X126760296Y-104107555D01*
X126950772Y-104155174D01*
X127046010Y-104202793D01*
X127093629Y-104250412D01*
X127141248Y-104345651D01*
X127141248Y-104440889D01*
X127093629Y-104536127D01*
X127046010Y-104583746D01*
X126950772Y-104631365D01*
X126760296Y-104678984D01*
X126522201Y-104678984D01*
X126331725Y-104631365D01*
X126236487Y-104583746D01*
X126188868Y-104536127D01*
X126141248Y-104440889D01*
G04 #@! TO.C,R8*
X129681248Y-112997317D02*
X129205058Y-113330651D01*
X129681248Y-113568746D02*
X128681248Y-113568746D01*
X128681248Y-113187793D01*
X128728868Y-113092555D01*
X128776487Y-113044936D01*
X128871725Y-112997317D01*
X129014582Y-112997317D01*
X129109820Y-113044936D01*
X129157439Y-113092555D01*
X129205058Y-113187793D01*
X129205058Y-113568746D01*
X129109820Y-112425889D02*
X129062201Y-112521127D01*
X129014582Y-112568746D01*
X128919344Y-112616365D01*
X128871725Y-112616365D01*
X128776487Y-112568746D01*
X128728868Y-112521127D01*
X128681248Y-112425889D01*
X128681248Y-112235412D01*
X128728868Y-112140174D01*
X128776487Y-112092555D01*
X128871725Y-112044936D01*
X128919344Y-112044936D01*
X129014582Y-112092555D01*
X129062201Y-112140174D01*
X129109820Y-112235412D01*
X129109820Y-112425889D01*
X129157439Y-112521127D01*
X129205058Y-112568746D01*
X129300296Y-112616365D01*
X129490772Y-112616365D01*
X129586010Y-112568746D01*
X129633629Y-112521127D01*
X129681248Y-112425889D01*
X129681248Y-112235412D01*
X129633629Y-112140174D01*
X129586010Y-112092555D01*
X129490772Y-112044936D01*
X129300296Y-112044936D01*
X129205058Y-112092555D01*
X129157439Y-112140174D01*
X129109820Y-112235412D01*
X129681248Y-106964698D02*
X129205058Y-107298031D01*
X129681248Y-107536127D02*
X128681248Y-107536127D01*
X128681248Y-107155174D01*
X128728868Y-107059936D01*
X128776487Y-107012317D01*
X128871725Y-106964698D01*
X129014582Y-106964698D01*
X129109820Y-107012317D01*
X129157439Y-107059936D01*
X129205058Y-107155174D01*
X129205058Y-107536127D01*
X128681248Y-106631365D02*
X128681248Y-106012317D01*
X129062201Y-106345651D01*
X129062201Y-106202793D01*
X129109820Y-106107555D01*
X129157439Y-106059936D01*
X129252677Y-106012317D01*
X129490772Y-106012317D01*
X129586010Y-106059936D01*
X129633629Y-106107555D01*
X129681248Y-106202793D01*
X129681248Y-106488508D01*
X129633629Y-106583746D01*
X129586010Y-106631365D01*
X129681248Y-105536127D02*
X129681248Y-105345651D01*
X129633629Y-105250412D01*
X129586010Y-105202793D01*
X129443153Y-105107555D01*
X129252677Y-105059936D01*
X128871725Y-105059936D01*
X128776487Y-105107555D01*
X128728868Y-105155174D01*
X128681248Y-105250412D01*
X128681248Y-105440889D01*
X128728868Y-105536127D01*
X128776487Y-105583746D01*
X128871725Y-105631365D01*
X129109820Y-105631365D01*
X129205058Y-105583746D01*
X129252677Y-105536127D01*
X129300296Y-105440889D01*
X129300296Y-105250412D01*
X129252677Y-105155174D01*
X129205058Y-105107555D01*
X129109820Y-105059936D01*
X128681248Y-104440889D02*
X128681248Y-104345651D01*
X128728868Y-104250412D01*
X128776487Y-104202793D01*
X128871725Y-104155174D01*
X129062201Y-104107555D01*
X129300296Y-104107555D01*
X129490772Y-104155174D01*
X129586010Y-104202793D01*
X129633629Y-104250412D01*
X129681248Y-104345651D01*
X129681248Y-104440889D01*
X129633629Y-104536127D01*
X129586010Y-104583746D01*
X129490772Y-104631365D01*
X129300296Y-104678984D01*
X129062201Y-104678984D01*
X128871725Y-104631365D01*
X128776487Y-104583746D01*
X128728868Y-104536127D01*
X128681248Y-104440889D01*
G04 #@! TO.C,R9*
X138685761Y-83986666D02*
X138209571Y-84320000D01*
X138685761Y-84558095D02*
X137685761Y-84558095D01*
X137685761Y-84177142D01*
X137733381Y-84081904D01*
X137781000Y-84034285D01*
X137876238Y-83986666D01*
X138019095Y-83986666D01*
X138114333Y-84034285D01*
X138161952Y-84081904D01*
X138209571Y-84177142D01*
X138209571Y-84558095D01*
X138685761Y-83510476D02*
X138685761Y-83320000D01*
X138638142Y-83224761D01*
X138590523Y-83177142D01*
X138447666Y-83081904D01*
X138257190Y-83034285D01*
X137876238Y-83034285D01*
X137781000Y-83081904D01*
X137733381Y-83129523D01*
X137685761Y-83224761D01*
X137685761Y-83415238D01*
X137733381Y-83510476D01*
X137781000Y-83558095D01*
X137876238Y-83605714D01*
X138114333Y-83605714D01*
X138209571Y-83558095D01*
X138257190Y-83510476D01*
X138304809Y-83415238D01*
X138304809Y-83224761D01*
X138257190Y-83129523D01*
X138209571Y-83081904D01*
X138114333Y-83034285D01*
X138685761Y-90539762D02*
X138209571Y-90873095D01*
X138685761Y-91111190D02*
X137685761Y-91111190D01*
X137685761Y-90730238D01*
X137733381Y-90635000D01*
X137781000Y-90587381D01*
X137876238Y-90539762D01*
X138019095Y-90539762D01*
X138114333Y-90587381D01*
X138161952Y-90635000D01*
X138209571Y-90730238D01*
X138209571Y-91111190D01*
X137685761Y-89635000D02*
X137685761Y-90111190D01*
X138161952Y-90158809D01*
X138114333Y-90111190D01*
X138066714Y-90015952D01*
X138066714Y-89777857D01*
X138114333Y-89682619D01*
X138161952Y-89635000D01*
X138257190Y-89587381D01*
X138495285Y-89587381D01*
X138590523Y-89635000D01*
X138638142Y-89682619D01*
X138685761Y-89777857D01*
X138685761Y-90015952D01*
X138638142Y-90111190D01*
X138590523Y-90158809D01*
X137685761Y-88968333D02*
X137685761Y-88873095D01*
X137733381Y-88777857D01*
X137781000Y-88730238D01*
X137876238Y-88682619D01*
X138066714Y-88635000D01*
X138304809Y-88635000D01*
X138495285Y-88682619D01*
X138590523Y-88730238D01*
X138638142Y-88777857D01*
X138685761Y-88873095D01*
X138685761Y-88968333D01*
X138638142Y-89063571D01*
X138590523Y-89111190D01*
X138495285Y-89158809D01*
X138304809Y-89206428D01*
X138066714Y-89206428D01*
X137876238Y-89158809D01*
X137781000Y-89111190D01*
X137733381Y-89063571D01*
X137685761Y-88968333D01*
G04 #@! TO.C,R10*
X141225761Y-83827857D02*
X140749571Y-84161190D01*
X141225761Y-84399285D02*
X140225761Y-84399285D01*
X140225761Y-84018333D01*
X140273381Y-83923095D01*
X140321000Y-83875476D01*
X140416238Y-83827857D01*
X140559095Y-83827857D01*
X140654333Y-83875476D01*
X140701952Y-83923095D01*
X140749571Y-84018333D01*
X140749571Y-84399285D01*
X141225761Y-82875476D02*
X141225761Y-83446904D01*
X141225761Y-83161190D02*
X140225761Y-83161190D01*
X140368619Y-83256428D01*
X140463857Y-83351666D01*
X140511476Y-83446904D01*
X140225761Y-82256428D02*
X140225761Y-82161190D01*
X140273381Y-82065952D01*
X140321000Y-82018333D01*
X140416238Y-81970714D01*
X140606714Y-81923095D01*
X140844809Y-81923095D01*
X141035285Y-81970714D01*
X141130523Y-82018333D01*
X141178142Y-82065952D01*
X141225761Y-82161190D01*
X141225761Y-82256428D01*
X141178142Y-82351666D01*
X141130523Y-82399285D01*
X141035285Y-82446904D01*
X140844809Y-82494523D01*
X140606714Y-82494523D01*
X140416238Y-82446904D01*
X140321000Y-82399285D01*
X140273381Y-82351666D01*
X140225761Y-82256428D01*
X141225761Y-91015952D02*
X140749571Y-91349285D01*
X141225761Y-91587381D02*
X140225761Y-91587381D01*
X140225761Y-91206428D01*
X140273381Y-91111190D01*
X140321000Y-91063571D01*
X140416238Y-91015952D01*
X140559095Y-91015952D01*
X140654333Y-91063571D01*
X140701952Y-91111190D01*
X140749571Y-91206428D01*
X140749571Y-91587381D01*
X141225761Y-90063571D02*
X141225761Y-90635000D01*
X141225761Y-90349285D02*
X140225761Y-90349285D01*
X140368619Y-90444524D01*
X140463857Y-90539762D01*
X140511476Y-90635000D01*
X140225761Y-89444524D02*
X140225761Y-89349285D01*
X140273381Y-89254047D01*
X140321000Y-89206428D01*
X140416238Y-89158809D01*
X140606714Y-89111190D01*
X140844809Y-89111190D01*
X141035285Y-89158809D01*
X141130523Y-89206428D01*
X141178142Y-89254047D01*
X141225761Y-89349285D01*
X141225761Y-89444524D01*
X141178142Y-89539762D01*
X141130523Y-89587381D01*
X141035285Y-89635000D01*
X140844809Y-89682619D01*
X140606714Y-89682619D01*
X140416238Y-89635000D01*
X140321000Y-89587381D01*
X140273381Y-89539762D01*
X140225761Y-89444524D01*
X140225761Y-88492143D02*
X140225761Y-88396905D01*
X140273381Y-88301666D01*
X140321000Y-88254047D01*
X140416238Y-88206428D01*
X140606714Y-88158809D01*
X140844809Y-88158809D01*
X141035285Y-88206428D01*
X141130523Y-88254047D01*
X141178142Y-88301666D01*
X141225761Y-88396905D01*
X141225761Y-88492143D01*
X141178142Y-88587381D01*
X141130523Y-88635000D01*
X141035285Y-88682619D01*
X140844809Y-88730238D01*
X140606714Y-88730238D01*
X140416238Y-88682619D01*
X140321000Y-88635000D01*
X140273381Y-88587381D01*
X140225761Y-88492143D01*
G04 #@! TO.C,R11*
X155197142Y-110112380D02*
X154863809Y-109636190D01*
X154625714Y-110112380D02*
X154625714Y-109112380D01*
X155006666Y-109112380D01*
X155101904Y-109160000D01*
X155149523Y-109207619D01*
X155197142Y-109302857D01*
X155197142Y-109445714D01*
X155149523Y-109540952D01*
X155101904Y-109588571D01*
X155006666Y-109636190D01*
X154625714Y-109636190D01*
X156149523Y-110112380D02*
X155578095Y-110112380D01*
X155863809Y-110112380D02*
X155863809Y-109112380D01*
X155768571Y-109255238D01*
X155673333Y-109350476D01*
X155578095Y-109398095D01*
X157101904Y-110112380D02*
X156530476Y-110112380D01*
X156816190Y-110112380D02*
X156816190Y-109112380D01*
X156720952Y-109255238D01*
X156625714Y-109350476D01*
X156530476Y-109398095D01*
X147712142Y-110112380D02*
X147378809Y-109636190D01*
X147140714Y-110112380D02*
X147140714Y-109112380D01*
X147521666Y-109112380D01*
X147616904Y-109160000D01*
X147664523Y-109207619D01*
X147712142Y-109302857D01*
X147712142Y-109445714D01*
X147664523Y-109540952D01*
X147616904Y-109588571D01*
X147521666Y-109636190D01*
X147140714Y-109636190D01*
X148664523Y-110112380D02*
X148093095Y-110112380D01*
X148378809Y-110112380D02*
X148378809Y-109112380D01*
X148283571Y-109255238D01*
X148188333Y-109350476D01*
X148093095Y-109398095D01*
X149283571Y-109112380D02*
X149378809Y-109112380D01*
X149474047Y-109160000D01*
X149521666Y-109207619D01*
X149569285Y-109302857D01*
X149616904Y-109493333D01*
X149616904Y-109731428D01*
X149569285Y-109921904D01*
X149521666Y-110017142D01*
X149474047Y-110064761D01*
X149378809Y-110112380D01*
X149283571Y-110112380D01*
X149188333Y-110064761D01*
X149140714Y-110017142D01*
X149093095Y-109921904D01*
X149045476Y-109731428D01*
X149045476Y-109493333D01*
X149093095Y-109302857D01*
X149140714Y-109207619D01*
X149188333Y-109160000D01*
X149283571Y-109112380D01*
X150045476Y-110112380D02*
X150045476Y-109112380D01*
X150616904Y-110112380D02*
X150188333Y-109540952D01*
X150616904Y-109112380D02*
X150045476Y-109683809D01*
G04 #@! TO.C,R13*
X148847702Y-75308588D02*
X148371512Y-75641921D01*
X148847702Y-75880016D02*
X147847702Y-75880016D01*
X147847702Y-75499064D01*
X147895322Y-75403826D01*
X147942941Y-75356207D01*
X148038179Y-75308588D01*
X148181036Y-75308588D01*
X148276274Y-75356207D01*
X148323893Y-75403826D01*
X148371512Y-75499064D01*
X148371512Y-75880016D01*
X148847702Y-74356207D02*
X148847702Y-74927635D01*
X148847702Y-74641921D02*
X147847702Y-74641921D01*
X147990560Y-74737159D01*
X148085798Y-74832397D01*
X148133417Y-74927635D01*
X147847702Y-74022873D02*
X147847702Y-73403826D01*
X148228655Y-73737159D01*
X148228655Y-73594302D01*
X148276274Y-73499064D01*
X148323893Y-73451445D01*
X148419131Y-73403826D01*
X148657226Y-73403826D01*
X148752464Y-73451445D01*
X148800083Y-73499064D01*
X148847702Y-73594302D01*
X148847702Y-73880016D01*
X148800083Y-73975254D01*
X148752464Y-74022873D01*
X148847702Y-82769778D02*
X148371512Y-83103111D01*
X148847702Y-83341207D02*
X147847702Y-83341207D01*
X147847702Y-82960254D01*
X147895322Y-82865016D01*
X147942941Y-82817397D01*
X148038179Y-82769778D01*
X148181036Y-82769778D01*
X148276274Y-82817397D01*
X148323893Y-82865016D01*
X148371512Y-82960254D01*
X148371512Y-83341207D01*
X148847702Y-81817397D02*
X148847702Y-82388826D01*
X148847702Y-82103111D02*
X147847702Y-82103111D01*
X147990560Y-82198350D01*
X148085798Y-82293588D01*
X148133417Y-82388826D01*
X147847702Y-81198350D02*
X147847702Y-81103111D01*
X147895322Y-81007873D01*
X147942941Y-80960254D01*
X148038179Y-80912635D01*
X148228655Y-80865016D01*
X148466750Y-80865016D01*
X148657226Y-80912635D01*
X148752464Y-80960254D01*
X148800083Y-81007873D01*
X148847702Y-81103111D01*
X148847702Y-81198350D01*
X148800083Y-81293588D01*
X148752464Y-81341207D01*
X148657226Y-81388826D01*
X148466750Y-81436445D01*
X148228655Y-81436445D01*
X148038179Y-81388826D01*
X147942941Y-81341207D01*
X147895322Y-81293588D01*
X147847702Y-81198350D01*
X147847702Y-80245969D02*
X147847702Y-80150731D01*
X147895322Y-80055492D01*
X147942941Y-80007873D01*
X148038179Y-79960254D01*
X148228655Y-79912635D01*
X148466750Y-79912635D01*
X148657226Y-79960254D01*
X148752464Y-80007873D01*
X148800083Y-80055492D01*
X148847702Y-80150731D01*
X148847702Y-80245969D01*
X148800083Y-80341207D01*
X148752464Y-80388826D01*
X148657226Y-80436445D01*
X148466750Y-80484064D01*
X148228655Y-80484064D01*
X148038179Y-80436445D01*
X147942941Y-80388826D01*
X147895322Y-80341207D01*
X147847702Y-80245969D01*
G04 #@! TO.C,R14*
X151387702Y-75308588D02*
X150911512Y-75641921D01*
X151387702Y-75880016D02*
X150387702Y-75880016D01*
X150387702Y-75499064D01*
X150435322Y-75403826D01*
X150482941Y-75356207D01*
X150578179Y-75308588D01*
X150721036Y-75308588D01*
X150816274Y-75356207D01*
X150863893Y-75403826D01*
X150911512Y-75499064D01*
X150911512Y-75880016D01*
X151387702Y-74356207D02*
X151387702Y-74927635D01*
X151387702Y-74641921D02*
X150387702Y-74641921D01*
X150530560Y-74737159D01*
X150625798Y-74832397D01*
X150673417Y-74927635D01*
X150721036Y-73499064D02*
X151387702Y-73499064D01*
X150340083Y-73737159D02*
X151054369Y-73975254D01*
X151054369Y-73356207D01*
X151387702Y-82293588D02*
X150911512Y-82626921D01*
X151387702Y-82865016D02*
X150387702Y-82865016D01*
X150387702Y-82484064D01*
X150435322Y-82388826D01*
X150482941Y-82341207D01*
X150578179Y-82293588D01*
X150721036Y-82293588D01*
X150816274Y-82341207D01*
X150863893Y-82388826D01*
X150911512Y-82484064D01*
X150911512Y-82865016D01*
X150387702Y-81388826D02*
X150387702Y-81865016D01*
X150863893Y-81912635D01*
X150816274Y-81865016D01*
X150768655Y-81769778D01*
X150768655Y-81531683D01*
X150816274Y-81436445D01*
X150863893Y-81388826D01*
X150959131Y-81341207D01*
X151197226Y-81341207D01*
X151292464Y-81388826D01*
X151340083Y-81436445D01*
X151387702Y-81531683D01*
X151387702Y-81769778D01*
X151340083Y-81865016D01*
X151292464Y-81912635D01*
X150387702Y-80722159D02*
X150387702Y-80626921D01*
X150435322Y-80531683D01*
X150482941Y-80484064D01*
X150578179Y-80436445D01*
X150768655Y-80388826D01*
X151006750Y-80388826D01*
X151197226Y-80436445D01*
X151292464Y-80484064D01*
X151340083Y-80531683D01*
X151387702Y-80626921D01*
X151387702Y-80722159D01*
X151340083Y-80817397D01*
X151292464Y-80865016D01*
X151197226Y-80912635D01*
X151006750Y-80960254D01*
X150768655Y-80960254D01*
X150578179Y-80912635D01*
X150482941Y-80865016D01*
X150435322Y-80817397D01*
X150387702Y-80722159D01*
G04 #@! TO.C,R15*
X153939743Y-75258392D02*
X153463553Y-75591725D01*
X153939743Y-75829820D02*
X152939743Y-75829820D01*
X152939743Y-75448868D01*
X152987363Y-75353630D01*
X153034982Y-75306011D01*
X153130220Y-75258392D01*
X153273077Y-75258392D01*
X153368315Y-75306011D01*
X153415934Y-75353630D01*
X153463553Y-75448868D01*
X153463553Y-75829820D01*
X153939743Y-74306011D02*
X153939743Y-74877439D01*
X153939743Y-74591725D02*
X152939743Y-74591725D01*
X153082601Y-74686963D01*
X153177839Y-74782201D01*
X153225458Y-74877439D01*
X152939743Y-73401249D02*
X152939743Y-73877439D01*
X153415934Y-73925058D01*
X153368315Y-73877439D01*
X153320696Y-73782201D01*
X153320696Y-73544106D01*
X153368315Y-73448868D01*
X153415934Y-73401249D01*
X153511172Y-73353630D01*
X153749267Y-73353630D01*
X153844505Y-73401249D01*
X153892124Y-73448868D01*
X153939743Y-73544106D01*
X153939743Y-73782201D01*
X153892124Y-73877439D01*
X153844505Y-73925058D01*
X153939743Y-82243392D02*
X153463553Y-82576725D01*
X153939743Y-82814820D02*
X152939743Y-82814820D01*
X152939743Y-82433868D01*
X152987363Y-82338630D01*
X153034982Y-82291011D01*
X153130220Y-82243392D01*
X153273077Y-82243392D01*
X153368315Y-82291011D01*
X153415934Y-82338630D01*
X153463553Y-82433868D01*
X153463553Y-82814820D01*
X152939743Y-81338630D02*
X152939743Y-81814820D01*
X153415934Y-81862439D01*
X153368315Y-81814820D01*
X153320696Y-81719582D01*
X153320696Y-81481487D01*
X153368315Y-81386249D01*
X153415934Y-81338630D01*
X153511172Y-81291011D01*
X153749267Y-81291011D01*
X153844505Y-81338630D01*
X153892124Y-81386249D01*
X153939743Y-81481487D01*
X153939743Y-81719582D01*
X153892124Y-81814820D01*
X153844505Y-81862439D01*
X152939743Y-80671963D02*
X152939743Y-80576725D01*
X152987363Y-80481487D01*
X153034982Y-80433868D01*
X153130220Y-80386249D01*
X153320696Y-80338630D01*
X153558791Y-80338630D01*
X153749267Y-80386249D01*
X153844505Y-80433868D01*
X153892124Y-80481487D01*
X153939743Y-80576725D01*
X153939743Y-80671963D01*
X153892124Y-80767201D01*
X153844505Y-80814820D01*
X153749267Y-80862439D01*
X153558791Y-80910058D01*
X153320696Y-80910058D01*
X153130220Y-80862439D01*
X153034982Y-80814820D01*
X152987363Y-80767201D01*
X152939743Y-80671963D01*
G04 #@! TO.C,R16*
X156479743Y-75258392D02*
X156003553Y-75591725D01*
X156479743Y-75829820D02*
X155479743Y-75829820D01*
X155479743Y-75448868D01*
X155527363Y-75353630D01*
X155574982Y-75306011D01*
X155670220Y-75258392D01*
X155813077Y-75258392D01*
X155908315Y-75306011D01*
X155955934Y-75353630D01*
X156003553Y-75448868D01*
X156003553Y-75829820D01*
X156479743Y-74306011D02*
X156479743Y-74877439D01*
X156479743Y-74591725D02*
X155479743Y-74591725D01*
X155622601Y-74686963D01*
X155717839Y-74782201D01*
X155765458Y-74877439D01*
X155479743Y-73448868D02*
X155479743Y-73639344D01*
X155527363Y-73734582D01*
X155574982Y-73782201D01*
X155717839Y-73877439D01*
X155908315Y-73925058D01*
X156289267Y-73925058D01*
X156384505Y-73877439D01*
X156432124Y-73829820D01*
X156479743Y-73734582D01*
X156479743Y-73544106D01*
X156432124Y-73448868D01*
X156384505Y-73401249D01*
X156289267Y-73353630D01*
X156051172Y-73353630D01*
X155955934Y-73401249D01*
X155908315Y-73448868D01*
X155860696Y-73544106D01*
X155860696Y-73734582D01*
X155908315Y-73829820D01*
X155955934Y-73877439D01*
X156051172Y-73925058D01*
X156479743Y-82719582D02*
X156003553Y-83052915D01*
X156479743Y-83291011D02*
X155479743Y-83291011D01*
X155479743Y-82910058D01*
X155527363Y-82814820D01*
X155574982Y-82767201D01*
X155670220Y-82719582D01*
X155813077Y-82719582D01*
X155908315Y-82767201D01*
X155955934Y-82814820D01*
X156003553Y-82910058D01*
X156003553Y-83291011D01*
X156479743Y-81767201D02*
X156479743Y-82338630D01*
X156479743Y-82052915D02*
X155479743Y-82052915D01*
X155622601Y-82148154D01*
X155717839Y-82243392D01*
X155765458Y-82338630D01*
X155479743Y-81148154D02*
X155479743Y-81052915D01*
X155527363Y-80957677D01*
X155574982Y-80910058D01*
X155670220Y-80862439D01*
X155860696Y-80814820D01*
X156098791Y-80814820D01*
X156289267Y-80862439D01*
X156384505Y-80910058D01*
X156432124Y-80957677D01*
X156479743Y-81052915D01*
X156479743Y-81148154D01*
X156432124Y-81243392D01*
X156384505Y-81291011D01*
X156289267Y-81338630D01*
X156098791Y-81386249D01*
X155860696Y-81386249D01*
X155670220Y-81338630D01*
X155574982Y-81291011D01*
X155527363Y-81243392D01*
X155479743Y-81148154D01*
X155479743Y-80195773D02*
X155479743Y-80100535D01*
X155527363Y-80005296D01*
X155574982Y-79957677D01*
X155670220Y-79910058D01*
X155860696Y-79862439D01*
X156098791Y-79862439D01*
X156289267Y-79910058D01*
X156384505Y-79957677D01*
X156432124Y-80005296D01*
X156479743Y-80100535D01*
X156479743Y-80195773D01*
X156432124Y-80291011D01*
X156384505Y-80338630D01*
X156289267Y-80386249D01*
X156098791Y-80433868D01*
X155860696Y-80433868D01*
X155670220Y-80386249D01*
X155574982Y-80338630D01*
X155527363Y-80291011D01*
X155479743Y-80195773D01*
G04 #@! TO.C,R17*
X156682142Y-97952380D02*
X156348809Y-97476190D01*
X156110714Y-97952380D02*
X156110714Y-96952380D01*
X156491666Y-96952380D01*
X156586904Y-97000000D01*
X156634523Y-97047619D01*
X156682142Y-97142857D01*
X156682142Y-97285714D01*
X156634523Y-97380952D01*
X156586904Y-97428571D01*
X156491666Y-97476190D01*
X156110714Y-97476190D01*
X157634523Y-97952380D02*
X157063095Y-97952380D01*
X157348809Y-97952380D02*
X157348809Y-96952380D01*
X157253571Y-97095238D01*
X157158333Y-97190476D01*
X157063095Y-97238095D01*
X157967857Y-96952380D02*
X158634523Y-96952380D01*
X158205952Y-97952380D01*
X162690952Y-97952380D02*
X162357619Y-97476190D01*
X162119523Y-97952380D02*
X162119523Y-96952380D01*
X162500476Y-96952380D01*
X162595714Y-97000000D01*
X162643333Y-97047619D01*
X162690952Y-97142857D01*
X162690952Y-97285714D01*
X162643333Y-97380952D01*
X162595714Y-97428571D01*
X162500476Y-97476190D01*
X162119523Y-97476190D01*
X163643333Y-97952380D02*
X163071904Y-97952380D01*
X163357619Y-97952380D02*
X163357619Y-96952380D01*
X163262380Y-97095238D01*
X163167142Y-97190476D01*
X163071904Y-97238095D01*
X164262380Y-96952380D02*
X164357619Y-96952380D01*
X164452857Y-97000000D01*
X164500476Y-97047619D01*
X164548095Y-97142857D01*
X164595714Y-97333333D01*
X164595714Y-97571428D01*
X164548095Y-97761904D01*
X164500476Y-97857142D01*
X164452857Y-97904761D01*
X164357619Y-97952380D01*
X164262380Y-97952380D01*
X164167142Y-97904761D01*
X164119523Y-97857142D01*
X164071904Y-97761904D01*
X164024285Y-97571428D01*
X164024285Y-97333333D01*
X164071904Y-97142857D01*
X164119523Y-97047619D01*
X164167142Y-97000000D01*
X164262380Y-96952380D01*
X165214761Y-96952380D02*
X165310000Y-96952380D01*
X165405238Y-97000000D01*
X165452857Y-97047619D01*
X165500476Y-97142857D01*
X165548095Y-97333333D01*
X165548095Y-97571428D01*
X165500476Y-97761904D01*
X165452857Y-97857142D01*
X165405238Y-97904761D01*
X165310000Y-97952380D01*
X165214761Y-97952380D01*
X165119523Y-97904761D01*
X165071904Y-97857142D01*
X165024285Y-97761904D01*
X164976666Y-97571428D01*
X164976666Y-97333333D01*
X165024285Y-97142857D01*
X165071904Y-97047619D01*
X165119523Y-97000000D01*
X165214761Y-96952380D01*
X165976666Y-97952380D02*
X165976666Y-96952380D01*
X166548095Y-97952380D02*
X166119523Y-97380952D01*
X166548095Y-96952380D02*
X165976666Y-97523809D01*
G04 #@! TO.C,R19*
X175252142Y-62047380D02*
X174918809Y-61571190D01*
X174680714Y-62047380D02*
X174680714Y-61047380D01*
X175061666Y-61047380D01*
X175156904Y-61095000D01*
X175204523Y-61142619D01*
X175252142Y-61237857D01*
X175252142Y-61380714D01*
X175204523Y-61475952D01*
X175156904Y-61523571D01*
X175061666Y-61571190D01*
X174680714Y-61571190D01*
X176204523Y-62047380D02*
X175633095Y-62047380D01*
X175918809Y-62047380D02*
X175918809Y-61047380D01*
X175823571Y-61190238D01*
X175728333Y-61285476D01*
X175633095Y-61333095D01*
X176680714Y-62047380D02*
X176871190Y-62047380D01*
X176966428Y-61999761D01*
X177014047Y-61952142D01*
X177109285Y-61809285D01*
X177156904Y-61618809D01*
X177156904Y-61237857D01*
X177109285Y-61142619D01*
X177061666Y-61095000D01*
X176966428Y-61047380D01*
X176775952Y-61047380D01*
X176680714Y-61095000D01*
X176633095Y-61142619D01*
X176585476Y-61237857D01*
X176585476Y-61475952D01*
X176633095Y-61571190D01*
X176680714Y-61618809D01*
X176775952Y-61666428D01*
X176966428Y-61666428D01*
X177061666Y-61618809D01*
X177109285Y-61571190D01*
X177156904Y-61475952D01*
X171143333Y-63662380D02*
X170810000Y-63186190D01*
X170571904Y-63662380D02*
X170571904Y-62662380D01*
X170952857Y-62662380D01*
X171048095Y-62710000D01*
X171095714Y-62757619D01*
X171143333Y-62852857D01*
X171143333Y-62995714D01*
X171095714Y-63090952D01*
X171048095Y-63138571D01*
X170952857Y-63186190D01*
X170571904Y-63186190D01*
X172095714Y-63662380D02*
X171524285Y-63662380D01*
X171810000Y-63662380D02*
X171810000Y-62662380D01*
X171714761Y-62805238D01*
X171619523Y-62900476D01*
X171524285Y-62948095D01*
X172524285Y-63662380D02*
X172524285Y-62662380D01*
X173095714Y-63662380D02*
X172667142Y-63090952D01*
X173095714Y-62662380D02*
X172524285Y-63233809D01*
G04 #@! TO.C,R20*
X175252142Y-68397380D02*
X174918809Y-67921190D01*
X174680714Y-68397380D02*
X174680714Y-67397380D01*
X175061666Y-67397380D01*
X175156904Y-67445000D01*
X175204523Y-67492619D01*
X175252142Y-67587857D01*
X175252142Y-67730714D01*
X175204523Y-67825952D01*
X175156904Y-67873571D01*
X175061666Y-67921190D01*
X174680714Y-67921190D01*
X175633095Y-67492619D02*
X175680714Y-67445000D01*
X175775952Y-67397380D01*
X176014047Y-67397380D01*
X176109285Y-67445000D01*
X176156904Y-67492619D01*
X176204523Y-67587857D01*
X176204523Y-67683095D01*
X176156904Y-67825952D01*
X175585476Y-68397380D01*
X176204523Y-68397380D01*
X176823571Y-67397380D02*
X176918809Y-67397380D01*
X177014047Y-67445000D01*
X177061666Y-67492619D01*
X177109285Y-67587857D01*
X177156904Y-67778333D01*
X177156904Y-68016428D01*
X177109285Y-68206904D01*
X177061666Y-68302142D01*
X177014047Y-68349761D01*
X176918809Y-68397380D01*
X176823571Y-68397380D01*
X176728333Y-68349761D01*
X176680714Y-68302142D01*
X176633095Y-68206904D01*
X176585476Y-68016428D01*
X176585476Y-67778333D01*
X176633095Y-67587857D01*
X176680714Y-67492619D01*
X176728333Y-67445000D01*
X176823571Y-67397380D01*
X170667142Y-66202380D02*
X170333809Y-65726190D01*
X170095714Y-66202380D02*
X170095714Y-65202380D01*
X170476666Y-65202380D01*
X170571904Y-65250000D01*
X170619523Y-65297619D01*
X170667142Y-65392857D01*
X170667142Y-65535714D01*
X170619523Y-65630952D01*
X170571904Y-65678571D01*
X170476666Y-65726190D01*
X170095714Y-65726190D01*
X171619523Y-66202380D02*
X171048095Y-66202380D01*
X171333809Y-66202380D02*
X171333809Y-65202380D01*
X171238571Y-65345238D01*
X171143333Y-65440476D01*
X171048095Y-65488095D01*
X172238571Y-65202380D02*
X172333809Y-65202380D01*
X172429047Y-65250000D01*
X172476666Y-65297619D01*
X172524285Y-65392857D01*
X172571904Y-65583333D01*
X172571904Y-65821428D01*
X172524285Y-66011904D01*
X172476666Y-66107142D01*
X172429047Y-66154761D01*
X172333809Y-66202380D01*
X172238571Y-66202380D01*
X172143333Y-66154761D01*
X172095714Y-66107142D01*
X172048095Y-66011904D01*
X172000476Y-65821428D01*
X172000476Y-65583333D01*
X172048095Y-65392857D01*
X172095714Y-65297619D01*
X172143333Y-65250000D01*
X172238571Y-65202380D01*
X173000476Y-66202380D02*
X173000476Y-65202380D01*
X173571904Y-66202380D02*
X173143333Y-65630952D01*
X173571904Y-65202380D02*
X173000476Y-65773809D01*
G04 #@! TO.C,R3*
X113237010Y-88372829D02*
X112760820Y-88706163D01*
X113237010Y-88944258D02*
X112237010Y-88944258D01*
X112237010Y-88563305D01*
X112284630Y-88468067D01*
X112332249Y-88420448D01*
X112427487Y-88372829D01*
X112570344Y-88372829D01*
X112665582Y-88420448D01*
X112713201Y-88468067D01*
X112760820Y-88563305D01*
X112760820Y-88944258D01*
X112237010Y-88039496D02*
X112237010Y-87420448D01*
X112617963Y-87753782D01*
X112617963Y-87610924D01*
X112665582Y-87515686D01*
X112713201Y-87468067D01*
X112808439Y-87420448D01*
X113046534Y-87420448D01*
X113141772Y-87468067D01*
X113189391Y-87515686D01*
X113237010Y-87610924D01*
X113237010Y-87896639D01*
X113189391Y-87991877D01*
X113141772Y-88039496D01*
X113237010Y-95857829D02*
X112760820Y-96191163D01*
X113237010Y-96429258D02*
X112237010Y-96429258D01*
X112237010Y-96048305D01*
X112284630Y-95953067D01*
X112332249Y-95905448D01*
X112427487Y-95857829D01*
X112570344Y-95857829D01*
X112665582Y-95905448D01*
X112713201Y-95953067D01*
X112760820Y-96048305D01*
X112760820Y-96429258D01*
X113237010Y-94905448D02*
X113237010Y-95476877D01*
X113237010Y-95191163D02*
X112237010Y-95191163D01*
X112379868Y-95286401D01*
X112475106Y-95381639D01*
X112522725Y-95476877D01*
X113237010Y-94476877D02*
X112237010Y-94476877D01*
X113237010Y-93905448D02*
X112665582Y-94334020D01*
X112237010Y-93905448D02*
X112808439Y-94476877D01*
G04 #@! TO.C,U5*
X149998095Y-95174380D02*
X149998095Y-95983904D01*
X150045714Y-96079142D01*
X150093333Y-96126761D01*
X150188571Y-96174380D01*
X150379047Y-96174380D01*
X150474285Y-96126761D01*
X150521904Y-96079142D01*
X150569523Y-95983904D01*
X150569523Y-95174380D01*
X151521904Y-95174380D02*
X151045714Y-95174380D01*
X150998095Y-95650571D01*
X151045714Y-95602952D01*
X151140952Y-95555333D01*
X151379047Y-95555333D01*
X151474285Y-95602952D01*
X151521904Y-95650571D01*
X151569523Y-95745809D01*
X151569523Y-95983904D01*
X151521904Y-96079142D01*
X151474285Y-96126761D01*
X151379047Y-96174380D01*
X151140952Y-96174380D01*
X151045714Y-96126761D01*
X150998095Y-96079142D01*
X143891904Y-91527380D02*
X144130000Y-92527380D01*
X144320476Y-91813095D01*
X144510952Y-92527380D01*
X144749047Y-91527380D01*
X145130000Y-92527380D02*
X145130000Y-91860714D01*
X145130000Y-91527380D02*
X145082380Y-91575000D01*
X145130000Y-91622619D01*
X145177619Y-91575000D01*
X145130000Y-91527380D01*
X145130000Y-91622619D01*
X145606190Y-91860714D02*
X145606190Y-92527380D01*
X145606190Y-91955952D02*
X145653809Y-91908333D01*
X145749047Y-91860714D01*
X145891904Y-91860714D01*
X145987142Y-91908333D01*
X146034761Y-92003571D01*
X146034761Y-92527380D01*
X146510952Y-92527380D02*
X146510952Y-91527380D01*
X146510952Y-91908333D02*
X146606190Y-91860714D01*
X146796666Y-91860714D01*
X146891904Y-91908333D01*
X146939523Y-91955952D01*
X146987142Y-92051190D01*
X146987142Y-92336904D01*
X146939523Y-92432142D01*
X146891904Y-92479761D01*
X146796666Y-92527380D01*
X146606190Y-92527380D01*
X146510952Y-92479761D01*
X147558571Y-92527380D02*
X147463333Y-92479761D01*
X147415714Y-92432142D01*
X147368095Y-92336904D01*
X147368095Y-92051190D01*
X147415714Y-91955952D01*
X147463333Y-91908333D01*
X147558571Y-91860714D01*
X147701428Y-91860714D01*
X147796666Y-91908333D01*
X147844285Y-91955952D01*
X147891904Y-92051190D01*
X147891904Y-92336904D01*
X147844285Y-92432142D01*
X147796666Y-92479761D01*
X147701428Y-92527380D01*
X147558571Y-92527380D01*
X148320476Y-91860714D02*
X148320476Y-92527380D01*
X148320476Y-91955952D02*
X148368095Y-91908333D01*
X148463333Y-91860714D01*
X148606190Y-91860714D01*
X148701428Y-91908333D01*
X148749047Y-92003571D01*
X148749047Y-92527380D01*
X149653809Y-92527380D02*
X149653809Y-91527380D01*
X149653809Y-92479761D02*
X149558571Y-92527380D01*
X149368095Y-92527380D01*
X149272857Y-92479761D01*
X149225238Y-92432142D01*
X149177619Y-92336904D01*
X149177619Y-92051190D01*
X149225238Y-91955952D01*
X149272857Y-91908333D01*
X149368095Y-91860714D01*
X149558571Y-91860714D01*
X149653809Y-91908333D01*
X149891904Y-92622619D02*
X150653809Y-92622619D01*
X150796666Y-91527380D02*
X151034761Y-92527380D01*
X151225238Y-91813095D01*
X151415714Y-92527380D01*
X151653809Y-91527380D01*
X151987142Y-91622619D02*
X152034761Y-91575000D01*
X152130000Y-91527380D01*
X152368095Y-91527380D01*
X152463333Y-91575000D01*
X152510952Y-91622619D01*
X152558571Y-91717857D01*
X152558571Y-91813095D01*
X152510952Y-91955952D01*
X151939523Y-92527380D01*
X152558571Y-92527380D01*
X153463333Y-91527380D02*
X152987142Y-91527380D01*
X152939523Y-92003571D01*
X152987142Y-91955952D01*
X153082380Y-91908333D01*
X153320476Y-91908333D01*
X153415714Y-91955952D01*
X153463333Y-92003571D01*
X153510952Y-92098809D01*
X153510952Y-92336904D01*
X153463333Y-92432142D01*
X153415714Y-92479761D01*
X153320476Y-92527380D01*
X153082380Y-92527380D01*
X152987142Y-92479761D01*
X152939523Y-92432142D01*
X154606190Y-92622619D02*
X154510952Y-92575000D01*
X154415714Y-92479761D01*
X154272857Y-92336904D01*
X154177619Y-92289285D01*
X154082380Y-92289285D01*
X154130000Y-92527380D02*
X154034761Y-92479761D01*
X153939523Y-92384523D01*
X153891904Y-92194047D01*
X153891904Y-91860714D01*
X153939523Y-91670238D01*
X154034761Y-91575000D01*
X154130000Y-91527380D01*
X154320476Y-91527380D01*
X154415714Y-91575000D01*
X154510952Y-91670238D01*
X154558571Y-91860714D01*
X154558571Y-92194047D01*
X154510952Y-92384523D01*
X154415714Y-92479761D01*
X154320476Y-92527380D01*
X154130000Y-92527380D01*
X154891904Y-91527380D02*
X155510952Y-91527380D01*
X155177619Y-91908333D01*
X155320476Y-91908333D01*
X155415714Y-91955952D01*
X155463333Y-92003571D01*
X155510952Y-92098809D01*
X155510952Y-92336904D01*
X155463333Y-92432142D01*
X155415714Y-92479761D01*
X155320476Y-92527380D01*
X155034761Y-92527380D01*
X154939523Y-92479761D01*
X154891904Y-92432142D01*
X155891904Y-91622619D02*
X155939523Y-91575000D01*
X156034761Y-91527380D01*
X156272857Y-91527380D01*
X156368095Y-91575000D01*
X156415714Y-91622619D01*
X156463333Y-91717857D01*
X156463333Y-91813095D01*
X156415714Y-91955952D01*
X155844285Y-92527380D01*
X156463333Y-92527380D01*
X157225238Y-92003571D02*
X157368095Y-92051190D01*
X157415714Y-92098809D01*
X157463333Y-92194047D01*
X157463333Y-92336904D01*
X157415714Y-92432142D01*
X157368095Y-92479761D01*
X157272857Y-92527380D01*
X156891904Y-92527380D01*
X156891904Y-91527380D01*
X157225238Y-91527380D01*
X157320476Y-91575000D01*
X157368095Y-91622619D01*
X157415714Y-91717857D01*
X157415714Y-91813095D01*
X157368095Y-91908333D01*
X157320476Y-91955952D01*
X157225238Y-92003571D01*
X156891904Y-92003571D01*
X157749047Y-91527380D02*
X158082380Y-92527380D01*
X158415714Y-91527380D01*
G04 #@! TO.C,C10*
X159857142Y-100857142D02*
X159809523Y-100904761D01*
X159666666Y-100952380D01*
X159571428Y-100952380D01*
X159428571Y-100904761D01*
X159333333Y-100809523D01*
X159285714Y-100714285D01*
X159238095Y-100523809D01*
X159238095Y-100380952D01*
X159285714Y-100190476D01*
X159333333Y-100095238D01*
X159428571Y-100000000D01*
X159571428Y-99952380D01*
X159666666Y-99952380D01*
X159809523Y-100000000D01*
X159857142Y-100047619D01*
X160809523Y-100952380D02*
X160238095Y-100952380D01*
X160523809Y-100952380D02*
X160523809Y-99952380D01*
X160428571Y-100095238D01*
X160333333Y-100190476D01*
X160238095Y-100238095D01*
X161428571Y-99952380D02*
X161523809Y-99952380D01*
X161619047Y-100000000D01*
X161666666Y-100047619D01*
X161714285Y-100142857D01*
X161761904Y-100333333D01*
X161761904Y-100571428D01*
X161714285Y-100761904D01*
X161666666Y-100857142D01*
X161619047Y-100904761D01*
X161523809Y-100952380D01*
X161428571Y-100952380D01*
X161333333Y-100904761D01*
X161285714Y-100857142D01*
X161238095Y-100761904D01*
X161190476Y-100571428D01*
X161190476Y-100333333D01*
X161238095Y-100142857D01*
X161285714Y-100047619D01*
X161333333Y-100000000D01*
X161428571Y-99952380D01*
X156000000Y-102357142D02*
X155952380Y-102404761D01*
X155809523Y-102452380D01*
X155714285Y-102452380D01*
X155571428Y-102404761D01*
X155476190Y-102309523D01*
X155428571Y-102214285D01*
X155380952Y-102023809D01*
X155380952Y-101880952D01*
X155428571Y-101690476D01*
X155476190Y-101595238D01*
X155571428Y-101500000D01*
X155714285Y-101452380D01*
X155809523Y-101452380D01*
X155952380Y-101500000D01*
X156000000Y-101547619D01*
X156428571Y-102452380D02*
X156428571Y-101452380D01*
X156809523Y-101452380D01*
X156904761Y-101500000D01*
X156952380Y-101547619D01*
X157000000Y-101642857D01*
X157000000Y-101785714D01*
X156952380Y-101880952D01*
X156904761Y-101928571D01*
X156809523Y-101976190D01*
X156428571Y-101976190D01*
X157952380Y-102452380D02*
X157380952Y-102452380D01*
X157666666Y-102452380D02*
X157666666Y-101452380D01*
X157571428Y-101595238D01*
X157476190Y-101690476D01*
X157380952Y-101738095D01*
X158571428Y-101452380D02*
X158666666Y-101452380D01*
X158761904Y-101500000D01*
X158809523Y-101547619D01*
X158857142Y-101642857D01*
X158904761Y-101833333D01*
X158904761Y-102071428D01*
X158857142Y-102261904D01*
X158809523Y-102357142D01*
X158761904Y-102404761D01*
X158666666Y-102452380D01*
X158571428Y-102452380D01*
X158476190Y-102404761D01*
X158428571Y-102357142D01*
X158380952Y-102261904D01*
X158333333Y-102071428D01*
X158333333Y-101833333D01*
X158380952Y-101642857D01*
X158428571Y-101547619D01*
X158476190Y-101500000D01*
X158571428Y-101452380D01*
X159523809Y-101452380D02*
X159619047Y-101452380D01*
X159714285Y-101500000D01*
X159761904Y-101547619D01*
X159809523Y-101642857D01*
X159857142Y-101833333D01*
X159857142Y-102071428D01*
X159809523Y-102261904D01*
X159761904Y-102357142D01*
X159714285Y-102404761D01*
X159619047Y-102452380D01*
X159523809Y-102452380D01*
X159428571Y-102404761D01*
X159380952Y-102357142D01*
X159333333Y-102261904D01*
X159285714Y-102071428D01*
X159285714Y-101833333D01*
X159333333Y-101642857D01*
X159380952Y-101547619D01*
X159428571Y-101500000D01*
X159523809Y-101452380D01*
X160714285Y-101785714D02*
X160714285Y-102452380D01*
X160285714Y-101785714D02*
X160285714Y-102309523D01*
X160333333Y-102404761D01*
X160428571Y-102452380D01*
X160571428Y-102452380D01*
X160666666Y-102404761D01*
X160714285Y-102357142D01*
X161523809Y-101928571D02*
X161190476Y-101928571D01*
X161190476Y-102452380D02*
X161190476Y-101452380D01*
X161666666Y-101452380D01*
G04 #@! TO.C,C8*
X165083333Y-69137142D02*
X165035714Y-69184761D01*
X164892857Y-69232380D01*
X164797619Y-69232380D01*
X164654761Y-69184761D01*
X164559523Y-69089523D01*
X164511904Y-68994285D01*
X164464285Y-68803809D01*
X164464285Y-68660952D01*
X164511904Y-68470476D01*
X164559523Y-68375238D01*
X164654761Y-68280000D01*
X164797619Y-68232380D01*
X164892857Y-68232380D01*
X165035714Y-68280000D01*
X165083333Y-68327619D01*
X165654761Y-68660952D02*
X165559523Y-68613333D01*
X165511904Y-68565714D01*
X165464285Y-68470476D01*
X165464285Y-68422857D01*
X165511904Y-68327619D01*
X165559523Y-68280000D01*
X165654761Y-68232380D01*
X165845238Y-68232380D01*
X165940476Y-68280000D01*
X165988095Y-68327619D01*
X166035714Y-68422857D01*
X166035714Y-68470476D01*
X165988095Y-68565714D01*
X165940476Y-68613333D01*
X165845238Y-68660952D01*
X165654761Y-68660952D01*
X165559523Y-68708571D01*
X165511904Y-68756190D01*
X165464285Y-68851428D01*
X165464285Y-69041904D01*
X165511904Y-69137142D01*
X165559523Y-69184761D01*
X165654761Y-69232380D01*
X165845238Y-69232380D01*
X165940476Y-69184761D01*
X165988095Y-69137142D01*
X166035714Y-69041904D01*
X166035714Y-68851428D01*
X165988095Y-68756190D01*
X165940476Y-68708571D01*
X165845238Y-68660952D01*
X168386666Y-73382142D02*
X168339047Y-73429761D01*
X168196190Y-73477380D01*
X168100952Y-73477380D01*
X167958095Y-73429761D01*
X167862857Y-73334523D01*
X167815238Y-73239285D01*
X167767619Y-73048809D01*
X167767619Y-72905952D01*
X167815238Y-72715476D01*
X167862857Y-72620238D01*
X167958095Y-72525000D01*
X168100952Y-72477380D01*
X168196190Y-72477380D01*
X168339047Y-72525000D01*
X168386666Y-72572619D01*
X169005714Y-72477380D02*
X169100952Y-72477380D01*
X169196190Y-72525000D01*
X169243809Y-72572619D01*
X169291428Y-72667857D01*
X169339047Y-72858333D01*
X169339047Y-73096428D01*
X169291428Y-73286904D01*
X169243809Y-73382142D01*
X169196190Y-73429761D01*
X169100952Y-73477380D01*
X169005714Y-73477380D01*
X168910476Y-73429761D01*
X168862857Y-73382142D01*
X168815238Y-73286904D01*
X168767619Y-73096428D01*
X168767619Y-72858333D01*
X168815238Y-72667857D01*
X168862857Y-72572619D01*
X168910476Y-72525000D01*
X169005714Y-72477380D01*
X169767619Y-73382142D02*
X169815238Y-73429761D01*
X169767619Y-73477380D01*
X169720000Y-73429761D01*
X169767619Y-73382142D01*
X169767619Y-73477380D01*
X170434285Y-72477380D02*
X170529523Y-72477380D01*
X170624761Y-72525000D01*
X170672380Y-72572619D01*
X170720000Y-72667857D01*
X170767619Y-72858333D01*
X170767619Y-73096428D01*
X170720000Y-73286904D01*
X170672380Y-73382142D01*
X170624761Y-73429761D01*
X170529523Y-73477380D01*
X170434285Y-73477380D01*
X170339047Y-73429761D01*
X170291428Y-73382142D01*
X170243809Y-73286904D01*
X170196190Y-73096428D01*
X170196190Y-72858333D01*
X170243809Y-72667857D01*
X170291428Y-72572619D01*
X170339047Y-72525000D01*
X170434285Y-72477380D01*
X171720000Y-73477380D02*
X171148571Y-73477380D01*
X171434285Y-73477380D02*
X171434285Y-72477380D01*
X171339047Y-72620238D01*
X171243809Y-72715476D01*
X171148571Y-72763095D01*
X172577142Y-72810714D02*
X172577142Y-73477380D01*
X172148571Y-72810714D02*
X172148571Y-73334523D01*
X172196190Y-73429761D01*
X172291428Y-73477380D01*
X172434285Y-73477380D01*
X172529523Y-73429761D01*
X172577142Y-73382142D01*
X173386666Y-72953571D02*
X173053333Y-72953571D01*
X173053333Y-73477380D02*
X173053333Y-72477380D01*
X173529523Y-72477380D01*
X174196190Y-73858333D02*
X174148571Y-73810714D01*
X174053333Y-73667857D01*
X174005714Y-73572619D01*
X173958095Y-73429761D01*
X173910476Y-73191666D01*
X173910476Y-73001190D01*
X173958095Y-72763095D01*
X174005714Y-72620238D01*
X174053333Y-72525000D01*
X174148571Y-72382142D01*
X174196190Y-72334523D01*
X175100952Y-73477380D02*
X174529523Y-73477380D01*
X174815238Y-73477380D02*
X174815238Y-72477380D01*
X174720000Y-72620238D01*
X174624761Y-72715476D01*
X174529523Y-72763095D01*
X175720000Y-72477380D02*
X175815238Y-72477380D01*
X175910476Y-72525000D01*
X175958095Y-72572619D01*
X176005714Y-72667857D01*
X176053333Y-72858333D01*
X176053333Y-73096428D01*
X176005714Y-73286904D01*
X175958095Y-73382142D01*
X175910476Y-73429761D01*
X175815238Y-73477380D01*
X175720000Y-73477380D01*
X175624761Y-73429761D01*
X175577142Y-73382142D01*
X175529523Y-73286904D01*
X175481904Y-73096428D01*
X175481904Y-72858333D01*
X175529523Y-72667857D01*
X175577142Y-72572619D01*
X175624761Y-72525000D01*
X175720000Y-72477380D01*
X176386666Y-72477380D02*
X177005714Y-72477380D01*
X176672380Y-72858333D01*
X176815238Y-72858333D01*
X176910476Y-72905952D01*
X176958095Y-72953571D01*
X177005714Y-73048809D01*
X177005714Y-73286904D01*
X176958095Y-73382142D01*
X176910476Y-73429761D01*
X176815238Y-73477380D01*
X176529523Y-73477380D01*
X176434285Y-73429761D01*
X176386666Y-73382142D01*
X177339047Y-73858333D02*
X177386666Y-73810714D01*
X177481904Y-73667857D01*
X177529523Y-73572619D01*
X177577142Y-73429761D01*
X177624761Y-73191666D01*
X177624761Y-73001190D01*
X177577142Y-72763095D01*
X177529523Y-72620238D01*
X177481904Y-72525000D01*
X177386666Y-72382142D01*
X177339047Y-72334523D01*
G04 #@! TO.C,U7*
X160738095Y-66452380D02*
X160738095Y-67261904D01*
X160785714Y-67357142D01*
X160833333Y-67404761D01*
X160928571Y-67452380D01*
X161119047Y-67452380D01*
X161214285Y-67404761D01*
X161261904Y-67357142D01*
X161309523Y-67261904D01*
X161309523Y-66452380D01*
X161690476Y-66452380D02*
X162357142Y-66452380D01*
X161928571Y-67452380D01*
X159333333Y-73952380D02*
X159333333Y-72952380D01*
X159904761Y-73952380D01*
X159904761Y-72952380D01*
X160380952Y-73428571D02*
X160714285Y-73428571D01*
X160857142Y-73952380D02*
X160380952Y-73952380D01*
X160380952Y-72952380D01*
X160857142Y-72952380D01*
X161761904Y-72952380D02*
X161285714Y-72952380D01*
X161238095Y-73428571D01*
X161285714Y-73380952D01*
X161380952Y-73333333D01*
X161619047Y-73333333D01*
X161714285Y-73380952D01*
X161761904Y-73428571D01*
X161809523Y-73523809D01*
X161809523Y-73761904D01*
X161761904Y-73857142D01*
X161714285Y-73904761D01*
X161619047Y-73952380D01*
X161380952Y-73952380D01*
X161285714Y-73904761D01*
X161238095Y-73857142D01*
X162714285Y-72952380D02*
X162238095Y-72952380D01*
X162190476Y-73428571D01*
X162238095Y-73380952D01*
X162333333Y-73333333D01*
X162571428Y-73333333D01*
X162666666Y-73380952D01*
X162714285Y-73428571D01*
X162761904Y-73523809D01*
X162761904Y-73761904D01*
X162714285Y-73857142D01*
X162666666Y-73904761D01*
X162571428Y-73952380D01*
X162333333Y-73952380D01*
X162238095Y-73904761D01*
X162190476Y-73857142D01*
X163666666Y-72952380D02*
X163190476Y-72952380D01*
X163142857Y-73428571D01*
X163190476Y-73380952D01*
X163285714Y-73333333D01*
X163523809Y-73333333D01*
X163619047Y-73380952D01*
X163666666Y-73428571D01*
X163714285Y-73523809D01*
X163714285Y-73761904D01*
X163666666Y-73857142D01*
X163619047Y-73904761D01*
X163523809Y-73952380D01*
X163285714Y-73952380D01*
X163190476Y-73904761D01*
X163142857Y-73857142D01*
G04 #@! TO.C,DS1*
X100785714Y-61452380D02*
X100785714Y-60452380D01*
X101023809Y-60452380D01*
X101166666Y-60500000D01*
X101261904Y-60595238D01*
X101309523Y-60690476D01*
X101357142Y-60880952D01*
X101357142Y-61023809D01*
X101309523Y-61214285D01*
X101261904Y-61309523D01*
X101166666Y-61404761D01*
X101023809Y-61452380D01*
X100785714Y-61452380D01*
X101738095Y-61404761D02*
X101880952Y-61452380D01*
X102119047Y-61452380D01*
X102214285Y-61404761D01*
X102261904Y-61357142D01*
X102309523Y-61261904D01*
X102309523Y-61166666D01*
X102261904Y-61071428D01*
X102214285Y-61023809D01*
X102119047Y-60976190D01*
X101928571Y-60928571D01*
X101833333Y-60880952D01*
X101785714Y-60833333D01*
X101738095Y-60738095D01*
X101738095Y-60642857D01*
X101785714Y-60547619D01*
X101833333Y-60500000D01*
X101928571Y-60452380D01*
X102166666Y-60452380D01*
X102309523Y-60500000D01*
X103261904Y-61452380D02*
X102690476Y-61452380D01*
X102976190Y-61452380D02*
X102976190Y-60452380D01*
X102880952Y-60595238D01*
X102785714Y-60690476D01*
X102690476Y-60738095D01*
X109738095Y-60452380D02*
X109976190Y-61452380D01*
X110166666Y-60738095D01*
X110357142Y-61452380D01*
X110595238Y-60452380D01*
X111547619Y-61357142D02*
X111500000Y-61404761D01*
X111357142Y-61452380D01*
X111261904Y-61452380D01*
X111119047Y-61404761D01*
X111023809Y-61309523D01*
X110976190Y-61214285D01*
X110928571Y-61023809D01*
X110928571Y-60880952D01*
X110976190Y-60690476D01*
X111023809Y-60595238D01*
X111119047Y-60500000D01*
X111261904Y-60452380D01*
X111357142Y-60452380D01*
X111500000Y-60500000D01*
X111547619Y-60547619D01*
X112500000Y-61452380D02*
X111928571Y-61452380D01*
X112214285Y-61452380D02*
X112214285Y-60452380D01*
X112119047Y-60595238D01*
X112023809Y-60690476D01*
X111928571Y-60738095D01*
X113357142Y-60452380D02*
X113166666Y-60452380D01*
X113071428Y-60500000D01*
X113023809Y-60547619D01*
X112928571Y-60690476D01*
X112880952Y-60880952D01*
X112880952Y-61261904D01*
X112928571Y-61357142D01*
X112976190Y-61404761D01*
X113071428Y-61452380D01*
X113261904Y-61452380D01*
X113357142Y-61404761D01*
X113404761Y-61357142D01*
X113452380Y-61261904D01*
X113452380Y-61023809D01*
X113404761Y-60928571D01*
X113357142Y-60880952D01*
X113261904Y-60833333D01*
X113071428Y-60833333D01*
X112976190Y-60880952D01*
X112928571Y-60928571D01*
X112880952Y-61023809D01*
X114071428Y-60452380D02*
X114166666Y-60452380D01*
X114261904Y-60500000D01*
X114309523Y-60547619D01*
X114357142Y-60642857D01*
X114404761Y-60833333D01*
X114404761Y-61071428D01*
X114357142Y-61261904D01*
X114309523Y-61357142D01*
X114261904Y-61404761D01*
X114166666Y-61452380D01*
X114071428Y-61452380D01*
X113976190Y-61404761D01*
X113928571Y-61357142D01*
X113880952Y-61261904D01*
X113833333Y-61071428D01*
X113833333Y-60833333D01*
X113880952Y-60642857D01*
X113928571Y-60547619D01*
X113976190Y-60500000D01*
X114071428Y-60452380D01*
X114785714Y-60547619D02*
X114833333Y-60500000D01*
X114928571Y-60452380D01*
X115166666Y-60452380D01*
X115261904Y-60500000D01*
X115309523Y-60547619D01*
X115357142Y-60642857D01*
X115357142Y-60738095D01*
X115309523Y-60880952D01*
X114738095Y-61452380D01*
X115357142Y-61452380D01*
X115738095Y-61166666D02*
X116214285Y-61166666D01*
X115642857Y-61452380D02*
X115976190Y-60452380D01*
X116309523Y-61452380D01*
G04 #@! TO.C,U4*
X125198095Y-116722380D02*
X125198095Y-117531904D01*
X125245714Y-117627142D01*
X125293333Y-117674761D01*
X125388571Y-117722380D01*
X125579047Y-117722380D01*
X125674285Y-117674761D01*
X125721904Y-117627142D01*
X125769523Y-117531904D01*
X125769523Y-116722380D01*
X126674285Y-117055714D02*
X126674285Y-117722380D01*
X126436190Y-116674761D02*
X126198095Y-117389047D01*
X126817142Y-117389047D01*
X122818751Y-119621729D02*
X122342560Y-119621729D01*
X122342560Y-118621729D01*
X123152084Y-119621729D02*
X123152084Y-118621729D01*
X123485417Y-119336015D01*
X123818751Y-118621729D01*
X123818751Y-119621729D01*
X124199703Y-118621729D02*
X124818751Y-118621729D01*
X124485417Y-119002682D01*
X124628274Y-119002682D01*
X124723512Y-119050301D01*
X124771132Y-119097920D01*
X124818751Y-119193158D01*
X124818751Y-119431253D01*
X124771132Y-119526491D01*
X124723512Y-119574110D01*
X124628274Y-119621729D01*
X124342560Y-119621729D01*
X124247322Y-119574110D01*
X124199703Y-119526491D01*
X125771132Y-119621729D02*
X125199703Y-119621729D01*
X125485417Y-119621729D02*
X125485417Y-118621729D01*
X125390179Y-118764587D01*
X125294941Y-118859825D01*
X125199703Y-118907444D01*
X126104465Y-118621729D02*
X126771132Y-118621729D01*
X126342560Y-119621729D01*
X126913989Y-119716968D02*
X127675893Y-119716968D01*
X127771132Y-118621729D02*
X128342560Y-118621729D01*
X128056846Y-119621729D02*
X128056846Y-118621729D01*
X128866370Y-118621729D02*
X129056846Y-118621729D01*
X129152084Y-118669349D01*
X129247322Y-118764587D01*
X129294941Y-118955063D01*
X129294941Y-119288396D01*
X129247322Y-119478872D01*
X129152084Y-119574110D01*
X129056846Y-119621729D01*
X128866370Y-119621729D01*
X128771132Y-119574110D01*
X128675893Y-119478872D01*
X128628274Y-119288396D01*
X128628274Y-118955063D01*
X128675893Y-118764587D01*
X128771132Y-118669349D01*
X128866370Y-118621729D01*
X129628274Y-118621729D02*
X130247322Y-118621729D01*
X129913989Y-119002682D01*
X130056846Y-119002682D01*
X130152084Y-119050301D01*
X130199703Y-119097920D01*
X130247322Y-119193158D01*
X130247322Y-119431253D01*
X130199703Y-119526491D01*
X130152084Y-119574110D01*
X130056846Y-119621729D01*
X129771132Y-119621729D01*
X129675893Y-119574110D01*
X129628274Y-119526491D01*
G04 #@! TO.C,BZ1*
X164219047Y-81843571D02*
X164361904Y-81891190D01*
X164409523Y-81938809D01*
X164457142Y-82034047D01*
X164457142Y-82176904D01*
X164409523Y-82272142D01*
X164361904Y-82319761D01*
X164266666Y-82367380D01*
X163885714Y-82367380D01*
X163885714Y-81367380D01*
X164219047Y-81367380D01*
X164314285Y-81415000D01*
X164361904Y-81462619D01*
X164409523Y-81557857D01*
X164409523Y-81653095D01*
X164361904Y-81748333D01*
X164314285Y-81795952D01*
X164219047Y-81843571D01*
X163885714Y-81843571D01*
X164790476Y-81367380D02*
X165457142Y-81367380D01*
X164790476Y-82367380D01*
X165457142Y-82367380D01*
X166361904Y-82367380D02*
X165790476Y-82367380D01*
X166076190Y-82367380D02*
X166076190Y-81367380D01*
X165980952Y-81510238D01*
X165885714Y-81605476D01*
X165790476Y-81653095D01*
X161901428Y-87558571D02*
X162044285Y-87606190D01*
X162091904Y-87653809D01*
X162139523Y-87749047D01*
X162139523Y-87891904D01*
X162091904Y-87987142D01*
X162044285Y-88034761D01*
X161949047Y-88082380D01*
X161568095Y-88082380D01*
X161568095Y-87082380D01*
X161901428Y-87082380D01*
X161996666Y-87130000D01*
X162044285Y-87177619D01*
X162091904Y-87272857D01*
X162091904Y-87368095D01*
X162044285Y-87463333D01*
X161996666Y-87510952D01*
X161901428Y-87558571D01*
X161568095Y-87558571D01*
X162996666Y-87415714D02*
X162996666Y-88082380D01*
X162568095Y-87415714D02*
X162568095Y-87939523D01*
X162615714Y-88034761D01*
X162710952Y-88082380D01*
X162853809Y-88082380D01*
X162949047Y-88034761D01*
X162996666Y-87987142D01*
X163377619Y-87415714D02*
X163901428Y-87415714D01*
X163377619Y-88082380D01*
X163901428Y-88082380D01*
X164187142Y-87415714D02*
X164710952Y-87415714D01*
X164187142Y-88082380D01*
X164710952Y-88082380D01*
X165472857Y-88034761D02*
X165377619Y-88082380D01*
X165187142Y-88082380D01*
X165091904Y-88034761D01*
X165044285Y-87939523D01*
X165044285Y-87558571D01*
X165091904Y-87463333D01*
X165187142Y-87415714D01*
X165377619Y-87415714D01*
X165472857Y-87463333D01*
X165520476Y-87558571D01*
X165520476Y-87653809D01*
X165044285Y-87749047D01*
X165949047Y-88082380D02*
X165949047Y-87415714D01*
X165949047Y-87606190D02*
X165996666Y-87510952D01*
X166044285Y-87463333D01*
X166139523Y-87415714D01*
X166234761Y-87415714D01*
X167341428Y-76935952D02*
X167341428Y-76174047D01*
X167722380Y-76555000D02*
X166960476Y-76555000D01*
G04 #@! TO.C,C2*
X122357142Y-91166666D02*
X122404761Y-91214285D01*
X122452380Y-91357142D01*
X122452380Y-91452380D01*
X122404761Y-91595238D01*
X122309523Y-91690476D01*
X122214285Y-91738095D01*
X122023809Y-91785714D01*
X121880952Y-91785714D01*
X121690476Y-91738095D01*
X121595238Y-91690476D01*
X121500000Y-91595238D01*
X121452380Y-91452380D01*
X121452380Y-91357142D01*
X121500000Y-91214285D01*
X121547619Y-91166666D01*
X121547619Y-90785714D02*
X121500000Y-90738095D01*
X121452380Y-90642857D01*
X121452380Y-90404761D01*
X121500000Y-90309523D01*
X121547619Y-90261904D01*
X121642857Y-90214285D01*
X121738095Y-90214285D01*
X121880952Y-90261904D01*
X122452380Y-90833333D01*
X122452380Y-90214285D01*
X120357142Y-90023809D02*
X120404761Y-90071428D01*
X120452380Y-90214285D01*
X120452380Y-90309523D01*
X120404761Y-90452380D01*
X120309523Y-90547619D01*
X120214285Y-90595238D01*
X120023809Y-90642857D01*
X119880952Y-90642857D01*
X119690476Y-90595238D01*
X119595238Y-90547619D01*
X119500000Y-90452380D01*
X119452380Y-90309523D01*
X119452380Y-90214285D01*
X119500000Y-90071428D01*
X119547619Y-90023809D01*
X119547619Y-89642857D02*
X119500000Y-89595238D01*
X119452380Y-89500000D01*
X119452380Y-89261904D01*
X119500000Y-89166666D01*
X119547619Y-89119047D01*
X119642857Y-89071428D01*
X119738095Y-89071428D01*
X119880952Y-89119047D01*
X120452380Y-89690476D01*
X120452380Y-89071428D01*
X119547619Y-88690476D02*
X119500000Y-88642857D01*
X119452380Y-88547619D01*
X119452380Y-88309523D01*
X119500000Y-88214285D01*
X119547619Y-88166666D01*
X119642857Y-88119047D01*
X119738095Y-88119047D01*
X119880952Y-88166666D01*
X120452380Y-88738095D01*
X120452380Y-88119047D01*
X119785714Y-87690476D02*
X120785714Y-87690476D01*
X119833333Y-87690476D02*
X119785714Y-87595238D01*
X119785714Y-87404761D01*
X119833333Y-87309523D01*
X119880952Y-87261904D01*
X119976190Y-87214285D01*
X120261904Y-87214285D01*
X120357142Y-87261904D01*
X120404761Y-87309523D01*
X120452380Y-87404761D01*
X120452380Y-87595238D01*
X120404761Y-87690476D01*
X119928571Y-86452380D02*
X119928571Y-86785714D01*
X120452380Y-86785714D02*
X119452380Y-86785714D01*
X119452380Y-86309523D01*
G04 #@! TO.C,C3*
X127357142Y-91166666D02*
X127404761Y-91214285D01*
X127452380Y-91357142D01*
X127452380Y-91452380D01*
X127404761Y-91595238D01*
X127309523Y-91690476D01*
X127214285Y-91738095D01*
X127023809Y-91785714D01*
X126880952Y-91785714D01*
X126690476Y-91738095D01*
X126595238Y-91690476D01*
X126500000Y-91595238D01*
X126452380Y-91452380D01*
X126452380Y-91357142D01*
X126500000Y-91214285D01*
X126547619Y-91166666D01*
X126452380Y-90833333D02*
X126452380Y-90214285D01*
X126833333Y-90547619D01*
X126833333Y-90404761D01*
X126880952Y-90309523D01*
X126928571Y-90261904D01*
X127023809Y-90214285D01*
X127261904Y-90214285D01*
X127357142Y-90261904D01*
X127404761Y-90309523D01*
X127452380Y-90404761D01*
X127452380Y-90690476D01*
X127404761Y-90785714D01*
X127357142Y-90833333D01*
X129357142Y-90023809D02*
X129404761Y-90071428D01*
X129452380Y-90214285D01*
X129452380Y-90309523D01*
X129404761Y-90452380D01*
X129309523Y-90547619D01*
X129214285Y-90595238D01*
X129023809Y-90642857D01*
X128880952Y-90642857D01*
X128690476Y-90595238D01*
X128595238Y-90547619D01*
X128500000Y-90452380D01*
X128452380Y-90309523D01*
X128452380Y-90214285D01*
X128500000Y-90071428D01*
X128547619Y-90023809D01*
X128547619Y-89642857D02*
X128500000Y-89595238D01*
X128452380Y-89500000D01*
X128452380Y-89261904D01*
X128500000Y-89166666D01*
X128547619Y-89119047D01*
X128642857Y-89071428D01*
X128738095Y-89071428D01*
X128880952Y-89119047D01*
X129452380Y-89690476D01*
X129452380Y-89071428D01*
X128547619Y-88690476D02*
X128500000Y-88642857D01*
X128452380Y-88547619D01*
X128452380Y-88309523D01*
X128500000Y-88214285D01*
X128547619Y-88166666D01*
X128642857Y-88119047D01*
X128738095Y-88119047D01*
X128880952Y-88166666D01*
X129452380Y-88738095D01*
X129452380Y-88119047D01*
X128785714Y-87690476D02*
X129785714Y-87690476D01*
X128833333Y-87690476D02*
X128785714Y-87595238D01*
X128785714Y-87404761D01*
X128833333Y-87309523D01*
X128880952Y-87261904D01*
X128976190Y-87214285D01*
X129261904Y-87214285D01*
X129357142Y-87261904D01*
X129404761Y-87309523D01*
X129452380Y-87404761D01*
X129452380Y-87595238D01*
X129404761Y-87690476D01*
X128928571Y-86452380D02*
X128928571Y-86785714D01*
X129452380Y-86785714D02*
X128452380Y-86785714D01*
X128452380Y-86309523D01*
G04 #@! TO.C,C4*
X119848333Y-110212142D02*
X119800714Y-110259761D01*
X119657857Y-110307380D01*
X119562619Y-110307380D01*
X119419761Y-110259761D01*
X119324523Y-110164523D01*
X119276904Y-110069285D01*
X119229285Y-109878809D01*
X119229285Y-109735952D01*
X119276904Y-109545476D01*
X119324523Y-109450238D01*
X119419761Y-109355000D01*
X119562619Y-109307380D01*
X119657857Y-109307380D01*
X119800714Y-109355000D01*
X119848333Y-109402619D01*
X120705476Y-109640714D02*
X120705476Y-110307380D01*
X120467380Y-109259761D02*
X120229285Y-109974047D01*
X120848333Y-109974047D01*
X120357142Y-115261904D02*
X120404761Y-115309523D01*
X120452380Y-115452380D01*
X120452380Y-115547619D01*
X120404761Y-115690476D01*
X120309523Y-115785714D01*
X120214285Y-115833333D01*
X120023809Y-115880952D01*
X119880952Y-115880952D01*
X119690476Y-115833333D01*
X119595238Y-115785714D01*
X119500000Y-115690476D01*
X119452380Y-115547619D01*
X119452380Y-115452380D01*
X119500000Y-115309523D01*
X119547619Y-115261904D01*
X119452380Y-114642857D02*
X119452380Y-114547619D01*
X119500000Y-114452380D01*
X119547619Y-114404761D01*
X119642857Y-114357142D01*
X119833333Y-114309523D01*
X120071428Y-114309523D01*
X120261904Y-114357142D01*
X120357142Y-114404761D01*
X120404761Y-114452380D01*
X120452380Y-114547619D01*
X120452380Y-114642857D01*
X120404761Y-114738095D01*
X120357142Y-114785714D01*
X120261904Y-114833333D01*
X120071428Y-114880952D01*
X119833333Y-114880952D01*
X119642857Y-114833333D01*
X119547619Y-114785714D01*
X119500000Y-114738095D01*
X119452380Y-114642857D01*
X120357142Y-113880952D02*
X120404761Y-113833333D01*
X120452380Y-113880952D01*
X120404761Y-113928571D01*
X120357142Y-113880952D01*
X120452380Y-113880952D01*
X120452380Y-112880952D02*
X120452380Y-113452380D01*
X120452380Y-113166666D02*
X119452380Y-113166666D01*
X119595238Y-113261904D01*
X119690476Y-113357142D01*
X119738095Y-113452380D01*
X119785714Y-112023809D02*
X120452380Y-112023809D01*
X119785714Y-112452380D02*
X120309523Y-112452380D01*
X120404761Y-112404761D01*
X120452380Y-112309523D01*
X120452380Y-112166666D01*
X120404761Y-112071428D01*
X120357142Y-112023809D01*
X119928571Y-111214285D02*
X119928571Y-111547619D01*
X120452380Y-111547619D02*
X119452380Y-111547619D01*
X119452380Y-111071428D01*
G04 #@! TO.C,C6*
X138517333Y-95861142D02*
X138469714Y-95908761D01*
X138326857Y-95956380D01*
X138231619Y-95956380D01*
X138088761Y-95908761D01*
X137993523Y-95813523D01*
X137945904Y-95718285D01*
X137898285Y-95527809D01*
X137898285Y-95384952D01*
X137945904Y-95194476D01*
X137993523Y-95099238D01*
X138088761Y-95004000D01*
X138231619Y-94956380D01*
X138326857Y-94956380D01*
X138469714Y-95004000D01*
X138517333Y-95051619D01*
X139374476Y-94956380D02*
X139184000Y-94956380D01*
X139088761Y-95004000D01*
X139041142Y-95051619D01*
X138945904Y-95194476D01*
X138898285Y-95384952D01*
X138898285Y-95765904D01*
X138945904Y-95861142D01*
X138993523Y-95908761D01*
X139088761Y-95956380D01*
X139279238Y-95956380D01*
X139374476Y-95908761D01*
X139422095Y-95861142D01*
X139469714Y-95765904D01*
X139469714Y-95527809D01*
X139422095Y-95432571D01*
X139374476Y-95384952D01*
X139279238Y-95337333D01*
X139088761Y-95337333D01*
X138993523Y-95384952D01*
X138945904Y-95432571D01*
X138898285Y-95527809D01*
X140478095Y-95861142D02*
X140430476Y-95908761D01*
X140287619Y-95956380D01*
X140192380Y-95956380D01*
X140049523Y-95908761D01*
X139954285Y-95813523D01*
X139906666Y-95718285D01*
X139859047Y-95527809D01*
X139859047Y-95384952D01*
X139906666Y-95194476D01*
X139954285Y-95099238D01*
X140049523Y-95004000D01*
X140192380Y-94956380D01*
X140287619Y-94956380D01*
X140430476Y-95004000D01*
X140478095Y-95051619D01*
X141097142Y-94956380D02*
X141192380Y-94956380D01*
X141287619Y-95004000D01*
X141335238Y-95051619D01*
X141382857Y-95146857D01*
X141430476Y-95337333D01*
X141430476Y-95575428D01*
X141382857Y-95765904D01*
X141335238Y-95861142D01*
X141287619Y-95908761D01*
X141192380Y-95956380D01*
X141097142Y-95956380D01*
X141001904Y-95908761D01*
X140954285Y-95861142D01*
X140906666Y-95765904D01*
X140859047Y-95575428D01*
X140859047Y-95337333D01*
X140906666Y-95146857D01*
X140954285Y-95051619D01*
X141001904Y-95004000D01*
X141097142Y-94956380D01*
X141859047Y-95861142D02*
X141906666Y-95908761D01*
X141859047Y-95956380D01*
X141811428Y-95908761D01*
X141859047Y-95861142D01*
X141859047Y-95956380D01*
X142859047Y-95956380D02*
X142287619Y-95956380D01*
X142573333Y-95956380D02*
X142573333Y-94956380D01*
X142478095Y-95099238D01*
X142382857Y-95194476D01*
X142287619Y-95242095D01*
X143716190Y-95289714D02*
X143716190Y-95956380D01*
X143287619Y-95289714D02*
X143287619Y-95813523D01*
X143335238Y-95908761D01*
X143430476Y-95956380D01*
X143573333Y-95956380D01*
X143668571Y-95908761D01*
X143716190Y-95861142D01*
X144525714Y-95432571D02*
X144192380Y-95432571D01*
X144192380Y-95956380D02*
X144192380Y-94956380D01*
X144668571Y-94956380D01*
G04 #@! TO.C,SW1*
X115666666Y-119074761D02*
X115809523Y-119122380D01*
X116047619Y-119122380D01*
X116142857Y-119074761D01*
X116190476Y-119027142D01*
X116238095Y-118931904D01*
X116238095Y-118836666D01*
X116190476Y-118741428D01*
X116142857Y-118693809D01*
X116047619Y-118646190D01*
X115857142Y-118598571D01*
X115761904Y-118550952D01*
X115714285Y-118503333D01*
X115666666Y-118408095D01*
X115666666Y-118312857D01*
X115714285Y-118217619D01*
X115761904Y-118170000D01*
X115857142Y-118122380D01*
X116095238Y-118122380D01*
X116238095Y-118170000D01*
X116571428Y-118122380D02*
X116809523Y-119122380D01*
X117000000Y-118408095D01*
X117190476Y-119122380D01*
X117428571Y-118122380D01*
X118333333Y-119122380D02*
X117761904Y-119122380D01*
X118047619Y-119122380D02*
X118047619Y-118122380D01*
X117952380Y-118265238D01*
X117857142Y-118360476D01*
X117761904Y-118408095D01*
G04 #@! TO.C,J2*
X93900666Y-78148380D02*
X93900666Y-78862666D01*
X93853047Y-79005523D01*
X93757809Y-79100761D01*
X93614952Y-79148380D01*
X93519714Y-79148380D01*
X94329238Y-78243619D02*
X94376857Y-78196000D01*
X94472095Y-78148380D01*
X94710190Y-78148380D01*
X94805428Y-78196000D01*
X94853047Y-78243619D01*
X94900666Y-78338857D01*
X94900666Y-78434095D01*
X94853047Y-78576952D01*
X94281619Y-79148380D01*
X94900666Y-79148380D01*
G04 #@! TO.C,U1*
X93686380Y-101574904D02*
X94495904Y-101574904D01*
X94591142Y-101527285D01*
X94638761Y-101479666D01*
X94686380Y-101384428D01*
X94686380Y-101193952D01*
X94638761Y-101098714D01*
X94591142Y-101051095D01*
X94495904Y-101003476D01*
X93686380Y-101003476D01*
X94686380Y-100003476D02*
X94686380Y-100574904D01*
X94686380Y-100289190D02*
X93686380Y-100289190D01*
X93829238Y-100384428D01*
X93924476Y-100479666D01*
X93972095Y-100574904D01*
X92186380Y-95932047D02*
X91186380Y-95932047D01*
X91186380Y-95693952D01*
X91234000Y-95551095D01*
X91329238Y-95455857D01*
X91424476Y-95408238D01*
X91614952Y-95360619D01*
X91757809Y-95360619D01*
X91948285Y-95408238D01*
X92043523Y-95455857D01*
X92138761Y-95551095D01*
X92186380Y-95693952D01*
X92186380Y-95932047D01*
X92186380Y-94932047D02*
X91186380Y-94932047D01*
X91662571Y-94932047D02*
X91662571Y-94360619D01*
X92186380Y-94360619D02*
X91186380Y-94360619D01*
X91186380Y-94027285D02*
X91186380Y-93455857D01*
X92186380Y-93741571D02*
X91186380Y-93741571D01*
X92186380Y-92598714D02*
X92186380Y-93170142D01*
X92186380Y-92884428D02*
X91186380Y-92884428D01*
X91329238Y-92979666D01*
X91424476Y-93074904D01*
X91472095Y-93170142D01*
X92186380Y-91646333D02*
X92186380Y-92217761D01*
X92186380Y-91932047D02*
X91186380Y-91932047D01*
X91329238Y-92027285D01*
X91424476Y-92122523D01*
X91472095Y-92217761D01*
G04 #@! TO.C,J3*
X182176666Y-67952380D02*
X182176666Y-68666666D01*
X182129047Y-68809523D01*
X182033809Y-68904761D01*
X181890952Y-68952380D01*
X181795714Y-68952380D01*
X182557619Y-67952380D02*
X183176666Y-67952380D01*
X182843333Y-68333333D01*
X182986190Y-68333333D01*
X183081428Y-68380952D01*
X183129047Y-68428571D01*
X183176666Y-68523809D01*
X183176666Y-68761904D01*
X183129047Y-68857142D01*
X183081428Y-68904761D01*
X182986190Y-68952380D01*
X182700476Y-68952380D01*
X182605238Y-68904761D01*
X182557619Y-68857142D01*
G04 #@! TO.C,J4*
X182176666Y-111982380D02*
X182176666Y-112696666D01*
X182129047Y-112839523D01*
X182033809Y-112934761D01*
X181890952Y-112982380D01*
X181795714Y-112982380D01*
X183081428Y-112315714D02*
X183081428Y-112982380D01*
X182843333Y-111934761D02*
X182605238Y-112649047D01*
X183224285Y-112649047D01*
G04 #@! TO.C,Y1*
X123904809Y-78393690D02*
X123904809Y-78869880D01*
X123571476Y-77869880D02*
X123904809Y-78393690D01*
X124238142Y-77869880D01*
X125095285Y-78869880D02*
X124523857Y-78869880D01*
X124809571Y-78869880D02*
X124809571Y-77869880D01*
X124714333Y-78012738D01*
X124619095Y-78107976D01*
X124523857Y-78155595D01*
X122595285Y-83857142D02*
X122547666Y-83904761D01*
X122404809Y-83952380D01*
X122309571Y-83952380D01*
X122166714Y-83904761D01*
X122071476Y-83809523D01*
X122023857Y-83714285D01*
X121976238Y-83523809D01*
X121976238Y-83380952D01*
X122023857Y-83190476D01*
X122071476Y-83095238D01*
X122166714Y-83000000D01*
X122309571Y-82952380D01*
X122404809Y-82952380D01*
X122547666Y-83000000D01*
X122595285Y-83047619D01*
X123023857Y-83952380D02*
X123023857Y-83285714D01*
X123023857Y-83476190D02*
X123071476Y-83380952D01*
X123119095Y-83333333D01*
X123214333Y-83285714D01*
X123309571Y-83285714D01*
X123547666Y-83285714D02*
X123785761Y-83952380D01*
X124023857Y-83285714D02*
X123785761Y-83952380D01*
X123690523Y-84190476D01*
X123642904Y-84238095D01*
X123547666Y-84285714D01*
X124357190Y-83904761D02*
X124452428Y-83952380D01*
X124642904Y-83952380D01*
X124738142Y-83904761D01*
X124785761Y-83809523D01*
X124785761Y-83761904D01*
X124738142Y-83666666D01*
X124642904Y-83619047D01*
X124500047Y-83619047D01*
X124404809Y-83571428D01*
X124357190Y-83476190D01*
X124357190Y-83428571D01*
X124404809Y-83333333D01*
X124500047Y-83285714D01*
X124642904Y-83285714D01*
X124738142Y-83333333D01*
X125071476Y-83285714D02*
X125452428Y-83285714D01*
X125214333Y-82952380D02*
X125214333Y-83809523D01*
X125261952Y-83904761D01*
X125357190Y-83952380D01*
X125452428Y-83952380D01*
X126214333Y-83952380D02*
X126214333Y-83428571D01*
X126166714Y-83333333D01*
X126071476Y-83285714D01*
X125881000Y-83285714D01*
X125785761Y-83333333D01*
X126214333Y-83904761D02*
X126119095Y-83952380D01*
X125881000Y-83952380D01*
X125785761Y-83904761D01*
X125738142Y-83809523D01*
X125738142Y-83714285D01*
X125785761Y-83619047D01*
X125881000Y-83571428D01*
X126119095Y-83571428D01*
X126214333Y-83523809D01*
X126833380Y-83952380D02*
X126738142Y-83904761D01*
X126690523Y-83809523D01*
X126690523Y-82952380D01*
G04 #@! TO.C,U6*
X173493095Y-95952380D02*
X173493095Y-96761904D01*
X173540714Y-96857142D01*
X173588333Y-96904761D01*
X173683571Y-96952380D01*
X173874047Y-96952380D01*
X173969285Y-96904761D01*
X174016904Y-96857142D01*
X174064523Y-96761904D01*
X174064523Y-95952380D01*
X174969285Y-95952380D02*
X174778809Y-95952380D01*
X174683571Y-96000000D01*
X174635952Y-96047619D01*
X174540714Y-96190476D01*
X174493095Y-96380952D01*
X174493095Y-96761904D01*
X174540714Y-96857142D01*
X174588333Y-96904761D01*
X174683571Y-96952380D01*
X174874047Y-96952380D01*
X174969285Y-96904761D01*
X175016904Y-96857142D01*
X175064523Y-96761904D01*
X175064523Y-96523809D01*
X175016904Y-96428571D01*
X174969285Y-96380952D01*
X174874047Y-96333333D01*
X174683571Y-96333333D01*
X174588333Y-96380952D01*
X174540714Y-96428571D01*
X174493095Y-96523809D01*
X170993095Y-84462380D02*
X171659761Y-84462380D01*
X171231190Y-85462380D01*
X172469285Y-84795714D02*
X172469285Y-85462380D01*
X172231190Y-84414761D02*
X171993095Y-85129047D01*
X172612142Y-85129047D01*
X172993095Y-85462380D02*
X172993095Y-84462380D01*
X172993095Y-84938571D02*
X173564523Y-84938571D01*
X173564523Y-85462380D02*
X173564523Y-84462380D01*
X174612142Y-85367142D02*
X174564523Y-85414761D01*
X174421666Y-85462380D01*
X174326428Y-85462380D01*
X174183571Y-85414761D01*
X174088333Y-85319523D01*
X174040714Y-85224285D01*
X173993095Y-85033809D01*
X173993095Y-84890952D01*
X174040714Y-84700476D01*
X174088333Y-84605238D01*
X174183571Y-84510000D01*
X174326428Y-84462380D01*
X174421666Y-84462380D01*
X174564523Y-84510000D01*
X174612142Y-84557619D01*
X175516904Y-84462380D02*
X175040714Y-84462380D01*
X174993095Y-84938571D01*
X175040714Y-84890952D01*
X175135952Y-84843333D01*
X175374047Y-84843333D01*
X175469285Y-84890952D01*
X175516904Y-84938571D01*
X175564523Y-85033809D01*
X175564523Y-85271904D01*
X175516904Y-85367142D01*
X175469285Y-85414761D01*
X175374047Y-85462380D01*
X175135952Y-85462380D01*
X175040714Y-85414761D01*
X174993095Y-85367142D01*
X176040714Y-85462380D02*
X176231190Y-85462380D01*
X176326428Y-85414761D01*
X176374047Y-85367142D01*
X176469285Y-85224285D01*
X176516904Y-85033809D01*
X176516904Y-84652857D01*
X176469285Y-84557619D01*
X176421666Y-84510000D01*
X176326428Y-84462380D01*
X176135952Y-84462380D01*
X176040714Y-84510000D01*
X175993095Y-84557619D01*
X175945476Y-84652857D01*
X175945476Y-84890952D01*
X175993095Y-84986190D01*
X176040714Y-85033809D01*
X176135952Y-85081428D01*
X176326428Y-85081428D01*
X176421666Y-85033809D01*
X176469285Y-84986190D01*
X176516904Y-84890952D01*
X177421666Y-84462380D02*
X176945476Y-84462380D01*
X176897857Y-84938571D01*
X176945476Y-84890952D01*
X177040714Y-84843333D01*
X177278809Y-84843333D01*
X177374047Y-84890952D01*
X177421666Y-84938571D01*
X177469285Y-85033809D01*
X177469285Y-85271904D01*
X177421666Y-85367142D01*
X177374047Y-85414761D01*
X177278809Y-85462380D01*
X177040714Y-85462380D01*
X176945476Y-85414761D01*
X176897857Y-85367142D01*
G04 #@! TO.C,U2*
X119452380Y-74449404D02*
X120261904Y-74449404D01*
X120357142Y-74401785D01*
X120404761Y-74354166D01*
X120452380Y-74258928D01*
X120452380Y-74068452D01*
X120404761Y-73973214D01*
X120357142Y-73925595D01*
X120261904Y-73877976D01*
X119452380Y-73877976D01*
X119547619Y-73449404D02*
X119500000Y-73401785D01*
X119452380Y-73306547D01*
X119452380Y-73068452D01*
X119500000Y-72973214D01*
X119547619Y-72925595D01*
X119642857Y-72877976D01*
X119738095Y-72877976D01*
X119880952Y-72925595D01*
X120452380Y-73497023D01*
X120452380Y-72877976D01*
X100666666Y-79877976D02*
X100666666Y-79401785D01*
X100952380Y-79973214D02*
X99952380Y-79639880D01*
X100952380Y-79306547D01*
X99952380Y-79116071D02*
X99952380Y-78544642D01*
X100952380Y-78830357D02*
X99952380Y-78830357D01*
X100952380Y-78211309D02*
X100285714Y-78211309D01*
X100380952Y-78211309D02*
X100333333Y-78163690D01*
X100285714Y-78068452D01*
X100285714Y-77925595D01*
X100333333Y-77830357D01*
X100428571Y-77782738D01*
X100952380Y-77782738D01*
X100428571Y-77782738D02*
X100333333Y-77735119D01*
X100285714Y-77639880D01*
X100285714Y-77497023D01*
X100333333Y-77401785D01*
X100428571Y-77354166D01*
X100952380Y-77354166D01*
X100904761Y-76497023D02*
X100952380Y-76592261D01*
X100952380Y-76782738D01*
X100904761Y-76877976D01*
X100809523Y-76925595D01*
X100428571Y-76925595D01*
X100333333Y-76877976D01*
X100285714Y-76782738D01*
X100285714Y-76592261D01*
X100333333Y-76497023D01*
X100428571Y-76449404D01*
X100523809Y-76449404D01*
X100619047Y-76925595D01*
X100285714Y-75592261D02*
X101095238Y-75592261D01*
X101190476Y-75639880D01*
X101238095Y-75687500D01*
X101285714Y-75782738D01*
X101285714Y-75925595D01*
X101238095Y-76020833D01*
X100904761Y-75592261D02*
X100952380Y-75687500D01*
X100952380Y-75877976D01*
X100904761Y-75973214D01*
X100857142Y-76020833D01*
X100761904Y-76068452D01*
X100476190Y-76068452D01*
X100380952Y-76020833D01*
X100333333Y-75973214D01*
X100285714Y-75877976D01*
X100285714Y-75687500D01*
X100333333Y-75592261D01*
X100952380Y-74687500D02*
X100428571Y-74687500D01*
X100333333Y-74735119D01*
X100285714Y-74830357D01*
X100285714Y-75020833D01*
X100333333Y-75116071D01*
X100904761Y-74687500D02*
X100952380Y-74782738D01*
X100952380Y-75020833D01*
X100904761Y-75116071D01*
X100809523Y-75163690D01*
X100714285Y-75163690D01*
X100619047Y-75116071D01*
X100571428Y-75020833D01*
X100571428Y-74782738D01*
X100523809Y-74687500D01*
X99952380Y-74306547D02*
X99952380Y-73687500D01*
X100333333Y-74020833D01*
X100333333Y-73877976D01*
X100380952Y-73782738D01*
X100428571Y-73735119D01*
X100523809Y-73687500D01*
X100761904Y-73687500D01*
X100857142Y-73735119D01*
X100904761Y-73782738D01*
X100952380Y-73877976D01*
X100952380Y-74163690D01*
X100904761Y-74258928D01*
X100857142Y-74306547D01*
X100047619Y-73306547D02*
X100000000Y-73258928D01*
X99952380Y-73163690D01*
X99952380Y-72925595D01*
X100000000Y-72830357D01*
X100047619Y-72782738D01*
X100142857Y-72735119D01*
X100238095Y-72735119D01*
X100380952Y-72782738D01*
X100952380Y-73354166D01*
X100952380Y-72735119D01*
X100380952Y-72163690D02*
X100333333Y-72258928D01*
X100285714Y-72306547D01*
X100190476Y-72354166D01*
X100142857Y-72354166D01*
X100047619Y-72306547D01*
X100000000Y-72258928D01*
X99952380Y-72163690D01*
X99952380Y-71973214D01*
X100000000Y-71877976D01*
X100047619Y-71830357D01*
X100142857Y-71782738D01*
X100190476Y-71782738D01*
X100285714Y-71830357D01*
X100333333Y-71877976D01*
X100380952Y-71973214D01*
X100380952Y-72163690D01*
X100428571Y-72258928D01*
X100476190Y-72306547D01*
X100571428Y-72354166D01*
X100761904Y-72354166D01*
X100857142Y-72306547D01*
X100904761Y-72258928D01*
X100952380Y-72163690D01*
X100952380Y-71973214D01*
X100904761Y-71877976D01*
X100857142Y-71830357D01*
X100761904Y-71782738D01*
X100571428Y-71782738D01*
X100476190Y-71830357D01*
X100428571Y-71877976D01*
X100380952Y-71973214D01*
X100952380Y-71354166D02*
X99952380Y-71354166D01*
X99952380Y-70973214D01*
X100000000Y-70877976D01*
X100047619Y-70830357D01*
X100142857Y-70782738D01*
X100285714Y-70782738D01*
X100380952Y-70830357D01*
X100428571Y-70877976D01*
X100476190Y-70973214D01*
X100476190Y-71354166D01*
X100571428Y-70354166D02*
X100571428Y-69592261D01*
X100952380Y-69116071D02*
X99952380Y-69116071D01*
X99952380Y-68735119D01*
X100000000Y-68639880D01*
X100047619Y-68592261D01*
X100142857Y-68544642D01*
X100285714Y-68544642D01*
X100380952Y-68592261D01*
X100428571Y-68639880D01*
X100476190Y-68735119D01*
X100476190Y-69116071D01*
X99952380Y-68116071D02*
X100761904Y-68116071D01*
X100857142Y-68068452D01*
X100904761Y-68020833D01*
X100952380Y-67925595D01*
X100952380Y-67735119D01*
X100904761Y-67639880D01*
X100857142Y-67592261D01*
X100761904Y-67544642D01*
X99952380Y-67544642D01*
G04 #@! TO.C,RV1*
X91904761Y-67952380D02*
X91571428Y-67476190D01*
X91333333Y-67952380D02*
X91333333Y-66952380D01*
X91714285Y-66952380D01*
X91809523Y-67000000D01*
X91857142Y-67047619D01*
X91904761Y-67142857D01*
X91904761Y-67285714D01*
X91857142Y-67380952D01*
X91809523Y-67428571D01*
X91714285Y-67476190D01*
X91333333Y-67476190D01*
X92190476Y-66952380D02*
X92523809Y-67952380D01*
X92857142Y-66952380D01*
X93714285Y-67952380D02*
X93142857Y-67952380D01*
X93428571Y-67952380D02*
X93428571Y-66952380D01*
X93333333Y-67095238D01*
X93238095Y-67190476D01*
X93142857Y-67238095D01*
X91452380Y-72142857D02*
X90976190Y-72476190D01*
X91452380Y-72714285D02*
X90452380Y-72714285D01*
X90452380Y-72333333D01*
X90500000Y-72238095D01*
X90547619Y-72190476D01*
X90642857Y-72142857D01*
X90785714Y-72142857D01*
X90880952Y-72190476D01*
X90928571Y-72238095D01*
X90976190Y-72333333D01*
X90976190Y-72714285D01*
X91452380Y-71190476D02*
X91452380Y-71761904D01*
X91452380Y-71476190D02*
X90452380Y-71476190D01*
X90595238Y-71571428D01*
X90690476Y-71666666D01*
X90738095Y-71761904D01*
X90452380Y-70571428D02*
X90452380Y-70476190D01*
X90500000Y-70380952D01*
X90547619Y-70333333D01*
X90642857Y-70285714D01*
X90833333Y-70238095D01*
X91071428Y-70238095D01*
X91261904Y-70285714D01*
X91357142Y-70333333D01*
X91404761Y-70380952D01*
X91452380Y-70476190D01*
X91452380Y-70571428D01*
X91404761Y-70666666D01*
X91357142Y-70714285D01*
X91261904Y-70761904D01*
X91071428Y-70809523D01*
X90833333Y-70809523D01*
X90642857Y-70761904D01*
X90547619Y-70714285D01*
X90500000Y-70666666D01*
X90452380Y-70571428D01*
X91452380Y-69809523D02*
X90452380Y-69809523D01*
X91452380Y-69238095D02*
X90880952Y-69666666D01*
X90452380Y-69238095D02*
X91023809Y-69809523D01*
G04 #@! TO.C,R12*
X143894142Y-107956380D02*
X143560809Y-107480190D01*
X143322714Y-107956380D02*
X143322714Y-106956380D01*
X143703666Y-106956380D01*
X143798904Y-107004000D01*
X143846523Y-107051619D01*
X143894142Y-107146857D01*
X143894142Y-107289714D01*
X143846523Y-107384952D01*
X143798904Y-107432571D01*
X143703666Y-107480190D01*
X143322714Y-107480190D01*
X144846523Y-107956380D02*
X144275095Y-107956380D01*
X144560809Y-107956380D02*
X144560809Y-106956380D01*
X144465571Y-107099238D01*
X144370333Y-107194476D01*
X144275095Y-107242095D01*
X145227476Y-107051619D02*
X145275095Y-107004000D01*
X145370333Y-106956380D01*
X145608428Y-106956380D01*
X145703666Y-107004000D01*
X145751285Y-107051619D01*
X145798904Y-107146857D01*
X145798904Y-107242095D01*
X145751285Y-107384952D01*
X145179857Y-107956380D01*
X145798904Y-107956380D01*
X144089523Y-104338380D02*
X143613333Y-104338380D01*
X143613333Y-103338380D01*
X144422857Y-104338380D02*
X144422857Y-103338380D01*
X144660952Y-103338380D01*
X144803809Y-103386000D01*
X144899047Y-103481238D01*
X144946666Y-103576476D01*
X144994285Y-103766952D01*
X144994285Y-103909809D01*
X144946666Y-104100285D01*
X144899047Y-104195523D01*
X144803809Y-104290761D01*
X144660952Y-104338380D01*
X144422857Y-104338380D01*
X145994285Y-104338380D02*
X145660952Y-103862190D01*
X145422857Y-104338380D02*
X145422857Y-103338380D01*
X145803809Y-103338380D01*
X145899047Y-103386000D01*
X145946666Y-103433619D01*
X145994285Y-103528857D01*
X145994285Y-103671714D01*
X145946666Y-103766952D01*
X145899047Y-103814571D01*
X145803809Y-103862190D01*
X145422857Y-103862190D01*
G04 #@! TO.C,J1*
X99666666Y-119452380D02*
X99666666Y-120166666D01*
X99619047Y-120309523D01*
X99523809Y-120404761D01*
X99380952Y-120452380D01*
X99285714Y-120452380D01*
X100666666Y-120452380D02*
X100095238Y-120452380D01*
X100380952Y-120452380D02*
X100380952Y-119452380D01*
X100285714Y-119595238D01*
X100190476Y-119690476D01*
X100095238Y-119738095D01*
G04 #@! TO.C,U3*
X105825880Y-110771404D02*
X106635404Y-110771404D01*
X106730642Y-110723785D01*
X106778261Y-110676166D01*
X106825880Y-110580928D01*
X106825880Y-110390452D01*
X106778261Y-110295214D01*
X106730642Y-110247595D01*
X106635404Y-110199976D01*
X105825880Y-110199976D01*
X105825880Y-109819023D02*
X105825880Y-109199976D01*
X106206833Y-109533309D01*
X106206833Y-109390452D01*
X106254452Y-109295214D01*
X106302071Y-109247595D01*
X106397309Y-109199976D01*
X106635404Y-109199976D01*
X106730642Y-109247595D01*
X106778261Y-109295214D01*
X106825880Y-109390452D01*
X106825880Y-109676166D01*
X106778261Y-109771404D01*
X106730642Y-109819023D01*
X108778571Y-112961904D02*
X108778571Y-112628571D01*
X109302380Y-112485714D02*
X109302380Y-112961904D01*
X108302380Y-112961904D01*
X108302380Y-112485714D01*
X109254761Y-112104761D02*
X109302380Y-111961904D01*
X109302380Y-111723809D01*
X109254761Y-111628571D01*
X109207142Y-111580952D01*
X109111904Y-111533333D01*
X109016666Y-111533333D01*
X108921428Y-111580952D01*
X108873809Y-111628571D01*
X108826190Y-111723809D01*
X108778571Y-111914285D01*
X108730952Y-112009523D01*
X108683333Y-112057142D01*
X108588095Y-112104761D01*
X108492857Y-112104761D01*
X108397619Y-112057142D01*
X108350000Y-112009523D01*
X108302380Y-111914285D01*
X108302380Y-111676190D01*
X108350000Y-111533333D01*
X109302380Y-111104761D02*
X108302380Y-111104761D01*
X108302380Y-110723809D01*
X108350000Y-110628571D01*
X108397619Y-110580952D01*
X108492857Y-110533333D01*
X108635714Y-110533333D01*
X108730952Y-110580952D01*
X108778571Y-110628571D01*
X108826190Y-110723809D01*
X108826190Y-111104761D01*
X108921428Y-110104761D02*
X108921428Y-109342857D01*
X108302380Y-108676190D02*
X108302380Y-108580952D01*
X108350000Y-108485714D01*
X108397619Y-108438095D01*
X108492857Y-108390476D01*
X108683333Y-108342857D01*
X108921428Y-108342857D01*
X109111904Y-108390476D01*
X109207142Y-108438095D01*
X109254761Y-108485714D01*
X109302380Y-108580952D01*
X109302380Y-108676190D01*
X109254761Y-108771428D01*
X109207142Y-108819047D01*
X109111904Y-108866666D01*
X108921428Y-108914285D01*
X108683333Y-108914285D01*
X108492857Y-108866666D01*
X108397619Y-108819047D01*
X108350000Y-108771428D01*
X108302380Y-108676190D01*
X109302380Y-107390476D02*
X109302380Y-107961904D01*
X109302380Y-107676190D02*
X108302380Y-107676190D01*
X108445238Y-107771428D01*
X108540476Y-107866666D01*
X108588095Y-107961904D01*
G04 #@! TD*
M02*
