%FSLAX45Y45*%
G04 Gerber Fmt 4.5, Leading zero omitted, Abs format (unit mm)*
G04 Created by KiCad (PCBNEW 5.0.2-bee76a0~70~ubuntu16.04.1) date Tue 14 Jan 2020 09:55:21 AM MST*
%MOMM*%
%LPD*%
G01*
G04 APERTURE LIST*
%ADD10C,0.150000*%
%ADD11C,0.200000*%
%ADD12C,0.300000*%
G04 APERTURE END LIST*
D10*
X17600000Y-6000000D02*
G75*
G02X18600000Y-7000000I0J-1000000D01*
G01*
X10000000Y-6000000D02*
X17600000Y-6000000D01*
X9000000Y-7000000D02*
G75*
G02X10000000Y-6000000I1000000J0D01*
G01*
X18600000Y-12500000D02*
X18600000Y-7000000D01*
X18600000Y-12500000D02*
G75*
G02X17800000Y-13300000I-800000J0D01*
G01*
X10250000Y-13300000D02*
X17800000Y-13300000D01*
X10250000Y-13300000D02*
G75*
G02X9000000Y-12044990I0J1250010D01*
G01*
X9000000Y-7000000D02*
X9000000Y-12100000D01*
D11*
X9490000Y-6290000D02*
X9810000Y-6610000D01*
X9810000Y-6290000D02*
X9490000Y-6610000D01*
X18040000Y-12440000D02*
X18360000Y-12760000D01*
X18360000Y-12440000D02*
X18040000Y-12760000D01*
X17840000Y-6340000D02*
X18160000Y-6660000D01*
X18160000Y-6340000D02*
X17840000Y-6660000D01*
X10790000Y-12040000D02*
X11110000Y-12360000D01*
X11110000Y-12040000D02*
X10790000Y-12360000D01*
D12*
X9278918Y-13773214D02*
X9278918Y-13473214D01*
X9350347Y-13473214D01*
X9393204Y-13487500D01*
X9421776Y-13516071D01*
X9436061Y-13544643D01*
X9450347Y-13601786D01*
X9450347Y-13644643D01*
X9436061Y-13701786D01*
X9421776Y-13730357D01*
X9393204Y-13758929D01*
X9350347Y-13773214D01*
X9278918Y-13773214D01*
X9578918Y-13773214D02*
X9578918Y-13573214D01*
X9578918Y-13630357D02*
X9593204Y-13601786D01*
X9607490Y-13587500D01*
X9636061Y-13573214D01*
X9664633Y-13573214D01*
X9764633Y-13773214D02*
X9764633Y-13573214D01*
X9764633Y-13473214D02*
X9750347Y-13487500D01*
X9764633Y-13501786D01*
X9778918Y-13487500D01*
X9764633Y-13473214D01*
X9764633Y-13501786D01*
X9950347Y-13773214D02*
X9921776Y-13758929D01*
X9907490Y-13730357D01*
X9907490Y-13473214D01*
X10107490Y-13773214D02*
X10078918Y-13758929D01*
X10064633Y-13730357D01*
X10064633Y-13473214D01*
X10450347Y-13773214D02*
X10450347Y-13473214D01*
X10550347Y-13687500D01*
X10650347Y-13473214D01*
X10650347Y-13773214D01*
X10921776Y-13773214D02*
X10921776Y-13616071D01*
X10907490Y-13587500D01*
X10878918Y-13573214D01*
X10821776Y-13573214D01*
X10793204Y-13587500D01*
X10921776Y-13758929D02*
X10893204Y-13773214D01*
X10821776Y-13773214D01*
X10793204Y-13758929D01*
X10778918Y-13730357D01*
X10778918Y-13701786D01*
X10793204Y-13673214D01*
X10821776Y-13658929D01*
X10893204Y-13658929D01*
X10921776Y-13644643D01*
X11064633Y-13573214D02*
X11064633Y-13873214D01*
X11064633Y-13587500D02*
X11093204Y-13573214D01*
X11150347Y-13573214D01*
X11178918Y-13587500D01*
X11193204Y-13601786D01*
X11207490Y-13630357D01*
X11207490Y-13716071D01*
X11193204Y-13744643D01*
X11178918Y-13758929D01*
X11150347Y-13773214D01*
X11093204Y-13773214D01*
X11064633Y-13758929D01*
X11336061Y-13744643D02*
X11350347Y-13758929D01*
X11336061Y-13773214D01*
X11321776Y-13758929D01*
X11336061Y-13744643D01*
X11336061Y-13773214D01*
X11336061Y-13587500D02*
X11350347Y-13601786D01*
X11336061Y-13616071D01*
X11321776Y-13601786D01*
X11336061Y-13587500D01*
X11336061Y-13616071D01*
X8672490Y-14107500D02*
X8992490Y-14427500D01*
X8992490Y-14107500D02*
X8672490Y-14427500D01*
X9250347Y-14103214D02*
X9436061Y-14103214D01*
X9336061Y-14217500D01*
X9378918Y-14217500D01*
X9407490Y-14231786D01*
X9421776Y-14246071D01*
X9436061Y-14274643D01*
X9436061Y-14346071D01*
X9421776Y-14374643D01*
X9407490Y-14388929D01*
X9378918Y-14403214D01*
X9293204Y-14403214D01*
X9264633Y-14388929D01*
X9250347Y-14374643D01*
X9564633Y-14374643D02*
X9578918Y-14388929D01*
X9564633Y-14403214D01*
X9550347Y-14388929D01*
X9564633Y-14374643D01*
X9564633Y-14403214D01*
X9693204Y-14131786D02*
X9707490Y-14117500D01*
X9736061Y-14103214D01*
X9807490Y-14103214D01*
X9836061Y-14117500D01*
X9850347Y-14131786D01*
X9864633Y-14160357D01*
X9864633Y-14188929D01*
X9850347Y-14231786D01*
X9678918Y-14403214D01*
X9864633Y-14403214D01*
X10050347Y-14103214D02*
X10078918Y-14103214D01*
X10107490Y-14117500D01*
X10121776Y-14131786D01*
X10136061Y-14160357D01*
X10150347Y-14217500D01*
X10150347Y-14288929D01*
X10136061Y-14346071D01*
X10121776Y-14374643D01*
X10107490Y-14388929D01*
X10078918Y-14403214D01*
X10050347Y-14403214D01*
X10021776Y-14388929D01*
X10007490Y-14374643D01*
X9993204Y-14346071D01*
X9978918Y-14288929D01*
X9978918Y-14217500D01*
X9993204Y-14160357D01*
X10007490Y-14131786D01*
X10021776Y-14117500D01*
X10050347Y-14103214D01*
X10278918Y-14403214D02*
X10278918Y-14203214D01*
X10278918Y-14231786D02*
X10293204Y-14217500D01*
X10321776Y-14203214D01*
X10364633Y-14203214D01*
X10393204Y-14217500D01*
X10407490Y-14246071D01*
X10407490Y-14403214D01*
X10407490Y-14246071D02*
X10421776Y-14217500D01*
X10450347Y-14203214D01*
X10493204Y-14203214D01*
X10521776Y-14217500D01*
X10536061Y-14246071D01*
X10536061Y-14403214D01*
X10678918Y-14403214D02*
X10678918Y-14203214D01*
X10678918Y-14231786D02*
X10693204Y-14217500D01*
X10721776Y-14203214D01*
X10764633Y-14203214D01*
X10793204Y-14217500D01*
X10807490Y-14246071D01*
X10807490Y-14403214D01*
X10807490Y-14246071D02*
X10821776Y-14217500D01*
X10850347Y-14203214D01*
X10893204Y-14203214D01*
X10921776Y-14217500D01*
X10936061Y-14246071D01*
X10936061Y-14403214D01*
X11521776Y-14088929D02*
X11264633Y-14474643D01*
X11907490Y-14103214D02*
X11936061Y-14103214D01*
X11964633Y-14117500D01*
X11978918Y-14131786D01*
X11993204Y-14160357D01*
X12007490Y-14217500D01*
X12007490Y-14288929D01*
X11993204Y-14346071D01*
X11978918Y-14374643D01*
X11964633Y-14388929D01*
X11936061Y-14403214D01*
X11907490Y-14403214D01*
X11878918Y-14388929D01*
X11864633Y-14374643D01*
X11850347Y-14346071D01*
X11836061Y-14288929D01*
X11836061Y-14217500D01*
X11850347Y-14160357D01*
X11864633Y-14131786D01*
X11878918Y-14117500D01*
X11907490Y-14103214D01*
X12136061Y-14374643D02*
X12150347Y-14388929D01*
X12136061Y-14403214D01*
X12121776Y-14388929D01*
X12136061Y-14374643D01*
X12136061Y-14403214D01*
X12436061Y-14403214D02*
X12264633Y-14403214D01*
X12350347Y-14403214D02*
X12350347Y-14103214D01*
X12321776Y-14146071D01*
X12293204Y-14174643D01*
X12264633Y-14188929D01*
X12550347Y-14131786D02*
X12564633Y-14117500D01*
X12593204Y-14103214D01*
X12664633Y-14103214D01*
X12693204Y-14117500D01*
X12707490Y-14131786D01*
X12721776Y-14160357D01*
X12721776Y-14188929D01*
X12707490Y-14231786D01*
X12536061Y-14403214D01*
X12721776Y-14403214D01*
X12978918Y-14103214D02*
X12921776Y-14103214D01*
X12893204Y-14117500D01*
X12878918Y-14131786D01*
X12850347Y-14174643D01*
X12836061Y-14231786D01*
X12836061Y-14346071D01*
X12850347Y-14374643D01*
X12864633Y-14388929D01*
X12893204Y-14403214D01*
X12950347Y-14403214D01*
X12978918Y-14388929D01*
X12993204Y-14374643D01*
X13007490Y-14346071D01*
X13007490Y-14274643D01*
X12993204Y-14246071D01*
X12978918Y-14231786D01*
X12950347Y-14217500D01*
X12893204Y-14217500D01*
X12864633Y-14231786D01*
X12850347Y-14246071D01*
X12836061Y-14274643D01*
X13121776Y-14103214D02*
X13121776Y-14160357D01*
X13236061Y-14103214D02*
X13236061Y-14160357D01*
X13678918Y-14517500D02*
X13664633Y-14503214D01*
X13636061Y-14460357D01*
X13621776Y-14431786D01*
X13607490Y-14388929D01*
X13593204Y-14317500D01*
X13593204Y-14260357D01*
X13607490Y-14188929D01*
X13621776Y-14146071D01*
X13636061Y-14117500D01*
X13664633Y-14074643D01*
X13678918Y-14060357D01*
X13921776Y-14203214D02*
X13921776Y-14403214D01*
X13850347Y-14088929D02*
X13778918Y-14303214D01*
X13964633Y-14303214D01*
X14307490Y-14403214D02*
X14307490Y-14103214D01*
X14436061Y-14403214D02*
X14436061Y-14246071D01*
X14421776Y-14217500D01*
X14393204Y-14203214D01*
X14350347Y-14203214D01*
X14321776Y-14217500D01*
X14307490Y-14231786D01*
X14621776Y-14403214D02*
X14593204Y-14388929D01*
X14578918Y-14374643D01*
X14564633Y-14346071D01*
X14564633Y-14260357D01*
X14578918Y-14231786D01*
X14593204Y-14217500D01*
X14621776Y-14203214D01*
X14664633Y-14203214D01*
X14693204Y-14217500D01*
X14707490Y-14231786D01*
X14721776Y-14260357D01*
X14721776Y-14346071D01*
X14707490Y-14374643D01*
X14693204Y-14388929D01*
X14664633Y-14403214D01*
X14621776Y-14403214D01*
X14893204Y-14403214D02*
X14864633Y-14388929D01*
X14850347Y-14360357D01*
X14850347Y-14103214D01*
X15121776Y-14388929D02*
X15093204Y-14403214D01*
X15036061Y-14403214D01*
X15007490Y-14388929D01*
X14993204Y-14360357D01*
X14993204Y-14246071D01*
X15007490Y-14217500D01*
X15036061Y-14203214D01*
X15093204Y-14203214D01*
X15121776Y-14217500D01*
X15136061Y-14246071D01*
X15136061Y-14274643D01*
X14993204Y-14303214D01*
X15250347Y-14388929D02*
X15278918Y-14403214D01*
X15336061Y-14403214D01*
X15364633Y-14388929D01*
X15378918Y-14360357D01*
X15378918Y-14346071D01*
X15364633Y-14317500D01*
X15336061Y-14303214D01*
X15293204Y-14303214D01*
X15264633Y-14288929D01*
X15250347Y-14260357D01*
X15250347Y-14246071D01*
X15264633Y-14217500D01*
X15293204Y-14203214D01*
X15336061Y-14203214D01*
X15364633Y-14217500D01*
X15478918Y-14517500D02*
X15493204Y-14503214D01*
X15521776Y-14460357D01*
X15536061Y-14431786D01*
X15550347Y-14388929D01*
X15564633Y-14317500D01*
X15564633Y-14260357D01*
X15550347Y-14188929D01*
X15536061Y-14146071D01*
X15521776Y-14117500D01*
X15493204Y-14074643D01*
X15478918Y-14060357D01*
X16021776Y-14517500D02*
X16007490Y-14503214D01*
X15978918Y-14460357D01*
X15964633Y-14431786D01*
X15950347Y-14388929D01*
X15936061Y-14317500D01*
X15936061Y-14260357D01*
X15950347Y-14188929D01*
X15964633Y-14146071D01*
X15978918Y-14117500D01*
X16007490Y-14074643D01*
X16021776Y-14060357D01*
X16136061Y-14203214D02*
X16136061Y-14403214D01*
X16136061Y-14231786D02*
X16150347Y-14217500D01*
X16178918Y-14203214D01*
X16221776Y-14203214D01*
X16250347Y-14217500D01*
X16264633Y-14246071D01*
X16264633Y-14403214D01*
X16450347Y-14403214D02*
X16421776Y-14388929D01*
X16407490Y-14374643D01*
X16393204Y-14346071D01*
X16393204Y-14260357D01*
X16407490Y-14231786D01*
X16421776Y-14217500D01*
X16450347Y-14203214D01*
X16493204Y-14203214D01*
X16521776Y-14217500D01*
X16536061Y-14231786D01*
X16550347Y-14260357D01*
X16550347Y-14346071D01*
X16536061Y-14374643D01*
X16521776Y-14388929D01*
X16493204Y-14403214D01*
X16450347Y-14403214D01*
X16636061Y-14203214D02*
X16750347Y-14203214D01*
X16678918Y-14103214D02*
X16678918Y-14360357D01*
X16693204Y-14388929D01*
X16721776Y-14403214D01*
X16750347Y-14403214D01*
X17078918Y-14203214D02*
X17078918Y-14503214D01*
X17078918Y-14217500D02*
X17107490Y-14203214D01*
X17164633Y-14203214D01*
X17193204Y-14217500D01*
X17207490Y-14231786D01*
X17221776Y-14260357D01*
X17221776Y-14346071D01*
X17207490Y-14374643D01*
X17193204Y-14388929D01*
X17164633Y-14403214D01*
X17107490Y-14403214D01*
X17078918Y-14388929D01*
X17393204Y-14403214D02*
X17364633Y-14388929D01*
X17350347Y-14360357D01*
X17350347Y-14103214D01*
X17636061Y-14403214D02*
X17636061Y-14246071D01*
X17621776Y-14217500D01*
X17593204Y-14203214D01*
X17536061Y-14203214D01*
X17507490Y-14217500D01*
X17636061Y-14388929D02*
X17607490Y-14403214D01*
X17536061Y-14403214D01*
X17507490Y-14388929D01*
X17493204Y-14360357D01*
X17493204Y-14331786D01*
X17507490Y-14303214D01*
X17536061Y-14288929D01*
X17607490Y-14288929D01*
X17636061Y-14274643D01*
X17736061Y-14203214D02*
X17850347Y-14203214D01*
X17778918Y-14103214D02*
X17778918Y-14360357D01*
X17793204Y-14388929D01*
X17821776Y-14403214D01*
X17850347Y-14403214D01*
X18064633Y-14388929D02*
X18036061Y-14403214D01*
X17978918Y-14403214D01*
X17950347Y-14388929D01*
X17936061Y-14360357D01*
X17936061Y-14246071D01*
X17950347Y-14217500D01*
X17978918Y-14203214D01*
X18036061Y-14203214D01*
X18064633Y-14217500D01*
X18078918Y-14246071D01*
X18078918Y-14274643D01*
X17936061Y-14303214D01*
X18336061Y-14403214D02*
X18336061Y-14103214D01*
X18336061Y-14388929D02*
X18307490Y-14403214D01*
X18250347Y-14403214D01*
X18221776Y-14388929D01*
X18207490Y-14374643D01*
X18193204Y-14346071D01*
X18193204Y-14260357D01*
X18207490Y-14231786D01*
X18221776Y-14217500D01*
X18250347Y-14203214D01*
X18307490Y-14203214D01*
X18336061Y-14217500D01*
X18450347Y-14517500D02*
X18464633Y-14503214D01*
X18493204Y-14460357D01*
X18507490Y-14431786D01*
X18521776Y-14388929D01*
X18536061Y-14317500D01*
X18536061Y-14260357D01*
X18521776Y-14188929D01*
X18507490Y-14146071D01*
X18493204Y-14117500D01*
X18464633Y-14074643D01*
X18450347Y-14060357D01*
M02*
