%FSLAX45Y45*%
G04 Gerber Fmt 4.5, Leading zero omitted, Abs format (unit mm)*
G04 Created by KiCad (PCBNEW 5.0.2-bee76a0~70~ubuntu16.04.1) date Tue 14 Jan 2020 09:55:21 AM MST*
%MOMM*%
%LPD*%
G01*
G04 APERTURE LIST*
%ADD10C,0.150000*%
%ADD11C,0.200000*%
%ADD12C,0.300000*%
G04 APERTURE END LIST*
D10*
X17600000Y-6000000D02*
G75*
G02X18600000Y-7000000I0J-1000000D01*
G01*
X10000000Y-6000000D02*
X17600000Y-6000000D01*
X9000000Y-7000000D02*
G75*
G02X10000000Y-6000000I1000000J0D01*
G01*
X18600000Y-12500000D02*
X18600000Y-7000000D01*
X18600000Y-12500000D02*
G75*
G02X17800000Y-13300000I-800000J0D01*
G01*
X10250000Y-13300000D02*
X17800000Y-13300000D01*
X10250000Y-13300000D02*
G75*
G02X9000000Y-12044990I0J1250010D01*
G01*
X9000000Y-7000000D02*
X9000000Y-12100000D01*
D11*
X9912500Y-6364500D02*
X9952500Y-6404500D01*
X9952500Y-6364500D02*
X9912500Y-6404500D01*
X10028485Y-7281515D02*
X10068485Y-7321515D01*
X10068485Y-7281515D02*
X10028485Y-7321515D01*
X10080000Y-9630000D02*
X10120000Y-9670000D01*
X10120000Y-9630000D02*
X10080000Y-9670000D01*
X10131015Y-7178985D02*
X10171015Y-7218985D01*
X10171015Y-7178985D02*
X10131015Y-7218985D01*
X10530000Y-9730000D02*
X10570000Y-9770000D01*
X10570000Y-9730000D02*
X10530000Y-9770000D01*
X11246000Y-6237500D02*
X11286000Y-6277500D01*
X11286000Y-6237500D02*
X11246000Y-6277500D01*
X11500000Y-9095000D02*
X11540000Y-9135000D01*
X11540000Y-9095000D02*
X11500000Y-9135000D01*
X11500000Y-9857000D02*
X11540000Y-9897000D01*
X11540000Y-9857000D02*
X11500000Y-9897000D01*
X12530000Y-7130000D02*
X12570000Y-7170000D01*
X12570000Y-7130000D02*
X12530000Y-7170000D01*
X12780000Y-10480000D02*
X12820000Y-10520000D01*
X12820000Y-10480000D02*
X12780000Y-10520000D01*
X12785000Y-9500500D02*
X12825000Y-9540500D01*
X12825000Y-9500500D02*
X12785000Y-9540500D01*
X13080000Y-10280000D02*
X13120000Y-10320000D01*
X13120000Y-10280000D02*
X13080000Y-10320000D01*
X13151000Y-7253500D02*
X13191000Y-7293500D01*
X13191000Y-7253500D02*
X13151000Y-7293500D01*
X13369896Y-9869896D02*
X13409896Y-9909896D01*
X13409896Y-9869896D02*
X13369896Y-9909896D01*
X13530000Y-10030000D02*
X13570000Y-10070000D01*
X13570000Y-10030000D02*
X13530000Y-10070000D01*
X13976500Y-7126500D02*
X14016500Y-7166500D01*
X14016500Y-7126500D02*
X13976500Y-7166500D01*
X14040000Y-7253500D02*
X14080000Y-7293500D01*
X14080000Y-7253500D02*
X14040000Y-7293500D01*
X14167000Y-7380500D02*
X14207000Y-7420500D01*
X14207000Y-7380500D02*
X14167000Y-7420500D01*
X14280000Y-7030000D02*
X14320000Y-7070000D01*
X14320000Y-7030000D02*
X14280000Y-7070000D01*
X14802000Y-8904500D02*
X14842000Y-8944500D01*
X14842000Y-8904500D02*
X14802000Y-8944500D01*
X14830000Y-9880000D02*
X14870000Y-9920000D01*
X14870000Y-9880000D02*
X14830000Y-9920000D01*
X15310000Y-7126500D02*
X15350000Y-7166500D01*
X15350000Y-7126500D02*
X15310000Y-7166500D01*
X15627500Y-8151500D02*
X15667500Y-8191500D01*
X15667500Y-8151500D02*
X15627500Y-8191500D01*
X15729800Y-8079000D02*
X15769800Y-8119000D01*
X15769800Y-8079000D02*
X15729800Y-8119000D01*
X16744000Y-8362000D02*
X16784000Y-8402000D01*
X16784000Y-8362000D02*
X16744000Y-8402000D01*
X17280000Y-9080000D02*
X17320000Y-9120000D01*
X17320000Y-9080000D02*
X17280000Y-9120000D01*
X16761989Y-10740600D02*
G75*
G03X16761989Y-10740600I-35000J0D01*
G01*
X16761989Y-10943800D02*
G75*
G03X16761989Y-10943800I-35000J0D01*
G01*
X11635000Y-8074600D02*
G75*
G03X11635000Y-8074600I-35000J0D01*
G01*
X11635000Y-8277800D02*
G75*
G03X11635000Y-8277800I-35000J0D01*
G01*
X14399200Y-10566400D02*
G75*
G03X14399200Y-10566400I-35000J0D01*
G01*
X14589200Y-10566400D02*
G75*
G03X14589200Y-10566400I-35000J0D01*
G01*
X12231587Y-10521065D02*
G75*
G03X12231587Y-10521065I-35000J0D01*
G01*
X12434787Y-10521065D02*
G75*
G03X12434787Y-10521065I-35000J0D01*
G01*
X15322200Y-6575000D02*
G75*
G03X15322200Y-6575000I-35000J0D01*
G01*
X15525400Y-6575000D02*
G75*
G03X15525400Y-6575000I-35000J0D01*
G01*
X16900000Y-7043000D02*
X16900000Y-7123000D01*
X16860000Y-7083000D02*
X16940000Y-7083000D01*
X17150000Y-7043000D02*
X17150000Y-7123000D01*
X17110000Y-7083000D02*
X17190000Y-7083000D01*
X12193100Y-8602750D02*
X12193100Y-8682750D01*
X12153100Y-8642750D02*
X12233100Y-8642750D01*
X12193100Y-8852750D02*
X12193100Y-8932750D01*
X12153100Y-8892750D02*
X12233100Y-8892750D01*
X9424500Y-7043000D02*
X9424500Y-7123000D01*
X9384500Y-7083000D02*
X9464500Y-7083000D01*
X9424500Y-7297000D02*
X9424500Y-7377000D01*
X9384500Y-7337000D02*
X9464500Y-7337000D01*
X9424500Y-7551000D02*
X9424500Y-7631000D01*
X9384500Y-7591000D02*
X9464500Y-7591000D01*
X16350000Y-10210000D02*
X16350000Y-10290000D01*
X16310000Y-10250000D02*
X16390000Y-10250000D01*
X16600000Y-10210000D02*
X16600000Y-10290000D01*
X16560000Y-10250000D02*
X16640000Y-10250000D01*
X12193100Y-8154250D02*
X12193100Y-8234250D01*
X12153100Y-8194250D02*
X12233100Y-8194250D01*
X12683100Y-8154250D02*
X12683100Y-8234250D01*
X12643100Y-8194250D02*
X12723100Y-8194250D01*
X17044500Y-8694000D02*
X17044500Y-8774000D01*
X17004500Y-8734000D02*
X17084500Y-8734000D01*
X17044500Y-8948000D02*
X17044500Y-9028000D01*
X17004500Y-8988000D02*
X17084500Y-8988000D01*
X17044500Y-9202000D02*
X17044500Y-9282000D01*
X17004500Y-9242000D02*
X17084500Y-9242000D01*
X17044500Y-9456000D02*
X17044500Y-9536000D01*
X17004500Y-9496000D02*
X17084500Y-9496000D01*
X17044500Y-9710000D02*
X17044500Y-9790000D01*
X17004500Y-9750000D02*
X17084500Y-9750000D01*
X17044500Y-9964000D02*
X17044500Y-10044000D01*
X17004500Y-10004000D02*
X17084500Y-10004000D01*
X17044500Y-10218000D02*
X17044500Y-10298000D01*
X17004500Y-10258000D02*
X17084500Y-10258000D01*
X17044500Y-10472000D02*
X17044500Y-10552000D01*
X17004500Y-10512000D02*
X17084500Y-10512000D01*
X17806500Y-8694000D02*
X17806500Y-8774000D01*
X17766500Y-8734000D02*
X17846500Y-8734000D01*
X17806500Y-8948000D02*
X17806500Y-9028000D01*
X17766500Y-8988000D02*
X17846500Y-8988000D01*
X17806500Y-9202000D02*
X17806500Y-9282000D01*
X17766500Y-9242000D02*
X17846500Y-9242000D01*
X17806500Y-9456000D02*
X17806500Y-9536000D01*
X17766500Y-9496000D02*
X17846500Y-9496000D01*
X17806500Y-9710000D02*
X17806500Y-9790000D01*
X17766500Y-9750000D02*
X17846500Y-9750000D01*
X17806500Y-9964000D02*
X17806500Y-10044000D01*
X17766500Y-10004000D02*
X17846500Y-10004000D01*
X17806500Y-10218000D02*
X17806500Y-10298000D01*
X17766500Y-10258000D02*
X17846500Y-10258000D01*
X17806500Y-10472000D02*
X17806500Y-10552000D01*
X17766500Y-10512000D02*
X17846500Y-10512000D01*
X14020800Y-9713600D02*
X14020800Y-9793600D01*
X13980800Y-9753600D02*
X14060800Y-9753600D01*
X14270800Y-9713600D02*
X14270800Y-9793600D01*
X14230800Y-9753600D02*
X14310800Y-9753600D01*
X10351600Y-6947750D02*
X10351600Y-7027750D01*
X10311600Y-6987750D02*
X10391600Y-6987750D01*
X10351600Y-7709750D02*
X10351600Y-7789750D01*
X10311600Y-7749750D02*
X10391600Y-7749750D01*
X10605600Y-6947750D02*
X10605600Y-7027750D01*
X10565600Y-6987750D02*
X10645600Y-6987750D01*
X10605600Y-7709750D02*
X10605600Y-7789750D01*
X10565600Y-7749750D02*
X10645600Y-7749750D01*
X10859600Y-6947750D02*
X10859600Y-7027750D01*
X10819600Y-6987750D02*
X10899600Y-6987750D01*
X10859600Y-7709750D02*
X10859600Y-7789750D01*
X10819600Y-7749750D02*
X10899600Y-7749750D01*
X11113600Y-6947750D02*
X11113600Y-7027750D01*
X11073600Y-6987750D02*
X11153600Y-6987750D01*
X11113600Y-7709750D02*
X11113600Y-7789750D01*
X11073600Y-7749750D02*
X11153600Y-7749750D01*
X11367600Y-6947750D02*
X11367600Y-7027750D01*
X11327600Y-6987750D02*
X11407600Y-6987750D01*
X11367600Y-7709750D02*
X11367600Y-7789750D01*
X11327600Y-7749750D02*
X11407600Y-7749750D01*
X11621600Y-6947750D02*
X11621600Y-7027750D01*
X11581600Y-6987750D02*
X11661600Y-6987750D01*
X11621600Y-7709750D02*
X11621600Y-7789750D01*
X11581600Y-7749750D02*
X11661600Y-7749750D01*
X12164887Y-10925565D02*
X12164887Y-11005565D01*
X12124887Y-10965565D02*
X12204887Y-10965565D01*
X12414887Y-10925565D02*
X12414887Y-11005565D01*
X12374887Y-10965565D02*
X12454887Y-10965565D01*
X11875600Y-6947750D02*
X11875600Y-7027750D01*
X11835600Y-6987750D02*
X11915600Y-6987750D01*
X11875600Y-7709750D02*
X11875600Y-7789750D01*
X11835600Y-7749750D02*
X11915600Y-7749750D01*
X12129600Y-6947750D02*
X12129600Y-7027750D01*
X12089600Y-6987750D02*
X12169600Y-6987750D01*
X12129600Y-7709750D02*
X12129600Y-7789750D01*
X12089600Y-7749750D02*
X12169600Y-7749750D01*
X12383600Y-6947750D02*
X12383600Y-7027750D01*
X12343600Y-6987750D02*
X12423600Y-6987750D01*
X12383600Y-7709750D02*
X12383600Y-7789750D01*
X12343600Y-7749750D02*
X12423600Y-7749750D01*
X12637600Y-6947750D02*
X12637600Y-7027750D01*
X12597600Y-6987750D02*
X12677600Y-6987750D01*
X12637600Y-7709750D02*
X12637600Y-7789750D01*
X12597600Y-7749750D02*
X12677600Y-7749750D01*
X12891600Y-6947750D02*
X12891600Y-7027750D01*
X12851600Y-6987750D02*
X12931600Y-6987750D01*
X12891600Y-7709750D02*
X12891600Y-7789750D01*
X12851600Y-7749750D02*
X12931600Y-7749750D01*
X13145600Y-6947750D02*
X13145600Y-7027750D01*
X13105600Y-6987750D02*
X13185600Y-6987750D01*
X13145600Y-7709750D02*
X13145600Y-7789750D01*
X13105600Y-7749750D02*
X13185600Y-7749750D01*
X13399600Y-6947750D02*
X13399600Y-7027750D01*
X13359600Y-6987750D02*
X13439600Y-6987750D01*
X13399600Y-7709750D02*
X13399600Y-7789750D01*
X13359600Y-7749750D02*
X13439600Y-7749750D01*
X13653600Y-6947750D02*
X13653600Y-7027750D01*
X13613600Y-6987750D02*
X13693600Y-6987750D01*
X13653600Y-7709750D02*
X13653600Y-7789750D01*
X13613600Y-7749750D02*
X13693600Y-7749750D01*
X15782500Y-6281000D02*
X15782500Y-6361000D01*
X15742500Y-6321000D02*
X15822500Y-6321000D01*
X15782500Y-6535000D02*
X15782500Y-6615000D01*
X15742500Y-6575000D02*
X15822500Y-6575000D01*
X15782500Y-6789000D02*
X15782500Y-6869000D01*
X15742500Y-6829000D02*
X15822500Y-6829000D01*
X15782500Y-7043000D02*
X15782500Y-7123000D01*
X15742500Y-7083000D02*
X15822500Y-7083000D01*
X16544500Y-6281000D02*
X16544500Y-6361000D01*
X16504500Y-6321000D02*
X16584500Y-6321000D01*
X16544500Y-6535000D02*
X16544500Y-6615000D01*
X16504500Y-6575000D02*
X16584500Y-6575000D01*
X16544500Y-6789000D02*
X16544500Y-6869000D01*
X16504500Y-6829000D02*
X16584500Y-6829000D01*
X16544500Y-7043000D02*
X16544500Y-7123000D01*
X16504500Y-7083000D02*
X16584500Y-7083000D01*
X12701100Y-8602750D02*
X12701100Y-8682750D01*
X12661100Y-8642750D02*
X12741100Y-8642750D01*
X12701100Y-8852750D02*
X12701100Y-8932750D01*
X12661100Y-8892750D02*
X12741100Y-8892750D01*
X13384052Y-11304052D02*
X13384052Y-11243948D01*
X13323948Y-11243948D01*
X13323948Y-11304052D01*
X13384052Y-11304052D01*
X13384052Y-13082052D02*
X13384052Y-13021948D01*
X13323948Y-13021948D01*
X13323948Y-13082052D01*
X13384052Y-13082052D01*
X17448052Y-11304052D02*
X17448052Y-11243948D01*
X17387948Y-11243948D01*
X17387948Y-11304052D01*
X17448052Y-11304052D01*
X17448052Y-13082052D02*
X17448052Y-13021948D01*
X17387948Y-13021948D01*
X17387948Y-13082052D01*
X17448052Y-13082052D01*
X14077338Y-8653691D02*
X14122338Y-8608691D01*
X14077338Y-8563691D01*
X14032338Y-8608691D01*
X14077338Y-8653691D01*
X14077338Y-9415691D02*
X14122338Y-9370691D01*
X14077338Y-9325691D01*
X14032338Y-9370691D01*
X14077338Y-9415691D01*
X14504500Y-11011000D02*
X14549500Y-10966000D01*
X14504500Y-10921000D01*
X14459500Y-10966000D01*
X14504500Y-11011000D01*
X15266500Y-11011000D02*
X15311500Y-10966000D01*
X15266500Y-10921000D01*
X15221500Y-10966000D01*
X15266500Y-11011000D01*
X14839532Y-7829073D02*
X14884532Y-7784073D01*
X14839532Y-7739073D01*
X14794532Y-7784073D01*
X14839532Y-7829073D01*
X14839532Y-8591073D02*
X14884532Y-8546073D01*
X14839532Y-8501073D01*
X14794532Y-8546073D01*
X14839532Y-8591073D01*
X12922887Y-10248565D02*
X12967887Y-10203565D01*
X12922887Y-10158565D01*
X12877887Y-10203565D01*
X12922887Y-10248565D01*
X12922887Y-11010565D02*
X12967887Y-10965565D01*
X12922887Y-10920565D01*
X12877887Y-10965565D01*
X12922887Y-11010565D01*
X16800000Y-6620000D02*
X16845000Y-6575000D01*
X16800000Y-6530000D01*
X16755000Y-6575000D01*
X16800000Y-6620000D01*
X17562000Y-6620000D02*
X17607000Y-6575000D01*
X17562000Y-6530000D01*
X17517000Y-6575000D01*
X17562000Y-6620000D01*
X16050000Y-9795000D02*
X16095000Y-9750000D01*
X16050000Y-9705000D01*
X16005000Y-9750000D01*
X16050000Y-9795000D01*
X11742555Y-9668000D02*
X11787555Y-9623000D01*
X11742555Y-9578000D01*
X11697555Y-9623000D01*
X11742555Y-9668000D01*
X12504555Y-9668000D02*
X12549555Y-9623000D01*
X12504555Y-9578000D01*
X12459555Y-9623000D01*
X12504555Y-9668000D01*
X15348736Y-7824053D02*
X15393736Y-7779053D01*
X15348736Y-7734053D01*
X15303736Y-7779053D01*
X15348736Y-7824053D01*
X11278463Y-9183116D02*
X11323463Y-9138116D01*
X11278463Y-9093116D01*
X11233463Y-9138116D01*
X11278463Y-9183116D01*
X11278463Y-9945116D02*
X11323463Y-9900116D01*
X11278463Y-9855116D01*
X11233463Y-9900116D01*
X11278463Y-9945116D01*
X16812000Y-9795000D02*
X16857000Y-9750000D01*
X16812000Y-9705000D01*
X16767000Y-9750000D01*
X16812000Y-9795000D01*
X15093532Y-7829073D02*
X15138532Y-7784073D01*
X15093532Y-7739073D01*
X15048532Y-7784073D01*
X15093532Y-7829073D01*
X15093532Y-8591073D02*
X15138532Y-8546073D01*
X15093532Y-8501073D01*
X15048532Y-8546073D01*
X15093532Y-8591073D01*
X15348736Y-8586054D02*
X15393736Y-8541054D01*
X15348736Y-8496054D01*
X15303736Y-8541054D01*
X15348736Y-8586054D01*
X16800000Y-6366000D02*
X16845000Y-6321000D01*
X16800000Y-6276000D01*
X16755000Y-6321000D01*
X16800000Y-6366000D01*
X17562000Y-6366000D02*
X17607000Y-6321000D01*
X17562000Y-6276000D01*
X17517000Y-6321000D01*
X17562000Y-6366000D01*
X11742555Y-9947337D02*
X11787555Y-9902337D01*
X11742555Y-9857337D01*
X11697555Y-9902337D01*
X11742555Y-9947337D01*
X12504555Y-9947337D02*
X12549555Y-9902337D01*
X12504555Y-9857337D01*
X12459555Y-9902337D01*
X12504555Y-9947337D01*
X11005650Y-9185400D02*
X11050650Y-9140400D01*
X11005650Y-9095400D01*
X10960650Y-9140400D01*
X11005650Y-9185400D01*
X11005650Y-9947400D02*
X11050650Y-9902400D01*
X11005650Y-9857400D01*
X10960650Y-9902400D01*
X11005650Y-9947400D01*
X12668887Y-10248565D02*
X12713887Y-10203565D01*
X12668887Y-10158565D01*
X12623887Y-10203565D01*
X12668887Y-10248565D01*
X12668887Y-11010565D02*
X12713887Y-10965565D01*
X12668887Y-10920565D01*
X12623887Y-10965565D01*
X12668887Y-11010565D01*
X10351600Y-8048750D02*
X10396600Y-8003750D01*
X10351600Y-7958750D01*
X10306600Y-8003750D01*
X10351600Y-8048750D01*
X15602736Y-7824053D02*
X15647736Y-7779053D01*
X15602736Y-7734053D01*
X15557736Y-7779053D01*
X15602736Y-7824053D01*
X15602736Y-8586054D02*
X15647736Y-8541054D01*
X15602736Y-8496054D01*
X15557736Y-8541054D01*
X15602736Y-8586054D01*
X13823338Y-8653691D02*
X13868338Y-8608691D01*
X13823338Y-8563691D01*
X13778338Y-8608691D01*
X13823338Y-8653691D01*
X13823338Y-9415691D02*
X13868338Y-9370691D01*
X13823338Y-9325691D01*
X13778338Y-9370691D01*
X13823338Y-9415691D01*
X10351600Y-8810750D02*
X10396600Y-8765750D01*
X10351600Y-8720750D01*
X10306600Y-8765750D01*
X10351600Y-8810750D01*
X11650000Y-12050000D02*
X11750000Y-12150000D01*
X11750000Y-12050000D02*
X11650000Y-12150000D01*
X11750000Y-12100000D02*
G75*
G03X11750000Y-12100000I-50000J0D01*
G01*
X11650000Y-12304000D02*
X11750000Y-12404000D01*
X11750000Y-12304000D02*
X11650000Y-12404000D01*
X11750000Y-12354000D02*
G75*
G03X11750000Y-12354000I-50000J0D01*
G01*
X11650000Y-12558000D02*
X11750000Y-12658000D01*
X11750000Y-12558000D02*
X11650000Y-12658000D01*
X11750000Y-12608000D02*
G75*
G03X11750000Y-12608000I-50000J0D01*
G01*
X9650000Y-12275000D02*
X9750000Y-12375000D01*
X9750000Y-12275000D02*
X9650000Y-12375000D01*
X9750000Y-12325000D02*
G75*
G03X9750000Y-12325000I-50000J0D01*
G01*
X9660000Y-12225000D02*
X9660000Y-12425000D01*
X9740000Y-12225000D02*
X9740000Y-12425000D01*
X9660000Y-12425000D02*
G75*
G03X9740000Y-12425000I40000J0D01*
G01*
X9740000Y-12225000D02*
G75*
G03X9660000Y-12225000I-40000J0D01*
G01*
X9950000Y-12745000D02*
X10050000Y-12845000D01*
X10050000Y-12745000D02*
X9950000Y-12845000D01*
X10050000Y-12795000D02*
G75*
G03X10050000Y-12795000I-50000J0D01*
G01*
X9900000Y-12835000D02*
X10100000Y-12835000D01*
X9900000Y-12755000D02*
X10100000Y-12755000D01*
X10100000Y-12835000D02*
G75*
G03X10100000Y-12755000I0J40000D01*
G01*
X9900000Y-12755000D02*
G75*
G03X9900000Y-12835000I0J-40000D01*
G01*
X10250000Y-12275000D02*
X10350000Y-12375000D01*
X10350000Y-12275000D02*
X10250000Y-12375000D01*
X10350000Y-12325000D02*
G75*
G03X10350000Y-12325000I-50000J0D01*
G01*
X10260000Y-12225000D02*
X10260000Y-12425000D01*
X10340000Y-12225000D02*
X10340000Y-12425000D01*
X10260000Y-12425000D02*
G75*
G03X10340000Y-12425000I40000J0D01*
G01*
X10340000Y-12225000D02*
G75*
G03X10260000Y-12225000I-40000J0D01*
G01*
X18201000Y-7033000D02*
X18301000Y-7133000D01*
X18301000Y-7033000D02*
X18201000Y-7133000D01*
X18301000Y-7083000D02*
G75*
G03X18301000Y-7083000I-50000J0D01*
G01*
X18201000Y-7287000D02*
X18301000Y-7387000D01*
X18301000Y-7287000D02*
X18201000Y-7387000D01*
X18301000Y-7337000D02*
G75*
G03X18301000Y-7337000I-50000J0D01*
G01*
X18201000Y-7541000D02*
X18301000Y-7641000D01*
X18301000Y-7541000D02*
X18201000Y-7641000D01*
X18301000Y-7591000D02*
G75*
G03X18301000Y-7591000I-50000J0D01*
G01*
X18201000Y-7795000D02*
X18301000Y-7895000D01*
X18301000Y-7795000D02*
X18201000Y-7895000D01*
X18301000Y-7845000D02*
G75*
G03X18301000Y-7845000I-50000J0D01*
G01*
X18201000Y-8049000D02*
X18301000Y-8149000D01*
X18301000Y-8049000D02*
X18201000Y-8149000D01*
X18301000Y-8099000D02*
G75*
G03X18301000Y-8099000I-50000J0D01*
G01*
X16423000Y-7606500D02*
X16523000Y-7706500D01*
X16523000Y-7606500D02*
X16423000Y-7706500D01*
X16523000Y-7656500D02*
G75*
G03X16523000Y-7656500I-50000J0D01*
G01*
X16423000Y-8366500D02*
X16523000Y-8466500D01*
X16523000Y-8366500D02*
X16423000Y-8466500D01*
X16523000Y-8416500D02*
G75*
G03X16523000Y-8416500I-50000J0D01*
G01*
X11447505Y-10581364D02*
X11547505Y-10681364D01*
X11547505Y-10581364D02*
X11447505Y-10681364D01*
X11547505Y-10631364D02*
G75*
G03X11547505Y-10631364I-50000J0D01*
G01*
X11447505Y-10835364D02*
X11547505Y-10935364D01*
X11547505Y-10835364D02*
X11447505Y-10935364D01*
X11547505Y-10885364D02*
G75*
G03X11547505Y-10885364I-50000J0D01*
G01*
X11447505Y-11089364D02*
X11547505Y-11189364D01*
X11547505Y-11089364D02*
X11447505Y-11189364D01*
X11547505Y-11139364D02*
G75*
G03X11547505Y-11139364I-50000J0D01*
G01*
X11447505Y-11343364D02*
X11547505Y-11443364D01*
X11547505Y-11343364D02*
X11447505Y-11443364D01*
X11547505Y-11393364D02*
G75*
G03X11547505Y-11393364I-50000J0D01*
G01*
X11701505Y-10581364D02*
X11801505Y-10681364D01*
X11801505Y-10581364D02*
X11701505Y-10681364D01*
X11801505Y-10631364D02*
G75*
G03X11801505Y-10631364I-50000J0D01*
G01*
X11701505Y-10835364D02*
X11801505Y-10935364D01*
X11801505Y-10835364D02*
X11701505Y-10935364D01*
X11801505Y-10885364D02*
G75*
G03X11801505Y-10885364I-50000J0D01*
G01*
X11701505Y-11089364D02*
X11801505Y-11189364D01*
X11801505Y-11089364D02*
X11701505Y-11189364D01*
X11801505Y-11139364D02*
G75*
G03X11801505Y-11139364I-50000J0D01*
G01*
X11701505Y-11343364D02*
X11801505Y-11443364D01*
X11801505Y-11343364D02*
X11701505Y-11443364D01*
X11801505Y-11393364D02*
G75*
G03X11801505Y-11393364I-50000J0D01*
G01*
X9373400Y-8954300D02*
X9473400Y-9054300D01*
X9473400Y-8954300D02*
X9373400Y-9054300D01*
X9473400Y-9004300D02*
G75*
G03X9473400Y-9004300I-50000J0D01*
G01*
X9373400Y-9208300D02*
X9473400Y-9308300D01*
X9473400Y-9208300D02*
X9373400Y-9308300D01*
X9473400Y-9258300D02*
G75*
G03X9473400Y-9258300I-50000J0D01*
G01*
X9373400Y-9462300D02*
X9473400Y-9562300D01*
X9473400Y-9462300D02*
X9373400Y-9562300D01*
X9473400Y-9512300D02*
G75*
G03X9473400Y-9512300I-50000J0D01*
G01*
X9373400Y-9716300D02*
X9473400Y-9816300D01*
X9473400Y-9716300D02*
X9373400Y-9816300D01*
X9473400Y-9766300D02*
G75*
G03X9473400Y-9766300I-50000J0D01*
G01*
X9373400Y-8052600D02*
X9473400Y-8152600D01*
X9473400Y-8052600D02*
X9373400Y-8152600D01*
X9473400Y-8102600D02*
G75*
G03X9473400Y-8102600I-50000J0D01*
G01*
X9373400Y-8306600D02*
X9473400Y-8406600D01*
X9473400Y-8306600D02*
X9373400Y-8406600D01*
X9473400Y-8356600D02*
G75*
G03X9473400Y-8356600I-50000J0D01*
G01*
X9373400Y-8560600D02*
X9473400Y-8660600D01*
X9473400Y-8560600D02*
X9373400Y-8660600D01*
X9473400Y-8610600D02*
G75*
G03X9473400Y-8610600I-50000J0D01*
G01*
X18201000Y-8684000D02*
X18301000Y-8784000D01*
X18301000Y-8684000D02*
X18201000Y-8784000D01*
X18301000Y-8734000D02*
G75*
G03X18301000Y-8734000I-50000J0D01*
G01*
X18201000Y-8938000D02*
X18301000Y-9038000D01*
X18301000Y-8938000D02*
X18201000Y-9038000D01*
X18301000Y-8988000D02*
G75*
G03X18301000Y-8988000I-50000J0D01*
G01*
X18201000Y-9192000D02*
X18301000Y-9292000D01*
X18301000Y-9192000D02*
X18201000Y-9292000D01*
X18301000Y-9242000D02*
G75*
G03X18301000Y-9242000I-50000J0D01*
G01*
X18201000Y-9446000D02*
X18301000Y-9546000D01*
X18301000Y-9446000D02*
X18201000Y-9546000D01*
X18301000Y-9496000D02*
G75*
G03X18301000Y-9496000I-50000J0D01*
G01*
X18201000Y-9700000D02*
X18301000Y-9800000D01*
X18301000Y-9700000D02*
X18201000Y-9800000D01*
X18301000Y-9750000D02*
G75*
G03X18301000Y-9750000I-50000J0D01*
G01*
X18201000Y-9954000D02*
X18301000Y-10054000D01*
X18301000Y-9954000D02*
X18201000Y-10054000D01*
X18301000Y-10004000D02*
G75*
G03X18301000Y-10004000I-50000J0D01*
G01*
X18201000Y-10208000D02*
X18301000Y-10308000D01*
X18301000Y-10208000D02*
X18201000Y-10308000D01*
X18301000Y-10258000D02*
G75*
G03X18301000Y-10258000I-50000J0D01*
G01*
X18201000Y-10462000D02*
X18301000Y-10562000D01*
X18301000Y-10462000D02*
X18201000Y-10562000D01*
X18301000Y-10512000D02*
G75*
G03X18301000Y-10512000I-50000J0D01*
G01*
X18201000Y-10716000D02*
X18301000Y-10816000D01*
X18301000Y-10716000D02*
X18201000Y-10816000D01*
X18301000Y-10766000D02*
G75*
G03X18301000Y-10766000I-50000J0D01*
G01*
X18201000Y-10970000D02*
X18301000Y-11070000D01*
X18301000Y-10970000D02*
X18201000Y-11070000D01*
X18301000Y-11020000D02*
G75*
G03X18301000Y-11020000I-50000J0D01*
G01*
X12287000Y-11245000D02*
X12397000Y-11355000D01*
X12397000Y-11245000D02*
X12287000Y-11355000D01*
X12342000Y-11245000D02*
X12342000Y-11355000D01*
X12287000Y-11300000D02*
X12397000Y-11300000D01*
X12541000Y-11245000D02*
X12651000Y-11355000D01*
X12651000Y-11245000D02*
X12541000Y-11355000D01*
X12596000Y-11245000D02*
X12596000Y-11355000D01*
X12541000Y-11300000D02*
X12651000Y-11300000D01*
X12795000Y-11245000D02*
X12905000Y-11355000D01*
X12905000Y-11245000D02*
X12795000Y-11355000D01*
X12850000Y-11245000D02*
X12850000Y-11355000D01*
X12795000Y-11300000D02*
X12905000Y-11300000D01*
X10634500Y-6388000D02*
X10754500Y-6508000D01*
X10754500Y-6388000D02*
X10634500Y-6508000D01*
X10736927Y-6490427D02*
X10736927Y-6405573D01*
X10652073Y-6405573D01*
X10652073Y-6490427D01*
X10736927Y-6490427D01*
X10888500Y-6388000D02*
X11008500Y-6508000D01*
X11008500Y-6388000D02*
X10888500Y-6508000D01*
X10990927Y-6490427D02*
X10990927Y-6405573D01*
X10906073Y-6405573D01*
X10906073Y-6490427D01*
X10990927Y-6490427D01*
X11142500Y-6388000D02*
X11262500Y-6508000D01*
X11262500Y-6388000D02*
X11142500Y-6508000D01*
X11244927Y-6490427D02*
X11244927Y-6405573D01*
X11160073Y-6405573D01*
X11160073Y-6490427D01*
X11244927Y-6490427D01*
X11396500Y-6388000D02*
X11516500Y-6508000D01*
X11516500Y-6388000D02*
X11396500Y-6508000D01*
X11498927Y-6490427D02*
X11498927Y-6405573D01*
X11414073Y-6405573D01*
X11414073Y-6490427D01*
X11498927Y-6490427D01*
X11650500Y-6388000D02*
X11770500Y-6508000D01*
X11770500Y-6388000D02*
X11650500Y-6508000D01*
X11752927Y-6490427D02*
X11752927Y-6405573D01*
X11668073Y-6405573D01*
X11668073Y-6490427D01*
X11752927Y-6490427D01*
X11904500Y-6388000D02*
X12024500Y-6508000D01*
X12024500Y-6388000D02*
X11904500Y-6508000D01*
X12006927Y-6490427D02*
X12006927Y-6405573D01*
X11922073Y-6405573D01*
X11922073Y-6490427D01*
X12006927Y-6490427D01*
X12158500Y-6388000D02*
X12278500Y-6508000D01*
X12278500Y-6388000D02*
X12158500Y-6508000D01*
X12260927Y-6490427D02*
X12260927Y-6405573D01*
X12176073Y-6405573D01*
X12176073Y-6490427D01*
X12260927Y-6490427D01*
X12412500Y-6388000D02*
X12532500Y-6508000D01*
X12532500Y-6388000D02*
X12412500Y-6508000D01*
X12514927Y-6490427D02*
X12514927Y-6405573D01*
X12430073Y-6405573D01*
X12430073Y-6490427D01*
X12514927Y-6490427D01*
X12666500Y-6388000D02*
X12786500Y-6508000D01*
X12786500Y-6388000D02*
X12666500Y-6508000D01*
X12768927Y-6490427D02*
X12768927Y-6405573D01*
X12684073Y-6405573D01*
X12684073Y-6490427D01*
X12768927Y-6490427D01*
X12920500Y-6388000D02*
X13040500Y-6508000D01*
X13040500Y-6388000D02*
X12920500Y-6508000D01*
X13022927Y-6490427D02*
X13022927Y-6405573D01*
X12938073Y-6405573D01*
X12938073Y-6490427D01*
X13022927Y-6490427D01*
X13174500Y-6388000D02*
X13294500Y-6508000D01*
X13294500Y-6388000D02*
X13174500Y-6508000D01*
X13276927Y-6490427D02*
X13276927Y-6405573D01*
X13192073Y-6405573D01*
X13192073Y-6490427D01*
X13276927Y-6490427D01*
X13428500Y-6388000D02*
X13548500Y-6508000D01*
X13548500Y-6388000D02*
X13428500Y-6508000D01*
X13530927Y-6490427D02*
X13530927Y-6405573D01*
X13446073Y-6405573D01*
X13446073Y-6490427D01*
X13530927Y-6490427D01*
X13682500Y-6388000D02*
X13802500Y-6508000D01*
X13802500Y-6388000D02*
X13682500Y-6508000D01*
X13784927Y-6490427D02*
X13784927Y-6405573D01*
X13700073Y-6405573D01*
X13700073Y-6490427D01*
X13784927Y-6490427D01*
X13936500Y-6388000D02*
X14056500Y-6508000D01*
X14056500Y-6388000D02*
X13936500Y-6508000D01*
X14038927Y-6490427D02*
X14038927Y-6405573D01*
X13954073Y-6405573D01*
X13954073Y-6490427D01*
X14038927Y-6490427D01*
X14190500Y-6388000D02*
X14310500Y-6508000D01*
X14310500Y-6388000D02*
X14190500Y-6508000D01*
X14292927Y-6490427D02*
X14292927Y-6405573D01*
X14208073Y-6405573D01*
X14208073Y-6490427D01*
X14292927Y-6490427D01*
X14444500Y-6388000D02*
X14564500Y-6508000D01*
X14564500Y-6388000D02*
X14444500Y-6508000D01*
X14546927Y-6490427D02*
X14546927Y-6405573D01*
X14462073Y-6405573D01*
X14462073Y-6490427D01*
X14546927Y-6490427D01*
D12*
X9278918Y-13773214D02*
X9278918Y-13473214D01*
X9350347Y-13473214D01*
X9393204Y-13487500D01*
X9421776Y-13516071D01*
X9436061Y-13544643D01*
X9450347Y-13601786D01*
X9450347Y-13644643D01*
X9436061Y-13701786D01*
X9421776Y-13730357D01*
X9393204Y-13758929D01*
X9350347Y-13773214D01*
X9278918Y-13773214D01*
X9578918Y-13773214D02*
X9578918Y-13573214D01*
X9578918Y-13630357D02*
X9593204Y-13601786D01*
X9607490Y-13587500D01*
X9636061Y-13573214D01*
X9664633Y-13573214D01*
X9764633Y-13773214D02*
X9764633Y-13573214D01*
X9764633Y-13473214D02*
X9750347Y-13487500D01*
X9764633Y-13501786D01*
X9778918Y-13487500D01*
X9764633Y-13473214D01*
X9764633Y-13501786D01*
X9950347Y-13773214D02*
X9921776Y-13758929D01*
X9907490Y-13730357D01*
X9907490Y-13473214D01*
X10107490Y-13773214D02*
X10078918Y-13758929D01*
X10064633Y-13730357D01*
X10064633Y-13473214D01*
X10450347Y-13773214D02*
X10450347Y-13473214D01*
X10550347Y-13687500D01*
X10650347Y-13473214D01*
X10650347Y-13773214D01*
X10921776Y-13773214D02*
X10921776Y-13616071D01*
X10907490Y-13587500D01*
X10878918Y-13573214D01*
X10821776Y-13573214D01*
X10793204Y-13587500D01*
X10921776Y-13758929D02*
X10893204Y-13773214D01*
X10821776Y-13773214D01*
X10793204Y-13758929D01*
X10778918Y-13730357D01*
X10778918Y-13701786D01*
X10793204Y-13673214D01*
X10821776Y-13658929D01*
X10893204Y-13658929D01*
X10921776Y-13644643D01*
X11064633Y-13573214D02*
X11064633Y-13873214D01*
X11064633Y-13587500D02*
X11093204Y-13573214D01*
X11150347Y-13573214D01*
X11178918Y-13587500D01*
X11193204Y-13601786D01*
X11207490Y-13630357D01*
X11207490Y-13716071D01*
X11193204Y-13744643D01*
X11178918Y-13758929D01*
X11150347Y-13773214D01*
X11093204Y-13773214D01*
X11064633Y-13758929D01*
X11336061Y-13744643D02*
X11350347Y-13758929D01*
X11336061Y-13773214D01*
X11321776Y-13758929D01*
X11336061Y-13744643D01*
X11336061Y-13773214D01*
X11336061Y-13587500D02*
X11350347Y-13601786D01*
X11336061Y-13616071D01*
X11321776Y-13601786D01*
X11336061Y-13587500D01*
X11336061Y-13616071D01*
X8952490Y-14247500D02*
X8992490Y-14287500D01*
X8992490Y-14247500D02*
X8952490Y-14287500D01*
X9336061Y-14103214D02*
X9364633Y-14103214D01*
X9393204Y-14117500D01*
X9407490Y-14131786D01*
X9421776Y-14160357D01*
X9436061Y-14217500D01*
X9436061Y-14288929D01*
X9421776Y-14346071D01*
X9407490Y-14374643D01*
X9393204Y-14388929D01*
X9364633Y-14403214D01*
X9336061Y-14403214D01*
X9307490Y-14388929D01*
X9293204Y-14374643D01*
X9278918Y-14346071D01*
X9264633Y-14288929D01*
X9264633Y-14217500D01*
X9278918Y-14160357D01*
X9293204Y-14131786D01*
X9307490Y-14117500D01*
X9336061Y-14103214D01*
X9564633Y-14374643D02*
X9578918Y-14388929D01*
X9564633Y-14403214D01*
X9550347Y-14388929D01*
X9564633Y-14374643D01*
X9564633Y-14403214D01*
X9836061Y-14203214D02*
X9836061Y-14403214D01*
X9764633Y-14088929D02*
X9693204Y-14303214D01*
X9878918Y-14303214D01*
X10050347Y-14103214D02*
X10078918Y-14103214D01*
X10107490Y-14117500D01*
X10121776Y-14131786D01*
X10136061Y-14160357D01*
X10150347Y-14217500D01*
X10150347Y-14288929D01*
X10136061Y-14346071D01*
X10121776Y-14374643D01*
X10107490Y-14388929D01*
X10078918Y-14403214D01*
X10050347Y-14403214D01*
X10021776Y-14388929D01*
X10007490Y-14374643D01*
X9993204Y-14346071D01*
X9978918Y-14288929D01*
X9978918Y-14217500D01*
X9993204Y-14160357D01*
X10007490Y-14131786D01*
X10021776Y-14117500D01*
X10050347Y-14103214D01*
X10278918Y-14403214D02*
X10278918Y-14203214D01*
X10278918Y-14231786D02*
X10293204Y-14217500D01*
X10321776Y-14203214D01*
X10364633Y-14203214D01*
X10393204Y-14217500D01*
X10407490Y-14246071D01*
X10407490Y-14403214D01*
X10407490Y-14246071D02*
X10421776Y-14217500D01*
X10450347Y-14203214D01*
X10493204Y-14203214D01*
X10521776Y-14217500D01*
X10536061Y-14246071D01*
X10536061Y-14403214D01*
X10678918Y-14403214D02*
X10678918Y-14203214D01*
X10678918Y-14231786D02*
X10693204Y-14217500D01*
X10721776Y-14203214D01*
X10764633Y-14203214D01*
X10793204Y-14217500D01*
X10807490Y-14246071D01*
X10807490Y-14403214D01*
X10807490Y-14246071D02*
X10821776Y-14217500D01*
X10850347Y-14203214D01*
X10893204Y-14203214D01*
X10921776Y-14217500D01*
X10936061Y-14246071D01*
X10936061Y-14403214D01*
X11521776Y-14088929D02*
X11264633Y-14474643D01*
X11907490Y-14103214D02*
X11936061Y-14103214D01*
X11964633Y-14117500D01*
X11978918Y-14131786D01*
X11993204Y-14160357D01*
X12007490Y-14217500D01*
X12007490Y-14288929D01*
X11993204Y-14346071D01*
X11978918Y-14374643D01*
X11964633Y-14388929D01*
X11936061Y-14403214D01*
X11907490Y-14403214D01*
X11878918Y-14388929D01*
X11864633Y-14374643D01*
X11850347Y-14346071D01*
X11836061Y-14288929D01*
X11836061Y-14217500D01*
X11850347Y-14160357D01*
X11864633Y-14131786D01*
X11878918Y-14117500D01*
X11907490Y-14103214D01*
X12136061Y-14374643D02*
X12150347Y-14388929D01*
X12136061Y-14403214D01*
X12121776Y-14388929D01*
X12136061Y-14374643D01*
X12136061Y-14403214D01*
X12336061Y-14103214D02*
X12364633Y-14103214D01*
X12393204Y-14117500D01*
X12407490Y-14131786D01*
X12421776Y-14160357D01*
X12436061Y-14217500D01*
X12436061Y-14288929D01*
X12421776Y-14346071D01*
X12407490Y-14374643D01*
X12393204Y-14388929D01*
X12364633Y-14403214D01*
X12336061Y-14403214D01*
X12307490Y-14388929D01*
X12293204Y-14374643D01*
X12278918Y-14346071D01*
X12264633Y-14288929D01*
X12264633Y-14217500D01*
X12278918Y-14160357D01*
X12293204Y-14131786D01*
X12307490Y-14117500D01*
X12336061Y-14103214D01*
X12721776Y-14403214D02*
X12550347Y-14403214D01*
X12636061Y-14403214D02*
X12636061Y-14103214D01*
X12607490Y-14146071D01*
X12578918Y-14174643D01*
X12550347Y-14188929D01*
X12978918Y-14103214D02*
X12921776Y-14103214D01*
X12893204Y-14117500D01*
X12878918Y-14131786D01*
X12850347Y-14174643D01*
X12836061Y-14231786D01*
X12836061Y-14346071D01*
X12850347Y-14374643D01*
X12864633Y-14388929D01*
X12893204Y-14403214D01*
X12950347Y-14403214D01*
X12978918Y-14388929D01*
X12993204Y-14374643D01*
X13007490Y-14346071D01*
X13007490Y-14274643D01*
X12993204Y-14246071D01*
X12978918Y-14231786D01*
X12950347Y-14217500D01*
X12893204Y-14217500D01*
X12864633Y-14231786D01*
X12850347Y-14246071D01*
X12836061Y-14274643D01*
X13121776Y-14103214D02*
X13121776Y-14160357D01*
X13236061Y-14103214D02*
X13236061Y-14160357D01*
X13678918Y-14517500D02*
X13664633Y-14503214D01*
X13636061Y-14460357D01*
X13621776Y-14431786D01*
X13607490Y-14388929D01*
X13593204Y-14317500D01*
X13593204Y-14260357D01*
X13607490Y-14188929D01*
X13621776Y-14146071D01*
X13636061Y-14117500D01*
X13664633Y-14074643D01*
X13678918Y-14060357D01*
X13778918Y-14131786D02*
X13793204Y-14117500D01*
X13821776Y-14103214D01*
X13893204Y-14103214D01*
X13921776Y-14117500D01*
X13936061Y-14131786D01*
X13950347Y-14160357D01*
X13950347Y-14188929D01*
X13936061Y-14231786D01*
X13764633Y-14403214D01*
X13950347Y-14403214D01*
X14207490Y-14103214D02*
X14150347Y-14103214D01*
X14121776Y-14117500D01*
X14107490Y-14131786D01*
X14078918Y-14174643D01*
X14064633Y-14231786D01*
X14064633Y-14346071D01*
X14078918Y-14374643D01*
X14093204Y-14388929D01*
X14121776Y-14403214D01*
X14178918Y-14403214D01*
X14207490Y-14388929D01*
X14221776Y-14374643D01*
X14236061Y-14346071D01*
X14236061Y-14274643D01*
X14221776Y-14246071D01*
X14207490Y-14231786D01*
X14178918Y-14217500D01*
X14121776Y-14217500D01*
X14093204Y-14231786D01*
X14078918Y-14246071D01*
X14064633Y-14274643D01*
X14593204Y-14403214D02*
X14593204Y-14103214D01*
X14721776Y-14403214D02*
X14721776Y-14246071D01*
X14707490Y-14217500D01*
X14678918Y-14203214D01*
X14636061Y-14203214D01*
X14607490Y-14217500D01*
X14593204Y-14231786D01*
X14907490Y-14403214D02*
X14878918Y-14388929D01*
X14864633Y-14374643D01*
X14850347Y-14346071D01*
X14850347Y-14260357D01*
X14864633Y-14231786D01*
X14878918Y-14217500D01*
X14907490Y-14203214D01*
X14950347Y-14203214D01*
X14978918Y-14217500D01*
X14993204Y-14231786D01*
X15007490Y-14260357D01*
X15007490Y-14346071D01*
X14993204Y-14374643D01*
X14978918Y-14388929D01*
X14950347Y-14403214D01*
X14907490Y-14403214D01*
X15178918Y-14403214D02*
X15150347Y-14388929D01*
X15136061Y-14360357D01*
X15136061Y-14103214D01*
X15407490Y-14388929D02*
X15378918Y-14403214D01*
X15321776Y-14403214D01*
X15293204Y-14388929D01*
X15278918Y-14360357D01*
X15278918Y-14246071D01*
X15293204Y-14217500D01*
X15321776Y-14203214D01*
X15378918Y-14203214D01*
X15407490Y-14217500D01*
X15421776Y-14246071D01*
X15421776Y-14274643D01*
X15278918Y-14303214D01*
X15536061Y-14388929D02*
X15564633Y-14403214D01*
X15621776Y-14403214D01*
X15650347Y-14388929D01*
X15664633Y-14360357D01*
X15664633Y-14346071D01*
X15650347Y-14317500D01*
X15621776Y-14303214D01*
X15578918Y-14303214D01*
X15550347Y-14288929D01*
X15536061Y-14260357D01*
X15536061Y-14246071D01*
X15550347Y-14217500D01*
X15578918Y-14203214D01*
X15621776Y-14203214D01*
X15650347Y-14217500D01*
X15764633Y-14517500D02*
X15778918Y-14503214D01*
X15807490Y-14460357D01*
X15821776Y-14431786D01*
X15836061Y-14388929D01*
X15850347Y-14317500D01*
X15850347Y-14260357D01*
X15836061Y-14188929D01*
X15821776Y-14146071D01*
X15807490Y-14117500D01*
X15778918Y-14074643D01*
X15764633Y-14060357D01*
X8992490Y-14663500D02*
G75*
G03X8992490Y-14663500I-35000J0D01*
G01*
X9336061Y-14499214D02*
X9364633Y-14499214D01*
X9393204Y-14513500D01*
X9407490Y-14527786D01*
X9421776Y-14556357D01*
X9436061Y-14613500D01*
X9436061Y-14684929D01*
X9421776Y-14742071D01*
X9407490Y-14770643D01*
X9393204Y-14784929D01*
X9364633Y-14799214D01*
X9336061Y-14799214D01*
X9307490Y-14784929D01*
X9293204Y-14770643D01*
X9278918Y-14742071D01*
X9264633Y-14684929D01*
X9264633Y-14613500D01*
X9278918Y-14556357D01*
X9293204Y-14527786D01*
X9307490Y-14513500D01*
X9336061Y-14499214D01*
X9564633Y-14770643D02*
X9578918Y-14784929D01*
X9564633Y-14799214D01*
X9550347Y-14784929D01*
X9564633Y-14770643D01*
X9564633Y-14799214D01*
X9678918Y-14499214D02*
X9878918Y-14499214D01*
X9750347Y-14799214D01*
X10050347Y-14499214D02*
X10078918Y-14499214D01*
X10107490Y-14513500D01*
X10121776Y-14527786D01*
X10136061Y-14556357D01*
X10150347Y-14613500D01*
X10150347Y-14684929D01*
X10136061Y-14742071D01*
X10121776Y-14770643D01*
X10107490Y-14784929D01*
X10078918Y-14799214D01*
X10050347Y-14799214D01*
X10021776Y-14784929D01*
X10007490Y-14770643D01*
X9993204Y-14742071D01*
X9978918Y-14684929D01*
X9978918Y-14613500D01*
X9993204Y-14556357D01*
X10007490Y-14527786D01*
X10021776Y-14513500D01*
X10050347Y-14499214D01*
X10278918Y-14799214D02*
X10278918Y-14599214D01*
X10278918Y-14627786D02*
X10293204Y-14613500D01*
X10321776Y-14599214D01*
X10364633Y-14599214D01*
X10393204Y-14613500D01*
X10407490Y-14642071D01*
X10407490Y-14799214D01*
X10407490Y-14642071D02*
X10421776Y-14613500D01*
X10450347Y-14599214D01*
X10493204Y-14599214D01*
X10521776Y-14613500D01*
X10536061Y-14642071D01*
X10536061Y-14799214D01*
X10678918Y-14799214D02*
X10678918Y-14599214D01*
X10678918Y-14627786D02*
X10693204Y-14613500D01*
X10721776Y-14599214D01*
X10764633Y-14599214D01*
X10793204Y-14613500D01*
X10807490Y-14642071D01*
X10807490Y-14799214D01*
X10807490Y-14642071D02*
X10821776Y-14613500D01*
X10850347Y-14599214D01*
X10893204Y-14599214D01*
X10921776Y-14613500D01*
X10936061Y-14642071D01*
X10936061Y-14799214D01*
X11521776Y-14484929D02*
X11264633Y-14870643D01*
X11907490Y-14499214D02*
X11936061Y-14499214D01*
X11964633Y-14513500D01*
X11978918Y-14527786D01*
X11993204Y-14556357D01*
X12007490Y-14613500D01*
X12007490Y-14684929D01*
X11993204Y-14742071D01*
X11978918Y-14770643D01*
X11964633Y-14784929D01*
X11936061Y-14799214D01*
X11907490Y-14799214D01*
X11878918Y-14784929D01*
X11864633Y-14770643D01*
X11850347Y-14742071D01*
X11836061Y-14684929D01*
X11836061Y-14613500D01*
X11850347Y-14556357D01*
X11864633Y-14527786D01*
X11878918Y-14513500D01*
X11907490Y-14499214D01*
X12136061Y-14770643D02*
X12150347Y-14784929D01*
X12136061Y-14799214D01*
X12121776Y-14784929D01*
X12136061Y-14770643D01*
X12136061Y-14799214D01*
X12336061Y-14499214D02*
X12364633Y-14499214D01*
X12393204Y-14513500D01*
X12407490Y-14527786D01*
X12421776Y-14556357D01*
X12436061Y-14613500D01*
X12436061Y-14684929D01*
X12421776Y-14742071D01*
X12407490Y-14770643D01*
X12393204Y-14784929D01*
X12364633Y-14799214D01*
X12336061Y-14799214D01*
X12307490Y-14784929D01*
X12293204Y-14770643D01*
X12278918Y-14742071D01*
X12264633Y-14684929D01*
X12264633Y-14613500D01*
X12278918Y-14556357D01*
X12293204Y-14527786D01*
X12307490Y-14513500D01*
X12336061Y-14499214D01*
X12550347Y-14527786D02*
X12564633Y-14513500D01*
X12593204Y-14499214D01*
X12664633Y-14499214D01*
X12693204Y-14513500D01*
X12707490Y-14527786D01*
X12721776Y-14556357D01*
X12721776Y-14584929D01*
X12707490Y-14627786D01*
X12536061Y-14799214D01*
X12721776Y-14799214D01*
X12893204Y-14627786D02*
X12864633Y-14613500D01*
X12850347Y-14599214D01*
X12836061Y-14570643D01*
X12836061Y-14556357D01*
X12850347Y-14527786D01*
X12864633Y-14513500D01*
X12893204Y-14499214D01*
X12950347Y-14499214D01*
X12978918Y-14513500D01*
X12993204Y-14527786D01*
X13007490Y-14556357D01*
X13007490Y-14570643D01*
X12993204Y-14599214D01*
X12978918Y-14613500D01*
X12950347Y-14627786D01*
X12893204Y-14627786D01*
X12864633Y-14642071D01*
X12850347Y-14656357D01*
X12836061Y-14684929D01*
X12836061Y-14742071D01*
X12850347Y-14770643D01*
X12864633Y-14784929D01*
X12893204Y-14799214D01*
X12950347Y-14799214D01*
X12978918Y-14784929D01*
X12993204Y-14770643D01*
X13007490Y-14742071D01*
X13007490Y-14684929D01*
X12993204Y-14656357D01*
X12978918Y-14642071D01*
X12950347Y-14627786D01*
X13121776Y-14499214D02*
X13121776Y-14556357D01*
X13236061Y-14499214D02*
X13236061Y-14556357D01*
X13678918Y-14913500D02*
X13664633Y-14899214D01*
X13636061Y-14856357D01*
X13621776Y-14827786D01*
X13607490Y-14784929D01*
X13593204Y-14713500D01*
X13593204Y-14656357D01*
X13607490Y-14584929D01*
X13621776Y-14542071D01*
X13636061Y-14513500D01*
X13664633Y-14470643D01*
X13678918Y-14456357D01*
X13950347Y-14799214D02*
X13778918Y-14799214D01*
X13864633Y-14799214D02*
X13864633Y-14499214D01*
X13836061Y-14542071D01*
X13807490Y-14570643D01*
X13778918Y-14584929D01*
X14136061Y-14499214D02*
X14164633Y-14499214D01*
X14193204Y-14513500D01*
X14207490Y-14527786D01*
X14221776Y-14556357D01*
X14236061Y-14613500D01*
X14236061Y-14684929D01*
X14221776Y-14742071D01*
X14207490Y-14770643D01*
X14193204Y-14784929D01*
X14164633Y-14799214D01*
X14136061Y-14799214D01*
X14107490Y-14784929D01*
X14093204Y-14770643D01*
X14078918Y-14742071D01*
X14064633Y-14684929D01*
X14064633Y-14613500D01*
X14078918Y-14556357D01*
X14093204Y-14527786D01*
X14107490Y-14513500D01*
X14136061Y-14499214D01*
X14593204Y-14799214D02*
X14593204Y-14499214D01*
X14721776Y-14799214D02*
X14721776Y-14642071D01*
X14707490Y-14613500D01*
X14678918Y-14599214D01*
X14636061Y-14599214D01*
X14607490Y-14613500D01*
X14593204Y-14627786D01*
X14907490Y-14799214D02*
X14878918Y-14784929D01*
X14864633Y-14770643D01*
X14850347Y-14742071D01*
X14850347Y-14656357D01*
X14864633Y-14627786D01*
X14878918Y-14613500D01*
X14907490Y-14599214D01*
X14950347Y-14599214D01*
X14978918Y-14613500D01*
X14993204Y-14627786D01*
X15007490Y-14656357D01*
X15007490Y-14742071D01*
X14993204Y-14770643D01*
X14978918Y-14784929D01*
X14950347Y-14799214D01*
X14907490Y-14799214D01*
X15178918Y-14799214D02*
X15150347Y-14784929D01*
X15136061Y-14756357D01*
X15136061Y-14499214D01*
X15407490Y-14784929D02*
X15378918Y-14799214D01*
X15321776Y-14799214D01*
X15293204Y-14784929D01*
X15278918Y-14756357D01*
X15278918Y-14642071D01*
X15293204Y-14613500D01*
X15321776Y-14599214D01*
X15378918Y-14599214D01*
X15407490Y-14613500D01*
X15421776Y-14642071D01*
X15421776Y-14670643D01*
X15278918Y-14699214D01*
X15536061Y-14784929D02*
X15564633Y-14799214D01*
X15621776Y-14799214D01*
X15650347Y-14784929D01*
X15664633Y-14756357D01*
X15664633Y-14742071D01*
X15650347Y-14713500D01*
X15621776Y-14699214D01*
X15578918Y-14699214D01*
X15550347Y-14684929D01*
X15536061Y-14656357D01*
X15536061Y-14642071D01*
X15550347Y-14613500D01*
X15578918Y-14599214D01*
X15621776Y-14599214D01*
X15650347Y-14613500D01*
X15764633Y-14913500D02*
X15778918Y-14899214D01*
X15807490Y-14856357D01*
X15821776Y-14827786D01*
X15836061Y-14784929D01*
X15850347Y-14713500D01*
X15850347Y-14656357D01*
X15836061Y-14584929D01*
X15821776Y-14542071D01*
X15807490Y-14513500D01*
X15778918Y-14470643D01*
X15764633Y-14456357D01*
X8952490Y-15019500D02*
X8952490Y-15099500D01*
X8912490Y-15059500D02*
X8992490Y-15059500D01*
X9336061Y-14895214D02*
X9364633Y-14895214D01*
X9393204Y-14909500D01*
X9407490Y-14923786D01*
X9421776Y-14952357D01*
X9436061Y-15009500D01*
X9436061Y-15080929D01*
X9421776Y-15138071D01*
X9407490Y-15166643D01*
X9393204Y-15180929D01*
X9364633Y-15195214D01*
X9336061Y-15195214D01*
X9307490Y-15180929D01*
X9293204Y-15166643D01*
X9278918Y-15138071D01*
X9264633Y-15080929D01*
X9264633Y-15009500D01*
X9278918Y-14952357D01*
X9293204Y-14923786D01*
X9307490Y-14909500D01*
X9336061Y-14895214D01*
X9564633Y-15166643D02*
X9578918Y-15180929D01*
X9564633Y-15195214D01*
X9550347Y-15180929D01*
X9564633Y-15166643D01*
X9564633Y-15195214D01*
X9750347Y-15023786D02*
X9721776Y-15009500D01*
X9707490Y-14995214D01*
X9693204Y-14966643D01*
X9693204Y-14952357D01*
X9707490Y-14923786D01*
X9721776Y-14909500D01*
X9750347Y-14895214D01*
X9807490Y-14895214D01*
X9836061Y-14909500D01*
X9850347Y-14923786D01*
X9864633Y-14952357D01*
X9864633Y-14966643D01*
X9850347Y-14995214D01*
X9836061Y-15009500D01*
X9807490Y-15023786D01*
X9750347Y-15023786D01*
X9721776Y-15038071D01*
X9707490Y-15052357D01*
X9693204Y-15080929D01*
X9693204Y-15138071D01*
X9707490Y-15166643D01*
X9721776Y-15180929D01*
X9750347Y-15195214D01*
X9807490Y-15195214D01*
X9836061Y-15180929D01*
X9850347Y-15166643D01*
X9864633Y-15138071D01*
X9864633Y-15080929D01*
X9850347Y-15052357D01*
X9836061Y-15038071D01*
X9807490Y-15023786D01*
X10050347Y-14895214D02*
X10078918Y-14895214D01*
X10107490Y-14909500D01*
X10121776Y-14923786D01*
X10136061Y-14952357D01*
X10150347Y-15009500D01*
X10150347Y-15080929D01*
X10136061Y-15138071D01*
X10121776Y-15166643D01*
X10107490Y-15180929D01*
X10078918Y-15195214D01*
X10050347Y-15195214D01*
X10021776Y-15180929D01*
X10007490Y-15166643D01*
X9993204Y-15138071D01*
X9978918Y-15080929D01*
X9978918Y-15009500D01*
X9993204Y-14952357D01*
X10007490Y-14923786D01*
X10021776Y-14909500D01*
X10050347Y-14895214D01*
X10278918Y-15195214D02*
X10278918Y-14995214D01*
X10278918Y-15023786D02*
X10293204Y-15009500D01*
X10321776Y-14995214D01*
X10364633Y-14995214D01*
X10393204Y-15009500D01*
X10407490Y-15038071D01*
X10407490Y-15195214D01*
X10407490Y-15038071D02*
X10421776Y-15009500D01*
X10450347Y-14995214D01*
X10493204Y-14995214D01*
X10521776Y-15009500D01*
X10536061Y-15038071D01*
X10536061Y-15195214D01*
X10678918Y-15195214D02*
X10678918Y-14995214D01*
X10678918Y-15023786D02*
X10693204Y-15009500D01*
X10721776Y-14995214D01*
X10764633Y-14995214D01*
X10793204Y-15009500D01*
X10807490Y-15038071D01*
X10807490Y-15195214D01*
X10807490Y-15038071D02*
X10821776Y-15009500D01*
X10850347Y-14995214D01*
X10893204Y-14995214D01*
X10921776Y-15009500D01*
X10936061Y-15038071D01*
X10936061Y-15195214D01*
X11521776Y-14880929D02*
X11264633Y-15266643D01*
X11907490Y-14895214D02*
X11936061Y-14895214D01*
X11964633Y-14909500D01*
X11978918Y-14923786D01*
X11993204Y-14952357D01*
X12007490Y-15009500D01*
X12007490Y-15080929D01*
X11993204Y-15138071D01*
X11978918Y-15166643D01*
X11964633Y-15180929D01*
X11936061Y-15195214D01*
X11907490Y-15195214D01*
X11878918Y-15180929D01*
X11864633Y-15166643D01*
X11850347Y-15138071D01*
X11836061Y-15080929D01*
X11836061Y-15009500D01*
X11850347Y-14952357D01*
X11864633Y-14923786D01*
X11878918Y-14909500D01*
X11907490Y-14895214D01*
X12136061Y-15166643D02*
X12150347Y-15180929D01*
X12136061Y-15195214D01*
X12121776Y-15180929D01*
X12136061Y-15166643D01*
X12136061Y-15195214D01*
X12336061Y-14895214D02*
X12364633Y-14895214D01*
X12393204Y-14909500D01*
X12407490Y-14923786D01*
X12421776Y-14952357D01*
X12436061Y-15009500D01*
X12436061Y-15080929D01*
X12421776Y-15138071D01*
X12407490Y-15166643D01*
X12393204Y-15180929D01*
X12364633Y-15195214D01*
X12336061Y-15195214D01*
X12307490Y-15180929D01*
X12293204Y-15166643D01*
X12278918Y-15138071D01*
X12264633Y-15080929D01*
X12264633Y-15009500D01*
X12278918Y-14952357D01*
X12293204Y-14923786D01*
X12307490Y-14909500D01*
X12336061Y-14895214D01*
X12536061Y-14895214D02*
X12721776Y-14895214D01*
X12621776Y-15009500D01*
X12664633Y-15009500D01*
X12693204Y-15023786D01*
X12707490Y-15038071D01*
X12721776Y-15066643D01*
X12721776Y-15138071D01*
X12707490Y-15166643D01*
X12693204Y-15180929D01*
X12664633Y-15195214D01*
X12578918Y-15195214D01*
X12550347Y-15180929D01*
X12536061Y-15166643D01*
X13007490Y-15195214D02*
X12836061Y-15195214D01*
X12921776Y-15195214D02*
X12921776Y-14895214D01*
X12893204Y-14938071D01*
X12864633Y-14966643D01*
X12836061Y-14980929D01*
X13121776Y-14895214D02*
X13121776Y-14952357D01*
X13236061Y-14895214D02*
X13236061Y-14952357D01*
X13678918Y-15309500D02*
X13664633Y-15295214D01*
X13636061Y-15252357D01*
X13621776Y-15223786D01*
X13607490Y-15180929D01*
X13593204Y-15109500D01*
X13593204Y-15052357D01*
X13607490Y-14980929D01*
X13621776Y-14938071D01*
X13636061Y-14909500D01*
X13664633Y-14866643D01*
X13678918Y-14852357D01*
X13921776Y-14895214D02*
X13864633Y-14895214D01*
X13836061Y-14909500D01*
X13821776Y-14923786D01*
X13793204Y-14966643D01*
X13778918Y-15023786D01*
X13778918Y-15138071D01*
X13793204Y-15166643D01*
X13807490Y-15180929D01*
X13836061Y-15195214D01*
X13893204Y-15195214D01*
X13921776Y-15180929D01*
X13936061Y-15166643D01*
X13950347Y-15138071D01*
X13950347Y-15066643D01*
X13936061Y-15038071D01*
X13921776Y-15023786D01*
X13893204Y-15009500D01*
X13836061Y-15009500D01*
X13807490Y-15023786D01*
X13793204Y-15038071D01*
X13778918Y-15066643D01*
X14093204Y-15195214D02*
X14150347Y-15195214D01*
X14178918Y-15180929D01*
X14193204Y-15166643D01*
X14221776Y-15123786D01*
X14236061Y-15066643D01*
X14236061Y-14952357D01*
X14221776Y-14923786D01*
X14207490Y-14909500D01*
X14178918Y-14895214D01*
X14121776Y-14895214D01*
X14093204Y-14909500D01*
X14078918Y-14923786D01*
X14064633Y-14952357D01*
X14064633Y-15023786D01*
X14078918Y-15052357D01*
X14093204Y-15066643D01*
X14121776Y-15080929D01*
X14178918Y-15080929D01*
X14207490Y-15066643D01*
X14221776Y-15052357D01*
X14236061Y-15023786D01*
X14593204Y-15195214D02*
X14593204Y-14895214D01*
X14721776Y-15195214D02*
X14721776Y-15038071D01*
X14707490Y-15009500D01*
X14678918Y-14995214D01*
X14636061Y-14995214D01*
X14607490Y-15009500D01*
X14593204Y-15023786D01*
X14907490Y-15195214D02*
X14878918Y-15180929D01*
X14864633Y-15166643D01*
X14850347Y-15138071D01*
X14850347Y-15052357D01*
X14864633Y-15023786D01*
X14878918Y-15009500D01*
X14907490Y-14995214D01*
X14950347Y-14995214D01*
X14978918Y-15009500D01*
X14993204Y-15023786D01*
X15007490Y-15052357D01*
X15007490Y-15138071D01*
X14993204Y-15166643D01*
X14978918Y-15180929D01*
X14950347Y-15195214D01*
X14907490Y-15195214D01*
X15178918Y-15195214D02*
X15150347Y-15180929D01*
X15136061Y-15152357D01*
X15136061Y-14895214D01*
X15407490Y-15180929D02*
X15378918Y-15195214D01*
X15321776Y-15195214D01*
X15293204Y-15180929D01*
X15278918Y-15152357D01*
X15278918Y-15038071D01*
X15293204Y-15009500D01*
X15321776Y-14995214D01*
X15378918Y-14995214D01*
X15407490Y-15009500D01*
X15421776Y-15038071D01*
X15421776Y-15066643D01*
X15278918Y-15095214D01*
X15536061Y-15180929D02*
X15564633Y-15195214D01*
X15621776Y-15195214D01*
X15650347Y-15180929D01*
X15664633Y-15152357D01*
X15664633Y-15138071D01*
X15650347Y-15109500D01*
X15621776Y-15095214D01*
X15578918Y-15095214D01*
X15550347Y-15080929D01*
X15536061Y-15052357D01*
X15536061Y-15038071D01*
X15550347Y-15009500D01*
X15578918Y-14995214D01*
X15621776Y-14995214D01*
X15650347Y-15009500D01*
X15764633Y-15309500D02*
X15778918Y-15295214D01*
X15807490Y-15252357D01*
X15821776Y-15223786D01*
X15836061Y-15180929D01*
X15850347Y-15109500D01*
X15850347Y-15052357D01*
X15836061Y-14980929D01*
X15821776Y-14938071D01*
X15807490Y-14909500D01*
X15778918Y-14866643D01*
X15764633Y-14852357D01*
X8980042Y-15485552D02*
X8980042Y-15425448D01*
X8919938Y-15425448D01*
X8919938Y-15485552D01*
X8980042Y-15485552D01*
X9336061Y-15291214D02*
X9364633Y-15291214D01*
X9393204Y-15305500D01*
X9407490Y-15319786D01*
X9421776Y-15348357D01*
X9436061Y-15405500D01*
X9436061Y-15476929D01*
X9421776Y-15534071D01*
X9407490Y-15562643D01*
X9393204Y-15576929D01*
X9364633Y-15591214D01*
X9336061Y-15591214D01*
X9307490Y-15576929D01*
X9293204Y-15562643D01*
X9278918Y-15534071D01*
X9264633Y-15476929D01*
X9264633Y-15405500D01*
X9278918Y-15348357D01*
X9293204Y-15319786D01*
X9307490Y-15305500D01*
X9336061Y-15291214D01*
X9564633Y-15562643D02*
X9578918Y-15576929D01*
X9564633Y-15591214D01*
X9550347Y-15576929D01*
X9564633Y-15562643D01*
X9564633Y-15591214D01*
X9750347Y-15419786D02*
X9721776Y-15405500D01*
X9707490Y-15391214D01*
X9693204Y-15362643D01*
X9693204Y-15348357D01*
X9707490Y-15319786D01*
X9721776Y-15305500D01*
X9750347Y-15291214D01*
X9807490Y-15291214D01*
X9836061Y-15305500D01*
X9850347Y-15319786D01*
X9864633Y-15348357D01*
X9864633Y-15362643D01*
X9850347Y-15391214D01*
X9836061Y-15405500D01*
X9807490Y-15419786D01*
X9750347Y-15419786D01*
X9721776Y-15434071D01*
X9707490Y-15448357D01*
X9693204Y-15476929D01*
X9693204Y-15534071D01*
X9707490Y-15562643D01*
X9721776Y-15576929D01*
X9750347Y-15591214D01*
X9807490Y-15591214D01*
X9836061Y-15576929D01*
X9850347Y-15562643D01*
X9864633Y-15534071D01*
X9864633Y-15476929D01*
X9850347Y-15448357D01*
X9836061Y-15434071D01*
X9807490Y-15419786D01*
X10136061Y-15291214D02*
X9993204Y-15291214D01*
X9978918Y-15434071D01*
X9993204Y-15419786D01*
X10021776Y-15405500D01*
X10093204Y-15405500D01*
X10121776Y-15419786D01*
X10136061Y-15434071D01*
X10150347Y-15462643D01*
X10150347Y-15534071D01*
X10136061Y-15562643D01*
X10121776Y-15576929D01*
X10093204Y-15591214D01*
X10021776Y-15591214D01*
X9993204Y-15576929D01*
X9978918Y-15562643D01*
X10278918Y-15591214D02*
X10278918Y-15391214D01*
X10278918Y-15419786D02*
X10293204Y-15405500D01*
X10321776Y-15391214D01*
X10364633Y-15391214D01*
X10393204Y-15405500D01*
X10407490Y-15434071D01*
X10407490Y-15591214D01*
X10407490Y-15434071D02*
X10421776Y-15405500D01*
X10450347Y-15391214D01*
X10493204Y-15391214D01*
X10521776Y-15405500D01*
X10536061Y-15434071D01*
X10536061Y-15591214D01*
X10678918Y-15591214D02*
X10678918Y-15391214D01*
X10678918Y-15419786D02*
X10693204Y-15405500D01*
X10721776Y-15391214D01*
X10764633Y-15391214D01*
X10793204Y-15405500D01*
X10807490Y-15434071D01*
X10807490Y-15591214D01*
X10807490Y-15434071D02*
X10821776Y-15405500D01*
X10850347Y-15391214D01*
X10893204Y-15391214D01*
X10921776Y-15405500D01*
X10936061Y-15434071D01*
X10936061Y-15591214D01*
X11521776Y-15276929D02*
X11264633Y-15662643D01*
X11907490Y-15291214D02*
X11936061Y-15291214D01*
X11964633Y-15305500D01*
X11978918Y-15319786D01*
X11993204Y-15348357D01*
X12007490Y-15405500D01*
X12007490Y-15476929D01*
X11993204Y-15534071D01*
X11978918Y-15562643D01*
X11964633Y-15576929D01*
X11936061Y-15591214D01*
X11907490Y-15591214D01*
X11878918Y-15576929D01*
X11864633Y-15562643D01*
X11850347Y-15534071D01*
X11836061Y-15476929D01*
X11836061Y-15405500D01*
X11850347Y-15348357D01*
X11864633Y-15319786D01*
X11878918Y-15305500D01*
X11907490Y-15291214D01*
X12136061Y-15562643D02*
X12150347Y-15576929D01*
X12136061Y-15591214D01*
X12121776Y-15576929D01*
X12136061Y-15562643D01*
X12136061Y-15591214D01*
X12336061Y-15291214D02*
X12364633Y-15291214D01*
X12393204Y-15305500D01*
X12407490Y-15319786D01*
X12421776Y-15348357D01*
X12436061Y-15405500D01*
X12436061Y-15476929D01*
X12421776Y-15534071D01*
X12407490Y-15562643D01*
X12393204Y-15576929D01*
X12364633Y-15591214D01*
X12336061Y-15591214D01*
X12307490Y-15576929D01*
X12293204Y-15562643D01*
X12278918Y-15534071D01*
X12264633Y-15476929D01*
X12264633Y-15405500D01*
X12278918Y-15348357D01*
X12293204Y-15319786D01*
X12307490Y-15305500D01*
X12336061Y-15291214D01*
X12536061Y-15291214D02*
X12721776Y-15291214D01*
X12621776Y-15405500D01*
X12664633Y-15405500D01*
X12693204Y-15419786D01*
X12707490Y-15434071D01*
X12721776Y-15462643D01*
X12721776Y-15534071D01*
X12707490Y-15562643D01*
X12693204Y-15576929D01*
X12664633Y-15591214D01*
X12578918Y-15591214D01*
X12550347Y-15576929D01*
X12536061Y-15562643D01*
X12821776Y-15291214D02*
X13007490Y-15291214D01*
X12907490Y-15405500D01*
X12950347Y-15405500D01*
X12978918Y-15419786D01*
X12993204Y-15434071D01*
X13007490Y-15462643D01*
X13007490Y-15534071D01*
X12993204Y-15562643D01*
X12978918Y-15576929D01*
X12950347Y-15591214D01*
X12864633Y-15591214D01*
X12836061Y-15576929D01*
X12821776Y-15562643D01*
X13121776Y-15291214D02*
X13121776Y-15348357D01*
X13236061Y-15291214D02*
X13236061Y-15348357D01*
X13678918Y-15705500D02*
X13664633Y-15691214D01*
X13636061Y-15648357D01*
X13621776Y-15619786D01*
X13607490Y-15576929D01*
X13593204Y-15505500D01*
X13593204Y-15448357D01*
X13607490Y-15376929D01*
X13621776Y-15334071D01*
X13636061Y-15305500D01*
X13664633Y-15262643D01*
X13678918Y-15248357D01*
X13921776Y-15391214D02*
X13921776Y-15591214D01*
X13850347Y-15276929D02*
X13778918Y-15491214D01*
X13964633Y-15491214D01*
X14307490Y-15591214D02*
X14307490Y-15291214D01*
X14436061Y-15591214D02*
X14436061Y-15434071D01*
X14421776Y-15405500D01*
X14393204Y-15391214D01*
X14350347Y-15391214D01*
X14321776Y-15405500D01*
X14307490Y-15419786D01*
X14621776Y-15591214D02*
X14593204Y-15576929D01*
X14578918Y-15562643D01*
X14564633Y-15534071D01*
X14564633Y-15448357D01*
X14578918Y-15419786D01*
X14593204Y-15405500D01*
X14621776Y-15391214D01*
X14664633Y-15391214D01*
X14693204Y-15405500D01*
X14707490Y-15419786D01*
X14721776Y-15448357D01*
X14721776Y-15534071D01*
X14707490Y-15562643D01*
X14693204Y-15576929D01*
X14664633Y-15591214D01*
X14621776Y-15591214D01*
X14893204Y-15591214D02*
X14864633Y-15576929D01*
X14850347Y-15548357D01*
X14850347Y-15291214D01*
X15121776Y-15576929D02*
X15093204Y-15591214D01*
X15036061Y-15591214D01*
X15007490Y-15576929D01*
X14993204Y-15548357D01*
X14993204Y-15434071D01*
X15007490Y-15405500D01*
X15036061Y-15391214D01*
X15093204Y-15391214D01*
X15121776Y-15405500D01*
X15136061Y-15434071D01*
X15136061Y-15462643D01*
X14993204Y-15491214D01*
X15250347Y-15576929D02*
X15278918Y-15591214D01*
X15336061Y-15591214D01*
X15364633Y-15576929D01*
X15378918Y-15548357D01*
X15378918Y-15534071D01*
X15364633Y-15505500D01*
X15336061Y-15491214D01*
X15293204Y-15491214D01*
X15264633Y-15476929D01*
X15250347Y-15448357D01*
X15250347Y-15434071D01*
X15264633Y-15405500D01*
X15293204Y-15391214D01*
X15336061Y-15391214D01*
X15364633Y-15405500D01*
X15478918Y-15705500D02*
X15493204Y-15691214D01*
X15521776Y-15648357D01*
X15536061Y-15619786D01*
X15550347Y-15576929D01*
X15564633Y-15505500D01*
X15564633Y-15448357D01*
X15550347Y-15376929D01*
X15536061Y-15334071D01*
X15521776Y-15305500D01*
X15493204Y-15262643D01*
X15478918Y-15248357D01*
X8947490Y-15896500D02*
X8992490Y-15851500D01*
X8947490Y-15806500D01*
X8902490Y-15851500D01*
X8947490Y-15896500D01*
X9336061Y-15687214D02*
X9364633Y-15687214D01*
X9393204Y-15701500D01*
X9407490Y-15715786D01*
X9421776Y-15744357D01*
X9436061Y-15801500D01*
X9436061Y-15872929D01*
X9421776Y-15930071D01*
X9407490Y-15958643D01*
X9393204Y-15972929D01*
X9364633Y-15987214D01*
X9336061Y-15987214D01*
X9307490Y-15972929D01*
X9293204Y-15958643D01*
X9278918Y-15930071D01*
X9264633Y-15872929D01*
X9264633Y-15801500D01*
X9278918Y-15744357D01*
X9293204Y-15715786D01*
X9307490Y-15701500D01*
X9336061Y-15687214D01*
X9564633Y-15958643D02*
X9578918Y-15972929D01*
X9564633Y-15987214D01*
X9550347Y-15972929D01*
X9564633Y-15958643D01*
X9564633Y-15987214D01*
X9721776Y-15987214D02*
X9778918Y-15987214D01*
X9807490Y-15972929D01*
X9821776Y-15958643D01*
X9850347Y-15915786D01*
X9864633Y-15858643D01*
X9864633Y-15744357D01*
X9850347Y-15715786D01*
X9836061Y-15701500D01*
X9807490Y-15687214D01*
X9750347Y-15687214D01*
X9721776Y-15701500D01*
X9707490Y-15715786D01*
X9693204Y-15744357D01*
X9693204Y-15815786D01*
X9707490Y-15844357D01*
X9721776Y-15858643D01*
X9750347Y-15872929D01*
X9807490Y-15872929D01*
X9836061Y-15858643D01*
X9850347Y-15844357D01*
X9864633Y-15815786D01*
X10050347Y-15687214D02*
X10078918Y-15687214D01*
X10107490Y-15701500D01*
X10121776Y-15715786D01*
X10136061Y-15744357D01*
X10150347Y-15801500D01*
X10150347Y-15872929D01*
X10136061Y-15930071D01*
X10121776Y-15958643D01*
X10107490Y-15972929D01*
X10078918Y-15987214D01*
X10050347Y-15987214D01*
X10021776Y-15972929D01*
X10007490Y-15958643D01*
X9993204Y-15930071D01*
X9978918Y-15872929D01*
X9978918Y-15801500D01*
X9993204Y-15744357D01*
X10007490Y-15715786D01*
X10021776Y-15701500D01*
X10050347Y-15687214D01*
X10278918Y-15987214D02*
X10278918Y-15787214D01*
X10278918Y-15815786D02*
X10293204Y-15801500D01*
X10321776Y-15787214D01*
X10364633Y-15787214D01*
X10393204Y-15801500D01*
X10407490Y-15830071D01*
X10407490Y-15987214D01*
X10407490Y-15830071D02*
X10421776Y-15801500D01*
X10450347Y-15787214D01*
X10493204Y-15787214D01*
X10521776Y-15801500D01*
X10536061Y-15830071D01*
X10536061Y-15987214D01*
X10678918Y-15987214D02*
X10678918Y-15787214D01*
X10678918Y-15815786D02*
X10693204Y-15801500D01*
X10721776Y-15787214D01*
X10764633Y-15787214D01*
X10793204Y-15801500D01*
X10807490Y-15830071D01*
X10807490Y-15987214D01*
X10807490Y-15830071D02*
X10821776Y-15801500D01*
X10850347Y-15787214D01*
X10893204Y-15787214D01*
X10921776Y-15801500D01*
X10936061Y-15830071D01*
X10936061Y-15987214D01*
X11521776Y-15672929D02*
X11264633Y-16058643D01*
X11907490Y-15687214D02*
X11936061Y-15687214D01*
X11964633Y-15701500D01*
X11978918Y-15715786D01*
X11993204Y-15744357D01*
X12007490Y-15801500D01*
X12007490Y-15872929D01*
X11993204Y-15930071D01*
X11978918Y-15958643D01*
X11964633Y-15972929D01*
X11936061Y-15987214D01*
X11907490Y-15987214D01*
X11878918Y-15972929D01*
X11864633Y-15958643D01*
X11850347Y-15930071D01*
X11836061Y-15872929D01*
X11836061Y-15801500D01*
X11850347Y-15744357D01*
X11864633Y-15715786D01*
X11878918Y-15701500D01*
X11907490Y-15687214D01*
X12136061Y-15958643D02*
X12150347Y-15972929D01*
X12136061Y-15987214D01*
X12121776Y-15972929D01*
X12136061Y-15958643D01*
X12136061Y-15987214D01*
X12336061Y-15687214D02*
X12364633Y-15687214D01*
X12393204Y-15701500D01*
X12407490Y-15715786D01*
X12421776Y-15744357D01*
X12436061Y-15801500D01*
X12436061Y-15872929D01*
X12421776Y-15930071D01*
X12407490Y-15958643D01*
X12393204Y-15972929D01*
X12364633Y-15987214D01*
X12336061Y-15987214D01*
X12307490Y-15972929D01*
X12293204Y-15958643D01*
X12278918Y-15930071D01*
X12264633Y-15872929D01*
X12264633Y-15801500D01*
X12278918Y-15744357D01*
X12293204Y-15715786D01*
X12307490Y-15701500D01*
X12336061Y-15687214D01*
X12536061Y-15687214D02*
X12721776Y-15687214D01*
X12621776Y-15801500D01*
X12664633Y-15801500D01*
X12693204Y-15815786D01*
X12707490Y-15830071D01*
X12721776Y-15858643D01*
X12721776Y-15930071D01*
X12707490Y-15958643D01*
X12693204Y-15972929D01*
X12664633Y-15987214D01*
X12578918Y-15987214D01*
X12550347Y-15972929D01*
X12536061Y-15958643D01*
X12993204Y-15687214D02*
X12850347Y-15687214D01*
X12836061Y-15830071D01*
X12850347Y-15815786D01*
X12878918Y-15801500D01*
X12950347Y-15801500D01*
X12978918Y-15815786D01*
X12993204Y-15830071D01*
X13007490Y-15858643D01*
X13007490Y-15930071D01*
X12993204Y-15958643D01*
X12978918Y-15972929D01*
X12950347Y-15987214D01*
X12878918Y-15987214D01*
X12850347Y-15972929D01*
X12836061Y-15958643D01*
X13121776Y-15687214D02*
X13121776Y-15744357D01*
X13236061Y-15687214D02*
X13236061Y-15744357D01*
X13678918Y-16101500D02*
X13664633Y-16087214D01*
X13636061Y-16044357D01*
X13621776Y-16015786D01*
X13607490Y-15972929D01*
X13593204Y-15901500D01*
X13593204Y-15844357D01*
X13607490Y-15772929D01*
X13621776Y-15730071D01*
X13636061Y-15701500D01*
X13664633Y-15658643D01*
X13678918Y-15644357D01*
X13764633Y-15687214D02*
X13950347Y-15687214D01*
X13850347Y-15801500D01*
X13893204Y-15801500D01*
X13921776Y-15815786D01*
X13936061Y-15830071D01*
X13950347Y-15858643D01*
X13950347Y-15930071D01*
X13936061Y-15958643D01*
X13921776Y-15972929D01*
X13893204Y-15987214D01*
X13807490Y-15987214D01*
X13778918Y-15972929D01*
X13764633Y-15958643D01*
X14207490Y-15787214D02*
X14207490Y-15987214D01*
X14136061Y-15672929D02*
X14064633Y-15887214D01*
X14250347Y-15887214D01*
X14593204Y-15987214D02*
X14593204Y-15687214D01*
X14721776Y-15987214D02*
X14721776Y-15830071D01*
X14707490Y-15801500D01*
X14678918Y-15787214D01*
X14636061Y-15787214D01*
X14607490Y-15801500D01*
X14593204Y-15815786D01*
X14907490Y-15987214D02*
X14878918Y-15972929D01*
X14864633Y-15958643D01*
X14850347Y-15930071D01*
X14850347Y-15844357D01*
X14864633Y-15815786D01*
X14878918Y-15801500D01*
X14907490Y-15787214D01*
X14950347Y-15787214D01*
X14978918Y-15801500D01*
X14993204Y-15815786D01*
X15007490Y-15844357D01*
X15007490Y-15930071D01*
X14993204Y-15958643D01*
X14978918Y-15972929D01*
X14950347Y-15987214D01*
X14907490Y-15987214D01*
X15178918Y-15987214D02*
X15150347Y-15972929D01*
X15136061Y-15944357D01*
X15136061Y-15687214D01*
X15407490Y-15972929D02*
X15378918Y-15987214D01*
X15321776Y-15987214D01*
X15293204Y-15972929D01*
X15278918Y-15944357D01*
X15278918Y-15830071D01*
X15293204Y-15801500D01*
X15321776Y-15787214D01*
X15378918Y-15787214D01*
X15407490Y-15801500D01*
X15421776Y-15830071D01*
X15421776Y-15858643D01*
X15278918Y-15887214D01*
X15536061Y-15972929D02*
X15564633Y-15987214D01*
X15621776Y-15987214D01*
X15650347Y-15972929D01*
X15664633Y-15944357D01*
X15664633Y-15930071D01*
X15650347Y-15901500D01*
X15621776Y-15887214D01*
X15578918Y-15887214D01*
X15550347Y-15872929D01*
X15536061Y-15844357D01*
X15536061Y-15830071D01*
X15550347Y-15801500D01*
X15578918Y-15787214D01*
X15621776Y-15787214D01*
X15650347Y-15801500D01*
X15764633Y-16101500D02*
X15778918Y-16087214D01*
X15807490Y-16044357D01*
X15821776Y-16015786D01*
X15836061Y-15972929D01*
X15850347Y-15901500D01*
X15850347Y-15844357D01*
X15836061Y-15772929D01*
X15821776Y-15730071D01*
X15807490Y-15701500D01*
X15778918Y-15658643D01*
X15764633Y-15644357D01*
X8892490Y-16197500D02*
X8992490Y-16297500D01*
X8992490Y-16197500D02*
X8892490Y-16297500D01*
X8992490Y-16247500D02*
G75*
G03X8992490Y-16247500I-50000J0D01*
G01*
X9436061Y-16383214D02*
X9264633Y-16383214D01*
X9350347Y-16383214D02*
X9350347Y-16083214D01*
X9321776Y-16126071D01*
X9293204Y-16154643D01*
X9264633Y-16168929D01*
X9564633Y-16354643D02*
X9578918Y-16368929D01*
X9564633Y-16383214D01*
X9550347Y-16368929D01*
X9564633Y-16354643D01*
X9564633Y-16383214D01*
X9764633Y-16083214D02*
X9793204Y-16083214D01*
X9821776Y-16097500D01*
X9836061Y-16111786D01*
X9850347Y-16140357D01*
X9864633Y-16197500D01*
X9864633Y-16268929D01*
X9850347Y-16326071D01*
X9836061Y-16354643D01*
X9821776Y-16368929D01*
X9793204Y-16383214D01*
X9764633Y-16383214D01*
X9736061Y-16368929D01*
X9721776Y-16354643D01*
X9707490Y-16326071D01*
X9693204Y-16268929D01*
X9693204Y-16197500D01*
X9707490Y-16140357D01*
X9721776Y-16111786D01*
X9736061Y-16097500D01*
X9764633Y-16083214D01*
X10050347Y-16083214D02*
X10078918Y-16083214D01*
X10107490Y-16097500D01*
X10121776Y-16111786D01*
X10136061Y-16140357D01*
X10150347Y-16197500D01*
X10150347Y-16268929D01*
X10136061Y-16326071D01*
X10121776Y-16354643D01*
X10107490Y-16368929D01*
X10078918Y-16383214D01*
X10050347Y-16383214D01*
X10021776Y-16368929D01*
X10007490Y-16354643D01*
X9993204Y-16326071D01*
X9978918Y-16268929D01*
X9978918Y-16197500D01*
X9993204Y-16140357D01*
X10007490Y-16111786D01*
X10021776Y-16097500D01*
X10050347Y-16083214D01*
X10278918Y-16383214D02*
X10278918Y-16183214D01*
X10278918Y-16211786D02*
X10293204Y-16197500D01*
X10321776Y-16183214D01*
X10364633Y-16183214D01*
X10393204Y-16197500D01*
X10407490Y-16226071D01*
X10407490Y-16383214D01*
X10407490Y-16226071D02*
X10421776Y-16197500D01*
X10450347Y-16183214D01*
X10493204Y-16183214D01*
X10521776Y-16197500D01*
X10536061Y-16226071D01*
X10536061Y-16383214D01*
X10678918Y-16383214D02*
X10678918Y-16183214D01*
X10678918Y-16211786D02*
X10693204Y-16197500D01*
X10721776Y-16183214D01*
X10764633Y-16183214D01*
X10793204Y-16197500D01*
X10807490Y-16226071D01*
X10807490Y-16383214D01*
X10807490Y-16226071D02*
X10821776Y-16197500D01*
X10850347Y-16183214D01*
X10893204Y-16183214D01*
X10921776Y-16197500D01*
X10936061Y-16226071D01*
X10936061Y-16383214D01*
X11521776Y-16068929D02*
X11264633Y-16454643D01*
X11907490Y-16083214D02*
X11936061Y-16083214D01*
X11964633Y-16097500D01*
X11978918Y-16111786D01*
X11993204Y-16140357D01*
X12007490Y-16197500D01*
X12007490Y-16268929D01*
X11993204Y-16326071D01*
X11978918Y-16354643D01*
X11964633Y-16368929D01*
X11936061Y-16383214D01*
X11907490Y-16383214D01*
X11878918Y-16368929D01*
X11864633Y-16354643D01*
X11850347Y-16326071D01*
X11836061Y-16268929D01*
X11836061Y-16197500D01*
X11850347Y-16140357D01*
X11864633Y-16111786D01*
X11878918Y-16097500D01*
X11907490Y-16083214D01*
X12136061Y-16354643D02*
X12150347Y-16368929D01*
X12136061Y-16383214D01*
X12121776Y-16368929D01*
X12136061Y-16354643D01*
X12136061Y-16383214D01*
X12336061Y-16083214D02*
X12364633Y-16083214D01*
X12393204Y-16097500D01*
X12407490Y-16111786D01*
X12421776Y-16140357D01*
X12436061Y-16197500D01*
X12436061Y-16268929D01*
X12421776Y-16326071D01*
X12407490Y-16354643D01*
X12393204Y-16368929D01*
X12364633Y-16383214D01*
X12336061Y-16383214D01*
X12307490Y-16368929D01*
X12293204Y-16354643D01*
X12278918Y-16326071D01*
X12264633Y-16268929D01*
X12264633Y-16197500D01*
X12278918Y-16140357D01*
X12293204Y-16111786D01*
X12307490Y-16097500D01*
X12336061Y-16083214D01*
X12536061Y-16083214D02*
X12721776Y-16083214D01*
X12621776Y-16197500D01*
X12664633Y-16197500D01*
X12693204Y-16211786D01*
X12707490Y-16226071D01*
X12721776Y-16254643D01*
X12721776Y-16326071D01*
X12707490Y-16354643D01*
X12693204Y-16368929D01*
X12664633Y-16383214D01*
X12578918Y-16383214D01*
X12550347Y-16368929D01*
X12536061Y-16354643D01*
X12864633Y-16383214D02*
X12921776Y-16383214D01*
X12950347Y-16368929D01*
X12964633Y-16354643D01*
X12993204Y-16311786D01*
X13007490Y-16254643D01*
X13007490Y-16140357D01*
X12993204Y-16111786D01*
X12978918Y-16097500D01*
X12950347Y-16083214D01*
X12893204Y-16083214D01*
X12864633Y-16097500D01*
X12850347Y-16111786D01*
X12836061Y-16140357D01*
X12836061Y-16211786D01*
X12850347Y-16240357D01*
X12864633Y-16254643D01*
X12893204Y-16268929D01*
X12950347Y-16268929D01*
X12978918Y-16254643D01*
X12993204Y-16240357D01*
X13007490Y-16211786D01*
X13121776Y-16083214D02*
X13121776Y-16140357D01*
X13236061Y-16083214D02*
X13236061Y-16140357D01*
X13678918Y-16497500D02*
X13664633Y-16483214D01*
X13636061Y-16440357D01*
X13621776Y-16411786D01*
X13607490Y-16368929D01*
X13593204Y-16297500D01*
X13593204Y-16240357D01*
X13607490Y-16168929D01*
X13621776Y-16126071D01*
X13636061Y-16097500D01*
X13664633Y-16054643D01*
X13678918Y-16040357D01*
X13764633Y-16083214D02*
X13950347Y-16083214D01*
X13850347Y-16197500D01*
X13893204Y-16197500D01*
X13921776Y-16211786D01*
X13936061Y-16226071D01*
X13950347Y-16254643D01*
X13950347Y-16326071D01*
X13936061Y-16354643D01*
X13921776Y-16368929D01*
X13893204Y-16383214D01*
X13807490Y-16383214D01*
X13778918Y-16368929D01*
X13764633Y-16354643D01*
X14221776Y-16083214D02*
X14078918Y-16083214D01*
X14064633Y-16226071D01*
X14078918Y-16211786D01*
X14107490Y-16197500D01*
X14178918Y-16197500D01*
X14207490Y-16211786D01*
X14221776Y-16226071D01*
X14236061Y-16254643D01*
X14236061Y-16326071D01*
X14221776Y-16354643D01*
X14207490Y-16368929D01*
X14178918Y-16383214D01*
X14107490Y-16383214D01*
X14078918Y-16368929D01*
X14064633Y-16354643D01*
X14593204Y-16383214D02*
X14593204Y-16083214D01*
X14721776Y-16383214D02*
X14721776Y-16226071D01*
X14707490Y-16197500D01*
X14678918Y-16183214D01*
X14636061Y-16183214D01*
X14607490Y-16197500D01*
X14593204Y-16211786D01*
X14907490Y-16383214D02*
X14878918Y-16368929D01*
X14864633Y-16354643D01*
X14850347Y-16326071D01*
X14850347Y-16240357D01*
X14864633Y-16211786D01*
X14878918Y-16197500D01*
X14907490Y-16183214D01*
X14950347Y-16183214D01*
X14978918Y-16197500D01*
X14993204Y-16211786D01*
X15007490Y-16240357D01*
X15007490Y-16326071D01*
X14993204Y-16354643D01*
X14978918Y-16368929D01*
X14950347Y-16383214D01*
X14907490Y-16383214D01*
X15178918Y-16383214D02*
X15150347Y-16368929D01*
X15136061Y-16340357D01*
X15136061Y-16083214D01*
X15407490Y-16368929D02*
X15378918Y-16383214D01*
X15321776Y-16383214D01*
X15293204Y-16368929D01*
X15278918Y-16340357D01*
X15278918Y-16226071D01*
X15293204Y-16197500D01*
X15321776Y-16183214D01*
X15378918Y-16183214D01*
X15407490Y-16197500D01*
X15421776Y-16226071D01*
X15421776Y-16254643D01*
X15278918Y-16283214D01*
X15536061Y-16368929D02*
X15564633Y-16383214D01*
X15621776Y-16383214D01*
X15650347Y-16368929D01*
X15664633Y-16340357D01*
X15664633Y-16326071D01*
X15650347Y-16297500D01*
X15621776Y-16283214D01*
X15578918Y-16283214D01*
X15550347Y-16268929D01*
X15536061Y-16240357D01*
X15536061Y-16226071D01*
X15550347Y-16197500D01*
X15578918Y-16183214D01*
X15621776Y-16183214D01*
X15650347Y-16197500D01*
X16021776Y-16268929D02*
X16250347Y-16268929D01*
X16136061Y-16383214D02*
X16136061Y-16154643D01*
X16593204Y-16083214D02*
X16778918Y-16083214D01*
X16678918Y-16197500D01*
X16721776Y-16197500D01*
X16750347Y-16211786D01*
X16764633Y-16226071D01*
X16778918Y-16254643D01*
X16778918Y-16326071D01*
X16764633Y-16354643D01*
X16750347Y-16368929D01*
X16721776Y-16383214D01*
X16636061Y-16383214D01*
X16607490Y-16368929D01*
X16593204Y-16354643D01*
X17121776Y-16368929D02*
X17150347Y-16383214D01*
X17207490Y-16383214D01*
X17236061Y-16368929D01*
X17250347Y-16340357D01*
X17250347Y-16326071D01*
X17236061Y-16297500D01*
X17207490Y-16283214D01*
X17164633Y-16283214D01*
X17136061Y-16268929D01*
X17121776Y-16240357D01*
X17121776Y-16226071D01*
X17136061Y-16197500D01*
X17164633Y-16183214D01*
X17207490Y-16183214D01*
X17236061Y-16197500D01*
X17421776Y-16383214D02*
X17393204Y-16368929D01*
X17378918Y-16340357D01*
X17378918Y-16083214D01*
X17578918Y-16383214D02*
X17550347Y-16368929D01*
X17536061Y-16354643D01*
X17521776Y-16326071D01*
X17521776Y-16240357D01*
X17536061Y-16211786D01*
X17550347Y-16197500D01*
X17578918Y-16183214D01*
X17621776Y-16183214D01*
X17650347Y-16197500D01*
X17664633Y-16211786D01*
X17678918Y-16240357D01*
X17678918Y-16326071D01*
X17664633Y-16354643D01*
X17650347Y-16368929D01*
X17621776Y-16383214D01*
X17578918Y-16383214D01*
X17764633Y-16183214D02*
X17878918Y-16183214D01*
X17807490Y-16083214D02*
X17807490Y-16340357D01*
X17821776Y-16368929D01*
X17850347Y-16383214D01*
X17878918Y-16383214D01*
X17964633Y-16368929D02*
X17993204Y-16383214D01*
X18050347Y-16383214D01*
X18078918Y-16368929D01*
X18093204Y-16340357D01*
X18093204Y-16326071D01*
X18078918Y-16297500D01*
X18050347Y-16283214D01*
X18007490Y-16283214D01*
X17978918Y-16268929D01*
X17964633Y-16240357D01*
X17964633Y-16226071D01*
X17978918Y-16197500D01*
X18007490Y-16183214D01*
X18050347Y-16183214D01*
X18078918Y-16197500D01*
X18193204Y-16497500D02*
X18207490Y-16483214D01*
X18236061Y-16440357D01*
X18250347Y-16411786D01*
X18264633Y-16368929D01*
X18278918Y-16297500D01*
X18278918Y-16240357D01*
X18264633Y-16168929D01*
X18250347Y-16126071D01*
X18236061Y-16097500D01*
X18207490Y-16054643D01*
X18193204Y-16040357D01*
X8882490Y-16588500D02*
X8992490Y-16698500D01*
X8992490Y-16588500D02*
X8882490Y-16698500D01*
X8937490Y-16588500D02*
X8937490Y-16698500D01*
X8882490Y-16643500D02*
X8992490Y-16643500D01*
X9436061Y-16779214D02*
X9264633Y-16779214D01*
X9350347Y-16779214D02*
X9350347Y-16479214D01*
X9321776Y-16522071D01*
X9293204Y-16550643D01*
X9264633Y-16564929D01*
X9564633Y-16750643D02*
X9578918Y-16764929D01*
X9564633Y-16779214D01*
X9550347Y-16764929D01*
X9564633Y-16750643D01*
X9564633Y-16779214D01*
X9864633Y-16779214D02*
X9693204Y-16779214D01*
X9778918Y-16779214D02*
X9778918Y-16479214D01*
X9750347Y-16522071D01*
X9721776Y-16550643D01*
X9693204Y-16564929D01*
X10050347Y-16479214D02*
X10078918Y-16479214D01*
X10107490Y-16493500D01*
X10121776Y-16507786D01*
X10136061Y-16536357D01*
X10150347Y-16593500D01*
X10150347Y-16664929D01*
X10136061Y-16722071D01*
X10121776Y-16750643D01*
X10107490Y-16764929D01*
X10078918Y-16779214D01*
X10050347Y-16779214D01*
X10021776Y-16764929D01*
X10007490Y-16750643D01*
X9993204Y-16722071D01*
X9978918Y-16664929D01*
X9978918Y-16593500D01*
X9993204Y-16536357D01*
X10007490Y-16507786D01*
X10021776Y-16493500D01*
X10050347Y-16479214D01*
X10278918Y-16779214D02*
X10278918Y-16579214D01*
X10278918Y-16607786D02*
X10293204Y-16593500D01*
X10321776Y-16579214D01*
X10364633Y-16579214D01*
X10393204Y-16593500D01*
X10407490Y-16622071D01*
X10407490Y-16779214D01*
X10407490Y-16622071D02*
X10421776Y-16593500D01*
X10450347Y-16579214D01*
X10493204Y-16579214D01*
X10521776Y-16593500D01*
X10536061Y-16622071D01*
X10536061Y-16779214D01*
X10678918Y-16779214D02*
X10678918Y-16579214D01*
X10678918Y-16607786D02*
X10693204Y-16593500D01*
X10721776Y-16579214D01*
X10764633Y-16579214D01*
X10793204Y-16593500D01*
X10807490Y-16622071D01*
X10807490Y-16779214D01*
X10807490Y-16622071D02*
X10821776Y-16593500D01*
X10850347Y-16579214D01*
X10893204Y-16579214D01*
X10921776Y-16593500D01*
X10936061Y-16622071D01*
X10936061Y-16779214D01*
X11521776Y-16464929D02*
X11264633Y-16850643D01*
X11907490Y-16479214D02*
X11936061Y-16479214D01*
X11964633Y-16493500D01*
X11978918Y-16507786D01*
X11993204Y-16536357D01*
X12007490Y-16593500D01*
X12007490Y-16664929D01*
X11993204Y-16722071D01*
X11978918Y-16750643D01*
X11964633Y-16764929D01*
X11936061Y-16779214D01*
X11907490Y-16779214D01*
X11878918Y-16764929D01*
X11864633Y-16750643D01*
X11850347Y-16722071D01*
X11836061Y-16664929D01*
X11836061Y-16593500D01*
X11850347Y-16536357D01*
X11864633Y-16507786D01*
X11878918Y-16493500D01*
X11907490Y-16479214D01*
X12136061Y-16750643D02*
X12150347Y-16764929D01*
X12136061Y-16779214D01*
X12121776Y-16764929D01*
X12136061Y-16750643D01*
X12136061Y-16779214D01*
X12336061Y-16479214D02*
X12364633Y-16479214D01*
X12393204Y-16493500D01*
X12407490Y-16507786D01*
X12421776Y-16536357D01*
X12436061Y-16593500D01*
X12436061Y-16664929D01*
X12421776Y-16722071D01*
X12407490Y-16750643D01*
X12393204Y-16764929D01*
X12364633Y-16779214D01*
X12336061Y-16779214D01*
X12307490Y-16764929D01*
X12293204Y-16750643D01*
X12278918Y-16722071D01*
X12264633Y-16664929D01*
X12264633Y-16593500D01*
X12278918Y-16536357D01*
X12293204Y-16507786D01*
X12307490Y-16493500D01*
X12336061Y-16479214D01*
X12693204Y-16579214D02*
X12693204Y-16779214D01*
X12621776Y-16464929D02*
X12550347Y-16679214D01*
X12736061Y-16679214D01*
X12821776Y-16479214D02*
X13007490Y-16479214D01*
X12907490Y-16593500D01*
X12950347Y-16593500D01*
X12978918Y-16607786D01*
X12993204Y-16622071D01*
X13007490Y-16650643D01*
X13007490Y-16722071D01*
X12993204Y-16750643D01*
X12978918Y-16764929D01*
X12950347Y-16779214D01*
X12864633Y-16779214D01*
X12836061Y-16764929D01*
X12821776Y-16750643D01*
X13121776Y-16479214D02*
X13121776Y-16536357D01*
X13236061Y-16479214D02*
X13236061Y-16536357D01*
X13678918Y-16893500D02*
X13664633Y-16879214D01*
X13636061Y-16836357D01*
X13621776Y-16807786D01*
X13607490Y-16764929D01*
X13593204Y-16693500D01*
X13593204Y-16636357D01*
X13607490Y-16564929D01*
X13621776Y-16522071D01*
X13636061Y-16493500D01*
X13664633Y-16450643D01*
X13678918Y-16436357D01*
X13764633Y-16479214D02*
X13950347Y-16479214D01*
X13850347Y-16593500D01*
X13893204Y-16593500D01*
X13921776Y-16607786D01*
X13936061Y-16622071D01*
X13950347Y-16650643D01*
X13950347Y-16722071D01*
X13936061Y-16750643D01*
X13921776Y-16764929D01*
X13893204Y-16779214D01*
X13807490Y-16779214D01*
X13778918Y-16764929D01*
X13764633Y-16750643D01*
X14307490Y-16779214D02*
X14307490Y-16479214D01*
X14436061Y-16779214D02*
X14436061Y-16622071D01*
X14421776Y-16593500D01*
X14393204Y-16579214D01*
X14350347Y-16579214D01*
X14321776Y-16593500D01*
X14307490Y-16607786D01*
X14621776Y-16779214D02*
X14593204Y-16764929D01*
X14578918Y-16750643D01*
X14564633Y-16722071D01*
X14564633Y-16636357D01*
X14578918Y-16607786D01*
X14593204Y-16593500D01*
X14621776Y-16579214D01*
X14664633Y-16579214D01*
X14693204Y-16593500D01*
X14707490Y-16607786D01*
X14721776Y-16636357D01*
X14721776Y-16722071D01*
X14707490Y-16750643D01*
X14693204Y-16764929D01*
X14664633Y-16779214D01*
X14621776Y-16779214D01*
X14893204Y-16779214D02*
X14864633Y-16764929D01*
X14850347Y-16736357D01*
X14850347Y-16479214D01*
X15121776Y-16764929D02*
X15093204Y-16779214D01*
X15036061Y-16779214D01*
X15007490Y-16764929D01*
X14993204Y-16736357D01*
X14993204Y-16622071D01*
X15007490Y-16593500D01*
X15036061Y-16579214D01*
X15093204Y-16579214D01*
X15121776Y-16593500D01*
X15136061Y-16622071D01*
X15136061Y-16650643D01*
X14993204Y-16679214D01*
X15250347Y-16764929D02*
X15278918Y-16779214D01*
X15336061Y-16779214D01*
X15364633Y-16764929D01*
X15378918Y-16736357D01*
X15378918Y-16722071D01*
X15364633Y-16693500D01*
X15336061Y-16679214D01*
X15293204Y-16679214D01*
X15264633Y-16664929D01*
X15250347Y-16636357D01*
X15250347Y-16622071D01*
X15264633Y-16593500D01*
X15293204Y-16579214D01*
X15336061Y-16579214D01*
X15364633Y-16593500D01*
X15478918Y-16893500D02*
X15493204Y-16879214D01*
X15521776Y-16836357D01*
X15536061Y-16807786D01*
X15550347Y-16764929D01*
X15564633Y-16693500D01*
X15564633Y-16636357D01*
X15550347Y-16564929D01*
X15536061Y-16522071D01*
X15521776Y-16493500D01*
X15493204Y-16450643D01*
X15478918Y-16436357D01*
X8872490Y-16979500D02*
X8992490Y-17099500D01*
X8992490Y-16979500D02*
X8872490Y-17099500D01*
X8974917Y-17081927D02*
X8974917Y-16997073D01*
X8890063Y-16997073D01*
X8890063Y-17081927D01*
X8974917Y-17081927D01*
X9436061Y-17175214D02*
X9264633Y-17175214D01*
X9350347Y-17175214D02*
X9350347Y-16875214D01*
X9321776Y-16918072D01*
X9293204Y-16946643D01*
X9264633Y-16960929D01*
X9564633Y-17146643D02*
X9578918Y-17160929D01*
X9564633Y-17175214D01*
X9550347Y-17160929D01*
X9564633Y-17146643D01*
X9564633Y-17175214D01*
X9693204Y-16903786D02*
X9707490Y-16889500D01*
X9736061Y-16875214D01*
X9807490Y-16875214D01*
X9836061Y-16889500D01*
X9850347Y-16903786D01*
X9864633Y-16932357D01*
X9864633Y-16960929D01*
X9850347Y-17003786D01*
X9678918Y-17175214D01*
X9864633Y-17175214D01*
X10050347Y-16875214D02*
X10078918Y-16875214D01*
X10107490Y-16889500D01*
X10121776Y-16903786D01*
X10136061Y-16932357D01*
X10150347Y-16989500D01*
X10150347Y-17060929D01*
X10136061Y-17118072D01*
X10121776Y-17146643D01*
X10107490Y-17160929D01*
X10078918Y-17175214D01*
X10050347Y-17175214D01*
X10021776Y-17160929D01*
X10007490Y-17146643D01*
X9993204Y-17118072D01*
X9978918Y-17060929D01*
X9978918Y-16989500D01*
X9993204Y-16932357D01*
X10007490Y-16903786D01*
X10021776Y-16889500D01*
X10050347Y-16875214D01*
X10278918Y-17175214D02*
X10278918Y-16975214D01*
X10278918Y-17003786D02*
X10293204Y-16989500D01*
X10321776Y-16975214D01*
X10364633Y-16975214D01*
X10393204Y-16989500D01*
X10407490Y-17018072D01*
X10407490Y-17175214D01*
X10407490Y-17018072D02*
X10421776Y-16989500D01*
X10450347Y-16975214D01*
X10493204Y-16975214D01*
X10521776Y-16989500D01*
X10536061Y-17018072D01*
X10536061Y-17175214D01*
X10678918Y-17175214D02*
X10678918Y-16975214D01*
X10678918Y-17003786D02*
X10693204Y-16989500D01*
X10721776Y-16975214D01*
X10764633Y-16975214D01*
X10793204Y-16989500D01*
X10807490Y-17018072D01*
X10807490Y-17175214D01*
X10807490Y-17018072D02*
X10821776Y-16989500D01*
X10850347Y-16975214D01*
X10893204Y-16975214D01*
X10921776Y-16989500D01*
X10936061Y-17018072D01*
X10936061Y-17175214D01*
X11521776Y-16860929D02*
X11264633Y-17246643D01*
X11907490Y-16875214D02*
X11936061Y-16875214D01*
X11964633Y-16889500D01*
X11978918Y-16903786D01*
X11993204Y-16932357D01*
X12007490Y-16989500D01*
X12007490Y-17060929D01*
X11993204Y-17118072D01*
X11978918Y-17146643D01*
X11964633Y-17160929D01*
X11936061Y-17175214D01*
X11907490Y-17175214D01*
X11878918Y-17160929D01*
X11864633Y-17146643D01*
X11850347Y-17118072D01*
X11836061Y-17060929D01*
X11836061Y-16989500D01*
X11850347Y-16932357D01*
X11864633Y-16903786D01*
X11878918Y-16889500D01*
X11907490Y-16875214D01*
X12136061Y-17146643D02*
X12150347Y-17160929D01*
X12136061Y-17175214D01*
X12121776Y-17160929D01*
X12136061Y-17146643D01*
X12136061Y-17175214D01*
X12336061Y-16875214D02*
X12364633Y-16875214D01*
X12393204Y-16889500D01*
X12407490Y-16903786D01*
X12421776Y-16932357D01*
X12436061Y-16989500D01*
X12436061Y-17060929D01*
X12421776Y-17118072D01*
X12407490Y-17146643D01*
X12393204Y-17160929D01*
X12364633Y-17175214D01*
X12336061Y-17175214D01*
X12307490Y-17160929D01*
X12293204Y-17146643D01*
X12278918Y-17118072D01*
X12264633Y-17060929D01*
X12264633Y-16989500D01*
X12278918Y-16932357D01*
X12293204Y-16903786D01*
X12307490Y-16889500D01*
X12336061Y-16875214D01*
X12693204Y-16975214D02*
X12693204Y-17175214D01*
X12621776Y-16860929D02*
X12550347Y-17075214D01*
X12736061Y-17075214D01*
X12821776Y-16875214D02*
X13021776Y-16875214D01*
X12893204Y-17175214D01*
X13121776Y-16875214D02*
X13121776Y-16932357D01*
X13236061Y-16875214D02*
X13236061Y-16932357D01*
X13678918Y-17289500D02*
X13664633Y-17275214D01*
X13636061Y-17232357D01*
X13621776Y-17203786D01*
X13607490Y-17160929D01*
X13593204Y-17089500D01*
X13593204Y-17032357D01*
X13607490Y-16960929D01*
X13621776Y-16918072D01*
X13636061Y-16889500D01*
X13664633Y-16846643D01*
X13678918Y-16832357D01*
X13950347Y-17175214D02*
X13778918Y-17175214D01*
X13864633Y-17175214D02*
X13864633Y-16875214D01*
X13836061Y-16918072D01*
X13807490Y-16946643D01*
X13778918Y-16960929D01*
X14207490Y-16875214D02*
X14150347Y-16875214D01*
X14121776Y-16889500D01*
X14107490Y-16903786D01*
X14078918Y-16946643D01*
X14064633Y-17003786D01*
X14064633Y-17118072D01*
X14078918Y-17146643D01*
X14093204Y-17160929D01*
X14121776Y-17175214D01*
X14178918Y-17175214D01*
X14207490Y-17160929D01*
X14221776Y-17146643D01*
X14236061Y-17118072D01*
X14236061Y-17046643D01*
X14221776Y-17018072D01*
X14207490Y-17003786D01*
X14178918Y-16989500D01*
X14121776Y-16989500D01*
X14093204Y-17003786D01*
X14078918Y-17018072D01*
X14064633Y-17046643D01*
X14593204Y-17175214D02*
X14593204Y-16875214D01*
X14721776Y-17175214D02*
X14721776Y-17018072D01*
X14707490Y-16989500D01*
X14678918Y-16975214D01*
X14636061Y-16975214D01*
X14607490Y-16989500D01*
X14593204Y-17003786D01*
X14907490Y-17175214D02*
X14878918Y-17160929D01*
X14864633Y-17146643D01*
X14850347Y-17118072D01*
X14850347Y-17032357D01*
X14864633Y-17003786D01*
X14878918Y-16989500D01*
X14907490Y-16975214D01*
X14950347Y-16975214D01*
X14978918Y-16989500D01*
X14993204Y-17003786D01*
X15007490Y-17032357D01*
X15007490Y-17118072D01*
X14993204Y-17146643D01*
X14978918Y-17160929D01*
X14950347Y-17175214D01*
X14907490Y-17175214D01*
X15178918Y-17175214D02*
X15150347Y-17160929D01*
X15136061Y-17132357D01*
X15136061Y-16875214D01*
X15407490Y-17160929D02*
X15378918Y-17175214D01*
X15321776Y-17175214D01*
X15293204Y-17160929D01*
X15278918Y-17132357D01*
X15278918Y-17018072D01*
X15293204Y-16989500D01*
X15321776Y-16975214D01*
X15378918Y-16975214D01*
X15407490Y-16989500D01*
X15421776Y-17018072D01*
X15421776Y-17046643D01*
X15278918Y-17075214D01*
X15536061Y-17160929D02*
X15564633Y-17175214D01*
X15621776Y-17175214D01*
X15650347Y-17160929D01*
X15664633Y-17132357D01*
X15664633Y-17118072D01*
X15650347Y-17089500D01*
X15621776Y-17075214D01*
X15578918Y-17075214D01*
X15550347Y-17060929D01*
X15536061Y-17032357D01*
X15536061Y-17018072D01*
X15550347Y-16989500D01*
X15578918Y-16975214D01*
X15621776Y-16975214D01*
X15650347Y-16989500D01*
X15764633Y-17289500D02*
X15778918Y-17275214D01*
X15807490Y-17232357D01*
X15821776Y-17203786D01*
X15836061Y-17160929D01*
X15850347Y-17089500D01*
X15850347Y-17032357D01*
X15836061Y-16960929D01*
X15821776Y-16918072D01*
X15807490Y-16889500D01*
X15778918Y-16846643D01*
X15764633Y-16832357D01*
M02*
