M48
;DRILL file {KiCad 5.0.2-bee76a0~70~ubuntu16.04.1} date Tue 14 Jan 2020 09:55:21 AM MST
;FORMAT={3:3/ absolute / metric / suppress leading zeros}
FMAT,2
METRIC,TZ
T1C0.400
T2C0.700
T3C0.800
T4C0.850
T5C0.900
T6C1.000
T7C1.100
T8C1.200
%
G90
G05
T1
X99325Y-63845
X100485Y-73015
X101000Y-96500
X101510Y-71990
X105500Y-97500
X112660Y-62575
X115200Y-91150
X115200Y-98770
X125500Y-71500
X128000Y-105000
X128050Y-95205
X131000Y-103000
X131710Y-72735
X133899Y-98899
X135500Y-100500
X139965Y-71465
X140600Y-72735
X141870Y-74005
X143000Y-70500
X148220Y-89245
X148500Y-99000
X153300Y-71465
X156475Y-81715
X157498Y-80990
X167640Y-83820
X173000Y-91000
T2
X167270Y-107406
X167270Y-109438
X116000Y-80746
X116000Y-82778
X143642Y-105664
X145542Y-105664
X121966Y-105211
X123998Y-105211
X152872Y-65750
X154904Y-65750
T3
X169000Y-70830
X171500Y-70830
X121931Y-86428
X121931Y-88928
X94245Y-70830
X94245Y-73370
X94245Y-75910
X163500Y-102500
X166000Y-102500
X121931Y-81943
X126831Y-81943
X170445Y-87340
X170445Y-89880
X170445Y-92420
X170445Y-94960
X170445Y-97500
X170445Y-100040
X170445Y-102580
X170445Y-105120
X178065Y-87340
X178065Y-89880
X178065Y-92420
X178065Y-94960
X178065Y-97500
X178065Y-100040
X178065Y-102580
X178065Y-105120
X140208Y-97536
X142708Y-97536
X103516Y-69878
X103516Y-77498
X106056Y-69878
X106056Y-77498
X108596Y-69878
X108596Y-77498
X111136Y-69878
X111136Y-77498
X113676Y-69878
X113676Y-77498
X116216Y-69878
X116216Y-77498
X121649Y-109656
X124149Y-109656
X118756Y-69878
X118756Y-77498
X121296Y-69878
X121296Y-77498
X123836Y-69878
X123836Y-77498
X126376Y-69878
X126376Y-77498
X128916Y-69878
X128916Y-77498
X131456Y-69878
X131456Y-77498
X133996Y-69878
X133996Y-77498
X136536Y-69878
X136536Y-77498
X157825Y-63210
X157825Y-65750
X157825Y-68290
X157825Y-70830
X165445Y-63210
X165445Y-65750
X165445Y-68290
X165445Y-70830
X127011Y-86428
X127011Y-88928
T4
X133540Y-112740
X133540Y-130520
X174180Y-112740
X174180Y-130520
T5
X140773Y-86087
X140773Y-93707
X145045Y-109660
X152665Y-109660
X148395Y-77841
X148395Y-85461
X129229Y-102036
X129229Y-109656
X168000Y-65750
X175620Y-65750
X160500Y-97500
X117426Y-96230
X125046Y-96230
X153487Y-77791
X112785Y-91381
X112785Y-99001
X168120Y-97500
X150935Y-77841
X150935Y-85461
X153487Y-85411
X168000Y-63210
X175620Y-63210
X117426Y-99023
X125046Y-99023
X110057Y-91404
X110057Y-99024
X126689Y-102036
X126689Y-109656
X103516Y-80038
X156027Y-77791
X156027Y-85411
X138233Y-86087
X138233Y-93707
X103516Y-87658
T6
X117000Y-121000
X117000Y-123540
X117000Y-126080
X182510Y-70830
X182510Y-73370
X182510Y-75910
X182510Y-78450
X182510Y-80990
X164730Y-76565
X164730Y-84165
X114975Y-106314
X114975Y-108854
X114975Y-111394
X114975Y-113934
X117515Y-106314
X117515Y-108854
X117515Y-111394
X117515Y-113934
X94234Y-90043
X94234Y-92583
X94234Y-95123
X94234Y-97663
X94234Y-81026
X94234Y-83566
X94234Y-86106
X182510Y-87340
X182510Y-89880
X182510Y-92420
X182510Y-94960
X182510Y-97500
X182510Y-100040
X182510Y-102580
X182510Y-105120
X182510Y-107660
X182510Y-110200
T7
X123420Y-113000
X125960Y-113000
X128500Y-113000
T8
X106945Y-64480
X109485Y-64480
X112025Y-64480
X114565Y-64480
X117105Y-64480
X119645Y-64480
X122185Y-64480
X124725Y-64480
X127265Y-64480
X129805Y-64480
X132345Y-64480
X134885Y-64480
X137425Y-64480
X139965Y-64480
X142505Y-64480
X145045Y-64480
T6
X97000Y-122250G85X97000Y-124250
G05
X99000Y-127950G85X101000Y-127950
G05
X103000Y-122250G85X103000Y-124250
G05
T0
M30
