G04 #@! TF.GenerationSoftware,KiCad,Pcbnew,5.0.2-bee76a0~70~ubuntu16.04.1*
G04 #@! TF.CreationDate,2020-01-14T09:55:27-07:00*
G04 #@! TF.ProjectId,Environment_Controller_KiCad_THT,456e7669-726f-46e6-9d65-6e745f436f6e,rev?*
G04 #@! TF.SameCoordinates,Original*
G04 #@! TF.FileFunction,Legend,Bot*
G04 #@! TF.FilePolarity,Positive*
%FSLAX46Y46*%
G04 Gerber Fmt 4.6, Leading zero omitted, Abs format (unit mm)*
G04 Created by KiCad (PCBNEW 5.0.2-bee76a0~70~ubuntu16.04.1) date Tue 14 Jan 2020 09:55:27 AM MST*
%MOMM*%
%LPD*%
G01*
G04 APERTURE LIST*
%ADD10C,0.500000*%
G04 APERTURE END LIST*
D10*
X163500000Y-117000000D02*
X162071428Y-117000000D01*
X163785714Y-117857142D02*
X162785714Y-114857142D01*
X161785714Y-117857142D01*
X160785714Y-117857142D02*
X160785714Y-115857142D01*
X160785714Y-116428571D02*
X160642857Y-116142857D01*
X160500000Y-116000000D01*
X160214285Y-115857142D01*
X159928571Y-115857142D01*
X159357142Y-115857142D02*
X158214285Y-115857142D01*
X158928571Y-114857142D02*
X158928571Y-117428571D01*
X158785714Y-117714285D01*
X158500000Y-117857142D01*
X158214285Y-117857142D01*
X156785714Y-117857142D02*
X157071428Y-117714285D01*
X157214285Y-117571428D01*
X157357142Y-117285714D01*
X157357142Y-116428571D01*
X157214285Y-116142857D01*
X157071428Y-116000000D01*
X156785714Y-115857142D01*
X156357142Y-115857142D01*
X156071428Y-116000000D01*
X155928571Y-116142857D01*
X155785714Y-116428571D01*
X155785714Y-117285714D01*
X155928571Y-117571428D01*
X156071428Y-117714285D01*
X156357142Y-117857142D01*
X156785714Y-117857142D01*
X153071428Y-117857142D02*
X154500000Y-117857142D01*
X154500000Y-114857142D01*
X150785714Y-117857142D02*
X150785714Y-116285714D01*
X150928571Y-116000000D01*
X151214285Y-115857142D01*
X151785714Y-115857142D01*
X152071428Y-116000000D01*
X150785714Y-117714285D02*
X151071428Y-117857142D01*
X151785714Y-117857142D01*
X152071428Y-117714285D01*
X152214285Y-117428571D01*
X152214285Y-117142857D01*
X152071428Y-116857142D01*
X151785714Y-116714285D01*
X151071428Y-116714285D01*
X150785714Y-116571428D01*
X149357142Y-117857142D02*
X149357142Y-114857142D01*
X149357142Y-116000000D02*
X149071428Y-115857142D01*
X148500000Y-115857142D01*
X148214285Y-116000000D01*
X148071428Y-116142857D01*
X147928571Y-116428571D01*
X147928571Y-117285714D01*
X148071428Y-117571428D01*
X148214285Y-117714285D01*
X148500000Y-117857142D01*
X149071428Y-117857142D01*
X149357142Y-117714285D01*
X146785714Y-117714285D02*
X146500000Y-117857142D01*
X145928571Y-117857142D01*
X145642857Y-117714285D01*
X145500000Y-117428571D01*
X145500000Y-117285714D01*
X145642857Y-117000000D01*
X145928571Y-116857142D01*
X146357142Y-116857142D01*
X146642857Y-116714285D01*
X146785714Y-116428571D01*
X146785714Y-116285714D01*
X146642857Y-116000000D01*
X146357142Y-115857142D01*
X145928571Y-115857142D01*
X145642857Y-116000000D01*
X170714285Y-122714285D02*
X170285714Y-122857142D01*
X169571428Y-122857142D01*
X169285714Y-122714285D01*
X169142857Y-122571428D01*
X169000000Y-122285714D01*
X169000000Y-122000000D01*
X169142857Y-121714285D01*
X169285714Y-121571428D01*
X169571428Y-121428571D01*
X170142857Y-121285714D01*
X170428571Y-121142857D01*
X170571428Y-121000000D01*
X170714285Y-120714285D01*
X170714285Y-120428571D01*
X170571428Y-120142857D01*
X170428571Y-120000000D01*
X170142857Y-119857142D01*
X169428571Y-119857142D01*
X169000000Y-120000000D01*
X166571428Y-122714285D02*
X166857142Y-122857142D01*
X167428571Y-122857142D01*
X167714285Y-122714285D01*
X167857142Y-122428571D01*
X167857142Y-121285714D01*
X167714285Y-121000000D01*
X167428571Y-120857142D01*
X166857142Y-120857142D01*
X166571428Y-121000000D01*
X166428571Y-121285714D01*
X166428571Y-121571428D01*
X167857142Y-121857142D01*
X165142857Y-120857142D02*
X165142857Y-122857142D01*
X165142857Y-121142857D02*
X165000000Y-121000000D01*
X164714285Y-120857142D01*
X164285714Y-120857142D01*
X164000000Y-121000000D01*
X163857142Y-121285714D01*
X163857142Y-122857142D01*
X162571428Y-122714285D02*
X162285714Y-122857142D01*
X161714285Y-122857142D01*
X161428571Y-122714285D01*
X161285714Y-122428571D01*
X161285714Y-122285714D01*
X161428571Y-122000000D01*
X161714285Y-121857142D01*
X162142857Y-121857142D01*
X162428571Y-121714285D01*
X162571428Y-121428571D01*
X162571428Y-121285714D01*
X162428571Y-121000000D01*
X162142857Y-120857142D01*
X161714285Y-120857142D01*
X161428571Y-121000000D01*
X160000000Y-122857142D02*
X160000000Y-120857142D01*
X160000000Y-119857142D02*
X160142857Y-120000000D01*
X160000000Y-120142857D01*
X159857142Y-120000000D01*
X160000000Y-119857142D01*
X160000000Y-120142857D01*
X158571428Y-121714285D02*
X156285714Y-121714285D01*
X154857142Y-120857142D02*
X154857142Y-123857142D01*
X154857142Y-121000000D02*
X154571428Y-120857142D01*
X154000000Y-120857142D01*
X153714285Y-121000000D01*
X153571428Y-121142857D01*
X153428571Y-121428571D01*
X153428571Y-122285714D01*
X153571428Y-122571428D01*
X153714285Y-122714285D01*
X154000000Y-122857142D01*
X154571428Y-122857142D01*
X154857142Y-122714285D01*
X151714285Y-122857142D02*
X152000000Y-122714285D01*
X152142857Y-122571428D01*
X152285714Y-122285714D01*
X152285714Y-121428571D01*
X152142857Y-121142857D01*
X152000000Y-121000000D01*
X151714285Y-120857142D01*
X151285714Y-120857142D01*
X151000000Y-121000000D01*
X150857142Y-121142857D01*
X150714285Y-121428571D01*
X150714285Y-122285714D01*
X150857142Y-122571428D01*
X151000000Y-122714285D01*
X151285714Y-122857142D01*
X151714285Y-122857142D01*
X149857142Y-120857142D02*
X148714285Y-120857142D01*
X149428571Y-119857142D02*
X149428571Y-122428571D01*
X149285714Y-122714285D01*
X149000000Y-122857142D01*
X148714285Y-122857142D01*
X147714285Y-122571428D02*
X147571428Y-122714285D01*
X147714285Y-122857142D01*
X147857142Y-122714285D01*
X147714285Y-122571428D01*
X147714285Y-122857142D01*
X145000000Y-122714285D02*
X145285714Y-122857142D01*
X145857142Y-122857142D01*
X146142857Y-122714285D01*
X146285714Y-122571428D01*
X146428571Y-122285714D01*
X146428571Y-121428571D01*
X146285714Y-121142857D01*
X146142857Y-121000000D01*
X145857142Y-120857142D01*
X145285714Y-120857142D01*
X145000000Y-121000000D01*
X143285714Y-122857142D02*
X143571428Y-122714285D01*
X143714285Y-122571428D01*
X143857142Y-122285714D01*
X143857142Y-121428571D01*
X143714285Y-121142857D01*
X143571428Y-121000000D01*
X143285714Y-120857142D01*
X142857142Y-120857142D01*
X142571428Y-121000000D01*
X142428571Y-121142857D01*
X142285714Y-121428571D01*
X142285714Y-122285714D01*
X142428571Y-122571428D01*
X142571428Y-122714285D01*
X142857142Y-122857142D01*
X143285714Y-122857142D01*
X141000000Y-122857142D02*
X141000000Y-120857142D01*
X141000000Y-121142857D02*
X140857142Y-121000000D01*
X140571428Y-120857142D01*
X140142857Y-120857142D01*
X139857142Y-121000000D01*
X139714285Y-121285714D01*
X139714285Y-122857142D01*
X139714285Y-121285714D02*
X139571428Y-121000000D01*
X139285714Y-120857142D01*
X138857142Y-120857142D01*
X138571428Y-121000000D01*
X138428571Y-121285714D01*
X138428571Y-122857142D01*
M02*
