G04 #@! TF.FileFunction,Copper,L2,Bot,Signal*
%FSLAX46Y46*%
G04 Gerber Fmt 4.6, Leading zero omitted, Abs format (unit mm)*
G04 Created by KiCad (PCBNEW 4.0.7-e2-6376~58~ubuntu16.04.1) date Mon Oct 15 06:01:05 2018*
%MOMM*%
%LPD*%
G01*
G04 APERTURE LIST*
%ADD10C,0.100000*%
%ADD11R,1.800000X1.800000*%
%ADD12C,1.800000*%
%ADD13R,1.524000X1.524000*%
%ADD14R,1.600000X1.600000*%
%ADD15O,1.600000X1.600000*%
%ADD16C,1.524000*%
%ADD17C,1.500000*%
%ADD18O,1.800000X1.800000*%
%ADD19C,1.600000*%
%ADD20C,1.440000*%
%ADD21O,2.250000X4.500000*%
%ADD22O,4.500000X2.250000*%
%ADD23R,2.000000X2.000000*%
%ADD24C,1.000000*%
%ADD25C,0.500000*%
%ADD26C,0.254000*%
G04 APERTURE END LIST*
D10*
D11*
X131445000Y-86360000D03*
D12*
X128905000Y-86360000D03*
D13*
X110490000Y-121285000D03*
X110490000Y-123825000D03*
X110490000Y-126365000D03*
D14*
X171525040Y-84803046D03*
D15*
X163905040Y-67023046D03*
X171525040Y-82263046D03*
X163905040Y-69563046D03*
X171525040Y-79723046D03*
X163905040Y-72103046D03*
X171525040Y-77183046D03*
X163905040Y-74643046D03*
X171525040Y-74643046D03*
X163905040Y-77183046D03*
X171525040Y-72103046D03*
X163905040Y-79723046D03*
X171525040Y-69563046D03*
X163905040Y-82263046D03*
X171525040Y-67023046D03*
X163905040Y-84803046D03*
D14*
X113866920Y-63410278D03*
D15*
X146886920Y-55790278D03*
X116406920Y-63410278D03*
X144346920Y-55790278D03*
X118946920Y-63410278D03*
X141806920Y-55790278D03*
X121486920Y-63410278D03*
X139266920Y-55790278D03*
X124026920Y-63410278D03*
X136726920Y-55790278D03*
X126566920Y-63410278D03*
X134186920Y-55790278D03*
X129106920Y-63410278D03*
X131646920Y-55790278D03*
X131646920Y-63410278D03*
X129106920Y-55790278D03*
X134186920Y-63410278D03*
X126566920Y-55790278D03*
X136726920Y-63410278D03*
X124026920Y-55790278D03*
X139266920Y-63410278D03*
X121486920Y-55790278D03*
X141806920Y-63410278D03*
X118946920Y-55790278D03*
X144346920Y-63410278D03*
X116406920Y-55790278D03*
X146886920Y-63410278D03*
X113866920Y-55790278D03*
D16*
X175335040Y-82550000D03*
X175335040Y-85090000D03*
X175335040Y-87630000D03*
X175335040Y-90170000D03*
X175335040Y-92710000D03*
X175335040Y-80010000D03*
X175335040Y-77470000D03*
X175335040Y-74930000D03*
X175335040Y-72390000D03*
X175335040Y-69850000D03*
X175260000Y-59690000D03*
X175260000Y-57150000D03*
X175260000Y-62230000D03*
X175260000Y-54610000D03*
X175260000Y-52070000D03*
X116406920Y-66585278D03*
X118946920Y-66585278D03*
X166370000Y-95885000D03*
D13*
X163830000Y-95885000D03*
D16*
X161290000Y-95885000D03*
X158750000Y-95885000D03*
X156210000Y-95885000D03*
X153670000Y-95885000D03*
X102235000Y-74295000D03*
X104775000Y-74295000D03*
X99695000Y-74295000D03*
D13*
X97155000Y-74295000D03*
D16*
X104775000Y-93980000D03*
X107315000Y-93980000D03*
X102235000Y-93980000D03*
X99695000Y-93980000D03*
D13*
X99695000Y-91440000D03*
D16*
X102235000Y-91440000D03*
X104775000Y-91440000D03*
X107315000Y-91440000D03*
X101600000Y-48260000D03*
X104140000Y-48260000D03*
X106680000Y-48260000D03*
X109220000Y-48260000D03*
X111760000Y-48260000D03*
X114300000Y-48260000D03*
X116840000Y-48260000D03*
X119380000Y-48260000D03*
X121920000Y-48260000D03*
X124460000Y-48260000D03*
X127000000Y-48260000D03*
X129540000Y-48260000D03*
X132080000Y-48260000D03*
X134620000Y-48260000D03*
X137160000Y-48260000D03*
X139700000Y-48260000D03*
D17*
X131646920Y-67855278D03*
X136546920Y-67855278D03*
D11*
X122555000Y-111760000D03*
D18*
X120015000Y-111760000D03*
X117475000Y-111760000D03*
D19*
X125296920Y-71030278D03*
X127836920Y-71030278D03*
X117475000Y-107315000D03*
X114975000Y-107315000D03*
X116205000Y-99695000D03*
X113665000Y-99695000D03*
X131646920Y-74840278D03*
X131646920Y-72340278D03*
X136726920Y-74840278D03*
X136726920Y-72340278D03*
X153745040Y-74643046D03*
X161365040Y-74643046D03*
X153745040Y-79723046D03*
X161365040Y-79723046D03*
X161365040Y-77183046D03*
X153745040Y-77183046D03*
X122555000Y-107315000D03*
X122555000Y-99695000D03*
X120015000Y-107315000D03*
X120015000Y-99695000D03*
X113866920Y-74205278D03*
X113866920Y-66585278D03*
X104681920Y-86835278D03*
X97061920Y-86835278D03*
X104681920Y-84295278D03*
X97061920Y-84295278D03*
X96520000Y-51435000D03*
X104140000Y-51435000D03*
X104775000Y-78740000D03*
X97155000Y-78740000D03*
X104775000Y-81280000D03*
X97155000Y-81280000D03*
X136525000Y-81915000D03*
X128905000Y-81915000D03*
D20*
X119380000Y-86360000D03*
X116840000Y-86360000D03*
X114300000Y-86360000D03*
D21*
X98560000Y-121285000D03*
X105910000Y-121285000D03*
D22*
X102235000Y-125840000D03*
D23*
X128270000Y-133985000D03*
X146050000Y-133985000D03*
X128270000Y-93345000D03*
X146050000Y-93345000D03*
D19*
X161925000Y-86995000D03*
X161925000Y-89535000D03*
D24*
X125730000Y-115570000D02*
X120012208Y-115570000D01*
X120012208Y-115570000D02*
X117475000Y-113032792D01*
X117475000Y-113032792D02*
X117475000Y-111760000D01*
X128270000Y-113030000D02*
X125730000Y-115570000D01*
X128270000Y-93345000D02*
X128270000Y-113030000D01*
X129011920Y-57980278D02*
X129106920Y-57885278D01*
X129106920Y-57885278D02*
X129106920Y-55790278D01*
X131646920Y-60615278D02*
X129011920Y-57980278D01*
X131646920Y-63410278D02*
X131646920Y-60615278D01*
X110490000Y-123825000D02*
X120110000Y-123825000D01*
X120110000Y-123825000D02*
X128270000Y-131985000D01*
X128270000Y-131985000D02*
X128270000Y-133985000D01*
D25*
X104775000Y-78740000D02*
X112395000Y-71120000D01*
X112395000Y-71120000D02*
X116840000Y-71120000D01*
X116840000Y-71120000D02*
X124026920Y-63933080D01*
X124026920Y-63933080D02*
X124026920Y-63410278D01*
X95250000Y-93980000D02*
X95250000Y-81280000D01*
X95250000Y-81280000D02*
X95250000Y-78740000D01*
X97155000Y-81280000D02*
X96023630Y-81280000D01*
X96023630Y-81280000D02*
X95250000Y-81280000D01*
X95250000Y-78740000D02*
X97155000Y-78740000D01*
X99695000Y-93980000D02*
X95250000Y-93980000D01*
X136525000Y-81915000D02*
X149860000Y-68580000D01*
X149860000Y-68580000D02*
X149860000Y-62230000D01*
X149860000Y-62230000D02*
X146050000Y-58420000D01*
X146050000Y-58420000D02*
X139700000Y-58420000D01*
X139700000Y-58420000D02*
X139266920Y-57986920D01*
X139266920Y-57986920D02*
X139266920Y-55790278D01*
X171811994Y-90170000D02*
X175335040Y-90170000D01*
X163905040Y-82263046D02*
X171811994Y-90170000D01*
X109220000Y-48260000D02*
X109220000Y-51143358D01*
X109220000Y-51143358D02*
X113866920Y-55790278D01*
X114300000Y-48260000D02*
X114300000Y-53683358D01*
X114300000Y-53683358D02*
X116406920Y-55790278D01*
X124460000Y-50800000D02*
X123937198Y-50800000D01*
X123937198Y-50800000D02*
X118946920Y-55790278D01*
X127000000Y-48260000D02*
X124460000Y-50800000D01*
X121285000Y-62230000D02*
X121438012Y-62230000D01*
X121438012Y-62230000D02*
X121486920Y-62278908D01*
X121486920Y-62278908D02*
X121486920Y-63410278D01*
X119380000Y-60325000D02*
X121285000Y-62230000D01*
X99695000Y-74295000D02*
X100456999Y-73533001D01*
X100456999Y-73533001D02*
X100456999Y-67818001D01*
X100456999Y-67818001D02*
X107950000Y-60325000D01*
X107950000Y-60325000D02*
X119380000Y-60325000D01*
X129540000Y-48260000D02*
X124026920Y-53773080D01*
X124026920Y-53773080D02*
X124026920Y-55790278D01*
X132080000Y-48260000D02*
X126566920Y-53773080D01*
X126566920Y-53773080D02*
X126566920Y-55790278D01*
X107315000Y-83820000D02*
X126566920Y-64568080D01*
X126566920Y-64568080D02*
X126566920Y-63410278D01*
X107315000Y-91440000D02*
X107315000Y-83820000D01*
X134620000Y-50165000D02*
X136726920Y-52271920D01*
X136726920Y-52271920D02*
X136726920Y-55790278D01*
X134620000Y-48260000D02*
X134620000Y-50165000D01*
D26*
G36*
X176579920Y-51596641D02*
X176473708Y-51340225D01*
X176233291Y-51270658D01*
X175433948Y-52070000D01*
X176233291Y-52869342D01*
X176473708Y-52799775D01*
X176579920Y-52504235D01*
X176579920Y-54167156D01*
X176438223Y-53824223D01*
X176047833Y-53433150D01*
X175838670Y-53346298D01*
X175989775Y-53283708D01*
X176059342Y-53043291D01*
X175260000Y-52243948D01*
X174460658Y-53043291D01*
X174530225Y-53283708D01*
X174691930Y-53341822D01*
X174474223Y-53431777D01*
X174083150Y-53822167D01*
X173871242Y-54332499D01*
X173870760Y-54885077D01*
X174081777Y-55395777D01*
X174472167Y-55786850D01*
X174696419Y-55879967D01*
X174474223Y-55971777D01*
X174083150Y-56362167D01*
X173871242Y-56872499D01*
X173870760Y-57425077D01*
X174081777Y-57935777D01*
X174472167Y-58326850D01*
X174696419Y-58419967D01*
X174474223Y-58511777D01*
X174083150Y-58902167D01*
X173871242Y-59412499D01*
X173870760Y-59965077D01*
X174081777Y-60475777D01*
X174472167Y-60866850D01*
X174696419Y-60959967D01*
X174474223Y-61051777D01*
X174083150Y-61442167D01*
X173871242Y-61952499D01*
X173870760Y-62505077D01*
X174081777Y-63015777D01*
X174472167Y-63406850D01*
X174982499Y-63618758D01*
X175535077Y-63619240D01*
X176045777Y-63408223D01*
X176436850Y-63017833D01*
X176579920Y-62673282D01*
X176579920Y-69195480D01*
X176548748Y-69120225D01*
X176308331Y-69050658D01*
X175508988Y-69850000D01*
X176308331Y-70649342D01*
X176548748Y-70579775D01*
X176579920Y-70493037D01*
X176579920Y-71765545D01*
X176513263Y-71604223D01*
X176122873Y-71213150D01*
X175913710Y-71126298D01*
X176064815Y-71063708D01*
X176134382Y-70823291D01*
X175335040Y-70023948D01*
X174535698Y-70823291D01*
X174605265Y-71063708D01*
X174766970Y-71121822D01*
X174549263Y-71211777D01*
X174158190Y-71602167D01*
X173946282Y-72112499D01*
X173945800Y-72665077D01*
X174156817Y-73175777D01*
X174547207Y-73566850D01*
X174771459Y-73659967D01*
X174549263Y-73751777D01*
X174158190Y-74142167D01*
X173946282Y-74652499D01*
X173945800Y-75205077D01*
X174156817Y-75715777D01*
X174547207Y-76106850D01*
X174771459Y-76199967D01*
X174549263Y-76291777D01*
X174158190Y-76682167D01*
X173946282Y-77192499D01*
X173945800Y-77745077D01*
X174156817Y-78255777D01*
X174547207Y-78646850D01*
X174771459Y-78739967D01*
X174549263Y-78831777D01*
X174158190Y-79222167D01*
X173946282Y-79732499D01*
X173945800Y-80285077D01*
X174156817Y-80795777D01*
X174547207Y-81186850D01*
X174771459Y-81279967D01*
X174549263Y-81371777D01*
X174158190Y-81762167D01*
X173946282Y-82272499D01*
X173945800Y-82825077D01*
X174156817Y-83335777D01*
X174547207Y-83726850D01*
X174771459Y-83819967D01*
X174549263Y-83911777D01*
X174158190Y-84302167D01*
X173946282Y-84812499D01*
X173945800Y-85365077D01*
X174156817Y-85875777D01*
X174547207Y-86266850D01*
X174771459Y-86359967D01*
X174549263Y-86451777D01*
X174158190Y-86842167D01*
X173946282Y-87352499D01*
X173945800Y-87905077D01*
X174156817Y-88415777D01*
X174547207Y-88806850D01*
X174771459Y-88899967D01*
X174549263Y-88991777D01*
X174247513Y-89293000D01*
X172175259Y-89293000D01*
X165324377Y-82442118D01*
X165359997Y-82263046D01*
X165251373Y-81716957D01*
X164942038Y-81254005D01*
X164551486Y-80993046D01*
X164942038Y-80732087D01*
X165251373Y-80269135D01*
X165359997Y-79723046D01*
X165251373Y-79176957D01*
X164942038Y-78714005D01*
X164551486Y-78453046D01*
X164942038Y-78192087D01*
X165251373Y-77729135D01*
X165359997Y-77183046D01*
X165251373Y-76636957D01*
X164942038Y-76174005D01*
X164551486Y-75913046D01*
X164942038Y-75652087D01*
X165251373Y-75189135D01*
X165359997Y-74643046D01*
X165251373Y-74096957D01*
X164942038Y-73634005D01*
X164551486Y-73373046D01*
X164942038Y-73112087D01*
X165251373Y-72649135D01*
X165359997Y-72103046D01*
X165251373Y-71556957D01*
X164942038Y-71094005D01*
X164551486Y-70833046D01*
X164942038Y-70572087D01*
X165251373Y-70109135D01*
X165359997Y-69563046D01*
X170070083Y-69563046D01*
X170178707Y-70109135D01*
X170488042Y-70572087D01*
X170878594Y-70833046D01*
X170488042Y-71094005D01*
X170178707Y-71556957D01*
X170070083Y-72103046D01*
X170178707Y-72649135D01*
X170488042Y-73112087D01*
X170878594Y-73373046D01*
X170488042Y-73634005D01*
X170178707Y-74096957D01*
X170070083Y-74643046D01*
X170178707Y-75189135D01*
X170488042Y-75652087D01*
X170878594Y-75913046D01*
X170488042Y-76174005D01*
X170178707Y-76636957D01*
X170070083Y-77183046D01*
X170178707Y-77729135D01*
X170488042Y-78192087D01*
X170878594Y-78453046D01*
X170488042Y-78714005D01*
X170178707Y-79176957D01*
X170070083Y-79723046D01*
X170178707Y-80269135D01*
X170488042Y-80732087D01*
X170878594Y-80993046D01*
X170488042Y-81254005D01*
X170178707Y-81716957D01*
X170070083Y-82263046D01*
X170178707Y-82809135D01*
X170488042Y-83272087D01*
X170647173Y-83378415D01*
X170492688Y-83407483D01*
X170279287Y-83544803D01*
X170136123Y-83754329D01*
X170085757Y-84003046D01*
X170085757Y-85603046D01*
X170129477Y-85835398D01*
X170266797Y-86048799D01*
X170476323Y-86191963D01*
X170725040Y-86242329D01*
X172325040Y-86242329D01*
X172557392Y-86198609D01*
X172770793Y-86061289D01*
X172913957Y-85851763D01*
X172964323Y-85603046D01*
X172964323Y-84003046D01*
X172920603Y-83770694D01*
X172783283Y-83557293D01*
X172573757Y-83414129D01*
X172401625Y-83379272D01*
X172562038Y-83272087D01*
X172871373Y-82809135D01*
X172979997Y-82263046D01*
X172871373Y-81716957D01*
X172562038Y-81254005D01*
X172171486Y-80993046D01*
X172562038Y-80732087D01*
X172871373Y-80269135D01*
X172979997Y-79723046D01*
X172871373Y-79176957D01*
X172562038Y-78714005D01*
X172171486Y-78453046D01*
X172562038Y-78192087D01*
X172871373Y-77729135D01*
X172979997Y-77183046D01*
X172871373Y-76636957D01*
X172562038Y-76174005D01*
X172171486Y-75913046D01*
X172562038Y-75652087D01*
X172871373Y-75189135D01*
X172979997Y-74643046D01*
X172871373Y-74096957D01*
X172562038Y-73634005D01*
X172171486Y-73373046D01*
X172562038Y-73112087D01*
X172871373Y-72649135D01*
X172979997Y-72103046D01*
X172871373Y-71556957D01*
X172562038Y-71094005D01*
X172171486Y-70833046D01*
X172562038Y-70572087D01*
X172871373Y-70109135D01*
X172964641Y-69640242D01*
X173934447Y-69640242D01*
X173960789Y-70192193D01*
X174121332Y-70579775D01*
X174361749Y-70649342D01*
X175161092Y-69850000D01*
X174361749Y-69050658D01*
X174121332Y-69120225D01*
X173934447Y-69640242D01*
X172964641Y-69640242D01*
X172979997Y-69563046D01*
X172871373Y-69016957D01*
X172777663Y-68876709D01*
X174535698Y-68876709D01*
X175335040Y-69676052D01*
X176134382Y-68876709D01*
X176064815Y-68636292D01*
X175544798Y-68449407D01*
X174992847Y-68475749D01*
X174605265Y-68636292D01*
X174535698Y-68876709D01*
X172777663Y-68876709D01*
X172562038Y-68554005D01*
X172147435Y-68276976D01*
X172372750Y-68170976D01*
X172747516Y-67759190D01*
X172909984Y-67366933D01*
X172789321Y-67146046D01*
X171648040Y-67146046D01*
X171648040Y-67166046D01*
X171402040Y-67166046D01*
X171402040Y-67146046D01*
X170260759Y-67146046D01*
X170140096Y-67366933D01*
X170302564Y-67759190D01*
X170677330Y-68170976D01*
X170902645Y-68276976D01*
X170488042Y-68554005D01*
X170178707Y-69016957D01*
X170070083Y-69563046D01*
X165359997Y-69563046D01*
X165251373Y-69016957D01*
X164942038Y-68554005D01*
X164551486Y-68293046D01*
X164942038Y-68032087D01*
X165251373Y-67569135D01*
X165359997Y-67023046D01*
X165291594Y-66679159D01*
X170140096Y-66679159D01*
X170260759Y-66900046D01*
X171402040Y-66900046D01*
X171402040Y-65758097D01*
X171648040Y-65758097D01*
X171648040Y-66900046D01*
X172789321Y-66900046D01*
X172909984Y-66679159D01*
X172747516Y-66286902D01*
X172372750Y-65875116D01*
X171868928Y-65638092D01*
X171648040Y-65758097D01*
X171402040Y-65758097D01*
X171181152Y-65638092D01*
X170677330Y-65875116D01*
X170302564Y-66286902D01*
X170140096Y-66679159D01*
X165291594Y-66679159D01*
X165251373Y-66476957D01*
X164942038Y-66014005D01*
X164479086Y-65704670D01*
X163932997Y-65596046D01*
X163877083Y-65596046D01*
X163330994Y-65704670D01*
X162868042Y-66014005D01*
X162558707Y-66476957D01*
X162450083Y-67023046D01*
X162558707Y-67569135D01*
X162868042Y-68032087D01*
X163258594Y-68293046D01*
X162868042Y-68554005D01*
X162558707Y-69016957D01*
X162450083Y-69563046D01*
X162558707Y-70109135D01*
X162868042Y-70572087D01*
X163258594Y-70833046D01*
X162868042Y-71094005D01*
X162558707Y-71556957D01*
X162450083Y-72103046D01*
X162558707Y-72649135D01*
X162868042Y-73112087D01*
X163258594Y-73373046D01*
X162868042Y-73634005D01*
X162635765Y-73981631D01*
X162575497Y-73835771D01*
X162174426Y-73433999D01*
X161650133Y-73216294D01*
X161082437Y-73215798D01*
X160557765Y-73432589D01*
X160155993Y-73833660D01*
X159938288Y-74357953D01*
X159937792Y-74925649D01*
X160154583Y-75450321D01*
X160555654Y-75852093D01*
X160702158Y-75912927D01*
X160557765Y-75972589D01*
X160155993Y-76373660D01*
X159938288Y-76897953D01*
X159937792Y-77465649D01*
X160154583Y-77990321D01*
X160555654Y-78392093D01*
X160702158Y-78452927D01*
X160557765Y-78512589D01*
X160155993Y-78913660D01*
X159938288Y-79437953D01*
X159937792Y-80005649D01*
X160154583Y-80530321D01*
X160555654Y-80932093D01*
X161079947Y-81149798D01*
X161647643Y-81150294D01*
X162172315Y-80933503D01*
X162574087Y-80532432D01*
X162635620Y-80384243D01*
X162868042Y-80732087D01*
X163258594Y-80993046D01*
X162868042Y-81254005D01*
X162558707Y-81716957D01*
X162450083Y-82263046D01*
X162558707Y-82809135D01*
X162868042Y-83272087D01*
X163258594Y-83533046D01*
X162868042Y-83794005D01*
X162558707Y-84256957D01*
X162450083Y-84803046D01*
X162558707Y-85349135D01*
X162868042Y-85812087D01*
X163330994Y-86121422D01*
X163877083Y-86230046D01*
X163932997Y-86230046D01*
X164479086Y-86121422D01*
X164942038Y-85812087D01*
X165251373Y-85349135D01*
X165334244Y-84932516D01*
X171191859Y-90790130D01*
X171191861Y-90790133D01*
X171427617Y-90947659D01*
X171476381Y-90980242D01*
X171811994Y-91047001D01*
X171811999Y-91047000D01*
X174247881Y-91047000D01*
X174547207Y-91346850D01*
X174771459Y-91439967D01*
X174549263Y-91531777D01*
X174158190Y-91922167D01*
X173946282Y-92432499D01*
X173945800Y-92985077D01*
X174156817Y-93495777D01*
X174547207Y-93886850D01*
X175057539Y-94098758D01*
X175610117Y-94099240D01*
X176120817Y-93888223D01*
X176511890Y-93497833D01*
X176579920Y-93333998D01*
X176579920Y-136243278D01*
X93013920Y-136243278D01*
X93013920Y-126234883D01*
X99403081Y-126234883D01*
X99444292Y-126396824D01*
X99784174Y-126991877D01*
X100325901Y-127411567D01*
X100987000Y-127592000D01*
X102112000Y-127592000D01*
X102112000Y-125963000D01*
X102358000Y-125963000D01*
X102358000Y-127592000D01*
X103483000Y-127592000D01*
X104144099Y-127411567D01*
X104685826Y-126991877D01*
X105025708Y-126396824D01*
X105066919Y-126234883D01*
X104950501Y-125963000D01*
X102358000Y-125963000D01*
X102112000Y-125963000D01*
X99519499Y-125963000D01*
X99403081Y-126234883D01*
X93013920Y-126234883D01*
X93013920Y-125445117D01*
X99403081Y-125445117D01*
X99519499Y-125717000D01*
X102112000Y-125717000D01*
X102112000Y-124088000D01*
X102358000Y-124088000D01*
X102358000Y-125717000D01*
X104950501Y-125717000D01*
X105066919Y-125445117D01*
X105025708Y-125283176D01*
X104685826Y-124688123D01*
X104144099Y-124268433D01*
X103483000Y-124088000D01*
X102358000Y-124088000D01*
X102112000Y-124088000D01*
X100987000Y-124088000D01*
X100325901Y-124268433D01*
X99784174Y-124688123D01*
X99444292Y-125283176D01*
X99403081Y-125445117D01*
X93013920Y-125445117D01*
X93013920Y-121408000D01*
X96808000Y-121408000D01*
X96808000Y-122533000D01*
X96988433Y-123194099D01*
X97408123Y-123735826D01*
X98003176Y-124075708D01*
X98165117Y-124116919D01*
X98437000Y-124000501D01*
X98437000Y-121408000D01*
X98683000Y-121408000D01*
X98683000Y-124000501D01*
X98954883Y-124116919D01*
X99116824Y-124075708D01*
X99711877Y-123735826D01*
X100131567Y-123194099D01*
X100312000Y-122533000D01*
X100312000Y-121408000D01*
X98683000Y-121408000D01*
X98437000Y-121408000D01*
X96808000Y-121408000D01*
X93013920Y-121408000D01*
X93013920Y-120037000D01*
X96808000Y-120037000D01*
X96808000Y-121162000D01*
X98437000Y-121162000D01*
X98437000Y-118569499D01*
X98683000Y-118569499D01*
X98683000Y-121162000D01*
X100312000Y-121162000D01*
X100312000Y-120103636D01*
X104158000Y-120103636D01*
X104158000Y-122466364D01*
X104291363Y-123136825D01*
X104671149Y-123705215D01*
X105239539Y-124085001D01*
X105910000Y-124218364D01*
X106580461Y-124085001D01*
X107148851Y-123705215D01*
X107528637Y-123136825D01*
X107662000Y-122466364D01*
X107662000Y-120523000D01*
X109088717Y-120523000D01*
X109088717Y-122047000D01*
X109132437Y-122279352D01*
X109269757Y-122492753D01*
X109360234Y-122554574D01*
X109282247Y-122604757D01*
X109139083Y-122814283D01*
X109088717Y-123063000D01*
X109088717Y-124587000D01*
X109132437Y-124819352D01*
X109269757Y-125032753D01*
X109360234Y-125094574D01*
X109282247Y-125144757D01*
X109139083Y-125354283D01*
X109088717Y-125603000D01*
X109088717Y-127127000D01*
X109132437Y-127359352D01*
X109269757Y-127572753D01*
X109479283Y-127715917D01*
X109728000Y-127766283D01*
X111252000Y-127766283D01*
X111484352Y-127722563D01*
X111697753Y-127585243D01*
X111840917Y-127375717D01*
X111891283Y-127127000D01*
X111891283Y-125603000D01*
X111847563Y-125370648D01*
X111710243Y-125157247D01*
X111619766Y-125095426D01*
X111697753Y-125045243D01*
X111761464Y-124952000D01*
X119643182Y-124952000D01*
X127073813Y-132382632D01*
X127037648Y-132389437D01*
X126824247Y-132526757D01*
X126681083Y-132736283D01*
X126630717Y-132985000D01*
X126630717Y-134985000D01*
X126674437Y-135217352D01*
X126811757Y-135430753D01*
X127021283Y-135573917D01*
X127270000Y-135624283D01*
X129270000Y-135624283D01*
X129502352Y-135580563D01*
X129715753Y-135443243D01*
X129858917Y-135233717D01*
X129909283Y-134985000D01*
X129909283Y-134264750D01*
X144423000Y-134264750D01*
X144423000Y-135109718D01*
X144518455Y-135340167D01*
X144694833Y-135516545D01*
X144925282Y-135612000D01*
X145770250Y-135612000D01*
X145927000Y-135455250D01*
X145927000Y-134108000D01*
X146173000Y-134108000D01*
X146173000Y-135455250D01*
X146329750Y-135612000D01*
X147174718Y-135612000D01*
X147405167Y-135516545D01*
X147581545Y-135340167D01*
X147677000Y-135109718D01*
X147677000Y-134264750D01*
X147520250Y-134108000D01*
X146173000Y-134108000D01*
X145927000Y-134108000D01*
X144579750Y-134108000D01*
X144423000Y-134264750D01*
X129909283Y-134264750D01*
X129909283Y-132985000D01*
X129885816Y-132860282D01*
X144423000Y-132860282D01*
X144423000Y-133705250D01*
X144579750Y-133862000D01*
X145927000Y-133862000D01*
X145927000Y-132514750D01*
X146173000Y-132514750D01*
X146173000Y-133862000D01*
X147520250Y-133862000D01*
X147677000Y-133705250D01*
X147677000Y-132860282D01*
X147581545Y-132629833D01*
X147405167Y-132453455D01*
X147174718Y-132358000D01*
X146329750Y-132358000D01*
X146173000Y-132514750D01*
X145927000Y-132514750D01*
X145770250Y-132358000D01*
X144925282Y-132358000D01*
X144694833Y-132453455D01*
X144518455Y-132629833D01*
X144423000Y-132860282D01*
X129885816Y-132860282D01*
X129865563Y-132752648D01*
X129728243Y-132539247D01*
X129518717Y-132396083D01*
X129397000Y-132371435D01*
X129397000Y-131985000D01*
X129311212Y-131553716D01*
X129066910Y-131188091D01*
X120906909Y-123028091D01*
X120541284Y-122783788D01*
X120110000Y-122698000D01*
X111762206Y-122698000D01*
X111710243Y-122617247D01*
X111619766Y-122555426D01*
X111697753Y-122505243D01*
X111840917Y-122295717D01*
X111891283Y-122047000D01*
X111891283Y-120523000D01*
X111847563Y-120290648D01*
X111710243Y-120077247D01*
X111500717Y-119934083D01*
X111252000Y-119883717D01*
X109728000Y-119883717D01*
X109495648Y-119927437D01*
X109282247Y-120064757D01*
X109139083Y-120274283D01*
X109088717Y-120523000D01*
X107662000Y-120523000D01*
X107662000Y-120103636D01*
X107528637Y-119433175D01*
X107148851Y-118864785D01*
X106580461Y-118484999D01*
X105910000Y-118351636D01*
X105239539Y-118484999D01*
X104671149Y-118864785D01*
X104291363Y-119433175D01*
X104158000Y-120103636D01*
X100312000Y-120103636D01*
X100312000Y-120037000D01*
X100131567Y-119375901D01*
X99711877Y-118834174D01*
X99116824Y-118494292D01*
X98954883Y-118453081D01*
X98683000Y-118569499D01*
X98437000Y-118569499D01*
X98165117Y-118453081D01*
X98003176Y-118494292D01*
X97408123Y-118834174D01*
X96988433Y-119375901D01*
X96808000Y-120037000D01*
X93013920Y-120037000D01*
X93013920Y-111760000D01*
X115918084Y-111760000D01*
X116034320Y-112344358D01*
X116348000Y-112813813D01*
X116348000Y-113032792D01*
X116433788Y-113464076D01*
X116678091Y-113829701D01*
X119215299Y-116366909D01*
X119580924Y-116611212D01*
X120012208Y-116697000D01*
X125730000Y-116697000D01*
X126161284Y-116611212D01*
X126526909Y-116366909D01*
X129066909Y-113826910D01*
X129311212Y-113461285D01*
X129345879Y-113287000D01*
X129397000Y-113030000D01*
X129397000Y-96160077D01*
X152280760Y-96160077D01*
X152491777Y-96670777D01*
X152882167Y-97061850D01*
X153392499Y-97273758D01*
X153945077Y-97274240D01*
X154455777Y-97063223D01*
X154846850Y-96672833D01*
X154939967Y-96448581D01*
X155031777Y-96670777D01*
X155422167Y-97061850D01*
X155932499Y-97273758D01*
X156485077Y-97274240D01*
X156995777Y-97063223D01*
X157386850Y-96672833D01*
X157479967Y-96448581D01*
X157571777Y-96670777D01*
X157962167Y-97061850D01*
X158472499Y-97273758D01*
X159025077Y-97274240D01*
X159535777Y-97063223D01*
X159926850Y-96672833D01*
X160019967Y-96448581D01*
X160111777Y-96670777D01*
X160502167Y-97061850D01*
X161012499Y-97273758D01*
X161565077Y-97274240D01*
X162075777Y-97063223D01*
X162438839Y-96700795D01*
X162472437Y-96879352D01*
X162609757Y-97092753D01*
X162819283Y-97235917D01*
X163068000Y-97286283D01*
X164592000Y-97286283D01*
X164824352Y-97242563D01*
X165037753Y-97105243D01*
X165180917Y-96895717D01*
X165188495Y-96858291D01*
X165570658Y-96858291D01*
X165640225Y-97098708D01*
X166160242Y-97285593D01*
X166712193Y-97259251D01*
X167099775Y-97098708D01*
X167169342Y-96858291D01*
X166370000Y-96058948D01*
X165570658Y-96858291D01*
X165188495Y-96858291D01*
X165231283Y-96647000D01*
X165231283Y-96636474D01*
X165396709Y-96684342D01*
X166196052Y-95885000D01*
X166543948Y-95885000D01*
X167343291Y-96684342D01*
X167583708Y-96614775D01*
X167770593Y-96094758D01*
X167744251Y-95542807D01*
X167583708Y-95155225D01*
X167343291Y-95085658D01*
X166543948Y-95885000D01*
X166196052Y-95885000D01*
X165396709Y-95085658D01*
X165231283Y-95133526D01*
X165231283Y-95123000D01*
X165191526Y-94911709D01*
X165570658Y-94911709D01*
X166370000Y-95711052D01*
X167169342Y-94911709D01*
X167099775Y-94671292D01*
X166579758Y-94484407D01*
X166027807Y-94510749D01*
X165640225Y-94671292D01*
X165570658Y-94911709D01*
X165191526Y-94911709D01*
X165187563Y-94890648D01*
X165050243Y-94677247D01*
X164840717Y-94534083D01*
X164592000Y-94483717D01*
X163068000Y-94483717D01*
X162835648Y-94527437D01*
X162622247Y-94664757D01*
X162479083Y-94874283D01*
X162439382Y-95070332D01*
X162077833Y-94708150D01*
X161567501Y-94496242D01*
X161014923Y-94495760D01*
X160504223Y-94706777D01*
X160113150Y-95097167D01*
X160020033Y-95321419D01*
X159928223Y-95099223D01*
X159537833Y-94708150D01*
X159027501Y-94496242D01*
X158474923Y-94495760D01*
X157964223Y-94706777D01*
X157573150Y-95097167D01*
X157480033Y-95321419D01*
X157388223Y-95099223D01*
X156997833Y-94708150D01*
X156487501Y-94496242D01*
X155934923Y-94495760D01*
X155424223Y-94706777D01*
X155033150Y-95097167D01*
X154940033Y-95321419D01*
X154848223Y-95099223D01*
X154457833Y-94708150D01*
X153947501Y-94496242D01*
X153394923Y-94495760D01*
X152884223Y-94706777D01*
X152493150Y-95097167D01*
X152281242Y-95607499D01*
X152280760Y-96160077D01*
X129397000Y-96160077D01*
X129397000Y-94960386D01*
X129502352Y-94940563D01*
X129715753Y-94803243D01*
X129858917Y-94593717D01*
X129909283Y-94345000D01*
X129909283Y-93624750D01*
X144423000Y-93624750D01*
X144423000Y-94469718D01*
X144518455Y-94700167D01*
X144694833Y-94876545D01*
X144925282Y-94972000D01*
X145770250Y-94972000D01*
X145927000Y-94815250D01*
X145927000Y-93468000D01*
X146173000Y-93468000D01*
X146173000Y-94815250D01*
X146329750Y-94972000D01*
X147174718Y-94972000D01*
X147405167Y-94876545D01*
X147581545Y-94700167D01*
X147677000Y-94469718D01*
X147677000Y-93624750D01*
X147520250Y-93468000D01*
X146173000Y-93468000D01*
X145927000Y-93468000D01*
X144579750Y-93468000D01*
X144423000Y-93624750D01*
X129909283Y-93624750D01*
X129909283Y-92345000D01*
X129885816Y-92220282D01*
X144423000Y-92220282D01*
X144423000Y-93065250D01*
X144579750Y-93222000D01*
X145927000Y-93222000D01*
X145927000Y-91874750D01*
X146173000Y-91874750D01*
X146173000Y-93222000D01*
X147520250Y-93222000D01*
X147677000Y-93065250D01*
X147677000Y-92220282D01*
X147581545Y-91989833D01*
X147405167Y-91813455D01*
X147174718Y-91718000D01*
X146329750Y-91718000D01*
X146173000Y-91874750D01*
X145927000Y-91874750D01*
X145770250Y-91718000D01*
X144925282Y-91718000D01*
X144694833Y-91813455D01*
X144518455Y-91989833D01*
X144423000Y-92220282D01*
X129885816Y-92220282D01*
X129865563Y-92112648D01*
X129728243Y-91899247D01*
X129518717Y-91756083D01*
X129270000Y-91705717D01*
X127270000Y-91705717D01*
X127037648Y-91749437D01*
X126824247Y-91886757D01*
X126681083Y-92096283D01*
X126630717Y-92345000D01*
X126630717Y-94345000D01*
X126674437Y-94577352D01*
X126811757Y-94790753D01*
X127021283Y-94933917D01*
X127143000Y-94958565D01*
X127143000Y-112563181D01*
X125263182Y-114443000D01*
X120479026Y-114443000D01*
X118701270Y-112665244D01*
X118745000Y-112599798D01*
X118905332Y-112839752D01*
X119400726Y-113170764D01*
X119985084Y-113287000D01*
X120044916Y-113287000D01*
X120629274Y-113170764D01*
X121057930Y-112884345D01*
X121059437Y-112892352D01*
X121196757Y-113105753D01*
X121406283Y-113248917D01*
X121655000Y-113299283D01*
X123455000Y-113299283D01*
X123687352Y-113255563D01*
X123900753Y-113118243D01*
X124043917Y-112908717D01*
X124094283Y-112660000D01*
X124094283Y-110860000D01*
X124050563Y-110627648D01*
X123913243Y-110414247D01*
X123703717Y-110271083D01*
X123455000Y-110220717D01*
X121655000Y-110220717D01*
X121422648Y-110264437D01*
X121209247Y-110401757D01*
X121066083Y-110611283D01*
X121060764Y-110637549D01*
X120629274Y-110349236D01*
X120044916Y-110233000D01*
X119985084Y-110233000D01*
X119400726Y-110349236D01*
X118905332Y-110680248D01*
X118745000Y-110920202D01*
X118584668Y-110680248D01*
X118089274Y-110349236D01*
X117504916Y-110233000D01*
X117445084Y-110233000D01*
X116860726Y-110349236D01*
X116365332Y-110680248D01*
X116034320Y-111175642D01*
X115918084Y-111760000D01*
X93013920Y-111760000D01*
X93013920Y-108315816D01*
X114148133Y-108315816D01*
X114222368Y-108560169D01*
X114756164Y-108753406D01*
X115323276Y-108727659D01*
X115727632Y-108560169D01*
X115801867Y-108315816D01*
X114975000Y-107488948D01*
X114148133Y-108315816D01*
X93013920Y-108315816D01*
X93013920Y-107096164D01*
X113536594Y-107096164D01*
X113562341Y-107663276D01*
X113729831Y-108067632D01*
X113974184Y-108141867D01*
X114801052Y-107315000D01*
X115148948Y-107315000D01*
X115975816Y-108141867D01*
X116220169Y-108067632D01*
X116230347Y-108039516D01*
X116264543Y-108122275D01*
X116665614Y-108524047D01*
X117189907Y-108741752D01*
X117757603Y-108742248D01*
X118282275Y-108525457D01*
X118684047Y-108124386D01*
X118744881Y-107977882D01*
X118804543Y-108122275D01*
X119205614Y-108524047D01*
X119729907Y-108741752D01*
X120297603Y-108742248D01*
X120822275Y-108525457D01*
X121224047Y-108124386D01*
X121284881Y-107977882D01*
X121344543Y-108122275D01*
X121745614Y-108524047D01*
X122269907Y-108741752D01*
X122837603Y-108742248D01*
X123362275Y-108525457D01*
X123764047Y-108124386D01*
X123981752Y-107600093D01*
X123982248Y-107032397D01*
X123765457Y-106507725D01*
X123364386Y-106105953D01*
X122840093Y-105888248D01*
X122272397Y-105887752D01*
X121747725Y-106104543D01*
X121345953Y-106505614D01*
X121285119Y-106652118D01*
X121225457Y-106507725D01*
X120824386Y-106105953D01*
X120300093Y-105888248D01*
X119732397Y-105887752D01*
X119207725Y-106104543D01*
X118805953Y-106505614D01*
X118745119Y-106652118D01*
X118685457Y-106507725D01*
X118284386Y-106105953D01*
X117760093Y-105888248D01*
X117192397Y-105887752D01*
X116667725Y-106104543D01*
X116265953Y-106505614D01*
X116231264Y-106589154D01*
X116220169Y-106562368D01*
X115975816Y-106488133D01*
X115148948Y-107315000D01*
X114801052Y-107315000D01*
X113974184Y-106488133D01*
X113729831Y-106562368D01*
X113536594Y-107096164D01*
X93013920Y-107096164D01*
X93013920Y-106314184D01*
X114148133Y-106314184D01*
X114975000Y-107141052D01*
X115801867Y-106314184D01*
X115727632Y-106069831D01*
X115193836Y-105876594D01*
X114626724Y-105902341D01*
X114222368Y-106069831D01*
X114148133Y-106314184D01*
X93013920Y-106314184D01*
X93013920Y-100695816D01*
X112838133Y-100695816D01*
X112912368Y-100940169D01*
X113446164Y-101133406D01*
X114013276Y-101107659D01*
X114417632Y-100940169D01*
X114491867Y-100695816D01*
X113665000Y-99868948D01*
X112838133Y-100695816D01*
X93013920Y-100695816D01*
X93013920Y-99476164D01*
X112226594Y-99476164D01*
X112252341Y-100043276D01*
X112419831Y-100447632D01*
X112664184Y-100521867D01*
X113491052Y-99695000D01*
X113838948Y-99695000D01*
X114665816Y-100521867D01*
X114910169Y-100447632D01*
X114939027Y-100367916D01*
X114994543Y-100502275D01*
X115395614Y-100904047D01*
X115919907Y-101121752D01*
X116487603Y-101122248D01*
X117012275Y-100905457D01*
X117414047Y-100504386D01*
X117631752Y-99980093D01*
X117631754Y-99977603D01*
X118587752Y-99977603D01*
X118804543Y-100502275D01*
X119205614Y-100904047D01*
X119729907Y-101121752D01*
X120297603Y-101122248D01*
X120822275Y-100905457D01*
X121032282Y-100695816D01*
X121728133Y-100695816D01*
X121802368Y-100940169D01*
X122336164Y-101133406D01*
X122903276Y-101107659D01*
X123307632Y-100940169D01*
X123381867Y-100695816D01*
X122555000Y-99868948D01*
X121728133Y-100695816D01*
X121032282Y-100695816D01*
X121224047Y-100504386D01*
X121278760Y-100372621D01*
X121309831Y-100447632D01*
X121554184Y-100521867D01*
X122381052Y-99695000D01*
X122728948Y-99695000D01*
X123555816Y-100521867D01*
X123800169Y-100447632D01*
X123993406Y-99913836D01*
X123967659Y-99346724D01*
X123800169Y-98942368D01*
X123555816Y-98868133D01*
X122728948Y-99695000D01*
X122381052Y-99695000D01*
X121554184Y-98868133D01*
X121309831Y-98942368D01*
X121280973Y-99022084D01*
X121225457Y-98887725D01*
X121032254Y-98694184D01*
X121728133Y-98694184D01*
X122555000Y-99521052D01*
X123381867Y-98694184D01*
X123307632Y-98449831D01*
X122773836Y-98256594D01*
X122206724Y-98282341D01*
X121802368Y-98449831D01*
X121728133Y-98694184D01*
X121032254Y-98694184D01*
X120824386Y-98485953D01*
X120300093Y-98268248D01*
X119732397Y-98267752D01*
X119207725Y-98484543D01*
X118805953Y-98885614D01*
X118588248Y-99409907D01*
X118587752Y-99977603D01*
X117631754Y-99977603D01*
X117632248Y-99412397D01*
X117415457Y-98887725D01*
X117014386Y-98485953D01*
X116490093Y-98268248D01*
X115922397Y-98267752D01*
X115397725Y-98484543D01*
X114995953Y-98885614D01*
X114941240Y-99017379D01*
X114910169Y-98942368D01*
X114665816Y-98868133D01*
X113838948Y-99695000D01*
X113491052Y-99695000D01*
X112664184Y-98868133D01*
X112419831Y-98942368D01*
X112226594Y-99476164D01*
X93013920Y-99476164D01*
X93013920Y-98694184D01*
X112838133Y-98694184D01*
X113665000Y-99521052D01*
X114491867Y-98694184D01*
X114417632Y-98449831D01*
X113883836Y-98256594D01*
X113316724Y-98282341D01*
X112912368Y-98449831D01*
X112838133Y-98694184D01*
X93013920Y-98694184D01*
X93013920Y-78740000D01*
X94373000Y-78740000D01*
X94373000Y-93980000D01*
X94439758Y-94315613D01*
X94629867Y-94600133D01*
X94914387Y-94790242D01*
X95250000Y-94857000D01*
X98607841Y-94857000D01*
X98907167Y-95156850D01*
X99417499Y-95368758D01*
X99970077Y-95369240D01*
X100480777Y-95158223D01*
X100871850Y-94767833D01*
X100964967Y-94543581D01*
X101056777Y-94765777D01*
X101447167Y-95156850D01*
X101957499Y-95368758D01*
X102510077Y-95369240D01*
X103020777Y-95158223D01*
X103411850Y-94767833D01*
X103504967Y-94543581D01*
X103596777Y-94765777D01*
X103987167Y-95156850D01*
X104497499Y-95368758D01*
X105050077Y-95369240D01*
X105560777Y-95158223D01*
X105766067Y-94953291D01*
X106515658Y-94953291D01*
X106585225Y-95193708D01*
X107105242Y-95380593D01*
X107657193Y-95354251D01*
X108044775Y-95193708D01*
X108114342Y-94953291D01*
X107315000Y-94153948D01*
X106515658Y-94953291D01*
X105766067Y-94953291D01*
X105951850Y-94767833D01*
X106038702Y-94558670D01*
X106101292Y-94709775D01*
X106341709Y-94779342D01*
X107141052Y-93980000D01*
X107488948Y-93980000D01*
X108288291Y-94779342D01*
X108528708Y-94709775D01*
X108715593Y-94189758D01*
X108689251Y-93637807D01*
X108528708Y-93250225D01*
X108288291Y-93180658D01*
X107488948Y-93980000D01*
X107141052Y-93980000D01*
X106341709Y-93180658D01*
X106101292Y-93250225D01*
X106043178Y-93411930D01*
X105953223Y-93194223D01*
X105562833Y-92803150D01*
X105338581Y-92710033D01*
X105560777Y-92618223D01*
X105951850Y-92227833D01*
X106044967Y-92003581D01*
X106136777Y-92225777D01*
X106527167Y-92616850D01*
X106736330Y-92703702D01*
X106585225Y-92766292D01*
X106515658Y-93006709D01*
X107315000Y-93806052D01*
X108114342Y-93006709D01*
X108044775Y-92766292D01*
X107883070Y-92708178D01*
X108100777Y-92618223D01*
X108491850Y-92227833D01*
X108703758Y-91717501D01*
X108704240Y-91164923D01*
X108493223Y-90654223D01*
X108375023Y-90535816D01*
X161098133Y-90535816D01*
X161172368Y-90780169D01*
X161706164Y-90973406D01*
X162273276Y-90947659D01*
X162677632Y-90780169D01*
X162751867Y-90535816D01*
X161925000Y-89708948D01*
X161098133Y-90535816D01*
X108375023Y-90535816D01*
X108192000Y-90352473D01*
X108192000Y-89316164D01*
X160486594Y-89316164D01*
X160512341Y-89883276D01*
X160679831Y-90287632D01*
X160924184Y-90361867D01*
X161751052Y-89535000D01*
X162098948Y-89535000D01*
X162925816Y-90361867D01*
X163170169Y-90287632D01*
X163363406Y-89753836D01*
X163337659Y-89186724D01*
X163170169Y-88782368D01*
X162925816Y-88708133D01*
X162098948Y-89535000D01*
X161751052Y-89535000D01*
X160924184Y-88708133D01*
X160679831Y-88782368D01*
X160486594Y-89316164D01*
X108192000Y-89316164D01*
X108192000Y-86626759D01*
X112952767Y-86626759D01*
X113157403Y-87122017D01*
X113535990Y-87501265D01*
X114030890Y-87706765D01*
X114566759Y-87707233D01*
X115062017Y-87502597D01*
X115441265Y-87124010D01*
X115570063Y-86813830D01*
X115697403Y-87122017D01*
X116075990Y-87501265D01*
X116570890Y-87706765D01*
X117106759Y-87707233D01*
X117602017Y-87502597D01*
X117802102Y-87302860D01*
X118611089Y-87302860D01*
X118675495Y-87538928D01*
X119180278Y-87718790D01*
X119715468Y-87691788D01*
X120084505Y-87538928D01*
X120148911Y-87302860D01*
X119380000Y-86533948D01*
X118611089Y-87302860D01*
X117802102Y-87302860D01*
X117981265Y-87124010D01*
X118103643Y-86829290D01*
X118201072Y-87064505D01*
X118437140Y-87128911D01*
X119206052Y-86360000D01*
X119553948Y-86360000D01*
X120322860Y-87128911D01*
X120558928Y-87064505D01*
X120702201Y-86662407D01*
X127377735Y-86662407D01*
X127609717Y-87223846D01*
X128038894Y-87653773D01*
X128599928Y-87886735D01*
X129207407Y-87887265D01*
X129768846Y-87655283D01*
X129953655Y-87470797D01*
X130013455Y-87615167D01*
X130189833Y-87791545D01*
X130420282Y-87887000D01*
X131165250Y-87887000D01*
X131322000Y-87730250D01*
X131322000Y-86483000D01*
X131568000Y-86483000D01*
X131568000Y-87730250D01*
X131724750Y-87887000D01*
X132469718Y-87887000D01*
X132700167Y-87791545D01*
X132876545Y-87615167D01*
X132972000Y-87384718D01*
X132972000Y-87277603D01*
X160497752Y-87277603D01*
X160714543Y-87802275D01*
X161115614Y-88204047D01*
X161247379Y-88258760D01*
X161172368Y-88289831D01*
X161098133Y-88534184D01*
X161925000Y-89361052D01*
X162751867Y-88534184D01*
X162677632Y-88289831D01*
X162597916Y-88260973D01*
X162732275Y-88205457D01*
X163134047Y-87804386D01*
X163351752Y-87280093D01*
X163352248Y-86712397D01*
X163135457Y-86187725D01*
X162734386Y-85785953D01*
X162210093Y-85568248D01*
X161642397Y-85567752D01*
X161117725Y-85784543D01*
X160715953Y-86185614D01*
X160498248Y-86709907D01*
X160497752Y-87277603D01*
X132972000Y-87277603D01*
X132972000Y-86639750D01*
X132815250Y-86483000D01*
X131568000Y-86483000D01*
X131322000Y-86483000D01*
X131302000Y-86483000D01*
X131302000Y-86237000D01*
X131322000Y-86237000D01*
X131322000Y-84989750D01*
X131568000Y-84989750D01*
X131568000Y-86237000D01*
X132815250Y-86237000D01*
X132972000Y-86080250D01*
X132972000Y-85335282D01*
X132876545Y-85104833D01*
X132700167Y-84928455D01*
X132469718Y-84833000D01*
X131724750Y-84833000D01*
X131568000Y-84989750D01*
X131322000Y-84989750D01*
X131165250Y-84833000D01*
X130420282Y-84833000D01*
X130189833Y-84928455D01*
X130013455Y-85104833D01*
X129953687Y-85249127D01*
X129771106Y-85066227D01*
X129210072Y-84833265D01*
X128602593Y-84832735D01*
X128041154Y-85064717D01*
X127611227Y-85493894D01*
X127378265Y-86054928D01*
X127377735Y-86662407D01*
X120702201Y-86662407D01*
X120738790Y-86559722D01*
X120711788Y-86024532D01*
X120558928Y-85655495D01*
X120322860Y-85591089D01*
X119553948Y-86360000D01*
X119206052Y-86360000D01*
X118437140Y-85591089D01*
X118201072Y-85655495D01*
X118110912Y-85908529D01*
X117982597Y-85597983D01*
X117802070Y-85417140D01*
X118611089Y-85417140D01*
X119380000Y-86186052D01*
X120148911Y-85417140D01*
X120084505Y-85181072D01*
X119579722Y-85001210D01*
X119044532Y-85028212D01*
X118675495Y-85181072D01*
X118611089Y-85417140D01*
X117802070Y-85417140D01*
X117604010Y-85218735D01*
X117109110Y-85013235D01*
X116573241Y-85012767D01*
X116077983Y-85217403D01*
X115698735Y-85595990D01*
X115569937Y-85906170D01*
X115442597Y-85597983D01*
X115064010Y-85218735D01*
X114569110Y-85013235D01*
X114033241Y-85012767D01*
X113537983Y-85217403D01*
X113158735Y-85595990D01*
X112953235Y-86090890D01*
X112952767Y-86626759D01*
X108192000Y-86626759D01*
X108192000Y-84183266D01*
X110177662Y-82197603D01*
X127477752Y-82197603D01*
X127694543Y-82722275D01*
X128095614Y-83124047D01*
X128619907Y-83341752D01*
X129187603Y-83342248D01*
X129712275Y-83125457D01*
X130114047Y-82724386D01*
X130331752Y-82200093D01*
X130332248Y-81632397D01*
X130115457Y-81107725D01*
X129714386Y-80705953D01*
X129190093Y-80488248D01*
X128622397Y-80487752D01*
X128097725Y-80704543D01*
X127695953Y-81105614D01*
X127478248Y-81629907D01*
X127477752Y-82197603D01*
X110177662Y-82197603D01*
X116534171Y-75841094D01*
X130820053Y-75841094D01*
X130894288Y-76085447D01*
X131428084Y-76278684D01*
X131995196Y-76252937D01*
X132399552Y-76085447D01*
X132473787Y-75841094D01*
X135900053Y-75841094D01*
X135974288Y-76085447D01*
X136508084Y-76278684D01*
X137075196Y-76252937D01*
X137479552Y-76085447D01*
X137553787Y-75841094D01*
X136726920Y-75014226D01*
X135900053Y-75841094D01*
X132473787Y-75841094D01*
X131646920Y-75014226D01*
X130820053Y-75841094D01*
X116534171Y-75841094D01*
X117753823Y-74621442D01*
X130208514Y-74621442D01*
X130234261Y-75188554D01*
X130401751Y-75592910D01*
X130646104Y-75667145D01*
X131472972Y-74840278D01*
X131820868Y-74840278D01*
X132647736Y-75667145D01*
X132892089Y-75592910D01*
X133085326Y-75059114D01*
X133065456Y-74621442D01*
X135288514Y-74621442D01*
X135314261Y-75188554D01*
X135481751Y-75592910D01*
X135726104Y-75667145D01*
X136552972Y-74840278D01*
X136900868Y-74840278D01*
X137727736Y-75667145D01*
X137972089Y-75592910D01*
X138165326Y-75059114D01*
X138139579Y-74492002D01*
X137972089Y-74087646D01*
X137727736Y-74013411D01*
X136900868Y-74840278D01*
X136552972Y-74840278D01*
X135726104Y-74013411D01*
X135481751Y-74087646D01*
X135288514Y-74621442D01*
X133065456Y-74621442D01*
X133059579Y-74492002D01*
X132892089Y-74087646D01*
X132647736Y-74013411D01*
X131820868Y-74840278D01*
X131472972Y-74840278D01*
X130646104Y-74013411D01*
X130401751Y-74087646D01*
X130208514Y-74621442D01*
X117753823Y-74621442D01*
X119752384Y-72622881D01*
X130219672Y-72622881D01*
X130436463Y-73147553D01*
X130837534Y-73549325D01*
X130921074Y-73584014D01*
X130894288Y-73595109D01*
X130820053Y-73839462D01*
X131646920Y-74666330D01*
X132473787Y-73839462D01*
X132399552Y-73595109D01*
X132371436Y-73584931D01*
X132454195Y-73550735D01*
X132855967Y-73149664D01*
X133073672Y-72625371D01*
X133073674Y-72622881D01*
X135299672Y-72622881D01*
X135516463Y-73147553D01*
X135917534Y-73549325D01*
X136001074Y-73584014D01*
X135974288Y-73595109D01*
X135900053Y-73839462D01*
X136726920Y-74666330D01*
X137553787Y-73839462D01*
X137479552Y-73595109D01*
X137451436Y-73584931D01*
X137534195Y-73550735D01*
X137935967Y-73149664D01*
X138153672Y-72625371D01*
X138154168Y-72057675D01*
X137937377Y-71533003D01*
X137536306Y-71131231D01*
X137012013Y-70913526D01*
X136444317Y-70913030D01*
X135919645Y-71129821D01*
X135517873Y-71530892D01*
X135300168Y-72055185D01*
X135299672Y-72622881D01*
X133073674Y-72622881D01*
X133074168Y-72057675D01*
X132857377Y-71533003D01*
X132456306Y-71131231D01*
X131932013Y-70913526D01*
X131364317Y-70913030D01*
X130839645Y-71129821D01*
X130437873Y-71530892D01*
X130220168Y-72055185D01*
X130219672Y-72622881D01*
X119752384Y-72622881D01*
X123819920Y-68555345D01*
X123819920Y-69830278D01*
X123829254Y-69878067D01*
X123857117Y-69920081D01*
X124122931Y-70185895D01*
X124087873Y-70220892D01*
X123870168Y-70745185D01*
X123869672Y-71312881D01*
X124086463Y-71837553D01*
X124487534Y-72239325D01*
X125011827Y-72457030D01*
X125579523Y-72457526D01*
X126104195Y-72240735D01*
X126314202Y-72031094D01*
X127010053Y-72031094D01*
X127084288Y-72275447D01*
X127618084Y-72468684D01*
X128185196Y-72442937D01*
X128589552Y-72275447D01*
X128663787Y-72031094D01*
X127836920Y-71204226D01*
X127010053Y-72031094D01*
X126314202Y-72031094D01*
X126505967Y-71839664D01*
X126560680Y-71707899D01*
X126591751Y-71782910D01*
X126836104Y-71857145D01*
X127662972Y-71030278D01*
X127648829Y-71016136D01*
X127822778Y-70842188D01*
X127836920Y-70856330D01*
X127851063Y-70842188D01*
X128025011Y-71016136D01*
X128010868Y-71030278D01*
X128837736Y-71857145D01*
X129082089Y-71782910D01*
X129275326Y-71249114D01*
X129249579Y-70682002D01*
X129212414Y-70592278D01*
X139821920Y-70592278D01*
X139868079Y-70583593D01*
X139910473Y-70556313D01*
X139938914Y-70514688D01*
X139948920Y-70465278D01*
X139948920Y-66147278D01*
X148983000Y-66147278D01*
X148983000Y-68216734D01*
X136711572Y-80488162D01*
X136242397Y-80487752D01*
X135717725Y-80704543D01*
X135315953Y-81105614D01*
X135098248Y-81629907D01*
X135097752Y-82197603D01*
X135314543Y-82722275D01*
X135715614Y-83124047D01*
X136239907Y-83341752D01*
X136807603Y-83342248D01*
X137332275Y-83125457D01*
X137734047Y-82724386D01*
X137951752Y-82200093D01*
X137952164Y-81728102D01*
X138956404Y-80723862D01*
X152918173Y-80723862D01*
X152992408Y-80968215D01*
X153526204Y-81161452D01*
X154093316Y-81135705D01*
X154497672Y-80968215D01*
X154571907Y-80723862D01*
X153745040Y-79896994D01*
X152918173Y-80723862D01*
X138956404Y-80723862D01*
X140176056Y-79504210D01*
X152306634Y-79504210D01*
X152332381Y-80071322D01*
X152499871Y-80475678D01*
X152744224Y-80549913D01*
X153571092Y-79723046D01*
X153918988Y-79723046D01*
X154745856Y-80549913D01*
X154990209Y-80475678D01*
X155183446Y-79941882D01*
X155157699Y-79374770D01*
X154990209Y-78970414D01*
X154745856Y-78896179D01*
X153918988Y-79723046D01*
X153571092Y-79723046D01*
X152744224Y-78896179D01*
X152499871Y-78970414D01*
X152306634Y-79504210D01*
X140176056Y-79504210D01*
X141496404Y-78183862D01*
X152918173Y-78183862D01*
X152992408Y-78428215D01*
X153056387Y-78451376D01*
X152992408Y-78477877D01*
X152918173Y-78722230D01*
X153745040Y-79549098D01*
X154571907Y-78722230D01*
X154497672Y-78477877D01*
X154433693Y-78454716D01*
X154497672Y-78428215D01*
X154571907Y-78183862D01*
X153745040Y-77356994D01*
X152918173Y-78183862D01*
X141496404Y-78183862D01*
X142716056Y-76964210D01*
X152306634Y-76964210D01*
X152332381Y-77531322D01*
X152499871Y-77935678D01*
X152744224Y-78009913D01*
X153571092Y-77183046D01*
X153918988Y-77183046D01*
X154745856Y-78009913D01*
X154990209Y-77935678D01*
X155183446Y-77401882D01*
X155157699Y-76834770D01*
X154990209Y-76430414D01*
X154745856Y-76356179D01*
X153918988Y-77183046D01*
X153571092Y-77183046D01*
X152744224Y-76356179D01*
X152499871Y-76430414D01*
X152306634Y-76964210D01*
X142716056Y-76964210D01*
X144036404Y-75643862D01*
X152918173Y-75643862D01*
X152992408Y-75888215D01*
X153056387Y-75911376D01*
X152992408Y-75937877D01*
X152918173Y-76182230D01*
X153745040Y-77009098D01*
X154571907Y-76182230D01*
X154497672Y-75937877D01*
X154433693Y-75914716D01*
X154497672Y-75888215D01*
X154571907Y-75643862D01*
X153745040Y-74816994D01*
X152918173Y-75643862D01*
X144036404Y-75643862D01*
X145256056Y-74424210D01*
X152306634Y-74424210D01*
X152332381Y-74991322D01*
X152499871Y-75395678D01*
X152744224Y-75469913D01*
X153571092Y-74643046D01*
X153918988Y-74643046D01*
X154745856Y-75469913D01*
X154990209Y-75395678D01*
X155183446Y-74861882D01*
X155157699Y-74294770D01*
X154990209Y-73890414D01*
X154745856Y-73816179D01*
X153918988Y-74643046D01*
X153571092Y-74643046D01*
X152744224Y-73816179D01*
X152499871Y-73890414D01*
X152306634Y-74424210D01*
X145256056Y-74424210D01*
X146038036Y-73642230D01*
X152918173Y-73642230D01*
X153745040Y-74469098D01*
X154571907Y-73642230D01*
X154497672Y-73397877D01*
X153963876Y-73204640D01*
X153396764Y-73230387D01*
X152992408Y-73397877D01*
X152918173Y-73642230D01*
X146038036Y-73642230D01*
X150480133Y-69200133D01*
X150670242Y-68915613D01*
X150737001Y-68580000D01*
X150737000Y-68579995D01*
X150737000Y-62230005D01*
X150737001Y-62230000D01*
X150670242Y-61894387D01*
X150512812Y-61658775D01*
X150480133Y-61609867D01*
X150480130Y-61609865D01*
X149473920Y-60603655D01*
X149473920Y-53955278D01*
X149465235Y-53909119D01*
X149437955Y-53866725D01*
X149396330Y-53838284D01*
X149346920Y-53828278D01*
X137603920Y-53828278D01*
X137603920Y-52271925D01*
X137603921Y-52271920D01*
X137537162Y-51936307D01*
X137486338Y-51860242D01*
X173859407Y-51860242D01*
X173885749Y-52412193D01*
X174046292Y-52799775D01*
X174286709Y-52869342D01*
X175086052Y-52070000D01*
X174286709Y-51270658D01*
X174046292Y-51340225D01*
X173859407Y-51860242D01*
X137486338Y-51860242D01*
X137347053Y-51651787D01*
X136791975Y-51096709D01*
X174460658Y-51096709D01*
X175260000Y-51896052D01*
X176059342Y-51096709D01*
X175989775Y-50856292D01*
X175469758Y-50669407D01*
X174917807Y-50695749D01*
X174530225Y-50856292D01*
X174460658Y-51096709D01*
X136791975Y-51096709D01*
X135497000Y-49801734D01*
X135497000Y-49347159D01*
X135796850Y-49047833D01*
X135889967Y-48823581D01*
X135981777Y-49045777D01*
X136372167Y-49436850D01*
X136882499Y-49648758D01*
X137435077Y-49649240D01*
X137945777Y-49438223D01*
X138151067Y-49233291D01*
X138900658Y-49233291D01*
X138970225Y-49473708D01*
X139490242Y-49660593D01*
X140042193Y-49634251D01*
X140429775Y-49473708D01*
X140499342Y-49233291D01*
X139700000Y-48433948D01*
X138900658Y-49233291D01*
X138151067Y-49233291D01*
X138336850Y-49047833D01*
X138423702Y-48838670D01*
X138486292Y-48989775D01*
X138726709Y-49059342D01*
X139526052Y-48260000D01*
X139873948Y-48260000D01*
X140673291Y-49059342D01*
X140913708Y-48989775D01*
X141100593Y-48469758D01*
X141074251Y-47917807D01*
X140913708Y-47530225D01*
X140673291Y-47460658D01*
X139873948Y-48260000D01*
X139526052Y-48260000D01*
X138726709Y-47460658D01*
X138486292Y-47530225D01*
X138428178Y-47691930D01*
X138338223Y-47474223D01*
X138151037Y-47286709D01*
X138900658Y-47286709D01*
X139700000Y-48086052D01*
X140499342Y-47286709D01*
X140429775Y-47046292D01*
X139909758Y-46859407D01*
X139357807Y-46885749D01*
X138970225Y-47046292D01*
X138900658Y-47286709D01*
X138151037Y-47286709D01*
X137947833Y-47083150D01*
X137437501Y-46871242D01*
X136884923Y-46870760D01*
X136374223Y-47081777D01*
X135983150Y-47472167D01*
X135890033Y-47696419D01*
X135798223Y-47474223D01*
X135407833Y-47083150D01*
X134897501Y-46871242D01*
X134344923Y-46870760D01*
X133834223Y-47081777D01*
X133443150Y-47472167D01*
X133350033Y-47696419D01*
X133258223Y-47474223D01*
X132867833Y-47083150D01*
X132357501Y-46871242D01*
X131804923Y-46870760D01*
X131294223Y-47081777D01*
X130903150Y-47472167D01*
X130810033Y-47696419D01*
X130718223Y-47474223D01*
X130327833Y-47083150D01*
X129817501Y-46871242D01*
X129264923Y-46870760D01*
X128754223Y-47081777D01*
X128363150Y-47472167D01*
X128270033Y-47696419D01*
X128178223Y-47474223D01*
X127787833Y-47083150D01*
X127277501Y-46871242D01*
X126724923Y-46870760D01*
X126214223Y-47081777D01*
X125823150Y-47472167D01*
X125730033Y-47696419D01*
X125638223Y-47474223D01*
X125247833Y-47083150D01*
X124737501Y-46871242D01*
X124184923Y-46870760D01*
X123674223Y-47081777D01*
X123283150Y-47472167D01*
X123190033Y-47696419D01*
X123098223Y-47474223D01*
X122707833Y-47083150D01*
X122197501Y-46871242D01*
X121644923Y-46870760D01*
X121134223Y-47081777D01*
X120743150Y-47472167D01*
X120650033Y-47696419D01*
X120558223Y-47474223D01*
X120167833Y-47083150D01*
X119657501Y-46871242D01*
X119104923Y-46870760D01*
X118594223Y-47081777D01*
X118203150Y-47472167D01*
X118110033Y-47696419D01*
X118018223Y-47474223D01*
X117627833Y-47083150D01*
X117117501Y-46871242D01*
X116564923Y-46870760D01*
X116054223Y-47081777D01*
X115663150Y-47472167D01*
X115570033Y-47696419D01*
X115478223Y-47474223D01*
X115087833Y-47083150D01*
X114577501Y-46871242D01*
X114024923Y-46870760D01*
X113514223Y-47081777D01*
X113123150Y-47472167D01*
X113036298Y-47681330D01*
X112973708Y-47530225D01*
X112733291Y-47460658D01*
X111933948Y-48260000D01*
X112733291Y-49059342D01*
X112973708Y-48989775D01*
X113031822Y-48828070D01*
X113121777Y-49045777D01*
X113423000Y-49347527D01*
X113423000Y-53683358D01*
X113451827Y-53828278D01*
X113145185Y-53828278D01*
X110097000Y-50780092D01*
X110097000Y-49347159D01*
X110211067Y-49233291D01*
X110960658Y-49233291D01*
X111030225Y-49473708D01*
X111550242Y-49660593D01*
X112102193Y-49634251D01*
X112489775Y-49473708D01*
X112559342Y-49233291D01*
X111760000Y-48433948D01*
X110960658Y-49233291D01*
X110211067Y-49233291D01*
X110396850Y-49047833D01*
X110483702Y-48838670D01*
X110546292Y-48989775D01*
X110786709Y-49059342D01*
X111586052Y-48260000D01*
X110786709Y-47460658D01*
X110546292Y-47530225D01*
X110488178Y-47691930D01*
X110398223Y-47474223D01*
X110211037Y-47286709D01*
X110960658Y-47286709D01*
X111760000Y-48086052D01*
X112559342Y-47286709D01*
X112489775Y-47046292D01*
X111969758Y-46859407D01*
X111417807Y-46885749D01*
X111030225Y-47046292D01*
X110960658Y-47286709D01*
X110211037Y-47286709D01*
X110007833Y-47083150D01*
X109497501Y-46871242D01*
X108944923Y-46870760D01*
X108434223Y-47081777D01*
X108043150Y-47472167D01*
X107950033Y-47696419D01*
X107858223Y-47474223D01*
X107467833Y-47083150D01*
X106957501Y-46871242D01*
X106404923Y-46870760D01*
X105894223Y-47081777D01*
X105503150Y-47472167D01*
X105410033Y-47696419D01*
X105318223Y-47474223D01*
X104927833Y-47083150D01*
X104417501Y-46871242D01*
X103864923Y-46870760D01*
X103354223Y-47081777D01*
X102963150Y-47472167D01*
X102876298Y-47681330D01*
X102813708Y-47530225D01*
X102573291Y-47460658D01*
X101773948Y-48260000D01*
X102573291Y-49059342D01*
X102813708Y-48989775D01*
X102871822Y-48828070D01*
X102961777Y-49045777D01*
X103352167Y-49436850D01*
X103862499Y-49648758D01*
X104415077Y-49649240D01*
X104925777Y-49438223D01*
X105316850Y-49047833D01*
X105409967Y-48823581D01*
X105501777Y-49045777D01*
X105892167Y-49436850D01*
X106402499Y-49648758D01*
X106955077Y-49649240D01*
X107465777Y-49438223D01*
X107856850Y-49047833D01*
X107949967Y-48823581D01*
X108041777Y-49045777D01*
X108343000Y-49347527D01*
X108343000Y-51143358D01*
X108409758Y-51478971D01*
X108599867Y-51763491D01*
X111119920Y-54283543D01*
X111119920Y-59448000D01*
X107950005Y-59448000D01*
X107950000Y-59447999D01*
X107614387Y-59514758D01*
X107329867Y-59704867D01*
X107329865Y-59704870D01*
X99836866Y-67197868D01*
X99646757Y-67482388D01*
X99579999Y-67818001D01*
X99579999Y-72905900D01*
X99419923Y-72905760D01*
X98909223Y-73116777D01*
X98546161Y-73479205D01*
X98512563Y-73300648D01*
X98375243Y-73087247D01*
X98165717Y-72944083D01*
X97917000Y-72893717D01*
X96393000Y-72893717D01*
X96160648Y-72937437D01*
X95947247Y-73074757D01*
X95804083Y-73284283D01*
X95753717Y-73533000D01*
X95753717Y-75057000D01*
X95797437Y-75289352D01*
X95934757Y-75502753D01*
X96144283Y-75645917D01*
X96393000Y-75696283D01*
X97917000Y-75696283D01*
X98149352Y-75652563D01*
X98362753Y-75515243D01*
X98505917Y-75305717D01*
X98545618Y-75109668D01*
X98907167Y-75471850D01*
X99417499Y-75683758D01*
X99970077Y-75684240D01*
X100480777Y-75473223D01*
X100871850Y-75082833D01*
X100964967Y-74858581D01*
X101056777Y-75080777D01*
X101447167Y-75471850D01*
X101957499Y-75683758D01*
X102510077Y-75684240D01*
X103020777Y-75473223D01*
X103226067Y-75268291D01*
X103975658Y-75268291D01*
X104045225Y-75508708D01*
X104565242Y-75695593D01*
X105117193Y-75669251D01*
X105504775Y-75508708D01*
X105574342Y-75268291D01*
X104775000Y-74468948D01*
X103975658Y-75268291D01*
X103226067Y-75268291D01*
X103411850Y-75082833D01*
X103498702Y-74873670D01*
X103561292Y-75024775D01*
X103801709Y-75094342D01*
X104601052Y-74295000D01*
X104948948Y-74295000D01*
X105748291Y-75094342D01*
X105988708Y-75024775D01*
X106175593Y-74504758D01*
X106149251Y-73952807D01*
X105988708Y-73565225D01*
X105748291Y-73495658D01*
X104948948Y-74295000D01*
X104601052Y-74295000D01*
X103801709Y-73495658D01*
X103561292Y-73565225D01*
X103503178Y-73726930D01*
X103413223Y-73509223D01*
X103226037Y-73321709D01*
X103975658Y-73321709D01*
X104775000Y-74121052D01*
X105574342Y-73321709D01*
X105504775Y-73081292D01*
X104984758Y-72894407D01*
X104432807Y-72920749D01*
X104045225Y-73081292D01*
X103975658Y-73321709D01*
X103226037Y-73321709D01*
X103022833Y-73118150D01*
X102512501Y-72906242D01*
X101959923Y-72905760D01*
X101449223Y-73116777D01*
X101333999Y-73231800D01*
X101333999Y-68181267D01*
X108313265Y-61202000D01*
X111119920Y-61202000D01*
X111119920Y-65385278D01*
X111128605Y-65431437D01*
X111155885Y-65473831D01*
X111197510Y-65502272D01*
X111246920Y-65512278D01*
X112921948Y-65512278D01*
X112657873Y-65775892D01*
X112440168Y-66300185D01*
X112439672Y-66867881D01*
X112656463Y-67392553D01*
X113057534Y-67794325D01*
X113581827Y-68012030D01*
X114149523Y-68012526D01*
X114674195Y-67795735D01*
X115075967Y-67394664D01*
X115157410Y-67198527D01*
X115228697Y-67371055D01*
X115619087Y-67762128D01*
X116129419Y-67974036D01*
X116681997Y-67974518D01*
X117192697Y-67763501D01*
X117583770Y-67373111D01*
X117676887Y-67148859D01*
X117768697Y-67371055D01*
X118159087Y-67762128D01*
X118669419Y-67974036D01*
X118745632Y-67974102D01*
X116476734Y-70243000D01*
X112395000Y-70243000D01*
X112059386Y-70309758D01*
X111945424Y-70385905D01*
X111774867Y-70499867D01*
X111774865Y-70499870D01*
X104961572Y-77313162D01*
X104492397Y-77312752D01*
X103967725Y-77529543D01*
X103565953Y-77930614D01*
X103348248Y-78454907D01*
X103347752Y-79022603D01*
X103564543Y-79547275D01*
X103965614Y-79949047D01*
X104097379Y-80003760D01*
X104022368Y-80034831D01*
X103948133Y-80279184D01*
X104775000Y-81106052D01*
X105601867Y-80279184D01*
X105527632Y-80034831D01*
X105447916Y-80005973D01*
X105582275Y-79950457D01*
X105984047Y-79549386D01*
X106201752Y-79025093D01*
X106202164Y-78553102D01*
X112758265Y-71997000D01*
X116840000Y-71997000D01*
X117175613Y-71930242D01*
X117460133Y-71740133D01*
X123687987Y-65512278D01*
X123819920Y-65512278D01*
X123819920Y-66074815D01*
X115215071Y-74679663D01*
X115293672Y-74490371D01*
X115294168Y-73922675D01*
X115077377Y-73398003D01*
X114676306Y-72996231D01*
X114152013Y-72778526D01*
X113584317Y-72778030D01*
X113059645Y-72994821D01*
X112657873Y-73395892D01*
X112440168Y-73920185D01*
X112439672Y-74487881D01*
X112656463Y-75012553D01*
X113057534Y-75414325D01*
X113581827Y-75632030D01*
X114149523Y-75632526D01*
X114341555Y-75553180D01*
X106694867Y-83199867D01*
X106504758Y-83484387D01*
X106438000Y-83820000D01*
X106438000Y-90352841D01*
X106138150Y-90652167D01*
X106045033Y-90876419D01*
X105953223Y-90654223D01*
X105562833Y-90263150D01*
X105052501Y-90051242D01*
X104499923Y-90050760D01*
X103989223Y-90261777D01*
X103598150Y-90652167D01*
X103505033Y-90876419D01*
X103413223Y-90654223D01*
X103022833Y-90263150D01*
X102512501Y-90051242D01*
X101959923Y-90050760D01*
X101449223Y-90261777D01*
X101086161Y-90624205D01*
X101052563Y-90445648D01*
X100915243Y-90232247D01*
X100705717Y-90089083D01*
X100457000Y-90038717D01*
X98933000Y-90038717D01*
X98700648Y-90082437D01*
X98487247Y-90219757D01*
X98344083Y-90429283D01*
X98293717Y-90678000D01*
X98293717Y-92202000D01*
X98337437Y-92434352D01*
X98474757Y-92647753D01*
X98684283Y-92790917D01*
X98880332Y-92830618D01*
X98607473Y-93103000D01*
X96127000Y-93103000D01*
X96127000Y-87918572D01*
X96252534Y-88044325D01*
X96776827Y-88262030D01*
X97344523Y-88262526D01*
X97869195Y-88045735D01*
X98270967Y-87644664D01*
X98488672Y-87120371D01*
X98489168Y-86552675D01*
X98272377Y-86028003D01*
X97871306Y-85626231D01*
X97724802Y-85565397D01*
X97869195Y-85505735D01*
X98270967Y-85104664D01*
X98488672Y-84580371D01*
X98488674Y-84577881D01*
X103254672Y-84577881D01*
X103471463Y-85102553D01*
X103872534Y-85504325D01*
X104019038Y-85565159D01*
X103874645Y-85624821D01*
X103472873Y-86025892D01*
X103255168Y-86550185D01*
X103254672Y-87117881D01*
X103471463Y-87642553D01*
X103872534Y-88044325D01*
X104396827Y-88262030D01*
X104964523Y-88262526D01*
X105489195Y-88045735D01*
X105890967Y-87644664D01*
X106108672Y-87120371D01*
X106109168Y-86552675D01*
X105892377Y-86028003D01*
X105491306Y-85626231D01*
X105344802Y-85565397D01*
X105489195Y-85505735D01*
X105890967Y-85104664D01*
X106108672Y-84580371D01*
X106109168Y-84012675D01*
X105892377Y-83488003D01*
X105491306Y-83086231D01*
X104967013Y-82868526D01*
X104399317Y-82868030D01*
X103874645Y-83084821D01*
X103472873Y-83485892D01*
X103255168Y-84010185D01*
X103254672Y-84577881D01*
X98488674Y-84577881D01*
X98489168Y-84012675D01*
X98272377Y-83488003D01*
X97871306Y-83086231D01*
X97347013Y-82868526D01*
X96779317Y-82868030D01*
X96254645Y-83084821D01*
X96127000Y-83212243D01*
X96127000Y-82270051D01*
X96345614Y-82489047D01*
X96869907Y-82706752D01*
X97437603Y-82707248D01*
X97962275Y-82490457D01*
X98172282Y-82280816D01*
X103948133Y-82280816D01*
X104022368Y-82525169D01*
X104556164Y-82718406D01*
X105123276Y-82692659D01*
X105527632Y-82525169D01*
X105601867Y-82280816D01*
X104775000Y-81453948D01*
X103948133Y-82280816D01*
X98172282Y-82280816D01*
X98364047Y-82089386D01*
X98581752Y-81565093D01*
X98582192Y-81061164D01*
X103336594Y-81061164D01*
X103362341Y-81628276D01*
X103529831Y-82032632D01*
X103774184Y-82106867D01*
X104601052Y-81280000D01*
X104948948Y-81280000D01*
X105775816Y-82106867D01*
X106020169Y-82032632D01*
X106213406Y-81498836D01*
X106187659Y-80931724D01*
X106020169Y-80527368D01*
X105775816Y-80453133D01*
X104948948Y-81280000D01*
X104601052Y-81280000D01*
X103774184Y-80453133D01*
X103529831Y-80527368D01*
X103336594Y-81061164D01*
X98582192Y-81061164D01*
X98582248Y-80997397D01*
X98365457Y-80472725D01*
X97964386Y-80070953D01*
X97817882Y-80010119D01*
X97962275Y-79950457D01*
X98364047Y-79549386D01*
X98581752Y-79025093D01*
X98582248Y-78457397D01*
X98365457Y-77932725D01*
X97964386Y-77530953D01*
X97440093Y-77313248D01*
X96872397Y-77312752D01*
X96347725Y-77529543D01*
X96013685Y-77863000D01*
X95250000Y-77863000D01*
X94914387Y-77929758D01*
X94629867Y-78119867D01*
X94439758Y-78404387D01*
X94373000Y-78740000D01*
X93013920Y-78740000D01*
X93013920Y-51717603D01*
X95092752Y-51717603D01*
X95309543Y-52242275D01*
X95710614Y-52644047D01*
X96234907Y-52861752D01*
X96802603Y-52862248D01*
X97327275Y-52645457D01*
X97729047Y-52244386D01*
X97946752Y-51720093D01*
X97946754Y-51717603D01*
X102712752Y-51717603D01*
X102929543Y-52242275D01*
X103330614Y-52644047D01*
X103854907Y-52861752D01*
X104422603Y-52862248D01*
X104947275Y-52645457D01*
X105349047Y-52244386D01*
X105566752Y-51720093D01*
X105567248Y-51152397D01*
X105350457Y-50627725D01*
X104949386Y-50225953D01*
X104425093Y-50008248D01*
X103857397Y-50007752D01*
X103332725Y-50224543D01*
X102930953Y-50625614D01*
X102713248Y-51149907D01*
X102712752Y-51717603D01*
X97946754Y-51717603D01*
X97947248Y-51152397D01*
X97730457Y-50627725D01*
X97329386Y-50225953D01*
X96805093Y-50008248D01*
X96237397Y-50007752D01*
X95712725Y-50224543D01*
X95310953Y-50625614D01*
X95093248Y-51149907D01*
X95092752Y-51717603D01*
X93013920Y-51717603D01*
X93013920Y-49233291D01*
X100800658Y-49233291D01*
X100870225Y-49473708D01*
X101390242Y-49660593D01*
X101942193Y-49634251D01*
X102329775Y-49473708D01*
X102399342Y-49233291D01*
X101600000Y-48433948D01*
X100800658Y-49233291D01*
X93013920Y-49233291D01*
X93013920Y-48050242D01*
X100199407Y-48050242D01*
X100225749Y-48602193D01*
X100386292Y-48989775D01*
X100626709Y-49059342D01*
X101426052Y-48260000D01*
X100626709Y-47460658D01*
X100386292Y-47530225D01*
X100199407Y-48050242D01*
X93013920Y-48050242D01*
X93013920Y-47286709D01*
X100800658Y-47286709D01*
X101600000Y-48086052D01*
X102399342Y-47286709D01*
X102329775Y-47046292D01*
X101809758Y-46859407D01*
X101257807Y-46885749D01*
X100870225Y-47046292D01*
X100800658Y-47286709D01*
X93013920Y-47286709D01*
X93013920Y-46327278D01*
X176579920Y-46327278D01*
X176579920Y-51596641D01*
X176579920Y-51596641D01*
G37*
X176579920Y-51596641D02*
X176473708Y-51340225D01*
X176233291Y-51270658D01*
X175433948Y-52070000D01*
X176233291Y-52869342D01*
X176473708Y-52799775D01*
X176579920Y-52504235D01*
X176579920Y-54167156D01*
X176438223Y-53824223D01*
X176047833Y-53433150D01*
X175838670Y-53346298D01*
X175989775Y-53283708D01*
X176059342Y-53043291D01*
X175260000Y-52243948D01*
X174460658Y-53043291D01*
X174530225Y-53283708D01*
X174691930Y-53341822D01*
X174474223Y-53431777D01*
X174083150Y-53822167D01*
X173871242Y-54332499D01*
X173870760Y-54885077D01*
X174081777Y-55395777D01*
X174472167Y-55786850D01*
X174696419Y-55879967D01*
X174474223Y-55971777D01*
X174083150Y-56362167D01*
X173871242Y-56872499D01*
X173870760Y-57425077D01*
X174081777Y-57935777D01*
X174472167Y-58326850D01*
X174696419Y-58419967D01*
X174474223Y-58511777D01*
X174083150Y-58902167D01*
X173871242Y-59412499D01*
X173870760Y-59965077D01*
X174081777Y-60475777D01*
X174472167Y-60866850D01*
X174696419Y-60959967D01*
X174474223Y-61051777D01*
X174083150Y-61442167D01*
X173871242Y-61952499D01*
X173870760Y-62505077D01*
X174081777Y-63015777D01*
X174472167Y-63406850D01*
X174982499Y-63618758D01*
X175535077Y-63619240D01*
X176045777Y-63408223D01*
X176436850Y-63017833D01*
X176579920Y-62673282D01*
X176579920Y-69195480D01*
X176548748Y-69120225D01*
X176308331Y-69050658D01*
X175508988Y-69850000D01*
X176308331Y-70649342D01*
X176548748Y-70579775D01*
X176579920Y-70493037D01*
X176579920Y-71765545D01*
X176513263Y-71604223D01*
X176122873Y-71213150D01*
X175913710Y-71126298D01*
X176064815Y-71063708D01*
X176134382Y-70823291D01*
X175335040Y-70023948D01*
X174535698Y-70823291D01*
X174605265Y-71063708D01*
X174766970Y-71121822D01*
X174549263Y-71211777D01*
X174158190Y-71602167D01*
X173946282Y-72112499D01*
X173945800Y-72665077D01*
X174156817Y-73175777D01*
X174547207Y-73566850D01*
X174771459Y-73659967D01*
X174549263Y-73751777D01*
X174158190Y-74142167D01*
X173946282Y-74652499D01*
X173945800Y-75205077D01*
X174156817Y-75715777D01*
X174547207Y-76106850D01*
X174771459Y-76199967D01*
X174549263Y-76291777D01*
X174158190Y-76682167D01*
X173946282Y-77192499D01*
X173945800Y-77745077D01*
X174156817Y-78255777D01*
X174547207Y-78646850D01*
X174771459Y-78739967D01*
X174549263Y-78831777D01*
X174158190Y-79222167D01*
X173946282Y-79732499D01*
X173945800Y-80285077D01*
X174156817Y-80795777D01*
X174547207Y-81186850D01*
X174771459Y-81279967D01*
X174549263Y-81371777D01*
X174158190Y-81762167D01*
X173946282Y-82272499D01*
X173945800Y-82825077D01*
X174156817Y-83335777D01*
X174547207Y-83726850D01*
X174771459Y-83819967D01*
X174549263Y-83911777D01*
X174158190Y-84302167D01*
X173946282Y-84812499D01*
X173945800Y-85365077D01*
X174156817Y-85875777D01*
X174547207Y-86266850D01*
X174771459Y-86359967D01*
X174549263Y-86451777D01*
X174158190Y-86842167D01*
X173946282Y-87352499D01*
X173945800Y-87905077D01*
X174156817Y-88415777D01*
X174547207Y-88806850D01*
X174771459Y-88899967D01*
X174549263Y-88991777D01*
X174247513Y-89293000D01*
X172175259Y-89293000D01*
X165324377Y-82442118D01*
X165359997Y-82263046D01*
X165251373Y-81716957D01*
X164942038Y-81254005D01*
X164551486Y-80993046D01*
X164942038Y-80732087D01*
X165251373Y-80269135D01*
X165359997Y-79723046D01*
X165251373Y-79176957D01*
X164942038Y-78714005D01*
X164551486Y-78453046D01*
X164942038Y-78192087D01*
X165251373Y-77729135D01*
X165359997Y-77183046D01*
X165251373Y-76636957D01*
X164942038Y-76174005D01*
X164551486Y-75913046D01*
X164942038Y-75652087D01*
X165251373Y-75189135D01*
X165359997Y-74643046D01*
X165251373Y-74096957D01*
X164942038Y-73634005D01*
X164551486Y-73373046D01*
X164942038Y-73112087D01*
X165251373Y-72649135D01*
X165359997Y-72103046D01*
X165251373Y-71556957D01*
X164942038Y-71094005D01*
X164551486Y-70833046D01*
X164942038Y-70572087D01*
X165251373Y-70109135D01*
X165359997Y-69563046D01*
X170070083Y-69563046D01*
X170178707Y-70109135D01*
X170488042Y-70572087D01*
X170878594Y-70833046D01*
X170488042Y-71094005D01*
X170178707Y-71556957D01*
X170070083Y-72103046D01*
X170178707Y-72649135D01*
X170488042Y-73112087D01*
X170878594Y-73373046D01*
X170488042Y-73634005D01*
X170178707Y-74096957D01*
X170070083Y-74643046D01*
X170178707Y-75189135D01*
X170488042Y-75652087D01*
X170878594Y-75913046D01*
X170488042Y-76174005D01*
X170178707Y-76636957D01*
X170070083Y-77183046D01*
X170178707Y-77729135D01*
X170488042Y-78192087D01*
X170878594Y-78453046D01*
X170488042Y-78714005D01*
X170178707Y-79176957D01*
X170070083Y-79723046D01*
X170178707Y-80269135D01*
X170488042Y-80732087D01*
X170878594Y-80993046D01*
X170488042Y-81254005D01*
X170178707Y-81716957D01*
X170070083Y-82263046D01*
X170178707Y-82809135D01*
X170488042Y-83272087D01*
X170647173Y-83378415D01*
X170492688Y-83407483D01*
X170279287Y-83544803D01*
X170136123Y-83754329D01*
X170085757Y-84003046D01*
X170085757Y-85603046D01*
X170129477Y-85835398D01*
X170266797Y-86048799D01*
X170476323Y-86191963D01*
X170725040Y-86242329D01*
X172325040Y-86242329D01*
X172557392Y-86198609D01*
X172770793Y-86061289D01*
X172913957Y-85851763D01*
X172964323Y-85603046D01*
X172964323Y-84003046D01*
X172920603Y-83770694D01*
X172783283Y-83557293D01*
X172573757Y-83414129D01*
X172401625Y-83379272D01*
X172562038Y-83272087D01*
X172871373Y-82809135D01*
X172979997Y-82263046D01*
X172871373Y-81716957D01*
X172562038Y-81254005D01*
X172171486Y-80993046D01*
X172562038Y-80732087D01*
X172871373Y-80269135D01*
X172979997Y-79723046D01*
X172871373Y-79176957D01*
X172562038Y-78714005D01*
X172171486Y-78453046D01*
X172562038Y-78192087D01*
X172871373Y-77729135D01*
X172979997Y-77183046D01*
X172871373Y-76636957D01*
X172562038Y-76174005D01*
X172171486Y-75913046D01*
X172562038Y-75652087D01*
X172871373Y-75189135D01*
X172979997Y-74643046D01*
X172871373Y-74096957D01*
X172562038Y-73634005D01*
X172171486Y-73373046D01*
X172562038Y-73112087D01*
X172871373Y-72649135D01*
X172979997Y-72103046D01*
X172871373Y-71556957D01*
X172562038Y-71094005D01*
X172171486Y-70833046D01*
X172562038Y-70572087D01*
X172871373Y-70109135D01*
X172964641Y-69640242D01*
X173934447Y-69640242D01*
X173960789Y-70192193D01*
X174121332Y-70579775D01*
X174361749Y-70649342D01*
X175161092Y-69850000D01*
X174361749Y-69050658D01*
X174121332Y-69120225D01*
X173934447Y-69640242D01*
X172964641Y-69640242D01*
X172979997Y-69563046D01*
X172871373Y-69016957D01*
X172777663Y-68876709D01*
X174535698Y-68876709D01*
X175335040Y-69676052D01*
X176134382Y-68876709D01*
X176064815Y-68636292D01*
X175544798Y-68449407D01*
X174992847Y-68475749D01*
X174605265Y-68636292D01*
X174535698Y-68876709D01*
X172777663Y-68876709D01*
X172562038Y-68554005D01*
X172147435Y-68276976D01*
X172372750Y-68170976D01*
X172747516Y-67759190D01*
X172909984Y-67366933D01*
X172789321Y-67146046D01*
X171648040Y-67146046D01*
X171648040Y-67166046D01*
X171402040Y-67166046D01*
X171402040Y-67146046D01*
X170260759Y-67146046D01*
X170140096Y-67366933D01*
X170302564Y-67759190D01*
X170677330Y-68170976D01*
X170902645Y-68276976D01*
X170488042Y-68554005D01*
X170178707Y-69016957D01*
X170070083Y-69563046D01*
X165359997Y-69563046D01*
X165251373Y-69016957D01*
X164942038Y-68554005D01*
X164551486Y-68293046D01*
X164942038Y-68032087D01*
X165251373Y-67569135D01*
X165359997Y-67023046D01*
X165291594Y-66679159D01*
X170140096Y-66679159D01*
X170260759Y-66900046D01*
X171402040Y-66900046D01*
X171402040Y-65758097D01*
X171648040Y-65758097D01*
X171648040Y-66900046D01*
X172789321Y-66900046D01*
X172909984Y-66679159D01*
X172747516Y-66286902D01*
X172372750Y-65875116D01*
X171868928Y-65638092D01*
X171648040Y-65758097D01*
X171402040Y-65758097D01*
X171181152Y-65638092D01*
X170677330Y-65875116D01*
X170302564Y-66286902D01*
X170140096Y-66679159D01*
X165291594Y-66679159D01*
X165251373Y-66476957D01*
X164942038Y-66014005D01*
X164479086Y-65704670D01*
X163932997Y-65596046D01*
X163877083Y-65596046D01*
X163330994Y-65704670D01*
X162868042Y-66014005D01*
X162558707Y-66476957D01*
X162450083Y-67023046D01*
X162558707Y-67569135D01*
X162868042Y-68032087D01*
X163258594Y-68293046D01*
X162868042Y-68554005D01*
X162558707Y-69016957D01*
X162450083Y-69563046D01*
X162558707Y-70109135D01*
X162868042Y-70572087D01*
X163258594Y-70833046D01*
X162868042Y-71094005D01*
X162558707Y-71556957D01*
X162450083Y-72103046D01*
X162558707Y-72649135D01*
X162868042Y-73112087D01*
X163258594Y-73373046D01*
X162868042Y-73634005D01*
X162635765Y-73981631D01*
X162575497Y-73835771D01*
X162174426Y-73433999D01*
X161650133Y-73216294D01*
X161082437Y-73215798D01*
X160557765Y-73432589D01*
X160155993Y-73833660D01*
X159938288Y-74357953D01*
X159937792Y-74925649D01*
X160154583Y-75450321D01*
X160555654Y-75852093D01*
X160702158Y-75912927D01*
X160557765Y-75972589D01*
X160155993Y-76373660D01*
X159938288Y-76897953D01*
X159937792Y-77465649D01*
X160154583Y-77990321D01*
X160555654Y-78392093D01*
X160702158Y-78452927D01*
X160557765Y-78512589D01*
X160155993Y-78913660D01*
X159938288Y-79437953D01*
X159937792Y-80005649D01*
X160154583Y-80530321D01*
X160555654Y-80932093D01*
X161079947Y-81149798D01*
X161647643Y-81150294D01*
X162172315Y-80933503D01*
X162574087Y-80532432D01*
X162635620Y-80384243D01*
X162868042Y-80732087D01*
X163258594Y-80993046D01*
X162868042Y-81254005D01*
X162558707Y-81716957D01*
X162450083Y-82263046D01*
X162558707Y-82809135D01*
X162868042Y-83272087D01*
X163258594Y-83533046D01*
X162868042Y-83794005D01*
X162558707Y-84256957D01*
X162450083Y-84803046D01*
X162558707Y-85349135D01*
X162868042Y-85812087D01*
X163330994Y-86121422D01*
X163877083Y-86230046D01*
X163932997Y-86230046D01*
X164479086Y-86121422D01*
X164942038Y-85812087D01*
X165251373Y-85349135D01*
X165334244Y-84932516D01*
X171191859Y-90790130D01*
X171191861Y-90790133D01*
X171427617Y-90947659D01*
X171476381Y-90980242D01*
X171811994Y-91047001D01*
X171811999Y-91047000D01*
X174247881Y-91047000D01*
X174547207Y-91346850D01*
X174771459Y-91439967D01*
X174549263Y-91531777D01*
X174158190Y-91922167D01*
X173946282Y-92432499D01*
X173945800Y-92985077D01*
X174156817Y-93495777D01*
X174547207Y-93886850D01*
X175057539Y-94098758D01*
X175610117Y-94099240D01*
X176120817Y-93888223D01*
X176511890Y-93497833D01*
X176579920Y-93333998D01*
X176579920Y-136243278D01*
X93013920Y-136243278D01*
X93013920Y-126234883D01*
X99403081Y-126234883D01*
X99444292Y-126396824D01*
X99784174Y-126991877D01*
X100325901Y-127411567D01*
X100987000Y-127592000D01*
X102112000Y-127592000D01*
X102112000Y-125963000D01*
X102358000Y-125963000D01*
X102358000Y-127592000D01*
X103483000Y-127592000D01*
X104144099Y-127411567D01*
X104685826Y-126991877D01*
X105025708Y-126396824D01*
X105066919Y-126234883D01*
X104950501Y-125963000D01*
X102358000Y-125963000D01*
X102112000Y-125963000D01*
X99519499Y-125963000D01*
X99403081Y-126234883D01*
X93013920Y-126234883D01*
X93013920Y-125445117D01*
X99403081Y-125445117D01*
X99519499Y-125717000D01*
X102112000Y-125717000D01*
X102112000Y-124088000D01*
X102358000Y-124088000D01*
X102358000Y-125717000D01*
X104950501Y-125717000D01*
X105066919Y-125445117D01*
X105025708Y-125283176D01*
X104685826Y-124688123D01*
X104144099Y-124268433D01*
X103483000Y-124088000D01*
X102358000Y-124088000D01*
X102112000Y-124088000D01*
X100987000Y-124088000D01*
X100325901Y-124268433D01*
X99784174Y-124688123D01*
X99444292Y-125283176D01*
X99403081Y-125445117D01*
X93013920Y-125445117D01*
X93013920Y-121408000D01*
X96808000Y-121408000D01*
X96808000Y-122533000D01*
X96988433Y-123194099D01*
X97408123Y-123735826D01*
X98003176Y-124075708D01*
X98165117Y-124116919D01*
X98437000Y-124000501D01*
X98437000Y-121408000D01*
X98683000Y-121408000D01*
X98683000Y-124000501D01*
X98954883Y-124116919D01*
X99116824Y-124075708D01*
X99711877Y-123735826D01*
X100131567Y-123194099D01*
X100312000Y-122533000D01*
X100312000Y-121408000D01*
X98683000Y-121408000D01*
X98437000Y-121408000D01*
X96808000Y-121408000D01*
X93013920Y-121408000D01*
X93013920Y-120037000D01*
X96808000Y-120037000D01*
X96808000Y-121162000D01*
X98437000Y-121162000D01*
X98437000Y-118569499D01*
X98683000Y-118569499D01*
X98683000Y-121162000D01*
X100312000Y-121162000D01*
X100312000Y-120103636D01*
X104158000Y-120103636D01*
X104158000Y-122466364D01*
X104291363Y-123136825D01*
X104671149Y-123705215D01*
X105239539Y-124085001D01*
X105910000Y-124218364D01*
X106580461Y-124085001D01*
X107148851Y-123705215D01*
X107528637Y-123136825D01*
X107662000Y-122466364D01*
X107662000Y-120523000D01*
X109088717Y-120523000D01*
X109088717Y-122047000D01*
X109132437Y-122279352D01*
X109269757Y-122492753D01*
X109360234Y-122554574D01*
X109282247Y-122604757D01*
X109139083Y-122814283D01*
X109088717Y-123063000D01*
X109088717Y-124587000D01*
X109132437Y-124819352D01*
X109269757Y-125032753D01*
X109360234Y-125094574D01*
X109282247Y-125144757D01*
X109139083Y-125354283D01*
X109088717Y-125603000D01*
X109088717Y-127127000D01*
X109132437Y-127359352D01*
X109269757Y-127572753D01*
X109479283Y-127715917D01*
X109728000Y-127766283D01*
X111252000Y-127766283D01*
X111484352Y-127722563D01*
X111697753Y-127585243D01*
X111840917Y-127375717D01*
X111891283Y-127127000D01*
X111891283Y-125603000D01*
X111847563Y-125370648D01*
X111710243Y-125157247D01*
X111619766Y-125095426D01*
X111697753Y-125045243D01*
X111761464Y-124952000D01*
X119643182Y-124952000D01*
X127073813Y-132382632D01*
X127037648Y-132389437D01*
X126824247Y-132526757D01*
X126681083Y-132736283D01*
X126630717Y-132985000D01*
X126630717Y-134985000D01*
X126674437Y-135217352D01*
X126811757Y-135430753D01*
X127021283Y-135573917D01*
X127270000Y-135624283D01*
X129270000Y-135624283D01*
X129502352Y-135580563D01*
X129715753Y-135443243D01*
X129858917Y-135233717D01*
X129909283Y-134985000D01*
X129909283Y-134264750D01*
X144423000Y-134264750D01*
X144423000Y-135109718D01*
X144518455Y-135340167D01*
X144694833Y-135516545D01*
X144925282Y-135612000D01*
X145770250Y-135612000D01*
X145927000Y-135455250D01*
X145927000Y-134108000D01*
X146173000Y-134108000D01*
X146173000Y-135455250D01*
X146329750Y-135612000D01*
X147174718Y-135612000D01*
X147405167Y-135516545D01*
X147581545Y-135340167D01*
X147677000Y-135109718D01*
X147677000Y-134264750D01*
X147520250Y-134108000D01*
X146173000Y-134108000D01*
X145927000Y-134108000D01*
X144579750Y-134108000D01*
X144423000Y-134264750D01*
X129909283Y-134264750D01*
X129909283Y-132985000D01*
X129885816Y-132860282D01*
X144423000Y-132860282D01*
X144423000Y-133705250D01*
X144579750Y-133862000D01*
X145927000Y-133862000D01*
X145927000Y-132514750D01*
X146173000Y-132514750D01*
X146173000Y-133862000D01*
X147520250Y-133862000D01*
X147677000Y-133705250D01*
X147677000Y-132860282D01*
X147581545Y-132629833D01*
X147405167Y-132453455D01*
X147174718Y-132358000D01*
X146329750Y-132358000D01*
X146173000Y-132514750D01*
X145927000Y-132514750D01*
X145770250Y-132358000D01*
X144925282Y-132358000D01*
X144694833Y-132453455D01*
X144518455Y-132629833D01*
X144423000Y-132860282D01*
X129885816Y-132860282D01*
X129865563Y-132752648D01*
X129728243Y-132539247D01*
X129518717Y-132396083D01*
X129397000Y-132371435D01*
X129397000Y-131985000D01*
X129311212Y-131553716D01*
X129066910Y-131188091D01*
X120906909Y-123028091D01*
X120541284Y-122783788D01*
X120110000Y-122698000D01*
X111762206Y-122698000D01*
X111710243Y-122617247D01*
X111619766Y-122555426D01*
X111697753Y-122505243D01*
X111840917Y-122295717D01*
X111891283Y-122047000D01*
X111891283Y-120523000D01*
X111847563Y-120290648D01*
X111710243Y-120077247D01*
X111500717Y-119934083D01*
X111252000Y-119883717D01*
X109728000Y-119883717D01*
X109495648Y-119927437D01*
X109282247Y-120064757D01*
X109139083Y-120274283D01*
X109088717Y-120523000D01*
X107662000Y-120523000D01*
X107662000Y-120103636D01*
X107528637Y-119433175D01*
X107148851Y-118864785D01*
X106580461Y-118484999D01*
X105910000Y-118351636D01*
X105239539Y-118484999D01*
X104671149Y-118864785D01*
X104291363Y-119433175D01*
X104158000Y-120103636D01*
X100312000Y-120103636D01*
X100312000Y-120037000D01*
X100131567Y-119375901D01*
X99711877Y-118834174D01*
X99116824Y-118494292D01*
X98954883Y-118453081D01*
X98683000Y-118569499D01*
X98437000Y-118569499D01*
X98165117Y-118453081D01*
X98003176Y-118494292D01*
X97408123Y-118834174D01*
X96988433Y-119375901D01*
X96808000Y-120037000D01*
X93013920Y-120037000D01*
X93013920Y-111760000D01*
X115918084Y-111760000D01*
X116034320Y-112344358D01*
X116348000Y-112813813D01*
X116348000Y-113032792D01*
X116433788Y-113464076D01*
X116678091Y-113829701D01*
X119215299Y-116366909D01*
X119580924Y-116611212D01*
X120012208Y-116697000D01*
X125730000Y-116697000D01*
X126161284Y-116611212D01*
X126526909Y-116366909D01*
X129066909Y-113826910D01*
X129311212Y-113461285D01*
X129345879Y-113287000D01*
X129397000Y-113030000D01*
X129397000Y-96160077D01*
X152280760Y-96160077D01*
X152491777Y-96670777D01*
X152882167Y-97061850D01*
X153392499Y-97273758D01*
X153945077Y-97274240D01*
X154455777Y-97063223D01*
X154846850Y-96672833D01*
X154939967Y-96448581D01*
X155031777Y-96670777D01*
X155422167Y-97061850D01*
X155932499Y-97273758D01*
X156485077Y-97274240D01*
X156995777Y-97063223D01*
X157386850Y-96672833D01*
X157479967Y-96448581D01*
X157571777Y-96670777D01*
X157962167Y-97061850D01*
X158472499Y-97273758D01*
X159025077Y-97274240D01*
X159535777Y-97063223D01*
X159926850Y-96672833D01*
X160019967Y-96448581D01*
X160111777Y-96670777D01*
X160502167Y-97061850D01*
X161012499Y-97273758D01*
X161565077Y-97274240D01*
X162075777Y-97063223D01*
X162438839Y-96700795D01*
X162472437Y-96879352D01*
X162609757Y-97092753D01*
X162819283Y-97235917D01*
X163068000Y-97286283D01*
X164592000Y-97286283D01*
X164824352Y-97242563D01*
X165037753Y-97105243D01*
X165180917Y-96895717D01*
X165188495Y-96858291D01*
X165570658Y-96858291D01*
X165640225Y-97098708D01*
X166160242Y-97285593D01*
X166712193Y-97259251D01*
X167099775Y-97098708D01*
X167169342Y-96858291D01*
X166370000Y-96058948D01*
X165570658Y-96858291D01*
X165188495Y-96858291D01*
X165231283Y-96647000D01*
X165231283Y-96636474D01*
X165396709Y-96684342D01*
X166196052Y-95885000D01*
X166543948Y-95885000D01*
X167343291Y-96684342D01*
X167583708Y-96614775D01*
X167770593Y-96094758D01*
X167744251Y-95542807D01*
X167583708Y-95155225D01*
X167343291Y-95085658D01*
X166543948Y-95885000D01*
X166196052Y-95885000D01*
X165396709Y-95085658D01*
X165231283Y-95133526D01*
X165231283Y-95123000D01*
X165191526Y-94911709D01*
X165570658Y-94911709D01*
X166370000Y-95711052D01*
X167169342Y-94911709D01*
X167099775Y-94671292D01*
X166579758Y-94484407D01*
X166027807Y-94510749D01*
X165640225Y-94671292D01*
X165570658Y-94911709D01*
X165191526Y-94911709D01*
X165187563Y-94890648D01*
X165050243Y-94677247D01*
X164840717Y-94534083D01*
X164592000Y-94483717D01*
X163068000Y-94483717D01*
X162835648Y-94527437D01*
X162622247Y-94664757D01*
X162479083Y-94874283D01*
X162439382Y-95070332D01*
X162077833Y-94708150D01*
X161567501Y-94496242D01*
X161014923Y-94495760D01*
X160504223Y-94706777D01*
X160113150Y-95097167D01*
X160020033Y-95321419D01*
X159928223Y-95099223D01*
X159537833Y-94708150D01*
X159027501Y-94496242D01*
X158474923Y-94495760D01*
X157964223Y-94706777D01*
X157573150Y-95097167D01*
X157480033Y-95321419D01*
X157388223Y-95099223D01*
X156997833Y-94708150D01*
X156487501Y-94496242D01*
X155934923Y-94495760D01*
X155424223Y-94706777D01*
X155033150Y-95097167D01*
X154940033Y-95321419D01*
X154848223Y-95099223D01*
X154457833Y-94708150D01*
X153947501Y-94496242D01*
X153394923Y-94495760D01*
X152884223Y-94706777D01*
X152493150Y-95097167D01*
X152281242Y-95607499D01*
X152280760Y-96160077D01*
X129397000Y-96160077D01*
X129397000Y-94960386D01*
X129502352Y-94940563D01*
X129715753Y-94803243D01*
X129858917Y-94593717D01*
X129909283Y-94345000D01*
X129909283Y-93624750D01*
X144423000Y-93624750D01*
X144423000Y-94469718D01*
X144518455Y-94700167D01*
X144694833Y-94876545D01*
X144925282Y-94972000D01*
X145770250Y-94972000D01*
X145927000Y-94815250D01*
X145927000Y-93468000D01*
X146173000Y-93468000D01*
X146173000Y-94815250D01*
X146329750Y-94972000D01*
X147174718Y-94972000D01*
X147405167Y-94876545D01*
X147581545Y-94700167D01*
X147677000Y-94469718D01*
X147677000Y-93624750D01*
X147520250Y-93468000D01*
X146173000Y-93468000D01*
X145927000Y-93468000D01*
X144579750Y-93468000D01*
X144423000Y-93624750D01*
X129909283Y-93624750D01*
X129909283Y-92345000D01*
X129885816Y-92220282D01*
X144423000Y-92220282D01*
X144423000Y-93065250D01*
X144579750Y-93222000D01*
X145927000Y-93222000D01*
X145927000Y-91874750D01*
X146173000Y-91874750D01*
X146173000Y-93222000D01*
X147520250Y-93222000D01*
X147677000Y-93065250D01*
X147677000Y-92220282D01*
X147581545Y-91989833D01*
X147405167Y-91813455D01*
X147174718Y-91718000D01*
X146329750Y-91718000D01*
X146173000Y-91874750D01*
X145927000Y-91874750D01*
X145770250Y-91718000D01*
X144925282Y-91718000D01*
X144694833Y-91813455D01*
X144518455Y-91989833D01*
X144423000Y-92220282D01*
X129885816Y-92220282D01*
X129865563Y-92112648D01*
X129728243Y-91899247D01*
X129518717Y-91756083D01*
X129270000Y-91705717D01*
X127270000Y-91705717D01*
X127037648Y-91749437D01*
X126824247Y-91886757D01*
X126681083Y-92096283D01*
X126630717Y-92345000D01*
X126630717Y-94345000D01*
X126674437Y-94577352D01*
X126811757Y-94790753D01*
X127021283Y-94933917D01*
X127143000Y-94958565D01*
X127143000Y-112563181D01*
X125263182Y-114443000D01*
X120479026Y-114443000D01*
X118701270Y-112665244D01*
X118745000Y-112599798D01*
X118905332Y-112839752D01*
X119400726Y-113170764D01*
X119985084Y-113287000D01*
X120044916Y-113287000D01*
X120629274Y-113170764D01*
X121057930Y-112884345D01*
X121059437Y-112892352D01*
X121196757Y-113105753D01*
X121406283Y-113248917D01*
X121655000Y-113299283D01*
X123455000Y-113299283D01*
X123687352Y-113255563D01*
X123900753Y-113118243D01*
X124043917Y-112908717D01*
X124094283Y-112660000D01*
X124094283Y-110860000D01*
X124050563Y-110627648D01*
X123913243Y-110414247D01*
X123703717Y-110271083D01*
X123455000Y-110220717D01*
X121655000Y-110220717D01*
X121422648Y-110264437D01*
X121209247Y-110401757D01*
X121066083Y-110611283D01*
X121060764Y-110637549D01*
X120629274Y-110349236D01*
X120044916Y-110233000D01*
X119985084Y-110233000D01*
X119400726Y-110349236D01*
X118905332Y-110680248D01*
X118745000Y-110920202D01*
X118584668Y-110680248D01*
X118089274Y-110349236D01*
X117504916Y-110233000D01*
X117445084Y-110233000D01*
X116860726Y-110349236D01*
X116365332Y-110680248D01*
X116034320Y-111175642D01*
X115918084Y-111760000D01*
X93013920Y-111760000D01*
X93013920Y-108315816D01*
X114148133Y-108315816D01*
X114222368Y-108560169D01*
X114756164Y-108753406D01*
X115323276Y-108727659D01*
X115727632Y-108560169D01*
X115801867Y-108315816D01*
X114975000Y-107488948D01*
X114148133Y-108315816D01*
X93013920Y-108315816D01*
X93013920Y-107096164D01*
X113536594Y-107096164D01*
X113562341Y-107663276D01*
X113729831Y-108067632D01*
X113974184Y-108141867D01*
X114801052Y-107315000D01*
X115148948Y-107315000D01*
X115975816Y-108141867D01*
X116220169Y-108067632D01*
X116230347Y-108039516D01*
X116264543Y-108122275D01*
X116665614Y-108524047D01*
X117189907Y-108741752D01*
X117757603Y-108742248D01*
X118282275Y-108525457D01*
X118684047Y-108124386D01*
X118744881Y-107977882D01*
X118804543Y-108122275D01*
X119205614Y-108524047D01*
X119729907Y-108741752D01*
X120297603Y-108742248D01*
X120822275Y-108525457D01*
X121224047Y-108124386D01*
X121284881Y-107977882D01*
X121344543Y-108122275D01*
X121745614Y-108524047D01*
X122269907Y-108741752D01*
X122837603Y-108742248D01*
X123362275Y-108525457D01*
X123764047Y-108124386D01*
X123981752Y-107600093D01*
X123982248Y-107032397D01*
X123765457Y-106507725D01*
X123364386Y-106105953D01*
X122840093Y-105888248D01*
X122272397Y-105887752D01*
X121747725Y-106104543D01*
X121345953Y-106505614D01*
X121285119Y-106652118D01*
X121225457Y-106507725D01*
X120824386Y-106105953D01*
X120300093Y-105888248D01*
X119732397Y-105887752D01*
X119207725Y-106104543D01*
X118805953Y-106505614D01*
X118745119Y-106652118D01*
X118685457Y-106507725D01*
X118284386Y-106105953D01*
X117760093Y-105888248D01*
X117192397Y-105887752D01*
X116667725Y-106104543D01*
X116265953Y-106505614D01*
X116231264Y-106589154D01*
X116220169Y-106562368D01*
X115975816Y-106488133D01*
X115148948Y-107315000D01*
X114801052Y-107315000D01*
X113974184Y-106488133D01*
X113729831Y-106562368D01*
X113536594Y-107096164D01*
X93013920Y-107096164D01*
X93013920Y-106314184D01*
X114148133Y-106314184D01*
X114975000Y-107141052D01*
X115801867Y-106314184D01*
X115727632Y-106069831D01*
X115193836Y-105876594D01*
X114626724Y-105902341D01*
X114222368Y-106069831D01*
X114148133Y-106314184D01*
X93013920Y-106314184D01*
X93013920Y-100695816D01*
X112838133Y-100695816D01*
X112912368Y-100940169D01*
X113446164Y-101133406D01*
X114013276Y-101107659D01*
X114417632Y-100940169D01*
X114491867Y-100695816D01*
X113665000Y-99868948D01*
X112838133Y-100695816D01*
X93013920Y-100695816D01*
X93013920Y-99476164D01*
X112226594Y-99476164D01*
X112252341Y-100043276D01*
X112419831Y-100447632D01*
X112664184Y-100521867D01*
X113491052Y-99695000D01*
X113838948Y-99695000D01*
X114665816Y-100521867D01*
X114910169Y-100447632D01*
X114939027Y-100367916D01*
X114994543Y-100502275D01*
X115395614Y-100904047D01*
X115919907Y-101121752D01*
X116487603Y-101122248D01*
X117012275Y-100905457D01*
X117414047Y-100504386D01*
X117631752Y-99980093D01*
X117631754Y-99977603D01*
X118587752Y-99977603D01*
X118804543Y-100502275D01*
X119205614Y-100904047D01*
X119729907Y-101121752D01*
X120297603Y-101122248D01*
X120822275Y-100905457D01*
X121032282Y-100695816D01*
X121728133Y-100695816D01*
X121802368Y-100940169D01*
X122336164Y-101133406D01*
X122903276Y-101107659D01*
X123307632Y-100940169D01*
X123381867Y-100695816D01*
X122555000Y-99868948D01*
X121728133Y-100695816D01*
X121032282Y-100695816D01*
X121224047Y-100504386D01*
X121278760Y-100372621D01*
X121309831Y-100447632D01*
X121554184Y-100521867D01*
X122381052Y-99695000D01*
X122728948Y-99695000D01*
X123555816Y-100521867D01*
X123800169Y-100447632D01*
X123993406Y-99913836D01*
X123967659Y-99346724D01*
X123800169Y-98942368D01*
X123555816Y-98868133D01*
X122728948Y-99695000D01*
X122381052Y-99695000D01*
X121554184Y-98868133D01*
X121309831Y-98942368D01*
X121280973Y-99022084D01*
X121225457Y-98887725D01*
X121032254Y-98694184D01*
X121728133Y-98694184D01*
X122555000Y-99521052D01*
X123381867Y-98694184D01*
X123307632Y-98449831D01*
X122773836Y-98256594D01*
X122206724Y-98282341D01*
X121802368Y-98449831D01*
X121728133Y-98694184D01*
X121032254Y-98694184D01*
X120824386Y-98485953D01*
X120300093Y-98268248D01*
X119732397Y-98267752D01*
X119207725Y-98484543D01*
X118805953Y-98885614D01*
X118588248Y-99409907D01*
X118587752Y-99977603D01*
X117631754Y-99977603D01*
X117632248Y-99412397D01*
X117415457Y-98887725D01*
X117014386Y-98485953D01*
X116490093Y-98268248D01*
X115922397Y-98267752D01*
X115397725Y-98484543D01*
X114995953Y-98885614D01*
X114941240Y-99017379D01*
X114910169Y-98942368D01*
X114665816Y-98868133D01*
X113838948Y-99695000D01*
X113491052Y-99695000D01*
X112664184Y-98868133D01*
X112419831Y-98942368D01*
X112226594Y-99476164D01*
X93013920Y-99476164D01*
X93013920Y-98694184D01*
X112838133Y-98694184D01*
X113665000Y-99521052D01*
X114491867Y-98694184D01*
X114417632Y-98449831D01*
X113883836Y-98256594D01*
X113316724Y-98282341D01*
X112912368Y-98449831D01*
X112838133Y-98694184D01*
X93013920Y-98694184D01*
X93013920Y-78740000D01*
X94373000Y-78740000D01*
X94373000Y-93980000D01*
X94439758Y-94315613D01*
X94629867Y-94600133D01*
X94914387Y-94790242D01*
X95250000Y-94857000D01*
X98607841Y-94857000D01*
X98907167Y-95156850D01*
X99417499Y-95368758D01*
X99970077Y-95369240D01*
X100480777Y-95158223D01*
X100871850Y-94767833D01*
X100964967Y-94543581D01*
X101056777Y-94765777D01*
X101447167Y-95156850D01*
X101957499Y-95368758D01*
X102510077Y-95369240D01*
X103020777Y-95158223D01*
X103411850Y-94767833D01*
X103504967Y-94543581D01*
X103596777Y-94765777D01*
X103987167Y-95156850D01*
X104497499Y-95368758D01*
X105050077Y-95369240D01*
X105560777Y-95158223D01*
X105766067Y-94953291D01*
X106515658Y-94953291D01*
X106585225Y-95193708D01*
X107105242Y-95380593D01*
X107657193Y-95354251D01*
X108044775Y-95193708D01*
X108114342Y-94953291D01*
X107315000Y-94153948D01*
X106515658Y-94953291D01*
X105766067Y-94953291D01*
X105951850Y-94767833D01*
X106038702Y-94558670D01*
X106101292Y-94709775D01*
X106341709Y-94779342D01*
X107141052Y-93980000D01*
X107488948Y-93980000D01*
X108288291Y-94779342D01*
X108528708Y-94709775D01*
X108715593Y-94189758D01*
X108689251Y-93637807D01*
X108528708Y-93250225D01*
X108288291Y-93180658D01*
X107488948Y-93980000D01*
X107141052Y-93980000D01*
X106341709Y-93180658D01*
X106101292Y-93250225D01*
X106043178Y-93411930D01*
X105953223Y-93194223D01*
X105562833Y-92803150D01*
X105338581Y-92710033D01*
X105560777Y-92618223D01*
X105951850Y-92227833D01*
X106044967Y-92003581D01*
X106136777Y-92225777D01*
X106527167Y-92616850D01*
X106736330Y-92703702D01*
X106585225Y-92766292D01*
X106515658Y-93006709D01*
X107315000Y-93806052D01*
X108114342Y-93006709D01*
X108044775Y-92766292D01*
X107883070Y-92708178D01*
X108100777Y-92618223D01*
X108491850Y-92227833D01*
X108703758Y-91717501D01*
X108704240Y-91164923D01*
X108493223Y-90654223D01*
X108375023Y-90535816D01*
X161098133Y-90535816D01*
X161172368Y-90780169D01*
X161706164Y-90973406D01*
X162273276Y-90947659D01*
X162677632Y-90780169D01*
X162751867Y-90535816D01*
X161925000Y-89708948D01*
X161098133Y-90535816D01*
X108375023Y-90535816D01*
X108192000Y-90352473D01*
X108192000Y-89316164D01*
X160486594Y-89316164D01*
X160512341Y-89883276D01*
X160679831Y-90287632D01*
X160924184Y-90361867D01*
X161751052Y-89535000D01*
X162098948Y-89535000D01*
X162925816Y-90361867D01*
X163170169Y-90287632D01*
X163363406Y-89753836D01*
X163337659Y-89186724D01*
X163170169Y-88782368D01*
X162925816Y-88708133D01*
X162098948Y-89535000D01*
X161751052Y-89535000D01*
X160924184Y-88708133D01*
X160679831Y-88782368D01*
X160486594Y-89316164D01*
X108192000Y-89316164D01*
X108192000Y-86626759D01*
X112952767Y-86626759D01*
X113157403Y-87122017D01*
X113535990Y-87501265D01*
X114030890Y-87706765D01*
X114566759Y-87707233D01*
X115062017Y-87502597D01*
X115441265Y-87124010D01*
X115570063Y-86813830D01*
X115697403Y-87122017D01*
X116075990Y-87501265D01*
X116570890Y-87706765D01*
X117106759Y-87707233D01*
X117602017Y-87502597D01*
X117802102Y-87302860D01*
X118611089Y-87302860D01*
X118675495Y-87538928D01*
X119180278Y-87718790D01*
X119715468Y-87691788D01*
X120084505Y-87538928D01*
X120148911Y-87302860D01*
X119380000Y-86533948D01*
X118611089Y-87302860D01*
X117802102Y-87302860D01*
X117981265Y-87124010D01*
X118103643Y-86829290D01*
X118201072Y-87064505D01*
X118437140Y-87128911D01*
X119206052Y-86360000D01*
X119553948Y-86360000D01*
X120322860Y-87128911D01*
X120558928Y-87064505D01*
X120702201Y-86662407D01*
X127377735Y-86662407D01*
X127609717Y-87223846D01*
X128038894Y-87653773D01*
X128599928Y-87886735D01*
X129207407Y-87887265D01*
X129768846Y-87655283D01*
X129953655Y-87470797D01*
X130013455Y-87615167D01*
X130189833Y-87791545D01*
X130420282Y-87887000D01*
X131165250Y-87887000D01*
X131322000Y-87730250D01*
X131322000Y-86483000D01*
X131568000Y-86483000D01*
X131568000Y-87730250D01*
X131724750Y-87887000D01*
X132469718Y-87887000D01*
X132700167Y-87791545D01*
X132876545Y-87615167D01*
X132972000Y-87384718D01*
X132972000Y-87277603D01*
X160497752Y-87277603D01*
X160714543Y-87802275D01*
X161115614Y-88204047D01*
X161247379Y-88258760D01*
X161172368Y-88289831D01*
X161098133Y-88534184D01*
X161925000Y-89361052D01*
X162751867Y-88534184D01*
X162677632Y-88289831D01*
X162597916Y-88260973D01*
X162732275Y-88205457D01*
X163134047Y-87804386D01*
X163351752Y-87280093D01*
X163352248Y-86712397D01*
X163135457Y-86187725D01*
X162734386Y-85785953D01*
X162210093Y-85568248D01*
X161642397Y-85567752D01*
X161117725Y-85784543D01*
X160715953Y-86185614D01*
X160498248Y-86709907D01*
X160497752Y-87277603D01*
X132972000Y-87277603D01*
X132972000Y-86639750D01*
X132815250Y-86483000D01*
X131568000Y-86483000D01*
X131322000Y-86483000D01*
X131302000Y-86483000D01*
X131302000Y-86237000D01*
X131322000Y-86237000D01*
X131322000Y-84989750D01*
X131568000Y-84989750D01*
X131568000Y-86237000D01*
X132815250Y-86237000D01*
X132972000Y-86080250D01*
X132972000Y-85335282D01*
X132876545Y-85104833D01*
X132700167Y-84928455D01*
X132469718Y-84833000D01*
X131724750Y-84833000D01*
X131568000Y-84989750D01*
X131322000Y-84989750D01*
X131165250Y-84833000D01*
X130420282Y-84833000D01*
X130189833Y-84928455D01*
X130013455Y-85104833D01*
X129953687Y-85249127D01*
X129771106Y-85066227D01*
X129210072Y-84833265D01*
X128602593Y-84832735D01*
X128041154Y-85064717D01*
X127611227Y-85493894D01*
X127378265Y-86054928D01*
X127377735Y-86662407D01*
X120702201Y-86662407D01*
X120738790Y-86559722D01*
X120711788Y-86024532D01*
X120558928Y-85655495D01*
X120322860Y-85591089D01*
X119553948Y-86360000D01*
X119206052Y-86360000D01*
X118437140Y-85591089D01*
X118201072Y-85655495D01*
X118110912Y-85908529D01*
X117982597Y-85597983D01*
X117802070Y-85417140D01*
X118611089Y-85417140D01*
X119380000Y-86186052D01*
X120148911Y-85417140D01*
X120084505Y-85181072D01*
X119579722Y-85001210D01*
X119044532Y-85028212D01*
X118675495Y-85181072D01*
X118611089Y-85417140D01*
X117802070Y-85417140D01*
X117604010Y-85218735D01*
X117109110Y-85013235D01*
X116573241Y-85012767D01*
X116077983Y-85217403D01*
X115698735Y-85595990D01*
X115569937Y-85906170D01*
X115442597Y-85597983D01*
X115064010Y-85218735D01*
X114569110Y-85013235D01*
X114033241Y-85012767D01*
X113537983Y-85217403D01*
X113158735Y-85595990D01*
X112953235Y-86090890D01*
X112952767Y-86626759D01*
X108192000Y-86626759D01*
X108192000Y-84183266D01*
X110177662Y-82197603D01*
X127477752Y-82197603D01*
X127694543Y-82722275D01*
X128095614Y-83124047D01*
X128619907Y-83341752D01*
X129187603Y-83342248D01*
X129712275Y-83125457D01*
X130114047Y-82724386D01*
X130331752Y-82200093D01*
X130332248Y-81632397D01*
X130115457Y-81107725D01*
X129714386Y-80705953D01*
X129190093Y-80488248D01*
X128622397Y-80487752D01*
X128097725Y-80704543D01*
X127695953Y-81105614D01*
X127478248Y-81629907D01*
X127477752Y-82197603D01*
X110177662Y-82197603D01*
X116534171Y-75841094D01*
X130820053Y-75841094D01*
X130894288Y-76085447D01*
X131428084Y-76278684D01*
X131995196Y-76252937D01*
X132399552Y-76085447D01*
X132473787Y-75841094D01*
X135900053Y-75841094D01*
X135974288Y-76085447D01*
X136508084Y-76278684D01*
X137075196Y-76252937D01*
X137479552Y-76085447D01*
X137553787Y-75841094D01*
X136726920Y-75014226D01*
X135900053Y-75841094D01*
X132473787Y-75841094D01*
X131646920Y-75014226D01*
X130820053Y-75841094D01*
X116534171Y-75841094D01*
X117753823Y-74621442D01*
X130208514Y-74621442D01*
X130234261Y-75188554D01*
X130401751Y-75592910D01*
X130646104Y-75667145D01*
X131472972Y-74840278D01*
X131820868Y-74840278D01*
X132647736Y-75667145D01*
X132892089Y-75592910D01*
X133085326Y-75059114D01*
X133065456Y-74621442D01*
X135288514Y-74621442D01*
X135314261Y-75188554D01*
X135481751Y-75592910D01*
X135726104Y-75667145D01*
X136552972Y-74840278D01*
X136900868Y-74840278D01*
X137727736Y-75667145D01*
X137972089Y-75592910D01*
X138165326Y-75059114D01*
X138139579Y-74492002D01*
X137972089Y-74087646D01*
X137727736Y-74013411D01*
X136900868Y-74840278D01*
X136552972Y-74840278D01*
X135726104Y-74013411D01*
X135481751Y-74087646D01*
X135288514Y-74621442D01*
X133065456Y-74621442D01*
X133059579Y-74492002D01*
X132892089Y-74087646D01*
X132647736Y-74013411D01*
X131820868Y-74840278D01*
X131472972Y-74840278D01*
X130646104Y-74013411D01*
X130401751Y-74087646D01*
X130208514Y-74621442D01*
X117753823Y-74621442D01*
X119752384Y-72622881D01*
X130219672Y-72622881D01*
X130436463Y-73147553D01*
X130837534Y-73549325D01*
X130921074Y-73584014D01*
X130894288Y-73595109D01*
X130820053Y-73839462D01*
X131646920Y-74666330D01*
X132473787Y-73839462D01*
X132399552Y-73595109D01*
X132371436Y-73584931D01*
X132454195Y-73550735D01*
X132855967Y-73149664D01*
X133073672Y-72625371D01*
X133073674Y-72622881D01*
X135299672Y-72622881D01*
X135516463Y-73147553D01*
X135917534Y-73549325D01*
X136001074Y-73584014D01*
X135974288Y-73595109D01*
X135900053Y-73839462D01*
X136726920Y-74666330D01*
X137553787Y-73839462D01*
X137479552Y-73595109D01*
X137451436Y-73584931D01*
X137534195Y-73550735D01*
X137935967Y-73149664D01*
X138153672Y-72625371D01*
X138154168Y-72057675D01*
X137937377Y-71533003D01*
X137536306Y-71131231D01*
X137012013Y-70913526D01*
X136444317Y-70913030D01*
X135919645Y-71129821D01*
X135517873Y-71530892D01*
X135300168Y-72055185D01*
X135299672Y-72622881D01*
X133073674Y-72622881D01*
X133074168Y-72057675D01*
X132857377Y-71533003D01*
X132456306Y-71131231D01*
X131932013Y-70913526D01*
X131364317Y-70913030D01*
X130839645Y-71129821D01*
X130437873Y-71530892D01*
X130220168Y-72055185D01*
X130219672Y-72622881D01*
X119752384Y-72622881D01*
X123819920Y-68555345D01*
X123819920Y-69830278D01*
X123829254Y-69878067D01*
X123857117Y-69920081D01*
X124122931Y-70185895D01*
X124087873Y-70220892D01*
X123870168Y-70745185D01*
X123869672Y-71312881D01*
X124086463Y-71837553D01*
X124487534Y-72239325D01*
X125011827Y-72457030D01*
X125579523Y-72457526D01*
X126104195Y-72240735D01*
X126314202Y-72031094D01*
X127010053Y-72031094D01*
X127084288Y-72275447D01*
X127618084Y-72468684D01*
X128185196Y-72442937D01*
X128589552Y-72275447D01*
X128663787Y-72031094D01*
X127836920Y-71204226D01*
X127010053Y-72031094D01*
X126314202Y-72031094D01*
X126505967Y-71839664D01*
X126560680Y-71707899D01*
X126591751Y-71782910D01*
X126836104Y-71857145D01*
X127662972Y-71030278D01*
X127648829Y-71016136D01*
X127822778Y-70842188D01*
X127836920Y-70856330D01*
X127851063Y-70842188D01*
X128025011Y-71016136D01*
X128010868Y-71030278D01*
X128837736Y-71857145D01*
X129082089Y-71782910D01*
X129275326Y-71249114D01*
X129249579Y-70682002D01*
X129212414Y-70592278D01*
X139821920Y-70592278D01*
X139868079Y-70583593D01*
X139910473Y-70556313D01*
X139938914Y-70514688D01*
X139948920Y-70465278D01*
X139948920Y-66147278D01*
X148983000Y-66147278D01*
X148983000Y-68216734D01*
X136711572Y-80488162D01*
X136242397Y-80487752D01*
X135717725Y-80704543D01*
X135315953Y-81105614D01*
X135098248Y-81629907D01*
X135097752Y-82197603D01*
X135314543Y-82722275D01*
X135715614Y-83124047D01*
X136239907Y-83341752D01*
X136807603Y-83342248D01*
X137332275Y-83125457D01*
X137734047Y-82724386D01*
X137951752Y-82200093D01*
X137952164Y-81728102D01*
X138956404Y-80723862D01*
X152918173Y-80723862D01*
X152992408Y-80968215D01*
X153526204Y-81161452D01*
X154093316Y-81135705D01*
X154497672Y-80968215D01*
X154571907Y-80723862D01*
X153745040Y-79896994D01*
X152918173Y-80723862D01*
X138956404Y-80723862D01*
X140176056Y-79504210D01*
X152306634Y-79504210D01*
X152332381Y-80071322D01*
X152499871Y-80475678D01*
X152744224Y-80549913D01*
X153571092Y-79723046D01*
X153918988Y-79723046D01*
X154745856Y-80549913D01*
X154990209Y-80475678D01*
X155183446Y-79941882D01*
X155157699Y-79374770D01*
X154990209Y-78970414D01*
X154745856Y-78896179D01*
X153918988Y-79723046D01*
X153571092Y-79723046D01*
X152744224Y-78896179D01*
X152499871Y-78970414D01*
X152306634Y-79504210D01*
X140176056Y-79504210D01*
X141496404Y-78183862D01*
X152918173Y-78183862D01*
X152992408Y-78428215D01*
X153056387Y-78451376D01*
X152992408Y-78477877D01*
X152918173Y-78722230D01*
X153745040Y-79549098D01*
X154571907Y-78722230D01*
X154497672Y-78477877D01*
X154433693Y-78454716D01*
X154497672Y-78428215D01*
X154571907Y-78183862D01*
X153745040Y-77356994D01*
X152918173Y-78183862D01*
X141496404Y-78183862D01*
X142716056Y-76964210D01*
X152306634Y-76964210D01*
X152332381Y-77531322D01*
X152499871Y-77935678D01*
X152744224Y-78009913D01*
X153571092Y-77183046D01*
X153918988Y-77183046D01*
X154745856Y-78009913D01*
X154990209Y-77935678D01*
X155183446Y-77401882D01*
X155157699Y-76834770D01*
X154990209Y-76430414D01*
X154745856Y-76356179D01*
X153918988Y-77183046D01*
X153571092Y-77183046D01*
X152744224Y-76356179D01*
X152499871Y-76430414D01*
X152306634Y-76964210D01*
X142716056Y-76964210D01*
X144036404Y-75643862D01*
X152918173Y-75643862D01*
X152992408Y-75888215D01*
X153056387Y-75911376D01*
X152992408Y-75937877D01*
X152918173Y-76182230D01*
X153745040Y-77009098D01*
X154571907Y-76182230D01*
X154497672Y-75937877D01*
X154433693Y-75914716D01*
X154497672Y-75888215D01*
X154571907Y-75643862D01*
X153745040Y-74816994D01*
X152918173Y-75643862D01*
X144036404Y-75643862D01*
X145256056Y-74424210D01*
X152306634Y-74424210D01*
X152332381Y-74991322D01*
X152499871Y-75395678D01*
X152744224Y-75469913D01*
X153571092Y-74643046D01*
X153918988Y-74643046D01*
X154745856Y-75469913D01*
X154990209Y-75395678D01*
X155183446Y-74861882D01*
X155157699Y-74294770D01*
X154990209Y-73890414D01*
X154745856Y-73816179D01*
X153918988Y-74643046D01*
X153571092Y-74643046D01*
X152744224Y-73816179D01*
X152499871Y-73890414D01*
X152306634Y-74424210D01*
X145256056Y-74424210D01*
X146038036Y-73642230D01*
X152918173Y-73642230D01*
X153745040Y-74469098D01*
X154571907Y-73642230D01*
X154497672Y-73397877D01*
X153963876Y-73204640D01*
X153396764Y-73230387D01*
X152992408Y-73397877D01*
X152918173Y-73642230D01*
X146038036Y-73642230D01*
X150480133Y-69200133D01*
X150670242Y-68915613D01*
X150737001Y-68580000D01*
X150737000Y-68579995D01*
X150737000Y-62230005D01*
X150737001Y-62230000D01*
X150670242Y-61894387D01*
X150512812Y-61658775D01*
X150480133Y-61609867D01*
X150480130Y-61609865D01*
X149473920Y-60603655D01*
X149473920Y-53955278D01*
X149465235Y-53909119D01*
X149437955Y-53866725D01*
X149396330Y-53838284D01*
X149346920Y-53828278D01*
X137603920Y-53828278D01*
X137603920Y-52271925D01*
X137603921Y-52271920D01*
X137537162Y-51936307D01*
X137486338Y-51860242D01*
X173859407Y-51860242D01*
X173885749Y-52412193D01*
X174046292Y-52799775D01*
X174286709Y-52869342D01*
X175086052Y-52070000D01*
X174286709Y-51270658D01*
X174046292Y-51340225D01*
X173859407Y-51860242D01*
X137486338Y-51860242D01*
X137347053Y-51651787D01*
X136791975Y-51096709D01*
X174460658Y-51096709D01*
X175260000Y-51896052D01*
X176059342Y-51096709D01*
X175989775Y-50856292D01*
X175469758Y-50669407D01*
X174917807Y-50695749D01*
X174530225Y-50856292D01*
X174460658Y-51096709D01*
X136791975Y-51096709D01*
X135497000Y-49801734D01*
X135497000Y-49347159D01*
X135796850Y-49047833D01*
X135889967Y-48823581D01*
X135981777Y-49045777D01*
X136372167Y-49436850D01*
X136882499Y-49648758D01*
X137435077Y-49649240D01*
X137945777Y-49438223D01*
X138151067Y-49233291D01*
X138900658Y-49233291D01*
X138970225Y-49473708D01*
X139490242Y-49660593D01*
X140042193Y-49634251D01*
X140429775Y-49473708D01*
X140499342Y-49233291D01*
X139700000Y-48433948D01*
X138900658Y-49233291D01*
X138151067Y-49233291D01*
X138336850Y-49047833D01*
X138423702Y-48838670D01*
X138486292Y-48989775D01*
X138726709Y-49059342D01*
X139526052Y-48260000D01*
X139873948Y-48260000D01*
X140673291Y-49059342D01*
X140913708Y-48989775D01*
X141100593Y-48469758D01*
X141074251Y-47917807D01*
X140913708Y-47530225D01*
X140673291Y-47460658D01*
X139873948Y-48260000D01*
X139526052Y-48260000D01*
X138726709Y-47460658D01*
X138486292Y-47530225D01*
X138428178Y-47691930D01*
X138338223Y-47474223D01*
X138151037Y-47286709D01*
X138900658Y-47286709D01*
X139700000Y-48086052D01*
X140499342Y-47286709D01*
X140429775Y-47046292D01*
X139909758Y-46859407D01*
X139357807Y-46885749D01*
X138970225Y-47046292D01*
X138900658Y-47286709D01*
X138151037Y-47286709D01*
X137947833Y-47083150D01*
X137437501Y-46871242D01*
X136884923Y-46870760D01*
X136374223Y-47081777D01*
X135983150Y-47472167D01*
X135890033Y-47696419D01*
X135798223Y-47474223D01*
X135407833Y-47083150D01*
X134897501Y-46871242D01*
X134344923Y-46870760D01*
X133834223Y-47081777D01*
X133443150Y-47472167D01*
X133350033Y-47696419D01*
X133258223Y-47474223D01*
X132867833Y-47083150D01*
X132357501Y-46871242D01*
X131804923Y-46870760D01*
X131294223Y-47081777D01*
X130903150Y-47472167D01*
X130810033Y-47696419D01*
X130718223Y-47474223D01*
X130327833Y-47083150D01*
X129817501Y-46871242D01*
X129264923Y-46870760D01*
X128754223Y-47081777D01*
X128363150Y-47472167D01*
X128270033Y-47696419D01*
X128178223Y-47474223D01*
X127787833Y-47083150D01*
X127277501Y-46871242D01*
X126724923Y-46870760D01*
X126214223Y-47081777D01*
X125823150Y-47472167D01*
X125730033Y-47696419D01*
X125638223Y-47474223D01*
X125247833Y-47083150D01*
X124737501Y-46871242D01*
X124184923Y-46870760D01*
X123674223Y-47081777D01*
X123283150Y-47472167D01*
X123190033Y-47696419D01*
X123098223Y-47474223D01*
X122707833Y-47083150D01*
X122197501Y-46871242D01*
X121644923Y-46870760D01*
X121134223Y-47081777D01*
X120743150Y-47472167D01*
X120650033Y-47696419D01*
X120558223Y-47474223D01*
X120167833Y-47083150D01*
X119657501Y-46871242D01*
X119104923Y-46870760D01*
X118594223Y-47081777D01*
X118203150Y-47472167D01*
X118110033Y-47696419D01*
X118018223Y-47474223D01*
X117627833Y-47083150D01*
X117117501Y-46871242D01*
X116564923Y-46870760D01*
X116054223Y-47081777D01*
X115663150Y-47472167D01*
X115570033Y-47696419D01*
X115478223Y-47474223D01*
X115087833Y-47083150D01*
X114577501Y-46871242D01*
X114024923Y-46870760D01*
X113514223Y-47081777D01*
X113123150Y-47472167D01*
X113036298Y-47681330D01*
X112973708Y-47530225D01*
X112733291Y-47460658D01*
X111933948Y-48260000D01*
X112733291Y-49059342D01*
X112973708Y-48989775D01*
X113031822Y-48828070D01*
X113121777Y-49045777D01*
X113423000Y-49347527D01*
X113423000Y-53683358D01*
X113451827Y-53828278D01*
X113145185Y-53828278D01*
X110097000Y-50780092D01*
X110097000Y-49347159D01*
X110211067Y-49233291D01*
X110960658Y-49233291D01*
X111030225Y-49473708D01*
X111550242Y-49660593D01*
X112102193Y-49634251D01*
X112489775Y-49473708D01*
X112559342Y-49233291D01*
X111760000Y-48433948D01*
X110960658Y-49233291D01*
X110211067Y-49233291D01*
X110396850Y-49047833D01*
X110483702Y-48838670D01*
X110546292Y-48989775D01*
X110786709Y-49059342D01*
X111586052Y-48260000D01*
X110786709Y-47460658D01*
X110546292Y-47530225D01*
X110488178Y-47691930D01*
X110398223Y-47474223D01*
X110211037Y-47286709D01*
X110960658Y-47286709D01*
X111760000Y-48086052D01*
X112559342Y-47286709D01*
X112489775Y-47046292D01*
X111969758Y-46859407D01*
X111417807Y-46885749D01*
X111030225Y-47046292D01*
X110960658Y-47286709D01*
X110211037Y-47286709D01*
X110007833Y-47083150D01*
X109497501Y-46871242D01*
X108944923Y-46870760D01*
X108434223Y-47081777D01*
X108043150Y-47472167D01*
X107950033Y-47696419D01*
X107858223Y-47474223D01*
X107467833Y-47083150D01*
X106957501Y-46871242D01*
X106404923Y-46870760D01*
X105894223Y-47081777D01*
X105503150Y-47472167D01*
X105410033Y-47696419D01*
X105318223Y-47474223D01*
X104927833Y-47083150D01*
X104417501Y-46871242D01*
X103864923Y-46870760D01*
X103354223Y-47081777D01*
X102963150Y-47472167D01*
X102876298Y-47681330D01*
X102813708Y-47530225D01*
X102573291Y-47460658D01*
X101773948Y-48260000D01*
X102573291Y-49059342D01*
X102813708Y-48989775D01*
X102871822Y-48828070D01*
X102961777Y-49045777D01*
X103352167Y-49436850D01*
X103862499Y-49648758D01*
X104415077Y-49649240D01*
X104925777Y-49438223D01*
X105316850Y-49047833D01*
X105409967Y-48823581D01*
X105501777Y-49045777D01*
X105892167Y-49436850D01*
X106402499Y-49648758D01*
X106955077Y-49649240D01*
X107465777Y-49438223D01*
X107856850Y-49047833D01*
X107949967Y-48823581D01*
X108041777Y-49045777D01*
X108343000Y-49347527D01*
X108343000Y-51143358D01*
X108409758Y-51478971D01*
X108599867Y-51763491D01*
X111119920Y-54283543D01*
X111119920Y-59448000D01*
X107950005Y-59448000D01*
X107950000Y-59447999D01*
X107614387Y-59514758D01*
X107329867Y-59704867D01*
X107329865Y-59704870D01*
X99836866Y-67197868D01*
X99646757Y-67482388D01*
X99579999Y-67818001D01*
X99579999Y-72905900D01*
X99419923Y-72905760D01*
X98909223Y-73116777D01*
X98546161Y-73479205D01*
X98512563Y-73300648D01*
X98375243Y-73087247D01*
X98165717Y-72944083D01*
X97917000Y-72893717D01*
X96393000Y-72893717D01*
X96160648Y-72937437D01*
X95947247Y-73074757D01*
X95804083Y-73284283D01*
X95753717Y-73533000D01*
X95753717Y-75057000D01*
X95797437Y-75289352D01*
X95934757Y-75502753D01*
X96144283Y-75645917D01*
X96393000Y-75696283D01*
X97917000Y-75696283D01*
X98149352Y-75652563D01*
X98362753Y-75515243D01*
X98505917Y-75305717D01*
X98545618Y-75109668D01*
X98907167Y-75471850D01*
X99417499Y-75683758D01*
X99970077Y-75684240D01*
X100480777Y-75473223D01*
X100871850Y-75082833D01*
X100964967Y-74858581D01*
X101056777Y-75080777D01*
X101447167Y-75471850D01*
X101957499Y-75683758D01*
X102510077Y-75684240D01*
X103020777Y-75473223D01*
X103226067Y-75268291D01*
X103975658Y-75268291D01*
X104045225Y-75508708D01*
X104565242Y-75695593D01*
X105117193Y-75669251D01*
X105504775Y-75508708D01*
X105574342Y-75268291D01*
X104775000Y-74468948D01*
X103975658Y-75268291D01*
X103226067Y-75268291D01*
X103411850Y-75082833D01*
X103498702Y-74873670D01*
X103561292Y-75024775D01*
X103801709Y-75094342D01*
X104601052Y-74295000D01*
X104948948Y-74295000D01*
X105748291Y-75094342D01*
X105988708Y-75024775D01*
X106175593Y-74504758D01*
X106149251Y-73952807D01*
X105988708Y-73565225D01*
X105748291Y-73495658D01*
X104948948Y-74295000D01*
X104601052Y-74295000D01*
X103801709Y-73495658D01*
X103561292Y-73565225D01*
X103503178Y-73726930D01*
X103413223Y-73509223D01*
X103226037Y-73321709D01*
X103975658Y-73321709D01*
X104775000Y-74121052D01*
X105574342Y-73321709D01*
X105504775Y-73081292D01*
X104984758Y-72894407D01*
X104432807Y-72920749D01*
X104045225Y-73081292D01*
X103975658Y-73321709D01*
X103226037Y-73321709D01*
X103022833Y-73118150D01*
X102512501Y-72906242D01*
X101959923Y-72905760D01*
X101449223Y-73116777D01*
X101333999Y-73231800D01*
X101333999Y-68181267D01*
X108313265Y-61202000D01*
X111119920Y-61202000D01*
X111119920Y-65385278D01*
X111128605Y-65431437D01*
X111155885Y-65473831D01*
X111197510Y-65502272D01*
X111246920Y-65512278D01*
X112921948Y-65512278D01*
X112657873Y-65775892D01*
X112440168Y-66300185D01*
X112439672Y-66867881D01*
X112656463Y-67392553D01*
X113057534Y-67794325D01*
X113581827Y-68012030D01*
X114149523Y-68012526D01*
X114674195Y-67795735D01*
X115075967Y-67394664D01*
X115157410Y-67198527D01*
X115228697Y-67371055D01*
X115619087Y-67762128D01*
X116129419Y-67974036D01*
X116681997Y-67974518D01*
X117192697Y-67763501D01*
X117583770Y-67373111D01*
X117676887Y-67148859D01*
X117768697Y-67371055D01*
X118159087Y-67762128D01*
X118669419Y-67974036D01*
X118745632Y-67974102D01*
X116476734Y-70243000D01*
X112395000Y-70243000D01*
X112059386Y-70309758D01*
X111945424Y-70385905D01*
X111774867Y-70499867D01*
X111774865Y-70499870D01*
X104961572Y-77313162D01*
X104492397Y-77312752D01*
X103967725Y-77529543D01*
X103565953Y-77930614D01*
X103348248Y-78454907D01*
X103347752Y-79022603D01*
X103564543Y-79547275D01*
X103965614Y-79949047D01*
X104097379Y-80003760D01*
X104022368Y-80034831D01*
X103948133Y-80279184D01*
X104775000Y-81106052D01*
X105601867Y-80279184D01*
X105527632Y-80034831D01*
X105447916Y-80005973D01*
X105582275Y-79950457D01*
X105984047Y-79549386D01*
X106201752Y-79025093D01*
X106202164Y-78553102D01*
X112758265Y-71997000D01*
X116840000Y-71997000D01*
X117175613Y-71930242D01*
X117460133Y-71740133D01*
X123687987Y-65512278D01*
X123819920Y-65512278D01*
X123819920Y-66074815D01*
X115215071Y-74679663D01*
X115293672Y-74490371D01*
X115294168Y-73922675D01*
X115077377Y-73398003D01*
X114676306Y-72996231D01*
X114152013Y-72778526D01*
X113584317Y-72778030D01*
X113059645Y-72994821D01*
X112657873Y-73395892D01*
X112440168Y-73920185D01*
X112439672Y-74487881D01*
X112656463Y-75012553D01*
X113057534Y-75414325D01*
X113581827Y-75632030D01*
X114149523Y-75632526D01*
X114341555Y-75553180D01*
X106694867Y-83199867D01*
X106504758Y-83484387D01*
X106438000Y-83820000D01*
X106438000Y-90352841D01*
X106138150Y-90652167D01*
X106045033Y-90876419D01*
X105953223Y-90654223D01*
X105562833Y-90263150D01*
X105052501Y-90051242D01*
X104499923Y-90050760D01*
X103989223Y-90261777D01*
X103598150Y-90652167D01*
X103505033Y-90876419D01*
X103413223Y-90654223D01*
X103022833Y-90263150D01*
X102512501Y-90051242D01*
X101959923Y-90050760D01*
X101449223Y-90261777D01*
X101086161Y-90624205D01*
X101052563Y-90445648D01*
X100915243Y-90232247D01*
X100705717Y-90089083D01*
X100457000Y-90038717D01*
X98933000Y-90038717D01*
X98700648Y-90082437D01*
X98487247Y-90219757D01*
X98344083Y-90429283D01*
X98293717Y-90678000D01*
X98293717Y-92202000D01*
X98337437Y-92434352D01*
X98474757Y-92647753D01*
X98684283Y-92790917D01*
X98880332Y-92830618D01*
X98607473Y-93103000D01*
X96127000Y-93103000D01*
X96127000Y-87918572D01*
X96252534Y-88044325D01*
X96776827Y-88262030D01*
X97344523Y-88262526D01*
X97869195Y-88045735D01*
X98270967Y-87644664D01*
X98488672Y-87120371D01*
X98489168Y-86552675D01*
X98272377Y-86028003D01*
X97871306Y-85626231D01*
X97724802Y-85565397D01*
X97869195Y-85505735D01*
X98270967Y-85104664D01*
X98488672Y-84580371D01*
X98488674Y-84577881D01*
X103254672Y-84577881D01*
X103471463Y-85102553D01*
X103872534Y-85504325D01*
X104019038Y-85565159D01*
X103874645Y-85624821D01*
X103472873Y-86025892D01*
X103255168Y-86550185D01*
X103254672Y-87117881D01*
X103471463Y-87642553D01*
X103872534Y-88044325D01*
X104396827Y-88262030D01*
X104964523Y-88262526D01*
X105489195Y-88045735D01*
X105890967Y-87644664D01*
X106108672Y-87120371D01*
X106109168Y-86552675D01*
X105892377Y-86028003D01*
X105491306Y-85626231D01*
X105344802Y-85565397D01*
X105489195Y-85505735D01*
X105890967Y-85104664D01*
X106108672Y-84580371D01*
X106109168Y-84012675D01*
X105892377Y-83488003D01*
X105491306Y-83086231D01*
X104967013Y-82868526D01*
X104399317Y-82868030D01*
X103874645Y-83084821D01*
X103472873Y-83485892D01*
X103255168Y-84010185D01*
X103254672Y-84577881D01*
X98488674Y-84577881D01*
X98489168Y-84012675D01*
X98272377Y-83488003D01*
X97871306Y-83086231D01*
X97347013Y-82868526D01*
X96779317Y-82868030D01*
X96254645Y-83084821D01*
X96127000Y-83212243D01*
X96127000Y-82270051D01*
X96345614Y-82489047D01*
X96869907Y-82706752D01*
X97437603Y-82707248D01*
X97962275Y-82490457D01*
X98172282Y-82280816D01*
X103948133Y-82280816D01*
X104022368Y-82525169D01*
X104556164Y-82718406D01*
X105123276Y-82692659D01*
X105527632Y-82525169D01*
X105601867Y-82280816D01*
X104775000Y-81453948D01*
X103948133Y-82280816D01*
X98172282Y-82280816D01*
X98364047Y-82089386D01*
X98581752Y-81565093D01*
X98582192Y-81061164D01*
X103336594Y-81061164D01*
X103362341Y-81628276D01*
X103529831Y-82032632D01*
X103774184Y-82106867D01*
X104601052Y-81280000D01*
X104948948Y-81280000D01*
X105775816Y-82106867D01*
X106020169Y-82032632D01*
X106213406Y-81498836D01*
X106187659Y-80931724D01*
X106020169Y-80527368D01*
X105775816Y-80453133D01*
X104948948Y-81280000D01*
X104601052Y-81280000D01*
X103774184Y-80453133D01*
X103529831Y-80527368D01*
X103336594Y-81061164D01*
X98582192Y-81061164D01*
X98582248Y-80997397D01*
X98365457Y-80472725D01*
X97964386Y-80070953D01*
X97817882Y-80010119D01*
X97962275Y-79950457D01*
X98364047Y-79549386D01*
X98581752Y-79025093D01*
X98582248Y-78457397D01*
X98365457Y-77932725D01*
X97964386Y-77530953D01*
X97440093Y-77313248D01*
X96872397Y-77312752D01*
X96347725Y-77529543D01*
X96013685Y-77863000D01*
X95250000Y-77863000D01*
X94914387Y-77929758D01*
X94629867Y-78119867D01*
X94439758Y-78404387D01*
X94373000Y-78740000D01*
X93013920Y-78740000D01*
X93013920Y-51717603D01*
X95092752Y-51717603D01*
X95309543Y-52242275D01*
X95710614Y-52644047D01*
X96234907Y-52861752D01*
X96802603Y-52862248D01*
X97327275Y-52645457D01*
X97729047Y-52244386D01*
X97946752Y-51720093D01*
X97946754Y-51717603D01*
X102712752Y-51717603D01*
X102929543Y-52242275D01*
X103330614Y-52644047D01*
X103854907Y-52861752D01*
X104422603Y-52862248D01*
X104947275Y-52645457D01*
X105349047Y-52244386D01*
X105566752Y-51720093D01*
X105567248Y-51152397D01*
X105350457Y-50627725D01*
X104949386Y-50225953D01*
X104425093Y-50008248D01*
X103857397Y-50007752D01*
X103332725Y-50224543D01*
X102930953Y-50625614D01*
X102713248Y-51149907D01*
X102712752Y-51717603D01*
X97946754Y-51717603D01*
X97947248Y-51152397D01*
X97730457Y-50627725D01*
X97329386Y-50225953D01*
X96805093Y-50008248D01*
X96237397Y-50007752D01*
X95712725Y-50224543D01*
X95310953Y-50625614D01*
X95093248Y-51149907D01*
X95092752Y-51717603D01*
X93013920Y-51717603D01*
X93013920Y-49233291D01*
X100800658Y-49233291D01*
X100870225Y-49473708D01*
X101390242Y-49660593D01*
X101942193Y-49634251D01*
X102329775Y-49473708D01*
X102399342Y-49233291D01*
X101600000Y-48433948D01*
X100800658Y-49233291D01*
X93013920Y-49233291D01*
X93013920Y-48050242D01*
X100199407Y-48050242D01*
X100225749Y-48602193D01*
X100386292Y-48989775D01*
X100626709Y-49059342D01*
X101426052Y-48260000D01*
X100626709Y-47460658D01*
X100386292Y-47530225D01*
X100199407Y-48050242D01*
X93013920Y-48050242D01*
X93013920Y-47286709D01*
X100800658Y-47286709D01*
X101600000Y-48086052D01*
X102399342Y-47286709D01*
X102329775Y-47046292D01*
X101809758Y-46859407D01*
X101257807Y-46885749D01*
X100870225Y-47046292D01*
X100800658Y-47286709D01*
X93013920Y-47286709D01*
X93013920Y-46327278D01*
X176579920Y-46327278D01*
X176579920Y-51596641D01*
M02*
