G04 #@! TF.FileFunction,Other,Fab,Top*
%FSLAX46Y46*%
G04 Gerber Fmt 4.6, Leading zero omitted, Abs format (unit mm)*
G04 Created by KiCad (PCBNEW 4.0.7-e2-6376~58~ubuntu16.04.1) date Mon Oct 15 06:01:05 2018*
%MOMM*%
%LPD*%
G01*
G04 APERTURE LIST*
%ADD10C,0.100000*%
%ADD11C,0.150000*%
G04 APERTURE END LIST*
D10*
X131675555Y-85194524D02*
G75*
G03X131675000Y-87526190I-1500555J-1165476D01*
G01*
X131675000Y-86360000D02*
G75*
G03X131675000Y-86360000I-1500000J0D01*
G01*
X131675000Y-87526190D02*
X131675000Y-85193810D01*
X169890040Y-86073046D02*
X164540040Y-86073046D01*
X164540040Y-86073046D02*
X164540040Y-65753046D01*
X164540040Y-65753046D02*
X170890040Y-65753046D01*
X170890040Y-65753046D02*
X170890040Y-85073046D01*
X170890040Y-85073046D02*
X169890040Y-86073046D01*
X112596920Y-61775278D02*
X112596920Y-56425278D01*
X112596920Y-56425278D02*
X148156920Y-56425278D01*
X148156920Y-56425278D02*
X148156920Y-62775278D01*
X148156920Y-62775278D02*
X113596920Y-62775278D01*
X113596920Y-62775278D02*
X112596920Y-61775278D01*
X130971920Y-65530278D02*
X137221920Y-65530278D01*
X130971920Y-70180278D02*
X137221920Y-70180278D01*
X131096920Y-65855278D02*
X137096920Y-65855278D01*
X131096920Y-69855278D02*
X137096920Y-69855278D01*
X130971920Y-70180278D02*
G75*
G02X130971920Y-65530278I0J2325000D01*
G01*
X137221920Y-70180278D02*
G75*
G03X137221920Y-65530278I0J2325000D01*
G01*
X131096920Y-69855278D02*
G75*
G02X131096920Y-65855278I0J2000000D01*
G01*
X137096920Y-69855278D02*
G75*
G03X137096920Y-65855278I0J2000000D01*
G01*
X125015000Y-114260000D02*
X125015000Y-109860000D01*
X125015000Y-109860000D02*
X115015000Y-109860000D01*
X115015000Y-109860000D02*
X115015000Y-114260000D01*
X115015000Y-114260000D02*
X125015000Y-114260000D01*
X125015000Y-112990000D02*
X115015000Y-112990000D01*
X121865000Y-114260000D02*
X121865000Y-112990000D01*
X118165000Y-114260000D02*
X118165000Y-112990000D01*
X117725000Y-108115000D02*
X117725000Y-106515000D01*
X117725000Y-106515000D02*
X114725000Y-106515000D01*
X114725000Y-106515000D02*
X114725000Y-108115000D01*
X114725000Y-108115000D02*
X117725000Y-108115000D01*
X130846920Y-75090278D02*
X132446920Y-75090278D01*
X132446920Y-75090278D02*
X132446920Y-72090278D01*
X132446920Y-72090278D02*
X130846920Y-72090278D01*
X130846920Y-72090278D02*
X130846920Y-75090278D01*
X135926920Y-75090278D02*
X137526920Y-75090278D01*
X137526920Y-75090278D02*
X137526920Y-72090278D01*
X137526920Y-72090278D02*
X135926920Y-72090278D01*
X135926920Y-72090278D02*
X135926920Y-75090278D01*
X155755040Y-73843046D02*
X155755040Y-75443046D01*
X155755040Y-75443046D02*
X159355040Y-75443046D01*
X159355040Y-75443046D02*
X159355040Y-73843046D01*
X159355040Y-73843046D02*
X155755040Y-73843046D01*
X153745040Y-74643046D02*
X155755040Y-74643046D01*
X161365040Y-74643046D02*
X159355040Y-74643046D01*
X155755040Y-78923046D02*
X155755040Y-80523046D01*
X155755040Y-80523046D02*
X159355040Y-80523046D01*
X159355040Y-80523046D02*
X159355040Y-78923046D01*
X159355040Y-78923046D02*
X155755040Y-78923046D01*
X153745040Y-79723046D02*
X155755040Y-79723046D01*
X161365040Y-79723046D02*
X159355040Y-79723046D01*
X159355040Y-77983046D02*
X159355040Y-76383046D01*
X159355040Y-76383046D02*
X155755040Y-76383046D01*
X155755040Y-76383046D02*
X155755040Y-77983046D01*
X155755040Y-77983046D02*
X159355040Y-77983046D01*
X161365040Y-77183046D02*
X159355040Y-77183046D01*
X153745040Y-77183046D02*
X155755040Y-77183046D01*
X121755000Y-105305000D02*
X123355000Y-105305000D01*
X123355000Y-105305000D02*
X123355000Y-101705000D01*
X123355000Y-101705000D02*
X121755000Y-101705000D01*
X121755000Y-101705000D02*
X121755000Y-105305000D01*
X122555000Y-107315000D02*
X122555000Y-105305000D01*
X122555000Y-99695000D02*
X122555000Y-101705000D01*
X119215000Y-105305000D02*
X120815000Y-105305000D01*
X120815000Y-105305000D02*
X120815000Y-101705000D01*
X120815000Y-101705000D02*
X119215000Y-101705000D01*
X119215000Y-101705000D02*
X119215000Y-105305000D01*
X120015000Y-107315000D02*
X120015000Y-105305000D01*
X120015000Y-99695000D02*
X120015000Y-101705000D01*
X113066920Y-72195278D02*
X114666920Y-72195278D01*
X114666920Y-72195278D02*
X114666920Y-68595278D01*
X114666920Y-68595278D02*
X113066920Y-68595278D01*
X113066920Y-68595278D02*
X113066920Y-72195278D01*
X113866920Y-74205278D02*
X113866920Y-72195278D01*
X113866920Y-66585278D02*
X113866920Y-68595278D01*
X102671920Y-87635278D02*
X102671920Y-86035278D01*
X102671920Y-86035278D02*
X99071920Y-86035278D01*
X99071920Y-86035278D02*
X99071920Y-87635278D01*
X99071920Y-87635278D02*
X102671920Y-87635278D01*
X104681920Y-86835278D02*
X102671920Y-86835278D01*
X97061920Y-86835278D02*
X99071920Y-86835278D01*
X102671920Y-85095278D02*
X102671920Y-83495278D01*
X102671920Y-83495278D02*
X99071920Y-83495278D01*
X99071920Y-83495278D02*
X99071920Y-85095278D01*
X99071920Y-85095278D02*
X102671920Y-85095278D01*
X104681920Y-84295278D02*
X102671920Y-84295278D01*
X97061920Y-84295278D02*
X99071920Y-84295278D01*
X98530000Y-50635000D02*
X98530000Y-52235000D01*
X98530000Y-52235000D02*
X102130000Y-52235000D01*
X102130000Y-52235000D02*
X102130000Y-50635000D01*
X102130000Y-50635000D02*
X98530000Y-50635000D01*
X96520000Y-51435000D02*
X98530000Y-51435000D01*
X104140000Y-51435000D02*
X102130000Y-51435000D01*
X102765000Y-79540000D02*
X102765000Y-77940000D01*
X102765000Y-77940000D02*
X99165000Y-77940000D01*
X99165000Y-77940000D02*
X99165000Y-79540000D01*
X99165000Y-79540000D02*
X102765000Y-79540000D01*
X104775000Y-78740000D02*
X102765000Y-78740000D01*
X97155000Y-78740000D02*
X99165000Y-78740000D01*
X102765000Y-82080000D02*
X102765000Y-80480000D01*
X102765000Y-80480000D02*
X99165000Y-80480000D01*
X99165000Y-80480000D02*
X99165000Y-82080000D01*
X99165000Y-82080000D02*
X102765000Y-82080000D01*
X104775000Y-81280000D02*
X102765000Y-81280000D01*
X97155000Y-81280000D02*
X99165000Y-81280000D01*
X134515000Y-82715000D02*
X134515000Y-81115000D01*
X134515000Y-81115000D02*
X130915000Y-81115000D01*
X130915000Y-81115000D02*
X130915000Y-82715000D01*
X130915000Y-82715000D02*
X134515000Y-82715000D01*
X136525000Y-81915000D02*
X134515000Y-81915000D01*
X128905000Y-81915000D02*
X130915000Y-81915000D01*
X121430000Y-87510000D02*
G75*
G03X121430000Y-87510000I-1095000J0D01*
G01*
X112075000Y-83950000D02*
X112075000Y-88780000D01*
X112075000Y-88780000D02*
X121605000Y-88780000D01*
X121605000Y-88780000D02*
X121605000Y-83950000D01*
X121605000Y-83950000D02*
X112075000Y-83950000D01*
X121166000Y-86814000D02*
X119639000Y-88341000D01*
X121032000Y-86680000D02*
X119505000Y-88207000D01*
D11*
X166953135Y-75365427D02*
X166953135Y-76174951D01*
X167000754Y-76270189D01*
X167048373Y-76317808D01*
X167143611Y-76365427D01*
X167334088Y-76365427D01*
X167429326Y-76317808D01*
X167476945Y-76270189D01*
X167524564Y-76174951D01*
X167524564Y-75365427D01*
X168524564Y-76365427D02*
X167953135Y-76365427D01*
X168238849Y-76365427D02*
X168238849Y-75365427D01*
X168143611Y-75508284D01*
X168048373Y-75603522D01*
X167953135Y-75651141D01*
X129829301Y-60362183D02*
X130638825Y-60362183D01*
X130734063Y-60314564D01*
X130781682Y-60266945D01*
X130829301Y-60171707D01*
X130829301Y-59981230D01*
X130781682Y-59885992D01*
X130734063Y-59838373D01*
X130638825Y-59790754D01*
X129829301Y-59790754D01*
X129924539Y-59362183D02*
X129876920Y-59314564D01*
X129829301Y-59219326D01*
X129829301Y-58981230D01*
X129876920Y-58885992D01*
X129924539Y-58838373D01*
X130019777Y-58790754D01*
X130115015Y-58790754D01*
X130257872Y-58838373D01*
X130829301Y-59409802D01*
X130829301Y-58790754D01*
X133620729Y-67831468D02*
X133620729Y-68307659D01*
X133287396Y-67307659D02*
X133620729Y-67831468D01*
X133954063Y-67307659D01*
X134811206Y-68307659D02*
X134239777Y-68307659D01*
X134525491Y-68307659D02*
X134525491Y-67307659D01*
X134430253Y-67450516D01*
X134335015Y-67545754D01*
X134239777Y-67593373D01*
X119253095Y-114832381D02*
X119253095Y-115641905D01*
X119300714Y-115737143D01*
X119348333Y-115784762D01*
X119443571Y-115832381D01*
X119634048Y-115832381D01*
X119729286Y-115784762D01*
X119776905Y-115737143D01*
X119824524Y-115641905D01*
X119824524Y-114832381D01*
X120729286Y-115165714D02*
X120729286Y-115832381D01*
X120491190Y-114784762D02*
X120253095Y-115499048D01*
X120872143Y-115499048D01*
X116058334Y-107672143D02*
X116010715Y-107719762D01*
X115867858Y-107767381D01*
X115772620Y-107767381D01*
X115629762Y-107719762D01*
X115534524Y-107624524D01*
X115486905Y-107529286D01*
X115439286Y-107338810D01*
X115439286Y-107195952D01*
X115486905Y-107005476D01*
X115534524Y-106910238D01*
X115629762Y-106815000D01*
X115772620Y-106767381D01*
X115867858Y-106767381D01*
X116010715Y-106815000D01*
X116058334Y-106862619D01*
X116439286Y-106862619D02*
X116486905Y-106815000D01*
X116582143Y-106767381D01*
X116820239Y-106767381D01*
X116915477Y-106815000D01*
X116963096Y-106862619D01*
X117010715Y-106957857D01*
X117010715Y-107053095D01*
X116963096Y-107195952D01*
X116391667Y-107767381D01*
X117010715Y-107767381D01*
X132004063Y-73756944D02*
X132051682Y-73804563D01*
X132099301Y-73947420D01*
X132099301Y-74042658D01*
X132051682Y-74185516D01*
X131956444Y-74280754D01*
X131861206Y-74328373D01*
X131670730Y-74375992D01*
X131527872Y-74375992D01*
X131337396Y-74328373D01*
X131242158Y-74280754D01*
X131146920Y-74185516D01*
X131099301Y-74042658D01*
X131099301Y-73947420D01*
X131146920Y-73804563D01*
X131194539Y-73756944D01*
X131432634Y-72899801D02*
X132099301Y-72899801D01*
X131051682Y-73137897D02*
X131765968Y-73375992D01*
X131765968Y-72756944D01*
X137084063Y-73756944D02*
X137131682Y-73804563D01*
X137179301Y-73947420D01*
X137179301Y-74042658D01*
X137131682Y-74185516D01*
X137036444Y-74280754D01*
X136941206Y-74328373D01*
X136750730Y-74375992D01*
X136607872Y-74375992D01*
X136417396Y-74328373D01*
X136322158Y-74280754D01*
X136226920Y-74185516D01*
X136179301Y-74042658D01*
X136179301Y-73947420D01*
X136226920Y-73804563D01*
X136274539Y-73756944D01*
X136179301Y-72852182D02*
X136179301Y-73328373D01*
X136655491Y-73375992D01*
X136607872Y-73328373D01*
X136560253Y-73233135D01*
X136560253Y-72995039D01*
X136607872Y-72899801D01*
X136655491Y-72852182D01*
X136750730Y-72804563D01*
X136988825Y-72804563D01*
X137084063Y-72852182D01*
X137131682Y-72899801D01*
X137179301Y-72995039D01*
X137179301Y-73233135D01*
X137131682Y-73328373D01*
X137084063Y-73375992D01*
M02*
