G04 #@! TF.FileFunction,Other,User*
%FSLAX46Y46*%
G04 Gerber Fmt 4.6, Leading zero omitted, Abs format (unit mm)*
G04 Created by KiCad (PCBNEW 4.0.7-e2-6376~58~ubuntu16.04.1) date Mon Oct 15 06:01:05 2018*
%MOMM*%
%LPD*%
G01*
G04 APERTURE LIST*
%ADD10C,0.100000*%
%ADD11C,0.050000*%
G04 APERTURE END LIST*
D10*
D11*
X132595000Y-88610000D02*
X132595000Y-84110000D01*
X132595000Y-84110000D02*
X127745000Y-84110000D01*
X127745000Y-84110000D02*
X127745000Y-88610000D01*
X127745000Y-88610000D02*
X132595000Y-88610000D01*
X172625040Y-86353046D02*
X172625040Y-65503046D01*
X172625040Y-65503046D02*
X162825040Y-65503046D01*
X162825040Y-65503046D02*
X162825040Y-86353046D01*
X162825040Y-86353046D02*
X172625040Y-86353046D01*
X112316920Y-64510278D02*
X148416920Y-64510278D01*
X148416920Y-64510278D02*
X148416920Y-54710278D01*
X148416920Y-54710278D02*
X112316920Y-54710278D01*
X112316920Y-54710278D02*
X112316920Y-64510278D01*
X128146920Y-65055278D02*
X128146920Y-70655278D01*
X128146920Y-70655278D02*
X140046920Y-70655278D01*
X140046920Y-70655278D02*
X140046920Y-65055278D01*
X140046920Y-65055278D02*
X128146920Y-65055278D01*
X125265000Y-114510000D02*
X125265000Y-109600000D01*
X125265000Y-109600000D02*
X114765000Y-109600000D01*
X114765000Y-109600000D02*
X114765000Y-114510000D01*
X114765000Y-114510000D02*
X125265000Y-114510000D01*
X183966920Y-132560278D02*
G75*
G03X183966920Y-132560278I-3450000J0D01*
G01*
X93796920Y-132560278D02*
G75*
G03X93796920Y-132560278I-3450000J0D01*
G01*
X183966920Y-50010278D02*
G75*
G03X183966920Y-50010278I-3450000J0D01*
G01*
X93796920Y-50010278D02*
G75*
G03X93796920Y-50010278I-3450000J0D01*
G01*
X118525000Y-108465000D02*
X118525000Y-106165000D01*
X118525000Y-106165000D02*
X113925000Y-106165000D01*
X113925000Y-106165000D02*
X113925000Y-108465000D01*
X113925000Y-108465000D02*
X118525000Y-108465000D01*
X130496920Y-75890278D02*
X132796920Y-75890278D01*
X132796920Y-75890278D02*
X132796920Y-71290278D01*
X132796920Y-71290278D02*
X130496920Y-71290278D01*
X130496920Y-71290278D02*
X130496920Y-75890278D01*
X135576920Y-75890278D02*
X137876920Y-75890278D01*
X137876920Y-75890278D02*
X137876920Y-71290278D01*
X137876920Y-71290278D02*
X135576920Y-71290278D01*
X135576920Y-71290278D02*
X135576920Y-75890278D01*
X152795040Y-73493046D02*
X152795040Y-75793046D01*
X152795040Y-75793046D02*
X162345040Y-75793046D01*
X162345040Y-75793046D02*
X162345040Y-73493046D01*
X162345040Y-73493046D02*
X152795040Y-73493046D01*
X152795040Y-78573046D02*
X152795040Y-80873046D01*
X152795040Y-80873046D02*
X162345040Y-80873046D01*
X162345040Y-80873046D02*
X162345040Y-78573046D01*
X162345040Y-78573046D02*
X152795040Y-78573046D01*
X162315040Y-78333046D02*
X162315040Y-76033046D01*
X162315040Y-76033046D02*
X152765040Y-76033046D01*
X152765040Y-76033046D02*
X152765040Y-78333046D01*
X152765040Y-78333046D02*
X162315040Y-78333046D01*
X121405000Y-108265000D02*
X123705000Y-108265000D01*
X123705000Y-108265000D02*
X123705000Y-98715000D01*
X123705000Y-98715000D02*
X121405000Y-98715000D01*
X121405000Y-98715000D02*
X121405000Y-108265000D01*
X118865000Y-108265000D02*
X121165000Y-108265000D01*
X121165000Y-108265000D02*
X121165000Y-98715000D01*
X121165000Y-98715000D02*
X118865000Y-98715000D01*
X118865000Y-98715000D02*
X118865000Y-108265000D01*
X112716920Y-75155278D02*
X115016920Y-75155278D01*
X115016920Y-75155278D02*
X115016920Y-65605278D01*
X115016920Y-65605278D02*
X112716920Y-65605278D01*
X112716920Y-65605278D02*
X112716920Y-75155278D01*
X105631920Y-87985278D02*
X105631920Y-85685278D01*
X105631920Y-85685278D02*
X96081920Y-85685278D01*
X96081920Y-85685278D02*
X96081920Y-87985278D01*
X96081920Y-87985278D02*
X105631920Y-87985278D01*
X105631920Y-85445278D02*
X105631920Y-83145278D01*
X105631920Y-83145278D02*
X96081920Y-83145278D01*
X96081920Y-83145278D02*
X96081920Y-85445278D01*
X96081920Y-85445278D02*
X105631920Y-85445278D01*
X95570000Y-50285000D02*
X95570000Y-52585000D01*
X95570000Y-52585000D02*
X105120000Y-52585000D01*
X105120000Y-52585000D02*
X105120000Y-50285000D01*
X105120000Y-50285000D02*
X95570000Y-50285000D01*
X105725000Y-79890000D02*
X105725000Y-77590000D01*
X105725000Y-77590000D02*
X96175000Y-77590000D01*
X96175000Y-77590000D02*
X96175000Y-79890000D01*
X96175000Y-79890000D02*
X105725000Y-79890000D01*
X105725000Y-82430000D02*
X105725000Y-80130000D01*
X105725000Y-80130000D02*
X96175000Y-80130000D01*
X96175000Y-80130000D02*
X96175000Y-82430000D01*
X96175000Y-82430000D02*
X105725000Y-82430000D01*
X137475000Y-83065000D02*
X137475000Y-80765000D01*
X137475000Y-80765000D02*
X127925000Y-80765000D01*
X127925000Y-80765000D02*
X127925000Y-83065000D01*
X127925000Y-83065000D02*
X137475000Y-83065000D01*
X111780000Y-83660000D02*
X111780000Y-89060000D01*
X111780000Y-89060000D02*
X121880000Y-89060000D01*
X121880000Y-89060000D02*
X121880000Y-83660000D01*
X121880000Y-83660000D02*
X111780000Y-83660000D01*
M02*
