G04 #@! TF.FileFunction,Soldermask,Bot*
%FSLAX46Y46*%
G04 Gerber Fmt 4.6, Leading zero omitted, Abs format (unit mm)*
G04 Created by KiCad (PCBNEW 4.0.7-e2-6376~58~ubuntu16.04.1) date Mon Oct 15 06:01:05 2018*
%MOMM*%
%LPD*%
G01*
G04 APERTURE LIST*
%ADD10C,0.100000*%
G04 APERTURE END LIST*
D10*
G36*
X147130000Y-135065000D02*
X144970000Y-135065000D01*
X144970000Y-132905000D01*
X147130000Y-132905000D01*
X147130000Y-135065000D01*
X147130000Y-135065000D01*
G37*
G36*
X129350000Y-135065000D02*
X127190000Y-135065000D01*
X127190000Y-132905000D01*
X129350000Y-132905000D01*
X129350000Y-135065000D01*
X129350000Y-135065000D01*
G37*
G36*
X180693383Y-130881393D02*
X181016115Y-130947641D01*
X181319835Y-131075312D01*
X181592979Y-131259550D01*
X181825130Y-131493327D01*
X182007452Y-131767745D01*
X182133004Y-132072357D01*
X182196860Y-132394852D01*
X182196860Y-132394877D01*
X182196992Y-132395545D01*
X182191738Y-132771857D01*
X182191586Y-132772525D01*
X182191586Y-132772544D01*
X182118750Y-133093133D01*
X181984741Y-133394123D01*
X181794830Y-133663338D01*
X181556240Y-133890544D01*
X181278057Y-134067084D01*
X180970896Y-134186224D01*
X180646431Y-134243437D01*
X180317038Y-134236536D01*
X179995257Y-134165788D01*
X179693348Y-134033888D01*
X179422808Y-133845857D01*
X179193942Y-133608859D01*
X179015466Y-133331919D01*
X178894182Y-133025590D01*
X178834707Y-132701536D01*
X178839307Y-132372106D01*
X178907807Y-132049838D01*
X179037598Y-131747011D01*
X179223736Y-131475166D01*
X179459126Y-131244654D01*
X179734817Y-131064247D01*
X180040287Y-130940829D01*
X180363919Y-130879092D01*
X180693383Y-130881393D01*
X180693383Y-130881393D01*
G37*
G36*
X90523383Y-130881393D02*
X90846115Y-130947641D01*
X91149835Y-131075312D01*
X91422979Y-131259550D01*
X91655130Y-131493327D01*
X91837452Y-131767745D01*
X91963004Y-132072357D01*
X92026860Y-132394852D01*
X92026860Y-132394877D01*
X92026992Y-132395545D01*
X92021738Y-132771857D01*
X92021586Y-132772525D01*
X92021586Y-132772544D01*
X91948750Y-133093133D01*
X91814741Y-133394123D01*
X91624830Y-133663338D01*
X91386240Y-133890544D01*
X91108057Y-134067084D01*
X90800896Y-134186224D01*
X90476431Y-134243437D01*
X90147038Y-134236536D01*
X89825257Y-134165788D01*
X89523348Y-134033888D01*
X89252808Y-133845857D01*
X89023942Y-133608859D01*
X88845466Y-133331919D01*
X88724182Y-133025590D01*
X88664707Y-132701536D01*
X88669307Y-132372106D01*
X88737807Y-132049838D01*
X88867598Y-131747011D01*
X89053736Y-131475166D01*
X89289126Y-131244654D01*
X89564817Y-131064247D01*
X89870287Y-130940829D01*
X90193919Y-130879092D01*
X90523383Y-130881393D01*
X90523383Y-130881393D01*
G37*
G36*
X111332000Y-127207000D02*
X109648000Y-127207000D01*
X109648000Y-125523000D01*
X111332000Y-125523000D01*
X111332000Y-127207000D01*
X111332000Y-127207000D01*
G37*
G36*
X103384043Y-124635088D02*
X103384051Y-124635089D01*
X103388098Y-124635117D01*
X103621808Y-124661332D01*
X103845974Y-124732442D01*
X104052059Y-124845738D01*
X104232214Y-124996906D01*
X104379575Y-125180186D01*
X104488531Y-125388599D01*
X104554930Y-125614206D01*
X104554935Y-125614266D01*
X104554944Y-125614295D01*
X104576249Y-125848408D01*
X104551677Y-126082201D01*
X104551670Y-126082224D01*
X104551662Y-126082299D01*
X104482119Y-126306956D01*
X104370264Y-126513827D01*
X104220358Y-126695033D01*
X104038111Y-126843670D01*
X103830464Y-126954078D01*
X103605326Y-127022051D01*
X103371274Y-127045000D01*
X101098652Y-127045000D01*
X101085957Y-127044912D01*
X101085949Y-127044911D01*
X101081902Y-127044883D01*
X100848192Y-127018668D01*
X100624026Y-126947558D01*
X100417941Y-126834262D01*
X100237786Y-126683094D01*
X100090425Y-126499814D01*
X99981469Y-126291401D01*
X99915070Y-126065794D01*
X99915065Y-126065734D01*
X99915056Y-126065705D01*
X99893751Y-125831592D01*
X99918323Y-125597799D01*
X99918330Y-125597776D01*
X99918338Y-125597701D01*
X99987881Y-125373044D01*
X100099736Y-125166173D01*
X100249642Y-124984967D01*
X100431889Y-124836330D01*
X100639536Y-124725922D01*
X100864674Y-124657949D01*
X101098726Y-124635000D01*
X103371348Y-124635000D01*
X103384043Y-124635088D01*
X103384043Y-124635088D01*
G37*
G36*
X111332000Y-124667000D02*
X109648000Y-124667000D01*
X109648000Y-122983000D01*
X111332000Y-122983000D01*
X111332000Y-124667000D01*
X111332000Y-124667000D01*
G37*
G36*
X98802201Y-118968323D02*
X98802224Y-118968330D01*
X98802299Y-118968338D01*
X99026956Y-119037881D01*
X99233827Y-119149736D01*
X99415033Y-119299642D01*
X99563670Y-119481889D01*
X99674078Y-119689536D01*
X99742051Y-119914674D01*
X99765000Y-120148726D01*
X99765000Y-122421348D01*
X99764912Y-122434043D01*
X99764911Y-122434051D01*
X99764883Y-122438098D01*
X99738668Y-122671808D01*
X99667558Y-122895974D01*
X99554262Y-123102059D01*
X99403094Y-123282214D01*
X99219814Y-123429575D01*
X99011401Y-123538531D01*
X98785794Y-123604930D01*
X98785734Y-123604935D01*
X98785705Y-123604944D01*
X98551592Y-123626249D01*
X98317799Y-123601677D01*
X98317776Y-123601670D01*
X98317701Y-123601662D01*
X98093044Y-123532119D01*
X97886173Y-123420264D01*
X97704967Y-123270358D01*
X97556330Y-123088111D01*
X97445922Y-122880464D01*
X97377949Y-122655326D01*
X97355000Y-122421274D01*
X97355000Y-120148652D01*
X97355088Y-120135957D01*
X97355089Y-120135949D01*
X97355117Y-120131902D01*
X97381332Y-119898192D01*
X97452442Y-119674026D01*
X97565738Y-119467941D01*
X97716906Y-119287786D01*
X97900186Y-119140425D01*
X98108599Y-119031469D01*
X98334206Y-118965070D01*
X98334266Y-118965065D01*
X98334295Y-118965056D01*
X98568408Y-118943751D01*
X98802201Y-118968323D01*
X98802201Y-118968323D01*
G37*
G36*
X106152201Y-118968323D02*
X106152224Y-118968330D01*
X106152299Y-118968338D01*
X106376956Y-119037881D01*
X106583827Y-119149736D01*
X106765033Y-119299642D01*
X106913670Y-119481889D01*
X107024078Y-119689536D01*
X107092051Y-119914674D01*
X107115000Y-120148726D01*
X107115000Y-122421348D01*
X107114912Y-122434043D01*
X107114911Y-122434051D01*
X107114883Y-122438098D01*
X107088668Y-122671808D01*
X107017558Y-122895974D01*
X106904262Y-123102059D01*
X106753094Y-123282214D01*
X106569814Y-123429575D01*
X106361401Y-123538531D01*
X106135794Y-123604930D01*
X106135734Y-123604935D01*
X106135705Y-123604944D01*
X105901592Y-123626249D01*
X105667799Y-123601677D01*
X105667776Y-123601670D01*
X105667701Y-123601662D01*
X105443044Y-123532119D01*
X105236173Y-123420264D01*
X105054967Y-123270358D01*
X104906330Y-123088111D01*
X104795922Y-122880464D01*
X104727949Y-122655326D01*
X104705000Y-122421274D01*
X104705000Y-120148652D01*
X104705088Y-120135957D01*
X104705089Y-120135949D01*
X104705117Y-120131902D01*
X104731332Y-119898192D01*
X104802442Y-119674026D01*
X104915738Y-119467941D01*
X105066906Y-119287786D01*
X105250186Y-119140425D01*
X105458599Y-119031469D01*
X105684206Y-118965070D01*
X105684266Y-118965065D01*
X105684295Y-118965056D01*
X105918408Y-118943751D01*
X106152201Y-118968323D01*
X106152201Y-118968323D01*
G37*
G36*
X111332000Y-122127000D02*
X109648000Y-122127000D01*
X109648000Y-120443000D01*
X111332000Y-120443000D01*
X111332000Y-122127000D01*
X111332000Y-122127000D01*
G37*
G36*
X123535000Y-112740000D02*
X121575000Y-112740000D01*
X121575000Y-110780000D01*
X123535000Y-110780000D01*
X123535000Y-112740000D01*
X123535000Y-112740000D01*
G37*
G36*
X120029369Y-110780067D02*
X120029374Y-110780068D01*
X120033425Y-110780096D01*
X120223495Y-110801415D01*
X120405805Y-110859247D01*
X120573410Y-110951389D01*
X120719925Y-111074330D01*
X120839771Y-111223388D01*
X120928382Y-111392886D01*
X120982384Y-111576366D01*
X120982390Y-111576432D01*
X120982397Y-111576456D01*
X120999723Y-111766837D01*
X120979740Y-111956958D01*
X120979734Y-111956976D01*
X120979726Y-111957056D01*
X120923168Y-112139765D01*
X120832199Y-112308009D01*
X120710284Y-112455379D01*
X120562066Y-112576263D01*
X120393191Y-112666055D01*
X120210092Y-112721336D01*
X120019742Y-112740000D01*
X120010183Y-112740000D01*
X120000631Y-112739933D01*
X120000626Y-112739932D01*
X119996575Y-112739904D01*
X119806505Y-112718585D01*
X119624195Y-112660753D01*
X119456590Y-112568611D01*
X119310075Y-112445670D01*
X119190229Y-112296612D01*
X119101618Y-112127114D01*
X119047616Y-111943634D01*
X119047610Y-111943568D01*
X119047603Y-111943544D01*
X119030277Y-111753163D01*
X119050260Y-111563042D01*
X119050266Y-111563024D01*
X119050274Y-111562944D01*
X119106832Y-111380235D01*
X119197801Y-111211991D01*
X119319716Y-111064621D01*
X119467934Y-110943737D01*
X119636809Y-110853945D01*
X119819908Y-110798664D01*
X120010258Y-110780000D01*
X120019817Y-110780000D01*
X120029369Y-110780067D01*
X120029369Y-110780067D01*
G37*
G36*
X117489369Y-110780067D02*
X117489374Y-110780068D01*
X117493425Y-110780096D01*
X117683495Y-110801415D01*
X117865805Y-110859247D01*
X118033410Y-110951389D01*
X118179925Y-111074330D01*
X118299771Y-111223388D01*
X118388382Y-111392886D01*
X118442384Y-111576366D01*
X118442390Y-111576432D01*
X118442397Y-111576456D01*
X118459723Y-111766837D01*
X118439740Y-111956958D01*
X118439734Y-111956976D01*
X118439726Y-111957056D01*
X118383168Y-112139765D01*
X118292199Y-112308009D01*
X118170284Y-112455379D01*
X118022066Y-112576263D01*
X117853191Y-112666055D01*
X117670092Y-112721336D01*
X117479742Y-112740000D01*
X117470183Y-112740000D01*
X117460631Y-112739933D01*
X117460626Y-112739932D01*
X117456575Y-112739904D01*
X117266505Y-112718585D01*
X117084195Y-112660753D01*
X116916590Y-112568611D01*
X116770075Y-112445670D01*
X116650229Y-112296612D01*
X116561618Y-112127114D01*
X116507616Y-111943634D01*
X116507610Y-111943568D01*
X116507603Y-111943544D01*
X116490277Y-111753163D01*
X116510260Y-111563042D01*
X116510266Y-111563024D01*
X116510274Y-111562944D01*
X116566832Y-111380235D01*
X116657801Y-111211991D01*
X116779716Y-111064621D01*
X116927934Y-110943737D01*
X117096809Y-110853945D01*
X117279908Y-110798664D01*
X117470258Y-110780000D01*
X117479817Y-110780000D01*
X117489369Y-110780067D01*
X117489369Y-110780067D01*
G37*
G36*
X117567432Y-106435583D02*
X117736486Y-106470284D01*
X117895576Y-106537159D01*
X118038652Y-106633665D01*
X118160254Y-106756119D01*
X118255757Y-106899862D01*
X118321522Y-107059420D01*
X118354905Y-107228022D01*
X118354905Y-107228039D01*
X118355038Y-107228712D01*
X118352285Y-107425827D01*
X118352134Y-107426490D01*
X118352134Y-107426514D01*
X118314055Y-107594119D01*
X118243863Y-107751771D01*
X118144381Y-107892797D01*
X118019408Y-108011807D01*
X117873692Y-108104282D01*
X117712798Y-108166688D01*
X117542838Y-108196657D01*
X117370300Y-108193042D01*
X117201747Y-108155983D01*
X117043604Y-108086892D01*
X116901893Y-107988401D01*
X116782007Y-107864255D01*
X116688523Y-107719198D01*
X116624992Y-107558735D01*
X116593839Y-107388993D01*
X116596248Y-107216435D01*
X116632129Y-107047627D01*
X116700116Y-106889001D01*
X116797617Y-106746606D01*
X116920918Y-106625860D01*
X117065323Y-106531364D01*
X117225334Y-106466715D01*
X117394856Y-106434377D01*
X117567432Y-106435583D01*
X117567432Y-106435583D01*
G37*
G36*
X122647432Y-106435583D02*
X122816486Y-106470284D01*
X122975576Y-106537159D01*
X123118652Y-106633665D01*
X123240254Y-106756119D01*
X123335757Y-106899862D01*
X123401522Y-107059420D01*
X123434905Y-107228022D01*
X123434905Y-107228039D01*
X123435038Y-107228712D01*
X123432285Y-107425827D01*
X123432134Y-107426490D01*
X123432134Y-107426514D01*
X123394055Y-107594119D01*
X123323863Y-107751771D01*
X123224381Y-107892797D01*
X123099408Y-108011807D01*
X122953692Y-108104282D01*
X122792798Y-108166688D01*
X122622838Y-108196657D01*
X122450300Y-108193042D01*
X122281747Y-108155983D01*
X122123604Y-108086892D01*
X121981893Y-107988401D01*
X121862007Y-107864255D01*
X121768523Y-107719198D01*
X121704992Y-107558735D01*
X121673839Y-107388993D01*
X121676248Y-107216435D01*
X121712129Y-107047627D01*
X121780116Y-106889001D01*
X121877617Y-106746606D01*
X122000918Y-106625860D01*
X122145323Y-106531364D01*
X122305334Y-106466715D01*
X122474856Y-106434377D01*
X122647432Y-106435583D01*
X122647432Y-106435583D01*
G37*
G36*
X120107432Y-106435583D02*
X120276486Y-106470284D01*
X120435576Y-106537159D01*
X120578652Y-106633665D01*
X120700254Y-106756119D01*
X120795757Y-106899862D01*
X120861522Y-107059420D01*
X120894905Y-107228022D01*
X120894905Y-107228039D01*
X120895038Y-107228712D01*
X120892285Y-107425827D01*
X120892134Y-107426490D01*
X120892134Y-107426514D01*
X120854055Y-107594119D01*
X120783863Y-107751771D01*
X120684381Y-107892797D01*
X120559408Y-108011807D01*
X120413692Y-108104282D01*
X120252798Y-108166688D01*
X120082838Y-108196657D01*
X119910300Y-108193042D01*
X119741747Y-108155983D01*
X119583604Y-108086892D01*
X119441893Y-107988401D01*
X119322007Y-107864255D01*
X119228523Y-107719198D01*
X119164992Y-107558735D01*
X119133839Y-107388993D01*
X119136248Y-107216435D01*
X119172129Y-107047627D01*
X119240116Y-106889001D01*
X119337617Y-106746606D01*
X119460918Y-106625860D01*
X119605323Y-106531364D01*
X119765334Y-106466715D01*
X119934856Y-106434377D01*
X120107432Y-106435583D01*
X120107432Y-106435583D01*
G37*
G36*
X115067432Y-106435583D02*
X115236486Y-106470284D01*
X115395576Y-106537159D01*
X115538652Y-106633665D01*
X115660254Y-106756119D01*
X115755757Y-106899862D01*
X115821522Y-107059420D01*
X115854905Y-107228022D01*
X115854905Y-107228039D01*
X115855038Y-107228712D01*
X115852285Y-107425827D01*
X115852134Y-107426490D01*
X115852134Y-107426514D01*
X115814055Y-107594119D01*
X115743863Y-107751771D01*
X115644381Y-107892797D01*
X115519408Y-108011807D01*
X115373692Y-108104282D01*
X115212798Y-108166688D01*
X115042838Y-108196657D01*
X114870300Y-108193042D01*
X114701747Y-108155983D01*
X114543604Y-108086892D01*
X114401893Y-107988401D01*
X114282007Y-107864255D01*
X114188523Y-107719198D01*
X114124992Y-107558735D01*
X114093839Y-107388993D01*
X114096248Y-107216435D01*
X114132129Y-107047627D01*
X114200116Y-106889001D01*
X114297617Y-106746606D01*
X114420918Y-106625860D01*
X114565323Y-106531364D01*
X114725334Y-106466715D01*
X114894856Y-106434377D01*
X115067432Y-106435583D01*
X115067432Y-106435583D01*
G37*
G36*
X122647432Y-98815583D02*
X122816486Y-98850284D01*
X122975576Y-98917159D01*
X123118652Y-99013665D01*
X123240254Y-99136119D01*
X123335757Y-99279862D01*
X123401522Y-99439420D01*
X123434905Y-99608022D01*
X123434905Y-99608039D01*
X123435038Y-99608712D01*
X123432285Y-99805827D01*
X123432134Y-99806490D01*
X123432134Y-99806514D01*
X123394055Y-99974119D01*
X123323863Y-100131771D01*
X123224381Y-100272797D01*
X123099408Y-100391807D01*
X122953692Y-100484282D01*
X122792798Y-100546688D01*
X122622838Y-100576657D01*
X122450300Y-100573042D01*
X122281747Y-100535983D01*
X122123604Y-100466892D01*
X121981893Y-100368401D01*
X121862007Y-100244255D01*
X121768523Y-100099198D01*
X121704992Y-99938735D01*
X121673839Y-99768993D01*
X121676248Y-99596435D01*
X121712129Y-99427627D01*
X121780116Y-99269001D01*
X121877617Y-99126606D01*
X122000918Y-99005860D01*
X122145323Y-98911364D01*
X122305334Y-98846715D01*
X122474856Y-98814377D01*
X122647432Y-98815583D01*
X122647432Y-98815583D01*
G37*
G36*
X120107432Y-98815583D02*
X120276486Y-98850284D01*
X120435576Y-98917159D01*
X120578652Y-99013665D01*
X120700254Y-99136119D01*
X120795757Y-99279862D01*
X120861522Y-99439420D01*
X120894905Y-99608022D01*
X120894905Y-99608039D01*
X120895038Y-99608712D01*
X120892285Y-99805827D01*
X120892134Y-99806490D01*
X120892134Y-99806514D01*
X120854055Y-99974119D01*
X120783863Y-100131771D01*
X120684381Y-100272797D01*
X120559408Y-100391807D01*
X120413692Y-100484282D01*
X120252798Y-100546688D01*
X120082838Y-100576657D01*
X119910300Y-100573042D01*
X119741747Y-100535983D01*
X119583604Y-100466892D01*
X119441893Y-100368401D01*
X119322007Y-100244255D01*
X119228523Y-100099198D01*
X119164992Y-99938735D01*
X119133839Y-99768993D01*
X119136248Y-99596435D01*
X119172129Y-99427627D01*
X119240116Y-99269001D01*
X119337617Y-99126606D01*
X119460918Y-99005860D01*
X119605323Y-98911364D01*
X119765334Y-98846715D01*
X119934856Y-98814377D01*
X120107432Y-98815583D01*
X120107432Y-98815583D01*
G37*
G36*
X116297432Y-98815583D02*
X116466486Y-98850284D01*
X116625576Y-98917159D01*
X116768652Y-99013665D01*
X116890254Y-99136119D01*
X116985757Y-99279862D01*
X117051522Y-99439420D01*
X117084905Y-99608022D01*
X117084905Y-99608039D01*
X117085038Y-99608712D01*
X117082285Y-99805827D01*
X117082134Y-99806490D01*
X117082134Y-99806514D01*
X117044055Y-99974119D01*
X116973863Y-100131771D01*
X116874381Y-100272797D01*
X116749408Y-100391807D01*
X116603692Y-100484282D01*
X116442798Y-100546688D01*
X116272838Y-100576657D01*
X116100300Y-100573042D01*
X115931747Y-100535983D01*
X115773604Y-100466892D01*
X115631893Y-100368401D01*
X115512007Y-100244255D01*
X115418523Y-100099198D01*
X115354992Y-99938735D01*
X115323839Y-99768993D01*
X115326248Y-99596435D01*
X115362129Y-99427627D01*
X115430116Y-99269001D01*
X115527617Y-99126606D01*
X115650918Y-99005860D01*
X115795323Y-98911364D01*
X115955334Y-98846715D01*
X116124856Y-98814377D01*
X116297432Y-98815583D01*
X116297432Y-98815583D01*
G37*
G36*
X113757432Y-98815583D02*
X113926486Y-98850284D01*
X114085576Y-98917159D01*
X114228652Y-99013665D01*
X114350254Y-99136119D01*
X114445757Y-99279862D01*
X114511522Y-99439420D01*
X114544905Y-99608022D01*
X114544905Y-99608039D01*
X114545038Y-99608712D01*
X114542285Y-99805827D01*
X114542134Y-99806490D01*
X114542134Y-99806514D01*
X114504055Y-99974119D01*
X114433863Y-100131771D01*
X114334381Y-100272797D01*
X114209408Y-100391807D01*
X114063692Y-100484282D01*
X113902798Y-100546688D01*
X113732838Y-100576657D01*
X113560300Y-100573042D01*
X113391747Y-100535983D01*
X113233604Y-100466892D01*
X113091893Y-100368401D01*
X112972007Y-100244255D01*
X112878523Y-100099198D01*
X112814992Y-99938735D01*
X112783839Y-99768993D01*
X112786248Y-99596435D01*
X112822129Y-99427627D01*
X112890116Y-99269001D01*
X112987617Y-99126606D01*
X113110918Y-99005860D01*
X113255323Y-98911364D01*
X113415334Y-98846715D01*
X113584856Y-98814377D01*
X113757432Y-98815583D01*
X113757432Y-98815583D01*
G37*
G36*
X161378444Y-95043557D02*
X161540191Y-95076759D01*
X161692415Y-95140748D01*
X161829313Y-95233087D01*
X161945664Y-95350253D01*
X162037041Y-95487788D01*
X162099967Y-95640457D01*
X162131903Y-95801748D01*
X162131903Y-95801765D01*
X162132036Y-95802438D01*
X162129402Y-95991041D01*
X162129251Y-95991704D01*
X162129251Y-95991728D01*
X162092824Y-96152061D01*
X162025659Y-96302915D01*
X161930476Y-96437847D01*
X161810900Y-96551717D01*
X161671474Y-96640199D01*
X161517531Y-96699910D01*
X161354909Y-96728585D01*
X161189820Y-96725126D01*
X161028547Y-96689669D01*
X160877233Y-96623561D01*
X160741641Y-96529322D01*
X160626935Y-96410540D01*
X160537485Y-96271741D01*
X160476696Y-96118208D01*
X160446889Y-95955797D01*
X160449194Y-95790691D01*
X160483526Y-95629172D01*
X160548577Y-95477396D01*
X160641866Y-95341153D01*
X160759844Y-95225619D01*
X160898017Y-95135201D01*
X161051114Y-95073346D01*
X161213317Y-95042404D01*
X161378444Y-95043557D01*
X161378444Y-95043557D01*
G37*
G36*
X153758444Y-95043557D02*
X153920191Y-95076759D01*
X154072415Y-95140748D01*
X154209313Y-95233087D01*
X154325664Y-95350253D01*
X154417041Y-95487788D01*
X154479967Y-95640457D01*
X154511903Y-95801748D01*
X154511903Y-95801765D01*
X154512036Y-95802438D01*
X154509402Y-95991041D01*
X154509251Y-95991704D01*
X154509251Y-95991728D01*
X154472824Y-96152061D01*
X154405659Y-96302915D01*
X154310476Y-96437847D01*
X154190900Y-96551717D01*
X154051474Y-96640199D01*
X153897531Y-96699910D01*
X153734909Y-96728585D01*
X153569820Y-96725126D01*
X153408547Y-96689669D01*
X153257233Y-96623561D01*
X153121641Y-96529322D01*
X153006935Y-96410540D01*
X152917485Y-96271741D01*
X152856696Y-96118208D01*
X152826889Y-95955797D01*
X152829194Y-95790691D01*
X152863526Y-95629172D01*
X152928577Y-95477396D01*
X153021866Y-95341153D01*
X153139844Y-95225619D01*
X153278017Y-95135201D01*
X153431114Y-95073346D01*
X153593317Y-95042404D01*
X153758444Y-95043557D01*
X153758444Y-95043557D01*
G37*
G36*
X166458444Y-95043557D02*
X166620191Y-95076759D01*
X166772415Y-95140748D01*
X166909313Y-95233087D01*
X167025664Y-95350253D01*
X167117041Y-95487788D01*
X167179967Y-95640457D01*
X167211903Y-95801748D01*
X167211903Y-95801765D01*
X167212036Y-95802438D01*
X167209402Y-95991041D01*
X167209251Y-95991704D01*
X167209251Y-95991728D01*
X167172824Y-96152061D01*
X167105659Y-96302915D01*
X167010476Y-96437847D01*
X166890900Y-96551717D01*
X166751474Y-96640199D01*
X166597531Y-96699910D01*
X166434909Y-96728585D01*
X166269820Y-96725126D01*
X166108547Y-96689669D01*
X165957233Y-96623561D01*
X165821641Y-96529322D01*
X165706935Y-96410540D01*
X165617485Y-96271741D01*
X165556696Y-96118208D01*
X165526889Y-95955797D01*
X165529194Y-95790691D01*
X165563526Y-95629172D01*
X165628577Y-95477396D01*
X165721866Y-95341153D01*
X165839844Y-95225619D01*
X165978017Y-95135201D01*
X166131114Y-95073346D01*
X166293317Y-95042404D01*
X166458444Y-95043557D01*
X166458444Y-95043557D01*
G37*
G36*
X156298444Y-95043557D02*
X156460191Y-95076759D01*
X156612415Y-95140748D01*
X156749313Y-95233087D01*
X156865664Y-95350253D01*
X156957041Y-95487788D01*
X157019967Y-95640457D01*
X157051903Y-95801748D01*
X157051903Y-95801765D01*
X157052036Y-95802438D01*
X157049402Y-95991041D01*
X157049251Y-95991704D01*
X157049251Y-95991728D01*
X157012824Y-96152061D01*
X156945659Y-96302915D01*
X156850476Y-96437847D01*
X156730900Y-96551717D01*
X156591474Y-96640199D01*
X156437531Y-96699910D01*
X156274909Y-96728585D01*
X156109820Y-96725126D01*
X155948547Y-96689669D01*
X155797233Y-96623561D01*
X155661641Y-96529322D01*
X155546935Y-96410540D01*
X155457485Y-96271741D01*
X155396696Y-96118208D01*
X155366889Y-95955797D01*
X155369194Y-95790691D01*
X155403526Y-95629172D01*
X155468577Y-95477396D01*
X155561866Y-95341153D01*
X155679844Y-95225619D01*
X155818017Y-95135201D01*
X155971114Y-95073346D01*
X156133317Y-95042404D01*
X156298444Y-95043557D01*
X156298444Y-95043557D01*
G37*
G36*
X158838444Y-95043557D02*
X159000191Y-95076759D01*
X159152415Y-95140748D01*
X159289313Y-95233087D01*
X159405664Y-95350253D01*
X159497041Y-95487788D01*
X159559967Y-95640457D01*
X159591903Y-95801748D01*
X159591903Y-95801765D01*
X159592036Y-95802438D01*
X159589402Y-95991041D01*
X159589251Y-95991704D01*
X159589251Y-95991728D01*
X159552824Y-96152061D01*
X159485659Y-96302915D01*
X159390476Y-96437847D01*
X159270900Y-96551717D01*
X159131474Y-96640199D01*
X158977531Y-96699910D01*
X158814909Y-96728585D01*
X158649820Y-96725126D01*
X158488547Y-96689669D01*
X158337233Y-96623561D01*
X158201641Y-96529322D01*
X158086935Y-96410540D01*
X157997485Y-96271741D01*
X157936696Y-96118208D01*
X157906889Y-95955797D01*
X157909194Y-95790691D01*
X157943526Y-95629172D01*
X158008577Y-95477396D01*
X158101866Y-95341153D01*
X158219844Y-95225619D01*
X158358017Y-95135201D01*
X158511114Y-95073346D01*
X158673317Y-95042404D01*
X158838444Y-95043557D01*
X158838444Y-95043557D01*
G37*
G36*
X164672000Y-96727000D02*
X162988000Y-96727000D01*
X162988000Y-95043000D01*
X164672000Y-95043000D01*
X164672000Y-96727000D01*
X164672000Y-96727000D01*
G37*
G36*
X102323444Y-93138557D02*
X102485191Y-93171759D01*
X102637415Y-93235748D01*
X102774313Y-93328087D01*
X102890664Y-93445253D01*
X102982041Y-93582788D01*
X103044967Y-93735457D01*
X103076903Y-93896748D01*
X103076903Y-93896765D01*
X103077036Y-93897438D01*
X103074402Y-94086041D01*
X103074251Y-94086704D01*
X103074251Y-94086728D01*
X103037824Y-94247061D01*
X102970659Y-94397915D01*
X102875476Y-94532847D01*
X102755900Y-94646717D01*
X102616474Y-94735199D01*
X102462531Y-94794910D01*
X102299909Y-94823585D01*
X102134820Y-94820126D01*
X101973547Y-94784669D01*
X101822233Y-94718561D01*
X101686641Y-94624322D01*
X101571935Y-94505540D01*
X101482485Y-94366741D01*
X101421696Y-94213208D01*
X101391889Y-94050797D01*
X101394194Y-93885691D01*
X101428526Y-93724172D01*
X101493577Y-93572396D01*
X101586866Y-93436153D01*
X101704844Y-93320619D01*
X101843017Y-93230201D01*
X101996114Y-93168346D01*
X102158317Y-93137404D01*
X102323444Y-93138557D01*
X102323444Y-93138557D01*
G37*
G36*
X99783444Y-93138557D02*
X99945191Y-93171759D01*
X100097415Y-93235748D01*
X100234313Y-93328087D01*
X100350664Y-93445253D01*
X100442041Y-93582788D01*
X100504967Y-93735457D01*
X100536903Y-93896748D01*
X100536903Y-93896765D01*
X100537036Y-93897438D01*
X100534402Y-94086041D01*
X100534251Y-94086704D01*
X100534251Y-94086728D01*
X100497824Y-94247061D01*
X100430659Y-94397915D01*
X100335476Y-94532847D01*
X100215900Y-94646717D01*
X100076474Y-94735199D01*
X99922531Y-94794910D01*
X99759909Y-94823585D01*
X99594820Y-94820126D01*
X99433547Y-94784669D01*
X99282233Y-94718561D01*
X99146641Y-94624322D01*
X99031935Y-94505540D01*
X98942485Y-94366741D01*
X98881696Y-94213208D01*
X98851889Y-94050797D01*
X98854194Y-93885691D01*
X98888526Y-93724172D01*
X98953577Y-93572396D01*
X99046866Y-93436153D01*
X99164844Y-93320619D01*
X99303017Y-93230201D01*
X99456114Y-93168346D01*
X99618317Y-93137404D01*
X99783444Y-93138557D01*
X99783444Y-93138557D01*
G37*
G36*
X107403444Y-93138557D02*
X107565191Y-93171759D01*
X107717415Y-93235748D01*
X107854313Y-93328087D01*
X107970664Y-93445253D01*
X108062041Y-93582788D01*
X108124967Y-93735457D01*
X108156903Y-93896748D01*
X108156903Y-93896765D01*
X108157036Y-93897438D01*
X108154402Y-94086041D01*
X108154251Y-94086704D01*
X108154251Y-94086728D01*
X108117824Y-94247061D01*
X108050659Y-94397915D01*
X107955476Y-94532847D01*
X107835900Y-94646717D01*
X107696474Y-94735199D01*
X107542531Y-94794910D01*
X107379909Y-94823585D01*
X107214820Y-94820126D01*
X107053547Y-94784669D01*
X106902233Y-94718561D01*
X106766641Y-94624322D01*
X106651935Y-94505540D01*
X106562485Y-94366741D01*
X106501696Y-94213208D01*
X106471889Y-94050797D01*
X106474194Y-93885691D01*
X106508526Y-93724172D01*
X106573577Y-93572396D01*
X106666866Y-93436153D01*
X106784844Y-93320619D01*
X106923017Y-93230201D01*
X107076114Y-93168346D01*
X107238317Y-93137404D01*
X107403444Y-93138557D01*
X107403444Y-93138557D01*
G37*
G36*
X104863444Y-93138557D02*
X105025191Y-93171759D01*
X105177415Y-93235748D01*
X105314313Y-93328087D01*
X105430664Y-93445253D01*
X105522041Y-93582788D01*
X105584967Y-93735457D01*
X105616903Y-93896748D01*
X105616903Y-93896765D01*
X105617036Y-93897438D01*
X105614402Y-94086041D01*
X105614251Y-94086704D01*
X105614251Y-94086728D01*
X105577824Y-94247061D01*
X105510659Y-94397915D01*
X105415476Y-94532847D01*
X105295900Y-94646717D01*
X105156474Y-94735199D01*
X105002531Y-94794910D01*
X104839909Y-94823585D01*
X104674820Y-94820126D01*
X104513547Y-94784669D01*
X104362233Y-94718561D01*
X104226641Y-94624322D01*
X104111935Y-94505540D01*
X104022485Y-94366741D01*
X103961696Y-94213208D01*
X103931889Y-94050797D01*
X103934194Y-93885691D01*
X103968526Y-93724172D01*
X104033577Y-93572396D01*
X104126866Y-93436153D01*
X104244844Y-93320619D01*
X104383017Y-93230201D01*
X104536114Y-93168346D01*
X104698317Y-93137404D01*
X104863444Y-93138557D01*
X104863444Y-93138557D01*
G37*
G36*
X147130000Y-94425000D02*
X144970000Y-94425000D01*
X144970000Y-92265000D01*
X147130000Y-92265000D01*
X147130000Y-94425000D01*
X147130000Y-94425000D01*
G37*
G36*
X129350000Y-94425000D02*
X127190000Y-94425000D01*
X127190000Y-92265000D01*
X129350000Y-92265000D01*
X129350000Y-94425000D01*
X129350000Y-94425000D01*
G37*
G36*
X175423484Y-91868557D02*
X175585231Y-91901759D01*
X175737455Y-91965748D01*
X175874353Y-92058087D01*
X175990704Y-92175253D01*
X176082081Y-92312788D01*
X176145007Y-92465457D01*
X176176943Y-92626748D01*
X176176943Y-92626765D01*
X176177076Y-92627438D01*
X176174442Y-92816041D01*
X176174291Y-92816704D01*
X176174291Y-92816728D01*
X176137864Y-92977061D01*
X176070699Y-93127915D01*
X175975516Y-93262847D01*
X175855940Y-93376717D01*
X175716514Y-93465199D01*
X175562571Y-93524910D01*
X175399949Y-93553585D01*
X175234860Y-93550126D01*
X175073587Y-93514669D01*
X174922273Y-93448561D01*
X174786681Y-93354322D01*
X174671975Y-93235540D01*
X174582525Y-93096741D01*
X174521736Y-92943208D01*
X174491929Y-92780797D01*
X174494234Y-92615691D01*
X174528566Y-92454172D01*
X174593617Y-92302396D01*
X174686906Y-92166153D01*
X174804884Y-92050619D01*
X174943057Y-91960201D01*
X175096154Y-91898346D01*
X175258357Y-91867404D01*
X175423484Y-91868557D01*
X175423484Y-91868557D01*
G37*
G36*
X104863444Y-90598557D02*
X105025191Y-90631759D01*
X105177415Y-90695748D01*
X105314313Y-90788087D01*
X105430664Y-90905253D01*
X105522041Y-91042788D01*
X105584967Y-91195457D01*
X105616903Y-91356748D01*
X105616903Y-91356765D01*
X105617036Y-91357438D01*
X105614402Y-91546041D01*
X105614251Y-91546704D01*
X105614251Y-91546728D01*
X105577824Y-91707061D01*
X105510659Y-91857915D01*
X105415476Y-91992847D01*
X105295900Y-92106717D01*
X105156474Y-92195199D01*
X105002531Y-92254910D01*
X104839909Y-92283585D01*
X104674820Y-92280126D01*
X104513547Y-92244669D01*
X104362233Y-92178561D01*
X104226641Y-92084322D01*
X104111935Y-91965540D01*
X104022485Y-91826741D01*
X103961696Y-91673208D01*
X103931889Y-91510797D01*
X103934194Y-91345691D01*
X103968526Y-91184172D01*
X104033577Y-91032396D01*
X104126866Y-90896153D01*
X104244844Y-90780619D01*
X104383017Y-90690201D01*
X104536114Y-90628346D01*
X104698317Y-90597404D01*
X104863444Y-90598557D01*
X104863444Y-90598557D01*
G37*
G36*
X107403444Y-90598557D02*
X107565191Y-90631759D01*
X107717415Y-90695748D01*
X107854313Y-90788087D01*
X107970664Y-90905253D01*
X108062041Y-91042788D01*
X108124967Y-91195457D01*
X108156903Y-91356748D01*
X108156903Y-91356765D01*
X108157036Y-91357438D01*
X108154402Y-91546041D01*
X108154251Y-91546704D01*
X108154251Y-91546728D01*
X108117824Y-91707061D01*
X108050659Y-91857915D01*
X107955476Y-91992847D01*
X107835900Y-92106717D01*
X107696474Y-92195199D01*
X107542531Y-92254910D01*
X107379909Y-92283585D01*
X107214820Y-92280126D01*
X107053547Y-92244669D01*
X106902233Y-92178561D01*
X106766641Y-92084322D01*
X106651935Y-91965540D01*
X106562485Y-91826741D01*
X106501696Y-91673208D01*
X106471889Y-91510797D01*
X106474194Y-91345691D01*
X106508526Y-91184172D01*
X106573577Y-91032396D01*
X106666866Y-90896153D01*
X106784844Y-90780619D01*
X106923017Y-90690201D01*
X107076114Y-90628346D01*
X107238317Y-90597404D01*
X107403444Y-90598557D01*
X107403444Y-90598557D01*
G37*
G36*
X102323444Y-90598557D02*
X102485191Y-90631759D01*
X102637415Y-90695748D01*
X102774313Y-90788087D01*
X102890664Y-90905253D01*
X102982041Y-91042788D01*
X103044967Y-91195457D01*
X103076903Y-91356748D01*
X103076903Y-91356765D01*
X103077036Y-91357438D01*
X103074402Y-91546041D01*
X103074251Y-91546704D01*
X103074251Y-91546728D01*
X103037824Y-91707061D01*
X102970659Y-91857915D01*
X102875476Y-91992847D01*
X102755900Y-92106717D01*
X102616474Y-92195199D01*
X102462531Y-92254910D01*
X102299909Y-92283585D01*
X102134820Y-92280126D01*
X101973547Y-92244669D01*
X101822233Y-92178561D01*
X101686641Y-92084322D01*
X101571935Y-91965540D01*
X101482485Y-91826741D01*
X101421696Y-91673208D01*
X101391889Y-91510797D01*
X101394194Y-91345691D01*
X101428526Y-91184172D01*
X101493577Y-91032396D01*
X101586866Y-90896153D01*
X101704844Y-90780619D01*
X101843017Y-90690201D01*
X101996114Y-90628346D01*
X102158317Y-90597404D01*
X102323444Y-90598557D01*
X102323444Y-90598557D01*
G37*
G36*
X100537000Y-92282000D02*
X98853000Y-92282000D01*
X98853000Y-90598000D01*
X100537000Y-90598000D01*
X100537000Y-92282000D01*
X100537000Y-92282000D01*
G37*
G36*
X175423484Y-89328557D02*
X175585231Y-89361759D01*
X175737455Y-89425748D01*
X175874353Y-89518087D01*
X175990704Y-89635253D01*
X176082081Y-89772788D01*
X176145007Y-89925457D01*
X176176943Y-90086748D01*
X176176943Y-90086765D01*
X176177076Y-90087438D01*
X176174442Y-90276041D01*
X176174291Y-90276704D01*
X176174291Y-90276728D01*
X176137864Y-90437061D01*
X176070699Y-90587915D01*
X175975516Y-90722847D01*
X175855940Y-90836717D01*
X175716514Y-90925199D01*
X175562571Y-90984910D01*
X175399949Y-91013585D01*
X175234860Y-91010126D01*
X175073587Y-90974669D01*
X174922273Y-90908561D01*
X174786681Y-90814322D01*
X174671975Y-90695540D01*
X174582525Y-90556741D01*
X174521736Y-90403208D01*
X174491929Y-90240797D01*
X174494234Y-90075691D01*
X174528566Y-89914172D01*
X174593617Y-89762396D01*
X174686906Y-89626153D01*
X174804884Y-89510619D01*
X174943057Y-89420201D01*
X175096154Y-89358346D01*
X175258357Y-89327404D01*
X175423484Y-89328557D01*
X175423484Y-89328557D01*
G37*
G36*
X162017432Y-88655583D02*
X162186486Y-88690284D01*
X162345576Y-88757159D01*
X162488652Y-88853665D01*
X162610254Y-88976119D01*
X162705757Y-89119862D01*
X162771522Y-89279420D01*
X162804905Y-89448022D01*
X162804905Y-89448039D01*
X162805038Y-89448712D01*
X162802285Y-89645827D01*
X162802134Y-89646490D01*
X162802134Y-89646514D01*
X162764055Y-89814119D01*
X162693863Y-89971771D01*
X162594381Y-90112797D01*
X162469408Y-90231807D01*
X162323692Y-90324282D01*
X162162798Y-90386688D01*
X161992838Y-90416657D01*
X161820300Y-90413042D01*
X161651747Y-90375983D01*
X161493604Y-90306892D01*
X161351893Y-90208401D01*
X161232007Y-90084255D01*
X161138523Y-89939198D01*
X161074992Y-89778735D01*
X161043839Y-89608993D01*
X161046248Y-89436435D01*
X161082129Y-89267627D01*
X161150116Y-89109001D01*
X161247617Y-88966606D01*
X161370918Y-88845860D01*
X161515323Y-88751364D01*
X161675334Y-88686715D01*
X161844856Y-88654377D01*
X162017432Y-88655583D01*
X162017432Y-88655583D01*
G37*
G36*
X175423484Y-86788557D02*
X175585231Y-86821759D01*
X175737455Y-86885748D01*
X175874353Y-86978087D01*
X175990704Y-87095253D01*
X176082081Y-87232788D01*
X176145007Y-87385457D01*
X176176943Y-87546748D01*
X176176943Y-87546765D01*
X176177076Y-87547438D01*
X176174442Y-87736041D01*
X176174291Y-87736704D01*
X176174291Y-87736728D01*
X176137864Y-87897061D01*
X176070699Y-88047915D01*
X175975516Y-88182847D01*
X175855940Y-88296717D01*
X175716514Y-88385199D01*
X175562571Y-88444910D01*
X175399949Y-88473585D01*
X175234860Y-88470126D01*
X175073587Y-88434669D01*
X174922273Y-88368561D01*
X174786681Y-88274322D01*
X174671975Y-88155540D01*
X174582525Y-88016741D01*
X174521736Y-87863208D01*
X174491929Y-87700797D01*
X174494234Y-87535691D01*
X174528566Y-87374172D01*
X174593617Y-87222396D01*
X174686906Y-87086153D01*
X174804884Y-86970619D01*
X174943057Y-86880201D01*
X175096154Y-86818346D01*
X175258357Y-86787404D01*
X175423484Y-86788557D01*
X175423484Y-86788557D01*
G37*
G36*
X162017432Y-86115583D02*
X162186486Y-86150284D01*
X162345576Y-86217159D01*
X162488652Y-86313665D01*
X162610254Y-86436119D01*
X162705757Y-86579862D01*
X162771522Y-86739420D01*
X162804905Y-86908022D01*
X162804905Y-86908039D01*
X162805038Y-86908712D01*
X162802285Y-87105827D01*
X162802134Y-87106490D01*
X162802134Y-87106514D01*
X162764055Y-87274119D01*
X162693863Y-87431771D01*
X162594381Y-87572797D01*
X162469408Y-87691807D01*
X162323692Y-87784282D01*
X162162798Y-87846688D01*
X161992838Y-87876657D01*
X161820300Y-87873042D01*
X161651747Y-87835983D01*
X161493604Y-87766892D01*
X161351893Y-87668401D01*
X161232007Y-87544255D01*
X161138523Y-87399198D01*
X161074992Y-87238735D01*
X161043839Y-87068993D01*
X161046248Y-86896435D01*
X161082129Y-86727627D01*
X161150116Y-86569001D01*
X161247617Y-86426606D01*
X161370918Y-86305860D01*
X161515323Y-86211364D01*
X161675334Y-86146715D01*
X161844856Y-86114377D01*
X162017432Y-86115583D01*
X162017432Y-86115583D01*
G37*
G36*
X97154352Y-85955861D02*
X97323406Y-85990562D01*
X97482496Y-86057437D01*
X97625572Y-86153943D01*
X97747174Y-86276397D01*
X97842677Y-86420140D01*
X97908442Y-86579698D01*
X97941825Y-86748300D01*
X97941825Y-86748317D01*
X97941958Y-86748990D01*
X97939205Y-86946105D01*
X97939054Y-86946768D01*
X97939054Y-86946792D01*
X97900975Y-87114397D01*
X97830783Y-87272049D01*
X97731301Y-87413075D01*
X97606328Y-87532085D01*
X97460612Y-87624560D01*
X97299718Y-87686966D01*
X97129758Y-87716935D01*
X96957220Y-87713320D01*
X96788667Y-87676261D01*
X96630524Y-87607170D01*
X96488813Y-87508679D01*
X96368927Y-87384533D01*
X96275443Y-87239476D01*
X96211912Y-87079013D01*
X96180759Y-86909271D01*
X96183168Y-86736713D01*
X96219049Y-86567905D01*
X96287036Y-86409279D01*
X96384537Y-86266884D01*
X96507838Y-86146138D01*
X96652243Y-86051642D01*
X96812254Y-85986993D01*
X96981776Y-85954655D01*
X97154352Y-85955861D01*
X97154352Y-85955861D01*
G37*
G36*
X104774352Y-85955861D02*
X104943406Y-85990562D01*
X105102496Y-86057437D01*
X105245572Y-86153943D01*
X105367174Y-86276397D01*
X105462677Y-86420140D01*
X105528442Y-86579698D01*
X105561825Y-86748300D01*
X105561825Y-86748317D01*
X105561958Y-86748990D01*
X105559205Y-86946105D01*
X105559054Y-86946768D01*
X105559054Y-86946792D01*
X105520975Y-87114397D01*
X105450783Y-87272049D01*
X105351301Y-87413075D01*
X105226328Y-87532085D01*
X105080612Y-87624560D01*
X104919718Y-87686966D01*
X104749758Y-87716935D01*
X104577220Y-87713320D01*
X104408667Y-87676261D01*
X104250524Y-87607170D01*
X104108813Y-87508679D01*
X103988927Y-87384533D01*
X103895443Y-87239476D01*
X103831912Y-87079013D01*
X103800759Y-86909271D01*
X103803168Y-86736713D01*
X103839049Y-86567905D01*
X103907036Y-86409279D01*
X104004537Y-86266884D01*
X104127838Y-86146138D01*
X104272243Y-86051642D01*
X104432254Y-85986993D01*
X104601776Y-85954655D01*
X104774352Y-85955861D01*
X104774352Y-85955861D01*
G37*
G36*
X129007934Y-85380649D02*
X129196202Y-85419295D01*
X129373364Y-85493766D01*
X129532702Y-85601241D01*
X129668126Y-85737613D01*
X129774478Y-85897687D01*
X129847718Y-86075380D01*
X129884910Y-86263214D01*
X129884910Y-86263238D01*
X129885042Y-86263906D01*
X129881977Y-86483421D01*
X129881826Y-86484084D01*
X129881826Y-86484108D01*
X129839403Y-86670832D01*
X129761230Y-86846413D01*
X129650450Y-87003452D01*
X129511270Y-87135991D01*
X129349000Y-87238970D01*
X129169820Y-87308470D01*
X128980547Y-87341845D01*
X128788402Y-87337819D01*
X128600696Y-87296549D01*
X128424582Y-87219607D01*
X128266767Y-87109923D01*
X128133261Y-86971674D01*
X128029150Y-86810125D01*
X127958401Y-86631432D01*
X127923707Y-86442400D01*
X127926390Y-86250234D01*
X127966349Y-86062243D01*
X128042061Y-85885592D01*
X128150642Y-85727016D01*
X128287951Y-85592552D01*
X128448775Y-85487312D01*
X128626961Y-85415321D01*
X128815750Y-85379306D01*
X129007934Y-85380649D01*
X129007934Y-85380649D01*
G37*
G36*
X132425000Y-87340000D02*
X130465000Y-87340000D01*
X130465000Y-85380000D01*
X132425000Y-85380000D01*
X132425000Y-87340000D01*
X132425000Y-87340000D01*
G37*
G36*
X119464028Y-85560529D02*
X119617717Y-85592076D01*
X119762340Y-85652870D01*
X119892412Y-85740604D01*
X120002959Y-85851926D01*
X120089778Y-85982601D01*
X120149566Y-86127655D01*
X120179902Y-86280866D01*
X120179902Y-86280888D01*
X120180034Y-86281556D01*
X120177532Y-86460752D01*
X120177381Y-86461415D01*
X120177381Y-86461439D01*
X120142778Y-86613745D01*
X120078966Y-86757069D01*
X119988531Y-86885267D01*
X119874915Y-86993462D01*
X119742449Y-87077528D01*
X119596180Y-87134262D01*
X119441671Y-87161507D01*
X119284817Y-87158220D01*
X119131589Y-87124532D01*
X118987822Y-87061721D01*
X118858994Y-86972183D01*
X118750009Y-86859326D01*
X118665021Y-86727450D01*
X118607264Y-86581575D01*
X118578944Y-86427266D01*
X118581134Y-86270395D01*
X118613754Y-86116930D01*
X118675559Y-85972731D01*
X118764197Y-85843278D01*
X118876287Y-85733511D01*
X119007566Y-85647603D01*
X119153033Y-85588832D01*
X119307142Y-85559433D01*
X119464028Y-85560529D01*
X119464028Y-85560529D01*
G37*
G36*
X116924028Y-85560529D02*
X117077717Y-85592076D01*
X117222340Y-85652870D01*
X117352412Y-85740604D01*
X117462959Y-85851926D01*
X117549778Y-85982601D01*
X117609566Y-86127655D01*
X117639902Y-86280866D01*
X117639902Y-86280888D01*
X117640034Y-86281556D01*
X117637532Y-86460752D01*
X117637381Y-86461415D01*
X117637381Y-86461439D01*
X117602778Y-86613745D01*
X117538966Y-86757069D01*
X117448531Y-86885267D01*
X117334915Y-86993462D01*
X117202449Y-87077528D01*
X117056180Y-87134262D01*
X116901671Y-87161507D01*
X116744817Y-87158220D01*
X116591589Y-87124532D01*
X116447822Y-87061721D01*
X116318994Y-86972183D01*
X116210009Y-86859326D01*
X116125021Y-86727450D01*
X116067264Y-86581575D01*
X116038944Y-86427266D01*
X116041134Y-86270395D01*
X116073754Y-86116930D01*
X116135559Y-85972731D01*
X116224197Y-85843278D01*
X116336287Y-85733511D01*
X116467566Y-85647603D01*
X116613033Y-85588832D01*
X116767142Y-85559433D01*
X116924028Y-85560529D01*
X116924028Y-85560529D01*
G37*
G36*
X114384028Y-85560529D02*
X114537717Y-85592076D01*
X114682340Y-85652870D01*
X114812412Y-85740604D01*
X114922959Y-85851926D01*
X115009778Y-85982601D01*
X115069566Y-86127655D01*
X115099902Y-86280866D01*
X115099902Y-86280888D01*
X115100034Y-86281556D01*
X115097532Y-86460752D01*
X115097381Y-86461415D01*
X115097381Y-86461439D01*
X115062778Y-86613745D01*
X114998966Y-86757069D01*
X114908531Y-86885267D01*
X114794915Y-86993462D01*
X114662449Y-87077528D01*
X114516180Y-87134262D01*
X114361671Y-87161507D01*
X114204817Y-87158220D01*
X114051589Y-87124532D01*
X113907822Y-87061721D01*
X113778994Y-86972183D01*
X113670009Y-86859326D01*
X113585021Y-86727450D01*
X113527264Y-86581575D01*
X113498944Y-86427266D01*
X113501134Y-86270395D01*
X113533754Y-86116930D01*
X113595559Y-85972731D01*
X113684197Y-85843278D01*
X113796287Y-85733511D01*
X113927566Y-85647603D01*
X114073033Y-85588832D01*
X114227142Y-85559433D01*
X114384028Y-85560529D01*
X114384028Y-85560529D01*
G37*
G36*
X175423484Y-84248557D02*
X175585231Y-84281759D01*
X175737455Y-84345748D01*
X175874353Y-84438087D01*
X175990704Y-84555253D01*
X176082081Y-84692788D01*
X176145007Y-84845457D01*
X176176943Y-85006748D01*
X176176943Y-85006765D01*
X176177076Y-85007438D01*
X176174442Y-85196041D01*
X176174291Y-85196704D01*
X176174291Y-85196728D01*
X176137864Y-85357061D01*
X176070699Y-85507915D01*
X175975516Y-85642847D01*
X175855940Y-85756717D01*
X175716514Y-85845199D01*
X175562571Y-85904910D01*
X175399949Y-85933585D01*
X175234860Y-85930126D01*
X175073587Y-85894669D01*
X174922273Y-85828561D01*
X174786681Y-85734322D01*
X174671975Y-85615540D01*
X174582525Y-85476741D01*
X174521736Y-85323208D01*
X174491929Y-85160797D01*
X174494234Y-84995691D01*
X174528566Y-84834172D01*
X174593617Y-84682396D01*
X174686906Y-84546153D01*
X174804884Y-84430619D01*
X174943057Y-84340201D01*
X175096154Y-84278346D01*
X175258357Y-84247404D01*
X175423484Y-84248557D01*
X175423484Y-84248557D01*
G37*
G36*
X163917528Y-83923103D02*
X163917534Y-83923104D01*
X163921585Y-83923132D01*
X164092260Y-83942276D01*
X164255967Y-83994207D01*
X164406469Y-84076946D01*
X164538034Y-84187342D01*
X164645651Y-84321190D01*
X164725220Y-84473392D01*
X164773711Y-84638150D01*
X164773717Y-84638214D01*
X164773725Y-84638242D01*
X164789281Y-84809185D01*
X164771339Y-84979896D01*
X164771332Y-84979918D01*
X164771324Y-84979995D01*
X164720538Y-85144060D01*
X164638851Y-85295136D01*
X164529376Y-85427468D01*
X164396283Y-85536017D01*
X164244640Y-85616647D01*
X164080224Y-85666287D01*
X163909298Y-85683046D01*
X163900715Y-85683046D01*
X163892552Y-85682989D01*
X163892546Y-85682988D01*
X163888495Y-85682960D01*
X163717820Y-85663816D01*
X163554113Y-85611885D01*
X163403611Y-85529146D01*
X163272046Y-85418750D01*
X163164429Y-85284902D01*
X163084860Y-85132700D01*
X163036369Y-84967942D01*
X163036363Y-84967878D01*
X163036355Y-84967850D01*
X163020799Y-84796907D01*
X163038741Y-84626196D01*
X163038748Y-84626174D01*
X163038756Y-84626097D01*
X163089542Y-84462032D01*
X163171229Y-84310956D01*
X163280704Y-84178624D01*
X163413797Y-84070075D01*
X163565440Y-83989445D01*
X163729856Y-83939805D01*
X163900782Y-83923046D01*
X163909365Y-83923046D01*
X163917528Y-83923103D01*
X163917528Y-83923103D01*
G37*
G36*
X172405040Y-85683046D02*
X170645040Y-85683046D01*
X170645040Y-83923046D01*
X172405040Y-83923046D01*
X172405040Y-85683046D01*
X172405040Y-85683046D01*
G37*
G36*
X104774352Y-83415861D02*
X104943406Y-83450562D01*
X105102496Y-83517437D01*
X105245572Y-83613943D01*
X105367174Y-83736397D01*
X105462677Y-83880140D01*
X105528442Y-84039698D01*
X105561825Y-84208300D01*
X105561825Y-84208317D01*
X105561958Y-84208990D01*
X105559205Y-84406105D01*
X105559054Y-84406768D01*
X105559054Y-84406792D01*
X105520975Y-84574397D01*
X105450783Y-84732049D01*
X105351301Y-84873075D01*
X105226328Y-84992085D01*
X105080612Y-85084560D01*
X104919718Y-85146966D01*
X104749758Y-85176935D01*
X104577220Y-85173320D01*
X104408667Y-85136261D01*
X104250524Y-85067170D01*
X104108813Y-84968679D01*
X103988927Y-84844533D01*
X103895443Y-84699476D01*
X103831912Y-84539013D01*
X103800759Y-84369271D01*
X103803168Y-84196713D01*
X103839049Y-84027905D01*
X103907036Y-83869279D01*
X104004537Y-83726884D01*
X104127838Y-83606138D01*
X104272243Y-83511642D01*
X104432254Y-83446993D01*
X104601776Y-83414655D01*
X104774352Y-83415861D01*
X104774352Y-83415861D01*
G37*
G36*
X97154352Y-83415861D02*
X97323406Y-83450562D01*
X97482496Y-83517437D01*
X97625572Y-83613943D01*
X97747174Y-83736397D01*
X97842677Y-83880140D01*
X97908442Y-84039698D01*
X97941825Y-84208300D01*
X97941825Y-84208317D01*
X97941958Y-84208990D01*
X97939205Y-84406105D01*
X97939054Y-84406768D01*
X97939054Y-84406792D01*
X97900975Y-84574397D01*
X97830783Y-84732049D01*
X97731301Y-84873075D01*
X97606328Y-84992085D01*
X97460612Y-85084560D01*
X97299718Y-85146966D01*
X97129758Y-85176935D01*
X96957220Y-85173320D01*
X96788667Y-85136261D01*
X96630524Y-85067170D01*
X96488813Y-84968679D01*
X96368927Y-84844533D01*
X96275443Y-84699476D01*
X96211912Y-84539013D01*
X96180759Y-84369271D01*
X96183168Y-84196713D01*
X96219049Y-84027905D01*
X96287036Y-83869279D01*
X96384537Y-83726884D01*
X96507838Y-83606138D01*
X96652243Y-83511642D01*
X96812254Y-83446993D01*
X96981776Y-83414655D01*
X97154352Y-83415861D01*
X97154352Y-83415861D01*
G37*
G36*
X175423484Y-81708557D02*
X175585231Y-81741759D01*
X175737455Y-81805748D01*
X175874353Y-81898087D01*
X175990704Y-82015253D01*
X176082081Y-82152788D01*
X176145007Y-82305457D01*
X176176943Y-82466748D01*
X176176943Y-82466765D01*
X176177076Y-82467438D01*
X176174442Y-82656041D01*
X176174291Y-82656704D01*
X176174291Y-82656728D01*
X176137864Y-82817061D01*
X176070699Y-82967915D01*
X175975516Y-83102847D01*
X175855940Y-83216717D01*
X175716514Y-83305199D01*
X175562571Y-83364910D01*
X175399949Y-83393585D01*
X175234860Y-83390126D01*
X175073587Y-83354669D01*
X174922273Y-83288561D01*
X174786681Y-83194322D01*
X174671975Y-83075540D01*
X174582525Y-82936741D01*
X174521736Y-82783208D01*
X174491929Y-82620797D01*
X174494234Y-82455691D01*
X174528566Y-82294172D01*
X174593617Y-82142396D01*
X174686906Y-82006153D01*
X174804884Y-81890619D01*
X174943057Y-81800201D01*
X175096154Y-81738346D01*
X175258357Y-81707404D01*
X175423484Y-81708557D01*
X175423484Y-81708557D01*
G37*
G36*
X163917528Y-81383103D02*
X163917534Y-81383104D01*
X163921585Y-81383132D01*
X164092260Y-81402276D01*
X164255967Y-81454207D01*
X164406469Y-81536946D01*
X164538034Y-81647342D01*
X164645651Y-81781190D01*
X164725220Y-81933392D01*
X164773711Y-82098150D01*
X164773717Y-82098214D01*
X164773725Y-82098242D01*
X164789281Y-82269185D01*
X164771339Y-82439896D01*
X164771332Y-82439918D01*
X164771324Y-82439995D01*
X164720538Y-82604060D01*
X164638851Y-82755136D01*
X164529376Y-82887468D01*
X164396283Y-82996017D01*
X164244640Y-83076647D01*
X164080224Y-83126287D01*
X163909298Y-83143046D01*
X163900715Y-83143046D01*
X163892552Y-83142989D01*
X163892546Y-83142988D01*
X163888495Y-83142960D01*
X163717820Y-83123816D01*
X163554113Y-83071885D01*
X163403611Y-82989146D01*
X163272046Y-82878750D01*
X163164429Y-82744902D01*
X163084860Y-82592700D01*
X163036369Y-82427942D01*
X163036363Y-82427878D01*
X163036355Y-82427850D01*
X163020799Y-82256907D01*
X163038741Y-82086196D01*
X163038748Y-82086174D01*
X163038756Y-82086097D01*
X163089542Y-81922032D01*
X163171229Y-81770956D01*
X163280704Y-81638624D01*
X163413797Y-81530075D01*
X163565440Y-81449445D01*
X163729856Y-81399805D01*
X163900782Y-81383046D01*
X163909365Y-81383046D01*
X163917528Y-81383103D01*
X163917528Y-81383103D01*
G37*
G36*
X171537528Y-81383103D02*
X171537534Y-81383104D01*
X171541585Y-81383132D01*
X171712260Y-81402276D01*
X171875967Y-81454207D01*
X172026469Y-81536946D01*
X172158034Y-81647342D01*
X172265651Y-81781190D01*
X172345220Y-81933392D01*
X172393711Y-82098150D01*
X172393717Y-82098214D01*
X172393725Y-82098242D01*
X172409281Y-82269185D01*
X172391339Y-82439896D01*
X172391332Y-82439918D01*
X172391324Y-82439995D01*
X172340538Y-82604060D01*
X172258851Y-82755136D01*
X172149376Y-82887468D01*
X172016283Y-82996017D01*
X171864640Y-83076647D01*
X171700224Y-83126287D01*
X171529298Y-83143046D01*
X171520715Y-83143046D01*
X171512552Y-83142989D01*
X171512546Y-83142988D01*
X171508495Y-83142960D01*
X171337820Y-83123816D01*
X171174113Y-83071885D01*
X171023611Y-82989146D01*
X170892046Y-82878750D01*
X170784429Y-82744902D01*
X170704860Y-82592700D01*
X170656369Y-82427942D01*
X170656363Y-82427878D01*
X170656355Y-82427850D01*
X170640799Y-82256907D01*
X170658741Y-82086196D01*
X170658748Y-82086174D01*
X170658756Y-82086097D01*
X170709542Y-81922032D01*
X170791229Y-81770956D01*
X170900704Y-81638624D01*
X171033797Y-81530075D01*
X171185440Y-81449445D01*
X171349856Y-81399805D01*
X171520782Y-81383046D01*
X171529365Y-81383046D01*
X171537528Y-81383103D01*
X171537528Y-81383103D01*
G37*
G36*
X128997432Y-81035583D02*
X129166486Y-81070284D01*
X129325576Y-81137159D01*
X129468652Y-81233665D01*
X129590254Y-81356119D01*
X129685757Y-81499862D01*
X129751522Y-81659420D01*
X129784905Y-81828022D01*
X129784905Y-81828039D01*
X129785038Y-81828712D01*
X129782285Y-82025827D01*
X129782134Y-82026490D01*
X129782134Y-82026514D01*
X129744055Y-82194119D01*
X129673863Y-82351771D01*
X129574381Y-82492797D01*
X129449408Y-82611807D01*
X129303692Y-82704282D01*
X129142798Y-82766688D01*
X128972838Y-82796657D01*
X128800300Y-82793042D01*
X128631747Y-82755983D01*
X128473604Y-82686892D01*
X128331893Y-82588401D01*
X128212007Y-82464255D01*
X128118523Y-82319198D01*
X128054992Y-82158735D01*
X128023839Y-81988993D01*
X128026248Y-81816435D01*
X128062129Y-81647627D01*
X128130116Y-81489001D01*
X128227617Y-81346606D01*
X128350918Y-81225860D01*
X128495323Y-81131364D01*
X128655334Y-81066715D01*
X128824856Y-81034377D01*
X128997432Y-81035583D01*
X128997432Y-81035583D01*
G37*
G36*
X136617432Y-81035583D02*
X136786486Y-81070284D01*
X136945576Y-81137159D01*
X137088652Y-81233665D01*
X137210254Y-81356119D01*
X137305757Y-81499862D01*
X137371522Y-81659420D01*
X137404905Y-81828022D01*
X137404905Y-81828039D01*
X137405038Y-81828712D01*
X137402285Y-82025827D01*
X137402134Y-82026490D01*
X137402134Y-82026514D01*
X137364055Y-82194119D01*
X137293863Y-82351771D01*
X137194381Y-82492797D01*
X137069408Y-82611807D01*
X136923692Y-82704282D01*
X136762798Y-82766688D01*
X136592838Y-82796657D01*
X136420300Y-82793042D01*
X136251747Y-82755983D01*
X136093604Y-82686892D01*
X135951893Y-82588401D01*
X135832007Y-82464255D01*
X135738523Y-82319198D01*
X135674992Y-82158735D01*
X135643839Y-81988993D01*
X135646248Y-81816435D01*
X135682129Y-81647627D01*
X135750116Y-81489001D01*
X135847617Y-81346606D01*
X135970918Y-81225860D01*
X136115323Y-81131364D01*
X136275334Y-81066715D01*
X136444856Y-81034377D01*
X136617432Y-81035583D01*
X136617432Y-81035583D01*
G37*
G36*
X97247432Y-80400583D02*
X97416486Y-80435284D01*
X97575576Y-80502159D01*
X97718652Y-80598665D01*
X97840254Y-80721119D01*
X97935757Y-80864862D01*
X98001522Y-81024420D01*
X98034905Y-81193022D01*
X98034905Y-81193039D01*
X98035038Y-81193712D01*
X98032285Y-81390827D01*
X98032134Y-81391490D01*
X98032134Y-81391514D01*
X97994055Y-81559119D01*
X97923863Y-81716771D01*
X97824381Y-81857797D01*
X97699408Y-81976807D01*
X97553692Y-82069282D01*
X97392798Y-82131688D01*
X97222838Y-82161657D01*
X97050300Y-82158042D01*
X96881747Y-82120983D01*
X96723604Y-82051892D01*
X96581893Y-81953401D01*
X96462007Y-81829255D01*
X96368523Y-81684198D01*
X96304992Y-81523735D01*
X96273839Y-81353993D01*
X96276248Y-81181435D01*
X96312129Y-81012627D01*
X96380116Y-80854001D01*
X96477617Y-80711606D01*
X96600918Y-80590860D01*
X96745323Y-80496364D01*
X96905334Y-80431715D01*
X97074856Y-80399377D01*
X97247432Y-80400583D01*
X97247432Y-80400583D01*
G37*
G36*
X104867432Y-80400583D02*
X105036486Y-80435284D01*
X105195576Y-80502159D01*
X105338652Y-80598665D01*
X105460254Y-80721119D01*
X105555757Y-80864862D01*
X105621522Y-81024420D01*
X105654905Y-81193022D01*
X105654905Y-81193039D01*
X105655038Y-81193712D01*
X105652285Y-81390827D01*
X105652134Y-81391490D01*
X105652134Y-81391514D01*
X105614055Y-81559119D01*
X105543863Y-81716771D01*
X105444381Y-81857797D01*
X105319408Y-81976807D01*
X105173692Y-82069282D01*
X105012798Y-82131688D01*
X104842838Y-82161657D01*
X104670300Y-82158042D01*
X104501747Y-82120983D01*
X104343604Y-82051892D01*
X104201893Y-81953401D01*
X104082007Y-81829255D01*
X103988523Y-81684198D01*
X103924992Y-81523735D01*
X103893839Y-81353993D01*
X103896248Y-81181435D01*
X103932129Y-81012627D01*
X104000116Y-80854001D01*
X104097617Y-80711606D01*
X104220918Y-80590860D01*
X104365323Y-80496364D01*
X104525334Y-80431715D01*
X104694856Y-80399377D01*
X104867432Y-80400583D01*
X104867432Y-80400583D01*
G37*
G36*
X175423484Y-79168557D02*
X175585231Y-79201759D01*
X175737455Y-79265748D01*
X175874353Y-79358087D01*
X175990704Y-79475253D01*
X176082081Y-79612788D01*
X176145007Y-79765457D01*
X176176943Y-79926748D01*
X176176943Y-79926765D01*
X176177076Y-79927438D01*
X176174442Y-80116041D01*
X176174291Y-80116704D01*
X176174291Y-80116728D01*
X176137864Y-80277061D01*
X176070699Y-80427915D01*
X175975516Y-80562847D01*
X175855940Y-80676717D01*
X175716514Y-80765199D01*
X175562571Y-80824910D01*
X175399949Y-80853585D01*
X175234860Y-80850126D01*
X175073587Y-80814669D01*
X174922273Y-80748561D01*
X174786681Y-80654322D01*
X174671975Y-80535540D01*
X174582525Y-80396741D01*
X174521736Y-80243208D01*
X174491929Y-80080797D01*
X174494234Y-79915691D01*
X174528566Y-79754172D01*
X174593617Y-79602396D01*
X174686906Y-79466153D01*
X174804884Y-79350619D01*
X174943057Y-79260201D01*
X175096154Y-79198346D01*
X175258357Y-79167404D01*
X175423484Y-79168557D01*
X175423484Y-79168557D01*
G37*
G36*
X153837472Y-78843629D02*
X154006526Y-78878330D01*
X154165616Y-78945205D01*
X154308692Y-79041711D01*
X154430294Y-79164165D01*
X154525797Y-79307908D01*
X154591562Y-79467466D01*
X154624945Y-79636068D01*
X154624945Y-79636085D01*
X154625078Y-79636758D01*
X154622325Y-79833873D01*
X154622174Y-79834536D01*
X154622174Y-79834560D01*
X154584095Y-80002165D01*
X154513903Y-80159817D01*
X154414421Y-80300843D01*
X154289448Y-80419853D01*
X154143732Y-80512328D01*
X153982838Y-80574734D01*
X153812878Y-80604703D01*
X153640340Y-80601088D01*
X153471787Y-80564029D01*
X153313644Y-80494938D01*
X153171933Y-80396447D01*
X153052047Y-80272301D01*
X152958563Y-80127244D01*
X152895032Y-79966781D01*
X152863879Y-79797039D01*
X152866288Y-79624481D01*
X152902169Y-79455673D01*
X152970156Y-79297047D01*
X153067657Y-79154652D01*
X153190958Y-79033906D01*
X153335363Y-78939410D01*
X153495374Y-78874761D01*
X153664896Y-78842423D01*
X153837472Y-78843629D01*
X153837472Y-78843629D01*
G37*
G36*
X161457472Y-78843629D02*
X161626526Y-78878330D01*
X161785616Y-78945205D01*
X161928692Y-79041711D01*
X162050294Y-79164165D01*
X162145797Y-79307908D01*
X162211562Y-79467466D01*
X162244945Y-79636068D01*
X162244945Y-79636085D01*
X162245078Y-79636758D01*
X162242325Y-79833873D01*
X162242174Y-79834536D01*
X162242174Y-79834560D01*
X162204095Y-80002165D01*
X162133903Y-80159817D01*
X162034421Y-80300843D01*
X161909448Y-80419853D01*
X161763732Y-80512328D01*
X161602838Y-80574734D01*
X161432878Y-80604703D01*
X161260340Y-80601088D01*
X161091787Y-80564029D01*
X160933644Y-80494938D01*
X160791933Y-80396447D01*
X160672047Y-80272301D01*
X160578563Y-80127244D01*
X160515032Y-79966781D01*
X160483879Y-79797039D01*
X160486288Y-79624481D01*
X160522169Y-79455673D01*
X160590156Y-79297047D01*
X160687657Y-79154652D01*
X160810958Y-79033906D01*
X160955363Y-78939410D01*
X161115374Y-78874761D01*
X161284896Y-78842423D01*
X161457472Y-78843629D01*
X161457472Y-78843629D01*
G37*
G36*
X171537528Y-78843103D02*
X171537534Y-78843104D01*
X171541585Y-78843132D01*
X171712260Y-78862276D01*
X171875967Y-78914207D01*
X172026469Y-78996946D01*
X172158034Y-79107342D01*
X172265651Y-79241190D01*
X172345220Y-79393392D01*
X172393711Y-79558150D01*
X172393717Y-79558214D01*
X172393725Y-79558242D01*
X172409281Y-79729185D01*
X172391339Y-79899896D01*
X172391332Y-79899918D01*
X172391324Y-79899995D01*
X172340538Y-80064060D01*
X172258851Y-80215136D01*
X172149376Y-80347468D01*
X172016283Y-80456017D01*
X171864640Y-80536647D01*
X171700224Y-80586287D01*
X171529298Y-80603046D01*
X171520715Y-80603046D01*
X171512552Y-80602989D01*
X171512546Y-80602988D01*
X171508495Y-80602960D01*
X171337820Y-80583816D01*
X171174113Y-80531885D01*
X171023611Y-80449146D01*
X170892046Y-80338750D01*
X170784429Y-80204902D01*
X170704860Y-80052700D01*
X170656369Y-79887942D01*
X170656363Y-79887878D01*
X170656355Y-79887850D01*
X170640799Y-79716907D01*
X170658741Y-79546196D01*
X170658748Y-79546174D01*
X170658756Y-79546097D01*
X170709542Y-79382032D01*
X170791229Y-79230956D01*
X170900704Y-79098624D01*
X171033797Y-78990075D01*
X171185440Y-78909445D01*
X171349856Y-78859805D01*
X171520782Y-78843046D01*
X171529365Y-78843046D01*
X171537528Y-78843103D01*
X171537528Y-78843103D01*
G37*
G36*
X163917528Y-78843103D02*
X163917534Y-78843104D01*
X163921585Y-78843132D01*
X164092260Y-78862276D01*
X164255967Y-78914207D01*
X164406469Y-78996946D01*
X164538034Y-79107342D01*
X164645651Y-79241190D01*
X164725220Y-79393392D01*
X164773711Y-79558150D01*
X164773717Y-79558214D01*
X164773725Y-79558242D01*
X164789281Y-79729185D01*
X164771339Y-79899896D01*
X164771332Y-79899918D01*
X164771324Y-79899995D01*
X164720538Y-80064060D01*
X164638851Y-80215136D01*
X164529376Y-80347468D01*
X164396283Y-80456017D01*
X164244640Y-80536647D01*
X164080224Y-80586287D01*
X163909298Y-80603046D01*
X163900715Y-80603046D01*
X163892552Y-80602989D01*
X163892546Y-80602988D01*
X163888495Y-80602960D01*
X163717820Y-80583816D01*
X163554113Y-80531885D01*
X163403611Y-80449146D01*
X163272046Y-80338750D01*
X163164429Y-80204902D01*
X163084860Y-80052700D01*
X163036369Y-79887942D01*
X163036363Y-79887878D01*
X163036355Y-79887850D01*
X163020799Y-79716907D01*
X163038741Y-79546196D01*
X163038748Y-79546174D01*
X163038756Y-79546097D01*
X163089542Y-79382032D01*
X163171229Y-79230956D01*
X163280704Y-79098624D01*
X163413797Y-78990075D01*
X163565440Y-78909445D01*
X163729856Y-78859805D01*
X163900782Y-78843046D01*
X163909365Y-78843046D01*
X163917528Y-78843103D01*
X163917528Y-78843103D01*
G37*
G36*
X104867432Y-77860583D02*
X105036486Y-77895284D01*
X105195576Y-77962159D01*
X105338652Y-78058665D01*
X105460254Y-78181119D01*
X105555757Y-78324862D01*
X105621522Y-78484420D01*
X105654905Y-78653022D01*
X105654905Y-78653039D01*
X105655038Y-78653712D01*
X105652285Y-78850827D01*
X105652134Y-78851490D01*
X105652134Y-78851514D01*
X105614055Y-79019119D01*
X105543863Y-79176771D01*
X105444381Y-79317797D01*
X105319408Y-79436807D01*
X105173692Y-79529282D01*
X105012798Y-79591688D01*
X104842838Y-79621657D01*
X104670300Y-79618042D01*
X104501747Y-79580983D01*
X104343604Y-79511892D01*
X104201893Y-79413401D01*
X104082007Y-79289255D01*
X103988523Y-79144198D01*
X103924992Y-78983735D01*
X103893839Y-78813993D01*
X103896248Y-78641435D01*
X103932129Y-78472627D01*
X104000116Y-78314001D01*
X104097617Y-78171606D01*
X104220918Y-78050860D01*
X104365323Y-77956364D01*
X104525334Y-77891715D01*
X104694856Y-77859377D01*
X104867432Y-77860583D01*
X104867432Y-77860583D01*
G37*
G36*
X97247432Y-77860583D02*
X97416486Y-77895284D01*
X97575576Y-77962159D01*
X97718652Y-78058665D01*
X97840254Y-78181119D01*
X97935757Y-78324862D01*
X98001522Y-78484420D01*
X98034905Y-78653022D01*
X98034905Y-78653039D01*
X98035038Y-78653712D01*
X98032285Y-78850827D01*
X98032134Y-78851490D01*
X98032134Y-78851514D01*
X97994055Y-79019119D01*
X97923863Y-79176771D01*
X97824381Y-79317797D01*
X97699408Y-79436807D01*
X97553692Y-79529282D01*
X97392798Y-79591688D01*
X97222838Y-79621657D01*
X97050300Y-79618042D01*
X96881747Y-79580983D01*
X96723604Y-79511892D01*
X96581893Y-79413401D01*
X96462007Y-79289255D01*
X96368523Y-79144198D01*
X96304992Y-78983735D01*
X96273839Y-78813993D01*
X96276248Y-78641435D01*
X96312129Y-78472627D01*
X96380116Y-78314001D01*
X96477617Y-78171606D01*
X96600918Y-78050860D01*
X96745323Y-77956364D01*
X96905334Y-77891715D01*
X97074856Y-77859377D01*
X97247432Y-77860583D01*
X97247432Y-77860583D01*
G37*
G36*
X175423484Y-76628557D02*
X175585231Y-76661759D01*
X175737455Y-76725748D01*
X175874353Y-76818087D01*
X175990704Y-76935253D01*
X176082081Y-77072788D01*
X176145007Y-77225457D01*
X176176943Y-77386748D01*
X176176943Y-77386765D01*
X176177076Y-77387438D01*
X176174442Y-77576041D01*
X176174291Y-77576704D01*
X176174291Y-77576728D01*
X176137864Y-77737061D01*
X176070699Y-77887915D01*
X175975516Y-78022847D01*
X175855940Y-78136717D01*
X175716514Y-78225199D01*
X175562571Y-78284910D01*
X175399949Y-78313585D01*
X175234860Y-78310126D01*
X175073587Y-78274669D01*
X174922273Y-78208561D01*
X174786681Y-78114322D01*
X174671975Y-77995540D01*
X174582525Y-77856741D01*
X174521736Y-77703208D01*
X174491929Y-77540797D01*
X174494234Y-77375691D01*
X174528566Y-77214172D01*
X174593617Y-77062396D01*
X174686906Y-76926153D01*
X174804884Y-76810619D01*
X174943057Y-76720201D01*
X175096154Y-76658346D01*
X175258357Y-76627404D01*
X175423484Y-76628557D01*
X175423484Y-76628557D01*
G37*
G36*
X153837472Y-76303629D02*
X154006526Y-76338330D01*
X154165616Y-76405205D01*
X154308692Y-76501711D01*
X154430294Y-76624165D01*
X154525797Y-76767908D01*
X154591562Y-76927466D01*
X154624945Y-77096068D01*
X154624945Y-77096085D01*
X154625078Y-77096758D01*
X154622325Y-77293873D01*
X154622174Y-77294536D01*
X154622174Y-77294560D01*
X154584095Y-77462165D01*
X154513903Y-77619817D01*
X154414421Y-77760843D01*
X154289448Y-77879853D01*
X154143732Y-77972328D01*
X153982838Y-78034734D01*
X153812878Y-78064703D01*
X153640340Y-78061088D01*
X153471787Y-78024029D01*
X153313644Y-77954938D01*
X153171933Y-77856447D01*
X153052047Y-77732301D01*
X152958563Y-77587244D01*
X152895032Y-77426781D01*
X152863879Y-77257039D01*
X152866288Y-77084481D01*
X152902169Y-76915673D01*
X152970156Y-76757047D01*
X153067657Y-76614652D01*
X153190958Y-76493906D01*
X153335363Y-76399410D01*
X153495374Y-76334761D01*
X153664896Y-76302423D01*
X153837472Y-76303629D01*
X153837472Y-76303629D01*
G37*
G36*
X161457472Y-76303629D02*
X161626526Y-76338330D01*
X161785616Y-76405205D01*
X161928692Y-76501711D01*
X162050294Y-76624165D01*
X162145797Y-76767908D01*
X162211562Y-76927466D01*
X162244945Y-77096068D01*
X162244945Y-77096085D01*
X162245078Y-77096758D01*
X162242325Y-77293873D01*
X162242174Y-77294536D01*
X162242174Y-77294560D01*
X162204095Y-77462165D01*
X162133903Y-77619817D01*
X162034421Y-77760843D01*
X161909448Y-77879853D01*
X161763732Y-77972328D01*
X161602838Y-78034734D01*
X161432878Y-78064703D01*
X161260340Y-78061088D01*
X161091787Y-78024029D01*
X160933644Y-77954938D01*
X160791933Y-77856447D01*
X160672047Y-77732301D01*
X160578563Y-77587244D01*
X160515032Y-77426781D01*
X160483879Y-77257039D01*
X160486288Y-77084481D01*
X160522169Y-76915673D01*
X160590156Y-76757047D01*
X160687657Y-76614652D01*
X160810958Y-76493906D01*
X160955363Y-76399410D01*
X161115374Y-76334761D01*
X161284896Y-76302423D01*
X161457472Y-76303629D01*
X161457472Y-76303629D01*
G37*
G36*
X163917528Y-76303103D02*
X163917534Y-76303104D01*
X163921585Y-76303132D01*
X164092260Y-76322276D01*
X164255967Y-76374207D01*
X164406469Y-76456946D01*
X164538034Y-76567342D01*
X164645651Y-76701190D01*
X164725220Y-76853392D01*
X164773711Y-77018150D01*
X164773717Y-77018214D01*
X164773725Y-77018242D01*
X164789281Y-77189185D01*
X164771339Y-77359896D01*
X164771332Y-77359918D01*
X164771324Y-77359995D01*
X164720538Y-77524060D01*
X164638851Y-77675136D01*
X164529376Y-77807468D01*
X164396283Y-77916017D01*
X164244640Y-77996647D01*
X164080224Y-78046287D01*
X163909298Y-78063046D01*
X163900715Y-78063046D01*
X163892552Y-78062989D01*
X163892546Y-78062988D01*
X163888495Y-78062960D01*
X163717820Y-78043816D01*
X163554113Y-77991885D01*
X163403611Y-77909146D01*
X163272046Y-77798750D01*
X163164429Y-77664902D01*
X163084860Y-77512700D01*
X163036369Y-77347942D01*
X163036363Y-77347878D01*
X163036355Y-77347850D01*
X163020799Y-77176907D01*
X163038741Y-77006196D01*
X163038748Y-77006174D01*
X163038756Y-77006097D01*
X163089542Y-76842032D01*
X163171229Y-76690956D01*
X163280704Y-76558624D01*
X163413797Y-76450075D01*
X163565440Y-76369445D01*
X163729856Y-76319805D01*
X163900782Y-76303046D01*
X163909365Y-76303046D01*
X163917528Y-76303103D01*
X163917528Y-76303103D01*
G37*
G36*
X171537528Y-76303103D02*
X171537534Y-76303104D01*
X171541585Y-76303132D01*
X171712260Y-76322276D01*
X171875967Y-76374207D01*
X172026469Y-76456946D01*
X172158034Y-76567342D01*
X172265651Y-76701190D01*
X172345220Y-76853392D01*
X172393711Y-77018150D01*
X172393717Y-77018214D01*
X172393725Y-77018242D01*
X172409281Y-77189185D01*
X172391339Y-77359896D01*
X172391332Y-77359918D01*
X172391324Y-77359995D01*
X172340538Y-77524060D01*
X172258851Y-77675136D01*
X172149376Y-77807468D01*
X172016283Y-77916017D01*
X171864640Y-77996647D01*
X171700224Y-78046287D01*
X171529298Y-78063046D01*
X171520715Y-78063046D01*
X171512552Y-78062989D01*
X171512546Y-78062988D01*
X171508495Y-78062960D01*
X171337820Y-78043816D01*
X171174113Y-77991885D01*
X171023611Y-77909146D01*
X170892046Y-77798750D01*
X170784429Y-77664902D01*
X170704860Y-77512700D01*
X170656369Y-77347942D01*
X170656363Y-77347878D01*
X170656355Y-77347850D01*
X170640799Y-77176907D01*
X170658741Y-77006196D01*
X170658748Y-77006174D01*
X170658756Y-77006097D01*
X170709542Y-76842032D01*
X170791229Y-76690956D01*
X170900704Y-76558624D01*
X171033797Y-76450075D01*
X171185440Y-76369445D01*
X171349856Y-76319805D01*
X171520782Y-76303046D01*
X171529365Y-76303046D01*
X171537528Y-76303103D01*
X171537528Y-76303103D01*
G37*
G36*
X175423484Y-74088557D02*
X175585231Y-74121759D01*
X175737455Y-74185748D01*
X175874353Y-74278087D01*
X175990704Y-74395253D01*
X176082081Y-74532788D01*
X176145007Y-74685457D01*
X176176943Y-74846748D01*
X176176943Y-74846765D01*
X176177076Y-74847438D01*
X176174442Y-75036041D01*
X176174291Y-75036704D01*
X176174291Y-75036728D01*
X176137864Y-75197061D01*
X176070699Y-75347915D01*
X175975516Y-75482847D01*
X175855940Y-75596717D01*
X175716514Y-75685199D01*
X175562571Y-75744910D01*
X175399949Y-75773585D01*
X175234860Y-75770126D01*
X175073587Y-75734669D01*
X174922273Y-75668561D01*
X174786681Y-75574322D01*
X174671975Y-75455540D01*
X174582525Y-75316741D01*
X174521736Y-75163208D01*
X174491929Y-75000797D01*
X174494234Y-74835691D01*
X174528566Y-74674172D01*
X174593617Y-74522396D01*
X174686906Y-74386153D01*
X174804884Y-74270619D01*
X174943057Y-74180201D01*
X175096154Y-74118346D01*
X175258357Y-74087404D01*
X175423484Y-74088557D01*
X175423484Y-74088557D01*
G37*
G36*
X131739352Y-73960861D02*
X131908406Y-73995562D01*
X132067496Y-74062437D01*
X132210572Y-74158943D01*
X132332174Y-74281397D01*
X132427677Y-74425140D01*
X132493442Y-74584698D01*
X132526825Y-74753300D01*
X132526825Y-74753317D01*
X132526958Y-74753990D01*
X132524205Y-74951105D01*
X132524054Y-74951768D01*
X132524054Y-74951792D01*
X132485975Y-75119397D01*
X132415783Y-75277049D01*
X132316301Y-75418075D01*
X132191328Y-75537085D01*
X132045612Y-75629560D01*
X131884718Y-75691966D01*
X131714758Y-75721935D01*
X131542220Y-75718320D01*
X131373667Y-75681261D01*
X131215524Y-75612170D01*
X131073813Y-75513679D01*
X130953927Y-75389533D01*
X130860443Y-75244476D01*
X130796912Y-75084013D01*
X130765759Y-74914271D01*
X130768168Y-74741713D01*
X130804049Y-74572905D01*
X130872036Y-74414279D01*
X130969537Y-74271884D01*
X131092838Y-74151138D01*
X131237243Y-74056642D01*
X131397254Y-73991993D01*
X131566776Y-73959655D01*
X131739352Y-73960861D01*
X131739352Y-73960861D01*
G37*
G36*
X136819352Y-73960861D02*
X136988406Y-73995562D01*
X137147496Y-74062437D01*
X137290572Y-74158943D01*
X137412174Y-74281397D01*
X137507677Y-74425140D01*
X137573442Y-74584698D01*
X137606825Y-74753300D01*
X137606825Y-74753317D01*
X137606958Y-74753990D01*
X137604205Y-74951105D01*
X137604054Y-74951768D01*
X137604054Y-74951792D01*
X137565975Y-75119397D01*
X137495783Y-75277049D01*
X137396301Y-75418075D01*
X137271328Y-75537085D01*
X137125612Y-75629560D01*
X136964718Y-75691966D01*
X136794758Y-75721935D01*
X136622220Y-75718320D01*
X136453667Y-75681261D01*
X136295524Y-75612170D01*
X136153813Y-75513679D01*
X136033927Y-75389533D01*
X135940443Y-75244476D01*
X135876912Y-75084013D01*
X135845759Y-74914271D01*
X135848168Y-74741713D01*
X135884049Y-74572905D01*
X135952036Y-74414279D01*
X136049537Y-74271884D01*
X136172838Y-74151138D01*
X136317243Y-74056642D01*
X136477254Y-73991993D01*
X136646776Y-73959655D01*
X136819352Y-73960861D01*
X136819352Y-73960861D01*
G37*
G36*
X153837472Y-73763629D02*
X154006526Y-73798330D01*
X154165616Y-73865205D01*
X154308692Y-73961711D01*
X154430294Y-74084165D01*
X154525797Y-74227908D01*
X154591562Y-74387466D01*
X154624945Y-74556068D01*
X154624945Y-74556085D01*
X154625078Y-74556758D01*
X154622325Y-74753873D01*
X154622174Y-74754536D01*
X154622174Y-74754560D01*
X154584095Y-74922165D01*
X154513903Y-75079817D01*
X154414421Y-75220843D01*
X154289448Y-75339853D01*
X154143732Y-75432328D01*
X153982838Y-75494734D01*
X153812878Y-75524703D01*
X153640340Y-75521088D01*
X153471787Y-75484029D01*
X153313644Y-75414938D01*
X153171933Y-75316447D01*
X153052047Y-75192301D01*
X152958563Y-75047244D01*
X152895032Y-74886781D01*
X152863879Y-74717039D01*
X152866288Y-74544481D01*
X152902169Y-74375673D01*
X152970156Y-74217047D01*
X153067657Y-74074652D01*
X153190958Y-73953906D01*
X153335363Y-73859410D01*
X153495374Y-73794761D01*
X153664896Y-73762423D01*
X153837472Y-73763629D01*
X153837472Y-73763629D01*
G37*
G36*
X161457472Y-73763629D02*
X161626526Y-73798330D01*
X161785616Y-73865205D01*
X161928692Y-73961711D01*
X162050294Y-74084165D01*
X162145797Y-74227908D01*
X162211562Y-74387466D01*
X162244945Y-74556068D01*
X162244945Y-74556085D01*
X162245078Y-74556758D01*
X162242325Y-74753873D01*
X162242174Y-74754536D01*
X162242174Y-74754560D01*
X162204095Y-74922165D01*
X162133903Y-75079817D01*
X162034421Y-75220843D01*
X161909448Y-75339853D01*
X161763732Y-75432328D01*
X161602838Y-75494734D01*
X161432878Y-75524703D01*
X161260340Y-75521088D01*
X161091787Y-75484029D01*
X160933644Y-75414938D01*
X160791933Y-75316447D01*
X160672047Y-75192301D01*
X160578563Y-75047244D01*
X160515032Y-74886781D01*
X160483879Y-74717039D01*
X160486288Y-74544481D01*
X160522169Y-74375673D01*
X160590156Y-74217047D01*
X160687657Y-74074652D01*
X160810958Y-73953906D01*
X160955363Y-73859410D01*
X161115374Y-73794761D01*
X161284896Y-73762423D01*
X161457472Y-73763629D01*
X161457472Y-73763629D01*
G37*
G36*
X171537528Y-73763103D02*
X171537534Y-73763104D01*
X171541585Y-73763132D01*
X171712260Y-73782276D01*
X171875967Y-73834207D01*
X172026469Y-73916946D01*
X172158034Y-74027342D01*
X172265651Y-74161190D01*
X172345220Y-74313392D01*
X172393711Y-74478150D01*
X172393717Y-74478214D01*
X172393725Y-74478242D01*
X172409281Y-74649185D01*
X172391339Y-74819896D01*
X172391332Y-74819918D01*
X172391324Y-74819995D01*
X172340538Y-74984060D01*
X172258851Y-75135136D01*
X172149376Y-75267468D01*
X172016283Y-75376017D01*
X171864640Y-75456647D01*
X171700224Y-75506287D01*
X171529298Y-75523046D01*
X171520715Y-75523046D01*
X171512552Y-75522989D01*
X171512546Y-75522988D01*
X171508495Y-75522960D01*
X171337820Y-75503816D01*
X171174113Y-75451885D01*
X171023611Y-75369146D01*
X170892046Y-75258750D01*
X170784429Y-75124902D01*
X170704860Y-74972700D01*
X170656369Y-74807942D01*
X170656363Y-74807878D01*
X170656355Y-74807850D01*
X170640799Y-74636907D01*
X170658741Y-74466196D01*
X170658748Y-74466174D01*
X170658756Y-74466097D01*
X170709542Y-74302032D01*
X170791229Y-74150956D01*
X170900704Y-74018624D01*
X171033797Y-73910075D01*
X171185440Y-73829445D01*
X171349856Y-73779805D01*
X171520782Y-73763046D01*
X171529365Y-73763046D01*
X171537528Y-73763103D01*
X171537528Y-73763103D01*
G37*
G36*
X163917528Y-73763103D02*
X163917534Y-73763104D01*
X163921585Y-73763132D01*
X164092260Y-73782276D01*
X164255967Y-73834207D01*
X164406469Y-73916946D01*
X164538034Y-74027342D01*
X164645651Y-74161190D01*
X164725220Y-74313392D01*
X164773711Y-74478150D01*
X164773717Y-74478214D01*
X164773725Y-74478242D01*
X164789281Y-74649185D01*
X164771339Y-74819896D01*
X164771332Y-74819918D01*
X164771324Y-74819995D01*
X164720538Y-74984060D01*
X164638851Y-75135136D01*
X164529376Y-75267468D01*
X164396283Y-75376017D01*
X164244640Y-75456647D01*
X164080224Y-75506287D01*
X163909298Y-75523046D01*
X163900715Y-75523046D01*
X163892552Y-75522989D01*
X163892546Y-75522988D01*
X163888495Y-75522960D01*
X163717820Y-75503816D01*
X163554113Y-75451885D01*
X163403611Y-75369146D01*
X163272046Y-75258750D01*
X163164429Y-75124902D01*
X163084860Y-74972700D01*
X163036369Y-74807942D01*
X163036363Y-74807878D01*
X163036355Y-74807850D01*
X163020799Y-74636907D01*
X163038741Y-74466196D01*
X163038748Y-74466174D01*
X163038756Y-74466097D01*
X163089542Y-74302032D01*
X163171229Y-74150956D01*
X163280704Y-74018624D01*
X163413797Y-73910075D01*
X163565440Y-73829445D01*
X163729856Y-73779805D01*
X163900782Y-73763046D01*
X163909365Y-73763046D01*
X163917528Y-73763103D01*
X163917528Y-73763103D01*
G37*
G36*
X102323444Y-73453557D02*
X102485191Y-73486759D01*
X102637415Y-73550748D01*
X102774313Y-73643087D01*
X102890664Y-73760253D01*
X102982041Y-73897788D01*
X103044967Y-74050457D01*
X103076903Y-74211748D01*
X103076903Y-74211765D01*
X103077036Y-74212438D01*
X103074402Y-74401041D01*
X103074251Y-74401704D01*
X103074251Y-74401728D01*
X103037824Y-74562061D01*
X102970659Y-74712915D01*
X102875476Y-74847847D01*
X102755900Y-74961717D01*
X102616474Y-75050199D01*
X102462531Y-75109910D01*
X102299909Y-75138585D01*
X102134820Y-75135126D01*
X101973547Y-75099669D01*
X101822233Y-75033561D01*
X101686641Y-74939322D01*
X101571935Y-74820540D01*
X101482485Y-74681741D01*
X101421696Y-74528208D01*
X101391889Y-74365797D01*
X101394194Y-74200691D01*
X101428526Y-74039172D01*
X101493577Y-73887396D01*
X101586866Y-73751153D01*
X101704844Y-73635619D01*
X101843017Y-73545201D01*
X101996114Y-73483346D01*
X102158317Y-73452404D01*
X102323444Y-73453557D01*
X102323444Y-73453557D01*
G37*
G36*
X104863444Y-73453557D02*
X105025191Y-73486759D01*
X105177415Y-73550748D01*
X105314313Y-73643087D01*
X105430664Y-73760253D01*
X105522041Y-73897788D01*
X105584967Y-74050457D01*
X105616903Y-74211748D01*
X105616903Y-74211765D01*
X105617036Y-74212438D01*
X105614402Y-74401041D01*
X105614251Y-74401704D01*
X105614251Y-74401728D01*
X105577824Y-74562061D01*
X105510659Y-74712915D01*
X105415476Y-74847847D01*
X105295900Y-74961717D01*
X105156474Y-75050199D01*
X105002531Y-75109910D01*
X104839909Y-75138585D01*
X104674820Y-75135126D01*
X104513547Y-75099669D01*
X104362233Y-75033561D01*
X104226641Y-74939322D01*
X104111935Y-74820540D01*
X104022485Y-74681741D01*
X103961696Y-74528208D01*
X103931889Y-74365797D01*
X103934194Y-74200691D01*
X103968526Y-74039172D01*
X104033577Y-73887396D01*
X104126866Y-73751153D01*
X104244844Y-73635619D01*
X104383017Y-73545201D01*
X104536114Y-73483346D01*
X104698317Y-73452404D01*
X104863444Y-73453557D01*
X104863444Y-73453557D01*
G37*
G36*
X99783444Y-73453557D02*
X99945191Y-73486759D01*
X100097415Y-73550748D01*
X100234313Y-73643087D01*
X100350664Y-73760253D01*
X100442041Y-73897788D01*
X100504967Y-74050457D01*
X100536903Y-74211748D01*
X100536903Y-74211765D01*
X100537036Y-74212438D01*
X100534402Y-74401041D01*
X100534251Y-74401704D01*
X100534251Y-74401728D01*
X100497824Y-74562061D01*
X100430659Y-74712915D01*
X100335476Y-74847847D01*
X100215900Y-74961717D01*
X100076474Y-75050199D01*
X99922531Y-75109910D01*
X99759909Y-75138585D01*
X99594820Y-75135126D01*
X99433547Y-75099669D01*
X99282233Y-75033561D01*
X99146641Y-74939322D01*
X99031935Y-74820540D01*
X98942485Y-74681741D01*
X98881696Y-74528208D01*
X98851889Y-74365797D01*
X98854194Y-74200691D01*
X98888526Y-74039172D01*
X98953577Y-73887396D01*
X99046866Y-73751153D01*
X99164844Y-73635619D01*
X99303017Y-73545201D01*
X99456114Y-73483346D01*
X99618317Y-73452404D01*
X99783444Y-73453557D01*
X99783444Y-73453557D01*
G37*
G36*
X97997000Y-75137000D02*
X96313000Y-75137000D01*
X96313000Y-73453000D01*
X97997000Y-73453000D01*
X97997000Y-75137000D01*
X97997000Y-75137000D01*
G37*
G36*
X113959352Y-73325861D02*
X114128406Y-73360562D01*
X114287496Y-73427437D01*
X114430572Y-73523943D01*
X114552174Y-73646397D01*
X114647677Y-73790140D01*
X114713442Y-73949698D01*
X114746825Y-74118300D01*
X114746825Y-74118317D01*
X114746958Y-74118990D01*
X114744205Y-74316105D01*
X114744054Y-74316768D01*
X114744054Y-74316792D01*
X114705975Y-74484397D01*
X114635783Y-74642049D01*
X114536301Y-74783075D01*
X114411328Y-74902085D01*
X114265612Y-74994560D01*
X114104718Y-75056966D01*
X113934758Y-75086935D01*
X113762220Y-75083320D01*
X113593667Y-75046261D01*
X113435524Y-74977170D01*
X113293813Y-74878679D01*
X113173927Y-74754533D01*
X113080443Y-74609476D01*
X113016912Y-74449013D01*
X112985759Y-74279271D01*
X112988168Y-74106713D01*
X113024049Y-73937905D01*
X113092036Y-73779279D01*
X113189537Y-73636884D01*
X113312838Y-73516138D01*
X113457243Y-73421642D01*
X113617254Y-73356993D01*
X113786776Y-73324655D01*
X113959352Y-73325861D01*
X113959352Y-73325861D01*
G37*
G36*
X175423484Y-71548557D02*
X175585231Y-71581759D01*
X175737455Y-71645748D01*
X175874353Y-71738087D01*
X175990704Y-71855253D01*
X176082081Y-71992788D01*
X176145007Y-72145457D01*
X176176943Y-72306748D01*
X176176943Y-72306765D01*
X176177076Y-72307438D01*
X176174442Y-72496041D01*
X176174291Y-72496704D01*
X176174291Y-72496728D01*
X176137864Y-72657061D01*
X176070699Y-72807915D01*
X175975516Y-72942847D01*
X175855940Y-73056717D01*
X175716514Y-73145199D01*
X175562571Y-73204910D01*
X175399949Y-73233585D01*
X175234860Y-73230126D01*
X175073587Y-73194669D01*
X174922273Y-73128561D01*
X174786681Y-73034322D01*
X174671975Y-72915540D01*
X174582525Y-72776741D01*
X174521736Y-72623208D01*
X174491929Y-72460797D01*
X174494234Y-72295691D01*
X174528566Y-72134172D01*
X174593617Y-71982396D01*
X174686906Y-71846153D01*
X174804884Y-71730619D01*
X174943057Y-71640201D01*
X175096154Y-71578346D01*
X175258357Y-71547404D01*
X175423484Y-71548557D01*
X175423484Y-71548557D01*
G37*
G36*
X136819352Y-71460861D02*
X136988406Y-71495562D01*
X137147496Y-71562437D01*
X137290572Y-71658943D01*
X137412174Y-71781397D01*
X137507677Y-71925140D01*
X137573442Y-72084698D01*
X137606825Y-72253300D01*
X137606825Y-72253317D01*
X137606958Y-72253990D01*
X137604205Y-72451105D01*
X137604054Y-72451768D01*
X137604054Y-72451792D01*
X137565975Y-72619397D01*
X137495783Y-72777049D01*
X137396301Y-72918075D01*
X137271328Y-73037085D01*
X137125612Y-73129560D01*
X136964718Y-73191966D01*
X136794758Y-73221935D01*
X136622220Y-73218320D01*
X136453667Y-73181261D01*
X136295524Y-73112170D01*
X136153813Y-73013679D01*
X136033927Y-72889533D01*
X135940443Y-72744476D01*
X135876912Y-72584013D01*
X135845759Y-72414271D01*
X135848168Y-72241713D01*
X135884049Y-72072905D01*
X135952036Y-71914279D01*
X136049537Y-71771884D01*
X136172838Y-71651138D01*
X136317243Y-71556642D01*
X136477254Y-71491993D01*
X136646776Y-71459655D01*
X136819352Y-71460861D01*
X136819352Y-71460861D01*
G37*
G36*
X131739352Y-71460861D02*
X131908406Y-71495562D01*
X132067496Y-71562437D01*
X132210572Y-71658943D01*
X132332174Y-71781397D01*
X132427677Y-71925140D01*
X132493442Y-72084698D01*
X132526825Y-72253300D01*
X132526825Y-72253317D01*
X132526958Y-72253990D01*
X132524205Y-72451105D01*
X132524054Y-72451768D01*
X132524054Y-72451792D01*
X132485975Y-72619397D01*
X132415783Y-72777049D01*
X132316301Y-72918075D01*
X132191328Y-73037085D01*
X132045612Y-73129560D01*
X131884718Y-73191966D01*
X131714758Y-73221935D01*
X131542220Y-73218320D01*
X131373667Y-73181261D01*
X131215524Y-73112170D01*
X131073813Y-73013679D01*
X130953927Y-72889533D01*
X130860443Y-72744476D01*
X130796912Y-72584013D01*
X130765759Y-72414271D01*
X130768168Y-72241713D01*
X130804049Y-72072905D01*
X130872036Y-71914279D01*
X130969537Y-71771884D01*
X131092838Y-71651138D01*
X131237243Y-71556642D01*
X131397254Y-71491993D01*
X131566776Y-71459655D01*
X131739352Y-71460861D01*
X131739352Y-71460861D01*
G37*
G36*
X163917528Y-71223103D02*
X163917534Y-71223104D01*
X163921585Y-71223132D01*
X164092260Y-71242276D01*
X164255967Y-71294207D01*
X164406469Y-71376946D01*
X164538034Y-71487342D01*
X164645651Y-71621190D01*
X164725220Y-71773392D01*
X164773711Y-71938150D01*
X164773717Y-71938214D01*
X164773725Y-71938242D01*
X164789281Y-72109185D01*
X164771339Y-72279896D01*
X164771332Y-72279918D01*
X164771324Y-72279995D01*
X164720538Y-72444060D01*
X164638851Y-72595136D01*
X164529376Y-72727468D01*
X164396283Y-72836017D01*
X164244640Y-72916647D01*
X164080224Y-72966287D01*
X163909298Y-72983046D01*
X163900715Y-72983046D01*
X163892552Y-72982989D01*
X163892546Y-72982988D01*
X163888495Y-72982960D01*
X163717820Y-72963816D01*
X163554113Y-72911885D01*
X163403611Y-72829146D01*
X163272046Y-72718750D01*
X163164429Y-72584902D01*
X163084860Y-72432700D01*
X163036369Y-72267942D01*
X163036363Y-72267878D01*
X163036355Y-72267850D01*
X163020799Y-72096907D01*
X163038741Y-71926196D01*
X163038748Y-71926174D01*
X163038756Y-71926097D01*
X163089542Y-71762032D01*
X163171229Y-71610956D01*
X163280704Y-71478624D01*
X163413797Y-71370075D01*
X163565440Y-71289445D01*
X163729856Y-71239805D01*
X163900782Y-71223046D01*
X163909365Y-71223046D01*
X163917528Y-71223103D01*
X163917528Y-71223103D01*
G37*
G36*
X171537528Y-71223103D02*
X171537534Y-71223104D01*
X171541585Y-71223132D01*
X171712260Y-71242276D01*
X171875967Y-71294207D01*
X172026469Y-71376946D01*
X172158034Y-71487342D01*
X172265651Y-71621190D01*
X172345220Y-71773392D01*
X172393711Y-71938150D01*
X172393717Y-71938214D01*
X172393725Y-71938242D01*
X172409281Y-72109185D01*
X172391339Y-72279896D01*
X172391332Y-72279918D01*
X172391324Y-72279995D01*
X172340538Y-72444060D01*
X172258851Y-72595136D01*
X172149376Y-72727468D01*
X172016283Y-72836017D01*
X171864640Y-72916647D01*
X171700224Y-72966287D01*
X171529298Y-72983046D01*
X171520715Y-72983046D01*
X171512552Y-72982989D01*
X171512546Y-72982988D01*
X171508495Y-72982960D01*
X171337820Y-72963816D01*
X171174113Y-72911885D01*
X171023611Y-72829146D01*
X170892046Y-72718750D01*
X170784429Y-72584902D01*
X170704860Y-72432700D01*
X170656369Y-72267942D01*
X170656363Y-72267878D01*
X170656355Y-72267850D01*
X170640799Y-72096907D01*
X170658741Y-71926196D01*
X170658748Y-71926174D01*
X170658756Y-71926097D01*
X170709542Y-71762032D01*
X170791229Y-71610956D01*
X170900704Y-71478624D01*
X171033797Y-71370075D01*
X171185440Y-71289445D01*
X171349856Y-71239805D01*
X171520782Y-71223046D01*
X171529365Y-71223046D01*
X171537528Y-71223103D01*
X171537528Y-71223103D01*
G37*
G36*
X127929352Y-70150861D02*
X128098406Y-70185562D01*
X128257496Y-70252437D01*
X128400572Y-70348943D01*
X128522174Y-70471397D01*
X128617677Y-70615140D01*
X128683442Y-70774698D01*
X128716825Y-70943300D01*
X128716825Y-70943317D01*
X128716958Y-70943990D01*
X128714205Y-71141105D01*
X128714054Y-71141768D01*
X128714054Y-71141792D01*
X128675975Y-71309397D01*
X128605783Y-71467049D01*
X128506301Y-71608075D01*
X128381328Y-71727085D01*
X128235612Y-71819560D01*
X128074718Y-71881966D01*
X127904758Y-71911935D01*
X127732220Y-71908320D01*
X127563667Y-71871261D01*
X127405524Y-71802170D01*
X127263813Y-71703679D01*
X127143927Y-71579533D01*
X127050443Y-71434476D01*
X126986912Y-71274013D01*
X126955759Y-71104271D01*
X126958168Y-70931713D01*
X126994049Y-70762905D01*
X127062036Y-70604279D01*
X127159537Y-70461884D01*
X127282838Y-70341138D01*
X127427243Y-70246642D01*
X127587254Y-70181993D01*
X127756776Y-70149655D01*
X127929352Y-70150861D01*
X127929352Y-70150861D01*
G37*
G36*
X125389352Y-70150861D02*
X125558406Y-70185562D01*
X125717496Y-70252437D01*
X125860572Y-70348943D01*
X125982174Y-70471397D01*
X126077677Y-70615140D01*
X126143442Y-70774698D01*
X126176825Y-70943300D01*
X126176825Y-70943317D01*
X126176958Y-70943990D01*
X126174205Y-71141105D01*
X126174054Y-71141768D01*
X126174054Y-71141792D01*
X126135975Y-71309397D01*
X126065783Y-71467049D01*
X125966301Y-71608075D01*
X125841328Y-71727085D01*
X125695612Y-71819560D01*
X125534718Y-71881966D01*
X125364758Y-71911935D01*
X125192220Y-71908320D01*
X125023667Y-71871261D01*
X124865524Y-71802170D01*
X124723813Y-71703679D01*
X124603927Y-71579533D01*
X124510443Y-71434476D01*
X124446912Y-71274013D01*
X124415759Y-71104271D01*
X124418168Y-70931713D01*
X124454049Y-70762905D01*
X124522036Y-70604279D01*
X124619537Y-70461884D01*
X124742838Y-70341138D01*
X124887243Y-70246642D01*
X125047254Y-70181993D01*
X125216776Y-70149655D01*
X125389352Y-70150861D01*
X125389352Y-70150861D01*
G37*
G36*
X175423484Y-69008557D02*
X175585231Y-69041759D01*
X175737455Y-69105748D01*
X175874353Y-69198087D01*
X175990704Y-69315253D01*
X176082081Y-69452788D01*
X176145007Y-69605457D01*
X176176943Y-69766748D01*
X176176943Y-69766765D01*
X176177076Y-69767438D01*
X176174442Y-69956041D01*
X176174291Y-69956704D01*
X176174291Y-69956728D01*
X176137864Y-70117061D01*
X176070699Y-70267915D01*
X175975516Y-70402847D01*
X175855940Y-70516717D01*
X175716514Y-70605199D01*
X175562571Y-70664910D01*
X175399949Y-70693585D01*
X175234860Y-70690126D01*
X175073587Y-70654669D01*
X174922273Y-70588561D01*
X174786681Y-70494322D01*
X174671975Y-70375540D01*
X174582525Y-70236741D01*
X174521736Y-70083208D01*
X174491929Y-69920797D01*
X174494234Y-69755691D01*
X174528566Y-69594172D01*
X174593617Y-69442396D01*
X174686906Y-69306153D01*
X174804884Y-69190619D01*
X174943057Y-69100201D01*
X175096154Y-69038346D01*
X175258357Y-69007404D01*
X175423484Y-69008557D01*
X175423484Y-69008557D01*
G37*
G36*
X171537528Y-68683103D02*
X171537534Y-68683104D01*
X171541585Y-68683132D01*
X171712260Y-68702276D01*
X171875967Y-68754207D01*
X172026469Y-68836946D01*
X172158034Y-68947342D01*
X172265651Y-69081190D01*
X172345220Y-69233392D01*
X172393711Y-69398150D01*
X172393717Y-69398214D01*
X172393725Y-69398242D01*
X172409281Y-69569185D01*
X172391339Y-69739896D01*
X172391332Y-69739918D01*
X172391324Y-69739995D01*
X172340538Y-69904060D01*
X172258851Y-70055136D01*
X172149376Y-70187468D01*
X172016283Y-70296017D01*
X171864640Y-70376647D01*
X171700224Y-70426287D01*
X171529298Y-70443046D01*
X171520715Y-70443046D01*
X171512552Y-70442989D01*
X171512546Y-70442988D01*
X171508495Y-70442960D01*
X171337820Y-70423816D01*
X171174113Y-70371885D01*
X171023611Y-70289146D01*
X170892046Y-70178750D01*
X170784429Y-70044902D01*
X170704860Y-69892700D01*
X170656369Y-69727942D01*
X170656363Y-69727878D01*
X170656355Y-69727850D01*
X170640799Y-69556907D01*
X170658741Y-69386196D01*
X170658748Y-69386174D01*
X170658756Y-69386097D01*
X170709542Y-69222032D01*
X170791229Y-69070956D01*
X170900704Y-68938624D01*
X171033797Y-68830075D01*
X171185440Y-68749445D01*
X171349856Y-68699805D01*
X171520782Y-68683046D01*
X171529365Y-68683046D01*
X171537528Y-68683103D01*
X171537528Y-68683103D01*
G37*
G36*
X163917528Y-68683103D02*
X163917534Y-68683104D01*
X163921585Y-68683132D01*
X164092260Y-68702276D01*
X164255967Y-68754207D01*
X164406469Y-68836946D01*
X164538034Y-68947342D01*
X164645651Y-69081190D01*
X164725220Y-69233392D01*
X164773711Y-69398150D01*
X164773717Y-69398214D01*
X164773725Y-69398242D01*
X164789281Y-69569185D01*
X164771339Y-69739896D01*
X164771332Y-69739918D01*
X164771324Y-69739995D01*
X164720538Y-69904060D01*
X164638851Y-70055136D01*
X164529376Y-70187468D01*
X164396283Y-70296017D01*
X164244640Y-70376647D01*
X164080224Y-70426287D01*
X163909298Y-70443046D01*
X163900715Y-70443046D01*
X163892552Y-70442989D01*
X163892546Y-70442988D01*
X163888495Y-70442960D01*
X163717820Y-70423816D01*
X163554113Y-70371885D01*
X163403611Y-70289146D01*
X163272046Y-70178750D01*
X163164429Y-70044902D01*
X163084860Y-69892700D01*
X163036369Y-69727942D01*
X163036363Y-69727878D01*
X163036355Y-69727850D01*
X163020799Y-69556907D01*
X163038741Y-69386196D01*
X163038748Y-69386174D01*
X163038756Y-69386097D01*
X163089542Y-69222032D01*
X163171229Y-69070956D01*
X163280704Y-68938624D01*
X163413797Y-68830075D01*
X163565440Y-68749445D01*
X163729856Y-68699805D01*
X163900782Y-68683046D01*
X163909365Y-68683046D01*
X163917528Y-68683103D01*
X163917528Y-68683103D01*
G37*
G36*
X131734099Y-67025827D02*
X131893551Y-67058557D01*
X132043598Y-67121631D01*
X132178546Y-67212655D01*
X132293240Y-67328152D01*
X132383315Y-67463727D01*
X132445344Y-67614220D01*
X132476823Y-67773203D01*
X132476823Y-67773219D01*
X132476956Y-67773892D01*
X132474360Y-67959808D01*
X132474208Y-67960476D01*
X132474208Y-67960495D01*
X132438303Y-68118533D01*
X132372096Y-68267237D01*
X132278268Y-68400246D01*
X132160395Y-68512495D01*
X132022961Y-68599712D01*
X131871207Y-68658574D01*
X131710904Y-68686841D01*
X131548168Y-68683431D01*
X131389193Y-68648478D01*
X131240035Y-68583313D01*
X131106376Y-68490418D01*
X130993304Y-68373329D01*
X130905128Y-68236506D01*
X130845208Y-68085164D01*
X130815824Y-67925067D01*
X130818097Y-67762313D01*
X130851939Y-67603096D01*
X130916063Y-67453483D01*
X131008021Y-67319182D01*
X131124323Y-67205292D01*
X131260520Y-67116167D01*
X131411439Y-67055191D01*
X131571330Y-67024690D01*
X131734099Y-67025827D01*
X131734099Y-67025827D01*
G37*
G36*
X136634099Y-67025827D02*
X136793551Y-67058557D01*
X136943598Y-67121631D01*
X137078546Y-67212655D01*
X137193240Y-67328152D01*
X137283315Y-67463727D01*
X137345344Y-67614220D01*
X137376823Y-67773203D01*
X137376823Y-67773219D01*
X137376956Y-67773892D01*
X137374360Y-67959808D01*
X137374208Y-67960476D01*
X137374208Y-67960495D01*
X137338303Y-68118533D01*
X137272096Y-68267237D01*
X137178268Y-68400246D01*
X137060395Y-68512495D01*
X136922961Y-68599712D01*
X136771207Y-68658574D01*
X136610904Y-68686841D01*
X136448168Y-68683431D01*
X136289193Y-68648478D01*
X136140035Y-68583313D01*
X136006376Y-68490418D01*
X135893304Y-68373329D01*
X135805128Y-68236506D01*
X135745208Y-68085164D01*
X135715824Y-67925067D01*
X135718097Y-67762313D01*
X135751939Y-67603096D01*
X135816063Y-67453483D01*
X135908021Y-67319182D01*
X136024323Y-67205292D01*
X136160520Y-67116167D01*
X136311439Y-67055191D01*
X136471330Y-67024690D01*
X136634099Y-67025827D01*
X136634099Y-67025827D01*
G37*
G36*
X163917528Y-66143103D02*
X163917534Y-66143104D01*
X163921585Y-66143132D01*
X164092260Y-66162276D01*
X164255967Y-66214207D01*
X164406469Y-66296946D01*
X164538034Y-66407342D01*
X164645651Y-66541190D01*
X164725220Y-66693392D01*
X164773711Y-66858150D01*
X164773717Y-66858214D01*
X164773725Y-66858242D01*
X164789281Y-67029185D01*
X164771339Y-67199896D01*
X164771332Y-67199918D01*
X164771324Y-67199995D01*
X164720538Y-67364060D01*
X164638851Y-67515136D01*
X164529376Y-67647468D01*
X164396283Y-67756017D01*
X164244640Y-67836647D01*
X164080224Y-67886287D01*
X163909298Y-67903046D01*
X163900715Y-67903046D01*
X163892552Y-67902989D01*
X163892546Y-67902988D01*
X163888495Y-67902960D01*
X163717820Y-67883816D01*
X163554113Y-67831885D01*
X163403611Y-67749146D01*
X163272046Y-67638750D01*
X163164429Y-67504902D01*
X163084860Y-67352700D01*
X163036369Y-67187942D01*
X163036363Y-67187878D01*
X163036355Y-67187850D01*
X163020799Y-67016907D01*
X163038741Y-66846196D01*
X163038748Y-66846174D01*
X163038756Y-66846097D01*
X163089542Y-66682032D01*
X163171229Y-66530956D01*
X163280704Y-66398624D01*
X163413797Y-66290075D01*
X163565440Y-66209445D01*
X163729856Y-66159805D01*
X163900782Y-66143046D01*
X163909365Y-66143046D01*
X163917528Y-66143103D01*
X163917528Y-66143103D01*
G37*
G36*
X171537528Y-66143103D02*
X171537534Y-66143104D01*
X171541585Y-66143132D01*
X171712260Y-66162276D01*
X171875967Y-66214207D01*
X172026469Y-66296946D01*
X172158034Y-66407342D01*
X172265651Y-66541190D01*
X172345220Y-66693392D01*
X172393711Y-66858150D01*
X172393717Y-66858214D01*
X172393725Y-66858242D01*
X172409281Y-67029185D01*
X172391339Y-67199896D01*
X172391332Y-67199918D01*
X172391324Y-67199995D01*
X172340538Y-67364060D01*
X172258851Y-67515136D01*
X172149376Y-67647468D01*
X172016283Y-67756017D01*
X171864640Y-67836647D01*
X171700224Y-67886287D01*
X171529298Y-67903046D01*
X171520715Y-67903046D01*
X171512552Y-67902989D01*
X171512546Y-67902988D01*
X171508495Y-67902960D01*
X171337820Y-67883816D01*
X171174113Y-67831885D01*
X171023611Y-67749146D01*
X170892046Y-67638750D01*
X170784429Y-67504902D01*
X170704860Y-67352700D01*
X170656369Y-67187942D01*
X170656363Y-67187878D01*
X170656355Y-67187850D01*
X170640799Y-67016907D01*
X170658741Y-66846196D01*
X170658748Y-66846174D01*
X170658756Y-66846097D01*
X170709542Y-66682032D01*
X170791229Y-66530956D01*
X170900704Y-66398624D01*
X171033797Y-66290075D01*
X171185440Y-66209445D01*
X171349856Y-66159805D01*
X171520782Y-66143046D01*
X171529365Y-66143046D01*
X171537528Y-66143103D01*
X171537528Y-66143103D01*
G37*
G36*
X113959352Y-65705861D02*
X114128406Y-65740562D01*
X114287496Y-65807437D01*
X114430572Y-65903943D01*
X114552174Y-66026397D01*
X114647677Y-66170140D01*
X114713442Y-66329698D01*
X114746825Y-66498300D01*
X114746825Y-66498317D01*
X114746958Y-66498990D01*
X114744205Y-66696105D01*
X114744054Y-66696768D01*
X114744054Y-66696792D01*
X114705975Y-66864397D01*
X114635783Y-67022049D01*
X114536301Y-67163075D01*
X114411328Y-67282085D01*
X114265612Y-67374560D01*
X114104718Y-67436966D01*
X113934758Y-67466935D01*
X113762220Y-67463320D01*
X113593667Y-67426261D01*
X113435524Y-67357170D01*
X113293813Y-67258679D01*
X113173927Y-67134533D01*
X113080443Y-66989476D01*
X113016912Y-66829013D01*
X112985759Y-66659271D01*
X112988168Y-66486713D01*
X113024049Y-66317905D01*
X113092036Y-66159279D01*
X113189537Y-66016884D01*
X113312838Y-65896138D01*
X113457243Y-65801642D01*
X113617254Y-65736993D01*
X113786776Y-65704655D01*
X113959352Y-65705861D01*
X113959352Y-65705861D01*
G37*
G36*
X116495364Y-65743835D02*
X116657111Y-65777037D01*
X116809335Y-65841026D01*
X116946233Y-65933365D01*
X117062584Y-66050531D01*
X117153961Y-66188066D01*
X117216887Y-66340735D01*
X117248823Y-66502026D01*
X117248823Y-66502043D01*
X117248956Y-66502716D01*
X117246322Y-66691319D01*
X117246171Y-66691982D01*
X117246171Y-66692006D01*
X117209744Y-66852339D01*
X117142579Y-67003193D01*
X117047396Y-67138125D01*
X116927820Y-67251995D01*
X116788394Y-67340477D01*
X116634451Y-67400188D01*
X116471829Y-67428863D01*
X116306740Y-67425404D01*
X116145467Y-67389947D01*
X115994153Y-67323839D01*
X115858561Y-67229600D01*
X115743855Y-67110818D01*
X115654405Y-66972019D01*
X115593616Y-66818486D01*
X115563809Y-66656075D01*
X115566114Y-66490969D01*
X115600446Y-66329450D01*
X115665497Y-66177674D01*
X115758786Y-66041431D01*
X115876764Y-65925897D01*
X116014937Y-65835479D01*
X116168034Y-65773624D01*
X116330237Y-65742682D01*
X116495364Y-65743835D01*
X116495364Y-65743835D01*
G37*
G36*
X119035364Y-65743835D02*
X119197111Y-65777037D01*
X119349335Y-65841026D01*
X119486233Y-65933365D01*
X119602584Y-66050531D01*
X119693961Y-66188066D01*
X119756887Y-66340735D01*
X119788823Y-66502026D01*
X119788823Y-66502043D01*
X119788956Y-66502716D01*
X119786322Y-66691319D01*
X119786171Y-66691982D01*
X119786171Y-66692006D01*
X119749744Y-66852339D01*
X119682579Y-67003193D01*
X119587396Y-67138125D01*
X119467820Y-67251995D01*
X119328394Y-67340477D01*
X119174451Y-67400188D01*
X119011829Y-67428863D01*
X118846740Y-67425404D01*
X118685467Y-67389947D01*
X118534153Y-67323839D01*
X118398561Y-67229600D01*
X118283855Y-67110818D01*
X118194405Y-66972019D01*
X118133616Y-66818486D01*
X118103809Y-66656075D01*
X118106114Y-66490969D01*
X118140446Y-66329450D01*
X118205497Y-66177674D01*
X118298786Y-66041431D01*
X118416764Y-65925897D01*
X118554937Y-65835479D01*
X118708034Y-65773624D01*
X118870237Y-65742682D01*
X119035364Y-65743835D01*
X119035364Y-65743835D01*
G37*
G36*
X136903770Y-62543979D02*
X136903792Y-62543986D01*
X136903869Y-62543994D01*
X137067934Y-62594780D01*
X137219010Y-62676467D01*
X137351342Y-62785942D01*
X137459891Y-62919035D01*
X137540521Y-63070678D01*
X137590161Y-63235094D01*
X137606920Y-63406020D01*
X137606920Y-63414603D01*
X137606863Y-63422766D01*
X137606862Y-63422772D01*
X137606834Y-63426823D01*
X137587690Y-63597498D01*
X137535759Y-63761205D01*
X137453020Y-63911707D01*
X137342624Y-64043272D01*
X137208776Y-64150889D01*
X137056574Y-64230458D01*
X136891816Y-64278949D01*
X136891752Y-64278955D01*
X136891724Y-64278963D01*
X136720781Y-64294519D01*
X136550070Y-64276577D01*
X136550048Y-64276570D01*
X136549971Y-64276562D01*
X136385906Y-64225776D01*
X136234830Y-64144089D01*
X136102498Y-64034614D01*
X135993949Y-63901521D01*
X135913319Y-63749878D01*
X135863679Y-63585462D01*
X135846920Y-63414536D01*
X135846920Y-63405953D01*
X135846977Y-63397790D01*
X135846978Y-63397784D01*
X135847006Y-63393733D01*
X135866150Y-63223058D01*
X135918081Y-63059351D01*
X136000820Y-62908849D01*
X136111216Y-62777284D01*
X136245064Y-62669667D01*
X136397266Y-62590098D01*
X136562024Y-62541607D01*
X136562088Y-62541601D01*
X136562116Y-62541593D01*
X136733059Y-62526037D01*
X136903770Y-62543979D01*
X136903770Y-62543979D01*
G37*
G36*
X121663770Y-62543979D02*
X121663792Y-62543986D01*
X121663869Y-62543994D01*
X121827934Y-62594780D01*
X121979010Y-62676467D01*
X122111342Y-62785942D01*
X122219891Y-62919035D01*
X122300521Y-63070678D01*
X122350161Y-63235094D01*
X122366920Y-63406020D01*
X122366920Y-63414603D01*
X122366863Y-63422766D01*
X122366862Y-63422772D01*
X122366834Y-63426823D01*
X122347690Y-63597498D01*
X122295759Y-63761205D01*
X122213020Y-63911707D01*
X122102624Y-64043272D01*
X121968776Y-64150889D01*
X121816574Y-64230458D01*
X121651816Y-64278949D01*
X121651752Y-64278955D01*
X121651724Y-64278963D01*
X121480781Y-64294519D01*
X121310070Y-64276577D01*
X121310048Y-64276570D01*
X121309971Y-64276562D01*
X121145906Y-64225776D01*
X120994830Y-64144089D01*
X120862498Y-64034614D01*
X120753949Y-63901521D01*
X120673319Y-63749878D01*
X120623679Y-63585462D01*
X120606920Y-63414536D01*
X120606920Y-63405953D01*
X120606977Y-63397790D01*
X120606978Y-63397784D01*
X120607006Y-63393733D01*
X120626150Y-63223058D01*
X120678081Y-63059351D01*
X120760820Y-62908849D01*
X120871216Y-62777284D01*
X121005064Y-62669667D01*
X121157266Y-62590098D01*
X121322024Y-62541607D01*
X121322088Y-62541601D01*
X121322116Y-62541593D01*
X121493059Y-62526037D01*
X121663770Y-62543979D01*
X121663770Y-62543979D01*
G37*
G36*
X124203770Y-62543979D02*
X124203792Y-62543986D01*
X124203869Y-62543994D01*
X124367934Y-62594780D01*
X124519010Y-62676467D01*
X124651342Y-62785942D01*
X124759891Y-62919035D01*
X124840521Y-63070678D01*
X124890161Y-63235094D01*
X124906920Y-63406020D01*
X124906920Y-63414603D01*
X124906863Y-63422766D01*
X124906862Y-63422772D01*
X124906834Y-63426823D01*
X124887690Y-63597498D01*
X124835759Y-63761205D01*
X124753020Y-63911707D01*
X124642624Y-64043272D01*
X124508776Y-64150889D01*
X124356574Y-64230458D01*
X124191816Y-64278949D01*
X124191752Y-64278955D01*
X124191724Y-64278963D01*
X124020781Y-64294519D01*
X123850070Y-64276577D01*
X123850048Y-64276570D01*
X123849971Y-64276562D01*
X123685906Y-64225776D01*
X123534830Y-64144089D01*
X123402498Y-64034614D01*
X123293949Y-63901521D01*
X123213319Y-63749878D01*
X123163679Y-63585462D01*
X123146920Y-63414536D01*
X123146920Y-63405953D01*
X123146977Y-63397790D01*
X123146978Y-63397784D01*
X123147006Y-63393733D01*
X123166150Y-63223058D01*
X123218081Y-63059351D01*
X123300820Y-62908849D01*
X123411216Y-62777284D01*
X123545064Y-62669667D01*
X123697266Y-62590098D01*
X123862024Y-62541607D01*
X123862088Y-62541601D01*
X123862116Y-62541593D01*
X124033059Y-62526037D01*
X124203770Y-62543979D01*
X124203770Y-62543979D01*
G37*
G36*
X126743770Y-62543979D02*
X126743792Y-62543986D01*
X126743869Y-62543994D01*
X126907934Y-62594780D01*
X127059010Y-62676467D01*
X127191342Y-62785942D01*
X127299891Y-62919035D01*
X127380521Y-63070678D01*
X127430161Y-63235094D01*
X127446920Y-63406020D01*
X127446920Y-63414603D01*
X127446863Y-63422766D01*
X127446862Y-63422772D01*
X127446834Y-63426823D01*
X127427690Y-63597498D01*
X127375759Y-63761205D01*
X127293020Y-63911707D01*
X127182624Y-64043272D01*
X127048776Y-64150889D01*
X126896574Y-64230458D01*
X126731816Y-64278949D01*
X126731752Y-64278955D01*
X126731724Y-64278963D01*
X126560781Y-64294519D01*
X126390070Y-64276577D01*
X126390048Y-64276570D01*
X126389971Y-64276562D01*
X126225906Y-64225776D01*
X126074830Y-64144089D01*
X125942498Y-64034614D01*
X125833949Y-63901521D01*
X125753319Y-63749878D01*
X125703679Y-63585462D01*
X125686920Y-63414536D01*
X125686920Y-63405953D01*
X125686977Y-63397790D01*
X125686978Y-63397784D01*
X125687006Y-63393733D01*
X125706150Y-63223058D01*
X125758081Y-63059351D01*
X125840820Y-62908849D01*
X125951216Y-62777284D01*
X126085064Y-62669667D01*
X126237266Y-62590098D01*
X126402024Y-62541607D01*
X126402088Y-62541601D01*
X126402116Y-62541593D01*
X126573059Y-62526037D01*
X126743770Y-62543979D01*
X126743770Y-62543979D01*
G37*
G36*
X129283770Y-62543979D02*
X129283792Y-62543986D01*
X129283869Y-62543994D01*
X129447934Y-62594780D01*
X129599010Y-62676467D01*
X129731342Y-62785942D01*
X129839891Y-62919035D01*
X129920521Y-63070678D01*
X129970161Y-63235094D01*
X129986920Y-63406020D01*
X129986920Y-63414603D01*
X129986863Y-63422766D01*
X129986862Y-63422772D01*
X129986834Y-63426823D01*
X129967690Y-63597498D01*
X129915759Y-63761205D01*
X129833020Y-63911707D01*
X129722624Y-64043272D01*
X129588776Y-64150889D01*
X129436574Y-64230458D01*
X129271816Y-64278949D01*
X129271752Y-64278955D01*
X129271724Y-64278963D01*
X129100781Y-64294519D01*
X128930070Y-64276577D01*
X128930048Y-64276570D01*
X128929971Y-64276562D01*
X128765906Y-64225776D01*
X128614830Y-64144089D01*
X128482498Y-64034614D01*
X128373949Y-63901521D01*
X128293319Y-63749878D01*
X128243679Y-63585462D01*
X128226920Y-63414536D01*
X128226920Y-63405953D01*
X128226977Y-63397790D01*
X128226978Y-63397784D01*
X128227006Y-63393733D01*
X128246150Y-63223058D01*
X128298081Y-63059351D01*
X128380820Y-62908849D01*
X128491216Y-62777284D01*
X128625064Y-62669667D01*
X128777266Y-62590098D01*
X128942024Y-62541607D01*
X128942088Y-62541601D01*
X128942116Y-62541593D01*
X129113059Y-62526037D01*
X129283770Y-62543979D01*
X129283770Y-62543979D01*
G37*
G36*
X131823770Y-62543979D02*
X131823792Y-62543986D01*
X131823869Y-62543994D01*
X131987934Y-62594780D01*
X132139010Y-62676467D01*
X132271342Y-62785942D01*
X132379891Y-62919035D01*
X132460521Y-63070678D01*
X132510161Y-63235094D01*
X132526920Y-63406020D01*
X132526920Y-63414603D01*
X132526863Y-63422766D01*
X132526862Y-63422772D01*
X132526834Y-63426823D01*
X132507690Y-63597498D01*
X132455759Y-63761205D01*
X132373020Y-63911707D01*
X132262624Y-64043272D01*
X132128776Y-64150889D01*
X131976574Y-64230458D01*
X131811816Y-64278949D01*
X131811752Y-64278955D01*
X131811724Y-64278963D01*
X131640781Y-64294519D01*
X131470070Y-64276577D01*
X131470048Y-64276570D01*
X131469971Y-64276562D01*
X131305906Y-64225776D01*
X131154830Y-64144089D01*
X131022498Y-64034614D01*
X130913949Y-63901521D01*
X130833319Y-63749878D01*
X130783679Y-63585462D01*
X130766920Y-63414536D01*
X130766920Y-63405953D01*
X130766977Y-63397790D01*
X130766978Y-63397784D01*
X130767006Y-63393733D01*
X130786150Y-63223058D01*
X130838081Y-63059351D01*
X130920820Y-62908849D01*
X131031216Y-62777284D01*
X131165064Y-62669667D01*
X131317266Y-62590098D01*
X131482024Y-62541607D01*
X131482088Y-62541601D01*
X131482116Y-62541593D01*
X131653059Y-62526037D01*
X131823770Y-62543979D01*
X131823770Y-62543979D01*
G37*
G36*
X134363770Y-62543979D02*
X134363792Y-62543986D01*
X134363869Y-62543994D01*
X134527934Y-62594780D01*
X134679010Y-62676467D01*
X134811342Y-62785942D01*
X134919891Y-62919035D01*
X135000521Y-63070678D01*
X135050161Y-63235094D01*
X135066920Y-63406020D01*
X135066920Y-63414603D01*
X135066863Y-63422766D01*
X135066862Y-63422772D01*
X135066834Y-63426823D01*
X135047690Y-63597498D01*
X134995759Y-63761205D01*
X134913020Y-63911707D01*
X134802624Y-64043272D01*
X134668776Y-64150889D01*
X134516574Y-64230458D01*
X134351816Y-64278949D01*
X134351752Y-64278955D01*
X134351724Y-64278963D01*
X134180781Y-64294519D01*
X134010070Y-64276577D01*
X134010048Y-64276570D01*
X134009971Y-64276562D01*
X133845906Y-64225776D01*
X133694830Y-64144089D01*
X133562498Y-64034614D01*
X133453949Y-63901521D01*
X133373319Y-63749878D01*
X133323679Y-63585462D01*
X133306920Y-63414536D01*
X133306920Y-63405953D01*
X133306977Y-63397790D01*
X133306978Y-63397784D01*
X133307006Y-63393733D01*
X133326150Y-63223058D01*
X133378081Y-63059351D01*
X133460820Y-62908849D01*
X133571216Y-62777284D01*
X133705064Y-62669667D01*
X133857266Y-62590098D01*
X134022024Y-62541607D01*
X134022088Y-62541601D01*
X134022116Y-62541593D01*
X134193059Y-62526037D01*
X134363770Y-62543979D01*
X134363770Y-62543979D01*
G37*
G36*
X116583770Y-62543979D02*
X116583792Y-62543986D01*
X116583869Y-62543994D01*
X116747934Y-62594780D01*
X116899010Y-62676467D01*
X117031342Y-62785942D01*
X117139891Y-62919035D01*
X117220521Y-63070678D01*
X117270161Y-63235094D01*
X117286920Y-63406020D01*
X117286920Y-63414603D01*
X117286863Y-63422766D01*
X117286862Y-63422772D01*
X117286834Y-63426823D01*
X117267690Y-63597498D01*
X117215759Y-63761205D01*
X117133020Y-63911707D01*
X117022624Y-64043272D01*
X116888776Y-64150889D01*
X116736574Y-64230458D01*
X116571816Y-64278949D01*
X116571752Y-64278955D01*
X116571724Y-64278963D01*
X116400781Y-64294519D01*
X116230070Y-64276577D01*
X116230048Y-64276570D01*
X116229971Y-64276562D01*
X116065906Y-64225776D01*
X115914830Y-64144089D01*
X115782498Y-64034614D01*
X115673949Y-63901521D01*
X115593319Y-63749878D01*
X115543679Y-63585462D01*
X115526920Y-63414536D01*
X115526920Y-63405953D01*
X115526977Y-63397790D01*
X115526978Y-63397784D01*
X115527006Y-63393733D01*
X115546150Y-63223058D01*
X115598081Y-63059351D01*
X115680820Y-62908849D01*
X115791216Y-62777284D01*
X115925064Y-62669667D01*
X116077266Y-62590098D01*
X116242024Y-62541607D01*
X116242088Y-62541601D01*
X116242116Y-62541593D01*
X116413059Y-62526037D01*
X116583770Y-62543979D01*
X116583770Y-62543979D01*
G37*
G36*
X139443770Y-62543979D02*
X139443792Y-62543986D01*
X139443869Y-62543994D01*
X139607934Y-62594780D01*
X139759010Y-62676467D01*
X139891342Y-62785942D01*
X139999891Y-62919035D01*
X140080521Y-63070678D01*
X140130161Y-63235094D01*
X140146920Y-63406020D01*
X140146920Y-63414603D01*
X140146863Y-63422766D01*
X140146862Y-63422772D01*
X140146834Y-63426823D01*
X140127690Y-63597498D01*
X140075759Y-63761205D01*
X139993020Y-63911707D01*
X139882624Y-64043272D01*
X139748776Y-64150889D01*
X139596574Y-64230458D01*
X139431816Y-64278949D01*
X139431752Y-64278955D01*
X139431724Y-64278963D01*
X139260781Y-64294519D01*
X139090070Y-64276577D01*
X139090048Y-64276570D01*
X139089971Y-64276562D01*
X138925906Y-64225776D01*
X138774830Y-64144089D01*
X138642498Y-64034614D01*
X138533949Y-63901521D01*
X138453319Y-63749878D01*
X138403679Y-63585462D01*
X138386920Y-63414536D01*
X138386920Y-63405953D01*
X138386977Y-63397790D01*
X138386978Y-63397784D01*
X138387006Y-63393733D01*
X138406150Y-63223058D01*
X138458081Y-63059351D01*
X138540820Y-62908849D01*
X138651216Y-62777284D01*
X138785064Y-62669667D01*
X138937266Y-62590098D01*
X139102024Y-62541607D01*
X139102088Y-62541601D01*
X139102116Y-62541593D01*
X139273059Y-62526037D01*
X139443770Y-62543979D01*
X139443770Y-62543979D01*
G37*
G36*
X141983770Y-62543979D02*
X141983792Y-62543986D01*
X141983869Y-62543994D01*
X142147934Y-62594780D01*
X142299010Y-62676467D01*
X142431342Y-62785942D01*
X142539891Y-62919035D01*
X142620521Y-63070678D01*
X142670161Y-63235094D01*
X142686920Y-63406020D01*
X142686920Y-63414603D01*
X142686863Y-63422766D01*
X142686862Y-63422772D01*
X142686834Y-63426823D01*
X142667690Y-63597498D01*
X142615759Y-63761205D01*
X142533020Y-63911707D01*
X142422624Y-64043272D01*
X142288776Y-64150889D01*
X142136574Y-64230458D01*
X141971816Y-64278949D01*
X141971752Y-64278955D01*
X141971724Y-64278963D01*
X141800781Y-64294519D01*
X141630070Y-64276577D01*
X141630048Y-64276570D01*
X141629971Y-64276562D01*
X141465906Y-64225776D01*
X141314830Y-64144089D01*
X141182498Y-64034614D01*
X141073949Y-63901521D01*
X140993319Y-63749878D01*
X140943679Y-63585462D01*
X140926920Y-63414536D01*
X140926920Y-63405953D01*
X140926977Y-63397790D01*
X140926978Y-63397784D01*
X140927006Y-63393733D01*
X140946150Y-63223058D01*
X140998081Y-63059351D01*
X141080820Y-62908849D01*
X141191216Y-62777284D01*
X141325064Y-62669667D01*
X141477266Y-62590098D01*
X141642024Y-62541607D01*
X141642088Y-62541601D01*
X141642116Y-62541593D01*
X141813059Y-62526037D01*
X141983770Y-62543979D01*
X141983770Y-62543979D01*
G37*
G36*
X144523770Y-62543979D02*
X144523792Y-62543986D01*
X144523869Y-62543994D01*
X144687934Y-62594780D01*
X144839010Y-62676467D01*
X144971342Y-62785942D01*
X145079891Y-62919035D01*
X145160521Y-63070678D01*
X145210161Y-63235094D01*
X145226920Y-63406020D01*
X145226920Y-63414603D01*
X145226863Y-63422766D01*
X145226862Y-63422772D01*
X145226834Y-63426823D01*
X145207690Y-63597498D01*
X145155759Y-63761205D01*
X145073020Y-63911707D01*
X144962624Y-64043272D01*
X144828776Y-64150889D01*
X144676574Y-64230458D01*
X144511816Y-64278949D01*
X144511752Y-64278955D01*
X144511724Y-64278963D01*
X144340781Y-64294519D01*
X144170070Y-64276577D01*
X144170048Y-64276570D01*
X144169971Y-64276562D01*
X144005906Y-64225776D01*
X143854830Y-64144089D01*
X143722498Y-64034614D01*
X143613949Y-63901521D01*
X143533319Y-63749878D01*
X143483679Y-63585462D01*
X143466920Y-63414536D01*
X143466920Y-63405953D01*
X143466977Y-63397790D01*
X143466978Y-63397784D01*
X143467006Y-63393733D01*
X143486150Y-63223058D01*
X143538081Y-63059351D01*
X143620820Y-62908849D01*
X143731216Y-62777284D01*
X143865064Y-62669667D01*
X144017266Y-62590098D01*
X144182024Y-62541607D01*
X144182088Y-62541601D01*
X144182116Y-62541593D01*
X144353059Y-62526037D01*
X144523770Y-62543979D01*
X144523770Y-62543979D01*
G37*
G36*
X147063770Y-62543979D02*
X147063792Y-62543986D01*
X147063869Y-62543994D01*
X147227934Y-62594780D01*
X147379010Y-62676467D01*
X147511342Y-62785942D01*
X147619891Y-62919035D01*
X147700521Y-63070678D01*
X147750161Y-63235094D01*
X147766920Y-63406020D01*
X147766920Y-63414603D01*
X147766863Y-63422766D01*
X147766862Y-63422772D01*
X147766834Y-63426823D01*
X147747690Y-63597498D01*
X147695759Y-63761205D01*
X147613020Y-63911707D01*
X147502624Y-64043272D01*
X147368776Y-64150889D01*
X147216574Y-64230458D01*
X147051816Y-64278949D01*
X147051752Y-64278955D01*
X147051724Y-64278963D01*
X146880781Y-64294519D01*
X146710070Y-64276577D01*
X146710048Y-64276570D01*
X146709971Y-64276562D01*
X146545906Y-64225776D01*
X146394830Y-64144089D01*
X146262498Y-64034614D01*
X146153949Y-63901521D01*
X146073319Y-63749878D01*
X146023679Y-63585462D01*
X146006920Y-63414536D01*
X146006920Y-63405953D01*
X146006977Y-63397790D01*
X146006978Y-63397784D01*
X146007006Y-63393733D01*
X146026150Y-63223058D01*
X146078081Y-63059351D01*
X146160820Y-62908849D01*
X146271216Y-62777284D01*
X146405064Y-62669667D01*
X146557266Y-62590098D01*
X146722024Y-62541607D01*
X146722088Y-62541601D01*
X146722116Y-62541593D01*
X146893059Y-62526037D01*
X147063770Y-62543979D01*
X147063770Y-62543979D01*
G37*
G36*
X119123770Y-62543979D02*
X119123792Y-62543986D01*
X119123869Y-62543994D01*
X119287934Y-62594780D01*
X119439010Y-62676467D01*
X119571342Y-62785942D01*
X119679891Y-62919035D01*
X119760521Y-63070678D01*
X119810161Y-63235094D01*
X119826920Y-63406020D01*
X119826920Y-63414603D01*
X119826863Y-63422766D01*
X119826862Y-63422772D01*
X119826834Y-63426823D01*
X119807690Y-63597498D01*
X119755759Y-63761205D01*
X119673020Y-63911707D01*
X119562624Y-64043272D01*
X119428776Y-64150889D01*
X119276574Y-64230458D01*
X119111816Y-64278949D01*
X119111752Y-64278955D01*
X119111724Y-64278963D01*
X118940781Y-64294519D01*
X118770070Y-64276577D01*
X118770048Y-64276570D01*
X118769971Y-64276562D01*
X118605906Y-64225776D01*
X118454830Y-64144089D01*
X118322498Y-64034614D01*
X118213949Y-63901521D01*
X118133319Y-63749878D01*
X118083679Y-63585462D01*
X118066920Y-63414536D01*
X118066920Y-63405953D01*
X118066977Y-63397790D01*
X118066978Y-63397784D01*
X118067006Y-63393733D01*
X118086150Y-63223058D01*
X118138081Y-63059351D01*
X118220820Y-62908849D01*
X118331216Y-62777284D01*
X118465064Y-62669667D01*
X118617266Y-62590098D01*
X118782024Y-62541607D01*
X118782088Y-62541601D01*
X118782116Y-62541593D01*
X118953059Y-62526037D01*
X119123770Y-62543979D01*
X119123770Y-62543979D01*
G37*
G36*
X114746920Y-64290278D02*
X112986920Y-64290278D01*
X112986920Y-62530278D01*
X114746920Y-62530278D01*
X114746920Y-64290278D01*
X114746920Y-64290278D01*
G37*
G36*
X175348444Y-61388557D02*
X175510191Y-61421759D01*
X175662415Y-61485748D01*
X175799313Y-61578087D01*
X175915664Y-61695253D01*
X176007041Y-61832788D01*
X176069967Y-61985457D01*
X176101903Y-62146748D01*
X176101903Y-62146765D01*
X176102036Y-62147438D01*
X176099402Y-62336041D01*
X176099251Y-62336704D01*
X176099251Y-62336728D01*
X176062824Y-62497061D01*
X175995659Y-62647915D01*
X175900476Y-62782847D01*
X175780900Y-62896717D01*
X175641474Y-62985199D01*
X175487531Y-63044910D01*
X175324909Y-63073585D01*
X175159820Y-63070126D01*
X174998547Y-63034669D01*
X174847233Y-62968561D01*
X174711641Y-62874322D01*
X174596935Y-62755540D01*
X174507485Y-62616741D01*
X174446696Y-62463208D01*
X174416889Y-62300797D01*
X174419194Y-62135691D01*
X174453526Y-61974172D01*
X174518577Y-61822396D01*
X174611866Y-61686153D01*
X174729844Y-61570619D01*
X174868017Y-61480201D01*
X175021114Y-61418346D01*
X175183317Y-61387404D01*
X175348444Y-61388557D01*
X175348444Y-61388557D01*
G37*
G36*
X175348444Y-58848557D02*
X175510191Y-58881759D01*
X175662415Y-58945748D01*
X175799313Y-59038087D01*
X175915664Y-59155253D01*
X176007041Y-59292788D01*
X176069967Y-59445457D01*
X176101903Y-59606748D01*
X176101903Y-59606765D01*
X176102036Y-59607438D01*
X176099402Y-59796041D01*
X176099251Y-59796704D01*
X176099251Y-59796728D01*
X176062824Y-59957061D01*
X175995659Y-60107915D01*
X175900476Y-60242847D01*
X175780900Y-60356717D01*
X175641474Y-60445199D01*
X175487531Y-60504910D01*
X175324909Y-60533585D01*
X175159820Y-60530126D01*
X174998547Y-60494669D01*
X174847233Y-60428561D01*
X174711641Y-60334322D01*
X174596935Y-60215540D01*
X174507485Y-60076741D01*
X174446696Y-59923208D01*
X174416889Y-59760797D01*
X174419194Y-59595691D01*
X174453526Y-59434172D01*
X174518577Y-59282396D01*
X174611866Y-59146153D01*
X174729844Y-59030619D01*
X174868017Y-58940201D01*
X175021114Y-58878346D01*
X175183317Y-58847404D01*
X175348444Y-58848557D01*
X175348444Y-58848557D01*
G37*
G36*
X175348444Y-56308557D02*
X175510191Y-56341759D01*
X175662415Y-56405748D01*
X175799313Y-56498087D01*
X175915664Y-56615253D01*
X176007041Y-56752788D01*
X176069967Y-56905457D01*
X176101903Y-57066748D01*
X176101903Y-57066765D01*
X176102036Y-57067438D01*
X176099402Y-57256041D01*
X176099251Y-57256704D01*
X176099251Y-57256728D01*
X176062824Y-57417061D01*
X175995659Y-57567915D01*
X175900476Y-57702847D01*
X175780900Y-57816717D01*
X175641474Y-57905199D01*
X175487531Y-57964910D01*
X175324909Y-57993585D01*
X175159820Y-57990126D01*
X174998547Y-57954669D01*
X174847233Y-57888561D01*
X174711641Y-57794322D01*
X174596935Y-57675540D01*
X174507485Y-57536741D01*
X174446696Y-57383208D01*
X174416889Y-57220797D01*
X174419194Y-57055691D01*
X174453526Y-56894172D01*
X174518577Y-56742396D01*
X174611866Y-56606153D01*
X174729844Y-56490619D01*
X174868017Y-56400201D01*
X175021114Y-56338346D01*
X175183317Y-56307404D01*
X175348444Y-56308557D01*
X175348444Y-56308557D01*
G37*
G36*
X119123770Y-54923979D02*
X119123792Y-54923986D01*
X119123869Y-54923994D01*
X119287934Y-54974780D01*
X119439010Y-55056467D01*
X119571342Y-55165942D01*
X119679891Y-55299035D01*
X119760521Y-55450678D01*
X119810161Y-55615094D01*
X119826920Y-55786020D01*
X119826920Y-55794603D01*
X119826863Y-55802766D01*
X119826862Y-55802772D01*
X119826834Y-55806823D01*
X119807690Y-55977498D01*
X119755759Y-56141205D01*
X119673020Y-56291707D01*
X119562624Y-56423272D01*
X119428776Y-56530889D01*
X119276574Y-56610458D01*
X119111816Y-56658949D01*
X119111752Y-56658955D01*
X119111724Y-56658963D01*
X118940781Y-56674519D01*
X118770070Y-56656577D01*
X118770048Y-56656570D01*
X118769971Y-56656562D01*
X118605906Y-56605776D01*
X118454830Y-56524089D01*
X118322498Y-56414614D01*
X118213949Y-56281521D01*
X118133319Y-56129878D01*
X118083679Y-55965462D01*
X118066920Y-55794536D01*
X118066920Y-55785953D01*
X118066977Y-55777790D01*
X118066978Y-55777784D01*
X118067006Y-55773733D01*
X118086150Y-55603058D01*
X118138081Y-55439351D01*
X118220820Y-55288849D01*
X118331216Y-55157284D01*
X118465064Y-55049667D01*
X118617266Y-54970098D01*
X118782024Y-54921607D01*
X118782088Y-54921601D01*
X118782116Y-54921593D01*
X118953059Y-54906037D01*
X119123770Y-54923979D01*
X119123770Y-54923979D01*
G37*
G36*
X126743770Y-54923979D02*
X126743792Y-54923986D01*
X126743869Y-54923994D01*
X126907934Y-54974780D01*
X127059010Y-55056467D01*
X127191342Y-55165942D01*
X127299891Y-55299035D01*
X127380521Y-55450678D01*
X127430161Y-55615094D01*
X127446920Y-55786020D01*
X127446920Y-55794603D01*
X127446863Y-55802766D01*
X127446862Y-55802772D01*
X127446834Y-55806823D01*
X127427690Y-55977498D01*
X127375759Y-56141205D01*
X127293020Y-56291707D01*
X127182624Y-56423272D01*
X127048776Y-56530889D01*
X126896574Y-56610458D01*
X126731816Y-56658949D01*
X126731752Y-56658955D01*
X126731724Y-56658963D01*
X126560781Y-56674519D01*
X126390070Y-56656577D01*
X126390048Y-56656570D01*
X126389971Y-56656562D01*
X126225906Y-56605776D01*
X126074830Y-56524089D01*
X125942498Y-56414614D01*
X125833949Y-56281521D01*
X125753319Y-56129878D01*
X125703679Y-55965462D01*
X125686920Y-55794536D01*
X125686920Y-55785953D01*
X125686977Y-55777790D01*
X125686978Y-55777784D01*
X125687006Y-55773733D01*
X125706150Y-55603058D01*
X125758081Y-55439351D01*
X125840820Y-55288849D01*
X125951216Y-55157284D01*
X126085064Y-55049667D01*
X126237266Y-54970098D01*
X126402024Y-54921607D01*
X126402088Y-54921601D01*
X126402116Y-54921593D01*
X126573059Y-54906037D01*
X126743770Y-54923979D01*
X126743770Y-54923979D01*
G37*
G36*
X129283770Y-54923979D02*
X129283792Y-54923986D01*
X129283869Y-54923994D01*
X129447934Y-54974780D01*
X129599010Y-55056467D01*
X129731342Y-55165942D01*
X129839891Y-55299035D01*
X129920521Y-55450678D01*
X129970161Y-55615094D01*
X129986920Y-55786020D01*
X129986920Y-55794603D01*
X129986863Y-55802766D01*
X129986862Y-55802772D01*
X129986834Y-55806823D01*
X129967690Y-55977498D01*
X129915759Y-56141205D01*
X129833020Y-56291707D01*
X129722624Y-56423272D01*
X129588776Y-56530889D01*
X129436574Y-56610458D01*
X129271816Y-56658949D01*
X129271752Y-56658955D01*
X129271724Y-56658963D01*
X129100781Y-56674519D01*
X128930070Y-56656577D01*
X128930048Y-56656570D01*
X128929971Y-56656562D01*
X128765906Y-56605776D01*
X128614830Y-56524089D01*
X128482498Y-56414614D01*
X128373949Y-56281521D01*
X128293319Y-56129878D01*
X128243679Y-55965462D01*
X128226920Y-55794536D01*
X128226920Y-55785953D01*
X128226977Y-55777790D01*
X128226978Y-55777784D01*
X128227006Y-55773733D01*
X128246150Y-55603058D01*
X128298081Y-55439351D01*
X128380820Y-55288849D01*
X128491216Y-55157284D01*
X128625064Y-55049667D01*
X128777266Y-54970098D01*
X128942024Y-54921607D01*
X128942088Y-54921601D01*
X128942116Y-54921593D01*
X129113059Y-54906037D01*
X129283770Y-54923979D01*
X129283770Y-54923979D01*
G37*
G36*
X131823770Y-54923979D02*
X131823792Y-54923986D01*
X131823869Y-54923994D01*
X131987934Y-54974780D01*
X132139010Y-55056467D01*
X132271342Y-55165942D01*
X132379891Y-55299035D01*
X132460521Y-55450678D01*
X132510161Y-55615094D01*
X132526920Y-55786020D01*
X132526920Y-55794603D01*
X132526863Y-55802766D01*
X132526862Y-55802772D01*
X132526834Y-55806823D01*
X132507690Y-55977498D01*
X132455759Y-56141205D01*
X132373020Y-56291707D01*
X132262624Y-56423272D01*
X132128776Y-56530889D01*
X131976574Y-56610458D01*
X131811816Y-56658949D01*
X131811752Y-56658955D01*
X131811724Y-56658963D01*
X131640781Y-56674519D01*
X131470070Y-56656577D01*
X131470048Y-56656570D01*
X131469971Y-56656562D01*
X131305906Y-56605776D01*
X131154830Y-56524089D01*
X131022498Y-56414614D01*
X130913949Y-56281521D01*
X130833319Y-56129878D01*
X130783679Y-55965462D01*
X130766920Y-55794536D01*
X130766920Y-55785953D01*
X130766977Y-55777790D01*
X130766978Y-55777784D01*
X130767006Y-55773733D01*
X130786150Y-55603058D01*
X130838081Y-55439351D01*
X130920820Y-55288849D01*
X131031216Y-55157284D01*
X131165064Y-55049667D01*
X131317266Y-54970098D01*
X131482024Y-54921607D01*
X131482088Y-54921601D01*
X131482116Y-54921593D01*
X131653059Y-54906037D01*
X131823770Y-54923979D01*
X131823770Y-54923979D01*
G37*
G36*
X136903770Y-54923979D02*
X136903792Y-54923986D01*
X136903869Y-54923994D01*
X137067934Y-54974780D01*
X137219010Y-55056467D01*
X137351342Y-55165942D01*
X137459891Y-55299035D01*
X137540521Y-55450678D01*
X137590161Y-55615094D01*
X137606920Y-55786020D01*
X137606920Y-55794603D01*
X137606863Y-55802766D01*
X137606862Y-55802772D01*
X137606834Y-55806823D01*
X137587690Y-55977498D01*
X137535759Y-56141205D01*
X137453020Y-56291707D01*
X137342624Y-56423272D01*
X137208776Y-56530889D01*
X137056574Y-56610458D01*
X136891816Y-56658949D01*
X136891752Y-56658955D01*
X136891724Y-56658963D01*
X136720781Y-56674519D01*
X136550070Y-56656577D01*
X136550048Y-56656570D01*
X136549971Y-56656562D01*
X136385906Y-56605776D01*
X136234830Y-56524089D01*
X136102498Y-56414614D01*
X135993949Y-56281521D01*
X135913319Y-56129878D01*
X135863679Y-55965462D01*
X135846920Y-55794536D01*
X135846920Y-55785953D01*
X135846977Y-55777790D01*
X135846978Y-55777784D01*
X135847006Y-55773733D01*
X135866150Y-55603058D01*
X135918081Y-55439351D01*
X136000820Y-55288849D01*
X136111216Y-55157284D01*
X136245064Y-55049667D01*
X136397266Y-54970098D01*
X136562024Y-54921607D01*
X136562088Y-54921601D01*
X136562116Y-54921593D01*
X136733059Y-54906037D01*
X136903770Y-54923979D01*
X136903770Y-54923979D01*
G37*
G36*
X139443770Y-54923979D02*
X139443792Y-54923986D01*
X139443869Y-54923994D01*
X139607934Y-54974780D01*
X139759010Y-55056467D01*
X139891342Y-55165942D01*
X139999891Y-55299035D01*
X140080521Y-55450678D01*
X140130161Y-55615094D01*
X140146920Y-55786020D01*
X140146920Y-55794603D01*
X140146863Y-55802766D01*
X140146862Y-55802772D01*
X140146834Y-55806823D01*
X140127690Y-55977498D01*
X140075759Y-56141205D01*
X139993020Y-56291707D01*
X139882624Y-56423272D01*
X139748776Y-56530889D01*
X139596574Y-56610458D01*
X139431816Y-56658949D01*
X139431752Y-56658955D01*
X139431724Y-56658963D01*
X139260781Y-56674519D01*
X139090070Y-56656577D01*
X139090048Y-56656570D01*
X139089971Y-56656562D01*
X138925906Y-56605776D01*
X138774830Y-56524089D01*
X138642498Y-56414614D01*
X138533949Y-56281521D01*
X138453319Y-56129878D01*
X138403679Y-55965462D01*
X138386920Y-55794536D01*
X138386920Y-55785953D01*
X138386977Y-55777790D01*
X138386978Y-55777784D01*
X138387006Y-55773733D01*
X138406150Y-55603058D01*
X138458081Y-55439351D01*
X138540820Y-55288849D01*
X138651216Y-55157284D01*
X138785064Y-55049667D01*
X138937266Y-54970098D01*
X139102024Y-54921607D01*
X139102088Y-54921601D01*
X139102116Y-54921593D01*
X139273059Y-54906037D01*
X139443770Y-54923979D01*
X139443770Y-54923979D01*
G37*
G36*
X141983770Y-54923979D02*
X141983792Y-54923986D01*
X141983869Y-54923994D01*
X142147934Y-54974780D01*
X142299010Y-55056467D01*
X142431342Y-55165942D01*
X142539891Y-55299035D01*
X142620521Y-55450678D01*
X142670161Y-55615094D01*
X142686920Y-55786020D01*
X142686920Y-55794603D01*
X142686863Y-55802766D01*
X142686862Y-55802772D01*
X142686834Y-55806823D01*
X142667690Y-55977498D01*
X142615759Y-56141205D01*
X142533020Y-56291707D01*
X142422624Y-56423272D01*
X142288776Y-56530889D01*
X142136574Y-56610458D01*
X141971816Y-56658949D01*
X141971752Y-56658955D01*
X141971724Y-56658963D01*
X141800781Y-56674519D01*
X141630070Y-56656577D01*
X141630048Y-56656570D01*
X141629971Y-56656562D01*
X141465906Y-56605776D01*
X141314830Y-56524089D01*
X141182498Y-56414614D01*
X141073949Y-56281521D01*
X140993319Y-56129878D01*
X140943679Y-55965462D01*
X140926920Y-55794536D01*
X140926920Y-55785953D01*
X140926977Y-55777790D01*
X140926978Y-55777784D01*
X140927006Y-55773733D01*
X140946150Y-55603058D01*
X140998081Y-55439351D01*
X141080820Y-55288849D01*
X141191216Y-55157284D01*
X141325064Y-55049667D01*
X141477266Y-54970098D01*
X141642024Y-54921607D01*
X141642088Y-54921601D01*
X141642116Y-54921593D01*
X141813059Y-54906037D01*
X141983770Y-54923979D01*
X141983770Y-54923979D01*
G37*
G36*
X144523770Y-54923979D02*
X144523792Y-54923986D01*
X144523869Y-54923994D01*
X144687934Y-54974780D01*
X144839010Y-55056467D01*
X144971342Y-55165942D01*
X145079891Y-55299035D01*
X145160521Y-55450678D01*
X145210161Y-55615094D01*
X145226920Y-55786020D01*
X145226920Y-55794603D01*
X145226863Y-55802766D01*
X145226862Y-55802772D01*
X145226834Y-55806823D01*
X145207690Y-55977498D01*
X145155759Y-56141205D01*
X145073020Y-56291707D01*
X144962624Y-56423272D01*
X144828776Y-56530889D01*
X144676574Y-56610458D01*
X144511816Y-56658949D01*
X144511752Y-56658955D01*
X144511724Y-56658963D01*
X144340781Y-56674519D01*
X144170070Y-56656577D01*
X144170048Y-56656570D01*
X144169971Y-56656562D01*
X144005906Y-56605776D01*
X143854830Y-56524089D01*
X143722498Y-56414614D01*
X143613949Y-56281521D01*
X143533319Y-56129878D01*
X143483679Y-55965462D01*
X143466920Y-55794536D01*
X143466920Y-55785953D01*
X143466977Y-55777790D01*
X143466978Y-55777784D01*
X143467006Y-55773733D01*
X143486150Y-55603058D01*
X143538081Y-55439351D01*
X143620820Y-55288849D01*
X143731216Y-55157284D01*
X143865064Y-55049667D01*
X144017266Y-54970098D01*
X144182024Y-54921607D01*
X144182088Y-54921601D01*
X144182116Y-54921593D01*
X144353059Y-54906037D01*
X144523770Y-54923979D01*
X144523770Y-54923979D01*
G37*
G36*
X147063770Y-54923979D02*
X147063792Y-54923986D01*
X147063869Y-54923994D01*
X147227934Y-54974780D01*
X147379010Y-55056467D01*
X147511342Y-55165942D01*
X147619891Y-55299035D01*
X147700521Y-55450678D01*
X147750161Y-55615094D01*
X147766920Y-55786020D01*
X147766920Y-55794603D01*
X147766863Y-55802766D01*
X147766862Y-55802772D01*
X147766834Y-55806823D01*
X147747690Y-55977498D01*
X147695759Y-56141205D01*
X147613020Y-56291707D01*
X147502624Y-56423272D01*
X147368776Y-56530889D01*
X147216574Y-56610458D01*
X147051816Y-56658949D01*
X147051752Y-56658955D01*
X147051724Y-56658963D01*
X146880781Y-56674519D01*
X146710070Y-56656577D01*
X146710048Y-56656570D01*
X146709971Y-56656562D01*
X146545906Y-56605776D01*
X146394830Y-56524089D01*
X146262498Y-56414614D01*
X146153949Y-56281521D01*
X146073319Y-56129878D01*
X146023679Y-55965462D01*
X146006920Y-55794536D01*
X146006920Y-55785953D01*
X146006977Y-55777790D01*
X146006978Y-55777784D01*
X146007006Y-55773733D01*
X146026150Y-55603058D01*
X146078081Y-55439351D01*
X146160820Y-55288849D01*
X146271216Y-55157284D01*
X146405064Y-55049667D01*
X146557266Y-54970098D01*
X146722024Y-54921607D01*
X146722088Y-54921601D01*
X146722116Y-54921593D01*
X146893059Y-54906037D01*
X147063770Y-54923979D01*
X147063770Y-54923979D01*
G37*
G36*
X134363770Y-54923979D02*
X134363792Y-54923986D01*
X134363869Y-54923994D01*
X134527934Y-54974780D01*
X134679010Y-55056467D01*
X134811342Y-55165942D01*
X134919891Y-55299035D01*
X135000521Y-55450678D01*
X135050161Y-55615094D01*
X135066920Y-55786020D01*
X135066920Y-55794603D01*
X135066863Y-55802766D01*
X135066862Y-55802772D01*
X135066834Y-55806823D01*
X135047690Y-55977498D01*
X134995759Y-56141205D01*
X134913020Y-56291707D01*
X134802624Y-56423272D01*
X134668776Y-56530889D01*
X134516574Y-56610458D01*
X134351816Y-56658949D01*
X134351752Y-56658955D01*
X134351724Y-56658963D01*
X134180781Y-56674519D01*
X134010070Y-56656577D01*
X134010048Y-56656570D01*
X134009971Y-56656562D01*
X133845906Y-56605776D01*
X133694830Y-56524089D01*
X133562498Y-56414614D01*
X133453949Y-56281521D01*
X133373319Y-56129878D01*
X133323679Y-55965462D01*
X133306920Y-55794536D01*
X133306920Y-55785953D01*
X133306977Y-55777790D01*
X133306978Y-55777784D01*
X133307006Y-55773733D01*
X133326150Y-55603058D01*
X133378081Y-55439351D01*
X133460820Y-55288849D01*
X133571216Y-55157284D01*
X133705064Y-55049667D01*
X133857266Y-54970098D01*
X134022024Y-54921607D01*
X134022088Y-54921601D01*
X134022116Y-54921593D01*
X134193059Y-54906037D01*
X134363770Y-54923979D01*
X134363770Y-54923979D01*
G37*
G36*
X114043770Y-54923979D02*
X114043792Y-54923986D01*
X114043869Y-54923994D01*
X114207934Y-54974780D01*
X114359010Y-55056467D01*
X114491342Y-55165942D01*
X114599891Y-55299035D01*
X114680521Y-55450678D01*
X114730161Y-55615094D01*
X114746920Y-55786020D01*
X114746920Y-55794603D01*
X114746863Y-55802766D01*
X114746862Y-55802772D01*
X114746834Y-55806823D01*
X114727690Y-55977498D01*
X114675759Y-56141205D01*
X114593020Y-56291707D01*
X114482624Y-56423272D01*
X114348776Y-56530889D01*
X114196574Y-56610458D01*
X114031816Y-56658949D01*
X114031752Y-56658955D01*
X114031724Y-56658963D01*
X113860781Y-56674519D01*
X113690070Y-56656577D01*
X113690048Y-56656570D01*
X113689971Y-56656562D01*
X113525906Y-56605776D01*
X113374830Y-56524089D01*
X113242498Y-56414614D01*
X113133949Y-56281521D01*
X113053319Y-56129878D01*
X113003679Y-55965462D01*
X112986920Y-55794536D01*
X112986920Y-55785953D01*
X112986977Y-55777790D01*
X112986978Y-55777784D01*
X112987006Y-55773733D01*
X113006150Y-55603058D01*
X113058081Y-55439351D01*
X113140820Y-55288849D01*
X113251216Y-55157284D01*
X113385064Y-55049667D01*
X113537266Y-54970098D01*
X113702024Y-54921607D01*
X113702088Y-54921601D01*
X113702116Y-54921593D01*
X113873059Y-54906037D01*
X114043770Y-54923979D01*
X114043770Y-54923979D01*
G37*
G36*
X124203770Y-54923979D02*
X124203792Y-54923986D01*
X124203869Y-54923994D01*
X124367934Y-54974780D01*
X124519010Y-55056467D01*
X124651342Y-55165942D01*
X124759891Y-55299035D01*
X124840521Y-55450678D01*
X124890161Y-55615094D01*
X124906920Y-55786020D01*
X124906920Y-55794603D01*
X124906863Y-55802766D01*
X124906862Y-55802772D01*
X124906834Y-55806823D01*
X124887690Y-55977498D01*
X124835759Y-56141205D01*
X124753020Y-56291707D01*
X124642624Y-56423272D01*
X124508776Y-56530889D01*
X124356574Y-56610458D01*
X124191816Y-56658949D01*
X124191752Y-56658955D01*
X124191724Y-56658963D01*
X124020781Y-56674519D01*
X123850070Y-56656577D01*
X123850048Y-56656570D01*
X123849971Y-56656562D01*
X123685906Y-56605776D01*
X123534830Y-56524089D01*
X123402498Y-56414614D01*
X123293949Y-56281521D01*
X123213319Y-56129878D01*
X123163679Y-55965462D01*
X123146920Y-55794536D01*
X123146920Y-55785953D01*
X123146977Y-55777790D01*
X123146978Y-55777784D01*
X123147006Y-55773733D01*
X123166150Y-55603058D01*
X123218081Y-55439351D01*
X123300820Y-55288849D01*
X123411216Y-55157284D01*
X123545064Y-55049667D01*
X123697266Y-54970098D01*
X123862024Y-54921607D01*
X123862088Y-54921601D01*
X123862116Y-54921593D01*
X124033059Y-54906037D01*
X124203770Y-54923979D01*
X124203770Y-54923979D01*
G37*
G36*
X121663770Y-54923979D02*
X121663792Y-54923986D01*
X121663869Y-54923994D01*
X121827934Y-54974780D01*
X121979010Y-55056467D01*
X122111342Y-55165942D01*
X122219891Y-55299035D01*
X122300521Y-55450678D01*
X122350161Y-55615094D01*
X122366920Y-55786020D01*
X122366920Y-55794603D01*
X122366863Y-55802766D01*
X122366862Y-55802772D01*
X122366834Y-55806823D01*
X122347690Y-55977498D01*
X122295759Y-56141205D01*
X122213020Y-56291707D01*
X122102624Y-56423272D01*
X121968776Y-56530889D01*
X121816574Y-56610458D01*
X121651816Y-56658949D01*
X121651752Y-56658955D01*
X121651724Y-56658963D01*
X121480781Y-56674519D01*
X121310070Y-56656577D01*
X121310048Y-56656570D01*
X121309971Y-56656562D01*
X121145906Y-56605776D01*
X120994830Y-56524089D01*
X120862498Y-56414614D01*
X120753949Y-56281521D01*
X120673319Y-56129878D01*
X120623679Y-55965462D01*
X120606920Y-55794536D01*
X120606920Y-55785953D01*
X120606977Y-55777790D01*
X120606978Y-55777784D01*
X120607006Y-55773733D01*
X120626150Y-55603058D01*
X120678081Y-55439351D01*
X120760820Y-55288849D01*
X120871216Y-55157284D01*
X121005064Y-55049667D01*
X121157266Y-54970098D01*
X121322024Y-54921607D01*
X121322088Y-54921601D01*
X121322116Y-54921593D01*
X121493059Y-54906037D01*
X121663770Y-54923979D01*
X121663770Y-54923979D01*
G37*
G36*
X116583770Y-54923979D02*
X116583792Y-54923986D01*
X116583869Y-54923994D01*
X116747934Y-54974780D01*
X116899010Y-55056467D01*
X117031342Y-55165942D01*
X117139891Y-55299035D01*
X117220521Y-55450678D01*
X117270161Y-55615094D01*
X117286920Y-55786020D01*
X117286920Y-55794603D01*
X117286863Y-55802766D01*
X117286862Y-55802772D01*
X117286834Y-55806823D01*
X117267690Y-55977498D01*
X117215759Y-56141205D01*
X117133020Y-56291707D01*
X117022624Y-56423272D01*
X116888776Y-56530889D01*
X116736574Y-56610458D01*
X116571816Y-56658949D01*
X116571752Y-56658955D01*
X116571724Y-56658963D01*
X116400781Y-56674519D01*
X116230070Y-56656577D01*
X116230048Y-56656570D01*
X116229971Y-56656562D01*
X116065906Y-56605776D01*
X115914830Y-56524089D01*
X115782498Y-56414614D01*
X115673949Y-56281521D01*
X115593319Y-56129878D01*
X115543679Y-55965462D01*
X115526920Y-55794536D01*
X115526920Y-55785953D01*
X115526977Y-55777790D01*
X115526978Y-55777784D01*
X115527006Y-55773733D01*
X115546150Y-55603058D01*
X115598081Y-55439351D01*
X115680820Y-55288849D01*
X115791216Y-55157284D01*
X115925064Y-55049667D01*
X116077266Y-54970098D01*
X116242024Y-54921607D01*
X116242088Y-54921601D01*
X116242116Y-54921593D01*
X116413059Y-54906037D01*
X116583770Y-54923979D01*
X116583770Y-54923979D01*
G37*
G36*
X175348444Y-53768557D02*
X175510191Y-53801759D01*
X175662415Y-53865748D01*
X175799313Y-53958087D01*
X175915664Y-54075253D01*
X176007041Y-54212788D01*
X176069967Y-54365457D01*
X176101903Y-54526748D01*
X176101903Y-54526765D01*
X176102036Y-54527438D01*
X176099402Y-54716041D01*
X176099251Y-54716704D01*
X176099251Y-54716728D01*
X176062824Y-54877061D01*
X175995659Y-55027915D01*
X175900476Y-55162847D01*
X175780900Y-55276717D01*
X175641474Y-55365199D01*
X175487531Y-55424910D01*
X175324909Y-55453585D01*
X175159820Y-55450126D01*
X174998547Y-55414669D01*
X174847233Y-55348561D01*
X174711641Y-55254322D01*
X174596935Y-55135540D01*
X174507485Y-54996741D01*
X174446696Y-54843208D01*
X174416889Y-54680797D01*
X174419194Y-54515691D01*
X174453526Y-54354172D01*
X174518577Y-54202396D01*
X174611866Y-54066153D01*
X174729844Y-53950619D01*
X174868017Y-53860201D01*
X175021114Y-53798346D01*
X175183317Y-53767404D01*
X175348444Y-53768557D01*
X175348444Y-53768557D01*
G37*
G36*
X175348444Y-51228557D02*
X175510191Y-51261759D01*
X175662415Y-51325748D01*
X175799313Y-51418087D01*
X175915664Y-51535253D01*
X176007041Y-51672788D01*
X176069967Y-51825457D01*
X176101903Y-51986748D01*
X176101903Y-51986765D01*
X176102036Y-51987438D01*
X176099402Y-52176041D01*
X176099251Y-52176704D01*
X176099251Y-52176728D01*
X176062824Y-52337061D01*
X175995659Y-52487915D01*
X175900476Y-52622847D01*
X175780900Y-52736717D01*
X175641474Y-52825199D01*
X175487531Y-52884910D01*
X175324909Y-52913585D01*
X175159820Y-52910126D01*
X174998547Y-52874669D01*
X174847233Y-52808561D01*
X174711641Y-52714322D01*
X174596935Y-52595540D01*
X174507485Y-52456741D01*
X174446696Y-52303208D01*
X174416889Y-52140797D01*
X174419194Y-51975691D01*
X174453526Y-51814172D01*
X174518577Y-51662396D01*
X174611866Y-51526153D01*
X174729844Y-51410619D01*
X174868017Y-51320201D01*
X175021114Y-51258346D01*
X175183317Y-51227404D01*
X175348444Y-51228557D01*
X175348444Y-51228557D01*
G37*
G36*
X96612432Y-50555583D02*
X96781486Y-50590284D01*
X96940576Y-50657159D01*
X97083652Y-50753665D01*
X97205254Y-50876119D01*
X97300757Y-51019862D01*
X97366522Y-51179420D01*
X97399905Y-51348022D01*
X97399905Y-51348039D01*
X97400038Y-51348712D01*
X97397285Y-51545827D01*
X97397134Y-51546490D01*
X97397134Y-51546514D01*
X97359055Y-51714119D01*
X97288863Y-51871771D01*
X97189381Y-52012797D01*
X97064408Y-52131807D01*
X96918692Y-52224282D01*
X96757798Y-52286688D01*
X96587838Y-52316657D01*
X96415300Y-52313042D01*
X96246747Y-52275983D01*
X96088604Y-52206892D01*
X95946893Y-52108401D01*
X95827007Y-51984255D01*
X95733523Y-51839198D01*
X95669992Y-51678735D01*
X95638839Y-51508993D01*
X95641248Y-51336435D01*
X95677129Y-51167627D01*
X95745116Y-51009001D01*
X95842617Y-50866606D01*
X95965918Y-50745860D01*
X96110323Y-50651364D01*
X96270334Y-50586715D01*
X96439856Y-50554377D01*
X96612432Y-50555583D01*
X96612432Y-50555583D01*
G37*
G36*
X104232432Y-50555583D02*
X104401486Y-50590284D01*
X104560576Y-50657159D01*
X104703652Y-50753665D01*
X104825254Y-50876119D01*
X104920757Y-51019862D01*
X104986522Y-51179420D01*
X105019905Y-51348022D01*
X105019905Y-51348039D01*
X105020038Y-51348712D01*
X105017285Y-51545827D01*
X105017134Y-51546490D01*
X105017134Y-51546514D01*
X104979055Y-51714119D01*
X104908863Y-51871771D01*
X104809381Y-52012797D01*
X104684408Y-52131807D01*
X104538692Y-52224282D01*
X104377798Y-52286688D01*
X104207838Y-52316657D01*
X104035300Y-52313042D01*
X103866747Y-52275983D01*
X103708604Y-52206892D01*
X103566893Y-52108401D01*
X103447007Y-51984255D01*
X103353523Y-51839198D01*
X103289992Y-51678735D01*
X103258839Y-51508993D01*
X103261248Y-51336435D01*
X103297129Y-51167627D01*
X103365116Y-51009001D01*
X103462617Y-50866606D01*
X103585918Y-50745860D01*
X103730323Y-50651364D01*
X103890334Y-50586715D01*
X104059856Y-50554377D01*
X104232432Y-50555583D01*
X104232432Y-50555583D01*
G37*
G36*
X90523383Y-48331393D02*
X90846115Y-48397641D01*
X91149835Y-48525312D01*
X91422979Y-48709550D01*
X91655130Y-48943327D01*
X91837452Y-49217745D01*
X91963004Y-49522357D01*
X92026860Y-49844852D01*
X92026860Y-49844877D01*
X92026992Y-49845545D01*
X92021738Y-50221857D01*
X92021586Y-50222525D01*
X92021586Y-50222544D01*
X91948750Y-50543133D01*
X91814741Y-50844123D01*
X91624830Y-51113338D01*
X91386240Y-51340544D01*
X91108057Y-51517084D01*
X90800896Y-51636224D01*
X90476431Y-51693437D01*
X90147038Y-51686536D01*
X89825257Y-51615788D01*
X89523348Y-51483888D01*
X89252808Y-51295857D01*
X89023942Y-51058859D01*
X88845466Y-50781919D01*
X88724182Y-50475590D01*
X88664707Y-50151536D01*
X88669307Y-49822106D01*
X88737807Y-49499838D01*
X88867598Y-49197011D01*
X89053736Y-48925166D01*
X89289126Y-48694654D01*
X89564817Y-48514247D01*
X89870287Y-48390829D01*
X90193919Y-48329092D01*
X90523383Y-48331393D01*
X90523383Y-48331393D01*
G37*
G36*
X180693383Y-48331393D02*
X181016115Y-48397641D01*
X181319835Y-48525312D01*
X181592979Y-48709550D01*
X181825130Y-48943327D01*
X182007452Y-49217745D01*
X182133004Y-49522357D01*
X182196860Y-49844852D01*
X182196860Y-49844877D01*
X182196992Y-49845545D01*
X182191738Y-50221857D01*
X182191586Y-50222525D01*
X182191586Y-50222544D01*
X182118750Y-50543133D01*
X181984741Y-50844123D01*
X181794830Y-51113338D01*
X181556240Y-51340544D01*
X181278057Y-51517084D01*
X180970896Y-51636224D01*
X180646431Y-51693437D01*
X180317038Y-51686536D01*
X179995257Y-51615788D01*
X179693348Y-51483888D01*
X179422808Y-51295857D01*
X179193942Y-51058859D01*
X179015466Y-50781919D01*
X178894182Y-50475590D01*
X178834707Y-50151536D01*
X178839307Y-49822106D01*
X178907807Y-49499838D01*
X179037598Y-49197011D01*
X179223736Y-48925166D01*
X179459126Y-48694654D01*
X179734817Y-48514247D01*
X180040287Y-48390829D01*
X180363919Y-48329092D01*
X180693383Y-48331393D01*
X180693383Y-48331393D01*
G37*
G36*
X116928444Y-47418557D02*
X117090191Y-47451759D01*
X117242415Y-47515748D01*
X117379313Y-47608087D01*
X117495664Y-47725253D01*
X117587041Y-47862788D01*
X117649967Y-48015457D01*
X117681903Y-48176748D01*
X117681903Y-48176765D01*
X117682036Y-48177438D01*
X117679402Y-48366041D01*
X117679251Y-48366704D01*
X117679251Y-48366728D01*
X117642824Y-48527061D01*
X117575659Y-48677915D01*
X117480476Y-48812847D01*
X117360900Y-48926717D01*
X117221474Y-49015199D01*
X117067531Y-49074910D01*
X116904909Y-49103585D01*
X116739820Y-49100126D01*
X116578547Y-49064669D01*
X116427233Y-48998561D01*
X116291641Y-48904322D01*
X116176935Y-48785540D01*
X116087485Y-48646741D01*
X116026696Y-48493208D01*
X115996889Y-48330797D01*
X115999194Y-48165691D01*
X116033526Y-48004172D01*
X116098577Y-47852396D01*
X116191866Y-47716153D01*
X116309844Y-47600619D01*
X116448017Y-47510201D01*
X116601114Y-47448346D01*
X116763317Y-47417404D01*
X116928444Y-47418557D01*
X116928444Y-47418557D01*
G37*
G36*
X101688444Y-47418557D02*
X101850191Y-47451759D01*
X102002415Y-47515748D01*
X102139313Y-47608087D01*
X102255664Y-47725253D01*
X102347041Y-47862788D01*
X102409967Y-48015457D01*
X102441903Y-48176748D01*
X102441903Y-48176765D01*
X102442036Y-48177438D01*
X102439402Y-48366041D01*
X102439251Y-48366704D01*
X102439251Y-48366728D01*
X102402824Y-48527061D01*
X102335659Y-48677915D01*
X102240476Y-48812847D01*
X102120900Y-48926717D01*
X101981474Y-49015199D01*
X101827531Y-49074910D01*
X101664909Y-49103585D01*
X101499820Y-49100126D01*
X101338547Y-49064669D01*
X101187233Y-48998561D01*
X101051641Y-48904322D01*
X100936935Y-48785540D01*
X100847485Y-48646741D01*
X100786696Y-48493208D01*
X100756889Y-48330797D01*
X100759194Y-48165691D01*
X100793526Y-48004172D01*
X100858577Y-47852396D01*
X100951866Y-47716153D01*
X101069844Y-47600619D01*
X101208017Y-47510201D01*
X101361114Y-47448346D01*
X101523317Y-47417404D01*
X101688444Y-47418557D01*
X101688444Y-47418557D01*
G37*
G36*
X104228444Y-47418557D02*
X104390191Y-47451759D01*
X104542415Y-47515748D01*
X104679313Y-47608087D01*
X104795664Y-47725253D01*
X104887041Y-47862788D01*
X104949967Y-48015457D01*
X104981903Y-48176748D01*
X104981903Y-48176765D01*
X104982036Y-48177438D01*
X104979402Y-48366041D01*
X104979251Y-48366704D01*
X104979251Y-48366728D01*
X104942824Y-48527061D01*
X104875659Y-48677915D01*
X104780476Y-48812847D01*
X104660900Y-48926717D01*
X104521474Y-49015199D01*
X104367531Y-49074910D01*
X104204909Y-49103585D01*
X104039820Y-49100126D01*
X103878547Y-49064669D01*
X103727233Y-48998561D01*
X103591641Y-48904322D01*
X103476935Y-48785540D01*
X103387485Y-48646741D01*
X103326696Y-48493208D01*
X103296889Y-48330797D01*
X103299194Y-48165691D01*
X103333526Y-48004172D01*
X103398577Y-47852396D01*
X103491866Y-47716153D01*
X103609844Y-47600619D01*
X103748017Y-47510201D01*
X103901114Y-47448346D01*
X104063317Y-47417404D01*
X104228444Y-47418557D01*
X104228444Y-47418557D01*
G37*
G36*
X106768444Y-47418557D02*
X106930191Y-47451759D01*
X107082415Y-47515748D01*
X107219313Y-47608087D01*
X107335664Y-47725253D01*
X107427041Y-47862788D01*
X107489967Y-48015457D01*
X107521903Y-48176748D01*
X107521903Y-48176765D01*
X107522036Y-48177438D01*
X107519402Y-48366041D01*
X107519251Y-48366704D01*
X107519251Y-48366728D01*
X107482824Y-48527061D01*
X107415659Y-48677915D01*
X107320476Y-48812847D01*
X107200900Y-48926717D01*
X107061474Y-49015199D01*
X106907531Y-49074910D01*
X106744909Y-49103585D01*
X106579820Y-49100126D01*
X106418547Y-49064669D01*
X106267233Y-48998561D01*
X106131641Y-48904322D01*
X106016935Y-48785540D01*
X105927485Y-48646741D01*
X105866696Y-48493208D01*
X105836889Y-48330797D01*
X105839194Y-48165691D01*
X105873526Y-48004172D01*
X105938577Y-47852396D01*
X106031866Y-47716153D01*
X106149844Y-47600619D01*
X106288017Y-47510201D01*
X106441114Y-47448346D01*
X106603317Y-47417404D01*
X106768444Y-47418557D01*
X106768444Y-47418557D01*
G37*
G36*
X109308444Y-47418557D02*
X109470191Y-47451759D01*
X109622415Y-47515748D01*
X109759313Y-47608087D01*
X109875664Y-47725253D01*
X109967041Y-47862788D01*
X110029967Y-48015457D01*
X110061903Y-48176748D01*
X110061903Y-48176765D01*
X110062036Y-48177438D01*
X110059402Y-48366041D01*
X110059251Y-48366704D01*
X110059251Y-48366728D01*
X110022824Y-48527061D01*
X109955659Y-48677915D01*
X109860476Y-48812847D01*
X109740900Y-48926717D01*
X109601474Y-49015199D01*
X109447531Y-49074910D01*
X109284909Y-49103585D01*
X109119820Y-49100126D01*
X108958547Y-49064669D01*
X108807233Y-48998561D01*
X108671641Y-48904322D01*
X108556935Y-48785540D01*
X108467485Y-48646741D01*
X108406696Y-48493208D01*
X108376889Y-48330797D01*
X108379194Y-48165691D01*
X108413526Y-48004172D01*
X108478577Y-47852396D01*
X108571866Y-47716153D01*
X108689844Y-47600619D01*
X108828017Y-47510201D01*
X108981114Y-47448346D01*
X109143317Y-47417404D01*
X109308444Y-47418557D01*
X109308444Y-47418557D01*
G37*
G36*
X111848444Y-47418557D02*
X112010191Y-47451759D01*
X112162415Y-47515748D01*
X112299313Y-47608087D01*
X112415664Y-47725253D01*
X112507041Y-47862788D01*
X112569967Y-48015457D01*
X112601903Y-48176748D01*
X112601903Y-48176765D01*
X112602036Y-48177438D01*
X112599402Y-48366041D01*
X112599251Y-48366704D01*
X112599251Y-48366728D01*
X112562824Y-48527061D01*
X112495659Y-48677915D01*
X112400476Y-48812847D01*
X112280900Y-48926717D01*
X112141474Y-49015199D01*
X111987531Y-49074910D01*
X111824909Y-49103585D01*
X111659820Y-49100126D01*
X111498547Y-49064669D01*
X111347233Y-48998561D01*
X111211641Y-48904322D01*
X111096935Y-48785540D01*
X111007485Y-48646741D01*
X110946696Y-48493208D01*
X110916889Y-48330797D01*
X110919194Y-48165691D01*
X110953526Y-48004172D01*
X111018577Y-47852396D01*
X111111866Y-47716153D01*
X111229844Y-47600619D01*
X111368017Y-47510201D01*
X111521114Y-47448346D01*
X111683317Y-47417404D01*
X111848444Y-47418557D01*
X111848444Y-47418557D01*
G37*
G36*
X114388444Y-47418557D02*
X114550191Y-47451759D01*
X114702415Y-47515748D01*
X114839313Y-47608087D01*
X114955664Y-47725253D01*
X115047041Y-47862788D01*
X115109967Y-48015457D01*
X115141903Y-48176748D01*
X115141903Y-48176765D01*
X115142036Y-48177438D01*
X115139402Y-48366041D01*
X115139251Y-48366704D01*
X115139251Y-48366728D01*
X115102824Y-48527061D01*
X115035659Y-48677915D01*
X114940476Y-48812847D01*
X114820900Y-48926717D01*
X114681474Y-49015199D01*
X114527531Y-49074910D01*
X114364909Y-49103585D01*
X114199820Y-49100126D01*
X114038547Y-49064669D01*
X113887233Y-48998561D01*
X113751641Y-48904322D01*
X113636935Y-48785540D01*
X113547485Y-48646741D01*
X113486696Y-48493208D01*
X113456889Y-48330797D01*
X113459194Y-48165691D01*
X113493526Y-48004172D01*
X113558577Y-47852396D01*
X113651866Y-47716153D01*
X113769844Y-47600619D01*
X113908017Y-47510201D01*
X114061114Y-47448346D01*
X114223317Y-47417404D01*
X114388444Y-47418557D01*
X114388444Y-47418557D01*
G37*
G36*
X139788444Y-47418557D02*
X139950191Y-47451759D01*
X140102415Y-47515748D01*
X140239313Y-47608087D01*
X140355664Y-47725253D01*
X140447041Y-47862788D01*
X140509967Y-48015457D01*
X140541903Y-48176748D01*
X140541903Y-48176765D01*
X140542036Y-48177438D01*
X140539402Y-48366041D01*
X140539251Y-48366704D01*
X140539251Y-48366728D01*
X140502824Y-48527061D01*
X140435659Y-48677915D01*
X140340476Y-48812847D01*
X140220900Y-48926717D01*
X140081474Y-49015199D01*
X139927531Y-49074910D01*
X139764909Y-49103585D01*
X139599820Y-49100126D01*
X139438547Y-49064669D01*
X139287233Y-48998561D01*
X139151641Y-48904322D01*
X139036935Y-48785540D01*
X138947485Y-48646741D01*
X138886696Y-48493208D01*
X138856889Y-48330797D01*
X138859194Y-48165691D01*
X138893526Y-48004172D01*
X138958577Y-47852396D01*
X139051866Y-47716153D01*
X139169844Y-47600619D01*
X139308017Y-47510201D01*
X139461114Y-47448346D01*
X139623317Y-47417404D01*
X139788444Y-47418557D01*
X139788444Y-47418557D01*
G37*
G36*
X137248444Y-47418557D02*
X137410191Y-47451759D01*
X137562415Y-47515748D01*
X137699313Y-47608087D01*
X137815664Y-47725253D01*
X137907041Y-47862788D01*
X137969967Y-48015457D01*
X138001903Y-48176748D01*
X138001903Y-48176765D01*
X138002036Y-48177438D01*
X137999402Y-48366041D01*
X137999251Y-48366704D01*
X137999251Y-48366728D01*
X137962824Y-48527061D01*
X137895659Y-48677915D01*
X137800476Y-48812847D01*
X137680900Y-48926717D01*
X137541474Y-49015199D01*
X137387531Y-49074910D01*
X137224909Y-49103585D01*
X137059820Y-49100126D01*
X136898547Y-49064669D01*
X136747233Y-48998561D01*
X136611641Y-48904322D01*
X136496935Y-48785540D01*
X136407485Y-48646741D01*
X136346696Y-48493208D01*
X136316889Y-48330797D01*
X136319194Y-48165691D01*
X136353526Y-48004172D01*
X136418577Y-47852396D01*
X136511866Y-47716153D01*
X136629844Y-47600619D01*
X136768017Y-47510201D01*
X136921114Y-47448346D01*
X137083317Y-47417404D01*
X137248444Y-47418557D01*
X137248444Y-47418557D01*
G37*
G36*
X134708444Y-47418557D02*
X134870191Y-47451759D01*
X135022415Y-47515748D01*
X135159313Y-47608087D01*
X135275664Y-47725253D01*
X135367041Y-47862788D01*
X135429967Y-48015457D01*
X135461903Y-48176748D01*
X135461903Y-48176765D01*
X135462036Y-48177438D01*
X135459402Y-48366041D01*
X135459251Y-48366704D01*
X135459251Y-48366728D01*
X135422824Y-48527061D01*
X135355659Y-48677915D01*
X135260476Y-48812847D01*
X135140900Y-48926717D01*
X135001474Y-49015199D01*
X134847531Y-49074910D01*
X134684909Y-49103585D01*
X134519820Y-49100126D01*
X134358547Y-49064669D01*
X134207233Y-48998561D01*
X134071641Y-48904322D01*
X133956935Y-48785540D01*
X133867485Y-48646741D01*
X133806696Y-48493208D01*
X133776889Y-48330797D01*
X133779194Y-48165691D01*
X133813526Y-48004172D01*
X133878577Y-47852396D01*
X133971866Y-47716153D01*
X134089844Y-47600619D01*
X134228017Y-47510201D01*
X134381114Y-47448346D01*
X134543317Y-47417404D01*
X134708444Y-47418557D01*
X134708444Y-47418557D01*
G37*
G36*
X132168444Y-47418557D02*
X132330191Y-47451759D01*
X132482415Y-47515748D01*
X132619313Y-47608087D01*
X132735664Y-47725253D01*
X132827041Y-47862788D01*
X132889967Y-48015457D01*
X132921903Y-48176748D01*
X132921903Y-48176765D01*
X132922036Y-48177438D01*
X132919402Y-48366041D01*
X132919251Y-48366704D01*
X132919251Y-48366728D01*
X132882824Y-48527061D01*
X132815659Y-48677915D01*
X132720476Y-48812847D01*
X132600900Y-48926717D01*
X132461474Y-49015199D01*
X132307531Y-49074910D01*
X132144909Y-49103585D01*
X131979820Y-49100126D01*
X131818547Y-49064669D01*
X131667233Y-48998561D01*
X131531641Y-48904322D01*
X131416935Y-48785540D01*
X131327485Y-48646741D01*
X131266696Y-48493208D01*
X131236889Y-48330797D01*
X131239194Y-48165691D01*
X131273526Y-48004172D01*
X131338577Y-47852396D01*
X131431866Y-47716153D01*
X131549844Y-47600619D01*
X131688017Y-47510201D01*
X131841114Y-47448346D01*
X132003317Y-47417404D01*
X132168444Y-47418557D01*
X132168444Y-47418557D01*
G37*
G36*
X129628444Y-47418557D02*
X129790191Y-47451759D01*
X129942415Y-47515748D01*
X130079313Y-47608087D01*
X130195664Y-47725253D01*
X130287041Y-47862788D01*
X130349967Y-48015457D01*
X130381903Y-48176748D01*
X130381903Y-48176765D01*
X130382036Y-48177438D01*
X130379402Y-48366041D01*
X130379251Y-48366704D01*
X130379251Y-48366728D01*
X130342824Y-48527061D01*
X130275659Y-48677915D01*
X130180476Y-48812847D01*
X130060900Y-48926717D01*
X129921474Y-49015199D01*
X129767531Y-49074910D01*
X129604909Y-49103585D01*
X129439820Y-49100126D01*
X129278547Y-49064669D01*
X129127233Y-48998561D01*
X128991641Y-48904322D01*
X128876935Y-48785540D01*
X128787485Y-48646741D01*
X128726696Y-48493208D01*
X128696889Y-48330797D01*
X128699194Y-48165691D01*
X128733526Y-48004172D01*
X128798577Y-47852396D01*
X128891866Y-47716153D01*
X129009844Y-47600619D01*
X129148017Y-47510201D01*
X129301114Y-47448346D01*
X129463317Y-47417404D01*
X129628444Y-47418557D01*
X129628444Y-47418557D01*
G37*
G36*
X127088444Y-47418557D02*
X127250191Y-47451759D01*
X127402415Y-47515748D01*
X127539313Y-47608087D01*
X127655664Y-47725253D01*
X127747041Y-47862788D01*
X127809967Y-48015457D01*
X127841903Y-48176748D01*
X127841903Y-48176765D01*
X127842036Y-48177438D01*
X127839402Y-48366041D01*
X127839251Y-48366704D01*
X127839251Y-48366728D01*
X127802824Y-48527061D01*
X127735659Y-48677915D01*
X127640476Y-48812847D01*
X127520900Y-48926717D01*
X127381474Y-49015199D01*
X127227531Y-49074910D01*
X127064909Y-49103585D01*
X126899820Y-49100126D01*
X126738547Y-49064669D01*
X126587233Y-48998561D01*
X126451641Y-48904322D01*
X126336935Y-48785540D01*
X126247485Y-48646741D01*
X126186696Y-48493208D01*
X126156889Y-48330797D01*
X126159194Y-48165691D01*
X126193526Y-48004172D01*
X126258577Y-47852396D01*
X126351866Y-47716153D01*
X126469844Y-47600619D01*
X126608017Y-47510201D01*
X126761114Y-47448346D01*
X126923317Y-47417404D01*
X127088444Y-47418557D01*
X127088444Y-47418557D01*
G37*
G36*
X124548444Y-47418557D02*
X124710191Y-47451759D01*
X124862415Y-47515748D01*
X124999313Y-47608087D01*
X125115664Y-47725253D01*
X125207041Y-47862788D01*
X125269967Y-48015457D01*
X125301903Y-48176748D01*
X125301903Y-48176765D01*
X125302036Y-48177438D01*
X125299402Y-48366041D01*
X125299251Y-48366704D01*
X125299251Y-48366728D01*
X125262824Y-48527061D01*
X125195659Y-48677915D01*
X125100476Y-48812847D01*
X124980900Y-48926717D01*
X124841474Y-49015199D01*
X124687531Y-49074910D01*
X124524909Y-49103585D01*
X124359820Y-49100126D01*
X124198547Y-49064669D01*
X124047233Y-48998561D01*
X123911641Y-48904322D01*
X123796935Y-48785540D01*
X123707485Y-48646741D01*
X123646696Y-48493208D01*
X123616889Y-48330797D01*
X123619194Y-48165691D01*
X123653526Y-48004172D01*
X123718577Y-47852396D01*
X123811866Y-47716153D01*
X123929844Y-47600619D01*
X124068017Y-47510201D01*
X124221114Y-47448346D01*
X124383317Y-47417404D01*
X124548444Y-47418557D01*
X124548444Y-47418557D01*
G37*
G36*
X119468444Y-47418557D02*
X119630191Y-47451759D01*
X119782415Y-47515748D01*
X119919313Y-47608087D01*
X120035664Y-47725253D01*
X120127041Y-47862788D01*
X120189967Y-48015457D01*
X120221903Y-48176748D01*
X120221903Y-48176765D01*
X120222036Y-48177438D01*
X120219402Y-48366041D01*
X120219251Y-48366704D01*
X120219251Y-48366728D01*
X120182824Y-48527061D01*
X120115659Y-48677915D01*
X120020476Y-48812847D01*
X119900900Y-48926717D01*
X119761474Y-49015199D01*
X119607531Y-49074910D01*
X119444909Y-49103585D01*
X119279820Y-49100126D01*
X119118547Y-49064669D01*
X118967233Y-48998561D01*
X118831641Y-48904322D01*
X118716935Y-48785540D01*
X118627485Y-48646741D01*
X118566696Y-48493208D01*
X118536889Y-48330797D01*
X118539194Y-48165691D01*
X118573526Y-48004172D01*
X118638577Y-47852396D01*
X118731866Y-47716153D01*
X118849844Y-47600619D01*
X118988017Y-47510201D01*
X119141114Y-47448346D01*
X119303317Y-47417404D01*
X119468444Y-47418557D01*
X119468444Y-47418557D01*
G37*
G36*
X122008444Y-47418557D02*
X122170191Y-47451759D01*
X122322415Y-47515748D01*
X122459313Y-47608087D01*
X122575664Y-47725253D01*
X122667041Y-47862788D01*
X122729967Y-48015457D01*
X122761903Y-48176748D01*
X122761903Y-48176765D01*
X122762036Y-48177438D01*
X122759402Y-48366041D01*
X122759251Y-48366704D01*
X122759251Y-48366728D01*
X122722824Y-48527061D01*
X122655659Y-48677915D01*
X122560476Y-48812847D01*
X122440900Y-48926717D01*
X122301474Y-49015199D01*
X122147531Y-49074910D01*
X121984909Y-49103585D01*
X121819820Y-49100126D01*
X121658547Y-49064669D01*
X121507233Y-48998561D01*
X121371641Y-48904322D01*
X121256935Y-48785540D01*
X121167485Y-48646741D01*
X121106696Y-48493208D01*
X121076889Y-48330797D01*
X121079194Y-48165691D01*
X121113526Y-48004172D01*
X121178577Y-47852396D01*
X121271866Y-47716153D01*
X121389844Y-47600619D01*
X121528017Y-47510201D01*
X121681114Y-47448346D01*
X121843317Y-47417404D01*
X122008444Y-47418557D01*
X122008444Y-47418557D01*
G37*
M02*
