M48
INCH,TZ
T1C0.028
T2C0.030
T3C0.031
T4C0.035
T5C0.039
%
G90
G05
T2
X38250Y-29250
X39250Y-29250
X39250Y-36000
X39250Y-37000
X40000Y-19000
X40250Y-29250
X40250Y-36000
X40250Y-37000
X41000Y-19000
X41250Y-29250
X41250Y-36000
X41250Y-37000
X42000Y-19000
X42250Y-36000
X42250Y-37000
X43000Y-19000
X43500Y-47750
X43500Y-48750
X43500Y-49750
X44000Y-19000
X45000Y-19000
X45829Y-26215
X46000Y-19000
X46829Y-26215
X47000Y-19000
X48000Y-19000
X49000Y-19000
X50000Y-19000
X51000Y-19000
X52000Y-19000
X53000Y-19000
X54000Y-19000
X55000Y-19000
X60500Y-37750
X61500Y-37750
X62500Y-37750
X63500Y-37750
X64500Y-37750
X65500Y-37750
X69000Y-20500
X69000Y-21500
X69000Y-22500
X69000Y-23500
X69000Y-24500
X69030Y-27500
X69030Y-28500
X69030Y-29500
X69030Y-30500
X69030Y-31500
X69030Y-32500
X69030Y-33500
X69030Y-34500
X69030Y-35500
X69030Y-36500
T3
X38000Y-20250
X38213Y-33187
X38213Y-34187
X38250Y-31000
X38250Y-32000
X41000Y-20250
X41213Y-33187
X41213Y-34187
X41250Y-31000
X41250Y-32000
X44750Y-39250
X44829Y-21965
X44829Y-24965
X44829Y-26215
X44829Y-29215
X45000Y-34000
X45266Y-42250
X45750Y-39250
X45829Y-21965
X45829Y-24965
X46000Y-34000
X46250Y-42250
X46829Y-21965
X46829Y-24965
X47000Y-34000
X47250Y-39250
X47250Y-42250
X47829Y-21965
X47829Y-24965
X48250Y-39250
X48250Y-42250
X48829Y-21965
X48829Y-24965
X49329Y-27965
X49829Y-21965
X49829Y-24965
X50329Y-27965
X50750Y-32250
X50829Y-21965
X50829Y-24965
X51829Y-21965
X51829Y-24965
X51829Y-26715
X51829Y-28480
X51829Y-29465
X52829Y-21965
X52829Y-24965
X53750Y-32250
X53759Y-26715
X53829Y-21965
X53829Y-24965
X53829Y-28480
X53829Y-29465
X54829Y-21965
X54829Y-24965
X55829Y-21965
X55829Y-24965
X56829Y-21965
X56829Y-24965
X57829Y-21965
X57829Y-24965
X60530Y-29387
X60530Y-30387
X60530Y-31387
X63530Y-29387
X63530Y-30387
X63530Y-31387
X63750Y-34250
X63750Y-35250
X64530Y-26387
X64530Y-27387
X64530Y-28387
X64530Y-29387
X64530Y-30387
X64530Y-31387
X64530Y-32387
X64530Y-33387
X67530Y-26387
X67530Y-27387
X67530Y-28387
X67530Y-29387
X67530Y-30387
X67530Y-31387
X67530Y-32387
X67530Y-33387
T4
X50500Y-36750
X50500Y-52750
X50750Y-34000
X51750Y-34000
X57500Y-36750
X57500Y-52750
T5
X46250Y-44000
X47250Y-44000
X48250Y-44000
T1
X41697Y-48163G85X41697Y-47337
G05
T3
X38803Y-48144G85X38803Y-47356
G05
X39856Y-49543G85X40644Y-49543
G05
T0
M30
