%FSLAX45Y45*%
G04 Gerber Fmt 4.5, Leading zero omitted, Abs format (unit mm)*
G04 Created by KiCad (PCBNEW 4.0.7-e2-6376~58~ubuntu16.04.1) date Mon Oct 15 06:01:08 2018*
%MOMM*%
%LPD*%
G01*
G04 APERTURE LIST*
%ADD10C,0.127000*%
%ADD11C,0.150000*%
%ADD12C,0.200000*%
%ADD13C,0.300000*%
G04 APERTURE END LIST*
D10*
D11*
X18204692Y-13739228D02*
X8804692Y-13739228D01*
X8604692Y-12939228D02*
X8604692Y-13539228D01*
X9004692Y-12739228D02*
X8804692Y-12739228D01*
X9204692Y-5739228D02*
X9204692Y-12539228D01*
X8804692Y-5539228D02*
X9004692Y-5539228D01*
X8604692Y-4739228D02*
X8604692Y-5339228D01*
X18204692Y-4539228D02*
X8804692Y-4539228D01*
X18404692Y-5339228D02*
X18404692Y-4739228D01*
X18004692Y-5539228D02*
X18204692Y-5539228D01*
X17804692Y-12539228D02*
X17804692Y-5739228D01*
X18204692Y-12739228D02*
X18004692Y-12739228D01*
X18404692Y-13539228D02*
X18404692Y-12939228D01*
X8604692Y-13539228D02*
G75*
G03X8804692Y-13739228I200000J0D01*
G01*
X8804692Y-12739228D02*
G75*
G03X8604692Y-12939228I0J-200000D01*
G01*
X9004692Y-12739228D02*
G75*
G03X9204692Y-12539228I0J200000D01*
G01*
X9204692Y-5739228D02*
G75*
G03X9004692Y-5539228I-200000J0D01*
G01*
X8604692Y-5339228D02*
G75*
G03X8804692Y-5539228I200000J0D01*
G01*
X8804692Y-4539228D02*
G75*
G03X8604692Y-4739228I0J-200000D01*
G01*
X18204692Y-13739228D02*
G75*
G03X18404692Y-13539228I0J200000D01*
G01*
X18404692Y-12939228D02*
G75*
G03X18204692Y-12739228I-200000J0D01*
G01*
X17804692Y-12539228D02*
G75*
G03X18004692Y-12739228I200000J0D01*
G01*
X18004692Y-5539228D02*
G75*
G03X17804692Y-5739228I0J-200000D01*
G01*
X18204692Y-5539228D02*
G75*
G03X18404692Y-5339228I0J200000D01*
G01*
X18404692Y-4739228D02*
G75*
G03X18204692Y-4539228I-200000J0D01*
G01*
D12*
X8874692Y-4841028D02*
X9194692Y-5161028D01*
X9194692Y-4841028D02*
X8874692Y-5161028D01*
X8874692Y-13096028D02*
X9194692Y-13416028D01*
X9194692Y-13096028D02*
X8874692Y-13416028D01*
X17891692Y-4841028D02*
X18211692Y-5161028D01*
X18211692Y-4841028D02*
X17891692Y-5161028D01*
X17891692Y-13096028D02*
X18211692Y-13416028D01*
X18211692Y-13096028D02*
X17891692Y-13416028D01*
D13*
X8868621Y-14212442D02*
X8868621Y-13912442D01*
X8940049Y-13912442D01*
X8982906Y-13926728D01*
X9011478Y-13955299D01*
X9025763Y-13983871D01*
X9040049Y-14041014D01*
X9040049Y-14083871D01*
X9025763Y-14141014D01*
X9011478Y-14169585D01*
X8982906Y-14198156D01*
X8940049Y-14212442D01*
X8868621Y-14212442D01*
X9168621Y-14212442D02*
X9168621Y-14012442D01*
X9168621Y-14069585D02*
X9182906Y-14041014D01*
X9197192Y-14026728D01*
X9225763Y-14012442D01*
X9254335Y-14012442D01*
X9354335Y-14212442D02*
X9354335Y-14012442D01*
X9354335Y-13912442D02*
X9340049Y-13926728D01*
X9354335Y-13941014D01*
X9368621Y-13926728D01*
X9354335Y-13912442D01*
X9354335Y-13941014D01*
X9540049Y-14212442D02*
X9511478Y-14198156D01*
X9497192Y-14169585D01*
X9497192Y-13912442D01*
X9697192Y-14212442D02*
X9668621Y-14198156D01*
X9654335Y-14169585D01*
X9654335Y-13912442D01*
X10040049Y-14212442D02*
X10040049Y-13912442D01*
X10140049Y-14126728D01*
X10240049Y-13912442D01*
X10240049Y-14212442D01*
X10511478Y-14212442D02*
X10511478Y-14055299D01*
X10497192Y-14026728D01*
X10468621Y-14012442D01*
X10411478Y-14012442D01*
X10382906Y-14026728D01*
X10511478Y-14198156D02*
X10482906Y-14212442D01*
X10411478Y-14212442D01*
X10382906Y-14198156D01*
X10368621Y-14169585D01*
X10368621Y-14141014D01*
X10382906Y-14112442D01*
X10411478Y-14098156D01*
X10482906Y-14098156D01*
X10511478Y-14083871D01*
X10654335Y-14012442D02*
X10654335Y-14312442D01*
X10654335Y-14026728D02*
X10682906Y-14012442D01*
X10740049Y-14012442D01*
X10768621Y-14026728D01*
X10782906Y-14041014D01*
X10797192Y-14069585D01*
X10797192Y-14155299D01*
X10782906Y-14183871D01*
X10768621Y-14198156D01*
X10740049Y-14212442D01*
X10682906Y-14212442D01*
X10654335Y-14198156D01*
X10925763Y-14183871D02*
X10940049Y-14198156D01*
X10925763Y-14212442D01*
X10911478Y-14198156D01*
X10925763Y-14183871D01*
X10925763Y-14212442D01*
X10925763Y-14026728D02*
X10940049Y-14041014D01*
X10925763Y-14055299D01*
X10911478Y-14041014D01*
X10925763Y-14026728D01*
X10925763Y-14055299D01*
X8277192Y-14546728D02*
X8597192Y-14866728D01*
X8597192Y-14546728D02*
X8277192Y-14866728D01*
X8840049Y-14542442D02*
X9025763Y-14542442D01*
X8925763Y-14656728D01*
X8968621Y-14656728D01*
X8997192Y-14671014D01*
X9011478Y-14685299D01*
X9025763Y-14713871D01*
X9025763Y-14785299D01*
X9011478Y-14813871D01*
X8997192Y-14828156D01*
X8968621Y-14842442D01*
X8882906Y-14842442D01*
X8854335Y-14828156D01*
X8840049Y-14813871D01*
X9154335Y-14813871D02*
X9168621Y-14828156D01*
X9154335Y-14842442D01*
X9140049Y-14828156D01*
X9154335Y-14813871D01*
X9154335Y-14842442D01*
X9282906Y-14571014D02*
X9297192Y-14556728D01*
X9325763Y-14542442D01*
X9397192Y-14542442D01*
X9425763Y-14556728D01*
X9440049Y-14571014D01*
X9454335Y-14599585D01*
X9454335Y-14628156D01*
X9440049Y-14671014D01*
X9268620Y-14842442D01*
X9454335Y-14842442D01*
X9640049Y-14542442D02*
X9668621Y-14542442D01*
X9697192Y-14556728D01*
X9711478Y-14571014D01*
X9725763Y-14599585D01*
X9740049Y-14656728D01*
X9740049Y-14728156D01*
X9725763Y-14785299D01*
X9711478Y-14813871D01*
X9697192Y-14828156D01*
X9668621Y-14842442D01*
X9640049Y-14842442D01*
X9611478Y-14828156D01*
X9597192Y-14813871D01*
X9582906Y-14785299D01*
X9568621Y-14728156D01*
X9568621Y-14656728D01*
X9582906Y-14599585D01*
X9597192Y-14571014D01*
X9611478Y-14556728D01*
X9640049Y-14542442D01*
X9868621Y-14842442D02*
X9868621Y-14642442D01*
X9868621Y-14671014D02*
X9882906Y-14656728D01*
X9911478Y-14642442D01*
X9954335Y-14642442D01*
X9982906Y-14656728D01*
X9997192Y-14685299D01*
X9997192Y-14842442D01*
X9997192Y-14685299D02*
X10011478Y-14656728D01*
X10040049Y-14642442D01*
X10082906Y-14642442D01*
X10111478Y-14656728D01*
X10125763Y-14685299D01*
X10125763Y-14842442D01*
X10268621Y-14842442D02*
X10268621Y-14642442D01*
X10268621Y-14671014D02*
X10282906Y-14656728D01*
X10311478Y-14642442D01*
X10354335Y-14642442D01*
X10382906Y-14656728D01*
X10397192Y-14685299D01*
X10397192Y-14842442D01*
X10397192Y-14685299D02*
X10411478Y-14656728D01*
X10440049Y-14642442D01*
X10482906Y-14642442D01*
X10511478Y-14656728D01*
X10525763Y-14685299D01*
X10525763Y-14842442D01*
X11111478Y-14528156D02*
X10854335Y-14913871D01*
X11497192Y-14542442D02*
X11525763Y-14542442D01*
X11554335Y-14556728D01*
X11568620Y-14571014D01*
X11582906Y-14599585D01*
X11597192Y-14656728D01*
X11597192Y-14728156D01*
X11582906Y-14785299D01*
X11568620Y-14813871D01*
X11554335Y-14828156D01*
X11525763Y-14842442D01*
X11497192Y-14842442D01*
X11468620Y-14828156D01*
X11454335Y-14813871D01*
X11440049Y-14785299D01*
X11425763Y-14728156D01*
X11425763Y-14656728D01*
X11440049Y-14599585D01*
X11454335Y-14571014D01*
X11468620Y-14556728D01*
X11497192Y-14542442D01*
X11725763Y-14813871D02*
X11740049Y-14828156D01*
X11725763Y-14842442D01*
X11711478Y-14828156D01*
X11725763Y-14813871D01*
X11725763Y-14842442D01*
X12025763Y-14842442D02*
X11854335Y-14842442D01*
X11940049Y-14842442D02*
X11940049Y-14542442D01*
X11911477Y-14585299D01*
X11882906Y-14613871D01*
X11854335Y-14628156D01*
X12140049Y-14571014D02*
X12154335Y-14556728D01*
X12182906Y-14542442D01*
X12254335Y-14542442D01*
X12282906Y-14556728D01*
X12297192Y-14571014D01*
X12311477Y-14599585D01*
X12311477Y-14628156D01*
X12297192Y-14671014D01*
X12125763Y-14842442D01*
X12311477Y-14842442D01*
X12568620Y-14542442D02*
X12511477Y-14542442D01*
X12482906Y-14556728D01*
X12468620Y-14571014D01*
X12440049Y-14613871D01*
X12425763Y-14671014D01*
X12425763Y-14785299D01*
X12440049Y-14813871D01*
X12454335Y-14828156D01*
X12482906Y-14842442D01*
X12540049Y-14842442D01*
X12568620Y-14828156D01*
X12582906Y-14813871D01*
X12597192Y-14785299D01*
X12597192Y-14713871D01*
X12582906Y-14685299D01*
X12568620Y-14671014D01*
X12540049Y-14656728D01*
X12482906Y-14656728D01*
X12454335Y-14671014D01*
X12440049Y-14685299D01*
X12425763Y-14713871D01*
X12711478Y-14542442D02*
X12711478Y-14599585D01*
X12825763Y-14542442D02*
X12825763Y-14599585D01*
X13268620Y-14956728D02*
X13254335Y-14942442D01*
X13225763Y-14899585D01*
X13211477Y-14871014D01*
X13197192Y-14828156D01*
X13182906Y-14756728D01*
X13182906Y-14699585D01*
X13197192Y-14628156D01*
X13211477Y-14585299D01*
X13225763Y-14556728D01*
X13254335Y-14513871D01*
X13268620Y-14499585D01*
X13511477Y-14642442D02*
X13511477Y-14842442D01*
X13440049Y-14528156D02*
X13368620Y-14742442D01*
X13554335Y-14742442D01*
X13897192Y-14842442D02*
X13897192Y-14542442D01*
X14025763Y-14842442D02*
X14025763Y-14685299D01*
X14011477Y-14656728D01*
X13982906Y-14642442D01*
X13940049Y-14642442D01*
X13911477Y-14656728D01*
X13897192Y-14671014D01*
X14211477Y-14842442D02*
X14182906Y-14828156D01*
X14168620Y-14813871D01*
X14154335Y-14785299D01*
X14154335Y-14699585D01*
X14168620Y-14671014D01*
X14182906Y-14656728D01*
X14211477Y-14642442D01*
X14254335Y-14642442D01*
X14282906Y-14656728D01*
X14297192Y-14671014D01*
X14311477Y-14699585D01*
X14311477Y-14785299D01*
X14297192Y-14813871D01*
X14282906Y-14828156D01*
X14254335Y-14842442D01*
X14211477Y-14842442D01*
X14482906Y-14842442D02*
X14454335Y-14828156D01*
X14440049Y-14799585D01*
X14440049Y-14542442D01*
X14711478Y-14828156D02*
X14682906Y-14842442D01*
X14625763Y-14842442D01*
X14597192Y-14828156D01*
X14582906Y-14799585D01*
X14582906Y-14685299D01*
X14597192Y-14656728D01*
X14625763Y-14642442D01*
X14682906Y-14642442D01*
X14711478Y-14656728D01*
X14725763Y-14685299D01*
X14725763Y-14713871D01*
X14582906Y-14742442D01*
X14840049Y-14828156D02*
X14868620Y-14842442D01*
X14925763Y-14842442D01*
X14954335Y-14828156D01*
X14968620Y-14799585D01*
X14968620Y-14785299D01*
X14954335Y-14756728D01*
X14925763Y-14742442D01*
X14882906Y-14742442D01*
X14854335Y-14728156D01*
X14840049Y-14699585D01*
X14840049Y-14685299D01*
X14854335Y-14656728D01*
X14882906Y-14642442D01*
X14925763Y-14642442D01*
X14954335Y-14656728D01*
X15068620Y-14956728D02*
X15082906Y-14942442D01*
X15111478Y-14899585D01*
X15125763Y-14871014D01*
X15140049Y-14828156D01*
X15154335Y-14756728D01*
X15154335Y-14699585D01*
X15140049Y-14628156D01*
X15125763Y-14585299D01*
X15111478Y-14556728D01*
X15082906Y-14513871D01*
X15068620Y-14499585D01*
X15611478Y-14956728D02*
X15597192Y-14942442D01*
X15568620Y-14899585D01*
X15554335Y-14871014D01*
X15540049Y-14828156D01*
X15525763Y-14756728D01*
X15525763Y-14699585D01*
X15540049Y-14628156D01*
X15554335Y-14585299D01*
X15568620Y-14556728D01*
X15597192Y-14513871D01*
X15611478Y-14499585D01*
X15725763Y-14642442D02*
X15725763Y-14842442D01*
X15725763Y-14671014D02*
X15740049Y-14656728D01*
X15768620Y-14642442D01*
X15811478Y-14642442D01*
X15840049Y-14656728D01*
X15854335Y-14685299D01*
X15854335Y-14842442D01*
X16040049Y-14842442D02*
X16011478Y-14828156D01*
X15997192Y-14813871D01*
X15982906Y-14785299D01*
X15982906Y-14699585D01*
X15997192Y-14671014D01*
X16011478Y-14656728D01*
X16040049Y-14642442D01*
X16082906Y-14642442D01*
X16111478Y-14656728D01*
X16125763Y-14671014D01*
X16140049Y-14699585D01*
X16140049Y-14785299D01*
X16125763Y-14813871D01*
X16111478Y-14828156D01*
X16082906Y-14842442D01*
X16040049Y-14842442D01*
X16225763Y-14642442D02*
X16340049Y-14642442D01*
X16268620Y-14542442D02*
X16268620Y-14799585D01*
X16282906Y-14828156D01*
X16311478Y-14842442D01*
X16340049Y-14842442D01*
X16668620Y-14642442D02*
X16668620Y-14942442D01*
X16668620Y-14656728D02*
X16697192Y-14642442D01*
X16754335Y-14642442D01*
X16782906Y-14656728D01*
X16797192Y-14671014D01*
X16811478Y-14699585D01*
X16811478Y-14785299D01*
X16797192Y-14813871D01*
X16782906Y-14828156D01*
X16754335Y-14842442D01*
X16697192Y-14842442D01*
X16668620Y-14828156D01*
X16982906Y-14842442D02*
X16954335Y-14828156D01*
X16940049Y-14799585D01*
X16940049Y-14542442D01*
X17225763Y-14842442D02*
X17225763Y-14685299D01*
X17211478Y-14656728D01*
X17182906Y-14642442D01*
X17125763Y-14642442D01*
X17097192Y-14656728D01*
X17225763Y-14828156D02*
X17197192Y-14842442D01*
X17125763Y-14842442D01*
X17097192Y-14828156D01*
X17082906Y-14799585D01*
X17082906Y-14771014D01*
X17097192Y-14742442D01*
X17125763Y-14728156D01*
X17197192Y-14728156D01*
X17225763Y-14713871D01*
X17325763Y-14642442D02*
X17440049Y-14642442D01*
X17368621Y-14542442D02*
X17368621Y-14799585D01*
X17382906Y-14828156D01*
X17411478Y-14842442D01*
X17440049Y-14842442D01*
X17654335Y-14828156D02*
X17625764Y-14842442D01*
X17568621Y-14842442D01*
X17540049Y-14828156D01*
X17525764Y-14799585D01*
X17525764Y-14685299D01*
X17540049Y-14656728D01*
X17568621Y-14642442D01*
X17625764Y-14642442D01*
X17654335Y-14656728D01*
X17668621Y-14685299D01*
X17668621Y-14713871D01*
X17525764Y-14742442D01*
X17925764Y-14842442D02*
X17925764Y-14542442D01*
X17925764Y-14828156D02*
X17897192Y-14842442D01*
X17840049Y-14842442D01*
X17811478Y-14828156D01*
X17797192Y-14813871D01*
X17782906Y-14785299D01*
X17782906Y-14699585D01*
X17797192Y-14671014D01*
X17811478Y-14656728D01*
X17840049Y-14642442D01*
X17897192Y-14642442D01*
X17925764Y-14656728D01*
X18040049Y-14956728D02*
X18054335Y-14942442D01*
X18082906Y-14899585D01*
X18097192Y-14871014D01*
X18111478Y-14828156D01*
X18125764Y-14756728D01*
X18125764Y-14699585D01*
X18111478Y-14628156D01*
X18097192Y-14585299D01*
X18082906Y-14556728D01*
X18054335Y-14513871D01*
X18040049Y-14499585D01*
M02*
