%FSLAX45Y45*%
G04 Gerber Fmt 4.5, Leading zero omitted, Abs format (unit mm)*
G04 Created by KiCad (PCBNEW 4.0.7-e2-6376~58~ubuntu16.04.1) date Mon Oct 15 06:01:08 2018*
%MOMM*%
%LPD*%
G01*
G04 APERTURE LIST*
%ADD10C,0.127000*%
%ADD11C,0.150000*%
%ADD12C,0.200000*%
%ADD13C,0.300000*%
G04 APERTURE END LIST*
D10*
D11*
X18204692Y-13739228D02*
X8804692Y-13739228D01*
X8604692Y-12939228D02*
X8604692Y-13539228D01*
X9004692Y-12739228D02*
X8804692Y-12739228D01*
X9204692Y-5739228D02*
X9204692Y-12539228D01*
X8804692Y-5539228D02*
X9004692Y-5539228D01*
X8604692Y-4739228D02*
X8604692Y-5339228D01*
X18204692Y-4539228D02*
X8804692Y-4539228D01*
X18404692Y-5339228D02*
X18404692Y-4739228D01*
X18004692Y-5539228D02*
X18204692Y-5539228D01*
X17804692Y-12539228D02*
X17804692Y-5739228D01*
X18204692Y-12739228D02*
X18004692Y-12739228D01*
X18404692Y-13539228D02*
X18404692Y-12939228D01*
X8604692Y-13539228D02*
G75*
G03X8804692Y-13739228I200000J0D01*
G01*
X8804692Y-12739228D02*
G75*
G03X8604692Y-12939228I0J-200000D01*
G01*
X9004692Y-12739228D02*
G75*
G03X9204692Y-12539228I0J200000D01*
G01*
X9204692Y-5739228D02*
G75*
G03X9004692Y-5539228I-200000J0D01*
G01*
X8604692Y-5339228D02*
G75*
G03X8804692Y-5539228I200000J0D01*
G01*
X8804692Y-4539228D02*
G75*
G03X8604692Y-4739228I0J-200000D01*
G01*
X18204692Y-13739228D02*
G75*
G03X18404692Y-13539228I0J200000D01*
G01*
X18404692Y-12939228D02*
G75*
G03X18204692Y-12739228I-200000J0D01*
G01*
X17804692Y-12539228D02*
G75*
G03X18004692Y-12739228I200000J0D01*
G01*
X18004692Y-5539228D02*
G75*
G03X17804692Y-5739228I0J-200000D01*
G01*
X18204692Y-5539228D02*
G75*
G03X18404692Y-5339228I0J200000D01*
G01*
X18404692Y-4739228D02*
G75*
G03X18204692Y-4539228I-200000J0D01*
G01*
D12*
X10556000Y-12093500D02*
X10626000Y-12163500D01*
X10626000Y-12093500D02*
X10556000Y-12163500D01*
X10616000Y-12233500D02*
X10616000Y-12023500D01*
X10566000Y-12233500D02*
X10566000Y-12023500D01*
X10616000Y-12023500D02*
G75*
G03X10566000Y-12023500I-25000J0D01*
G01*
X10566000Y-12233500D02*
G75*
G03X10616000Y-12233500I25000J0D01*
G01*
X9753600Y-7429500D02*
G75*
G03X9753600Y-7429500I-38100J0D01*
G01*
X10007600Y-7429500D02*
G75*
G03X10007600Y-7429500I-38100J0D01*
G01*
X10007600Y-9144000D02*
G75*
G03X10007600Y-9144000I-38100J0D01*
G01*
X10007600Y-9398000D02*
G75*
G03X10007600Y-9398000I-38100J0D01*
G01*
X10198100Y-4826000D02*
G75*
G03X10198100Y-4826000I-38100J0D01*
G01*
X10261600Y-7429500D02*
G75*
G03X10261600Y-7429500I-38100J0D01*
G01*
X10261600Y-9144000D02*
G75*
G03X10261600Y-9144000I-38100J0D01*
G01*
X10261600Y-9398000D02*
G75*
G03X10261600Y-9398000I-38100J0D01*
G01*
X10452100Y-4826000D02*
G75*
G03X10452100Y-4826000I-38100J0D01*
G01*
X10515600Y-7429500D02*
G75*
G03X10515600Y-7429500I-38100J0D01*
G01*
X10515600Y-9144000D02*
G75*
G03X10515600Y-9144000I-38100J0D01*
G01*
X10515600Y-9398000D02*
G75*
G03X10515600Y-9398000I-38100J0D01*
G01*
X10706100Y-4826000D02*
G75*
G03X10706100Y-4826000I-38100J0D01*
G01*
X10769600Y-9144000D02*
G75*
G03X10769600Y-9144000I-38100J0D01*
G01*
X10769600Y-9398000D02*
G75*
G03X10769600Y-9398000I-38100J0D01*
G01*
X10960100Y-4826000D02*
G75*
G03X10960100Y-4826000I-38100J0D01*
G01*
X11087100Y-12128500D02*
G75*
G03X11087100Y-12128500I-38100J0D01*
G01*
X11087100Y-12382500D02*
G75*
G03X11087100Y-12382500I-38100J0D01*
G01*
X11087100Y-12636500D02*
G75*
G03X11087100Y-12636500I-38100J0D01*
G01*
X11214100Y-4826000D02*
G75*
G03X11214100Y-4826000I-38100J0D01*
G01*
X11468100Y-4826000D02*
G75*
G03X11468100Y-4826000I-38100J0D01*
G01*
X11678792Y-6658528D02*
G75*
G03X11678792Y-6658528I-38100J0D01*
G01*
X11722100Y-4826000D02*
G75*
G03X11722100Y-4826000I-38100J0D01*
G01*
X11932792Y-6658528D02*
G75*
G03X11932792Y-6658528I-38100J0D01*
G01*
X11976100Y-4826000D02*
G75*
G03X11976100Y-4826000I-38100J0D01*
G01*
X12230100Y-4826000D02*
G75*
G03X12230100Y-4826000I-38100J0D01*
G01*
X12484100Y-4826000D02*
G75*
G03X12484100Y-4826000I-38100J0D01*
G01*
X12738100Y-4826000D02*
G75*
G03X12738100Y-4826000I-38100J0D01*
G01*
X12992100Y-4826000D02*
G75*
G03X12992100Y-4826000I-38100J0D01*
G01*
X13246100Y-4826000D02*
G75*
G03X13246100Y-4826000I-38100J0D01*
G01*
X13500100Y-4826000D02*
G75*
G03X13500100Y-4826000I-38100J0D01*
G01*
X13754100Y-4826000D02*
G75*
G03X13754100Y-4826000I-38100J0D01*
G01*
X14008100Y-4826000D02*
G75*
G03X14008100Y-4826000I-38100J0D01*
G01*
X15405100Y-9588500D02*
G75*
G03X15405100Y-9588500I-38100J0D01*
G01*
X15659100Y-9588500D02*
G75*
G03X15659100Y-9588500I-38100J0D01*
G01*
X15913100Y-9588500D02*
G75*
G03X15913100Y-9588500I-38100J0D01*
G01*
X16167100Y-9588500D02*
G75*
G03X16167100Y-9588500I-38100J0D01*
G01*
X16421100Y-9588500D02*
G75*
G03X16421100Y-9588500I-38100J0D01*
G01*
X16675100Y-9588500D02*
G75*
G03X16675100Y-9588500I-38100J0D01*
G01*
X17564100Y-5207000D02*
G75*
G03X17564100Y-5207000I-38100J0D01*
G01*
X17564100Y-5461000D02*
G75*
G03X17564100Y-5461000I-38100J0D01*
G01*
X17564100Y-5715000D02*
G75*
G03X17564100Y-5715000I-38100J0D01*
G01*
X17564100Y-5969000D02*
G75*
G03X17564100Y-5969000I-38100J0D01*
G01*
X17564100Y-6223000D02*
G75*
G03X17564100Y-6223000I-38100J0D01*
G01*
X17571604Y-6985000D02*
G75*
G03X17571604Y-6985000I-38100J0D01*
G01*
X17571604Y-7239000D02*
G75*
G03X17571604Y-7239000I-38100J0D01*
G01*
X17571604Y-7493000D02*
G75*
G03X17571604Y-7493000I-38100J0D01*
G01*
X17571604Y-7747000D02*
G75*
G03X17571604Y-7747000I-38100J0D01*
G01*
X17571604Y-8001000D02*
G75*
G03X17571604Y-8001000I-38100J0D01*
G01*
X17571604Y-8255000D02*
G75*
G03X17571604Y-8255000I-38100J0D01*
G01*
X17571604Y-8509000D02*
G75*
G03X17571604Y-8509000I-38100J0D01*
G01*
X17571604Y-8763000D02*
G75*
G03X17571604Y-8763000I-38100J0D01*
G01*
X17571604Y-9017000D02*
G75*
G03X17571604Y-9017000I-38100J0D01*
G01*
X17571604Y-9271000D02*
G75*
G03X17571604Y-9271000I-38100J0D01*
G01*
X9652000Y-5103500D02*
X9652000Y-5183500D01*
X9612000Y-5143500D02*
X9692000Y-5143500D01*
X9706192Y-8389528D02*
X9706192Y-8469528D01*
X9666192Y-8429528D02*
X9746192Y-8429528D01*
X9706192Y-8643528D02*
X9706192Y-8723528D01*
X9666192Y-8683528D02*
X9746192Y-8683528D01*
X9715500Y-7834000D02*
X9715500Y-7914000D01*
X9675500Y-7874000D02*
X9755500Y-7874000D01*
X9715500Y-8088000D02*
X9715500Y-8168000D01*
X9675500Y-8128000D02*
X9755500Y-8128000D01*
X9856000Y-12088500D02*
X9856000Y-12168500D01*
X9816000Y-12128500D02*
X9896000Y-12128500D01*
X9886000Y-12228500D02*
X9886000Y-12028500D01*
X9826000Y-12228500D02*
X9826000Y-12028500D01*
X9886000Y-12028500D02*
G75*
G03X9826000Y-12028500I-30000J0D01*
G01*
X9826000Y-12228500D02*
G75*
G03X9886000Y-12228500I30000J0D01*
G01*
X10223500Y-12544000D02*
X10223500Y-12624000D01*
X10183500Y-12584000D02*
X10263500Y-12584000D01*
X10123500Y-12614000D02*
X10323500Y-12614000D01*
X10123500Y-12554000D02*
X10323500Y-12554000D01*
X10323500Y-12614000D02*
G75*
G03X10323500Y-12554000I0J30000D01*
G01*
X10123500Y-12554000D02*
G75*
G03X10123500Y-12614000I0J-30000D01*
G01*
X10414000Y-5103500D02*
X10414000Y-5183500D01*
X10374000Y-5143500D02*
X10454000Y-5143500D01*
X10468192Y-8389528D02*
X10468192Y-8469528D01*
X10428192Y-8429528D02*
X10508192Y-8429528D01*
X10468192Y-8643528D02*
X10468192Y-8723528D01*
X10428192Y-8683528D02*
X10508192Y-8683528D01*
X10477500Y-7834000D02*
X10477500Y-7914000D01*
X10437500Y-7874000D02*
X10517500Y-7874000D01*
X10477500Y-8088000D02*
X10477500Y-8168000D01*
X10437500Y-8128000D02*
X10517500Y-8128000D01*
X11366500Y-9929500D02*
X11366500Y-10009500D01*
X11326500Y-9969500D02*
X11406500Y-9969500D01*
X11386692Y-5539028D02*
X11386692Y-5619028D01*
X11346692Y-5579028D02*
X11426692Y-5579028D01*
X11386692Y-6301028D02*
X11386692Y-6381028D01*
X11346692Y-6341028D02*
X11426692Y-6341028D01*
X11386692Y-6618528D02*
X11386692Y-6698528D01*
X11346692Y-6658528D02*
X11426692Y-6658528D01*
X11386692Y-7380528D02*
X11386692Y-7460528D01*
X11346692Y-7420528D02*
X11426692Y-7420528D01*
X11430000Y-8596000D02*
X11430000Y-8676000D01*
X11390000Y-8636000D02*
X11470000Y-8636000D01*
X11497500Y-10691500D02*
X11497500Y-10771500D01*
X11457500Y-10731500D02*
X11537500Y-10731500D01*
X11620500Y-9929500D02*
X11620500Y-10009500D01*
X11580500Y-9969500D02*
X11660500Y-9969500D01*
X11640692Y-5539028D02*
X11640692Y-5619028D01*
X11600692Y-5579028D02*
X11680692Y-5579028D01*
X11640692Y-6301028D02*
X11640692Y-6381028D01*
X11600692Y-6341028D02*
X11680692Y-6341028D01*
X11684000Y-8596000D02*
X11684000Y-8676000D01*
X11644000Y-8636000D02*
X11724000Y-8636000D01*
X11747500Y-10691500D02*
X11747500Y-10771500D01*
X11707500Y-10731500D02*
X11787500Y-10731500D01*
X11894692Y-5539028D02*
X11894692Y-5619028D01*
X11854692Y-5579028D02*
X11934692Y-5579028D01*
X11894692Y-6301028D02*
X11894692Y-6381028D01*
X11854692Y-6341028D02*
X11934692Y-6341028D01*
X11938000Y-8596000D02*
X11938000Y-8676000D01*
X11898000Y-8636000D02*
X11978000Y-8636000D01*
X12001500Y-9929500D02*
X12001500Y-10009500D01*
X11961500Y-9969500D02*
X12041500Y-9969500D01*
X12001500Y-10691500D02*
X12001500Y-10771500D01*
X11961500Y-10731500D02*
X12041500Y-10731500D01*
X12148692Y-5539028D02*
X12148692Y-5619028D01*
X12108692Y-5579028D02*
X12188692Y-5579028D01*
X12148692Y-6301028D02*
X12148692Y-6381028D01*
X12108692Y-6341028D02*
X12188692Y-6341028D01*
X12255500Y-9929500D02*
X12255500Y-10009500D01*
X12215500Y-9969500D02*
X12295500Y-9969500D01*
X12255500Y-10691500D02*
X12255500Y-10771500D01*
X12215500Y-10731500D02*
X12295500Y-10731500D01*
X12402692Y-5539028D02*
X12402692Y-5619028D01*
X12362692Y-5579028D02*
X12442692Y-5579028D01*
X12402692Y-6301028D02*
X12402692Y-6381028D01*
X12362692Y-6341028D02*
X12442692Y-6341028D01*
X12529692Y-7063028D02*
X12529692Y-7143028D01*
X12489692Y-7103028D02*
X12569692Y-7103028D01*
X12656692Y-5539028D02*
X12656692Y-5619028D01*
X12616692Y-5579028D02*
X12696692Y-5579028D01*
X12656692Y-6301028D02*
X12656692Y-6381028D01*
X12616692Y-6341028D02*
X12696692Y-6341028D01*
X12783692Y-7063028D02*
X12783692Y-7143028D01*
X12743692Y-7103028D02*
X12823692Y-7103028D01*
X12890500Y-8151500D02*
X12890500Y-8231500D01*
X12850500Y-8191500D02*
X12930500Y-8191500D01*
X12910692Y-5539028D02*
X12910692Y-5619028D01*
X12870692Y-5579028D02*
X12950692Y-5579028D01*
X12910692Y-6301028D02*
X12910692Y-6381028D01*
X12870692Y-6341028D02*
X12950692Y-6341028D01*
X13164692Y-5539028D02*
X13164692Y-5619028D01*
X13124692Y-5579028D02*
X13204692Y-5579028D01*
X13164692Y-6301028D02*
X13164692Y-6381028D01*
X13124692Y-6341028D02*
X13204692Y-6341028D01*
X13164692Y-6745528D02*
X13164692Y-6825528D01*
X13124692Y-6785528D02*
X13204692Y-6785528D01*
X13164692Y-7194028D02*
X13164692Y-7274028D01*
X13124692Y-7234028D02*
X13204692Y-7234028D01*
X13164692Y-7444028D02*
X13164692Y-7524028D01*
X13124692Y-7484028D02*
X13204692Y-7484028D01*
X13418692Y-5539028D02*
X13418692Y-5619028D01*
X13378692Y-5579028D02*
X13458692Y-5579028D01*
X13418692Y-6301028D02*
X13418692Y-6381028D01*
X13378692Y-6341028D02*
X13458692Y-6341028D01*
X13652500Y-8151500D02*
X13652500Y-8231500D01*
X13612500Y-8191500D02*
X13692500Y-8191500D01*
X13654692Y-6745528D02*
X13654692Y-6825528D01*
X13614692Y-6785528D02*
X13694692Y-6785528D01*
X13672692Y-5539028D02*
X13672692Y-5619028D01*
X13632692Y-5579028D02*
X13712692Y-5579028D01*
X13672692Y-6301028D02*
X13672692Y-6381028D01*
X13632692Y-6341028D02*
X13712692Y-6341028D01*
X13672692Y-7194028D02*
X13672692Y-7274028D01*
X13632692Y-7234028D02*
X13712692Y-7234028D01*
X13672692Y-7444028D02*
X13672692Y-7524028D01*
X13632692Y-7484028D02*
X13712692Y-7484028D01*
X13926692Y-5539028D02*
X13926692Y-5619028D01*
X13886692Y-5579028D02*
X13966692Y-5579028D01*
X13926692Y-6301028D02*
X13926692Y-6381028D01*
X13886692Y-6341028D02*
X13966692Y-6341028D01*
X14180692Y-5539028D02*
X14180692Y-5619028D01*
X14140692Y-5579028D02*
X14220692Y-5579028D01*
X14180692Y-6301028D02*
X14180692Y-6381028D01*
X14140692Y-6341028D02*
X14220692Y-6341028D01*
X14434692Y-5539028D02*
X14434692Y-5619028D01*
X14394692Y-5579028D02*
X14474692Y-5579028D01*
X14434692Y-6301028D02*
X14434692Y-6381028D01*
X14394692Y-6341028D02*
X14474692Y-6341028D01*
X14688692Y-5539028D02*
X14688692Y-5619028D01*
X14648692Y-5579028D02*
X14728692Y-5579028D01*
X14688692Y-6301028D02*
X14688692Y-6381028D01*
X14648692Y-6341028D02*
X14728692Y-6341028D01*
X15374504Y-7424305D02*
X15374504Y-7504305D01*
X15334504Y-7464305D02*
X15414504Y-7464305D01*
X15374504Y-7678305D02*
X15374504Y-7758305D01*
X15334504Y-7718305D02*
X15414504Y-7718305D01*
X15374504Y-7932305D02*
X15374504Y-8012305D01*
X15334504Y-7972305D02*
X15414504Y-7972305D01*
X16136504Y-7424305D02*
X16136504Y-7504305D01*
X16096504Y-7464305D02*
X16176504Y-7464305D01*
X16136504Y-7678305D02*
X16136504Y-7758305D01*
X16096504Y-7718305D02*
X16176504Y-7718305D01*
X16136504Y-7932305D02*
X16136504Y-8012305D01*
X16096504Y-7972305D02*
X16176504Y-7972305D01*
X16192500Y-8659500D02*
X16192500Y-8739500D01*
X16152500Y-8699500D02*
X16232500Y-8699500D01*
X16192500Y-8913500D02*
X16192500Y-8993500D01*
X16152500Y-8953500D02*
X16232500Y-8953500D01*
X16390504Y-6662305D02*
X16390504Y-6742305D01*
X16350504Y-6702305D02*
X16430504Y-6702305D01*
X16390504Y-6916305D02*
X16390504Y-6996305D01*
X16350504Y-6956305D02*
X16430504Y-6956305D01*
X16390504Y-7170305D02*
X16390504Y-7250305D01*
X16350504Y-7210305D02*
X16430504Y-7210305D01*
X16390504Y-7424305D02*
X16390504Y-7504305D01*
X16350504Y-7464305D02*
X16430504Y-7464305D01*
X16390504Y-7678305D02*
X16390504Y-7758305D01*
X16350504Y-7718305D02*
X16430504Y-7718305D01*
X16390504Y-7932305D02*
X16390504Y-8012305D01*
X16350504Y-7972305D02*
X16430504Y-7972305D01*
X16390504Y-8186305D02*
X16390504Y-8266305D01*
X16350504Y-8226305D02*
X16430504Y-8226305D01*
X16390504Y-8440305D02*
X16390504Y-8520305D01*
X16350504Y-8480305D02*
X16430504Y-8480305D01*
X17152504Y-6662305D02*
X17152504Y-6742305D01*
X17112504Y-6702305D02*
X17192504Y-6702305D01*
X17152504Y-6916305D02*
X17152504Y-6996305D01*
X17112504Y-6956305D02*
X17192504Y-6956305D01*
X17152504Y-7170305D02*
X17152504Y-7250305D01*
X17112504Y-7210305D02*
X17192504Y-7210305D01*
X17152504Y-7424305D02*
X17152504Y-7504305D01*
X17112504Y-7464305D02*
X17192504Y-7464305D01*
X17152504Y-7678305D02*
X17152504Y-7758305D01*
X17112504Y-7718305D02*
X17192504Y-7718305D01*
X17152504Y-7932305D02*
X17152504Y-8012305D01*
X17112504Y-7972305D02*
X17192504Y-7972305D01*
X17152504Y-8186305D02*
X17152504Y-8266305D01*
X17112504Y-8226305D02*
X17192504Y-8226305D01*
X17152504Y-8440305D02*
X17152504Y-8520305D01*
X17112504Y-8480305D02*
X17192504Y-8480305D01*
X12858820Y-9366320D02*
X12858820Y-9302680D01*
X12795180Y-9302680D01*
X12795180Y-9366320D01*
X12858820Y-9366320D01*
X12858820Y-13430320D02*
X12858820Y-13366680D01*
X12795180Y-13366680D01*
X12795180Y-13430320D01*
X12858820Y-13430320D01*
X12922320Y-8667820D02*
X12922320Y-8604180D01*
X12858680Y-8604180D01*
X12858680Y-8667820D01*
X12922320Y-8667820D01*
X13176320Y-8667820D02*
X13176320Y-8604180D01*
X13112680Y-8604180D01*
X13112680Y-8667820D01*
X13176320Y-8667820D01*
X14636820Y-9366320D02*
X14636820Y-9302680D01*
X14573180Y-9302680D01*
X14573180Y-9366320D01*
X14636820Y-9366320D01*
X14636820Y-13430320D02*
X14636820Y-13366680D01*
X14573180Y-13366680D01*
X14573180Y-13430320D01*
X14636820Y-13430320D01*
X11747500Y-11226000D02*
X11797500Y-11176000D01*
X11747500Y-11126000D01*
X11697500Y-11176000D01*
X11747500Y-11226000D01*
X12001500Y-11226000D02*
X12051500Y-11176000D01*
X12001500Y-11126000D01*
X11951500Y-11176000D01*
X12001500Y-11226000D01*
X12255500Y-11226000D02*
X12305500Y-11176000D01*
X12255500Y-11126000D01*
X12205500Y-11176000D01*
X12255500Y-11226000D01*
D13*
X8868621Y-14212442D02*
X8868621Y-13912442D01*
X8940049Y-13912442D01*
X8982906Y-13926728D01*
X9011478Y-13955299D01*
X9025763Y-13983871D01*
X9040049Y-14041014D01*
X9040049Y-14083871D01*
X9025763Y-14141014D01*
X9011478Y-14169585D01*
X8982906Y-14198156D01*
X8940049Y-14212442D01*
X8868621Y-14212442D01*
X9168621Y-14212442D02*
X9168621Y-14012442D01*
X9168621Y-14069585D02*
X9182906Y-14041014D01*
X9197192Y-14026728D01*
X9225763Y-14012442D01*
X9254335Y-14012442D01*
X9354335Y-14212442D02*
X9354335Y-14012442D01*
X9354335Y-13912442D02*
X9340049Y-13926728D01*
X9354335Y-13941014D01*
X9368621Y-13926728D01*
X9354335Y-13912442D01*
X9354335Y-13941014D01*
X9540049Y-14212442D02*
X9511478Y-14198156D01*
X9497192Y-14169585D01*
X9497192Y-13912442D01*
X9697192Y-14212442D02*
X9668621Y-14198156D01*
X9654335Y-14169585D01*
X9654335Y-13912442D01*
X10040049Y-14212442D02*
X10040049Y-13912442D01*
X10140049Y-14126728D01*
X10240049Y-13912442D01*
X10240049Y-14212442D01*
X10511478Y-14212442D02*
X10511478Y-14055299D01*
X10497192Y-14026728D01*
X10468621Y-14012442D01*
X10411478Y-14012442D01*
X10382906Y-14026728D01*
X10511478Y-14198156D02*
X10482906Y-14212442D01*
X10411478Y-14212442D01*
X10382906Y-14198156D01*
X10368621Y-14169585D01*
X10368621Y-14141014D01*
X10382906Y-14112442D01*
X10411478Y-14098156D01*
X10482906Y-14098156D01*
X10511478Y-14083871D01*
X10654335Y-14012442D02*
X10654335Y-14312442D01*
X10654335Y-14026728D02*
X10682906Y-14012442D01*
X10740049Y-14012442D01*
X10768621Y-14026728D01*
X10782906Y-14041014D01*
X10797192Y-14069585D01*
X10797192Y-14155299D01*
X10782906Y-14183871D01*
X10768621Y-14198156D01*
X10740049Y-14212442D01*
X10682906Y-14212442D01*
X10654335Y-14198156D01*
X10925763Y-14183871D02*
X10940049Y-14198156D01*
X10925763Y-14212442D01*
X10911478Y-14198156D01*
X10925763Y-14183871D01*
X10925763Y-14212442D01*
X10925763Y-14026728D02*
X10940049Y-14041014D01*
X10925763Y-14055299D01*
X10911478Y-14041014D01*
X10925763Y-14026728D01*
X10925763Y-14055299D01*
X8527192Y-14671728D02*
X8597192Y-14741728D01*
X8597192Y-14671728D02*
X8527192Y-14741728D01*
X8925763Y-14542442D02*
X8954335Y-14542442D01*
X8982906Y-14556728D01*
X8997192Y-14571014D01*
X9011478Y-14599585D01*
X9025763Y-14656728D01*
X9025763Y-14728156D01*
X9011478Y-14785299D01*
X8997192Y-14813871D01*
X8982906Y-14828156D01*
X8954335Y-14842442D01*
X8925763Y-14842442D01*
X8897192Y-14828156D01*
X8882906Y-14813871D01*
X8868621Y-14785299D01*
X8854335Y-14728156D01*
X8854335Y-14656728D01*
X8868621Y-14599585D01*
X8882906Y-14571014D01*
X8897192Y-14556728D01*
X8925763Y-14542442D01*
X9154335Y-14813871D02*
X9168621Y-14828156D01*
X9154335Y-14842442D01*
X9140049Y-14828156D01*
X9154335Y-14813871D01*
X9154335Y-14842442D01*
X9268620Y-14542442D02*
X9468620Y-14542442D01*
X9340049Y-14842442D01*
X9640049Y-14542442D02*
X9668621Y-14542442D01*
X9697192Y-14556728D01*
X9711478Y-14571014D01*
X9725763Y-14599585D01*
X9740049Y-14656728D01*
X9740049Y-14728156D01*
X9725763Y-14785299D01*
X9711478Y-14813871D01*
X9697192Y-14828156D01*
X9668621Y-14842442D01*
X9640049Y-14842442D01*
X9611478Y-14828156D01*
X9597192Y-14813871D01*
X9582906Y-14785299D01*
X9568621Y-14728156D01*
X9568621Y-14656728D01*
X9582906Y-14599585D01*
X9597192Y-14571014D01*
X9611478Y-14556728D01*
X9640049Y-14542442D01*
X9868621Y-14842442D02*
X9868621Y-14642442D01*
X9868621Y-14671014D02*
X9882906Y-14656728D01*
X9911478Y-14642442D01*
X9954335Y-14642442D01*
X9982906Y-14656728D01*
X9997192Y-14685299D01*
X9997192Y-14842442D01*
X9997192Y-14685299D02*
X10011478Y-14656728D01*
X10040049Y-14642442D01*
X10082906Y-14642442D01*
X10111478Y-14656728D01*
X10125763Y-14685299D01*
X10125763Y-14842442D01*
X10268621Y-14842442D02*
X10268621Y-14642442D01*
X10268621Y-14671014D02*
X10282906Y-14656728D01*
X10311478Y-14642442D01*
X10354335Y-14642442D01*
X10382906Y-14656728D01*
X10397192Y-14685299D01*
X10397192Y-14842442D01*
X10397192Y-14685299D02*
X10411478Y-14656728D01*
X10440049Y-14642442D01*
X10482906Y-14642442D01*
X10511478Y-14656728D01*
X10525763Y-14685299D01*
X10525763Y-14842442D01*
X11111478Y-14528156D02*
X10854335Y-14913871D01*
X11497192Y-14542442D02*
X11525763Y-14542442D01*
X11554335Y-14556728D01*
X11568620Y-14571014D01*
X11582906Y-14599585D01*
X11597192Y-14656728D01*
X11597192Y-14728156D01*
X11582906Y-14785299D01*
X11568620Y-14813871D01*
X11554335Y-14828156D01*
X11525763Y-14842442D01*
X11497192Y-14842442D01*
X11468620Y-14828156D01*
X11454335Y-14813871D01*
X11440049Y-14785299D01*
X11425763Y-14728156D01*
X11425763Y-14656728D01*
X11440049Y-14599585D01*
X11454335Y-14571014D01*
X11468620Y-14556728D01*
X11497192Y-14542442D01*
X11725763Y-14813871D02*
X11740049Y-14828156D01*
X11725763Y-14842442D01*
X11711478Y-14828156D01*
X11725763Y-14813871D01*
X11725763Y-14842442D01*
X11925763Y-14542442D02*
X11954335Y-14542442D01*
X11982906Y-14556728D01*
X11997192Y-14571014D01*
X12011477Y-14599585D01*
X12025763Y-14656728D01*
X12025763Y-14728156D01*
X12011477Y-14785299D01*
X11997192Y-14813871D01*
X11982906Y-14828156D01*
X11954335Y-14842442D01*
X11925763Y-14842442D01*
X11897192Y-14828156D01*
X11882906Y-14813871D01*
X11868620Y-14785299D01*
X11854335Y-14728156D01*
X11854335Y-14656728D01*
X11868620Y-14599585D01*
X11882906Y-14571014D01*
X11897192Y-14556728D01*
X11925763Y-14542442D01*
X12140049Y-14571014D02*
X12154335Y-14556728D01*
X12182906Y-14542442D01*
X12254335Y-14542442D01*
X12282906Y-14556728D01*
X12297192Y-14571014D01*
X12311477Y-14599585D01*
X12311477Y-14628156D01*
X12297192Y-14671014D01*
X12125763Y-14842442D01*
X12311477Y-14842442D01*
X12482906Y-14671014D02*
X12454335Y-14656728D01*
X12440049Y-14642442D01*
X12425763Y-14613871D01*
X12425763Y-14599585D01*
X12440049Y-14571014D01*
X12454335Y-14556728D01*
X12482906Y-14542442D01*
X12540049Y-14542442D01*
X12568620Y-14556728D01*
X12582906Y-14571014D01*
X12597192Y-14599585D01*
X12597192Y-14613871D01*
X12582906Y-14642442D01*
X12568620Y-14656728D01*
X12540049Y-14671014D01*
X12482906Y-14671014D01*
X12454335Y-14685299D01*
X12440049Y-14699585D01*
X12425763Y-14728156D01*
X12425763Y-14785299D01*
X12440049Y-14813871D01*
X12454335Y-14828156D01*
X12482906Y-14842442D01*
X12540049Y-14842442D01*
X12568620Y-14828156D01*
X12582906Y-14813871D01*
X12597192Y-14785299D01*
X12597192Y-14728156D01*
X12582906Y-14699585D01*
X12568620Y-14685299D01*
X12540049Y-14671014D01*
X12711478Y-14542442D02*
X12711478Y-14599585D01*
X12825763Y-14542442D02*
X12825763Y-14599585D01*
X13268620Y-14956728D02*
X13254335Y-14942442D01*
X13225763Y-14899585D01*
X13211477Y-14871014D01*
X13197192Y-14828156D01*
X13182906Y-14756728D01*
X13182906Y-14699585D01*
X13197192Y-14628156D01*
X13211477Y-14585299D01*
X13225763Y-14556728D01*
X13254335Y-14513871D01*
X13268620Y-14499585D01*
X13540049Y-14842442D02*
X13368620Y-14842442D01*
X13454335Y-14842442D02*
X13454335Y-14542442D01*
X13425763Y-14585299D01*
X13397192Y-14613871D01*
X13368620Y-14628156D01*
X13882906Y-14828156D02*
X13911477Y-14842442D01*
X13968620Y-14842442D01*
X13997192Y-14828156D01*
X14011477Y-14799585D01*
X14011477Y-14785299D01*
X13997192Y-14756728D01*
X13968620Y-14742442D01*
X13925763Y-14742442D01*
X13897192Y-14728156D01*
X13882906Y-14699585D01*
X13882906Y-14685299D01*
X13897192Y-14656728D01*
X13925763Y-14642442D01*
X13968620Y-14642442D01*
X13997192Y-14656728D01*
X14182906Y-14842442D02*
X14154335Y-14828156D01*
X14140049Y-14799585D01*
X14140049Y-14542442D01*
X14340049Y-14842442D02*
X14311477Y-14828156D01*
X14297192Y-14813871D01*
X14282906Y-14785299D01*
X14282906Y-14699585D01*
X14297192Y-14671014D01*
X14311477Y-14656728D01*
X14340049Y-14642442D01*
X14382906Y-14642442D01*
X14411477Y-14656728D01*
X14425763Y-14671014D01*
X14440049Y-14699585D01*
X14440049Y-14785299D01*
X14425763Y-14813871D01*
X14411477Y-14828156D01*
X14382906Y-14842442D01*
X14340049Y-14842442D01*
X14525763Y-14642442D02*
X14640049Y-14642442D01*
X14568620Y-14542442D02*
X14568620Y-14799585D01*
X14582906Y-14828156D01*
X14611477Y-14842442D01*
X14640049Y-14842442D01*
X14711477Y-14956728D02*
X14725763Y-14942442D01*
X14754335Y-14899585D01*
X14768620Y-14871014D01*
X14782906Y-14828156D01*
X14797192Y-14756728D01*
X14797192Y-14699585D01*
X14782906Y-14628156D01*
X14768620Y-14585299D01*
X14754335Y-14556728D01*
X14725763Y-14513871D01*
X14711477Y-14499585D01*
X8597192Y-15102728D02*
G75*
G03X8597192Y-15102728I-38100J0D01*
G01*
X8925763Y-14938442D02*
X8954335Y-14938442D01*
X8982906Y-14952728D01*
X8997192Y-14967014D01*
X9011478Y-14995585D01*
X9025763Y-15052728D01*
X9025763Y-15124156D01*
X9011478Y-15181299D01*
X8997192Y-15209871D01*
X8982906Y-15224156D01*
X8954335Y-15238442D01*
X8925763Y-15238442D01*
X8897192Y-15224156D01*
X8882906Y-15209871D01*
X8868621Y-15181299D01*
X8854335Y-15124156D01*
X8854335Y-15052728D01*
X8868621Y-14995585D01*
X8882906Y-14967014D01*
X8897192Y-14952728D01*
X8925763Y-14938442D01*
X9154335Y-15209871D02*
X9168621Y-15224156D01*
X9154335Y-15238442D01*
X9140049Y-15224156D01*
X9154335Y-15209871D01*
X9154335Y-15238442D01*
X9268620Y-14938442D02*
X9468620Y-14938442D01*
X9340049Y-15238442D01*
X9711478Y-14938442D02*
X9654335Y-14938442D01*
X9625763Y-14952728D01*
X9611478Y-14967014D01*
X9582906Y-15009871D01*
X9568621Y-15067014D01*
X9568621Y-15181299D01*
X9582906Y-15209871D01*
X9597192Y-15224156D01*
X9625763Y-15238442D01*
X9682906Y-15238442D01*
X9711478Y-15224156D01*
X9725763Y-15209871D01*
X9740049Y-15181299D01*
X9740049Y-15109871D01*
X9725763Y-15081299D01*
X9711478Y-15067014D01*
X9682906Y-15052728D01*
X9625763Y-15052728D01*
X9597192Y-15067014D01*
X9582906Y-15081299D01*
X9568621Y-15109871D01*
X9868621Y-15238442D02*
X9868621Y-15038442D01*
X9868621Y-15067014D02*
X9882906Y-15052728D01*
X9911478Y-15038442D01*
X9954335Y-15038442D01*
X9982906Y-15052728D01*
X9997192Y-15081299D01*
X9997192Y-15238442D01*
X9997192Y-15081299D02*
X10011478Y-15052728D01*
X10040049Y-15038442D01*
X10082906Y-15038442D01*
X10111478Y-15052728D01*
X10125763Y-15081299D01*
X10125763Y-15238442D01*
X10268621Y-15238442D02*
X10268621Y-15038442D01*
X10268621Y-15067014D02*
X10282906Y-15052728D01*
X10311478Y-15038442D01*
X10354335Y-15038442D01*
X10382906Y-15052728D01*
X10397192Y-15081299D01*
X10397192Y-15238442D01*
X10397192Y-15081299D02*
X10411478Y-15052728D01*
X10440049Y-15038442D01*
X10482906Y-15038442D01*
X10511478Y-15052728D01*
X10525763Y-15081299D01*
X10525763Y-15238442D01*
X11111478Y-14924156D02*
X10854335Y-15309871D01*
X11497192Y-14938442D02*
X11525763Y-14938442D01*
X11554335Y-14952728D01*
X11568620Y-14967014D01*
X11582906Y-14995585D01*
X11597192Y-15052728D01*
X11597192Y-15124156D01*
X11582906Y-15181299D01*
X11568620Y-15209871D01*
X11554335Y-15224156D01*
X11525763Y-15238442D01*
X11497192Y-15238442D01*
X11468620Y-15224156D01*
X11454335Y-15209871D01*
X11440049Y-15181299D01*
X11425763Y-15124156D01*
X11425763Y-15052728D01*
X11440049Y-14995585D01*
X11454335Y-14967014D01*
X11468620Y-14952728D01*
X11497192Y-14938442D01*
X11725763Y-15209871D02*
X11740049Y-15224156D01*
X11725763Y-15238442D01*
X11711478Y-15224156D01*
X11725763Y-15209871D01*
X11725763Y-15238442D01*
X11925763Y-14938442D02*
X11954335Y-14938442D01*
X11982906Y-14952728D01*
X11997192Y-14967014D01*
X12011477Y-14995585D01*
X12025763Y-15052728D01*
X12025763Y-15124156D01*
X12011477Y-15181299D01*
X11997192Y-15209871D01*
X11982906Y-15224156D01*
X11954335Y-15238442D01*
X11925763Y-15238442D01*
X11897192Y-15224156D01*
X11882906Y-15209871D01*
X11868620Y-15181299D01*
X11854335Y-15124156D01*
X11854335Y-15052728D01*
X11868620Y-14995585D01*
X11882906Y-14967014D01*
X11897192Y-14952728D01*
X11925763Y-14938442D01*
X12125763Y-14938442D02*
X12311477Y-14938442D01*
X12211477Y-15052728D01*
X12254335Y-15052728D01*
X12282906Y-15067014D01*
X12297192Y-15081299D01*
X12311477Y-15109871D01*
X12311477Y-15181299D01*
X12297192Y-15209871D01*
X12282906Y-15224156D01*
X12254335Y-15238442D01*
X12168620Y-15238442D01*
X12140049Y-15224156D01*
X12125763Y-15209871D01*
X12497192Y-14938442D02*
X12525763Y-14938442D01*
X12554335Y-14952728D01*
X12568620Y-14967014D01*
X12582906Y-14995585D01*
X12597192Y-15052728D01*
X12597192Y-15124156D01*
X12582906Y-15181299D01*
X12568620Y-15209871D01*
X12554335Y-15224156D01*
X12525763Y-15238442D01*
X12497192Y-15238442D01*
X12468620Y-15224156D01*
X12454335Y-15209871D01*
X12440049Y-15181299D01*
X12425763Y-15124156D01*
X12425763Y-15052728D01*
X12440049Y-14995585D01*
X12454335Y-14967014D01*
X12468620Y-14952728D01*
X12497192Y-14938442D01*
X12711478Y-14938442D02*
X12711478Y-14995585D01*
X12825763Y-14938442D02*
X12825763Y-14995585D01*
X13268620Y-15352728D02*
X13254335Y-15338442D01*
X13225763Y-15295585D01*
X13211477Y-15267014D01*
X13197192Y-15224156D01*
X13182906Y-15152728D01*
X13182906Y-15095585D01*
X13197192Y-15024156D01*
X13211477Y-14981299D01*
X13225763Y-14952728D01*
X13254335Y-14909871D01*
X13268620Y-14895585D01*
X13525763Y-14938442D02*
X13382906Y-14938442D01*
X13368620Y-15081299D01*
X13382906Y-15067014D01*
X13411477Y-15052728D01*
X13482906Y-15052728D01*
X13511477Y-15067014D01*
X13525763Y-15081299D01*
X13540049Y-15109871D01*
X13540049Y-15181299D01*
X13525763Y-15209871D01*
X13511477Y-15224156D01*
X13482906Y-15238442D01*
X13411477Y-15238442D01*
X13382906Y-15224156D01*
X13368620Y-15209871D01*
X13797192Y-15038442D02*
X13797192Y-15238442D01*
X13725763Y-14924156D02*
X13654335Y-15138442D01*
X13840049Y-15138442D01*
X14182906Y-15238442D02*
X14182906Y-14938442D01*
X14311477Y-15238442D02*
X14311477Y-15081299D01*
X14297192Y-15052728D01*
X14268620Y-15038442D01*
X14225763Y-15038442D01*
X14197192Y-15052728D01*
X14182906Y-15067014D01*
X14497192Y-15238442D02*
X14468620Y-15224156D01*
X14454335Y-15209871D01*
X14440049Y-15181299D01*
X14440049Y-15095585D01*
X14454335Y-15067014D01*
X14468620Y-15052728D01*
X14497192Y-15038442D01*
X14540049Y-15038442D01*
X14568620Y-15052728D01*
X14582906Y-15067014D01*
X14597192Y-15095585D01*
X14597192Y-15181299D01*
X14582906Y-15209871D01*
X14568620Y-15224156D01*
X14540049Y-15238442D01*
X14497192Y-15238442D01*
X14768620Y-15238442D02*
X14740049Y-15224156D01*
X14725763Y-15195585D01*
X14725763Y-14938442D01*
X14997192Y-15224156D02*
X14968620Y-15238442D01*
X14911478Y-15238442D01*
X14882906Y-15224156D01*
X14868620Y-15195585D01*
X14868620Y-15081299D01*
X14882906Y-15052728D01*
X14911478Y-15038442D01*
X14968620Y-15038442D01*
X14997192Y-15052728D01*
X15011478Y-15081299D01*
X15011478Y-15109871D01*
X14868620Y-15138442D01*
X15125763Y-15224156D02*
X15154335Y-15238442D01*
X15211478Y-15238442D01*
X15240049Y-15224156D01*
X15254335Y-15195585D01*
X15254335Y-15181299D01*
X15240049Y-15152728D01*
X15211478Y-15138442D01*
X15168620Y-15138442D01*
X15140049Y-15124156D01*
X15125763Y-15095585D01*
X15125763Y-15081299D01*
X15140049Y-15052728D01*
X15168620Y-15038442D01*
X15211478Y-15038442D01*
X15240049Y-15052728D01*
X15354335Y-15352728D02*
X15368620Y-15338442D01*
X15397192Y-15295585D01*
X15411478Y-15267014D01*
X15425763Y-15224156D01*
X15440049Y-15152728D01*
X15440049Y-15095585D01*
X15425763Y-15024156D01*
X15411478Y-14981299D01*
X15397192Y-14952728D01*
X15368620Y-14909871D01*
X15354335Y-14895585D01*
X8557192Y-15458728D02*
X8557192Y-15538728D01*
X8517192Y-15498728D02*
X8597192Y-15498728D01*
X8925763Y-15334442D02*
X8954335Y-15334442D01*
X8982906Y-15348728D01*
X8997192Y-15363014D01*
X9011478Y-15391585D01*
X9025763Y-15448728D01*
X9025763Y-15520156D01*
X9011478Y-15577299D01*
X8997192Y-15605871D01*
X8982906Y-15620156D01*
X8954335Y-15634442D01*
X8925763Y-15634442D01*
X8897192Y-15620156D01*
X8882906Y-15605871D01*
X8868621Y-15577299D01*
X8854335Y-15520156D01*
X8854335Y-15448728D01*
X8868621Y-15391585D01*
X8882906Y-15363014D01*
X8897192Y-15348728D01*
X8925763Y-15334442D01*
X9154335Y-15605871D02*
X9168621Y-15620156D01*
X9154335Y-15634442D01*
X9140049Y-15620156D01*
X9154335Y-15605871D01*
X9154335Y-15634442D01*
X9340049Y-15463014D02*
X9311478Y-15448728D01*
X9297192Y-15434442D01*
X9282906Y-15405871D01*
X9282906Y-15391585D01*
X9297192Y-15363014D01*
X9311478Y-15348728D01*
X9340049Y-15334442D01*
X9397192Y-15334442D01*
X9425763Y-15348728D01*
X9440049Y-15363014D01*
X9454335Y-15391585D01*
X9454335Y-15405871D01*
X9440049Y-15434442D01*
X9425763Y-15448728D01*
X9397192Y-15463014D01*
X9340049Y-15463014D01*
X9311478Y-15477299D01*
X9297192Y-15491585D01*
X9282906Y-15520156D01*
X9282906Y-15577299D01*
X9297192Y-15605871D01*
X9311478Y-15620156D01*
X9340049Y-15634442D01*
X9397192Y-15634442D01*
X9425763Y-15620156D01*
X9440049Y-15605871D01*
X9454335Y-15577299D01*
X9454335Y-15520156D01*
X9440049Y-15491585D01*
X9425763Y-15477299D01*
X9397192Y-15463014D01*
X9640049Y-15334442D02*
X9668621Y-15334442D01*
X9697192Y-15348728D01*
X9711478Y-15363014D01*
X9725763Y-15391585D01*
X9740049Y-15448728D01*
X9740049Y-15520156D01*
X9725763Y-15577299D01*
X9711478Y-15605871D01*
X9697192Y-15620156D01*
X9668621Y-15634442D01*
X9640049Y-15634442D01*
X9611478Y-15620156D01*
X9597192Y-15605871D01*
X9582906Y-15577299D01*
X9568621Y-15520156D01*
X9568621Y-15448728D01*
X9582906Y-15391585D01*
X9597192Y-15363014D01*
X9611478Y-15348728D01*
X9640049Y-15334442D01*
X9868621Y-15634442D02*
X9868621Y-15434442D01*
X9868621Y-15463014D02*
X9882906Y-15448728D01*
X9911478Y-15434442D01*
X9954335Y-15434442D01*
X9982906Y-15448728D01*
X9997192Y-15477299D01*
X9997192Y-15634442D01*
X9997192Y-15477299D02*
X10011478Y-15448728D01*
X10040049Y-15434442D01*
X10082906Y-15434442D01*
X10111478Y-15448728D01*
X10125763Y-15477299D01*
X10125763Y-15634442D01*
X10268621Y-15634442D02*
X10268621Y-15434442D01*
X10268621Y-15463014D02*
X10282906Y-15448728D01*
X10311478Y-15434442D01*
X10354335Y-15434442D01*
X10382906Y-15448728D01*
X10397192Y-15477299D01*
X10397192Y-15634442D01*
X10397192Y-15477299D02*
X10411478Y-15448728D01*
X10440049Y-15434442D01*
X10482906Y-15434442D01*
X10511478Y-15448728D01*
X10525763Y-15477299D01*
X10525763Y-15634442D01*
X11111478Y-15320156D02*
X10854335Y-15705871D01*
X11497192Y-15334442D02*
X11525763Y-15334442D01*
X11554335Y-15348728D01*
X11568620Y-15363014D01*
X11582906Y-15391585D01*
X11597192Y-15448728D01*
X11597192Y-15520156D01*
X11582906Y-15577299D01*
X11568620Y-15605871D01*
X11554335Y-15620156D01*
X11525763Y-15634442D01*
X11497192Y-15634442D01*
X11468620Y-15620156D01*
X11454335Y-15605871D01*
X11440049Y-15577299D01*
X11425763Y-15520156D01*
X11425763Y-15448728D01*
X11440049Y-15391585D01*
X11454335Y-15363014D01*
X11468620Y-15348728D01*
X11497192Y-15334442D01*
X11725763Y-15605871D02*
X11740049Y-15620156D01*
X11725763Y-15634442D01*
X11711478Y-15620156D01*
X11725763Y-15605871D01*
X11725763Y-15634442D01*
X11925763Y-15334442D02*
X11954335Y-15334442D01*
X11982906Y-15348728D01*
X11997192Y-15363014D01*
X12011477Y-15391585D01*
X12025763Y-15448728D01*
X12025763Y-15520156D01*
X12011477Y-15577299D01*
X11997192Y-15605871D01*
X11982906Y-15620156D01*
X11954335Y-15634442D01*
X11925763Y-15634442D01*
X11897192Y-15620156D01*
X11882906Y-15605871D01*
X11868620Y-15577299D01*
X11854335Y-15520156D01*
X11854335Y-15448728D01*
X11868620Y-15391585D01*
X11882906Y-15363014D01*
X11897192Y-15348728D01*
X11925763Y-15334442D01*
X12125763Y-15334442D02*
X12311477Y-15334442D01*
X12211477Y-15448728D01*
X12254335Y-15448728D01*
X12282906Y-15463014D01*
X12297192Y-15477299D01*
X12311477Y-15505871D01*
X12311477Y-15577299D01*
X12297192Y-15605871D01*
X12282906Y-15620156D01*
X12254335Y-15634442D01*
X12168620Y-15634442D01*
X12140049Y-15620156D01*
X12125763Y-15605871D01*
X12597192Y-15634442D02*
X12425763Y-15634442D01*
X12511477Y-15634442D02*
X12511477Y-15334442D01*
X12482906Y-15377299D01*
X12454335Y-15405871D01*
X12425763Y-15420156D01*
X12711478Y-15334442D02*
X12711478Y-15391585D01*
X12825763Y-15334442D02*
X12825763Y-15391585D01*
X13268620Y-15748728D02*
X13254335Y-15734442D01*
X13225763Y-15691585D01*
X13211477Y-15663014D01*
X13197192Y-15620156D01*
X13182906Y-15548728D01*
X13182906Y-15491585D01*
X13197192Y-15420156D01*
X13211477Y-15377299D01*
X13225763Y-15348728D01*
X13254335Y-15305871D01*
X13268620Y-15291585D01*
X13425763Y-15463014D02*
X13397192Y-15448728D01*
X13382906Y-15434442D01*
X13368620Y-15405871D01*
X13368620Y-15391585D01*
X13382906Y-15363014D01*
X13397192Y-15348728D01*
X13425763Y-15334442D01*
X13482906Y-15334442D01*
X13511477Y-15348728D01*
X13525763Y-15363014D01*
X13540049Y-15391585D01*
X13540049Y-15405871D01*
X13525763Y-15434442D01*
X13511477Y-15448728D01*
X13482906Y-15463014D01*
X13425763Y-15463014D01*
X13397192Y-15477299D01*
X13382906Y-15491585D01*
X13368620Y-15520156D01*
X13368620Y-15577299D01*
X13382906Y-15605871D01*
X13397192Y-15620156D01*
X13425763Y-15634442D01*
X13482906Y-15634442D01*
X13511477Y-15620156D01*
X13525763Y-15605871D01*
X13540049Y-15577299D01*
X13540049Y-15520156D01*
X13525763Y-15491585D01*
X13511477Y-15477299D01*
X13482906Y-15463014D01*
X13811477Y-15334442D02*
X13668620Y-15334442D01*
X13654335Y-15477299D01*
X13668620Y-15463014D01*
X13697192Y-15448728D01*
X13768620Y-15448728D01*
X13797192Y-15463014D01*
X13811477Y-15477299D01*
X13825763Y-15505871D01*
X13825763Y-15577299D01*
X13811477Y-15605871D01*
X13797192Y-15620156D01*
X13768620Y-15634442D01*
X13697192Y-15634442D01*
X13668620Y-15620156D01*
X13654335Y-15605871D01*
X14182906Y-15634442D02*
X14182906Y-15334442D01*
X14311477Y-15634442D02*
X14311477Y-15477299D01*
X14297192Y-15448728D01*
X14268620Y-15434442D01*
X14225763Y-15434442D01*
X14197192Y-15448728D01*
X14182906Y-15463014D01*
X14497192Y-15634442D02*
X14468620Y-15620156D01*
X14454335Y-15605871D01*
X14440049Y-15577299D01*
X14440049Y-15491585D01*
X14454335Y-15463014D01*
X14468620Y-15448728D01*
X14497192Y-15434442D01*
X14540049Y-15434442D01*
X14568620Y-15448728D01*
X14582906Y-15463014D01*
X14597192Y-15491585D01*
X14597192Y-15577299D01*
X14582906Y-15605871D01*
X14568620Y-15620156D01*
X14540049Y-15634442D01*
X14497192Y-15634442D01*
X14768620Y-15634442D02*
X14740049Y-15620156D01*
X14725763Y-15591585D01*
X14725763Y-15334442D01*
X14997192Y-15620156D02*
X14968620Y-15634442D01*
X14911478Y-15634442D01*
X14882906Y-15620156D01*
X14868620Y-15591585D01*
X14868620Y-15477299D01*
X14882906Y-15448728D01*
X14911478Y-15434442D01*
X14968620Y-15434442D01*
X14997192Y-15448728D01*
X15011478Y-15477299D01*
X15011478Y-15505871D01*
X14868620Y-15534442D01*
X15125763Y-15620156D02*
X15154335Y-15634442D01*
X15211478Y-15634442D01*
X15240049Y-15620156D01*
X15254335Y-15591585D01*
X15254335Y-15577299D01*
X15240049Y-15548728D01*
X15211478Y-15534442D01*
X15168620Y-15534442D01*
X15140049Y-15520156D01*
X15125763Y-15491585D01*
X15125763Y-15477299D01*
X15140049Y-15448728D01*
X15168620Y-15434442D01*
X15211478Y-15434442D01*
X15240049Y-15448728D01*
X15611478Y-15520156D02*
X15840049Y-15520156D01*
X15725763Y-15634442D02*
X15725763Y-15405871D01*
X16197192Y-15363014D02*
X16211478Y-15348728D01*
X16240049Y-15334442D01*
X16311478Y-15334442D01*
X16340049Y-15348728D01*
X16354335Y-15363014D01*
X16368620Y-15391585D01*
X16368620Y-15420156D01*
X16354335Y-15463014D01*
X16182906Y-15634442D01*
X16368620Y-15634442D01*
X16711478Y-15620156D02*
X16740049Y-15634442D01*
X16797192Y-15634442D01*
X16825763Y-15620156D01*
X16840049Y-15591585D01*
X16840049Y-15577299D01*
X16825763Y-15548728D01*
X16797192Y-15534442D01*
X16754335Y-15534442D01*
X16725763Y-15520156D01*
X16711478Y-15491585D01*
X16711478Y-15477299D01*
X16725763Y-15448728D01*
X16754335Y-15434442D01*
X16797192Y-15434442D01*
X16825763Y-15448728D01*
X17011478Y-15634442D02*
X16982906Y-15620156D01*
X16968620Y-15591585D01*
X16968620Y-15334442D01*
X17168620Y-15634442D02*
X17140049Y-15620156D01*
X17125763Y-15605871D01*
X17111478Y-15577299D01*
X17111478Y-15491585D01*
X17125763Y-15463014D01*
X17140049Y-15448728D01*
X17168620Y-15434442D01*
X17211478Y-15434442D01*
X17240049Y-15448728D01*
X17254335Y-15463014D01*
X17268620Y-15491585D01*
X17268620Y-15577299D01*
X17254335Y-15605871D01*
X17240049Y-15620156D01*
X17211478Y-15634442D01*
X17168620Y-15634442D01*
X17354335Y-15434442D02*
X17468620Y-15434442D01*
X17397192Y-15334442D02*
X17397192Y-15591585D01*
X17411478Y-15620156D01*
X17440049Y-15634442D01*
X17468620Y-15634442D01*
X17554335Y-15620156D02*
X17582906Y-15634442D01*
X17640049Y-15634442D01*
X17668621Y-15620156D01*
X17682906Y-15591585D01*
X17682906Y-15577299D01*
X17668621Y-15548728D01*
X17640049Y-15534442D01*
X17597192Y-15534442D01*
X17568621Y-15520156D01*
X17554335Y-15491585D01*
X17554335Y-15477299D01*
X17568621Y-15448728D01*
X17597192Y-15434442D01*
X17640049Y-15434442D01*
X17668621Y-15448728D01*
X17782906Y-15748728D02*
X17797192Y-15734442D01*
X17825763Y-15691585D01*
X17840049Y-15663014D01*
X17854335Y-15620156D01*
X17868620Y-15548728D01*
X17868620Y-15491585D01*
X17854335Y-15420156D01*
X17840049Y-15377299D01*
X17825763Y-15348728D01*
X17797192Y-15305871D01*
X17782906Y-15291585D01*
X8584012Y-15926548D02*
X8584012Y-15862908D01*
X8520372Y-15862908D01*
X8520372Y-15926548D01*
X8584012Y-15926548D01*
X8925763Y-15730442D02*
X8954335Y-15730442D01*
X8982906Y-15744728D01*
X8997192Y-15759014D01*
X9011478Y-15787585D01*
X9025763Y-15844728D01*
X9025763Y-15916156D01*
X9011478Y-15973299D01*
X8997192Y-16001871D01*
X8982906Y-16016156D01*
X8954335Y-16030442D01*
X8925763Y-16030442D01*
X8897192Y-16016156D01*
X8882906Y-16001871D01*
X8868621Y-15973299D01*
X8854335Y-15916156D01*
X8854335Y-15844728D01*
X8868621Y-15787585D01*
X8882906Y-15759014D01*
X8897192Y-15744728D01*
X8925763Y-15730442D01*
X9154335Y-16001871D02*
X9168621Y-16016156D01*
X9154335Y-16030442D01*
X9140049Y-16016156D01*
X9154335Y-16001871D01*
X9154335Y-16030442D01*
X9311478Y-16030442D02*
X9368620Y-16030442D01*
X9397192Y-16016156D01*
X9411478Y-16001871D01*
X9440049Y-15959014D01*
X9454335Y-15901871D01*
X9454335Y-15787585D01*
X9440049Y-15759014D01*
X9425763Y-15744728D01*
X9397192Y-15730442D01*
X9340049Y-15730442D01*
X9311478Y-15744728D01*
X9297192Y-15759014D01*
X9282906Y-15787585D01*
X9282906Y-15859014D01*
X9297192Y-15887585D01*
X9311478Y-15901871D01*
X9340049Y-15916156D01*
X9397192Y-15916156D01*
X9425763Y-15901871D01*
X9440049Y-15887585D01*
X9454335Y-15859014D01*
X9640049Y-15730442D02*
X9668621Y-15730442D01*
X9697192Y-15744728D01*
X9711478Y-15759014D01*
X9725763Y-15787585D01*
X9740049Y-15844728D01*
X9740049Y-15916156D01*
X9725763Y-15973299D01*
X9711478Y-16001871D01*
X9697192Y-16016156D01*
X9668621Y-16030442D01*
X9640049Y-16030442D01*
X9611478Y-16016156D01*
X9597192Y-16001871D01*
X9582906Y-15973299D01*
X9568621Y-15916156D01*
X9568621Y-15844728D01*
X9582906Y-15787585D01*
X9597192Y-15759014D01*
X9611478Y-15744728D01*
X9640049Y-15730442D01*
X9868621Y-16030442D02*
X9868621Y-15830442D01*
X9868621Y-15859014D02*
X9882906Y-15844728D01*
X9911478Y-15830442D01*
X9954335Y-15830442D01*
X9982906Y-15844728D01*
X9997192Y-15873299D01*
X9997192Y-16030442D01*
X9997192Y-15873299D02*
X10011478Y-15844728D01*
X10040049Y-15830442D01*
X10082906Y-15830442D01*
X10111478Y-15844728D01*
X10125763Y-15873299D01*
X10125763Y-16030442D01*
X10268621Y-16030442D02*
X10268621Y-15830442D01*
X10268621Y-15859014D02*
X10282906Y-15844728D01*
X10311478Y-15830442D01*
X10354335Y-15830442D01*
X10382906Y-15844728D01*
X10397192Y-15873299D01*
X10397192Y-16030442D01*
X10397192Y-15873299D02*
X10411478Y-15844728D01*
X10440049Y-15830442D01*
X10482906Y-15830442D01*
X10511478Y-15844728D01*
X10525763Y-15873299D01*
X10525763Y-16030442D01*
X11111478Y-15716156D02*
X10854335Y-16101871D01*
X11497192Y-15730442D02*
X11525763Y-15730442D01*
X11554335Y-15744728D01*
X11568620Y-15759014D01*
X11582906Y-15787585D01*
X11597192Y-15844728D01*
X11597192Y-15916156D01*
X11582906Y-15973299D01*
X11568620Y-16001871D01*
X11554335Y-16016156D01*
X11525763Y-16030442D01*
X11497192Y-16030442D01*
X11468620Y-16016156D01*
X11454335Y-16001871D01*
X11440049Y-15973299D01*
X11425763Y-15916156D01*
X11425763Y-15844728D01*
X11440049Y-15787585D01*
X11454335Y-15759014D01*
X11468620Y-15744728D01*
X11497192Y-15730442D01*
X11725763Y-16001871D02*
X11740049Y-16016156D01*
X11725763Y-16030442D01*
X11711478Y-16016156D01*
X11725763Y-16001871D01*
X11725763Y-16030442D01*
X11925763Y-15730442D02*
X11954335Y-15730442D01*
X11982906Y-15744728D01*
X11997192Y-15759014D01*
X12011477Y-15787585D01*
X12025763Y-15844728D01*
X12025763Y-15916156D01*
X12011477Y-15973299D01*
X11997192Y-16001871D01*
X11982906Y-16016156D01*
X11954335Y-16030442D01*
X11925763Y-16030442D01*
X11897192Y-16016156D01*
X11882906Y-16001871D01*
X11868620Y-15973299D01*
X11854335Y-15916156D01*
X11854335Y-15844728D01*
X11868620Y-15787585D01*
X11882906Y-15759014D01*
X11897192Y-15744728D01*
X11925763Y-15730442D01*
X12125763Y-15730442D02*
X12311477Y-15730442D01*
X12211477Y-15844728D01*
X12254335Y-15844728D01*
X12282906Y-15859014D01*
X12297192Y-15873299D01*
X12311477Y-15901871D01*
X12311477Y-15973299D01*
X12297192Y-16001871D01*
X12282906Y-16016156D01*
X12254335Y-16030442D01*
X12168620Y-16030442D01*
X12140049Y-16016156D01*
X12125763Y-16001871D01*
X12582906Y-15730442D02*
X12440049Y-15730442D01*
X12425763Y-15873299D01*
X12440049Y-15859014D01*
X12468620Y-15844728D01*
X12540049Y-15844728D01*
X12568620Y-15859014D01*
X12582906Y-15873299D01*
X12597192Y-15901871D01*
X12597192Y-15973299D01*
X12582906Y-16001871D01*
X12568620Y-16016156D01*
X12540049Y-16030442D01*
X12468620Y-16030442D01*
X12440049Y-16016156D01*
X12425763Y-16001871D01*
X12711478Y-15730442D02*
X12711478Y-15787585D01*
X12825763Y-15730442D02*
X12825763Y-15787585D01*
X13268620Y-16144728D02*
X13254335Y-16130442D01*
X13225763Y-16087585D01*
X13211477Y-16059014D01*
X13197192Y-16016156D01*
X13182906Y-15944728D01*
X13182906Y-15887585D01*
X13197192Y-15816156D01*
X13211477Y-15773299D01*
X13225763Y-15744728D01*
X13254335Y-15701871D01*
X13268620Y-15687585D01*
X13511477Y-15730442D02*
X13454335Y-15730442D01*
X13425763Y-15744728D01*
X13411477Y-15759014D01*
X13382906Y-15801871D01*
X13368620Y-15859014D01*
X13368620Y-15973299D01*
X13382906Y-16001871D01*
X13397192Y-16016156D01*
X13425763Y-16030442D01*
X13482906Y-16030442D01*
X13511477Y-16016156D01*
X13525763Y-16001871D01*
X13540049Y-15973299D01*
X13540049Y-15901871D01*
X13525763Y-15873299D01*
X13511477Y-15859014D01*
X13482906Y-15844728D01*
X13425763Y-15844728D01*
X13397192Y-15859014D01*
X13382906Y-15873299D01*
X13368620Y-15901871D01*
X13897192Y-16030442D02*
X13897192Y-15730442D01*
X14025763Y-16030442D02*
X14025763Y-15873299D01*
X14011477Y-15844728D01*
X13982906Y-15830442D01*
X13940049Y-15830442D01*
X13911477Y-15844728D01*
X13897192Y-15859014D01*
X14211477Y-16030442D02*
X14182906Y-16016156D01*
X14168620Y-16001871D01*
X14154335Y-15973299D01*
X14154335Y-15887585D01*
X14168620Y-15859014D01*
X14182906Y-15844728D01*
X14211477Y-15830442D01*
X14254335Y-15830442D01*
X14282906Y-15844728D01*
X14297192Y-15859014D01*
X14311477Y-15887585D01*
X14311477Y-15973299D01*
X14297192Y-16001871D01*
X14282906Y-16016156D01*
X14254335Y-16030442D01*
X14211477Y-16030442D01*
X14482906Y-16030442D02*
X14454335Y-16016156D01*
X14440049Y-15987585D01*
X14440049Y-15730442D01*
X14711478Y-16016156D02*
X14682906Y-16030442D01*
X14625763Y-16030442D01*
X14597192Y-16016156D01*
X14582906Y-15987585D01*
X14582906Y-15873299D01*
X14597192Y-15844728D01*
X14625763Y-15830442D01*
X14682906Y-15830442D01*
X14711478Y-15844728D01*
X14725763Y-15873299D01*
X14725763Y-15901871D01*
X14582906Y-15930442D01*
X14840049Y-16016156D02*
X14868620Y-16030442D01*
X14925763Y-16030442D01*
X14954335Y-16016156D01*
X14968620Y-15987585D01*
X14968620Y-15973299D01*
X14954335Y-15944728D01*
X14925763Y-15930442D01*
X14882906Y-15930442D01*
X14854335Y-15916156D01*
X14840049Y-15887585D01*
X14840049Y-15873299D01*
X14854335Y-15844728D01*
X14882906Y-15830442D01*
X14925763Y-15830442D01*
X14954335Y-15844728D01*
X15068620Y-16144728D02*
X15082906Y-16130442D01*
X15111478Y-16087585D01*
X15125763Y-16059014D01*
X15140049Y-16016156D01*
X15154335Y-15944728D01*
X15154335Y-15887585D01*
X15140049Y-15816156D01*
X15125763Y-15773299D01*
X15111478Y-15744728D01*
X15082906Y-15701871D01*
X15068620Y-15687585D01*
X8547192Y-16340728D02*
X8597192Y-16290728D01*
X8547192Y-16240728D01*
X8497192Y-16290728D01*
X8547192Y-16340728D01*
X9025763Y-16426442D02*
X8854335Y-16426442D01*
X8940049Y-16426442D02*
X8940049Y-16126442D01*
X8911478Y-16169299D01*
X8882906Y-16197871D01*
X8854335Y-16212156D01*
X9154335Y-16397871D02*
X9168621Y-16412156D01*
X9154335Y-16426442D01*
X9140049Y-16412156D01*
X9154335Y-16397871D01*
X9154335Y-16426442D01*
X9354335Y-16126442D02*
X9382906Y-16126442D01*
X9411478Y-16140728D01*
X9425763Y-16155014D01*
X9440049Y-16183585D01*
X9454335Y-16240728D01*
X9454335Y-16312156D01*
X9440049Y-16369299D01*
X9425763Y-16397871D01*
X9411478Y-16412156D01*
X9382906Y-16426442D01*
X9354335Y-16426442D01*
X9325763Y-16412156D01*
X9311478Y-16397871D01*
X9297192Y-16369299D01*
X9282906Y-16312156D01*
X9282906Y-16240728D01*
X9297192Y-16183585D01*
X9311478Y-16155014D01*
X9325763Y-16140728D01*
X9354335Y-16126442D01*
X9640049Y-16126442D02*
X9668621Y-16126442D01*
X9697192Y-16140728D01*
X9711478Y-16155014D01*
X9725763Y-16183585D01*
X9740049Y-16240728D01*
X9740049Y-16312156D01*
X9725763Y-16369299D01*
X9711478Y-16397871D01*
X9697192Y-16412156D01*
X9668621Y-16426442D01*
X9640049Y-16426442D01*
X9611478Y-16412156D01*
X9597192Y-16397871D01*
X9582906Y-16369299D01*
X9568621Y-16312156D01*
X9568621Y-16240728D01*
X9582906Y-16183585D01*
X9597192Y-16155014D01*
X9611478Y-16140728D01*
X9640049Y-16126442D01*
X9868621Y-16426442D02*
X9868621Y-16226442D01*
X9868621Y-16255014D02*
X9882906Y-16240728D01*
X9911478Y-16226442D01*
X9954335Y-16226442D01*
X9982906Y-16240728D01*
X9997192Y-16269299D01*
X9997192Y-16426442D01*
X9997192Y-16269299D02*
X10011478Y-16240728D01*
X10040049Y-16226442D01*
X10082906Y-16226442D01*
X10111478Y-16240728D01*
X10125763Y-16269299D01*
X10125763Y-16426442D01*
X10268621Y-16426442D02*
X10268621Y-16226442D01*
X10268621Y-16255014D02*
X10282906Y-16240728D01*
X10311478Y-16226442D01*
X10354335Y-16226442D01*
X10382906Y-16240728D01*
X10397192Y-16269299D01*
X10397192Y-16426442D01*
X10397192Y-16269299D02*
X10411478Y-16240728D01*
X10440049Y-16226442D01*
X10482906Y-16226442D01*
X10511478Y-16240728D01*
X10525763Y-16269299D01*
X10525763Y-16426442D01*
X11111478Y-16112156D02*
X10854335Y-16497871D01*
X11497192Y-16126442D02*
X11525763Y-16126442D01*
X11554335Y-16140728D01*
X11568620Y-16155014D01*
X11582906Y-16183585D01*
X11597192Y-16240728D01*
X11597192Y-16312156D01*
X11582906Y-16369299D01*
X11568620Y-16397871D01*
X11554335Y-16412156D01*
X11525763Y-16426442D01*
X11497192Y-16426442D01*
X11468620Y-16412156D01*
X11454335Y-16397871D01*
X11440049Y-16369299D01*
X11425763Y-16312156D01*
X11425763Y-16240728D01*
X11440049Y-16183585D01*
X11454335Y-16155014D01*
X11468620Y-16140728D01*
X11497192Y-16126442D01*
X11725763Y-16397871D02*
X11740049Y-16412156D01*
X11725763Y-16426442D01*
X11711478Y-16412156D01*
X11725763Y-16397871D01*
X11725763Y-16426442D01*
X11925763Y-16126442D02*
X11954335Y-16126442D01*
X11982906Y-16140728D01*
X11997192Y-16155014D01*
X12011477Y-16183585D01*
X12025763Y-16240728D01*
X12025763Y-16312156D01*
X12011477Y-16369299D01*
X11997192Y-16397871D01*
X11982906Y-16412156D01*
X11954335Y-16426442D01*
X11925763Y-16426442D01*
X11897192Y-16412156D01*
X11882906Y-16397871D01*
X11868620Y-16369299D01*
X11854335Y-16312156D01*
X11854335Y-16240728D01*
X11868620Y-16183585D01*
X11882906Y-16155014D01*
X11897192Y-16140728D01*
X11925763Y-16126442D01*
X12125763Y-16126442D02*
X12311477Y-16126442D01*
X12211477Y-16240728D01*
X12254335Y-16240728D01*
X12282906Y-16255014D01*
X12297192Y-16269299D01*
X12311477Y-16297871D01*
X12311477Y-16369299D01*
X12297192Y-16397871D01*
X12282906Y-16412156D01*
X12254335Y-16426442D01*
X12168620Y-16426442D01*
X12140049Y-16412156D01*
X12125763Y-16397871D01*
X12454335Y-16426442D02*
X12511477Y-16426442D01*
X12540049Y-16412156D01*
X12554335Y-16397871D01*
X12582906Y-16355014D01*
X12597192Y-16297871D01*
X12597192Y-16183585D01*
X12582906Y-16155014D01*
X12568620Y-16140728D01*
X12540049Y-16126442D01*
X12482906Y-16126442D01*
X12454335Y-16140728D01*
X12440049Y-16155014D01*
X12425763Y-16183585D01*
X12425763Y-16255014D01*
X12440049Y-16283585D01*
X12454335Y-16297871D01*
X12482906Y-16312156D01*
X12540049Y-16312156D01*
X12568620Y-16297871D01*
X12582906Y-16283585D01*
X12597192Y-16255014D01*
X12711478Y-16126442D02*
X12711478Y-16183585D01*
X12825763Y-16126442D02*
X12825763Y-16183585D01*
X13268620Y-16540728D02*
X13254335Y-16526442D01*
X13225763Y-16483585D01*
X13211477Y-16455014D01*
X13197192Y-16412156D01*
X13182906Y-16340728D01*
X13182906Y-16283585D01*
X13197192Y-16212156D01*
X13211477Y-16169299D01*
X13225763Y-16140728D01*
X13254335Y-16097871D01*
X13268620Y-16083585D01*
X13354335Y-16126442D02*
X13540049Y-16126442D01*
X13440049Y-16240728D01*
X13482906Y-16240728D01*
X13511477Y-16255014D01*
X13525763Y-16269299D01*
X13540049Y-16297871D01*
X13540049Y-16369299D01*
X13525763Y-16397871D01*
X13511477Y-16412156D01*
X13482906Y-16426442D01*
X13397192Y-16426442D01*
X13368620Y-16412156D01*
X13354335Y-16397871D01*
X13897192Y-16426442D02*
X13897192Y-16126442D01*
X14025763Y-16426442D02*
X14025763Y-16269299D01*
X14011477Y-16240728D01*
X13982906Y-16226442D01*
X13940049Y-16226442D01*
X13911477Y-16240728D01*
X13897192Y-16255014D01*
X14211477Y-16426442D02*
X14182906Y-16412156D01*
X14168620Y-16397871D01*
X14154335Y-16369299D01*
X14154335Y-16283585D01*
X14168620Y-16255014D01*
X14182906Y-16240728D01*
X14211477Y-16226442D01*
X14254335Y-16226442D01*
X14282906Y-16240728D01*
X14297192Y-16255014D01*
X14311477Y-16283585D01*
X14311477Y-16369299D01*
X14297192Y-16397871D01*
X14282906Y-16412156D01*
X14254335Y-16426442D01*
X14211477Y-16426442D01*
X14482906Y-16426442D02*
X14454335Y-16412156D01*
X14440049Y-16383585D01*
X14440049Y-16126442D01*
X14711478Y-16412156D02*
X14682906Y-16426442D01*
X14625763Y-16426442D01*
X14597192Y-16412156D01*
X14582906Y-16383585D01*
X14582906Y-16269299D01*
X14597192Y-16240728D01*
X14625763Y-16226442D01*
X14682906Y-16226442D01*
X14711478Y-16240728D01*
X14725763Y-16269299D01*
X14725763Y-16297871D01*
X14582906Y-16326442D01*
X14840049Y-16412156D02*
X14868620Y-16426442D01*
X14925763Y-16426442D01*
X14954335Y-16412156D01*
X14968620Y-16383585D01*
X14968620Y-16369299D01*
X14954335Y-16340728D01*
X14925763Y-16326442D01*
X14882906Y-16326442D01*
X14854335Y-16312156D01*
X14840049Y-16283585D01*
X14840049Y-16269299D01*
X14854335Y-16240728D01*
X14882906Y-16226442D01*
X14925763Y-16226442D01*
X14954335Y-16240728D01*
X15068620Y-16540728D02*
X15082906Y-16526442D01*
X15111478Y-16483585D01*
X15125763Y-16455014D01*
X15140049Y-16412156D01*
X15154335Y-16340728D01*
X15154335Y-16283585D01*
X15140049Y-16212156D01*
X15125763Y-16169299D01*
X15111478Y-16140728D01*
X15082906Y-16097871D01*
X15068620Y-16083585D01*
M02*
